<?xml version="1.0" standalone="no"?>
<!DOCTYPE svg PUBLIC "-//W3C//DTD SVG 20010904//EN"
 "http://www.w3.org/TR/2001/REC-SVG-20010904/DTD/svg10.dtd">
<svg version="1.0" xmlns="http://www.w3.org/2000/svg"
 width="400.000000pt" height="400.000000pt" viewBox="0 0 400.000000 400.000000"
 preserveAspectRatio="xMidYMid meet">

<g transform="translate(0.000000,400.000000) scale(0.100000,-0.100000)"
fill="#000000" stroke="none">
<path d="M1099 3960 c-156 -15 -350 -76 -484 -153 -203 -116 -349 -273 -418
-447 -39 -99 -47 -139 -57 -277 -13 -175 -12 -1067 0 -1193 23 -221 108 -389
275 -541 184 -167 406 -256 695 -278 225 -17 725 -25 749 -12 20 11 21 18 21
219 0 138 -5 229 -14 273 -18 84 -64 184 -120 263 -90 126 -183 196 -601 451
-284 173 -376 237 -469 325 -157 150 -226 297 -226 483 0 154 57 279 180 389
80 73 232 150 355 180 88 21 105 22 973 25 769 3 895 2 974 -12 319 -55 540
-226 609 -470 17 -62 17 -202 0 -275 -51 -212 -200 -385 -466 -542 -33 -20
-156 -86 -274 -147 -345 -180 -483 -281 -580 -427 -83 -123 -93 -168 -100
-453 -4 -162 -2 -252 4 -265 11 -21 16 -21 380 -19 204 1 411 7 460 13 301 37
571 174 748 379 100 115 160 258 177 416 12 116 12 1207 0 1303 -31 242 -158
435 -386 588 -133 89 -254 138 -444 181 l-115 27 -880 2 c-484 1 -919 -2 -966
-6z m-503 -1745 c93 -67 245 -158 479 -285 94 -51 198 -112 231 -136 146 -103
231 -252 222 -389 l-3 -50 -175 -3 c-274 -5 -396 18 -570 109 -159 82 -288
239 -319 387 -6 29 -11 148 -11 264 l0 210 33 -25 c19 -14 69 -51 113 -82z
m2964 -92 c0 -104 -5 -216 -10 -251 -32 -193 -138 -331 -325 -423 -156 -76
-306 -102 -560 -97 l-150 3 -3 65 c-6 125 66 276 171 361 29 23 152 90 277
151 237 116 361 192 499 308 46 38 88 70 92 70 5 0 9 -84 9 -187z"/>
<path d="M207 523 c-3 -5 -26 -64 -52 -133 -26 -69 -57 -152 -70 -185 -46
-118 -65 -170 -65 -177 0 -5 36 -8 79 -8 l79 0 15 43 14 42 89 0 88 0 12 -40
11 -40 81 -3 c45 -2 82 1 82 5 0 4 -41 119 -92 255 l-93 248 -87 0 c-48 0 -89
-3 -91 -7z m90 -301 c-27 -2 -51 -2 -53 0 -1 2 9 42 24 88 l26 85 26 -85 26
-85 -49 -3z"/>
<path d="M622 278 l3 -253 115 -3 c139 -4 262 11 295 35 60 45 75 138 30 192
-14 16 -35 33 -47 36 -19 7 -19 8 10 35 58 53 48 148 -20 190 -30 18 -50 20
-211 20 l-177 0 2 -252z m282 130 c20 -29 20 -34 -4 -58 -12 -12 -33 -20 -54
-20 -57 0 -66 8 -66 56 l0 44 54 0 c45 0 58 -4 70 -22z m13 -190 c16 -13 17
-50 1 -66 -7 -7 -39 -12 -75 -12 l-63 0 0 43 c0 24 3 47 8 51 10 11 112 -2
129 -16z"/>
<path d="M1180 275 l0 -256 78 3 77 3 3 253 2 252 -80 0 -80 0 0 -255z"/>
<path d="M1442 278 l3 -253 78 -3 77 -3 0 94 0 94 85 5 c100 7 140 26 172 84
42 73 22 166 -46 211 -32 22 -44 23 -203 23 l-168 0 2 -252z m260 140 c41 -33
21 -95 -32 -99 -69 -4 -70 -3 -70 56 l0 55 43 0 c24 0 50 -6 59 -12z"/>
<path d="M1960 275 l0 -256 78 3 77 3 3 103 c2 83 5 102 18 102 24 0 56 -39
103 -128 l44 -82 168 0 169 0 11 45 11 45 88 0 88 0 14 -42 13 -43 83 -3 c45
-2 82 0 82 3 0 5 -50 140 -124 335 -18 47 -39 103 -47 125 l-15 40 -89 3 -90
3 -89 -238 c-49 -131 -92 -242 -96 -246 -4 -4 -24 25 -45 65 -42 83 -61 109
-90 125 -19 11 -19 12 5 21 77 30 111 127 72 201 -34 63 -64 71 -264 71 l-178
0 0 -255z m281 145 c21 -12 25 -41 9 -71 -9 -15 -22 -19 -70 -19 l-60 0 0 50
0 50 51 0 c28 0 59 -5 70 -10z m539 -192 c0 -5 -23 -8 -51 -8 -42 0 -50 3 -45
15 3 9 13 41 22 73 9 31 19 61 22 67 5 8 52 -125 52 -147z"/>
<path d="M2956 518 c4 -7 47 -72 95 -144 l88 -130 3 -110 3 -109 78 -3 77 -3
0 106 0 107 100 149 100 149 -89 0 -89 0 -47 -80 c-26 -44 -48 -80 -50 -80 -2
0 -25 36 -52 80 l-48 80 -88 0 c-68 0 -86 -3 -81 -12z"/>
<path d="M3609 503 c-6 -16 -26 -68 -44 -118 -36 -97 -68 -181 -109 -288 -30
-79 -30 -79 69 -75 l68 3 11 40 12 40 88 0 89 0 15 -42 14 -43 79 0 c43 0 79
4 79 8 0 10 -27 88 -58 167 -11 28 -43 114 -72 193 l-53 142 -89 0 c-87 0 -89
0 -99 -27z m125 -198 c14 -43 24 -81 22 -83 -2 -2 -26 -2 -53 0 l-49 3 24 83
c14 45 26 81 28 79 2 -1 14 -38 28 -82z"/>
</g>
</svg>
