<?xml version="1.0" standalone="no"?>
<!DOCTYPE svg PUBLIC "-//W3C//DTD SVG 20010904//EN"
 "http://www.w3.org/TR/2001/REC-SVG-20010904/DTD/svg10.dtd">
<svg version="1.0" xmlns="http://www.w3.org/2000/svg"
 width="1912.000000pt" height="784.000000pt" viewBox="0 0 1912.000000 784.000000"
 preserveAspectRatio="xMidYMid meet">

<g transform="translate(0.000000,784.000000) scale(0.100000,-0.100000)"
fill="#000000" stroke="none">
<path d="M2552 6568 l-127 -123 -923 -1925 c-507 -1059 -933 -1949 -947 -1978
l-24 -52 582 2 581 3 211 472 210 473 411 0 411 0 5 -58 c3 -32 21 -246 39
-475 l33 -417 563 0 563 0 53 83 c29 45 90 141 136 214 l83 132 -236 1848
c-130 1016 -239 1865 -242 1886 l-6 37 -624 0 -624 0 -128 -122z m286 -1850
c17 -182 30 -333 28 -335 -2 -2 -86 -2 -188 -1 l-185 3 150 333 c83 182 153
332 156 332 4 0 21 -149 39 -332z"/>
<path d="M10295 6679 c-183 -24 -454 -103 -599 -176 -222 -111 -469 -262 -559
-343 -65 -58 -189 -214 -248 -312 -121 -200 -176 -471 -149 -731 26 -253 121
-450 304 -625 119 -114 199 -165 436 -274 33 -16 9 -17 -410 -17 l-445 -1
-137 -90 -138 -89 0 -126 c0 -680 263 -1113 801 -1321 361 -140 963 -177 1354
-84 226 53 455 152 600 259 44 33 114 79 157 102 214 118 399 308 510 525 84
164 115 293 124 514 13 296 -45 525 -180 714 -57 80 -190 206 -274 260 -180
116 -429 208 -767 282 -321 70 -541 169 -590 265 -19 35 -19 129 -2 154 20 26
227 33 349 12 158 -28 245 -83 299 -192 28 -57 30 -70 27 -144 l-3 -81 535 0
535 0 138 91 139 90 -7 107 c-15 250 -42 357 -133 536 -209 410 -578 636
-1134 696 -115 12 -434 11 -533 -1z m-337 -2613 c349 -101 455 -145 550 -232
l47 -42 3 -79 c3 -54 -1 -90 -11 -115 -14 -33 -19 -36 -83 -49 -97 -19 -279
-15 -396 9 -112 23 -193 58 -254 108 -56 45 -111 155 -123 246 -8 59 -4 228 6
228 2 0 119 -33 261 -74z"/>
<path d="M12760 6570 c-112 -65 -206 -122 -207 -127 -1 -4 -160 -883 -353
-1953 -192 -1070 -352 -1955 -355 -1967 l-5 -23 1270 0 1271 0 144 116 c142
114 144 116 154 167 16 75 171 905 171 911 0 4 -328 6 -730 6 -589 0 -730 2
-730 13 0 7 14 87 30 177 17 90 30 166 30 167 0 2 237 3 528 3 l527 0 125 101
c69 55 133 108 142 117 13 13 40 135 103 467 46 248 87 460 90 473 l5 22 -650
0 c-514 0 -650 3 -650 13 0 6 9 59 20 117 11 58 20 106 20 107 0 2 256 3 569
3 l569 0 144 115 143 116 87 472 c48 260 87 480 88 490 0 16 -62 17 -1172 16
l-1173 -1 -205 -118z"/>
<path d="M15588 6576 c-76 -62 -140 -115 -143 -117 -3 -3 -43 -215 -90 -470
-47 -255 -87 -474 -90 -486 l-5 -23 479 0 c264 0 482 -3 484 -7 2 -5 -117
-667 -264 -1473 -148 -806 -268 -1473 -269 -1482 0 -17 32 -18 536 -18 l536 0
141 116 c78 63 146 125 150 137 4 12 118 627 253 1366 135 739 247 1348 250
1353 3 4 169 8 370 8 l364 0 143 118 144 117 82 465 c46 256 85 475 88 488 l5
22 -1513 0 -1514 -1 -137 -113z"/>
<path d="M6651 6669 c-257 -27 -586 -126 -831 -249 -323 -162 -593 -394 -773
-661 -40 -59 -106 -153 -148 -210 -241 -328 -383 -708 -429 -1149 -13 -124
-13 -391 0 -505 68 -596 382 -1051 893 -1295 192 -92 432 -156 671 -179 140
-14 459 -14 600 -1 136 13 264 40 394 84 139 47 322 127 322 140 0 7 -84 201
-186 431 -102 231 -188 425 -190 430 -3 6 -81 10 -207 10 -221 0 -283 10 -422
67 -99 41 -157 81 -225 156 -184 204 -218 510 -99 882 36 114 148 344 220 455
148 226 379 370 614 383 191 10 408 -43 561 -138 44 -26 80 -47 80 -47 1 1 75
211 164 467 129 369 175 490 226 586 35 67 64 126 64 132 0 14 -181 105 -260
131 -206 66 -408 91 -725 90 -126 -1 -268 -6 -314 -10z"/>
<path d="M13725 1370 c-38 -12 -79 -55 -94 -99 -6 -19 -11 -72 -11 -117 l0
-84 -70 0 -70 0 0 -35 0 -35 70 0 70 0 0 -281 0 -280 38 3 37 3 3 277 2 277
73 3 72 3 3 33 3 32 -75 0 -76 0 0 89 c0 82 2 92 27 121 24 29 30 31 79 28 49
-3 53 -1 58 22 2 14 1 29 -4 34 -13 13 -100 17 -135 6z"/>
<path d="M10670 900 l0 -460 40 0 40 0 0 50 0 50 35 -39 c60 -66 158 -87 262
-56 124 37 194 178 180 363 -5 59 -13 91 -39 141 -45 89 -98 122 -203 129 -94
6 -149 -13 -199 -69 l-36 -39 0 195 0 195 -40 0 -40 0 0 -460z m380 86 c23
-15 47 -44 61 -73 21 -42 24 -62 24 -158 0 -123 -16 -169 -75 -219 -39 -33
-67 -40 -134 -34 -67 6 -104 31 -141 99 -76 141 -21 372 99 409 48 15 124 4
166 -24z"/>
<path d="M15446 1294 c-92 -29 -148 -81 -172 -161 -43 -143 20 -249 187 -313
115 -44 154 -65 178 -96 37 -47 22 -99 -41 -134 -53 -29 -150 -30 -238 0 -34
12 -64 20 -65 18 -2 -2 -6 -35 -10 -75 l-7 -71 58 -14 c33 -7 111 -13 174 -12
95 0 125 4 173 23 114 45 160 110 161 226 1 131 -49 185 -236 257 -118 45
-158 77 -158 127 0 16 10 41 22 56 43 55 118 68 237 40 35 -9 66 -14 68 -12 2
2 6 33 10 69 l6 65 -58 11 c-80 16 -230 14 -289 -4z"/>
<path d="M14455 913 c-88 -213 -168 -406 -177 -430 l-18 -43 94 0 94 0 39 98
39 97 185 3 185 2 39 -97 40 -98 98 -3 c53 -1 97 1 97 6 0 4 -77 192 -171 418
-94 225 -173 415 -176 422 -4 8 -35 12 -107 12 l-101 0 -160 -387z m325 41
c34 -91 60 -167 57 -170 -2 -3 -61 -3 -129 -2 l-125 3 57 151 c31 83 60 159
63 168 4 9 8 16 10 16 3 0 32 -75 67 -166z"/>
<path d="M15920 1230 l0 -70 130 0 130 0 0 -360 0 -360 90 0 90 0 0 360 0 360
130 0 130 0 0 70 0 70 -350 0 -350 0 0 -70z"/>
<path d="M16720 871 l0 -431 90 0 90 0 0 180 0 180 50 0 c97 0 103 -8 217
-285 l29 -70 97 -3 c59 -2 97 1 97 7 0 15 -139 331 -161 368 -11 18 -29 35
-40 38 -25 8 -17 21 18 30 136 34 180 242 72 340 -62 56 -116 67 -351 72
l-208 5 0 -431z m363 280 c43 -17 67 -51 67 -96 0 -78 -43 -110 -168 -120
l-82 -8 0 117 0 116 79 0 c44 0 91 -4 104 -9z"/>
<path d="M17786 1291 c-12 -18 -346 -833 -346 -842 0 -6 39 -9 91 -7 l91 3 38
95 38 95 187 0 187 0 38 -95 38 -95 96 -3 c73 -2 96 0 96 10 -1 7 -78 200
-173 428 l-173 415 -101 3 c-57 1 -104 -1 -107 -7z m170 -346 l62 -165 -129 0
c-71 0 -129 4 -129 9 0 4 18 57 41 117 23 60 50 133 61 162 11 29 23 51 26 47
3 -3 34 -80 68 -170z"/>
<path d="M8045 1066 c-37 -18 -54 -33 -83 -70 l-22 -29 0 52 0 51 -40 0 -40 0
2 -312 3 -313 40 0 40 0 5 220 c5 218 5 221 32 267 45 75 127 105 203 74 66
-28 69 -42 75 -316 l5 -245 40 0 40 0 5 220 c5 203 7 223 27 261 40 75 132
111 205 81 69 -29 72 -41 78 -317 l5 -245 40 0 40 0 0 245 c0 231 -1 247 -22
285 -39 74 -96 105 -190 105 -74 0 -129 -25 -175 -79 l-35 -42 -13 31 c-7 17
-29 43 -48 58 -30 23 -47 27 -111 30 -51 1 -86 -3 -106 -12z"/>
<path d="M9079 1066 c-113 -40 -179 -156 -179 -311 0 -151 48 -247 147 -292
75 -34 167 -41 267 -19 l76 17 0 41 c0 34 -3 39 -17 33 -98 -41 -211 -47 -272
-15 -66 33 -111 107 -111 181 l0 39 226 0 227 0 -6 63 c-19 185 -104 278 -256
277 -37 -1 -82 -7 -102 -14z m190 -73 c36 -27 70 -91 77 -147 l7 -46 -182 0
-181 0 0 30 c0 70 68 158 138 181 41 13 111 4 141 -18z"/>
<path d="M9775 1066 c-37 -18 -54 -33 -83 -70 l-22 -29 0 52 0 51 -40 0 -40 0
2 -312 3 -313 40 0 40 0 5 220 c5 203 7 223 27 261 40 75 132 111 205 81 69
-29 72 -41 78 -317 l5 -245 40 0 40 0 5 220 c4 190 8 225 24 258 37 75 135
114 208 84 69 -29 72 -41 78 -317 l5 -245 40 0 40 0 0 235 c0 247 -5 282 -47
336 -32 39 -93 64 -163 64 -76 0 -130 -25 -177 -79 l-35 -42 -13 31 c-7 17
-29 43 -48 58 -30 23 -47 27 -111 30 -51 1 -86 -3 -106 -12z"/>
<path d="M11525 1064 c-54 -20 -119 -86 -146 -148 -27 -62 -36 -188 -19 -269
35 -170 193 -250 404 -203 l76 17 0 39 0 38 -62 -20 c-91 -28 -190 -22 -247
15 -49 33 -91 110 -91 170 l0 37 226 0 227 0 -6 68 c-11 130 -56 208 -141 248
-60 28 -157 31 -221 8z m169 -58 c56 -23 106 -109 106 -183 l0 -23 -180 0
-180 0 0 33 c0 40 50 128 86 152 55 36 115 43 168 21z"/>
<path d="M12213 1060 c-18 -10 -45 -38 -60 -62 l-28 -42 -3 57 -3 57 -41 0
-41 0 6 -67 c4 -38 7 -180 7 -316 l0 -248 38 3 37 3 5 215 c5 213 5 215 33
262 34 58 69 78 137 78 l50 0 0 40 0 40 -52 0 c-35 0 -64 -7 -85 -20z"/>
<path d="M12980 1065 c-63 -20 -124 -75 -157 -143 -25 -51 -28 -67 -28 -162 0
-92 3 -112 26 -160 49 -104 127 -157 247 -167 133 -11 242 44 297 151 25 50
30 72 33 155 3 81 0 106 -18 156 -28 75 -96 145 -165 169 -59 19 -172 20 -235
1z m181 -56 c92 -31 149 -120 152 -236 2 -89 -17 -152 -61 -204 -44 -51 -85
-69 -157 -69 -87 0 -149 39 -191 120 -23 46 -31 183 -14 236 42 126 157 191
271 153z"/>
</g>
</svg>
