<?xml version="1.0" encoding="UTF-8"?>
<svg version="1.1" xmlns="http://www.w3.org/2000/svg" width="776" height="867">
<path d="M0 0 C1.01852051 0.47856445 1.01852051 0.47856445 2.05761719 0.96679688 C26.91138335 12.64670884 49.42172657 27.87287825 70 46 C70.78632812 46.67546875 71.57265625 47.3509375 72.3828125 48.046875 C84.86676097 58.9650401 96.94645933 70.79240735 107 84 C108.01049838 85.28351381 109.02232559 86.56598206 110.03515625 87.84765625 C160.17006428 151.75686879 181.78189959 232.5549361 173 313 C169.06670102 345.28255134 160.11399841 376.67930653 146 406 C145.6714502 406.68739258 145.34290039 407.37478516 145.00439453 408.08300781 C132.0288246 435.07269989 115.39324126 459.45473483 95.1875 481.58984375 C93.06733383 483.92581254 91.0030269 486.30326875 88.9375 488.6875 C85.91690457 492.08715055 82.76080273 495.09302352 79.28515625 498.01953125 C77.0610945 499.94705143 74.94383152 501.96360988 72.82250977 504.00268555 C19.52194606 554.75448763 -56.79902377 581.19472 -129.5625 581.25 C-130.36925171 581.25067474 -131.17600342 581.25134949 -132.00720215 581.25204468 C-194.42007727 581.16986993 -256.3425899 561.65724279 -307 525 C-308.05832031 524.23816406 -309.11664063 523.47632813 -310.20703125 522.69140625 C-329.27486482 508.67167541 -348.09873079 492.33088212 -362.81640625 473.73046875 C-364.24102686 471.94905585 -365.70621073 470.19912964 -367.21484375 468.48828125 C-400.61582971 430.41893785 -421.71351333 380.30377646 -430.75 330.875 C-431.04825684 329.2511438 -431.04825684 329.2511438 -431.35253906 327.59448242 C-434.29391341 310.59833346 -435.38674935 293.66553377 -435.3125 276.4375 C-435.30926727 275.0716124 -435.30926727 275.0716124 -435.30596924 273.6781311 C-435.02870409 200.20687288 -407.99789933 127.50655139 -358.0390625 73.22265625 C-356.18749705 71.20437897 -354.40167 69.14650865 -352.625 67.0625 C-345.70110507 59.12652762 -338.09117389 51.73600191 -330 45 C-329.47905762 44.55994629 -328.95811523 44.11989258 -328.42138672 43.66650391 C-245.92209375 -25.85332536 -134.07434138 -46.62832869 0 0 Z " fill="#DD2529" transform="translate(517,87)"/>
<path d="M0 0 C9.24 0 18.48 0 28 0 C28 61.05 28 122.1 28 185 C-65.3232868 185 -65.3232868 185 -84.83203125 166.19140625 C-85.54746094 165.46824219 -86.26289063 164.74507812 -87 164 C-87.62261719 163.41089844 -88.24523437 162.82179688 -88.88671875 162.21484375 C-101.56232146 149.25439604 -105.27896917 131.4142195 -105.24438477 113.98217773 C-104.99379537 95.12901098 -96.84767325 80.14298196 -83.84765625 66.7890625 C-70.32236982 54.02197477 -54.39564683 48.80740392 -36.1328125 48.90234375 C-35.21491943 48.90335083 -34.29702637 48.90435791 -33.35131836 48.90539551 C-29.94253275 48.91060341 -26.53376504 48.9245646 -23.125 48.9375 C-11.678125 48.9684375 -11.678125 48.9684375 0 49 C0 32.83 0 16.66 0 0 Z " fill="#FEFCFC" transform="translate(408,273)"/>
<path d="M0 0 C0.74413713 -0.00012053 1.48827427 -0.00024107 2.25496101 -0.00036526 C4.64542841 0.00037657 7.03581622 0.00797127 9.42626953 0.01586914 C10.90942345 0.01734083 12.39257788 0.01836014 13.87573242 0.0189209 C19.35352358 0.02414753 24.8313036 0.0381088 30.30908203 0.05102539 C42.56033203 0.07165039 54.81158203 0.09227539 67.43408203 0.11352539 C67.43408203 44.99352539 67.43408203 89.87352539 67.43408203 136.11352539 C55.38908203 136.19602539 43.34408203 136.27852539 30.93408203 136.36352539 C27.16421875 136.39994141 23.39435547 136.43635742 19.51025391 136.47387695 C14.82177734 136.49194336 14.82177734 136.49194336 12.61047363 136.49530029 C11.10196172 136.50134769 9.59346617 136.51521219 8.08508301 136.53582764 C-11.84285974 136.79400468 -29.53270513 132.48312731 -44.38574219 118.36865234 C-57.86334104 105.06488517 -65.5247433 89.72754172 -65.80786133 70.64111328 C-65.87112643 49.32077258 -59.41374765 33.3111145 -44.41357422 17.90258789 C-32.13278619 6.31023464 -16.85432262 -0.02837428 0 0 Z " fill="#FEFDFD" transform="translate(216.56591796875,321.886474609375)"/>
<path d="M0 0 C9.24 0 18.48 0 28 0 C28 16.5 28 33 28 50 C39.74072997 49.80397906 39.74072997 49.80397906 51.48022461 49.54956055 C70.74665836 49.27374832 87.6480428 54.42283558 101.75 68.0625 C114.91515958 81.4371538 121.21201571 98.20471049 121.11352539 116.88476562 C121.11367142 117.6272052 121.11381744 118.36964478 121.1139679 119.13458252 C121.11327809 121.5585027 121.10552992 123.98234345 121.09765625 126.40625 C121.09578875 128.09875446 121.09436642 129.79125946 121.09336853 131.48376465 C121.08956948 135.91586832 121.07976177 140.34793869 121.06866455 144.7800293 C121.058394 149.31168162 121.05385887 153.84333937 121.04882812 158.375 C121.03813692 167.25001691 121.02056155 176.12500046 121 185 C112.09 185 103.18 185 94 185 C93.9906543 182.94233398 93.98130859 180.88466797 93.97167969 178.76464844 C93.93772924 171.92330306 93.8820817 165.08225361 93.81609726 158.24114609 C93.77679057 154.09824927 93.7445206 149.95555964 93.72900391 145.8125 C93.71372534 141.8051471 93.67908553 137.79836451 93.63169098 133.7912674 C93.61699148 132.2717208 93.60896564 130.75209273 93.60811615 129.23247528 C93.59241857 115.21647669 90.95394086 103.19684123 82 92 C66.89582832 77.14434303 48.83938817 78.71859959 28 78 C28 113.31 28 148.62 28 185 C18.76 185 9.52 185 0 185 C0 123.95 0 62.9 0 0 Z " fill="#FEFDFD" transform="translate(455,273)"/>
<path d="M0 0 C7.198125 0.0825 14.39625 0.165 21.8125 0.25 C21.8125 26.65 21.8125 53.05 21.8125 80.25 C14.75875 80.311875 7.705 80.37375 0.4375 80.4375 C-1.76856934 80.46481201 -3.97463867 80.49212402 -6.24755859 80.52026367 C-8.02701269 80.52903841 -9.80647288 80.53668 -11.5859375 80.54296875 C-12.93425659 80.5659906 -12.93425659 80.5659906 -14.30981445 80.58947754 C-26.59712738 80.59447103 -35.83098438 76.25668071 -44.875 68.125 C-53.59200221 59.00161074 -55.59740371 47.99234871 -55.45703125 35.84375 C-54.65518237 25.15243163 -49.05691686 15.4314266 -41.0546875 8.3671875 C-38.83569481 6.78446512 -36.59314916 5.52911166 -34.1875 4.25 C-33.51138672 3.88156982 -32.83527344 3.51313965 -32.13867188 3.13354492 C-22.04735992 -1.38714812 -10.8017741 -0.17488992 0 0 Z " fill="#E10F1D" transform="translate(234.1875,349.75)"/>
<path d="M0 0 C0.85791138 0.00201416 1.71582275 0.00402832 2.59973145 0.00610352 C5.77617816 0.01649461 8.9525481 0.04441672 12.12890625 0.0703125 C19.24453125 0.1115625 26.36015625 0.1528125 33.69140625 0.1953125 C33.69140625 26.2653125 33.69140625 52.3353125 33.69140625 79.1953125 C22.58484375 79.288125 22.58484375 79.288125 11.25390625 79.3828125 C7.77452515 79.42378052 7.77452515 79.42378052 4.22485352 79.46557617 C2.36084512 79.47434816 0.49683092 79.48199041 -1.3671875 79.48828125 C-2.78795593 79.5113031 -2.78795593 79.5113031 -4.23742676 79.53479004 C-15.40608432 79.53913075 -23.85732635 75.85501335 -32.21875 68.51953125 C-39.76184028 60.77750232 -43.86216583 50.74368355 -43.93359375 40.0078125 C-43.61879092 27.79900076 -39.04895342 19.02717027 -30.58203125 10.4453125 C-21.66925873 2.30579422 -11.79122714 -0.13196615 0 0 Z " fill="#E4101B" transform="translate(374.30859375,349.8046875)"/>
<path d="M0 0 C8.91 0 17.82 0 27 0 C27 43.89 27 87.78 27 133 C18.09 133 9.18 133 0 133 C0 89.11 0 45.22 0 0 Z " fill="#FEFEFE" transform="translate(590,325)"/>
<path d="M0 0 C5.57420893 3.34242979 9.93037832 7.64516872 11.640625 14.05859375 C12.42361442 20.91568292 11.73176617 26.38908022 7.640625 32.05859375 C3.13576949 37.03165053 -1.66134475 38.79749405 -8.234375 39.43359375 C-13.55361883 39.27086354 -18.04150361 37.25323654 -21.90234375 33.59765625 C-26.70880225 28.04415288 -27.77939482 24.00727403 -27.59765625 16.8046875 C-26.97078505 9.58025386 -23.59039451 5.91282614 -18.296875 1.44140625 C-13.26308418 -2.15125897 -5.63740854 -2.24936334 0 0 Z " fill="#FEFAF9" transform="translate(611.359375,268.94140625)"/>
<path d="M0 0 C1.98 0 3.96 0 6 0 C6 19.14 6 38.28 6 58 C4.02 58 2.04 58 0 58 C-0.33 57.01 -0.66 56.02 -1 55 C-1.53753906 55.48726562 -2.07507813 55.97453125 -2.62890625 56.4765625 C-5.59311862 58.38108115 -7.43753536 58.40148145 -10.9375 58.375 C-11.95714844 58.38273438 -12.97679687 58.39046875 -14.02734375 58.3984375 C-17.41406658 57.94450093 -19.26161147 57.0147729 -22 55 C-27.98422769 47.02102975 -27.8255093 38.59861525 -27 29 C-26.06241096 24.78383527 -24.65471611 22.24552384 -21.19921875 19.64453125 C-16.8292316 17.15830555 -13.05004217 16.3453649 -8 17 C-2.77419355 19.22580645 -2.77419355 19.22580645 -1 21 C-0.67 14.07 -0.34 7.14 0 0 Z M-18 25 C-21.76638058 30.90066291 -21.69550345 37.15624606 -21 44 C-19.93502759 48.18744253 -18.69254538 50.53830308 -15 53 C-10.40617081 53.44456411 -8.11743887 53.65588803 -4.125 51.3125 C0.40480812 46.38300293 0.36817492 41.29959888 0.2578125 34.8828125 C-0.13767674 30.46052369 -1.76977873 27.69887699 -4.3125 24.1875 C-9.10248119 20.8167725 -13.46488735 21.775031 -18 25 Z " fill="#000000" transform="translate(286,735)"/>
<path d="M0 0 C1.98 0 3.96 0 6 0 C6.33 6.93 6.66 13.86 7 21 C8.32 20.01 9.64 19.02 11 18 C16.29318201 16.42796474 21.2238303 16.72735792 26.2734375 18.91015625 C30.05808799 21.29910984 31.63277252 24.89831757 33 29 C34.14396816 46.9096655 34.14396816 46.9096655 29 54 C26.2335091 56.68910654 24.65701832 57.89786863 20.80859375 58.49609375 C19.69613281 58.47675781 18.58367187 58.45742188 17.4375 58.4375 C16.32246094 58.43621094 15.20742187 58.43492187 14.05859375 58.43359375 C10.79043778 57.97029195 9.39513144 57.2077373 7 55 C6.67 55.99 6.34 56.98 6 58 C4.02 58 2.04 58 0 58 C0 38.86 0 19.72 0 0 Z M10 25 C5.65056661 29.97078101 5.72358288 34.68773168 5.77734375 41.046875 C6.10849641 45.43900504 7.57492378 48.26984881 10.33203125 51.6171875 C13.00755504 53.83530325 15.41122784 53.59075391 18.7734375 53.4921875 C21.38389765 52.91513841 22.2841994 52.20431825 24 50.1875 C27.68123326 44.32053449 27.61578794 38.76511473 27 32 C25.75835564 27.68798506 24.35729711 24.79451538 20.4375 22.5 C15.84459302 21.55786523 13.78309014 22.3518369 10 25 Z " fill="#000000" transform="translate(64,735)"/>
<path d="M0 0 C9.92724784 1.2606029 18.14785929 5.58419895 27 10 C27 10.66 27 11.32 27 12 C29.475 12.495 29.475 12.495 32 13 C32 13.66 32 14.32 32 15 C33.32 15.33 34.64 15.66 36 16 C36 16.66 36 17.32 36 18 C36.639375 18.12375 37.27875 18.2475 37.9375 18.375 C38.9584375 18.684375 38.9584375 18.684375 40 19 C40.495 19.99 40.495 19.99 41 21 C41.70125 21.391875 42.4025 21.78375 43.125 22.1875 C48.07346917 25.30718709 52.36500222 28.6716748 53.9375 34.4375 C53.958125 35.283125 53.97875 36.12875 54 37 C52.02 36.505 52.02 36.505 50 36 C50 38.97 50 41.94 50 45 C47.41598451 42.51934513 45.06468942 39.91533765 42.75 37.1875 C35.16974863 28.49203041 26.71637764 22.28655105 16 18 C7.75735294 14.64705882 7.75735294 14.64705882 5 12 C5 11.01 5 10.02 5 9 C4.01 8.67 3.02 8.34 2 8 C2 7.34 2 6.68 2 6 C1.03900391 5.92652344 1.03900391 5.92652344 0.05859375 5.8515625 C-5.21196085 5.3959855 -9.96986288 4.6402621 -15 3 C-15 2.67 -15 2.34 -15 2 C-8.59646678 1.7638041 -3.15370839 2.176679 3 4 C3 3.34 3 2.68 3 2 C2.01 1.67 1.02 1.34 0 1 C0 0.67 0 0.34 0 0 Z " fill="#F3A796" transform="translate(503,132)"/>
<path d="M0 0 C4.93112629 4.53130524 7.08493027 11.39432124 7.375 18 C7.09713835 24.05255154 5.43513713 29.27047576 1.5625 33.9375 C-4.78874279 39.04947591 -11.05269529 38.73004311 -19 38 C-24.51558072 35.62259452 -26.44557809 32.20345204 -29 27 C-31.22832294 20.31503117 -30.90751123 12.1523493 -28.04296875 5.68359375 C-25.59171439 1.72670001 -22.30053307 -0.41891076 -18.0625 -2.3125 C-11.47601134 -3.79109949 -5.91878602 -3.19200905 0 0 Z M-19 5 C-23.49018466 9.73289735 -24.37002537 13.35341793 -24.28515625 19.83984375 C-23.66271149 24.55507598 -21.33939652 28.41256709 -18.3125 32 C-14.55727925 33.62387925 -11.01443701 33.61042423 -7 33 C-2.8713651 31.02543548 -1.57165023 28.53006297 -0.0625 24.375 C1.36612534 18.87966277 0.92659313 14.31701927 -1 9 C-3.40535028 5.01873056 -5.5217865 3.26308586 -10 2 C-13.8148669 2 -15.72675616 3.06277405 -19 5 Z " fill="#000000" transform="translate(664,755)"/>
<path d="M0 0 C4.86682998 4.60375809 7.12071226 10.81446032 7.375 17.4375 C7.12442605 23.74542681 5.61375909 29.0552134 1.5625 33.9375 C-4.78874279 39.04947591 -11.05269529 38.73004311 -19 38 C-24.51558072 35.62259452 -26.44557809 32.20345204 -29 27 C-30.93804434 21.18586699 -31.08282004 13.80580152 -28.75 8.0625 C-25.57303538 2.50281191 -23.20380229 -0.51332643 -17.07421875 -2.49609375 C-10.93048913 -3.98863824 -5.48110193 -2.96793292 0 0 Z M-20.75 6.3125 C-23.73304344 10.33960864 -24.45311758 14.9679101 -24.3203125 19.91015625 C-23.60363447 24.5860434 -21.32797045 28.42610909 -18.3125 32 C-14.57518707 33.61613532 -10.99549096 33.64926728 -7 33 C-2.75390406 30.47041093 -0.69082772 27.71656313 0.51953125 22.95703125 C1.32296451 17.07589981 0.75911696 12.31582765 -2 7 C-4.57706276 4.2139862 -6.34312724 3.20964024 -9.9375 2.0625 C-14.41567927 1.97110859 -17.23089231 3.67316923 -20.75 6.3125 Z " fill="#000000" transform="translate(384,755)"/>
<path d="M0 0 C4.67705554 4.003843 6.64273142 8.66871193 7.2890625 14.6953125 C7.65560287 22.23832743 6.3701052 27.79046714 2 34 C-0.96013458 37.18783724 -2.96343242 37.8828878 -7.25 38.3671875 C-14.27335036 38.62014715 -19.54129272 38.62803444 -25 34 C-29.84020839 27.56132773 -30.80673961 20.84330173 -30 13 C-28.71593385 8.11496573 -27.12291566 4.18201649 -23.625 0.5 C-15.84213536 -3.94735122 -7.88433838 -4.42251754 0 0 Z M-19 5 C-23.04113797 9.5872377 -24.24645667 14.00617373 -24 20 C-23.17302884 24.56663721 -21.84584889 27.98000575 -18.875 31.5625 C-14.83377004 33.58311498 -11.43145346 33.77349006 -7 33 C-2.57112661 30.68928345 -0.98510997 27.66742525 0.4921875 23.07421875 C1.94395759 17.14429629 1.01472466 12.9400792 -1.8671875 7.73046875 C-4.07220448 4.36211523 -6.07238104 3.28231882 -9.875 2.125 C-13.87040676 1.96518373 -15.69220987 2.77083709 -19 5 Z " fill="#000000" transform="translate(204,755)"/>
<path d="M0 0 C5.62817689 6.31038015 6.0625 12.10927681 6.0625 20.3125 C-2.5175 20.3125 -11.0975 20.3125 -19.9375 20.3125 C-17.86134576 28.58853753 -17.86134576 28.58853753 -15.0546875 31.359375 C-12.54568069 32.48889098 -10.8080056 32.64802977 -8.0625 32.5625 C-7.19109375 32.53671875 -6.3196875 32.5109375 -5.421875 32.484375 C-2.54694517 32.28548048 0.24228862 31.90622871 3.0625 31.3125 C3.0625 33.2925 3.0625 35.2725 3.0625 37.3125 C-0.70995942 38.49019672 -4.37840109 38.55040132 -8.3125 38.625 C-9.59898438 38.66238281 -10.88546875 38.69976563 -12.2109375 38.73828125 C-17.23444964 38.16431603 -20.21891782 36.09246012 -23.6875 32.5 C-27.39671128 26.00888027 -28.07688712 18.34182598 -26.4375 11.10546875 C-24.52107606 5.4106408 -21.67929173 0.77903976 -16.25 -2.125 C-10.4803689 -3.10474868 -5.13863059 -2.95197927 0 0 Z M-16.9375 5.3125 C-19.59232409 8.79123501 -20.04838628 10.86693142 -20.9375 15.3125 C-14.3375 15.3125 -7.7375 15.3125 -0.9375 15.3125 C-0.74815695 9.01862222 -0.74815695 9.01862222 -3.9375 4.3125 C-9.25793648 1.90324574 -12.14516166 1.9360798 -16.9375 5.3125 Z " fill="#000000" transform="translate(129.9375,754.6875)"/>
<path d="M0 0 C2.31 0 4.62 0 7 0 C10.3 9.57 13.6 19.14 17 29 C20.3 19.43 23.6 9.86 27 0 C28.98 0 30.96 0 33 0 C32.38944511 5.70279189 30.91006137 10.75071322 29.015625 16.15234375 C28.71815369 17.01130753 28.42068237 17.8702713 28.11419678 18.75526428 C27.48534409 20.56414502 26.85314035 22.37186388 26.21777344 24.1784668 C25.25557359 26.9216102 24.31085183 29.67035559 23.3671875 32.41992188 C22.75105597 34.18526474 22.13390152 35.95025098 21.515625 37.71484375 C21.23833557 38.52654526 20.96104614 39.33824677 20.675354 40.17454529 C15.91983128 53.54008436 15.91983128 53.54008436 11 56 C8.3276379 56.13415472 5.67749512 56.04318541 3 56 C2.67 54.35 2.34 52.7 2 51 C5 50 5 50 7.5 49.9375 C10.07265955 49.26477258 10.07265955 49.26477258 11.0234375 47.33203125 C13.97843651 40.10719422 11.67346025 34.72894788 9.27734375 27.63671875 C8.87993736 26.44874443 8.87993736 26.44874443 8.47450256 25.23677063 C7.63165845 22.71939028 6.78464191 20.20343692 5.9375 17.6875 C5.36365596 15.97600408 4.7900852 14.26441652 4.21679688 12.55273438 C2.81436109 8.36742135 1.4081828 4.18338272 0 0 Z " fill="#000000" transform="translate(138,753)"/>
<path d="M0 0 C1.98 0 3.96 0 6 0 C6.01458252 0.8878418 6.02916504 1.77568359 6.04418945 2.69042969 C6.10534534 5.99327962 6.17951378 9.29530915 6.26245117 12.59765625 C6.29564794 14.02527914 6.32369631 15.45303163 6.34643555 16.88085938 C6.38008013 18.93675815 6.43239562 20.99147512 6.48828125 23.046875 C6.51446533 24.28276367 6.54064941 25.51865234 6.56762695 26.79199219 C7.02391314 30.17742443 7.60862645 31.60826169 10 34 C13.06339582 34.81803388 15.90856269 34.6596557 19 34 C22.42933422 30.82786585 23.85343627 27.94680549 24.20532227 23.27270508 C24.24197998 22.19915771 24.2786377 21.12561035 24.31640625 20.01953125 C24.35830078 18.85615234 24.40019531 17.69277344 24.44335938 16.49414062 C24.48267578 15.27919922 24.52199219 14.06425781 24.5625 12.8125 C24.60568359 11.58595703 24.64886719 10.35941406 24.69335938 9.09570312 C24.7995309 6.06391619 24.90157952 3.03204685 25 0 C26.98 0 28.96 0 31 0 C31 13.2 31 26.4 31 40 C29.35 40 27.7 40 26 40 C25.67 38.68 25.34 37.36 25 36 C23.96359375 36.97453125 23.96359375 36.97453125 22.90625 37.96875 C19.46168428 40.37624217 17.65743659 40.53885455 13.5 40.5 C12.3965625 40.5103125 11.293125 40.520625 10.15625 40.53125 C6.30963589 39.8838001 4.70524153 38.78144552 2 36 C-0.13090665 31.86057298 -0.23329563 28.3454188 -0.1953125 23.73046875 C-0.1924826 23.04946609 -0.18965271 22.36846344 -0.18673706 21.66682434 C-0.17560525 19.50686545 -0.15051457 17.34733206 -0.125 15.1875 C-0.11496111 13.71680289 -0.10583685 12.24609924 -0.09765625 10.77539062 C-0.07568913 7.18345714 -0.0412082 3.59177015 0 0 Z " fill="#000000" transform="translate(520,753)"/>
<path d="M0 0 C3.98545612 4.60818364 4.24578724 9.55539333 4.1953125 15.4609375 C4.1924826 16.11832916 4.18965271 16.77572083 4.18673706 17.45303345 C4.17563447 19.53138233 4.15054986 21.60928366 4.125 23.6875 C4.11495731 25.10546248 4.10583373 26.52343179 4.09765625 27.94140625 C4.07572805 31.39858037 4.04126818 34.85549642 4 38.3125 C2.02 38.3125 0.04 38.3125 -2 38.3125 C-2.01458252 37.46018799 -2.02916504 36.60787598 -2.04418945 35.72973633 C-2.10543285 32.55178825 -2.17962029 29.37447454 -2.26245117 26.19702148 C-2.29559806 24.82474042 -2.32366171 23.45232638 -2.34643555 22.07983398 C-2.38016766 20.10112234 -2.4340149 18.12278624 -2.48828125 16.14453125 C-2.51446533 14.95577393 -2.54064941 13.7670166 -2.56762695 12.54223633 C-3.03726878 9.03411004 -3.85101881 7.10429244 -6 4.3125 C-9.7126321 2.99245303 -11.52163435 3.14691189 -15.25 4.4375 C-18.46693558 6.63086517 -18.87887345 7.65970432 -20 11.3125 C-20.36245813 14.40364162 -20.36245813 14.40364162 -20.4140625 17.70703125 C-20.47207031 19.51010742 -20.47207031 19.51010742 -20.53125 21.34960938 C-20.57765625 23.21842773 -20.57765625 23.21842773 -20.625 25.125 C-20.68300781 27.02282227 -20.68300781 27.02282227 -20.7421875 28.95898438 C-20.83630657 32.07667851 -20.92194361 35.19436914 -21 38.3125 C-22.98 38.3125 -24.96 38.3125 -27 38.3125 C-27 25.1125 -27 11.9125 -27 -1.6875 C-25.35 -1.6875 -23.7 -1.6875 -22 -1.6875 C-21.67 -0.3675 -21.34 0.9525 -21 2.3125 C-20.4225 1.673125 -19.845 1.03375 -19.25 0.375 C-14.04364725 -4.39749002 -5.82215696 -3.27496329 0 0 Z " fill="#000000" transform="translate(246,754.6875)"/>
<path d="M0 0 C4.27774194 3.11918683 5.6343902 5.98625044 7 11 C7.22705078 14.34326172 7.22705078 14.34326172 7.1953125 17.9296875 C7.18886719 19.21875 7.18242188 20.5078125 7.17578125 21.8359375 C7.15907463 23.18229442 7.14214479 24.52864859 7.125 25.875 C7.11495664 27.24478517 7.10583317 28.61457742 7.09765625 29.984375 C7.07414412 33.32309756 7.0412793 36.66145761 7 40 C5.02 40 3.04 40 1 40 C0.98541748 39.18321777 0.97083496 38.36643555 0.95581055 37.52490234 C0.88113077 33.8078024 0.78453388 30.09158081 0.6875 26.375 C0.66494141 25.08980469 0.64238281 23.80460938 0.61914062 22.48046875 C0.5659668 20.61455078 0.5659668 20.61455078 0.51171875 18.7109375 C0.47244263 16.99849854 0.47244263 16.99849854 0.43237305 15.25146484 C-0.05477043 11.58812393 -1.05507003 9.13187743 -3 6 C-6.58118775 4.64710685 -8.50964917 4.86539389 -12.1875 5.875 C-16.19594869 8.90360568 -16.9029199 12.19432642 -18 17 C-18.45938788 21.02006835 -18.59821287 25.01906872 -18.6875 29.0625 C-18.72166016 30.11888672 -18.75582031 31.17527344 -18.79101562 32.26367188 C-18.87269295 34.84234157 -18.94209943 37.42070562 -19 40 C-20.65 40 -22.3 40 -24 40 C-24.33 26.8 -24.66 13.6 -25 0 C-23.02 0 -21.04 0 -19 0 C-18.67 0.99 -18.34 1.98 -18 3 C-17.4225 2.525625 -16.845 2.05125 -16.25 1.5625 C-11.27551659 -1.89200237 -5.70568555 -1.34088234 0 0 Z " fill="#000000" transform="translate(703,753)"/>
<path d="M0 0 C4.27774194 3.11918683 5.6343902 5.98625044 7 11 C7.22705078 14.34326172 7.22705078 14.34326172 7.1953125 17.9296875 C7.18886719 19.21875 7.18242187 20.5078125 7.17578125 21.8359375 C7.15907463 23.18229442 7.14214479 24.52864859 7.125 25.875 C7.11495664 27.24478517 7.10583317 28.61457742 7.09765625 29.984375 C7.07414412 33.32309756 7.0412793 36.66145761 7 40 C5.02 40 3.04 40 1 40 C0.98541748 39.18321777 0.97083496 38.36643555 0.95581055 37.52490234 C0.88113077 33.8078024 0.78453388 30.09158081 0.6875 26.375 C0.66494141 25.08980469 0.64238281 23.80460938 0.61914062 22.48046875 C0.5659668 20.61455078 0.5659668 20.61455078 0.51171875 18.7109375 C0.47244263 16.99849854 0.47244263 16.99849854 0.43237305 15.25146484 C-0.05477043 11.58812393 -1.05507003 9.13187743 -3 6 C-6.58118775 4.64710685 -8.50964917 4.86539389 -12.1875 5.875 C-16.19594869 8.90360568 -16.9029199 12.19432642 -18 17 C-18.45938788 21.02006835 -18.59821287 25.01906872 -18.6875 29.0625 C-18.72166016 30.11888672 -18.75582031 31.17527344 -18.79101562 32.26367188 C-18.87269295 34.84234157 -18.94209943 37.42070562 -19 40 C-20.65 40 -22.3 40 -24 40 C-24.33 26.8 -24.66 13.6 -25 0 C-23.02 0 -21.04 0 -19 0 C-18.67 0.99 -18.34 1.98 -18 3 C-17.4225 2.525625 -16.845 2.05125 -16.25 1.5625 C-11.27551659 -1.89200237 -5.70568555 -1.34088234 0 0 Z " fill="#000000" transform="translate(423,753)"/>
<path d="M0 0 C1.44246094 0.13535156 1.44246094 0.13535156 2.9140625 0.2734375 C5.375 0.625 5.375 0.625 7.375 1.625 C7.045 3.275 6.715 4.925 6.375 6.625 C5.37919922 6.48191406 5.37919922 6.48191406 4.36328125 6.3359375 C-2.34145525 5.42184678 -2.34145525 5.42184678 -8.625 7.625 C-9.01152282 9.995693 -9.01152282 9.995693 -8.625 12.625 C-6.64618019 14.40507519 -6.64618019 14.40507519 -4 15.6875 C-3.09121094 16.18894531 -2.18242187 16.69039062 -1.24609375 17.20703125 C-0.38113281 17.67496094 0.48382813 18.14289062 1.375 18.625 C7.13179542 22.13859084 7.13179542 22.13859084 8.375 24.625 C9.02007919 29.83171061 9.2923523 33.44209835 6 37.6875 C1.85517957 40.74677222 -1.0530057 40.7782756 -6.0625 40.75 C-6.74376953 40.75386719 -7.42503906 40.75773438 -8.12695312 40.76171875 C-11.23148046 40.7556374 -13.65829065 40.61390312 -16.625 39.625 C-16.13 36.655 -16.13 36.655 -15.625 33.625 C-14.79162109 33.86476563 -14.79162109 33.86476563 -13.94140625 34.109375 C-11.43164615 34.66803998 -9.13231667 34.82848748 -6.5625 34.875 C-5.70527344 34.90078125 -4.84804688 34.9265625 -3.96484375 34.953125 C-1.56572461 34.81118818 -1.56572461 34.81118818 0.171875 33.2578125 C1.58393452 31.64232497 1.58393452 31.64232497 1.5625 29.25 C-0.29789933 25.13753833 -3.78914694 23.76382118 -7.625 21.625 C-13.36968085 18.00797872 -13.36968085 18.00797872 -15.625 14.625 C-16.22643397 11.53686786 -16.25290328 8.7103868 -15.625 5.625 C-11.5939024 0.04952085 -6.37854616 -0.63613533 0 0 Z " fill="#000000" transform="translate(453.625,752.375)"/>
<path d="M0 0 C0 1.65 0 3.3 0 5 C-0.71285156 4.89300781 -1.42570312 4.78601563 -2.16015625 4.67578125 C-8.45428911 3.88795574 -12.50698652 3.68130436 -18 7 C-22.04832405 11.31821232 -22.34335531 15.73499589 -22.28515625 21.421875 C-21.83298828 25.50996901 -20.46532106 27.71290525 -18 31 C-14.52331789 33.38626818 -11.3797151 33.2075943 -7.25 33.125 C-6.07953125 33.10695313 -4.9090625 33.08890625 -3.703125 33.0703125 C-2.81109375 33.04710937 -1.9190625 33.02390625 -1 33 C-0.61781233 34.65614657 -0.28604898 36.32457024 0 38 C-2.08729489 40.08729489 -6.32480875 39.2768056 -9.1875 39.3125 C-10.32155273 39.35600586 -10.32155273 39.35600586 -11.47851562 39.40039062 C-16.80675321 39.46046616 -19.78081568 38.53293145 -24 35 C-29.58241821 27.60706778 -29.70174591 21.04249729 -29 12 C-27.56034513 6.39748769 -24.56446462 2.96183218 -19.72265625 -0.1015625 C-13.4695742 -3.3628071 -6.36107003 -2.48236879 0 0 Z " fill="#000000" transform="translate(350,754)"/>
<path d="M0 0 C0 1.65 0 3.3 0 5 C-0.71285156 4.89300781 -1.42570313 4.78601563 -2.16015625 4.67578125 C-8.40013369 3.89473428 -12.68017593 3.41726134 -18 7 C-21.8601429 12.00899496 -22.69689027 16.82754331 -22 23 C-20.60075055 26.30101131 -20.60075055 26.30101131 -19 29 C-19 29.66 -19 30.32 -19 31 C-14.78103134 33.04898287 -11.34627854 33.21207997 -6.6875 33.125 C-5.43324219 33.10695313 -4.17898438 33.08890625 -2.88671875 33.0703125 C-1.93410156 33.04710937 -0.98148438 33.02390625 0 33 C0.042721 34.66611905 0.04063832 36.33382885 0 38 C-2.23558753 40.23558753 -7.73703697 39.31162025 -10.84277344 39.31469727 C-16.56847117 39.20636286 -19.72102352 38.79272916 -24 35 C-29.11269625 28.01370699 -29.57775998 21.39387147 -29 13 C-27.80398166 7.00893566 -23.90713369 3.29599323 -19 0 C-12.81816159 -2.89362649 -6.17862672 -3.08931336 0 0 Z " fill="#000000" transform="translate(588,754)"/>
<path d="M0 0 C0 3.63 0 7.26 0 11 C2.97 11 5.94 11 9 11 C9 12.65 9 14.3 9 16 C6.03 16 3.06 16 0 16 C0.11798944 19.96952899 0.24221799 23.93880781 0.37231445 27.90795898 C0.41571223 29.25914147 0.4573837 30.61038053 0.49731445 31.96166992 C0.55489952 33.90036701 0.61914298 35.83886276 0.68359375 37.77734375 C0.72025146 38.94515381 0.75690918 40.11296387 0.79467773 41.31616211 C0.70076188 43.91779795 0.70076188 43.91779795 2 45 C3.34747084 45.23075082 4.70377565 45.41153063 6.0625 45.5625 C7.361875 45.706875 8.66125 45.85125 10 46 C10 47.65 10 49.3 10 51 C8.06318839 51.08107583 6.1254066 51.13922475 4.1875 51.1875 C3.10855469 51.22230469 2.02960937 51.25710938 0.91796875 51.29296875 C-2 51 -2 51 -3.82421875 49.73828125 C-6.38256336 45.95601097 -6.11786357 41.9299857 -6.09765625 37.484375 C-6.09282227 35.60878906 -6.09282227 35.60878906 -6.08789062 33.6953125 C-6.07951172 32.39335938 -6.07113281 31.09140625 -6.0625 29.75 C-6.05798828 28.43257812 -6.05347656 27.11515625 -6.04882812 25.7578125 C-6.03704316 22.50516259 -6.02059011 19.25260416 -6 16 C-8.31 16 -10.62 16 -13 16 C-13 14.35 -13 12.7 -13 11 C-10.69 11 -8.38 11 -6 11 C-6 8.03 -6 5.06 -6 2 C-2 0 -2 0 0 0 Z " fill="#000000" transform="translate(604,742)"/>
<path d="M0 0 C0 3.63 0 7.26 0 11 C2.64 11 5.28 11 8 11 C8 12.65 8 14.3 8 16 C5.36 16 2.72 16 0 16 C0.11798944 19.96952899 0.24221799 23.93880781 0.37231445 27.90795898 C0.41571223 29.25914147 0.4573837 30.61038053 0.49731445 31.96166992 C0.55489952 33.90036701 0.61914298 35.83886276 0.68359375 37.77734375 C0.72025146 38.94515381 0.75690918 40.11296387 0.79467773 41.31616211 C0.70076188 43.91779795 0.70076188 43.91779795 2 45 C4.32817964 45.36760731 6.6618385 45.70241581 9 46 C9 47.65 9 49.3 9 51 C7.22950311 51.05410687 5.45853151 51.09284119 3.6875 51.125 C2.20830078 51.15980469 2.20830078 51.15980469 0.69921875 51.1953125 C-2 51 -2 51 -5 49 C-6.15927528 45.52217417 -6.11313066 42.81196743 -6.09765625 39.14453125 C-6.0962413 38.48289474 -6.09482635 37.82125824 -6.09336853 37.13957214 C-6.08777996 35.03050172 -6.07522965 32.92153823 -6.0625 30.8125 C-6.05748352 29.38086091 -6.05292087 27.94922015 -6.04882812 26.51757812 C-6.0378143 23.01168412 -6.02055755 19.5058525 -6 16 C-8.64 16 -11.28 16 -14 16 C-14 14.35 -14 12.7 -14 11 C-11.36 11 -8.72 11 -6 11 C-6 8.03 -6 5.06 -6 2 C-2 0 -2 0 0 0 Z " fill="#000000" transform="translate(479,742)"/>
<path d="M0 0 C0 1.98 0 3.96 0 6 C-1.36125 5.9690625 -1.36125 5.9690625 -2.75 5.9375 C-6.52934202 5.88024774 -6.52934202 5.88024774 -10 7 C-11.72814999 11.22497237 -12.28430816 14.95078572 -12.4140625 19.4921875 C-12.45273437 20.69101562 -12.49140625 21.88984375 -12.53125 23.125 C-12.5621875 24.3625 -12.593125 25.6 -12.625 26.875 C-12.66367187 28.13570312 -12.70234375 29.39640625 -12.7421875 30.6953125 C-12.83616989 33.79673137 -12.92183411 36.89814886 -13 40 C-14.98 40 -16.96 40 -19 40 C-19 26.8 -19 13.6 -19 0 C-17.35 0 -15.7 0 -14 0 C-13.67 1.32 -13.34 2.64 -13 4 C-12.154375 3.154375 -11.30875 2.30875 -10.4375 1.4375 C-6.90293219 -1.56561728 -4.45783952 -1.15903827 0 0 Z " fill="#000000" transform="translate(514,753)"/>
<path d="M0 0 C1.98 0 3.96 0 6 0 C6 13.2 6 26.4 6 40 C4.02 40 2.04 40 0 40 C0 26.8 0 13.6 0 0 Z " fill="#000000" transform="translate(620,753)"/>
<path d="M0 0 C12.25090556 1.71942534 23.86281604 8.84549431 33 17 C33.82757812 17.72316406 34.65515625 18.44632813 35.5078125 19.19140625 C42.42186753 25.59611866 42.42186753 25.59611866 43.0625 30.0625 C43.041875 31.031875 43.02125 32.00125 43 33 C42.319375 32.29875 41.63875 31.5975 40.9375 30.875 C38.31492511 28.24499572 35.52481067 25.86172252 32.68359375 23.47265625 C31 22 31 22 28.5625 19.4375 C23.44138098 14.56619167 17.53210891 11.61284357 11 9 C2.75735294 5.64705882 2.75735294 5.64705882 0 3 C0 2.01 0 1.02 0 0 Z " fill="#F5BAAE" transform="translate(508,141)"/>
<path d="M0 0 C2.64 0.33 5.28 0.66 8 1 C8.33 1.99 8.66 2.98 9 4 C10.32303717 4.3721042 11.65737935 4.70630173 13 5 C13.33 5.66 13.66 6.32 14 7 C14.70125 7.391875 15.4025 7.78375 16.125 8.1875 C21.07346917 11.30718709 25.36500222 14.6716748 26.9375 20.4375 C26.958125 21.283125 26.97875 22.12875 27 23 C25.68 22.67 24.36 22.34 23 22 C22.9175 21.21625 22.835 20.4325 22.75 19.625 C22.29004732 16.88368661 22.29004732 16.88368661 20.125 15.875 C19.42375 15.58625 18.7225 15.2975 18 15 C16.25 13.5 16.25 13.5 15 12 C15 11.34 15 10.68 15 10 C12.525 9.01 12.525 9.01 10 8 C10 7.34 10 6.68 10 6 C6.77484237 4.26337666 3.48670834 3.1094072 0 2 C0 1.34 0 0.68 0 0 Z " fill="#F0937F" transform="translate(530,146)"/>
<path d="M0 0 C8.41970467 1.10235411 15.44003997 4.23186945 23 8 C23 8.33 23 8.66 23 9 C15.53180074 9.40735632 9.29351857 8.19567905 3 4 C3 3.34 3 2.68 3 2 C2.01 1.67 1.02 1.34 0 1 C0 0.67 0 0.34 0 0 Z " fill="#F0927E" transform="translate(503,132)"/>
<path d="M0 0 C1.98 0.99 1.98 0.99 4 2 C4 2.66 4 3.32 4 4 C4.83144531 4.18175781 5.66289063 4.36351562 6.51953125 4.55078125 C7.60621094 4.80214844 8.69289063 5.05351562 9.8125 5.3125 C11.43091797 5.67794922 11.43091797 5.67794922 13.08203125 6.05078125 C16.03405755 7.01107896 17.01617363 7.73276986 19 10 C20.97620986 11.04622875 22.9737129 12.05439935 25 13 C25 13.66 25 14.32 25 15 C25.99 15.33 26.98 15.66 28 16 C27.67 16.66 27.34 17.32 27 18 C26.43152344 17.60167969 25.86304688 17.20335937 25.27734375 16.79296875 C20.65292556 13.61995393 16.25264847 11.04269663 11 9 C2.75735294 5.64705882 2.75735294 5.64705882 0 3 C0 2.01 0 1.02 0 0 Z " fill="#F6C5BA" transform="translate(508,141)"/>
<path d="M0 0 C4.27212118 0.47468013 6.07385825 3.07385825 9 6 C9.99 6 10.98 6 12 6 C14.27837542 8.27837542 14.96646289 9.50812237 15.1875 12.75 C15.125625 13.4925 15.06375 14.235 15 15 C14.319375 14.29875 13.63875 13.5975 12.9375 12.875 C10.84298385 10.76854929 8.65549207 8.84033096 6.375 6.9375 C3.86707118 4.82297178 1.8092981 2.76716181 0 0 Z " fill="#F6C2B7" transform="translate(536,159)"/>
<path d="M0 0 C1.98 0 3.96 0 6 0 C6 2.31 6 4.62 6 7 C4.02 7 2.04 7 0 7 C0 4.69 0 2.38 0 0 Z " fill="#000000" transform="translate(620,737)"/>
<path d="M0 0 C6.95041086 -0.26618595 13.23514355 0.3879491 20 2 C20 2.66 20 3.32 20 4 C6.3667426 3.22095672 6.3667426 3.22095672 0 1 C0 0.67 0 0.34 0 0 Z " fill="#F19F8D" transform="translate(488,134)"/>
</svg>
