<?xml version="1.0" encoding="UTF-8"?>
<svg version="1.1" xmlns="http://www.w3.org/2000/svg" width="1120" height="700">
<path d="M0 0 C1.97651292 -0.03784121 3.95307888 -0.07300918 5.9296875 -0.10546875 C6.85056152 -0.12730225 7.77143555 -0.14913574 8.72021484 -0.17163086 C14.3129737 -0.19661219 19.62318363 0.00704029 24.4296875 3.14453125 C28.1213775 8.06883894 29.52702618 13.29212072 30.9921875 19.20703125 C32.34049876 24.56912719 33.85239423 29.21554332 36.4296875 34.14453125 C38.29858617 38.82210302 38.74991808 43.0852126 38.765625 48.0703125 C38.7722818 48.81733932 38.7789386 49.56436615 38.78579712 50.33403015 C38.79587768 51.9081274 38.80061557 53.48226699 38.80029297 55.05639648 C38.80465636 57.44002276 38.84099406 59.82177988 38.87890625 62.20507812 C38.99975825 78.16067838 38.99975825 78.16067838 34.4296875 84.14453125 C31.39779863 86.95374135 29.04453806 87.61045342 24.9765625 88.06640625 C23.89407227 88.20079102 22.81158203 88.33517578 21.69628906 88.47363281 C20.53581055 88.6125293 19.37533203 88.75142578 18.1796875 88.89453125 C1.70201795 91.12196145 -14.81220853 94.27663806 -29.23852539 102.890625 C-36.00729459 106.74033411 -43.39810815 108.95970958 -50.7578125 111.39453125 C-66.09130994 116.48942727 -80.85031625 122.45179796 -95.5703125 129.14453125 C-96.58416016 129.60327637 -97.59800781 130.06202148 -98.64257812 130.53466797 C-112.52828234 136.86437917 -125.82012462 144.03379503 -139.02246094 151.67675781 C-141.91482877 153.34300114 -144.82626173 154.97212399 -147.74365234 156.59399414 C-155.78293612 161.06453409 -163.69964644 165.73509769 -171.59594727 170.453125 C-176.07202259 173.11856497 -180.56998447 175.70791323 -185.15625 178.1796875 C-190.18874755 180.90271161 -195.05616995 183.82335761 -199.8828125 186.89453125 C-200.69242432 187.40822266 -201.50203613 187.92191406 -202.33618164 188.45117188 C-207.4735928 191.73733214 -212.53555785 195.11328673 -217.5078125 198.64453125 C-218.06831299 199.04124023 -218.62881348 199.43794922 -219.20629883 199.84667969 C-221.59867051 201.57649722 -223.74661038 203.32296792 -225.82421875 205.42578125 C-227.5703125 207.14453125 -227.5703125 207.14453125 -229.5703125 207.14453125 C-229.5703125 207.80453125 -229.5703125 208.46453125 -229.5703125 209.14453125 C-231.01489258 210.56787109 -231.01489258 210.56787109 -233.02734375 212.23046875 C-237.67822567 216.18592041 -241.96767076 220.42954872 -246.2578125 224.76953125 C-246.99064453 225.506875 -247.72347656 226.24421875 -248.47851562 227.00390625 C-249.88979607 228.42409469 -251.30008404 229.8452703 -252.70922852 231.26757812 C-255.68350386 234.2672146 -258.66934165 237.25526132 -261.67578125 240.22265625 C-267.23519374 246.02196834 -271.17978137 252.14097488 -275.03198242 259.16699219 C-277.45299755 263.52471916 -279.86881171 266.79403484 -283.5703125 270.14453125 C-283.9003125 270.47453125 -284.2303125 270.80453125 -284.5703125 271.14453125 C-286.58575942 271.32506321 -288.60977751 271.41290075 -290.6328125 271.45703125 C-291.73753906 271.49441406 -292.84226562 271.53179688 -293.98046875 271.5703125 C-302.29314826 270.58436901 -307.80009113 265.50974605 -313.8828125 260.14453125 C-319.34597458 255.47978569 -323.99783281 251.89686571 -331.01171875 249.921875 C-340.74669166 246.96422674 -349.49919275 240.9529292 -354.5859375 232.1171875 C-356.00057491 229.28229905 -356.63686144 227.3388803 -356.5703125 224.14453125 C-353.86672759 216.77111786 -348.88684492 211.79334695 -343.5703125 206.14453125 C-342.2918799 204.71378539 -341.02032424 203.27684533 -339.7578125 201.83203125 C-339.2009375 201.19652344 -338.6440625 200.56101562 -338.0703125 199.90625 C-336.75214802 198.35809327 -335.49916383 196.75493298 -334.2578125 195.14453125 C-333.7009375 194.48453125 -333.1440625 193.82453125 -332.5703125 193.14453125 C-331.9103125 193.14453125 -331.2503125 193.14453125 -330.5703125 193.14453125 C-330.30089844 192.54382813 -330.03148437 191.943125 -329.75390625 191.32421875 C-328.56228206 189.12974251 -327.46964168 187.93121046 -325.6328125 186.26953125 C-322.13958211 182.88523736 -319.17069684 179.22796211 -316.1953125 175.39453125 C-315.71513672 174.77868164 -315.23496094 174.16283203 -314.74023438 173.52832031 C-312.66635191 170.86249973 -310.60436539 168.18953683 -308.56640625 165.49609375 C-298.41956147 152.49993296 -286.08676422 140.83584494 -273.5703125 130.14453125 C-272.59449219 129.28730469 -271.61867188 128.43007813 -270.61328125 127.546875 C-260.34243548 118.68106969 -249.41385654 110.73066505 -238.3671875 102.86328125 C-229.49689131 96.53476584 -220.93621957 89.7072709 -213.3203125 81.89453125 C-193.52852924 61.69213008 -163.36204485 52.2113573 -137.92453003 40.99026489 C-128.53491508 36.84778408 -119.2275146 32.59376656 -110.0078125 28.08203125 C-92.42586004 19.57513429 -74.50376104 14.3062493 -55.57984924 9.6423645 C-51.0112911 8.5138485 -46.46109181 7.3296895 -41.9140625 6.1171875 C-19.08369851 0.08101773 -19.08369851 0.08101773 -7.69628906 0.14306641 C-5.12878723 0.14483547 -2.56651979 0.0703097 0 0 Z " fill="#E26F25" transform="translate(426.5703125,299.85546875)"/>
<path d="M0 0 C2.07533 0.74247384 4.16179823 1.36893242 6.28076172 1.97509766 C21.65855883 6.39195727 21.65855883 6.39195727 26.97216797 11.70556641 C27.29339091 23.31548136 22.69979579 34.35698958 17.65966797 44.58056641 C15.01642992 50.05584522 14.48697137 53.68912859 14.97216797 59.70556641 C14.64216797 60.69556641 14.31216797 61.68556641 13.97216797 62.70556641 C13.51360206 67.25595117 13.50647994 71.23481788 15.53466797 75.39306641 C17.15151378 79.11884153 17.16030462 80.86697106 15.97216797 84.70556641 C9.2393271 88.07198684 -0.46370982 85.30851928 -7.51416016 83.77294922 C-23.11798014 80.72883049 -38.41785684 83.03899422 -53.71533203 86.45556641 C-55.37187095 86.80883126 -57.02877323 87.16039655 -58.68603516 87.51025391 C-63.47711245 88.53083176 -68.25418212 89.60662876 -73.02783203 90.70556641 C-73.75652496 90.87151306 -74.4852179 91.03745972 -75.23599243 91.20843506 C-84.076115 93.23949331 -92.49264981 95.72405745 -100.84033203 99.33056641 C-102.3669043 99.97807861 -102.3669043 99.97807861 -103.92431641 100.63867188 C-112.83217071 104.48397921 -121.36301435 108.90882542 -129.87548828 113.55029297 C-133.22150676 115.34627294 -136.62200297 117.02662464 -140.02783203 118.70556641 C-154.9498894 126.11334874 -169.57792257 133.96897001 -183.91503906 142.45654297 C-185.81081434 143.57727169 -187.71340409 144.68531038 -189.61767578 145.79150391 C-194.66697883 148.7904839 -199.34731509 151.90452361 -203.84130859 155.67041016 C-210.04701239 160.85919781 -216.19211561 164.41229384 -223.59033203 167.70556641 C-232.90276035 171.86499045 -239.64102113 176.69859151 -247.02783203 183.70556641 C-248.26842756 184.77793405 -249.51216965 185.84666763 -250.75830078 186.91259766 C-255.75943912 191.26632795 -260.3768519 195.98411688 -265.02783203 200.70556641 C-270.30014014 206.05775797 -275.57454321 211.31256884 -281.28076172 216.20361328 C-283.63111363 218.22420649 -285.88616271 220.34195193 -288.15283203 222.45556641 C-294.49388305 228.24254501 -301.23794901 233.46049298 -308.02783203 238.70556641 C-315.56169092 244.55611077 -322.32234996 250.51687117 -328.52783203 257.76806641 C-336.41624584 266.81861261 -336.41624584 266.81861261 -342.34033203 268.83056641 C-356.75977857 268.34177161 -373.96398922 255.4175266 -384.02783203 245.70556641 C-386.28019748 243.16928935 -388.20389096 240.56170563 -390.02783203 237.70556641 C-390.64464844 236.8103125 -390.64464844 236.8103125 -391.27392578 235.89697266 C-393.99834837 231.66421922 -394.78494734 228.66887787 -394.02783203 223.70556641 C-391.43474911 216.54965489 -386.97119167 210.80517612 -382.35205078 204.84228516 C-380.03947447 201.72127881 -378.02211438 198.53733153 -376.02783203 195.20556641 C-368.36184922 182.55517975 -360.66181793 172.17481778 -347.02783203 165.76806641 C-336.43445974 160.67405958 -330.1265514 152.7459837 -323.35473633 143.45703125 C-317.88404515 136.01010041 -312.89167993 131.3404863 -304.31298828 127.83837891 C-296.64990492 124.03958545 -291.3645405 116.85288808 -286.14501953 110.31494141 C-277.95803484 100.22470935 -269.81467462 94.97791832 -257.35009766 91.67431641 C-250.25393195 89.69721256 -244.51534451 86.35994551 -239.39501953 80.99462891 C-238.02783203 79.70556641 -238.02783203 79.70556641 -236.02783203 79.70556641 C-235.69783203 78.71556641 -235.36783203 77.72556641 -235.02783203 76.70556641 C-233.39346184 75.00721731 -231.72022503 73.34610336 -230.02783203 71.70556641 C-229.06366131 70.66121379 -228.10816475 69.60879884 -227.16064453 68.54931641 C-226.66693359 68.00146484 -226.17322266 67.45361328 -225.66455078 66.88916016 C-224.660218 65.77063967 -223.66017283 64.64825377 -222.66455078 63.52197266 C-217.15692325 57.44212409 -212.14294491 53.69848472 -204.09033203 51.64306641 C-197.83733346 49.82508951 -193.37969061 47.03302681 -188.34033203 42.95556641 C-175.19626026 32.52690598 -161.9578382 26.8119683 -145.06860352 26.30859375 C-134.57978084 25.95856076 -127.19828156 22.37671119 -119.15283203 15.83056641 C-99.36797893 0.48152934 -78.29740365 -1.21952978 -54.02783203 -3.29443359 C-52.92584473 -3.39014648 -51.82385742 -3.48585937 -50.68847656 -3.58447266 C-33.3971838 -5.00965039 -16.46881132 -6.14507885 0 0 Z " fill="#E37126" transform="translate(423.02783203125,202.29443359375)"/>
<path d="M0 0 C0.81164612 -0.0049649 1.62329224 -0.00992981 2.45953369 -0.01504517 C5.16443723 -0.02972946 7.86928177 -0.0364856 10.57421875 -0.04199219 C12.46020509 -0.04774658 14.34619142 -0.05350428 16.23217773 -0.05926514 C20.20361605 -0.06979833 24.17503404 -0.07562314 28.14648438 -0.07910156 C33.19053537 -0.08453566 38.23430943 -0.10844288 43.27827454 -0.13707352 C47.18555421 -0.15589184 51.09277043 -0.16091598 55.00009155 -0.16243744 C56.85608402 -0.16543078 58.7120763 -0.17334433 60.56802368 -0.18662262 C69.67800369 -0.24704717 78.56593246 -0.06945329 87.5625 1.47851562 C88.56513634 1.65002199 88.56513634 1.65002199 89.58802795 1.82499313 C99.66912164 3.77995109 110.11421417 8.69927356 116.26171875 17.16113281 C122.24527514 26.98598466 122.54910237 37.30571571 120.13671875 48.47363281 C118.56356136 54.06054691 116.1514625 57.91019857 112.26171875 62.16113281 C111.7821875 62.7425 111.30265625 63.32386719 110.80859375 63.92285156 C103.83976432 71.75398565 93.12801452 77.00391817 83.26171875 80.16113281 C84.421875 80.68900391 84.421875 80.68900391 85.60546875 81.22753906 C96.66965078 86.47207089 103.71981163 91.52371414 108.26171875 103.16113281 C111.56388248 113.92997251 109.09972982 128.26832569 104.07421875 138.09863281 C95.64026594 151.33078751 80.09439409 159.99271061 65.26171875 164.16113281 C51.28979372 167.01867198 37.38959568 167.57927515 23.1796875 167.45410156 C21.25914344 167.4484839 19.33859499 167.44422412 17.41804504 167.4412384 C12.44185837 167.42996005 7.46594805 167.4006466 2.48986816 167.36712646 C-2.61934677 167.33605151 -7.72860778 167.32265437 -12.83789062 167.30761719 C-22.80480678 167.27575468 -32.77152075 167.22477346 -42.73828125 167.16113281 C-42.08076931 157.95081989 -40.17095417 149.09022218 -38.23046875 140.08691406 C-37.86849661 138.38783445 -37.50702347 136.68864847 -37.14601135 134.98936462 C-36.17560642 130.42791357 -35.19877155 125.86786215 -34.22065353 121.30805969 C-33.20342814 116.56096952 -32.19179243 111.81268917 -31.17993164 107.06445312 C-29.93686868 101.23227659 -28.69348838 95.4001698 -27.44770813 89.568573 C-24.87004411 77.49867979 -22.31345336 65.42455705 -19.77983093 53.34534264 C-19.24940565 50.81663777 -18.71847379 48.28803981 -18.18737793 45.75947571 C-16.18925243 36.24637242 -16.18925243 36.24637242 -14.19793701 26.73184204 C-13.43739428 23.0912904 -12.67342501 19.45147491 -11.90681267 15.81219673 C-11.49484458 13.85158396 -11.08679503 11.89014911 -10.67884827 9.92869568 C-10.43605637 8.7785347 -10.19326447 7.62837372 -9.94311523 6.44335938 C-9.73315414 5.44065002 -9.52319305 4.43794067 -9.30686951 3.40484619 C-8.09733811 -1.3681011 -4.17576684 0.00603199 0 0 Z M32.26171875 33.16113281 C27.43080333 49.48149627 27.43080333 49.48149627 25.26171875 66.16113281 C29.36574592 66.24945477 33.46952331 66.30196329 37.57421875 66.34863281 C38.72212891 66.37376953 39.87003906 66.39890625 41.05273438 66.42480469 C49.50247125 66.49661548 58.6673348 66.14497714 65.76171875 60.97363281 C70.41309967 55.74082928 71.86914013 50.16669961 71.6171875 43.20800781 C71.0588689 39.99307432 69.62785734 38.33009318 67.26171875 36.16113281 C63.64894867 33.80647395 60.33657349 33.85149809 56.08984375 33.74707031 C55.40742615 33.72770416 54.72500854 33.70833801 54.02191162 33.68838501 C51.85197267 33.62882184 49.68197998 33.58229835 47.51171875 33.53613281 C46.03643578 33.4979315 44.5611746 33.45887851 43.0859375 33.41894531 C39.47806457 33.32314046 35.87002792 33.23902366 32.26171875 33.16113281 Z M18.26171875 99.16113281 C15.1741479 111.23700415 15.1741479 111.23700415 12.51171875 123.41113281 C12.269375 124.61253906 12.02703125 125.81394531 11.77734375 127.05175781 C11.1526554 130.29351155 11.1526554 130.29351155 11.26171875 134.16113281 C15.57416063 134.2197319 19.88649849 134.25492967 24.19921875 134.28613281 C25.41158203 134.30289063 26.62394531 134.31964844 27.87304688 134.33691406 C39.25000063 134.39857777 47.07879956 133.36040577 56.01171875 125.84863281 C59.46527255 121.72355466 60.11180908 117.87010305 60.57421875 112.59863281 C60.21579762 108.65600039 59.4569346 106.45395658 57.26171875 103.16113281 C52.71305162 99.43941928 49.18658551 98.59929185 43.45703125 98.77050781 C42.73305145 98.7761676 42.00907166 98.78182739 41.26315308 98.78765869 C38.97031087 98.80989614 36.67908159 98.86006294 34.38671875 98.91113281 C32.82424146 98.9312144 31.26173946 98.94946226 29.69921875 98.96582031 C25.88610545 99.00971865 22.07418473 99.0786531 18.26171875 99.16113281 Z " fill="#000000" transform="translate(374.73828125,507.8388671875)"/>
<path d="M0 0 C14.85 0 29.7 0 45 0 C43.81528295 7.10830233 42.62805191 14.1325032 41.12060547 21.16503906 C40.94474915 21.99584488 40.76889282 22.8266507 40.58770752 23.68263245 C40.01666 26.37749201 39.4419679 29.0715594 38.8671875 31.765625 C38.46625389 33.65414684 38.0655518 35.54271784 37.66506958 37.43133545 C36.61853311 42.3636302 35.5688856 47.29525769 34.51855469 52.22674561 C33.44405753 57.27445686 32.3725511 62.32280284 31.30078125 67.37109375 C29.20342196 77.24801387 27.10277043 87.12423058 25 97 C29.12895 93.72849411 29.12895 93.72849411 32.85546875 90.0234375 C33.38317871 89.4473877 33.91088867 88.87133789 34.45458984 88.27783203 C35.0264502 87.64989746 35.59831055 87.02196289 36.1875 86.375 C44.66163821 77.182301 53.54048808 68.40206266 62.42651367 59.61083984 C62.98506546 59.05648254 63.54361725 58.50212524 64.11909485 57.93096924 C65.1791308 56.87905514 66.24128772 55.82927289 67.30583191 54.78192139 C69.99299142 52.14921081 69.99299142 52.14921081 72 49 C88.17 49 104.34 49 121 49 C119.34512695 52.30974611 118.4070389 53.84017496 115.91479492 56.31225586 C114.97823311 57.24859108 114.97823311 57.24859108 114.02275085 58.20384216 C113.34879776 58.86747269 112.67484467 59.53110321 111.98046875 60.21484375 C111.28488358 60.90759903 110.5892984 61.60035431 109.87263489 62.31410217 C107.64891241 64.5266454 105.41834985 66.73214558 103.1875 68.9375 C101.69680632 70.41815752 100.20656674 71.89927236 98.71679688 73.38085938 C95.97180227 76.10953975 93.22421048 78.83554411 90.47338867 81.55834961 C87.64007148 84.36344436 84.81642169 87.17792663 82 90 C79 93 76 96 73 99 C79.76562751 114.90878063 86.91559969 130.62570077 94.19702148 146.3034668 C94.55763672 147.08268494 94.91825195 147.86190308 95.28979492 148.66473389 C95.96531006 150.12433189 96.64310519 151.58287799 97.32373047 153.0401001 C97.63189697 153.70676697 97.94006348 154.37343384 98.25756836 155.06030273 C98.52274765 155.63046616 98.78792694 156.20062958 99.06114197 156.78807068 C100.48662492 160.14647784 101.71895749 163.58388665 103 167 C85.51 167 68.02 167 50 167 C41.964774 149.78165857 41.964774 149.78165857 39.17578125 142.9765625 C38.8622319 142.22007416 38.54868256 141.46358582 38.22563171 140.68417358 C37.25143722 138.33240326 36.28168468 135.97883871 35.3125 133.625 C34.0185658 130.49150826 32.72271865 127.35881233 31.42578125 124.2265625 C31.12237823 123.49318665 30.81897522 122.75981079 30.50637817 122.00421143 C28.41636313 116.96589454 26.25514817 111.96703521 24 107 C22.33888376 110.01626988 21.47974378 112.79837275 20.77905273 116.1640625 C20.56220322 117.19192871 20.3453537 118.21979492 20.12193298 119.27880859 C19.78120506 120.93517334 19.78120506 120.93517334 19.43359375 122.625 C19.07516136 124.33357178 19.07516136 124.33357178 18.70948792 126.07666016 C17.94695235 129.71670811 17.19202696 133.3582844 16.4375 137 C15.67776297 140.64135736 14.91649573 144.28239166 14.15480042 147.92333984 C13.68140707 150.18897746 13.20946583 152.45491907 12.73912048 154.72119141 C12.41857445 156.26299072 12.41857445 156.26299072 12.09155273 157.8359375 C11.81081154 159.19017822 11.81081154 159.19017822 11.5243988 160.57177734 C11.05953583 162.72432003 10.53410384 164.86358462 10 167 C-4.85 167 -19.7 167 -35 167 C-33.7700794 159.00551612 -32.50939363 151.17393715 -30.80444336 143.29248047 C-30.59427582 142.30626709 -30.38410828 141.32005371 -30.16757202 140.30395508 C-29.47844564 137.07428426 -28.78414176 133.84575012 -28.08984375 130.6171875 C-27.59824777 128.31746765 -27.10700877 126.01767147 -26.61610413 123.71780396 C-25.32238912 117.66087062 -24.0244128 111.60485883 -22.7253418 105.54907227 C-20.67699209 95.99666607 -18.63534625 86.44282327 -16.59297562 76.88913727 C-15.84278895 73.38096047 -15.09186049 69.87294296 -14.34091187 66.3649292 C-11.96463154 55.25622793 -9.60312867 44.14472767 -7.28173828 33.02441406 C-7.06988797 32.00960276 -6.85803766 30.99479145 -6.63976765 29.94922829 C-5.64991623 25.20325035 -4.6631697 20.45664827 -3.68040466 15.709198 C-3.50490774 14.86466442 -3.32941082 14.02013084 -3.14859581 13.15000534 C-2.82447057 11.59021353 -2.50176379 10.03012599 -2.18078041 8.4696846 C-1.57917224 5.57912841 -0.93476771 2.80430313 0 0 Z " fill="#000000" transform="translate(671,508)"/>
<path d="M0 0 C4.66085575 4.32100168 7.54564819 8.63771138 8.01252747 15.04655457 C8.11124469 23.33273984 6.96547444 30.80332623 5.07421875 38.8515625 C4.6437345 40.77344118 4.21326409 42.69532306 3.78351307 44.61736584 C3.03386804 47.95198024 2.26593238 51.28237782 1.5 54.61328125 C-2.67326453 72.79870951 -6.19390442 90.72507659 -8.1875 109.30078125 C-22.3775 109.30078125 -36.5675 109.30078125 -51.1875 109.30078125 C-50.8575 105.01078125 -50.5275 100.72078125 -50.1875 96.30078125 C-51.425 97.49703125 -52.6625 98.69328125 -53.9375 99.92578125 C-66.87968807 111.42089002 -81.12776462 113.21765992 -97.71777344 112.49609375 C-105.33237808 111.8939107 -112.24424111 109.34015687 -117.7890625 104.01171875 C-123.5362588 96.98023277 -124.96178359 89.14670605 -124.1875 80.30078125 C-123.70173122 77.19499967 -123.09106875 74.12526333 -122.4375 71.05078125 C-122.28063721 70.28233887 -122.12377441 69.51389648 -121.9621582 68.72216797 C-119.5333379 57.98876257 -112.09151342 51.20681035 -103.1875 45.30078125 C-83.21319959 32.72909696 -58.92095861 33.10354756 -36.1875 33.30078125 C-35.93742612 30.90549531 -35.71197874 28.511988 -35.5 26.11328125 C-35.42716797 25.43974609 -35.35433594 24.76621094 -35.27929688 24.07226562 C-34.9018846 19.52111764 -35.335525 16.89792786 -38.1875 13.30078125 C-42.77803478 11.00551386 -48.74636806 11.86572255 -53.5 13.30078125 C-58.66666218 17.14573915 -60.83841368 22.42806546 -63.1875 28.30078125 C-77.0475 28.30078125 -90.9075 28.30078125 -105.1875 28.30078125 C-102.40078084 15.76054503 -97.6979974 7.85791575 -87.1875 0.30078125 C-63.30438348 -13.27051821 -22.93542776 -17.81591263 0 0 Z M-76.1875 64.30078125 C-78.97209702 68.47767678 -79.2339064 72.33529605 -79.1875 77.30078125 C-77.98097098 81.20425749 -76.89796196 82.75017323 -73.6875 85.23828125 C-67.47911234 87.12297036 -61.60281924 86.50844087 -55.8125 83.61328125 C-46.89674242 75.75892338 -42.8808887 65.95230649 -41.1875 54.30078125 C-54.61842324 53.6941147 -65.86679837 54.6008737 -76.1875 64.30078125 Z " fill="#000000" transform="translate(618.1875,565.69921875)"/>
<path d="M0 0 C10.04394095 10.04394095 13.08147132 21.22621974 13.1875 35.125 C13.19765137 36.05715332 13.20780273 36.98930664 13.21826172 37.94970703 C13.1178926 46.12484205 11.54007934 52.39629643 9.75 60.75 C-17.64 60.75 -45.03 60.75 -73.25 60.75 C-74.79348727 77.14934654 -74.79348727 77.14934654 -70.25 83.75 C-64.39222806 87.69321877 -57.80890238 86.81108137 -51.20703125 85.54296875 C-44.67896102 83.7923766 -41.15912447 79.96216596 -37.25 74.75 C-36.26 72.77 -36.26 72.77 -35.25 70.75 C-21.72 70.75 -8.19 70.75 5.75 70.75 C3.76456911 82.66258536 -4.34170037 92.34562864 -13.9375 99.4375 C-34.69478506 113.08612579 -59.51813961 116.28192393 -83.75854492 111.61621094 C-94.66429306 109.08508102 -103.94610154 104.25614476 -110.25 94.75 C-119.53448896 76.20932846 -115.71441132 52.58344339 -109.4375 33.5625 C-101.83056914 15.1348574 -86.37936003 2.78050902 -68.453125 -5.03515625 C-46.7588546 -13.26310515 -19.51856599 -13.51285338 0 0 Z M-58.8515625 19.41015625 C-63.46463194 24.94356713 -64.6414101 29.57637777 -67.25 36.75 C-54.38 36.75 -41.51 36.75 -28.25 36.75 C-26.1881555 30.5644665 -26.78497209 26.13857894 -29.5625 20.375 C-31.27380022 17.05518035 -32.06611982 15.87258678 -35.25 13.75 C-44.36462875 12.82997879 -52.17856492 12.49302461 -58.8515625 19.41015625 Z " fill="#000000" transform="translate(1084.25,565.25)"/>
<path d="M0 0 C-1.09233642 8.4941384 -2.74737836 16.82235444 -4.5625 25.1875 C-4.78446045 26.21560791 -5.0064209 27.24371582 -5.23510742 28.30297852 C-6.87110596 35.74221192 -6.87110596 35.74221192 -8 38 C-9.79077148 38.34716797 -9.79077148 38.34716797 -12.12109375 38.4921875 C-13.39424438 38.58669189 -13.39424438 38.58669189 -14.69311523 38.68310547 C-15.59876221 38.74643066 -16.50440918 38.80975586 -17.4375 38.875 C-26.84042691 39.67344785 -36.18078739 40.80194224 -43 48 C-52.76242394 61.47778214 -54.90560682 78.14226042 -58.1875 94.0625 C-58.86175872 97.30389715 -59.5380146 100.54486593 -60.21589661 103.7855072 C-60.63466419 105.79048627 -61.05100773 107.79597353 -61.46464539 109.80201721 C-61.74547722 111.15504189 -61.74547722 111.15504189 -62.03198242 112.53540039 C-62.19534592 113.32749405 -62.35870941 114.11958771 -62.52702332 114.9356842 C-63 117 -63 117 -64 120 C-78.85 120 -93.7 120 -109 120 C-106.75119293 106.50715759 -106.75119293 106.50715759 -105.38354492 100.02954102 C-105.2352272 99.32334625 -105.08690948 98.61715149 -104.93409729 97.88955688 C-104.61653026 96.37866443 -104.2978886 94.86799749 -103.97823143 93.35754585 C-103.46565052 90.93383916 -102.95676603 88.50938083 -102.44880676 86.08470154 C-101.00546895 79.19754748 -99.55706473 72.31146831 -98.10327148 65.42651367 C-93.65231047 44.33576365 -89.5163825 23.27100535 -86 2 C-70.82 2 -55.64 2 -40 2 C-40.66 7.61 -41.32 13.22 -42 19 C-41.030625 17.80375 -40.06125 16.6075 -39.0625 15.375 C-29.09816033 4.02449211 -14.90266415 -0.66234063 0 0 Z " fill="#000000" transform="translate(897,555)"/>
<path d="M0 0 C0.77943466 0.00222061 1.55886932 0.00444122 2.36192322 0.00672913 C3.24276077 0.00680466 4.12359833 0.00688019 5.03112793 0.00695801 C5.98841293 0.01211929 6.94569794 0.01728058 7.93199158 0.02259827 C9.39480812 0.02472069 9.39480812 0.02472069 10.88717651 0.02688599 C14.01542675 0.03250319 17.14360656 0.04505859 20.27183533 0.05775452 C22.38706867 0.0627673 24.50230313 0.06733059 26.61753845 0.07142639 C31.81482908 0.0824782 37.01207494 0.09962941 42.20933533 0.12025452 C41.68596449 7.48795247 40.66636711 14.56386244 39.09214783 21.77650452 C38.87902954 22.7779097 38.66591125 23.77931488 38.44633484 24.81106567 C37.74853777 28.08215803 37.04159454 31.35119618 36.33433533 34.62025452 C35.8443991 36.90652103 35.3549868 39.19289987 34.86607361 41.47938538 C33.84442697 46.2509862 32.81862383 51.02166624 31.78941345 55.79164124 C30.46894693 61.91162146 29.15563465 68.03310762 27.84498596 74.15519714 C26.59380444 79.99822518 25.33925797 85.84052903 24.08433533 91.68275452 C23.84491211 92.79859924 23.60548889 93.91444397 23.35881042 95.06410217 C22.68323461 98.20952442 22.00528505 101.35442479 21.32652283 104.49916077 C21.1259729 105.43421951 20.92542297 106.36927826 20.71879578 107.33267212 C20.53375488 108.18755722 20.34871399 109.04244232 20.1580658 109.92323303 C19.99805084 110.66573807 19.83803589 111.4082431 19.673172 112.17324829 C19.20933533 114.12025452 19.20933533 114.12025452 18.20933533 117.12025452 C3.35933533 117.12025452 -11.49066467 117.12025452 -26.79066467 117.12025452 C-25.50979626 109.43504403 -24.17557377 101.83739341 -22.55995178 94.22694397 C-22.34668747 93.21242661 -22.13342316 92.19790924 -21.91369629 91.15264893 C-21.21775751 87.84571846 -20.51807693 84.53959424 -19.81800842 81.23353577 C-19.32990168 78.92140091 -18.84191222 76.60924129 -18.35403442 74.29705811 C-17.33620172 69.47644107 -16.31640497 64.6562446 -15.29530334 59.83631897 C-13.98397817 53.64526348 -12.67847411 47.45299641 -11.37450314 41.26038837 C-10.37087516 36.49796317 -9.36378627 31.73627494 -8.35566902 26.9747982 C-7.87244436 24.68997662 -7.39041165 22.40490263 -6.90957451 20.11957741 C-6.24062962 16.94235477 -5.56694587 13.76617402 -4.89198303 10.59022522 C-4.59351471 9.16518173 -4.59351471 9.16518173 -4.28901672 7.71134949 C-4.10542099 6.85224472 -3.92182526 5.99313995 -3.73266602 5.10800171 C-3.57394988 4.35757756 -3.41523375 3.60715342 -3.25170803 2.83398914 C-2.63225224 0.53142297 -2.40713757 0.16165459 0 0 Z " fill="#000000" transform="translate(917.7906646728516,557.8797454833984)"/>
<path d="M0 0 C1.83203125 2.296875 1.83203125 2.296875 1.86328125 5.23046875 C1.68796875 6.38675781 1.51265625 7.54304687 1.33203125 8.734375 C0.41656196 16.48110552 1.69121203 23.40203773 3.359375 30.97436523 C5.94188669 42.78509689 5.94188669 42.78509689 3.64453125 47.984375 C1.55185094 50.65434643 -0.28647188 52.48756301 -3.16796875 54.296875 C-6.33342326 54.60721368 -8.31472438 54.72349719 -11.16796875 53.296875 C-11.33296875 53.998125 -11.49796875 54.699375 -11.66796875 55.421875 C-14.61289939 61.0663254 -21.27934027 65.17696875 -27.16796875 67.296875 C-30.57226078 67.73596362 -33.79766032 68.00319376 -37.16796875 67.296875 C-40.66837983 64.52023313 -42.62103317 61.09506226 -44.79296875 57.234375 C-47.98902166 50.62802812 -47.98902166 50.62802812 -53.9765625 47.234375 C-55.5170898 46.91005346 -57.06024159 46.59800928 -58.60546875 46.296875 C-60.14790909 45.9947871 -61.68842036 45.68263657 -63.2265625 45.359375 C-63.91032959 45.22660156 -64.59409668 45.09382813 -65.29858398 44.95703125 C-67.54939576 44.16217752 -68.58986251 43.05903683 -70.16796875 41.296875 C-70.71066406 40.86890625 -71.25335938 40.4409375 -71.8125 40 C-74.45707205 36.67713713 -73.86606712 32.60671806 -73.7890625 28.5390625 C-72.91950026 23.99983822 -70.9751406 22.2849645 -67.30859375 19.6640625 C-66.6021875 19.21289062 -65.89578125 18.76171875 -65.16796875 18.296875 C-64.5234375 17.78382813 -63.87890625 17.27078125 -63.21484375 16.7421875 C-61.16796875 15.296875 -61.16796875 15.296875 -56.16796875 13.296875 C-55.50796875 8.016875 -54.84796875 2.736875 -54.16796875 -2.703125 C-48.16796875 -1.703125 -48.16796875 -1.703125 -45.16796875 -0.703125 C-38.49660196 -0.1353491 -32.58098239 -2.01376335 -26.16796875 -3.703125 C-16.03990741 -6.27205018 -8.49447754 -6.67313911 0 0 Z " fill="#13477D" transform="translate(96.16796875,171.703125)"/>
<path d="M0 0 C7.73261854 5.75968706 9.81989153 15.04496937 12.38525391 23.89111328 C12.94504724 25.81148452 13.55393154 27.71737303 14.16796875 29.62109375 C15.46762277 34.89903142 15.91934893 38.38524612 13.171875 43.2109375 C12.37265625 44.25507813 11.5734375 45.29921875 10.75 46.375 C7.87563385 50.15605638 5.69880399 53.41329222 4.5 58.0625 C3.6640625 60.1875 3.6640625 60.1875 2 62 C-3.55699851 64.18014441 -9.10572065 65.19333992 -15 66 C-15.98613281 66.15726562 -16.97226563 66.31453125 -17.98828125 66.4765625 C-24.17129373 67.00907075 -27.51842648 64.74231614 -32.28515625 60.9921875 C-35.30256649 58.77797279 -38.39511633 57.21518957 -41.75 55.5625 C-47.50964826 52.53716184 -50.76667989 49.5918721 -54 44 C-54.39703125 43.40058594 -54.7940625 42.80117187 -55.203125 42.18359375 C-57.75699723 38.16394274 -59 34.76274747 -59 30 C-57.19805235 24.55175829 -53.91647718 20.12260756 -50 16 C-49.34 16 -48.68 16 -48 16 C-47.73058594 15.40832031 -47.46117187 14.81664062 -47.18359375 14.20703125 C-42.68189567 5.81277576 -33.08215489 0.12526477 -24.5625 -3.4375 C-15.76934313 -4.82589319 -7.62447053 -5.09279306 0 0 Z " fill="#13477D" transform="translate(202,176)"/>
<path d="M0 0 C6.20304744 5.37443999 11.54385554 12.86330203 12.48046875 21.13671875 C11.49060004 30.87042777 4.21255552 39.28569438 -2.89453125 45.6015625 C-9.48803682 50.50406125 -15.933433 50.34467796 -23.89453125 49.82421875 C-32.22616009 48.50634716 -40.00859194 45.48176802 -45.52734375 38.8671875 C-48.10250654 35.01915853 -49.79434939 31.53276628 -49.89453125 26.82421875 C-47.76114535 16.85270234 -40.06865945 8.68097019 -31.7734375 3 C-31.15339844 2.61199219 -30.53335938 2.22398438 -29.89453125 1.82421875 C-29.26417969 1.42589844 -28.63382813 1.02757813 -27.984375 0.6171875 C-19.45512066 -4.50760863 -8.63196494 -5.48735112 0 0 Z " fill="#13477D" transform="translate(230.89453125,104.17578125)"/>
<path d="M0 0 C2.81904594 1.96598795 4.83065083 4.35694679 7 7 C7.50917969 7.47824219 8.01835937 7.95648438 8.54296875 8.44921875 C11.57556238 11.4138551 12.3183004 13.73012902 12.375 17.8125 C12.28567256 19.54387603 12.15998422 21.27371862 12 23 C11.92007813 23.87269531 11.84015625 24.74539062 11.7578125 25.64453125 C11.53725142 27.76659623 11.27302639 29.88404547 11 32 C10.01 32.33 9.02 32.66 8 33 C7.73058594 33.61488281 7.46117187 34.22976562 7.18359375 34.86328125 C5.46818878 37.96006843 3.22527111 38.6962055 0.0625 40.1875 C-0.99839844 40.69667969 -2.05929687 41.20585938 -3.15234375 41.73046875 C-9.9918172 44.77961672 -18.35398479 45.66853797 -25.5234375 43.09375 C-30.84360716 39.91387848 -34.69465482 35.7293581 -37.375 30.125 C-38.31054702 25.44726492 -38.30606979 21.48986922 -36.08203125 17.25 C-29.05775007 7.91310933 -12.05795615 -3.0416466 0 0 Z " fill="#13477D" transform="translate(287,49)"/>
<path d="M0 0 C14.85 0 29.7 0 45 0 C43.875 10.125 43.875 10.125 42.80859375 14.91015625 C42.60806396 15.821604 42.40753418 16.73305176 42.20092773 17.67211914 C41.82303101 19.35035767 41.82303101 19.35035767 41.4375 21.0625 C40.633125 24.671875 39.82875 28.28125 39 32 C24.15 32 9.3 32 -6 32 C-4.875 20.75 -4.875 20.75 -3.80859375 16.2109375 C-3.50779907 14.90842041 -3.50779907 14.90842041 -3.20092773 13.57958984 C-2.94899658 12.5220752 -2.69706543 11.46456055 -2.4375 10.375 C-1.633125 6.95125 -0.82875 3.5275 0 0 Z " fill="#000000" transform="translate(926,508)"/>
<path d="M0 0 C3.37912987 1.50133152 4.45291814 2.64372181 6.22265625 5.85546875 C8.14087197 10.92133574 9.11201135 15.94613306 7.91015625 21.29296875 C5.59765625 24.41796875 5.59765625 24.41796875 2.91015625 26.29296875 C1.92015625 26.29296875 0.93015625 26.29296875 -0.08984375 26.29296875 C-1.77858254 27.93726704 -3.4428989 29.60681093 -5.08984375 31.29296875 C-8.65373501 34.08628892 -11.48445991 34.77540534 -16.0390625 34.578125 C-22.07151788 33.73932644 -26.30526796 30.94259044 -30.08984375 26.29296875 C-32.59524738 21.2821615 -32.48611174 16.61680348 -31.08984375 11.29296875 C-24.69709725 -2.70196278 -13.74415361 -3.42398213 0 0 Z " fill="#13477D" transform="translate(132.08984375,107.70703125)"/>
<path d="M0 0 C3.66683228 2.16128983 5.78437396 4.00000884 7.390625 8.01171875 C7.51419623 13.44885276 4.89196757 16.26465797 1.37109375 20.046875 C-7.76043194 29.1063571 -7.76043194 29.1063571 -13.796875 29.44921875 C-18.47902581 29.38890119 -20.87561448 28.03563537 -24.171875 24.78515625 C-27.83603503 20.26469795 -29.609375 14.7839598 -29.609375 9.01171875 C-23.45235031 -1.11757994 -11.02409183 -4.17529227 0 0 Z " fill="#13477D" transform="translate(392.609375,21.98828125)"/>
<path d="M0 0 C3.11502516 5.11754134 3.11502516 5.11754134 2.75 7.91796875 C0.51983864 14.10898962 -4.06283607 19.73002038 -9 24 C-13.13953852 25.37984617 -16.69718226 25.99082598 -21 25 C-24.66166614 22.30741803 -27.95224074 19.09551853 -30 15 C-30.48000606 10.923883 -30.75901551 7.27652609 -28.625 3.6875 C-20.30103111 -1.66362286 -8.94611923 -5.96407949 0 0 Z " fill="#13477D" transform="translate(334,35)"/>
<path d="M0 0 C0.66 0 1.32 0 2 0 C0.63016497 3.16115776 0.0109362 3.9927092 -3 6 C-5.43823242 6.4831543 -5.43823242 6.4831543 -8.35546875 6.82421875 C-9.44118164 6.96182617 -10.52689453 7.09943359 -11.64550781 7.24121094 C-12.81436523 7.38848633 -13.98322266 7.53576172 -15.1875 7.6875 C-31.67167011 9.96924456 -48.22995727 13.12497815 -62.66821289 21.74609375 C-69.43698209 25.59580286 -76.82779565 27.81517833 -84.1875 30.25 C-99.52099744 35.34489602 -114.28000375 41.30726671 -129 48 C-130.52077148 48.68811768 -130.52077148 48.68811768 -132.07226562 49.39013672 C-145.95796984 55.71984792 -159.24981212 62.88926378 -172.45214844 70.53222656 C-175.34451627 72.19846989 -178.25594923 73.82759274 -181.17333984 75.44946289 C-189.21262362 79.92000284 -197.12933394 84.59056644 -205.02563477 89.30859375 C-209.50171009 91.97403372 -213.99967197 94.56338198 -218.5859375 97.03515625 C-223.61843505 99.75818036 -228.48585745 102.67882636 -233.3125 105.75 C-234.12211182 106.26369141 -234.93172363 106.77738281 -235.76586914 107.30664062 C-240.9032803 110.59280089 -245.96524535 113.96875548 -250.9375 117.5 C-251.49800049 117.89670898 -252.05850098 118.29341797 -252.63598633 118.70214844 C-255.69517362 120.91411067 -258.40997775 123.25395231 -261 126 C-261.66 125.67 -262.32 125.34 -263 125 C-256.96567482 118.26875908 -250.22554979 113.60123035 -242.5625 108.875 C-240.39668688 107.51894528 -238.23131463 106.16218615 -236.06640625 104.8046875 C-235.03354492 104.16112305 -234.00068359 103.51755859 -232.93652344 102.85449219 C-230.27770234 101.17537637 -227.65822482 99.45276199 -225.05078125 97.6953125 C-221.98261161 95.63131538 -218.89564782 93.73334017 -215.625 92 C-214.81289062 91.566875 -214.00078125 91.13375 -213.1640625 90.6875 C-212.11992187 90.130625 -211.07578125 89.57375 -210 89 C-202.50260235 84.97580126 -195.13758148 80.76609708 -187.8125 76.4375 C-176.58757968 69.84821404 -165.20972328 63.58333484 -153.72558594 57.45898438 C-151.17706 56.0947788 -148.63798895 54.71466309 -146.1015625 53.328125 C-139.38110476 49.67522869 -132.87504342 46.36326624 -125.58984375 43.953125 C-122.66486409 42.8766619 -120.00798913 41.5129166 -117.25 40.0625 C-112.1603368 37.43855447 -106.99548977 35.54792503 -101.55639648 33.82006836 C-97.71553231 32.59351235 -94.01172884 31.22678174 -90.3125 29.625 C-86.6384587 28.03474332 -82.95166278 26.61828163 -79.16015625 25.33984375 C-77.85534302 24.89874268 -77.85534302 24.89874268 -76.52416992 24.44873047 C-74.81289989 23.87625695 -73.09837636 23.31337853 -71.38012695 22.76220703 C-66.95122797 21.27870017 -63.18228742 19.58281164 -59.25390625 17.04296875 C-53.23322612 13.28649105 -46.88254617 11.55018333 -40.0625 9.75 C-38.15500977 9.23252197 -38.15500977 9.23252197 -36.20898438 8.70458984 C-27.35842973 6.39122408 -18.74518697 4.90771029 -9.625 4.3515625 C-6.29328468 4.02844356 -3.94683698 3.55155432 -1 2 C-0.67 1.34 -0.34 0.68 0 0 Z " fill="#F4A138" transform="translate(460,381)"/>
<path d="M0 0 C-7.94538814 2.57802488 -15.87518445 5.0481045 -24 7 C-43.75127482 11.77610241 -61.99790976 19.33152495 -80.0625 28.5625 C-84.90641675 31.01752265 -89.86892678 33.17663137 -94.85375977 35.32641602 C-100.60468884 37.80736638 -106.30315089 40.39757683 -112 43 C-112.978479 43.44537109 -113.95695801 43.89074219 -114.96508789 44.34960938 C-117.99869182 45.73060222 -121.03070758 47.11503533 -124.0625 48.5 C-125.07376953 48.96019531 -126.08503906 49.42039062 -127.12695312 49.89453125 C-132.7590235 52.46939922 -138.33707872 55.12232688 -143.86254883 57.91894531 C-145.54156283 58.76813709 -147.23171866 59.59530328 -148.92578125 60.4140625 C-158.5016391 65.27251738 -166.52107784 72.29833083 -173.9375 80 C-181.78219193 88.04080923 -191.18194244 94.48434563 -200.375 100.875 C-213.42774146 109.96577745 -225.39735917 120.14132113 -237 131 C-238.51037148 132.37700209 -240.0260114 133.74804925 -241.54174805 135.11914062 C-244.04613221 137.39314878 -246.52443965 139.69470745 -249 142 C-249.90492188 142.83789062 -250.80984375 143.67578125 -251.7421875 144.5390625 C-258.06231471 150.60272078 -263.34194776 157.09317352 -268.49780273 164.16259766 C-271.35185 168.03930416 -274.01904791 171.18689179 -278 174 C-276.44723191 170.48584063 -274.33432968 167.81419888 -271.875 164.875 C-270.78832031 163.57175781 -270.78832031 163.57175781 -269.6796875 162.2421875 C-269.0623877 161.50464233 -269.0623877 161.50464233 -268.43261719 160.75219727 C-267.35730167 159.43700649 -266.30426817 158.10354622 -265.26269531 156.76147461 C-260.24712799 150.3268472 -254.80716286 144.53607491 -249 138.8125 C-248.14921875 137.96236328 -247.2984375 137.11222656 -246.421875 136.23632812 C-241.4402735 131.28910884 -236.33788559 126.55856304 -231 122 C-230.02417969 121.14277344 -229.04835937 120.28554688 -228.04296875 119.40234375 C-217.77212298 110.53653844 -206.84354404 102.5861338 -195.796875 94.71875 C-186.92657881 88.39023459 -178.36590707 81.56273965 -170.75 73.75 C-150.95821674 53.54759883 -120.79173235 44.06682605 -95.35421753 32.84573364 C-85.96460258 28.70325283 -76.6572021 24.44923531 -67.4375 19.9375 C-48.87471891 10.9560364 -29.83976701 5.63702543 -9.88476562 0.73681641 C-3.16019312 -0.98074959 -3.16019312 -0.98074959 0 0 Z " fill="#F6A53A" transform="translate(384,308)"/>
<path d="M0 0 C1 3 1 3 0.22265625 4.7265625 C-0.16019531 5.35304687 -0.54304687 5.97953125 -0.9375 6.625 C-3.07436605 10.58405662 -3.33393969 13.57632632 -3.04296875 18.01953125 C-3 20 -3 20 -4 23 C-4.45856591 27.55038476 -4.46568803 31.52925148 -2.4375 35.6875 C-0.82065419 39.41327512 -0.81186334 41.16140465 -2 45 C-8.73284086 48.36642043 -18.43587779 45.60295287 -25.48632812 44.06738281 C-41.09014811 41.02326409 -56.39002481 43.33342782 -71.6875 46.75 C-73.34403892 47.10326485 -75.0009412 47.45483014 -76.65820312 47.8046875 C-81.44928042 48.82526535 -86.22635009 49.90106236 -91 51 C-92.0930394 51.24891998 -92.0930394 51.24891998 -93.2081604 51.50286865 C-102.04854614 53.53398737 -110.46407128 56.01978429 -118.8125 59.625 C-120.32710815 60.26489868 -120.32710815 60.26489868 -121.87231445 60.91772461 C-129.46442293 64.18564515 -136.80379774 67.84338029 -144.0246582 71.86376953 C-147.67721046 73.88380685 -150.77613822 75.52512797 -155 76 C-152.26790839 72.71137121 -148.64430714 71.13704352 -144.875 69.3125 C-143.82070801 68.79465942 -143.82070801 68.79465942 -142.74511719 68.26635742 C-140.50087133 67.16882284 -138.25143668 66.08270033 -136 65 C-135.26749023 64.64679688 -134.53498047 64.29359375 -133.78027344 63.9296875 C-129.49829271 61.87159262 -125.20021291 59.85273845 -120.88232422 57.87109375 C-119.25818774 57.11948299 -117.64548115 56.34326359 -116.03515625 55.5625 C-107.15120217 51.48378364 -97.73854227 49.67948525 -88.22070312 47.69433594 C-84.82681722 46.96266435 -81.4541639 46.1613999 -78.078125 45.3515625 C-61.33836301 41.45060618 -41.82751144 37.32337236 -24.80078125 42.0234375 C-20.40192214 43.15366851 -16.50886247 43.22658616 -12 43.125 C-10.83791016 43.11146484 -10.83791016 43.11146484 -9.65234375 43.09765625 C-7.76809157 43.07439388 -5.88400168 43.0385364 -4 43 C-4.11409593 41.54077307 -4.24165544 40.08259402 -4.375 38.625 C-4.47941406 37.40683594 -4.47941406 37.40683594 -4.5859375 36.1640625 C-4.82892588 33.79665809 -4.82892588 33.79665809 -7 32 C-7.23046875 29.6875 -7.23046875 29.6875 -7.1875 27 C-7.17783203 25.6696875 -7.17783203 25.6696875 -7.16796875 24.3125 C-7 22 -7 22 -6 20 C-5.70904128 17.94024274 -5.441716 15.87711405 -5.1875 13.8125 C-4.38240383 8.2690134 -3.1893069 4.57133989 0 0 Z " fill="#F4A138" transform="translate(441,242)"/>
<path d="M0 0 C0.99 0.33 1.98 0.66 3 1 C3 1.66 3 2.32 3 3 C1.55541992 4.42333984 1.55541992 4.42333984 -0.45703125 6.0859375 C-5.10791317 10.04138916 -9.39735826 14.28501747 -13.6875 18.625 C-14.42033203 19.36234375 -15.15316406 20.0996875 -15.90820312 20.859375 C-17.31948357 22.27956344 -18.72977154 23.70073905 -20.13891602 25.12304688 C-23.11319136 28.12268335 -26.09902915 31.11073007 -29.10546875 34.078125 C-34.66488124 39.87743709 -38.60946887 45.99644363 -42.46166992 53.02246094 C-44.88268505 57.38018791 -47.29849921 60.64950359 -51 64 C-51.33 64.33 -51.66 64.66 -52 65 C-61.23356267 65.82708858 -67.74007641 65.13135761 -75.0390625 59.3984375 C-76.73583007 57.97207114 -78.38316047 56.51578706 -80 55 C-77 54 -77 54 -74 55 C-73.3162955 56.32467746 -72.65035814 57.65863633 -72 59 C-67.48377503 62.01081665 -62.69204219 62.05550963 -57.375 62.3125 C-56.66085938 62.34988281 -55.94671875 62.38726563 -55.2109375 62.42578125 C-51.8953259 61.78726241 -50.39806198 60.36418041 -48 58 C-46.4154603 55.57259712 -45.12351619 53.02041114 -43.8125 50.4375 C-40.30587217 43.85031123 -36.49720332 38.68554607 -31.26171875 33.33203125 C-28.94846556 31.02288099 -28.94846556 31.02288099 -26.9140625 28.37890625 C-25.25729015 26.3197749 -23.7227168 24.7812454 -21.6875 23.125 C-17.30898885 19.37792499 -13.21516327 15.36814507 -9.125 11.3125 C-8.45815186 10.65846191 -7.79130371 10.00442383 -7.10424805 9.33056641 C-6.47429932 8.7019873 -5.84435059 8.0734082 -5.1953125 7.42578125 C-4.62828613 6.86286377 -4.06125977 6.29994629 -3.47705078 5.7199707 C-1.92738564 3.91544328 -0.9695344 2.1635583 0 0 Z " fill="#F7A73B" transform="translate(194,506)"/>
<path d="M0 0 C0.66 0.33 1.32 0.66 2 1 C1.48953125 1.55945313 0.9790625 2.11890625 0.453125 2.6953125 C-2.04553758 5.45092974 -4.52816367 8.2203343 -7 11 C-7.51868652 11.58313965 -8.03737305 12.1662793 -8.57177734 12.76708984 C-10.20191068 14.60850959 -11.82092467 16.45917334 -13.4375 18.3125 C-13.95731445 18.89854004 -14.47712891 19.48458008 -15.01269531 20.08837891 C-18.69093168 24.33445361 -21.08734818 27.59792519 -20.875 33.4375 C-19.14969743 40.46194619 -14.57092404 45.73729184 -8.515625 49.57421875 C-4.34752728 51.9518767 -0.48834026 54.08558346 4.25 55 C8.98382844 56.26235425 11.58271592 58.60407395 15 62 C11.54327496 62 10.57580148 60.99614486 7.859375 59.06640625 C5.67770378 57.81515364 3.61991613 57.2557663 1.1875 56.625 C-4.33997801 55.10161374 -8.43929764 52.40012601 -13 49 C-13.9075 48.38125 -14.815 47.7625 -15.75 47.125 C-19.70070094 43.39378244 -22.25350037 39.10776367 -24.0625 34 C-23.87777996 25.13343805 -16.68333561 19.03854408 -11 13 C-7.21213 8.7608408 -3.50095307 4.48121993 0 0 Z " fill="#F6A63B" transform="translate(94,493)"/>
<path d="M0 0 C0.66 0.33 1.32 0.66 2 1 C2.04962457 5.87465957 2.08582554 10.74917041 2.10986328 15.62402344 C2.11988957 17.28062503 2.13351406 18.93720907 2.15087891 20.59375 C2.17527621 22.98181505 2.18651694 25.36964508 2.1953125 27.7578125 C2.20563507 28.49242706 2.21595764 29.22704163 2.22659302 29.98391724 C2.22754068 34.37696359 1.62276337 37.91782363 0 42 C-0.33 42 -0.66 42 -1 42 C-1.19058861 27.981149 -0.60272612 14.00376437 0 0 Z " fill="#EF9232" transform="translate(463,339)"/>
<path d="M0 0 C2.3125 -0.3125 2.3125 -0.3125 5 0 C6.625 2.375 6.625 2.375 8 5 C11.53060101 7.35373401 14.58595756 7.65778415 18.6875 8.125 C19.7403418 8.25455078 19.7403418 8.25455078 20.81445312 8.38671875 C22.54211145 8.59826875 24.2709566 8.800086 26 9 C23.64979502 11.35020498 23.08090378 11.31914802 19.875 11.375 C11.74145321 11.16644752 5.57064726 6.65768862 0 1 C0 0.67 0 0.34 0 0 Z " fill="#F29B36" transform="translate(114,560)"/>
<path d="M0 0 C0 3.36163807 -0.37777526 3.80153827 -2.375 6.3125 C-4.23700611 8.77431199 -5.09402986 10.29315193 -6.0625 13.3125 C-7 16 -7 16 -9.0625 17.1875 C-9.701875 17.455625 -10.34125 17.72375 -11 18 C-11.33 18.99 -11.66 19.98 -12 21 C-12.33 20.34 -12.66 19.68 -13 19 C-9.43512805 12.23471585 -4.70405864 6.01361342 0 0 Z " fill="#F39D38" transform="translate(57,383)"/>
<path d="M0 0 C0.99 0.33 1.98 0.66 3 1 C3 1.66 3 2.32 3 3 C1.35546875 4.62109375 1.35546875 4.62109375 -0.8125 6.4375 C-3.31102718 8.54463676 -5.7242056 10.65241398 -8 13 C-8.66 12.67 -9.32 12.34 -10 12 C-9.44570312 11.46890625 -8.89140625 10.9378125 -8.3203125 10.390625 C-7.59585938 9.68421875 -6.87140625 8.9778125 -6.125 8.25 C-5.04605469 7.20585938 -5.04605469 7.20585938 -3.9453125 6.140625 C-2.13520321 4.14877783 -1.05151914 2.4572342 0 0 Z " fill="#F09533" transform="translate(194,506)"/>
<path d="M0 0 C1.65 0 3.3 0 5 0 C5.66 1.32 6.32 2.64 7 4 C4.625 3.6875 4.625 3.6875 2 3 C1.34 2.01 0.68 1.02 0 0 Z " fill="#EE8D31" transform="translate(114,560)"/>
<path d="M0 0 C3.45925163 1.2491742 6.14693203 2.67527795 9 5 C6 6 6 6 3.375 4.75 C1 3 1 3 0 0 Z " fill="#F09332" transform="translate(84,542)"/>
</svg>
