<?xml version="1.0" encoding="UTF-8"?>
<svg version="1.1" xmlns="http://www.w3.org/2000/svg" width="1200" height="659">
<path d="M0 0 C0.33 2.31 0.66 4.62 1 7 C-0.42372925 7.69222656 -0.42372925 7.69222656 -1.8762207 8.3984375 C-27.85091223 21.0601309 -53.33701219 34.29597625 -77 51 C-77.71978027 51.5062793 -78.43956055 52.01255859 -79.18115234 52.53417969 C-88.3946007 59.03937997 -97.39638432 65.69841518 -106 73 C-107.04367369 73.8705081 -108.08797553 74.74026349 -109.1328125 75.609375 C-120.71877029 85.27814495 -131.62788447 95.53681438 -142.3125 106.1875 C-142.78871796 106.66103912 -143.26493591 107.13457825 -143.75558472 107.62246704 C-149.39430916 113.2371302 -154.86811268 118.91755884 -160 125 C-160.5355249 125.6288208 -161.0710498 126.2576416 -161.62280273 126.90551758 C-187.31852944 157.25501308 -208.10368273 190.55839031 -226 226 C-226.4640625 226.9173291 -226.928125 227.8346582 -227.40625 228.77978516 C-264.60809005 302.90603677 -281.75612888 385.27397064 -295 495 C-300.70010938 496.22024564 -306.28871925 496.12702021 -312.0859375 496.09765625 C-313.14285797 496.0962413 -314.19977844 496.09482635 -315.28872681 496.09336853 C-318.65084716 496.0877894 -322.01289991 496.07524069 -325.375 496.0625 C-327.66015529 496.05748231 -329.94531162 496.05291987 -332.23046875 496.04882812 C-337.8203354 496.03782679 -343.41016287 496.02110944 -349 496 C-348.44329533 488.9560859 -347.34779289 482.17410313 -345.84765625 475.2734375 C-345.63221161 474.26418716 -345.41676697 473.25493683 -345.1947937 472.21510315 C-344.49112443 468.93349113 -343.77787738 465.65407843 -343.0625 462.375 C-342.8173465 461.24563019 -342.57219299 460.11626038 -342.3196106 458.95266724 C-323.08574022 370.51334653 -296.1128065 281.78505454 -228 172 C-227.47229004 171.26265625 -226.94458008 170.5253125 -226.40087891 169.765625 C-215.84416582 155.06108835 -204.71414194 140.85187711 -192.37890625 127.58984375 C-190.50585216 125.55070605 -188.6991919 123.48436047 -186.8984375 121.3828125 C-182.64703379 116.50880634 -178.0930923 111.94257074 -173.51196289 107.3815918 C-172.06475615 105.93974779 -170.62297974 104.49262884 -169.18164062 103.04492188 C-163.95746009 97.81671198 -158.62602108 92.79282274 -153 88 C-151.95148854 87.07476787 -150.90453684 86.14776426 -149.859375 85.21875 C-140.00727647 76.56141991 -129.59145923 68.72541641 -119 61 C-117.80528076 60.12190674 -117.80528076 60.12190674 -116.58642578 59.22607422 C-94.12117523 42.78435087 -69.88106229 29.39188211 -45 17 C-44.04335449 16.52304688 -43.08670898 16.04609375 -42.10107422 15.5546875 C-32.51949678 10.81049354 -22.82673166 6.37888162 -12.9375 2.3125 C-12.09775635 1.96074707 -11.2580127 1.60899414 -10.39282227 1.24658203 C-9.61221436 0.93446777 -8.83160645 0.62235352 -8.02734375 0.30078125 C-7.34406006 0.02403564 -6.66077637 -0.25270996 -5.95678711 -0.5378418 C-3.64257975 -1.08441629 -2.23254621 -0.74231148 0 0 Z " fill="#2C3595" transform="translate(1199,163)"/>
<path d="M0 0 C0.83111298 0.00465271 1.66222595 0.00930542 2.51852417 0.01409912 C14.56675191 0.09308113 26.32815857 0.39235803 38.0625 3.375 C39.34181396 3.69694336 39.34181396 3.69694336 40.64697266 4.02539062 C51.96225236 6.94520334 63.57069213 10.12909607 74.0625 15.375 C73.28976643 19.5413882 72.23193945 23.59808971 71.125 27.6875 C69.71915259 32.90477006 68.34781255 38.12664043 67.0625 43.375 C64.41657319 43.2948204 62.60865666 42.87353537 60.62890625 41.06640625 C60.11199219 40.50824219 59.59507812 39.95007813 59.0625 39.375 C45.03728179 24.5924806 23.58698936 15.12690798 3.37109375 14.20703125 C-20.91625526 14.08449165 -44.49391912 19.72270216 -62.9375 36.375 C-63.57171875 36.93960938 -64.2059375 37.50421875 -64.859375 38.0859375 C-76.70648628 49.25157777 -83.83029191 64.52280314 -88.3125 79.9375 C-88.67033569 81.15723511 -88.67033569 81.15723511 -89.03540039 82.40161133 C-92.64809855 95.64991208 -93.32096746 108.98553575 -93.25 122.625 C-93.24751251 123.39257629 -93.24502502 124.16015259 -93.24246216 124.95098877 C-93.08549283 156.32446867 -85.68254578 184.74676979 -63.625 208.0625 C-45.39206898 225.76558516 -20.20665115 230.97960341 4.33984375 230.65234375 C27.2565669 229.88654801 48.2565989 218.65784905 65.890625 204.7109375 C66.60734375 204.27007812 67.3240625 203.82921875 68.0625 203.375 C69.0525 203.705 70.0425 204.035 71.0625 204.375 C70.70269938 207.79646639 70.29345224 211.21025072 69.875 214.625 C69.77380859 215.59308594 69.67261719 216.56117188 69.56835938 217.55859375 C68.65430765 224.72278291 68.65430765 224.72278291 65.8046875 227.86328125 C64.89976562 228.36214844 63.99484375 228.86101562 63.0625 229.375 C61.72638672 230.13103516 61.72638672 230.13103516 60.36328125 230.90234375 C25.19223467 247.49939972 -18.44254862 249.06131071 -55.05126953 236.35888672 C-67.93280343 231.65848724 -79.58062314 225.4441657 -89.9375 216.375 C-90.63230469 215.81167969 -91.32710938 215.24835938 -92.04296875 214.66796875 C-114.50276207 196.11800405 -125.65874612 166.20516642 -128.47265625 137.9519043 C-131.33352638 104.11689984 -124.96344909 68.41345923 -102.6875 41.75 C-87.58178081 24.26746165 -68.24444178 11.8717969 -46 5.5625 C-45.03755371 5.28841309 -45.03755371 5.28841309 -44.05566406 5.00878906 C-29.45450549 1.19089308 -15.0347975 -0.1509856 0 0 Z " fill="#000000" transform="translate(526.9375,246.625)"/>
<path d="M0 0 C-0.18175781 0.58265625 -0.36351562 1.1653125 -0.55078125 1.765625 C-2.60235511 8.45691206 -4.35228894 15.19880965 -6 22 C-10.48627131 22.42178619 -10.48627131 22.42178619 -12.74609375 20.56640625 C-13.30425781 19.90511719 -13.86242187 19.24382813 -14.4375 18.5625 C-26.90348246 5.39749048 -45.91292724 -2.48400318 -63.9375 -3.3359375 C-87.28219784 -3.74950218 -107.67521923 1.50656221 -125.1875 17.6875 C-143.46386296 36.93561231 -146.78623407 63.24248899 -146.28515625 88.578125 C-145.5491924 109.702443 -138.59989698 129.91698317 -123.859375 145.39453125 C-105.74466347 161.90069599 -82.49882783 166.16649891 -58.70556641 165.17285156 C-48.4379018 164.51687732 -38.50810803 162.70010007 -28.96875 158.76953125 C-27 158 -27 158 -25 158 C-25.33 134.9 -25.66 111.8 -26 88 C-17.75 88 -9.5 88 -1 88 C-1 113.41 -1 138.82 -1 165 C-11.63177016 169.25270807 -21.84552185 171.80678842 -33 174 C-33.86109375 174.16951172 -34.7221875 174.33902344 -35.609375 174.51367188 C-69.24071921 180.80649327 -108.37517307 179.84122958 -138 161 C-157.65334673 147.47573505 -168.31942885 127.87968071 -173.140625 104.984375 C-174.41567487 97.51113002 -174.39641311 89.99539733 -174.375 82.4375 C-174.37412384 81.68366028 -174.37324768 80.92982056 -174.37234497 80.15313721 C-174.2676975 52.87309753 -166.52761741 30.62180206 -147 11 C-108.56524471 -25.20578045 -44.70295172 -20.8774216 0 0 Z " fill="#000000" transform="translate(174,29)"/>
<path d="M0 0 C8.25 0 16.5 0 25 0 C24.855625 3.67769531 24.71125 7.35539063 24.5625 11.14453125 C24.36187418 16.70010413 24.17745644 22.25614617 24 27.8125 C23.9762455 28.55552368 23.952491 29.29854736 23.92801666 30.06408691 C22.75517053 67.36892776 22.83166345 104.68131622 22.875 142 C22.87584846 142.75201203 22.87669693 143.50402406 22.87757111 144.27882433 C22.90002423 163.85260681 22.94291586 183.4262864 23 203 C15.74 203 8.48 203 1 203 C1 195.41 1 187.82 1 180 C-0.98 182.97 -2.96 185.94 -5 189 C-14.06564893 199.28602474 -25.3463352 204.75875775 -39 206 C-53.52857445 206.90450269 -67.82073828 203.28129671 -79.05078125 193.78515625 C-79.69402344 193.19605469 -80.33726562 192.60695312 -81 192 C-81.52980469 191.52433594 -82.05960937 191.04867187 -82.60546875 190.55859375 C-90.97496378 181.96471548 -96.01544137 168.58229474 -98 157 C-98.12890625 156.28199219 -98.2578125 155.56398437 -98.390625 154.82421875 C-101.56914552 132.61639773 -97.5116333 110.15199221 -84 92 C-75.03600544 81.20520886 -62.85009827 74.24017061 -49 72 C-35.83884348 71.20981245 -22.50248572 71.33232083 -11.84765625 80.22265625 C-7.14623008 84.7451698 -2.92979167 89.14041665 0 95 C0 63.65 0 32.3 0 0 Z M-63.109375 97.453125 C-75.23543376 113.78822894 -76.24340522 138.78672167 -73.50390625 158.26171875 C-72.84328813 161.5946678 -72.03021808 164.76336343 -71 168 C-70.67128906 169.0415625 -70.34257813 170.083125 -70.00390625 171.15625 C-66.79789248 179.94228083 -61.42618857 187.89489213 -53.0625 192.5 C-44.45261331 196.0973982 -35.21592059 197.38154354 -26.359375 193.98828125 C-15.00605833 188.60055463 -8.05802065 180.47386185 -3.25 168.9375 C4.06334138 148.32498008 5.12409726 123.39036115 -3.9140625 103.10546875 C-8.54637836 94.12410814 -14.68299128 88.88052786 -24.3125 85.625 C-40.00466004 81.28924711 -52.51151812 85.07547536 -63.109375 97.453125 Z " fill="#000000" transform="translate(586,0)"/>
<path d="M0 0 C-0.54364112 16.6745743 -1.16088023 33.33747894 -2 50 C9.88 49.67 21.76 49.34 34 49 C34 53.95 34 58.9 34 64 C21.79 64 9.58 64 -3 64 C-3.63670168 88.296991 -4.11551803 112.59090852 -4.17724609 136.89694214 C-4.18402208 139.27791568 -4.19421393 141.65888222 -4.20800781 144.03982544 C-5.18788714 170.90258954 -5.18788714 170.90258954 5.4453125 194.78125 C10.4170921 199.45417946 17.1188546 200.36114749 23.703125 200.203125 C28.51303323 199.77775897 33.25674589 198.88540743 38 198 C38 201.3 38 204.6 38 208 C34.54354898 208.67797288 31.08536778 209.34257454 27.625 210 C26.65949219 210.19078125 25.69398438 210.3815625 24.69921875 210.578125 C11.45945494 213.06613431 -3.08770505 213.13404231 -15 206 C-24.39040429 199.31444042 -28.87006324 191.21715798 -31 180 C-31.42084313 174.86957753 -31.37607094 169.76657623 -31.3125 164.625 C-31.30365006 163.02531134 -31.29520557 161.42562039 -31.28710938 159.82592773 C-31.0431855 127.8813672 -29.90896845 95.93114284 -29 64 C-36.59 64 -44.18 64 -52 64 C-52 59.05 -52 54.1 -52 49 C-44.21959865 48.92446212 -36.70717801 48.93694096 -29 50 C-29.33 49.34 -29.66 48.68 -30 48 C-30.15691907 45.23068632 -30.25843134 42.48265893 -30.31640625 39.7109375 C-30.33718735 38.89251373 -30.35796844 38.07408997 -30.37937927 37.23086548 C-30.44484812 34.61233034 -30.50374726 31.99369361 -30.5625 29.375 C-30.60568776 27.60155193 -30.64930214 25.82811419 -30.69335938 24.0546875 C-30.80052676 19.70322954 -30.90180169 15.35166923 -31 11 C-27.39371597 9.42179762 -23.78245516 7.85565617 -20.16625977 6.30029297 C-18.33533125 5.50985656 -16.50845205 4.71006185 -14.68164062 3.91015625 C-13.52470703 3.41386719 -12.36777344 2.91757812 -11.17578125 2.40625 C-10.11270752 1.94541016 -9.04963379 1.48457031 -7.9543457 1.00976562 C-5.07516089 0.02568924 -3.01161805 -0.21424607 0 0 Z " fill="#000000" transform="translate(764,278)"/>
<path d="M0 0 C8.98391349 5.80893297 14.88256464 14.15485999 17.28385925 24.64459229 C18.57526697 31.28188618 19.01021043 37.55824436 18.90625 44.30859375 C18.89815308 45.36598251 18.89005615 46.42337128 18.88171387 47.51280212 C18.8499409 51.11293998 18.80092719 54.7125842 18.75 58.3125 C18.73308694 59.66660178 18.71649374 61.02070758 18.70019531 62.37481689 C18.58417149 71.94616538 18.43997352 81.51695703 18.28643799 91.08776855 C18.22468415 94.96408917 18.16518826 98.84044448 18.10546875 102.71679688 C17.98911492 110.2487327 17.87016741 117.78062387 17.75 125.3125 C10.16 125.3125 2.57 125.3125 -5.25 125.3125 C-5.33995991 114.51731052 -5.19850737 103.76911995 -4.82092285 92.97991943 C-4.42399947 81.54941414 -4.12242427 70.12554533 -4.0625 58.6875 C-4.04960937 57.54619629 -4.03671875 56.40489258 -4.0234375 55.22900391 C-4.01018993 43.93379195 -4.51923419 32.30154318 -10.25 22.3125 C-10.62125 21.66539063 -10.9925 21.01828125 -11.375 20.3515625 C-14.56828904 15.37255261 -18.3309512 12.59870764 -24.0234375 10.73046875 C-33.49670354 8.9521539 -43.74138903 9.60646953 -52.25 14.3125 C-56.94799671 17.72108465 -59.39515903 20.64417638 -62 25.9375 C-62.57234375 27.06414062 -63.1446875 28.19078125 -63.734375 29.3515625 C-67.45240977 38.12296504 -67.54090096 47.63642628 -67.48046875 57.01171875 C-67.48001053 58.20440872 -67.47955231 59.39709869 -67.4790802 60.62593079 C-67.4760739 63.14296466 -67.46823662 65.65999695 -67.45581055 68.17700195 C-67.43776705 71.94424382 -67.43529999 75.71123537 -67.43554688 79.47851562 C-67.41254718 94.78462535 -66.98419094 110.0237079 -66.25 125.3125 C-74.5 125.3125 -82.75 125.3125 -91.25 125.3125 C-91.08773926 122.60732178 -90.92547852 119.90214355 -90.75830078 117.11499023 C-90.17728219 106.56427135 -90.10392717 96.03672051 -90.1171875 85.47265625 C-90.11651083 83.52990202 -90.11553782 81.58714787 -90.11428833 79.64439392 C-90.11282804 75.6047992 -90.11491123 71.56522685 -90.11962891 67.52563477 C-90.12532126 62.40851335 -90.12203951 57.29144448 -90.11605644 52.17432499 C-90.11240199 48.17174399 -90.11361162 44.16917496 -90.11618423 40.16659355 C-90.11684028 38.28239371 -90.11607276 36.39819269 -90.11370468 34.51399422 C-90.10117537 21.7494515 -90.50007876 9.05522791 -91.25 -3.6875 C-84.03881836 -3.14822388 -84.03881836 -3.14822388 -81.43945312 -2.93920898 C-80.80974609 -2.89610596 -80.18003906 -2.85300293 -79.53125 -2.80859375 C-78.90283203 -2.7614624 -78.27441406 -2.71433105 -77.62695312 -2.66577148 C-74.15138761 -2.69754278 -70.69887086 -3.25639114 -67.25 -3.6875 C-67.25 2.5825 -67.25 8.8525 -67.25 15.3125 C-65.80625 13.62125 -64.3625 11.93 -62.875 10.1875 C-47.30097129 -7.33714235 -20.46172411 -11.224892 0 0 Z " fill="#000000" transform="translate(438.25,77.6875)"/>
<path d="M0 0 C6.67640837 5.93727786 11.43300344 14.1020922 13.15234375 22.9140625 C13.23141398 25.45584459 13.2581284 27.96825283 13.23413086 30.5090332 C13.2310643 31.26890533 13.22799774 32.02877747 13.22483826 32.81167603 C13.21769469 34.4589627 13.2083107 36.10624085 13.19694328 37.7535038 C13.17952409 40.36433605 13.16924409 42.97510681 13.161026 45.58598328 C13.13660143 53.00847186 13.10108443 60.43087778 13.05639648 67.85327148 C13.02954262 72.39660788 13.01254543 76.93989631 13.00152779 81.48329735 C12.99533748 83.21079465 12.98535668 84.93828283 12.9714489 86.66573524 C12.95212885 89.08752065 12.94532205 91.50905584 12.94116211 93.9309082 C12.92801971 94.99179405 12.92801971 94.99179405 12.91461182 96.07411194 C12.92484568 101.32033169 13.32716901 106.65084582 16.71484375 110.8515625 C20.45839937 112.4833688 24.12878696 112.14619078 28.15234375 111.9140625 C28.15234375 114.2240625 28.15234375 116.5340625 28.15234375 118.9140625 C17.78585932 121.86088041 8.18414104 124.10493436 -1.84765625 118.9140625 C-5.9908479 115.56991495 -7.1548173 112.08870344 -7.84765625 106.9140625 C-8.47929687 107.48253906 -9.1109375 108.05101562 -9.76171875 108.63671875 C-21.95330338 119.15942652 -35.12469356 125.60321777 -51.5703125 125.09765625 C-62.79958739 124.19238023 -71.49613539 121.13742684 -79.34375 112.81640625 C-86.4404288 103.83956839 -86.49603169 93.85639859 -85.84765625 82.9140625 C-84.80950913 74.82564153 -79.91657025 69.10616456 -73.84765625 63.9140625 C-64.72809918 57.83435779 -55.12765295 55.43193191 -44.49902344 53.41748047 C-40.43347696 52.64555074 -36.37687988 51.83124841 -32.32177734 51.00634766 C-30.21466244 50.57841473 -28.10564534 50.15971649 -25.99462891 49.75146484 C-17.15030138 47.98418831 -17.15030138 47.98418831 -9.84765625 42.9140625 C-8.68267777 31.44037908 -9.71229938 20.9064471 -16.91015625 11.4765625 C-22.62806849 5.55183216 -29.86585764 3.73505539 -37.91015625 3.4765625 C-48.10979207 3.88454793 -58.10397881 7.3416415 -65.55078125 14.56640625 C-67.25017391 16.56368096 -68.67383598 18.56642196 -69.84765625 20.9140625 C-71.49765625 20.9140625 -73.14765625 20.9140625 -74.84765625 20.9140625 C-75.67942631 15.90363807 -76.46319658 10.82183959 -74.84765625 5.9140625 C-70.77322365 1.70151354 -66.13736456 -0.67449495 -60.84765625 -3.0859375 C-59.92210937 -3.53453125 -58.9965625 -3.983125 -58.04296875 -4.4453125 C-55.66941351 -5.49180011 -53.32778798 -6.33020712 -50.84765625 -7.0859375 C-50.14382812 -7.30894531 -49.44 -7.53195313 -48.71484375 -7.76171875 C-32.44739812 -11.9277719 -13.51768363 -10.29710098 0 0 Z M-25.28515625 58.6015625 C-26.50654297 58.84583984 -27.72792969 59.09011719 -28.98632812 59.34179688 C-40.71882783 61.80818186 -52.40110256 64.87030297 -60.15625 74.546875 C-64.17109835 80.96507548 -63.61352533 88.63830627 -62.84765625 95.9140625 C-61.17981939 102.58540996 -56.39302013 107.0932345 -50.84765625 110.9140625 C-44.64609591 113.94414084 -37.8019507 113.87389851 -31.16015625 112.26171875 C-22.50955555 109.11235943 -15.17210438 103.40156768 -9.84765625 95.9140625 C-8.56184581 91.87529366 -8.72175145 87.84531829 -8.75 83.6484375 C-8.75141495 82.85503967 -8.7528299 82.06164185 -8.75428772 81.24420166 C-8.7598721 78.71744978 -8.77242171 76.19078746 -8.78515625 73.6640625 C-8.79017327 71.94791795 -8.79473582 70.23177201 -8.79882812 68.515625 C-8.80983641 64.31506981 -8.82709029 60.11458133 -8.84765625 55.9140625 C-14.41499834 55.9140625 -19.85396888 57.46182128 -25.28515625 58.6015625 Z " fill="#000000" transform="translate(289.84765625,81.0859375)"/>
<path d="M0 0 C8.042616 6.78102918 13.27354095 14.96287965 14.41268921 25.6098938 C14.59684483 30.10511288 14.50288486 34.59344303 14.41015625 39.08984375 C14.3957063 40.75025978 14.38381825 42.41069986 14.37434387 44.07115173 C14.34415899 48.41227585 14.28562361 52.75250118 14.21893311 57.09320068 C14.11599926 64.04099501 14.05252484 70.98915577 13.99712563 77.93746758 C13.97324343 80.34319481 13.9345733 82.7483307 13.8938446 85.15382385 C13.4503931 98.70518603 13.4503931 98.70518603 17.4921875 111.3671875 C21.49390989 113.46809175 25.56637454 112.98375099 29.9921875 112.6796875 C29.9921875 114.9896875 29.9921875 117.2996875 29.9921875 119.6796875 C20.65520693 123.095656 10.42285719 124.30686815 0.9921875 120.6796875 C-3.92447423 117.70682227 -5.7911776 113.78166279 -8.0078125 108.6796875 C-9.02488281 109.56720703 -9.02488281 109.56720703 -10.0625 110.47265625 C-22.81577985 121.30057945 -36.12087734 126.74741385 -53.0078125 125.6796875 C-63.69172284 124.48308954 -72.4397336 120.61846444 -79.3125 112.1875 C-85.38485762 103.20488803 -86.33726957 93.45865944 -84.53515625 82.9140625 C-82.09275741 73.37846942 -76.30404658 66.74656034 -68.0078125 61.6796875 C-59.01539155 57.12616114 -49.84162789 55.2304037 -40.0078125 53.6171875 C-23.76750012 51.27541672 -23.76750012 51.27541672 -9.0078125 44.6796875 C-5.87497105 35.93687414 -8.41704331 25.18507202 -12.2265625 17.08984375 C-15.64941848 11.37557585 -19.80806872 8.09489203 -26.0078125 5.6796875 C-36.99917787 2.9797483 -47.64571532 4.91177051 -57.65625 10.03515625 C-61.53206827 12.4366184 -64.25461818 14.73036284 -66.7578125 18.5546875 C-67.5003125 19.5859375 -68.2428125 20.6171875 -69.0078125 21.6796875 C-71.6484375 21.875 -71.6484375 21.875 -74.0078125 21.6796875 C-75.36168069 9.62858912 -75.36168069 9.62858912 -72.42578125 5.40234375 C-70.05364102 3.51745394 -67.68672041 2.09524679 -65.0078125 0.6796875 C-64.0796875 0.13828125 -63.1515625 -0.403125 -62.1953125 -0.9609375 C-43.78306911 -11.04849638 -17.5711042 -12.93696683 0 0 Z M-26.0078125 59.6796875 C-26.84989258 59.87224121 -27.69197266 60.06479492 -28.55957031 60.26318359 C-45.73458556 64.00289935 -45.73458556 64.00289935 -58.5703125 75.3046875 C-62.65972138 81.9079823 -63.09704865 89.36273815 -61.546875 96.9296875 C-59.38851727 103.43015314 -55.2867976 108.61898427 -49.3828125 112.1171875 C-42.79339829 115.04021637 -35.14900415 114.52731104 -28.3203125 112.6171875 C-23.18421617 110.62962038 -18.98849798 107.44070304 -15.0078125 103.6796875 C-14.41444092 103.25026855 -13.82106934 102.82084961 -13.2097168 102.37841797 C-9.46108081 99.1402 -7.87874113 96.1716906 -7.35351562 91.28442383 C-7.0094538 85.91764104 -7.03617967 80.55490653 -7.0703125 75.1796875 C-7.05719199 73.28903797 -7.04094638 71.39840739 -7.02148438 69.5078125 C-6.98079778 64.89786923 -6.98273035 60.28972301 -7.0078125 55.6796875 C-13.11571446 55.6796875 -20.06225813 58.30412368 -26.0078125 59.6796875 Z " fill="#000000" transform="translate(1020.0078125,80.3203125)"/>
<path d="M0 0 C6.54875676 6.08636507 11.00985107 14.36208089 12.37890625 23.2109375 C12.45156439 25.79097732 12.47500949 28.34089763 12.44482422 30.91943359 C12.43781494 32.05946083 12.43781494 32.05946083 12.43066406 33.22251892 C12.4201917 34.86706363 12.4075391 36.5115956 12.39294052 38.15610886 C12.37085275 40.76281707 12.3568156 43.36945187 12.34524536 45.97622681 C12.31171422 53.38594575 12.27008127 60.79554316 12.20751953 68.20507812 C12.16977881 72.7430859 12.14682077 77.28096941 12.13321304 81.81911087 C12.12518219 83.54383435 12.11160653 85.2685416 12.09228134 86.99317551 C12.06567038 89.41015546 12.05789747 91.82654356 12.05419922 94.24365234 C12.04184235 94.94933853 12.02948547 95.65502472 12.01675415 96.38209534 C12.0370772 101.44318305 13.03445609 104.81363974 15.37890625 109.2109375 C18.58270642 111.34680428 19.39830592 111.44225925 23.06640625 111.3359375 C23.87464844 111.31789063 24.68289063 111.29984375 25.515625 111.28125 C26.13050781 111.25804687 26.74539063 111.23484375 27.37890625 111.2109375 C27.37890625 113.5209375 27.37890625 115.8309375 27.37890625 118.2109375 C17.01242182 121.15775541 7.41070354 123.40180936 -2.62109375 118.2109375 C-6.7642854 114.86678995 -7.9282548 111.38557844 -8.62109375 106.2109375 C-9.50410156 106.94699219 -10.38710938 107.68304688 -11.296875 108.44140625 C-24.31118578 119.1055564 -37.285141 125.63581033 -54.62109375 124.2109375 C-66.32422554 122.86574994 -73.96628423 119.2914765 -81.62109375 110.2109375 C-87.99893656 101.11286202 -87.6378711 90.12168876 -86.265625 79.4453125 C-84.15276488 71.56108281 -78.1798525 65.58344334 -71.55078125 61.1640625 C-63.14582641 56.60081556 -54.61597398 54.4852379 -45.27246094 52.71435547 C-41.20691446 51.94242574 -37.15031738 51.12812341 -33.09521484 50.30322266 C-30.98809994 49.87528973 -28.87908284 49.45659149 -26.76806641 49.04833984 C-17.92373888 47.28106331 -17.92373888 47.28106331 -10.62109375 42.2109375 C-9.45611527 30.73725408 -10.48573688 20.2033221 -17.68359375 10.7734375 C-23.40150599 4.84870716 -30.63929514 3.03193039 -38.68359375 2.7734375 C-48.49206929 3.15361097 -58.92272219 6.24551817 -65.8203125 13.53515625 C-67.17911651 15.1350789 -68.50779565 16.76135315 -69.796875 18.41796875 C-71.62109375 20.2109375 -71.62109375 20.2109375 -75.62109375 20.2109375 C-76.45286381 15.20051307 -77.23663408 10.11871459 -75.62109375 5.2109375 C-71.54666115 0.99838854 -66.91080206 -1.37761995 -61.62109375 -3.7890625 C-60.69554687 -4.23765625 -59.77 -4.68625 -58.81640625 -5.1484375 C-56.44285101 -6.19492511 -54.10122548 -7.03333212 -51.62109375 -7.7890625 C-50.91726563 -8.01207031 -50.2134375 -8.23507813 -49.48828125 -8.46484375 C-32.65586693 -12.775584 -13.79865106 -10.80593053 0 0 Z M-26.05859375 57.8984375 C-27.27998047 58.14271484 -28.50136719 58.38699219 -29.75976562 58.63867188 C-41.49226533 61.10505686 -53.17454006 64.16717797 -60.9296875 73.84375 C-64.94454096 80.26195864 -64.48095532 87.94050083 -63.62109375 95.2109375 C-61.65733798 102.41452236 -58.02490804 106.34652377 -51.70703125 110.15234375 C-45.6109632 113.24604121 -38.48963021 113.14162888 -31.92578125 111.5625 C-23.38567029 108.4302336 -15.7514966 102.74621668 -10.62109375 95.2109375 C-9.54504826 90.54764922 -9.48895984 85.94864642 -9.5234375 81.1875 C-9.52555992 80.06823624 -9.52555992 80.06823624 -9.52772522 78.92636108 C-9.53328501 76.56284432 -9.54582986 74.19942523 -9.55859375 71.8359375 C-9.56361395 70.22526179 -9.56817595 68.61458459 -9.57226562 67.00390625 C-9.58324124 63.07287951 -9.60047779 59.14192502 -9.62109375 55.2109375 C-15.18843584 55.2109375 -20.62740638 56.75869628 -26.05859375 57.8984375 Z " fill="#000000" transform="translate(723.62109375,81.7890625)"/>
<path d="M0 0 C1.216875 0.165 2.43375 0.33 3.6875 0.5 C12.85837717 1.51096284 21.86890051 1.1247342 31 0 C30.90912109 1.59521484 30.90912109 1.59521484 30.81640625 3.22265625 C28.61591229 44.13324819 28.3918435 85.17567694 29.4375 126.125 C29.46683624 127.28817749 29.46683624 127.28817749 29.49676514 128.47485352 C29.79724412 139.99619959 30.36187892 151.49237113 31 163 C20.77 163 10.54 163 0 163 C0.16226074 159.24705566 0.32452148 155.49411133 0.49169922 151.62744141 C1.034907 138.06820175 1.14668053 124.529357 1.1328125 110.9609375 C1.13348915 108.5702005 1.13446214 106.17946357 1.13571167 103.78872681 C1.13716886 98.83261445 1.13509696 93.87652036 1.13037109 88.92041016 C1.12464351 82.61147311 1.12798453 76.30257835 1.13394356 69.99364281 C1.13757645 65.07764371 1.13639863 60.16165447 1.13381577 55.24565506 C1.13315566 52.91994852 1.13394231 50.59424105 1.13629532 48.26853561 C1.14528576 36.90353852 1.08845578 25.60184674 0.22018433 14.26602173 C-0.10054804 9.50855836 -0.09086562 4.76539696 0 0 Z " fill="#000000" transform="translate(644,323)"/>
<path d="M0 0 C1.19625 0.165 2.3925 0.33 3.625 0.5 C13.12619095 1.54902739 22.53899324 1.17726246 32 0 C32.31525635 0.92184082 32.6305127 1.84368164 32.95532227 2.79345703 C45.85420384 40.4110939 60.74582778 77.12131332 76.03297424 113.82380676 C76.69354683 115.41242262 77.35129362 117.00221705 78.00592041 118.59329224 C78.71327651 120.30583058 79.4313495 122.01395925 80.15667725 123.71896362 C80.52835022 124.60915192 80.90002319 125.49934021 81.28295898 126.41650391 C81.62383041 127.22181549 81.96470184 128.02712708 82.31590271 128.85684204 C83.3779313 132.1839931 82.54571435 133.93284954 81 137 C80.3904327 138.48371567 79.78965618 139.97105829 79.1953125 141.4609375 C78.50756075 143.09994743 77.81740067 144.73794859 77.125 146.375 C76.61646484 147.59316406 76.61646484 147.59316406 76.09765625 148.8359375 C73.92122868 153.99978087 71.55645252 159.01319801 69 164 C65.53099834 162.26549917 64.80664353 158.07693737 63.4296875 154.61328125 C63.07682678 153.74210663 62.72396606 152.87093201 62.3604126 151.97335815 C61.59517722 150.0825476 60.83293374 148.1905241 60.07330322 146.29745483 C58.0374697 141.22622494 55.97804889 136.16457101 53.921875 131.1015625 C53.2958287 129.55751991 53.2958287 129.55751991 52.65713501 127.98228455 C48.88442549 118.68698003 45.0283302 109.42860771 41.125 100.1875 C40.80725616 99.43456665 40.48951233 98.6816333 40.16213989 97.90588379 C34.83901816 85.29744393 29.47407063 72.70673853 24.11212158 60.11477661 C20.78723494 52.30598529 17.46469332 44.49619669 14.1428833 36.68609619 C13.04509604 34.10598835 11.94623805 31.52633894 10.84716797 28.94677734 C9.25996726 25.22011549 7.67817374 21.49120951 6.10116577 17.76022339 C5.53961627 16.43399532 4.9761993 15.10855622 4.41079712 13.78396606 C3.64908703 11.99872155 2.89462928 10.21038773 2.140625 8.421875 C1.72329102 7.43799805 1.30595703 6.45412109 0.87597656 5.44042969 C0 3 0 3 0 0 Z " fill="#000000" transform="translate(809,323)"/>
<path d="M0 0 C-0.66 7.92 -1.32 15.84 -2 24 C-7 23 -7 23 -9.8125 21.9375 C-16.78932872 19.88549155 -22.62342318 20.75857345 -29 24 C-36.95767794 28.93376032 -40.4427485 37.98138429 -42.58507919 46.81791687 C-43.25379812 50.33473323 -43.26227933 53.77389895 -43.22705078 57.34375 C-43.22734283 58.13495743 -43.22763489 58.92616486 -43.22793579 59.74134827 C-43.2265548 62.32768144 -43.21105231 64.91371785 -43.1953125 67.5 C-43.19157798 69.30460452 -43.18873308 71.10921108 -43.18673706 72.91381836 C-43.17913514 77.64188324 -43.15951651 82.36982342 -43.1373291 87.09783936 C-43.11679623 91.9310945 -43.10771949 96.76436997 -43.09765625 101.59765625 C-43.0762671 111.06516751 -43.04111331 120.53255383 -43 130 C-50.59 130 -58.18 130 -66 130 C-66 87.43 -66 44.86 -66 1 C-61.05 1.33 -56.1 1.66 -51 2 C-48.36 1.67 -45.72 1.34 -43 1 C-43 8.59 -43 16.18 -43 24 C-41.0509375 21.03 -41.0509375 21.03 -39.0625 18 C-31.05634551 6.27314908 -15.57854585 -7.78927293 0 0 Z " fill="#000000" transform="translate(846,73)"/>
<path d="M0 0 C1.7015625 0.12568359 1.7015625 0.12568359 3.4375 0.25390625 C4.95830622 0.35717087 6.47914119 0.46001284 8 0.5625 C8.74378906 0.61857422 9.48757813 0.67464844 10.25390625 0.73242188 C15.33002118 1.06347285 19.97011262 0.77163045 25 0 C24.95456055 0.99676758 24.95456055 0.99676758 24.90820312 2.01367188 C24.00558373 23.02387416 23.875 44.03602291 23.875 65.0625 C23.875 65.76273285 23.875 66.4629657 23.875 67.18441772 C23.87975306 87.80941716 24.14125902 108.39021638 25 129 C16.75 129 8.5 129 0 129 C0.16226074 126.98575928 0.32452148 124.97151855 0.49169922 122.89624023 C1.23143931 112.49356202 1.14454664 102.08341966 1.1328125 91.66015625 C1.13348808 89.52274057 1.13446022 87.38532497 1.13571167 85.24790955 C1.13717699 80.79099793 1.13507207 76.33410651 1.13037109 71.87719727 C1.12467804 66.20803498 1.12795763 60.53892011 1.13394356 54.86975956 C1.13758379 50.46243442 1.13639473 46.05512022 1.13381577 41.64779472 C1.13315586 39.55933056 1.13394155 37.47086536 1.13629532 35.38240242 C1.14671286 23.54423578 0.93260442 11.80538927 0 0 Z " fill="#000000" transform="translate(874,74)"/>
<path d="M0 0 C4.83735148 2.61364524 8.06265925 6.09032151 9.79296875 11.28125 C10.53853708 17.87420421 10.34751503 23.16860645 6.328125 28.62109375 C2.97682449 32.24527369 0.05217977 33.99514904 -4.890625 34.62109375 C-12.13612355 34.8668705 -16.56137486 33.74652073 -21.95703125 28.71875 C-25.48356296 24.09303958 -26.62471087 18.57510324 -25.8984375 12.84765625 C-24.30278198 6.97049025 -21.19266157 3.64504877 -16.20703125 0.28125 C-11.63717529 -2.00367798 -4.77724745 -1.55577616 0 0 Z " fill="#000000" transform="translate(667.20703125,247.71875)"/>
<path d="M0 0 C4.79642058 2.39821029 7.60178971 5.20357942 10 10 C10.81155954 16.39103136 9.77109363 19.80200607 6 25 C2.23119582 28.43626263 -1.65892606 28.51209617 -6.5625 28.3515625 C-11.22526146 27.67904883 -13.85190292 25.30117669 -16.875 21.875 C-18.56610088 17.55329774 -18.6527451 13.57654989 -18 9 C-16.2043281 5.20146328 -14.70383685 3.47988876 -11.25 1.125 C-7.30993459 -0.2388688 -4.11908446 -0.73319703 0 0 Z " fill="#000000" transform="translate(891,14)"/>
</svg>
