<?xml version="1.0" encoding="UTF-8"?>
<svg version="1.1" xmlns="http://www.w3.org/2000/svg" width="1310" height="146">
<path d="M0 0 C20.79 0 41.58 0 63 0 C63 27.72 63 55.44 63 84 C71.91 84 80.82 84 90 84 C90 79.38 90 74.76 90 70 C119.7 70 149.4 70 180 70 C180 65.71 180 61.42 180 57 C150.3 57 120.6 57 90 57 C90 50.4 90 43.8 90 37 C119.7 37 149.4 37 180 37 C180 32.05 180 27.1 180 22 C150.3 22 120.6 22 90 22 C90 14.74 90 7.48 90 0 C140.16 0 190.32 0 242 0 C242 48.18 242 96.36 242 146 C221.54 146 201.08 146 180 146 C179.67 126.86 179.34 107.72 179 88 C175.47183594 91.53976563 171.94367188 95.07953125 168.30859375 98.7265625 C166.0621269 100.97814345 163.81551197 103.2295727 161.56835938 105.48046875 C158.0075742 109.04721401 154.44732747 112.61448477 150.89038086 116.18505859 C148.02022363 119.06614194 145.14757616 121.94472115 142.27324104 124.8216362 C141.18123803 125.91547602 140.09011026 127.01019038 138.99990654 128.10582352 C133.50827211 133.62369801 128.0194853 139.05237623 122 144 C118.7896559 142.47293921 116.66257672 140.88822827 114.171875 138.33203125 C113.45386719 137.60306641 112.73585938 136.87410156 111.99609375 136.12304688 C111.25488281 135.36056641 110.51367188 134.59808594 109.75 133.8125 C103.68373588 127.58527061 103.68373588 127.58527061 97.25 121.74609375 C91.25424854 116.59640944 85.80089594 110.86845248 80.25 105.25 C78.02897142 103.00228095 75.80457429 100.75797327 73.578125 98.515625 C73.07702209 98.00622375 72.57591919 97.49682251 72.05963135 96.97198486 C69.47608659 94.37045083 66.9540326 92.21552445 64 90 C63.67 108.48 63.34 126.96 63 146 C42.21 146 21.42 146 0 146 C0 97.82 0 49.64 0 0 Z " fill="#00973B" transform="translate(0,0)"/>
<path d="M0 0 C4.44739413 -0.07449251 8.8944519 -0.12876257 13.34228516 -0.16479492 C14.85341727 -0.17982543 16.36450618 -0.20025564 17.87548828 -0.22631836 C20.05512187 -0.26295689 22.23417575 -0.27978338 24.4140625 -0.29296875 C25.7232666 -0.3086792 27.0324707 -0.32438965 28.38134766 -0.34057617 C32.2967296 0.02792726 34.67304748 0.94012089 38 3 C43.06497139 9.81151325 42.67593704 17.82481547 42 26 C40.66421571 30.38428211 38.47902912 33.97753638 35 37 C34.34 37 33.68 37 33 37 C33 37.66 33 38.32 33 39 C33.66 39 34.32 39 35 39 C39.1563383 46.813916 42.39833165 54.54500436 45 63 C49.17027761 48.37548048 52.87292753 33.65290162 56.49951172 18.88549805 C57.2206976 15.95287985 57.94606942 13.0213214 58.671875 10.08984375 C58.89164001 9.18902573 59.11140503 8.2882077 59.33782959 7.36009216 C59.54184387 6.53735306 59.74585815 5.71461395 59.95605469 4.86694336 C60.13416687 4.14180038 60.31227905 3.41665741 60.49578857 2.66954041 C61 1 61 1 62 0 C64.69654854 -0.07319621 67.36691458 -0.09242537 70.0625 -0.0625 C70.82111328 -0.05798828 71.57972656 -0.05347656 72.36132812 -0.04882812 C74.24091871 -0.0370068 76.12046899 -0.01907078 78 0 C80.53858938 7.25215184 82.50165428 14.56946016 84.35546875 22.0234375 C84.66196854 23.24656647 84.96846832 24.46969543 85.28425598 25.72988892 C85.92716449 28.29949113 86.56865629 30.86939631 87.20776367 33.43994141 C88.02672935 36.73300884 88.85209704 40.02443295 89.67931652 43.31543541 C90.47062675 46.46724779 91.25656717 49.6203974 92.04296875 52.7734375 C92.48820137 54.54525894 92.48820137 54.54525894 92.94242859 56.35287476 C93.21303604 57.44476105 93.48364349 58.53664734 93.76245117 59.66162109 C94.00211105 60.6226474 94.24177094 61.58367371 94.48869324 62.57382202 C95 65 95 65 95 68 C89.72 68 84.44 68 79 68 C78.34 64.7 77.68 61.4 77 58 C72.05 57.67 67.1 57.34 62 57 C61.855625 58.44375 61.71125 59.8875 61.5625 61.375 C61.125 65.75 61.125 65.75 60 68 C49.77 68 39.54 68 29 68 C24.75 56.1875 24.75 56.1875 23.43652344 52.47338867 C23.08106445 51.5063501 22.72560547 50.53931152 22.359375 49.54296875 C22.00327148 48.55321045 21.64716797 47.56345215 21.28027344 46.54370117 C20.00504763 43.54040465 20.00504763 43.54040465 16 41 C16 49.91 16 58.82 16 68 C13.545625 68.020625 11.09125 68.04125 8.5625 68.0625 C7.78849854 68.071604 7.01449707 68.08070801 6.21704102 68.09008789 C4.47778283 68.09724913 2.73854696 68.05024702 1 68 C0 67 0 67 -0.12025452 64.33616638 C-0.11803391 63.14813919 -0.11581329 61.960112 -0.11352539 60.73608398 C-0.11367142 60.08244873 -0.11381744 59.42881348 -0.1139679 58.75537109 C-0.11326883 56.58557872 -0.10547678 54.41587121 -0.09765625 52.24609375 C-0.09579205 50.74536689 -0.09436816 49.24463943 -0.09336853 47.74391174 C-0.08954352 43.78681774 -0.0797134 39.82976022 -0.06866455 35.87268066 C-0.05845006 31.83765151 -0.05387083 27.80261647 -0.04882812 23.76757812 C-0.03809111 15.84503531 -0.0210149 7.92252219 0 0 Z M16 14 C16 18.29 16 22.58 16 27 C17.44375 26.87625 18.8875 26.7525 20.375 26.625 C21.18710937 26.55539063 21.99921875 26.48578125 22.8359375 26.4140625 C25.20334191 26.17107412 25.20334191 26.17107412 27 24 C27.43293171 19.37692131 27.43293171 19.37692131 26 15.0625 C22.73357754 13.32721307 19.65648548 13.82017285 16 14 Z M69 22 C68.49356447 24.22771342 67.9951038 26.45724076 67.5 28.6875 C67.2215625 29.92886719 66.943125 31.17023437 66.65625 32.44921875 C66.10645874 35.42398218 65.86204295 37.99368602 66 41 C68.64 41 71.28 41 74 41 C73.71512349 38.95737483 73.42177949 36.91592973 73.125 34.875 C72.88136719 33.16957031 72.88136719 33.16957031 72.6328125 31.4296875 C72.02568583 28.13921085 71.13654367 25.14220897 70 22 C69.67 22 69.34 22 69 22 Z " fill="#1A4685" transform="translate(866,12)"/>
<path d="M0 0 C6.6 0 13.2 0 20 0 C21.98 11.22 23.96 22.44 26 34 C27.55927375 25.43026344 27.55927375 25.43026344 29.11083984 16.85913086 C29.30887207 15.78026611 29.5069043 14.70140137 29.7109375 13.58984375 C29.90993652 12.49534912 30.10893555 11.40085449 30.31396484 10.27319336 C31.04004174 6.80895386 32.02762136 3.40332525 33 0 C39.27 0 45.54 0 52 0 C52 22.44 52 44.88 52 68 C48.04 68 44.08 68 40 68 C39.67 55.13 39.34 42.26 39 29 C36.69 41.87 34.38 54.74 32 68 C28.04 68 24.08 68 20 68 C18.02 56.45 16.04 44.9 14 33 C13.67 44.55 13.34 56.1 13 68 C8.71 68 4.42 68 0 68 C0 45.56 0 23.12 0 0 Z " fill="#1A4685" transform="translate(487,12)"/>
<path d="M0 0 C6.6 0 13.2 0 20 0 C20.81316314 4.37487769 21.62555586 8.74989606 22.4375 13.125 C22.66759766 14.3625 22.89769531 15.6 23.13476562 16.875 C23.35712891 18.07382812 23.57949219 19.27265625 23.80859375 20.5078125 C24.01282959 21.60754395 24.21706543 22.70727539 24.42749023 23.84033203 C24.97995256 26.88935866 25.49842898 29.94222968 26 33 C27.94107365 26.83730878 29.00924179 20.61760664 30.0625 14.25 C30.40544078 12.19235534 30.75040116 10.13504596 31.09765625 8.078125 C31.24726807 7.17481445 31.39687988 6.27150391 31.55102539 5.34082031 C32 3 32 3 33 0 C39.27 0 45.54 0 52 0 C52 22.44 52 44.88 52 68 C48.04 68 44.08 68 40 68 C39.67 55.46 39.34 42.92 39 30 C37.06784042 41.3829836 37.06784042 41.3829836 35.14086914 52.7668457 C34.89748606 54.19485625 34.65392706 55.62283684 34.41015625 57.05078125 C34.28572144 57.79114624 34.16128662 58.53151123 34.03308105 59.29431152 C33.51956893 62.29124375 32.96329809 65.11010574 32 68 C28.37 68 24.74 68 21 68 C17.94260383 55.7704153 16.01588193 43.44285744 14 31 C13.67 43.21 13.34 55.42 13 68 C8.71 68 4.42 68 0 68 C0 45.56 0 23.12 0 0 Z " fill="#1A4685" transform="translate(985,12)"/>
<path d="M0 0 C4.95 0 9.9 0 15 0 C19.95 10.89 24.9 21.78 30 33 C30.33 22.11 30.66 11.22 31 0 C35.62 0 40.24 0 45 0 C45 22.44 45 44.88 45 68 C40.05 68 35.1 68 30 68 C25.38 57.77 20.76 47.54 16 37 C15.67 47.23 15.34 57.46 15 68 C10.05 68 5.1 68 0 68 C0 45.56 0 23.12 0 0 Z " fill="#1A4685" transform="translate(1094,12)"/>
<path d="M0 0 C4.62 0 9.24 0 14 0 C14.61875 1.32837891 14.61875 1.32837891 15.25 2.68359375 C19.80983013 12.46686618 24.40017667 22.23546275 29 32 C29.33 21.44 29.66 10.88 30 0 C34.62 0 39.24 0 44 0 C44 22.44 44 44.88 44 68 C39.38 68 34.76 68 30 68 C24.81284981 57.74695768 19.81535403 47.43326706 15 37 C14.67 47.23 14.34 57.46 14 68 C9.38 68 4.76 68 0 68 C0 45.56 0 23.12 0 0 Z " fill="#1A4685" transform="translate(572,12)"/>
<path d="M0 0 C32 0 32 0 38 4 C42.00128394 9.65698764 42.42499102 16.75008981 41.75 23.5 C40.81971037 28.41724519 39.18024933 32.04878114 36 36 C35.01 36.66 34.02 37.32 33 38 C33.36351562 38.44085938 33.72703125 38.88171875 34.1015625 39.3359375 C39.7273436 46.86582912 45 58.41146037 45 68 C39.39 68 33.78 68 28 68 C27.44570312 66.45828125 26.89140625 64.9165625 26.3203125 63.328125 C25.58866965 61.30203711 24.85689177 59.27599798 24.125 57.25 C23.76019531 56.23421875 23.39539062 55.2184375 23.01953125 54.171875 C22.66503906 53.1921875 22.31054688 52.2125 21.9453125 51.203125 C21.62062988 50.30239258 21.29594727 49.40166016 20.96142578 48.47363281 C19.6766555 45.14015541 19.6766555 45.14015541 18 42 C16.515 41.505 16.515 41.505 15 41 C15 49.91 15 58.82 15 68 C10.05 68 5.1 68 0 68 C0 45.56 0 23.12 0 0 Z M15 14 C15 18.29 15 22.58 15 27 C19.86758681 27.32165425 19.86758681 27.32165425 24.375 25.75 C26.25725285 23.72295847 26.83768691 22.75932257 27 20 C26.27587495 17.3140387 26.27587495 17.3140387 25 15 C22.71294169 13.85647084 21.40735238 13.89665561 18.875 13.9375 C16.956875 13.9684375 16.956875 13.9684375 15 14 Z " fill="#1A4685" transform="translate(1221,12)"/>
<path d="M0 0 C4.95 0 9.9 0 15 0 C15 7.59 15 15.18 15 23 C19.95 23 24.9 23 30 23 C30 15.41 30 7.82 30 0 C34.95 0 39.9 0 45 0 C45 22.44 45 44.88 45 68 C40.05 68 35.1 68 30 68 C30 59.09 30 50.18 30 41 C25.05 41 20.1 41 15 41 C15 49.91 15 58.82 15 68 C10.05 68 5.1 68 0 68 C0 45.56 0 23.12 0 0 Z " fill="#1A4685" transform="translate(410,12)"/>
<path d="M0 0 C28 0 28 0 35 4 C42.69753685 11.75149155 43.2867053 24.26551082 43.375 34.5625 C43.26908705 45.62330646 42.15655324 55.82290129 34 64 C23.48991339 71.57703918 14.86084877 68 0 68 C0 45.56 0 23.12 0 0 Z M15 16 C15 27.88 15 39.76 15 52 C23.5191827 52.08525453 23.5191827 52.08525453 26 48.6875 C29.03303413 40.53622078 29.60504587 29.40410923 26.6875 21.125 C25.20697799 17.79958063 25.20697799 17.79958063 22 16 C19.69 16 17.38 16 15 16 Z " fill="#1A4685" transform="translate(624,12)"/>
<path d="M0 0 C28 0 28 0 35 4 C43.01219013 13.34755515 43.5835783 27.23628999 43 39 C42.19367008 48.56076906 40.45635648 57.42937797 33.5625 64.5 C22.6881755 70.86545824 13.84017396 68 0 68 C0 45.56 0 23.12 0 0 Z M15 16 C15 27.88 15 39.76 15 52 C22.18735538 51.61791417 22.18735538 51.61791417 24.875 49.9375 C29.56972459 41.85214098 29.00664908 30.67323559 26.75390625 21.8828125 C25.51460926 18.78778065 23.91164854 17.5219981 21 16 C19.02 16 17.04 16 15 16 Z " fill="#1A4685" transform="translate(1147,12)"/>
<path d="M0 0 C6.34165954 5.84767764 9.42814666 13.97033774 10.05859375 22.43969727 C10.15957911 25.49122227 10.1774978 28.53282859 10.16796875 31.5859375 C10.18408203 32.61074219 10.20019531 33.63554688 10.21679688 34.69140625 C10.2238346 45.76878661 7.78322988 54.00510882 0.48046875 62.4609375 C-4.62767496 66.83934639 -9.87953249 67.16989948 -16.3984375 67.01953125 C-22.18577155 66.3691765 -26.35638948 63.8296407 -30.39453125 59.7109375 C-36.96280574 51.07886092 -37.50686666 42.0697982 -37.58203125 31.5859375 C-37.59218262 30.57281494 -37.60233398 29.55969238 -37.61279297 28.51586914 C-37.49163879 18.03091325 -35.16051174 8.74325161 -28.14453125 0.7109375 C-19.98157064 -5.94444931 -8.51850365 -5.88303845 0 0 Z M-20.14453125 16.7109375 C-22.79145055 21.438883 -22.47621308 26.38110731 -22.45703125 31.6484375 C-22.47314453 32.52951172 -22.48925781 33.41058594 -22.50585938 34.31835938 C-22.50977605 39.54712446 -22.05415268 43.18721951 -19.14453125 47.7109375 C-17.21094881 50.05141204 -17.21094881 50.05141204 -13.76953125 50.1484375 C-10.03204442 50.06927497 -10.03204442 50.06927497 -7.76953125 47.3984375 C-4.66600411 42.26568107 -4.92780034 37.71636963 -4.89453125 31.8984375 C-4.87390625 31.00833984 -4.85328125 30.11824219 -4.83203125 29.20117188 C-4.80077948 23.93134162 -5.18911662 20.26600616 -8.14453125 15.7109375 C-12.87246362 11.2785009 -15.67552816 12.47111405 -20.14453125 16.7109375 Z " fill="#1A4685" transform="translate(709.14453125,14.2890625)"/>
<path d="M0 0 C5.61 0 11.22 0 17 0 C20.73608971 13.1976156 24.18994627 26.44638824 27.50415039 39.75585938 C28.32537773 43.05168206 29.15174805 46.34618823 29.97851562 49.640625 C30.50290669 51.73950777 31.0270066 53.83846332 31.55078125 55.9375 C31.79758133 56.92065186 32.04438141 57.90380371 32.29866028 58.91674805 C32.52277084 59.81949463 32.74688141 60.72224121 32.9777832 61.65234375 C33.17588089 62.44632568 33.37397858 63.24030762 33.57807922 64.05834961 C34 66 34 66 34 68 C28.72 68 23.44 68 18 68 C17.34 64.37 16.68 60.74 16 57 C11.05 57 6.1 57 1 57 C0.34 60.63 -0.32 64.26 -1 68 C-5.95 68 -10.9 68 -16 68 C-15.30840717 60.50297003 -13.47209654 53.37943092 -11.62109375 46.09375 C-11.28580608 44.76007289 -10.95093847 43.4262901 -10.61647034 42.09240723 C-9.74112554 38.6061963 -8.86013426 35.12143709 -7.97790527 31.63696289 C-7.07621493 28.07134485 -6.17994681 24.50436468 -5.28320312 20.9375 C-3.5273986 13.95699727 -1.7651185 6.97815459 0 0 Z M8 21 C6.68 27.6 5.36 34.2 4 41 C6.97 41 9.94 41 13 41 C11.68 34.4 10.36 27.8 9 21 C8.67 21 8.34 21 8 21 Z " fill="#1A4685" transform="translate(1057,12)"/>
<path d="M0 0 C30 0 30 0 36 4 C40.65895738 11.55072403 40.91782897 20.12252644 39.57421875 28.7265625 C38.04555451 34.93500256 35.47230783 38.62955586 30 42 C27 43 27 43 16 43 C16 51.25 16 59.5 16 68 C10.72 68 5.44 68 0 68 C0 45.56 0 23.12 0 0 Z M16 14 C16 18.62 16 23.24 16 28 C21.48916406 28.49301257 21.48916406 28.49301257 23.875 26.9375 C25.66830867 23.84902396 25.42841969 21.48856031 25 18 C23.45714369 15.45668762 23.45714369 15.45668762 21 14 C19.35 14 17.7 14 16 14 Z " fill="#1A4685" transform="translate(286,12)"/>
<path d="M0 0 C4.11210146 4.11210146 6.46150606 9.43121824 8 15 C7.505 16.485 7.505 16.485 7 18 C5.07421875 18.94921875 5.07421875 18.94921875 2.6875 19.6875 C1.90761719 19.93886719 1.12773438 20.19023438 0.32421875 20.44921875 C-2 21 -2 21 -6 21 C-6.37125 19.865625 -6.7425 18.73125 -7.125 17.5625 C-8.44307055 14.48908431 -8.65707847 14.13862785 -11.9375 12.8125 C-15.00231349 12.76020148 -15.00231349 12.76020148 -17.25 14.375 C-21.85999376 21.28999065 -21.82734845 30.5378118 -20.6171875 38.52734375 C-19.84388779 42.31405741 -19.17780511 44.73329233 -17 48 C-13.54250051 48.66676878 -13.54250051 48.66676878 -10 48 C-6.9762061 44.55913108 -6.11651504 40.38017438 -5 36 C-3.01197422 36.70465469 -1.03466272 37.43959698 0.9375 38.1875 C2.03964844 38.59355469 3.14179687 38.99960937 4.27734375 39.41796875 C7 41 7 41 7.9765625 43.33984375 C8.04075277 50.62543925 4.36130359 57.30425302 -0.33984375 62.66015625 C-5.76552185 67.03899763 -12.39575883 66.66128293 -19 66 C-24.22982915 64.70342006 -27.20763607 62.15475469 -30.3125 57.8125 C-38.30727178 44.38649739 -38.43656141 27.96015537 -35 13 C-32.68888438 6.21053582 -29.24781929 0.7279088 -23 -3 C-15.05691447 -6.49235867 -6.65635313 -5.57276076 0 0 Z " fill="#1A4685" transform="translate(782,15)"/>
<path d="M0 0 C14.19 0 28.38 0 43 0 C43 5.61 43 11.22 43 17 C38.38 17 33.76 17 29 17 C29 33.83 29 50.66 29 68 C24.05 68 19.1 68 14 68 C14 51.17 14 34.34 14 17 C9.38 17 4.76 17 0 17 C0 11.39 0 5.78 0 0 Z " fill="#1A4685" transform="translate(818,12)"/>
<path d="M0 0 C14.19 0 28.38 0 43 0 C43 5.61 43 11.22 43 17 C38.38 17 33.76 17 29 17 C29 33.83 29 50.66 29 68 C24.05 68 19.1 68 14 68 C14 51.17 14 34.34 14 17 C9.38 17 4.76 17 0 17 C0 11.39 0 5.78 0 0 Z " fill="#1A4685" transform="translate(329,12)"/>
<path d="M0 0 C4.95 0 9.9 0 15 0 C15 22.44 15 44.88 15 68 C10.05 68 5.1 68 0 68 C0 45.56 0 23.12 0 0 Z " fill="#1A4685" transform="translate(1270,12)"/>
<path d="M0 0 C4.95 0 9.9 0 15 0 C15 22.44 15 44.88 15 68 C10.05 68 5.1 68 0 68 C0 45.56 0 23.12 0 0 Z " fill="#1A4685" transform="translate(1197,12)"/>
<path d="M0 0 C4.95 0 9.9 0 15 0 C15 22.44 15 44.88 15 68 C10.05 68 5.1 68 0 68 C0 45.56 0 23.12 0 0 Z " fill="#1A4685" transform="translate(797,12)"/>
<path d="M0 0 C4.95 0 9.9 0 15 0 C15 22.44 15 44.88 15 68 C10.05 68 5.1 68 0 68 C0 45.56 0 23.12 0 0 Z " fill="#1A4685" transform="translate(548,12)"/>
<path d="M0 0 C4.95 0 9.9 0 15 0 C15 22.44 15 44.88 15 68 C10.05 68 5.1 68 0 68 C0 45.56 0 23.12 0 0 Z " fill="#1A4685" transform="translate(463,12)"/>
<path d="M0 0 C1.32 0 2.64 0 4 0 C4.33 3.96 4.66 7.92 5 12 C5.66 10.68 6.32 9.36 7 8 C9.64 8 12.28 8 15 8 C15 6.35 15 4.7 15 3 C16.65 2.34 18.3 1.68 20 1 C20 3.31 20 5.62 20 8 C20.66 8 21.32 8 22 8 C22 9.65 22 11.3 22 13 C21.34 13 20.68 13 20 13 C20.33 16.63 20.66 20.26 21 24 C21.33 24 21.66 24 22 24 C22 25.98 22 27.96 22 30 C20.02 30 18.04 30 16 30 C14.46733418 26.93466836 14.89723529 23.73245728 14.9375 20.375 C14.94201172 19.66859375 14.94652344 18.9621875 14.95117188 18.234375 C14.96296125 16.48954725 14.98089676 14.744763 15 13 C13.68 13 12.36 13 11 13 C9.56629027 18.34382716 10.71948511 21.07408784 13 26 C13 27.32 13 28.64 13 30 C11.35 30 9.7 30 8 30 C7.01 27.69 6.02 25.38 5 23 C4.67 25.31 4.34 27.62 4 30 C2.68 30 1.36 30 0 30 C0 20.1 0 10.2 0 0 Z " fill="#1A4685" transform="translate(374,105)"/>
<path d="M0 0 C4.40286114 3.59180777 5.42447584 8.55465603 6 14 C6.09188619 20.19721333 4.86354391 24.17057011 1 29 C0 30 0 30 -3.75 30.375 C-7.34657916 30.34271473 -7.92075083 30.06238764 -10.9375 27.6875 C-15.17624142 22.16429149 -14.59061596 15.68577263 -14 9 C-13.00284735 5.85731511 -11.82826391 3.79616834 -10 1 C-6.77813724 -0.61093138 -3.48468316 -0.58769458 0 0 Z M-7.7265625 7.6875 C-9.19207522 10.34879917 -9.40263188 11.97891441 -9.375 15 C-9.38273437 15.845625 -9.39046875 16.69125 -9.3984375 17.5625 C-8.9291142 20.43365432 -7.89489101 21.83441027 -6 24 C-3.52733235 23.65555119 -3.52733235 23.65555119 -1 23 C0.35550385 20.2889923 0.16917207 18.08660831 0.1875 15.0625 C0.20876953 13.47115234 0.20876953 13.47115234 0.23046875 11.84765625 C0.21565067 8.79722331 0.21565067 8.79722331 -2 6 C-5.9256105 5.53401962 -5.9256105 5.53401962 -7.7265625 7.6875 Z " fill="#1A4685" transform="translate(1139,105)"/>
<path d="M0 0 C3.15954305 2.54137159 4.71540886 4.14622659 6 8 C6.14648082 10.26763574 6.2209626 12.54032366 6.25 14.8125 C6.27578125 16.01519531 6.3015625 17.21789062 6.328125 18.45703125 C5.88376059 23.25510883 4.40910484 26.59089516 1 30 C-2.05543769 30.56036019 -4.94301486 30.54394753 -8 30 C-11.59189518 26.67749695 -12.88806101 23.7329016 -13.203125 18.85546875 C-13.21859375 17.64503906 -13.2340625 16.43460938 -13.25 15.1875 C-13.27578125 13.98480469 -13.3015625 12.78210938 -13.328125 11.54296875 C-12.96748706 7.64893771 -12.0633185 5.30227377 -10 2 C-6.24952518 -0.50031654 -4.44143734 -0.53603554 0 0 Z M-6 6 C-7.81643761 9.11389304 -8.2719038 11.40777709 -8.25 15 C-8.25515625 15.845625 -8.2603125 16.69125 -8.265625 17.5625 C-7.98531155 20.13478811 -7.2948187 21.7803108 -6 24 C-3.58380177 24.25030977 -3.58380177 24.25030977 -1 24 C1.30821663 20.53767506 1.27000989 19.08201684 1.25 15 C1.25515625 13.948125 1.2603125 12.89625 1.265625 11.8125 C1.20467017 8.79349621 1.20467017 8.79349621 -1 6 C-3.58380177 5.74969023 -3.58380177 5.74969023 -6 6 Z " fill="#1A4685" transform="translate(594,105)"/>
<path d="M0 0 C1.65 0 3.3 0 5 0 C5.33 2.97 5.66 5.94 6 9 C6.36351562 8.3503125 6.72703125 7.700625 7.1015625 7.03125 C8.61257396 4.52064635 10.08106255 2.21715071 12 0 C15.375 -0.5625 15.375 -0.5625 18 0 C16.89049331 3.14360228 15.86137262 5.16485418 13.6875 7.75 C11.74807529 10.71503275 11.74807529 10.71503275 12.3046875 13.13671875 C13.08194549 15.4965381 13.98303245 17.73350256 15 20 C15.29132813 20.66902344 15.58265625 21.33804688 15.8828125 22.02734375 C16.14835937 22.63707031 16.41390625 23.24679688 16.6875 23.875 C18 27 18 27 18 30 C16.02 30 14.04 30 12 30 C10.68 26.7 9.36 23.4 8 20 C7.34 20 6.68 20 6 20 C5.67 23.3 5.34 26.6 5 30 C3.35 30 1.7 30 0 30 C0 20.1 0 10.2 0 0 Z " fill="#1A4685" transform="translate(287,105)"/>
<path d="M0 0 C3.15954305 2.54137159 4.71540886 4.14622659 6 8 C6.14648082 10.26763574 6.2209626 12.54032366 6.25 14.8125 C6.27578125 16.01519531 6.3015625 17.21789062 6.328125 18.45703125 C5.88376059 23.25510883 4.40910484 26.59089516 1 30 C-2.05543769 30.56036019 -4.94301486 30.54394753 -8 30 C-11.59189518 26.67749695 -12.88806101 23.7329016 -13.203125 18.85546875 C-13.21859375 17.64503906 -13.2340625 16.43460938 -13.25 15.1875 C-13.27578125 13.98480469 -13.3015625 12.78210938 -13.328125 11.54296875 C-12.96748706 7.64893771 -12.0633185 5.30227377 -10 2 C-6.24952518 -0.50031654 -4.44143734 -0.53603554 0 0 Z M-6 6 C-8.30821663 9.46232494 -8.27000989 10.91798316 -8.25 15 C-8.25515625 16.051875 -8.2603125 17.10375 -8.265625 18.1875 C-8.20467017 21.20650379 -8.20467017 21.20650379 -6 24 C-3.5 24.5 -3.5 24.5 -1 24 C1.30821663 20.53767506 1.27000989 19.08201684 1.25 15 C1.25515625 13.948125 1.2603125 12.89625 1.265625 11.8125 C1.20467017 8.79349621 1.20467017 8.79349621 -1 6 C-3.5 5.5 -3.5 5.5 -6 6 Z " fill="#1A4685" transform="translate(781,105)"/>
<path d="M0 0 C1.65 0 3.3 0 5 0 C5 3.63 5 7.26 5 11 C7.31 11 9.62 11 12 11 C12 7.37 12 3.74 12 0 C13.65 0 15.3 0 17 0 C17 9.9 17 19.8 17 30 C15.35 30 13.7 30 12 30 C12 25.71 12 21.42 12 17 C9.69 17 7.38 17 5 17 C5 21.29 5 25.58 5 30 C3.35 30 1.7 30 0 30 C0 20.1 0 10.2 0 0 Z " fill="#1A4685" transform="translate(789,105)"/>
<path d="M0 0 C2.4375 1.6875 2.4375 1.6875 4 4 C4.25 6.75 4.25 6.75 4 9 C2.35 9.33 0.7 9.66 -1 10 C-1.33 9.01 -1.66 8.02 -2 7 C-4.01508358 6.26676204 -4.01508358 6.26676204 -6 6 C-4.89965026 9.19101425 -4.17177711 9.91593886 -1.0625 11.4375 C2.54054399 13.27578775 3.60169013 14.216338 5 18 C5.10253199 21.88254469 5.07024914 25.53251115 2.7265625 28.74609375 C-0.06134374 30.77079489 -2.56586916 30.47237826 -5.90625 30.34765625 C-8 30 -8 30 -10 28.375 C-11.17272366 25.5897813 -11.65951511 22.99626699 -12 20 C-10.35 19.67 -8.7 19.34 -7 19 C-6.67 20.65 -6.34 22.3 -6 24 C-4.35 23.67 -2.7 23.34 -1 23 C-1.03955898 21.07690578 -1.03955898 21.07690578 -2 19 C-3.98246398 17.96567096 -5.98413316 16.96761608 -8 16 C-10.72040925 13.55163168 -11.23365004 11.54435898 -11.4375 8 C-11.30691443 5.08358904 -11.03404282 4.05446851 -9.4375 1.5 C-6.05111671 -0.58392818 -3.90614682 -0.55802097 0 0 Z " fill="#1A4685" transform="translate(857,105)"/>
<path d="M0 0 C2.5624102 0.04583918 3.82502503 0.07582098 6.0625 1.375 C7.51091512 3.93102669 7.80315583 6.35340247 8.125 9.25 C6.475 9.58 4.825 9.91 3.125 10.25 C2.795 8.93 2.465 7.61 2.125 6.25 C0.805 6.58 -0.515 6.91 -1.875 7.25 C-1.875 7.91 -1.875 8.57 -1.875 9.25 C-1.23691406 9.58773437 -0.59882812 9.92546875 0.05859375 10.2734375 C0.88488281 10.71945313 1.71117187 11.16546875 2.5625 11.625 C3.38621094 12.06585938 4.20992187 12.50671875 5.05859375 12.9609375 C7.125 14.25 7.125 14.25 8.125 16.25 C8.29296875 18.2734375 8.29296875 18.2734375 8.3125 20.625 C8.32667969 21.39585938 8.34085938 22.16671875 8.35546875 22.9609375 C8.09904645 25.5077759 7.48125154 27.08951509 6.125 29.25 C2.90947181 30.85776409 -0.39706 30.85485913 -3.875 30.25 C-6.375 28.125 -6.375 28.125 -7.875 25.25 C-8.125 21.9375 -8.125 21.9375 -7.875 19.25 C-6.225 19.58 -4.575 19.91 -2.875 20.25 C-2.545 21.24 -2.215 22.23 -1.875 23.25 C-0.555 23.25 0.765 23.25 2.125 23.25 C2.455 21.93 2.785 20.61 3.125 19.25 C2.2175 19.0025 1.31 18.755 0.375 18.5 C-3.11829704 17.15642422 -4.67948057 16.25867477 -6.875 13.25 C-7.97334318 9.22274169 -8.31780454 7.17586404 -6.5 3.375 C-4.12250499 0.26596806 -4.12250499 0.26596806 0 0 Z " fill="#1A4685" transform="translate(570.875,104.75)"/>
<path d="M0 0 C2.5624102 0.04583918 3.82502503 0.07582098 6.0625 1.375 C7.51091512 3.93102669 7.80315583 6.35340247 8.125 9.25 C6.475 9.58 4.825 9.91 3.125 10.25 C2.795 8.93 2.465 7.61 2.125 6.25 C0.805 6.58 -0.515 6.91 -1.875 7.25 C-1.875 7.91 -1.875 8.57 -1.875 9.25 C-1.23691406 9.58773437 -0.59882813 9.92546875 0.05859375 10.2734375 C0.88488281 10.71945313 1.71117187 11.16546875 2.5625 11.625 C3.38621094 12.06585938 4.20992188 12.50671875 5.05859375 12.9609375 C7.125 14.25 7.125 14.25 8.125 16.25 C8.29296875 18.2734375 8.29296875 18.2734375 8.3125 20.625 C8.32667969 21.39585938 8.34085937 22.16671875 8.35546875 22.9609375 C8.09904645 25.5077759 7.48125154 27.08951509 6.125 29.25 C2.90947181 30.85776409 -0.39706 30.85485913 -3.875 30.25 C-6.375 28.125 -6.375 28.125 -7.875 25.25 C-8.125 21.9375 -8.125 21.9375 -7.875 19.25 C-6.225 19.58 -4.575 19.91 -2.875 20.25 C-2.545 21.24 -2.215 22.23 -1.875 23.25 C-0.555 23.25 0.765 23.25 2.125 23.25 C2.455 21.93 2.785 20.61 3.125 19.25 C2.2175 19.0025 1.31 18.755 0.375 18.5 C-3.11829704 17.15642422 -4.67948057 16.25867477 -6.875 13.25 C-7.97334318 9.22274169 -8.31780454 7.17586404 -6.5 3.375 C-4.12250499 0.26596806 -4.12250499 0.26596806 0 0 Z " fill="#1A4685" transform="translate(440.875,104.75)"/>
<path d="M0 0 C2.53103946 0.07794868 3.78999008 0.15426843 6 1.4375 C7.44841512 3.99352669 7.74065583 6.41590247 8.0625 9.3125 C6.4125 9.6425 4.7625 9.9725 3.0625 10.3125 C2.7325 9.3225 2.4025 8.3325 2.0625 7.3125 C0.7425 7.3125 -0.5775 7.3125 -1.9375 7.3125 C-1.9375 7.9725 -1.9375 8.6325 -1.9375 9.3125 C-1.29941406 9.65023437 -0.66132812 9.98796875 -0.00390625 10.3359375 C0.82238281 10.78195313 1.64867187 11.22796875 2.5 11.6875 C3.32371094 12.12835938 4.14742187 12.56921875 4.99609375 13.0234375 C7.0625 14.3125 7.0625 14.3125 8.0625 16.3125 C8.265625 18.5546875 8.265625 18.5546875 8.3125 21.1875 C8.33828125 22.05117187 8.3640625 22.91484375 8.390625 23.8046875 C7.99096874 26.85920319 7.27208996 28.17623714 5.0625 30.3125 C2.90625 30.80859375 2.90625 30.80859375 0.5625 30.75 C-0.2109375 30.74871094 -0.984375 30.74742187 -1.78125 30.74609375 C-4.44449866 30.21054918 -5.33111174 29.48087548 -6.9375 27.3125 C-7.625 23.625 -7.625 23.625 -7.9375 20.3125 C-6.2875 19.9825 -4.6375 19.6525 -2.9375 19.3125 C-2.6075 20.6325 -2.2775 21.9525 -1.9375 23.3125 C-0.2875 23.6425 1.3625 23.9725 3.0625 24.3125 C3.19065365 21.9272267 3.19065365 21.9272267 2.0625 19.3125 C0.25299507 18.31475821 0.25299507 18.31475821 -1.875 17.5 C-5.64259798 15.83603393 -5.64259798 15.83603393 -6.98046875 13.4609375 C-7.92456892 10.07738386 -8.08106134 7.86281845 -7.1875 4.4375 C-5.01788873 0.74916084 -4.4424299 0.3525738 0 0 Z " fill="#1A4685" transform="translate(1114.9375,104.6875)"/>
<path d="M0 0 C2.53103946 0.07794868 3.78999008 0.15426843 6 1.4375 C7.44841512 3.99352669 7.74065583 6.41590247 8.0625 9.3125 C6.4125 9.6425 4.7625 9.9725 3.0625 10.3125 C2.7325 9.3225 2.4025 8.3325 2.0625 7.3125 C0.7425 7.3125 -0.5775 7.3125 -1.9375 7.3125 C-1.9375 7.9725 -1.9375 8.6325 -1.9375 9.3125 C-1.29941406 9.65023437 -0.66132812 9.98796875 -0.00390625 10.3359375 C0.82238281 10.78195313 1.64867187 11.22796875 2.5 11.6875 C3.32371094 12.12835938 4.14742187 12.56921875 4.99609375 13.0234375 C7.0625 14.3125 7.0625 14.3125 8.0625 16.3125 C8.265625 18.5546875 8.265625 18.5546875 8.3125 21.1875 C8.33828125 22.05117187 8.3640625 22.91484375 8.390625 23.8046875 C7.99096874 26.85920319 7.27208996 28.17623714 5.0625 30.3125 C2.90625 30.80859375 2.90625 30.80859375 0.5625 30.75 C-0.2109375 30.74871094 -0.984375 30.74742187 -1.78125 30.74609375 C-4.44449866 30.21054918 -5.33111174 29.48087548 -6.9375 27.3125 C-7.625 23.625 -7.625 23.625 -7.9375 20.3125 C-6.2875 19.9825 -4.6375 19.6525 -2.9375 19.3125 C-2.6075 20.6325 -2.2775 21.9525 -1.9375 23.3125 C-0.2875 23.6425 1.3625 23.9725 3.0625 24.3125 C3.19065365 21.9272267 3.19065365 21.9272267 2.0625 19.3125 C0.25549681 18.27796712 0.25549681 18.27796712 -1.875 17.4375 C-5.36854239 15.88202691 -5.7966403 15.60505477 -7.5625 11.9375 C-7.96807781 8.01691447 -7.58908942 5.86341725 -5.9375 2.3125 C-3.9375 0.3125 -3.9375 0.3125 0 0 Z " fill="#1A4685" transform="translate(815.9375,104.6875)"/>
<path d="M0 0 C1.65 0 3.3 0 5 0 C7.30553879 5.86188308 9.11235724 11.71655474 10.6875 17.8125 C10.91244141 18.65748047 11.13738281 19.50246094 11.36914062 20.37304688 C13 26.61393427 13 26.61393427 13 30 C11.35 30 9.7 30 8 30 C7.34 27.69 6.68 25.38 6 23 C3.69 23 1.38 23 -1 23 C-1.33 25.31 -1.66 27.62 -2 30 C-3.65 30 -5.3 30 -7 30 C-6.36617071 23.2605493 -4.77702547 17.00449379 -2.9375 10.5 C-2.65583984 9.48679687 -2.37417969 8.47359375 -2.08398438 7.4296875 C-1.39434817 4.95167266 -0.69958811 2.47522 0 0 Z M2 11 C1.67 13.31 1.34 15.62 1 18 C2.32 17.67 3.64 17.34 5 17 C4.34 15.02 3.68 13.04 3 11 C2.67 11 2.34 11 2 11 Z " fill="#1A4685" transform="translate(832,105)"/>
<path d="M0 0 C0.66 0 1.32 0 2 0 C2 2.31 2 4.62 2 7 C2.66 7 3.32 7 4 7 C4 8.65 4 10.3 4 12 C3.34 12 2.68 12 2 12 C2.11470137 13.75070517 2.24219028 15.50057536 2.375 17.25 C2.44460938 18.22453125 2.51421875 19.1990625 2.5859375 20.203125 C2.98747827 22.91541925 3.70527769 24.62107933 5 27 C5 27.66 5 28.32 5 29 C2.69 29 0.38 29 -2 29 C-3.53266582 25.93466836 -3.10276471 22.73245728 -3.0625 19.375 C-3.05798828 18.66859375 -3.05347656 17.9621875 -3.04882812 17.234375 C-3.03703875 15.48954725 -3.01910324 13.744763 -3 12 C-4.65 12.66 -6.3 13.32 -8 14 C-8.33 18.95 -8.66 23.9 -9 29 C-10.65 29 -12.3 29 -14 29 C-14 21.74 -14 14.48 -14 7 C-10.37 7 -6.74 7 -3 7 C-2.67 5.35 -2.34 3.7 -2 2 C-1.34 1.34 -0.68 0.68 0 0 Z " fill="#1A4685" transform="translate(480,106)"/>
<path d="M0 0 C4.95 0 9.9 0 15 0 C15 6.6 15 13.2 15 20 C10.05 20 5.1 20 0 20 C0 13.4 0 6.8 0 0 Z " fill="#1A4685" transform="translate(367,60)"/>
<path d="M0 0 C3.6094177 0.90235443 4.59053906 2.48802845 6.5 5.625 C8.49086744 13.09075289 7.8356176 20.37229271 5.5 27.625 C4.25 29.625 4.25 29.625 2.5 30.625 C-0.5 31.125 -0.5 31.125 -3.5 30.625 C-5.81141604 27.77425356 -6.5 26.3110549 -6.5 22.625 C-4.125 22.5 -4.125 22.5 -1.5 22.625 C-0.84 23.285 -0.18 23.945 0.5 24.625 C0.83 23.305 1.16 21.985 1.5 20.625 C0.736875 20.728125 -0.02625 20.83125 -0.8125 20.9375 C-3.5 20.625 -3.5 20.625 -5.3125 18.75 C-6.99802062 14.31441943 -7.19151616 10.31194288 -6.5 5.625 C-4.66097307 2.21939458 -3.76140277 0.94035069 0 0 Z M-1.5 6.625 C-2.30967438 9.53982778 -2.71845993 11.08613217 -1.5625 13.9375 C-1.211875 14.494375 -0.86125 15.05125 -0.5 15.625 C1.64991567 14.82315586 1.64991567 14.82315586 2.25 12.8125 C2.55694702 10.12671361 1.88111722 8.8997813 0.5 6.625 C-0.16 6.625 -0.82 6.625 -1.5 6.625 Z " fill="#1A4685" transform="translate(615.5,104.375)"/>
<path d="M0 0 C1.75 1.0625 1.75 1.0625 3 3 C3.9726018 7.37670809 3.99059907 10.66612907 3 15 C3.33 15.66 3.66 16.32 4 17 C4.40774279 21.0617455 4.51272329 24.76343207 2.9375 28.5625 C-0.09377511 30.81151056 -2.35057669 30.52134619 -6 30 C-8.12578762 27.8595854 -8.92937698 26.53219493 -9.328125 23.52734375 C-9.30234375 22.67269531 -9.2765625 21.81804687 -9.25 20.9375 C-9.23453125 20.08027344 -9.2190625 19.22304687 -9.203125 18.33984375 C-9 16 -9 16 -8 13 C-8.33 12.34 -8.66 11.68 -9 11 C-8.984375 8.90625 -8.984375 8.90625 -8.75 6.5 C-8.68296875 5.7059375 -8.6159375 4.911875 -8.546875 4.09375 C-7.405518 -0.27601681 -3.88666219 -0.48583277 0 0 Z M-3 5 C-4.29633621 6.06645115 -4.29633621 6.06645115 -4.0625 8.5625 C-4.041875 9.366875 -4.02125 10.17125 -4 11 C-3.01 11 -2.02 11 -1 11 C-1 9.35 -1 7.7 -1 6 C-1.66 5.67 -2.32 5.34 -3 5 Z M-4 17 C-4.33 18.98 -4.66 20.96 -5 23 C-3.515 23.99 -3.515 23.99 -2 25 C-0.80161791 22.67145537 -0.80161791 22.67145537 0 20 C-0.66 19.01 -1.32 18.02 -2 17 C-2.66 17 -3.32 17 -4 17 Z " fill="#1A4685" transform="translate(895,105)"/>
<path d="M0 0 C2.625 0.25 2.625 0.25 4.375 1.5625 C7.37950425 5.61858074 6.84426251 10.2559247 6.875 15.0625 C6.895625 15.85720703 6.91625 16.65191406 6.9375 17.47070312 C6.97083376 22.50826775 6.32563372 25.83659595 3.625 30.25 C1.315 30.25 -0.995 30.25 -3.375 30.25 C-6.37740828 25.23010045 -6.83975201 21.42432167 -6.75 15.75 C-6.76160156 15.01652344 -6.77320313 14.28304687 -6.78515625 13.52734375 C-6.75780418 8.43074047 -6.15132484 0.64750788 0 0 Z M-0.375 6.25 C-1.81888571 7.46428988 -1.81888571 7.46428988 -1.47265625 11.06640625 C-1.46598089 12.64846682 -1.45401875 14.23051159 -1.4375 15.8125 C-1.43298828 16.61880859 -1.42847656 17.42511719 -1.42382812 18.25585938 C-1.41200518 20.25393756 -1.39406914 22.25197783 -1.375 24.25 C-0.385 24.25 0.605 24.25 1.625 24.25 C1.625 18.64 1.625 13.03 1.625 7.25 C0.965 6.92 0.305 6.59 -0.375 6.25 Z " fill="#1A4685" transform="translate(1288.375,104.75)"/>
<path d="M0 0 C1.65 0 3.3 0 5 0 C5 9.9 5 19.8 5 30 C1.37 30 -2.26 30 -6 30 C-9.95830854 26.04169146 -9.92477222 24.57978333 -10.1875 19.0625 C-10.128125 14.50758901 -9.28335841 11.28335841 -6 8 C-3.375 7.875 -3.375 7.875 -1 8 C-0.67 5.36 -0.34 2.72 0 0 Z M-4 13 C-5.12256131 15.24512262 -5.13413762 16.51456649 -5.125 19 C-5.12757812 19.70125 -5.13015625 20.4025 -5.1328125 21.125 C-5.11377236 23.09153775 -5.11377236 23.09153775 -4 25 C-2.68 24.34 -1.36 23.68 0 23 C0.020625 21.72125 0.04125 20.4425 0.0625 19.125 C0.07410156 18.40570313 0.08570313 17.68640625 0.09765625 16.9453125 C0.12649242 14.91814596 0.12649242 14.91814596 -1 13 C-1.99 13 -2.98 13 -4 13 Z " fill="#1A4685" transform="translate(1054,105)"/>
<path d="M0 0 C2.625 0.25 2.625 0.25 4.375 1.5 C7.32653373 5.63214722 6.84140891 10.73749593 6.875 15.625 C6.895625 16.3675 6.91625 17.11 6.9375 17.875 C6.97203414 22.76158146 6.21285966 25.95960109 3.625 30.25 C1.315 30.25 -0.995 30.25 -3.375 30.25 C-6.37740828 25.23010045 -6.83975201 21.42432167 -6.75 15.75 C-6.76160156 15.01652344 -6.77320313 14.28304687 -6.78515625 13.52734375 C-6.75780418 8.43074047 -6.15132484 0.64750788 0 0 Z M-0.375 6.25 C-1.81888571 7.46428988 -1.81888571 7.46428988 -1.47265625 11.06640625 C-1.46598089 12.64846682 -1.45401875 14.23051159 -1.4375 15.8125 C-1.43298828 16.61880859 -1.42847656 17.42511719 -1.42382812 18.25585938 C-1.41200518 20.25393756 -1.39406914 22.25197783 -1.375 24.25 C-0.385 24.25 0.605 24.25 1.625 24.25 C1.625 18.64 1.625 13.03 1.625 7.25 C0.965 6.92 0.305 6.59 -0.375 6.25 Z " fill="#1A4685" transform="translate(714.375,104.75)"/>
<path d="M0 0 C2.625 0.25 2.625 0.25 4.375 1.5625 C7.37950425 5.61858074 6.84426251 10.2559247 6.875 15.0625 C6.895625 15.85720703 6.91625 16.65191406 6.9375 17.47070312 C6.97083376 22.50826775 6.32563372 25.83659595 3.625 30.25 C-1.84612462 30.61474164 -1.84612462 30.61474164 -4.1875 29 C-6.95681752 24.9189005 -6.58998667 20.14556673 -6.625 15.375 C-6.645625 14.68019531 -6.66625 13.98539063 -6.6875 13.26953125 C-6.72347024 8.49448191 -5.84113194 5.32285427 -3.375 1.25 C-2.375 0.25 -2.375 0.25 0 0 Z M-0.375 6.25 C-1.81888571 7.46428988 -1.81888571 7.46428988 -1.47265625 11.06640625 C-1.46598089 12.64846682 -1.45401875 14.23051159 -1.4375 15.8125 C-1.43298828 16.61880859 -1.42847656 17.42511719 -1.42382812 18.25585938 C-1.41200518 20.25393756 -1.39406914 22.25197783 -1.375 24.25 C-0.385 24.25 0.605 24.25 1.625 24.25 C2.52875653 17.92370431 2.52875653 12.57629569 1.625 6.25 C0.965 6.25 0.305 6.25 -0.375 6.25 Z " fill="#1A4685" transform="translate(1273.375,104.75)"/>
<path d="M0 0 C2.625 0.3125 2.625 0.3125 4.375 2.125 C6.83058825 6.42227944 6.80816567 10.37639501 6.8125 15.1875 C6.82474609 15.89519531 6.83699219 16.60289063 6.84960938 17.33203125 C6.86108631 21.44077232 6.54740481 24.65655821 4.625 28.3125 C2.625 30.3125 2.625 30.3125 -0.3125 30.75 C-3.375 30.3125 -3.375 30.3125 -5.04296875 28.37890625 C-6.88776634 24.13208482 -6.81311724 20.39200662 -6.75 15.8125 C-6.76740234 14.54986328 -6.76740234 14.54986328 -6.78515625 13.26171875 C-6.76032302 8.00535156 -6.3567799 0.83641841 0 0 Z M-1.375 6.3125 C-2.20788874 12.56557239 -2.41363773 18.08067361 -1.375 24.3125 C-0.385 24.3125 0.605 24.3125 1.625 24.3125 C1.625 18.7025 1.625 13.0925 1.625 7.3125 C0.635 6.9825 -0.355 6.6525 -1.375 6.3125 Z " fill="#1A4685" transform="translate(907.375,104.6875)"/>
<path d="M0 0 C2.9375 0.875 2.9375 0.875 4.25 2.5625 C6.9644158 11.6928077 6.70576753 20.12793341 2.9375 28.875 C1.9375 29.875 1.9375 29.875 -0.9375 30.1875 C-4.0625 29.875 -4.0625 29.875 -5.875 28.125 C-9.43470424 21.38029724 -9.08701133 11.94369473 -7.25 4.6875 C-5.608432 0.79957578 -4.23241212 -0.17275152 0 0 Z M-2.0625 5.875 C-3.5796199 8.90923981 -3.24689257 12.05004794 -3.25 15.375 C-3.26224609 16.06464844 -3.27449219 16.75429687 -3.28710938 17.46484375 C-3.29238695 19.26977494 -3.18434458 21.07417842 -3.0625 22.875 C-2.4025 23.535 -1.7425 24.195 -1.0625 24.875 C1.02353004 21.45325111 1.17911837 18.7828202 1.125 14.8125 C1.11855469 13.76964844 1.11210938 12.72679688 1.10546875 11.65234375 C1.05232965 8.78885392 1.05232965 8.78885392 -0.0625 5.875 C-0.7225 5.875 -1.3825 5.875 -2.0625 5.875 Z " fill="#1A4685" transform="translate(1191.0625,105.125)"/>
<path d="M0 0 C2.9375 0.875 2.9375 0.875 4.07421875 2.51171875 C6.99760623 10.51465733 6.47167704 19.87233567 3.9375 27.875 C1.9375 29.875 1.9375 29.875 -1 30.25 C-4.0625 29.875 -4.0625 29.875 -5.875 28.125 C-9.43470424 21.38029724 -9.08701133 11.94369473 -7.25 4.6875 C-5.608432 0.79957578 -4.23241212 -0.17275152 0 0 Z M-2.0625 5.875 C-3.5796199 8.90923981 -3.24689257 12.05004794 -3.25 15.375 C-3.26224609 16.06464844 -3.27449219 16.75429687 -3.28710938 17.46484375 C-3.29238695 19.26977494 -3.18434458 21.07417842 -3.0625 22.875 C-2.4025 23.535 -1.7425 24.195 -1.0625 24.875 C0.89044291 21.60208382 1.18221499 19.16159202 1.125 15.375 C1.11855469 14.4365625 1.11210938 13.498125 1.10546875 12.53125 C0.95607816 10.16879415 0.60460889 8.13783335 -0.0625 5.875 C-0.7225 5.875 -1.3825 5.875 -2.0625 5.875 Z " fill="#1A4685" transform="translate(1206.0625,105.125)"/>
<path d="M0 0 C3.7008863 8.92177948 4.49504963 17.87403708 1 27 C-1 29 -1 29 -3.9375 29.375 C-7 29 -7 29 -8.8125 27.375 C-12.29995637 20.40008726 -11.9271976 11.23941965 -9.625 3.9375 C-7.68241751 -1.64497191 -5.49754516 -1.07560666 0 0 Z M-5 5 C-6.11221955 8.33665865 -6.20253779 10.98779662 -6.25 14.5 C-6.27578125 15.6446875 -6.3015625 16.789375 -6.328125 17.96875 C-6.27256908 21.00577519 -6.27256908 21.00577519 -4.484375 22.90625 C-3.99453125 23.2671875 -3.5046875 23.628125 -3 24 C-1.82754226 20.48262679 -1.86733715 17.6424868 -1.875 13.9375 C-1.87242187 12.68839844 -1.86984375 11.43929687 -1.8671875 10.15234375 C-1.78051724 7.09799287 -1.78051724 7.09799287 -3 5 C-3.66 5 -4.32 5 -5 5 Z " fill="#1A4685" transform="translate(1010,106)"/>
<path d="M0 0 C3 1.1875 3 1.1875 4.875 4.5 C7.20372379 12.16136348 6.91112244 20.74796488 4 28.1875 C2 30.1875 2 30.1875 -0.9375 30.5625 C-4 30.1875 -4 30.1875 -5.8125 28.5625 C-9.66048167 20.86653666 -8.59655494 11.1138256 -6 3.1875 C-4.20706639 0.22915955 -3.48482168 0.21780136 0 0 Z M-2 6.1875 C-3.06385483 9.37906448 -3.16677982 11.77247476 -3.1875 15.125 C-3.20167969 16.16527344 -3.21585938 17.20554687 -3.23046875 18.27734375 C-3.00392282 21.13796613 -2.47733619 22.76420151 -1 25.1875 C1.3705255 23.25548095 1.3705255 23.25548095 1.23046875 19.78125 C1.22647854 18.41659733 1.21172843 17.0519434 1.1875 15.6875 C1.18685547 14.99785156 1.18621094 14.30820313 1.18554688 13.59765625 C1.20365609 9.76514806 1.20365609 9.76514806 0 6.1875 C-0.66 6.1875 -1.32 6.1875 -2 6.1875 Z " fill="#1A4685" transform="translate(992,104.8125)"/>
<path d="M0 0 C2.625 0.3125 2.625 0.3125 4.375 2.125 C6.83058825 6.42227944 6.80816567 10.37639501 6.8125 15.1875 C6.82474609 15.89519531 6.83699219 16.60289063 6.84960938 17.33203125 C6.86108631 21.44077232 6.54740481 24.65655821 4.625 28.3125 C2.625 30.3125 2.625 30.3125 -0.3125 30.75 C-3.375 30.3125 -3.375 30.3125 -5.04296875 28.37890625 C-6.88776634 24.13208482 -6.81311724 20.39200662 -6.75 15.8125 C-6.76740234 14.54986328 -6.76740234 14.54986328 -6.78515625 13.26171875 C-6.76032302 8.00535156 -6.3567799 0.83641841 0 0 Z M-1.375 6.3125 C-2.46270451 15.35087069 -2.46270451 15.35087069 -1.375 24.3125 C-0.715 24.6425 -0.055 24.9725 0.625 25.3125 C2.21912284 22.12425432 1.72674735 18.68353338 1.6875 15.1875 C1.68298828 14.43339844 1.67847656 13.67929688 1.67382812 12.90234375 C1.66203499 11.03902873 1.64409942 9.17575445 1.625 7.3125 C0.635 6.9825 -0.355 6.6525 -1.375 6.3125 Z " fill="#1A4685" transform="translate(922.375,104.6875)"/>
<path d="M0 0 C2.6875 0.375 2.6875 0.375 4.9375 2.125 C8.96144836 9.59804696 7.91243945 18.11779533 6.35546875 26.1953125 C5.6875 28.375 5.6875 28.375 3.6875 30.375 C0.75 30.75 0.75 30.75 -2.3125 30.375 C-6.95008772 25.73741228 -6.54709318 20.28086607 -6.57006836 14.08349609 C-6.50123962 8.97032709 -6.22064226 1.0087528 0 0 Z M-0.3125 6.375 C-2.35516429 8.41766429 -1.49757944 12.51191434 -1.5 15.3125 C-1.51224609 16.05435547 -1.52449219 16.79621094 -1.53710938 17.56054688 C-1.54238478 19.50013629 -1.43438902 21.4392371 -1.3125 23.375 C-0.6525 24.035 0.0075 24.695 0.6875 25.375 C3.73799905 19.4646581 3.31802246 12.69327453 1.6875 6.375 C1.0275 6.375 0.3675 6.375 -0.3125 6.375 Z " fill="#1A4685" transform="translate(630.3125,104.625)"/>
<path d="M0 0 C2.625 0.25 2.625 0.25 4.375 1.5625 C7.47009912 5.74088382 6.84525808 10.67297106 6.875 15.625 C6.895625 16.47578125 6.91625 17.3265625 6.9375 18.203125 C6.96728238 22.98319733 6.90236853 26.45958547 3.625 30.25 C0.625 30.8125 0.625 30.8125 -2.375 30.25 C-7.01258772 25.61241228 -6.60959318 20.15586607 -6.63256836 13.95849609 C-6.56482212 8.92574407 -6.30230345 0.66340036 0 0 Z M-0.375 6.25 C-2.41766429 8.29266429 -1.56007944 12.38691434 -1.5625 15.1875 C-1.57474609 15.92935547 -1.58699219 16.67121094 -1.59960938 17.43554688 C-1.60488478 19.37513629 -1.49688902 21.3142371 -1.375 23.25 C-0.715 23.91 -0.055 24.57 0.625 25.25 C3.70415998 19.09168004 2.93431587 12.79657937 1.625 6.25 C0.965 6.25 0.305 6.25 -0.375 6.25 Z " fill="#1A4685" transform="translate(645.375,104.75)"/>
<path d="M0 0 C3.63 0 7.26 0 11 0 C11 1.98 11 3.96 11 6 C8.69 6 6.38 6 4 6 C4 6.99 4 7.98 4 9 C4.78375 9.12375 5.5675 9.2475 6.375 9.375 C9 10 9 10 11 12 C12.66187322 18.13518609 11.98657651 22.4863203 9 28 C8 29 8 29 4.625 29.3125 C1 29 1 29 -0.9375 27.3125 C-2.14820847 24.67742863 -2.2389871 22.86784522 -2 20 C2.75 20.75 2.75 20.75 5 23 C6.35618499 21.87465895 6.35618499 21.87465895 6.0625 18.9375 C6.041875 17.968125 6.02125 16.99875 6 16 C5.01 16 4.02 16 3 16 C1.35 16 -0.3 16 -2 16 C-1.34 10.72 -0.68 5.44 0 0 Z " fill="#1A4685" transform="translate(740,106)"/>
<path d="M0 0 C2.69933018 2.12514503 3.50113307 3.81013953 3.9375 7.1875 C4.48240121 13.61104696 1.4381019 17.84284714 -2 23 C-0.02 23.33 1.96 23.66 4 24 C4 25.98 4 27.96 4 30 C-0.62 30 -5.24 30 -10 30 C-9.85883437 23.6475466 -7.22155083 19.86813222 -3.59375 14.74609375 C-1.8641054 11.76584828 -1.35980636 9.40316853 -1 6 C-1.99 6.33 -2.98 6.66 -4 7 C-4.33 7.99 -4.66 8.98 -5 10 C-6.65 10 -8.3 10 -10 10 C-7.70137525 -0.96267191 -7.70137525 -0.96267191 0 0 Z " fill="#1A4685" transform="translate(979,105)"/>
<path d="M0 0 C2.71008441 4.06512662 2.64803057 7.22463187 2 12 C0.52568699 16.02654355 -1.62952611 19.44428916 -4 23 C-2.02 23 -0.04 23 2 23 C2 24.98 2 26.96 2 29 C-2.62 29 -7.24 29 -12 29 C-10.86072971 22.84794043 -8.67180084 18.60937212 -5.33203125 13.34375 C-3.76585801 10.58801996 -3.16638285 8.16127423 -3 5 C-3.99 5 -4.98 5 -6 5 C-6.33 6.32 -6.66 7.64 -7 9 C-8.32 9 -9.64 9 -11 9 C-10.40806045 2.72544081 -10.40806045 2.72544081 -8.875 0 C-5.75687573 -1.66299961 -3.31216241 -0.84309589 0 0 Z " fill="#1A4685" transform="translate(704,106)"/>
<path d="M0 0 C2.86551731 4.29827597 2.84888148 7.95622921 2 13 C0.32799922 16.58216446 -1.703567 19.78772765 -4 23 C-2.02 23 -0.04 23 2 23 C2 24.98 2 26.96 2 29 C-2.62 29 -7.24 29 -12 29 C-11.08873722 23.9880547 -9.91699839 20.5959366 -6.9375 16.4375 C-4.1286487 12.50100766 -3.20454374 9.80677796 -3 5 C-3.99 5 -4.98 5 -6 5 C-6 6.32 -6 7.64 -6 9 C-7.65 9 -9.3 9 -11 9 C-10.40806045 2.72544081 -10.40806045 2.72544081 -8.875 0 C-5.75687573 -1.66299961 -3.31216241 -0.84309589 0 0 Z " fill="#1A4685" transform="translate(1263,106)"/>
<path d="M0 0 C1.65 0 3.3 0 5 0 C5.1979005 3.87454177 5.3814709 7.7496362 5.5625 11.625 C5.61857422 12.71941406 5.67464844 13.81382813 5.73242188 14.94140625 C5.78076172 16.00488281 5.82910156 17.06835938 5.87890625 18.1640625 C5.9260376 19.13811035 5.97316895 20.1121582 6.02172852 21.11572266 C5.99868166 24.17499807 5.57784025 26.9999001 5 30 C3.35 30 1.7 30 0 30 C0 28.02 0 26.04 0 24 C-2.64 24 -5.28 24 -8 24 C-8.61490712 18.06230314 -6.46885408 13.85463348 -4 8.625 C-3.6184375 7.79355469 -3.236875 6.96210937 -2.84375 6.10546875 C-1.90580424 4.06543673 -0.95776115 2.03078477 0 0 Z M-1 13 C-1.66 14.65 -2.32 16.3 -3 18 C-2.01 18 -1.02 18 0 18 C0 16.35 0 14.7 0 13 C-0.33 13 -0.66 13 -1 13 Z " fill="#1A4685" transform="translate(1304,105)"/>
<path d="M0 0 C1.32 0 2.64 0 4 0 C4 5.94 4 11.88 4 18 C4.66 18 5.32 18 6 18 C6 19.98 6 21.96 6 24 C5.34 24 4.68 24 4 24 C4 25.98 4 27.96 4 30 C2.35 30 0.7 30 -1 30 C-1 28.02 -1 26.04 -1 24 C-3.31 24 -5.62 24 -8 24 C-8.48050516 17.33299089 -7.18360604 13.30792995 -4 7.5 C-3.6184375 6.77296875 -3.236875 6.0459375 -2.84375 5.296875 C-1.91039861 3.52350735 -0.95721897 1.76059918 0 0 Z M-2 14 C-2.33 15.32 -2.66 16.64 -3 18 C-2.34 18 -1.68 18 -1 18 C-1.33 16.68 -1.66 15.36 -2 14 Z " fill="#1A4685" transform="translate(1176,105)"/>
<path d="M0 0 C1.32 0 2.64 0 4 0 C4.33 3.96 4.66 7.92 5 12 C5.66 10.68 6.32 9.36 7 8 C8.98 8 10.96 8 13 8 C12.690625 8.70125 12.38125 9.4025 12.0625 10.125 C9.87857577 16.03444203 9.8009804 19.46680297 12.30859375 25.16796875 C13 27 13 27 13 30 C11.35 30 9.7 30 8 30 C7.01 27.69 6.02 25.38 5 23 C4.67 25.31 4.34 27.62 4 30 C2.68 30 1.36 30 0 30 C0 20.1 0 10.2 0 0 Z " fill="#1A4685" transform="translate(510,105)"/>
<path d="M0 0 C9.1796875 -0.29296875 9.1796875 -0.29296875 12 0 C14.10209857 3.15314785 14.2434761 3.86103081 14.1953125 7.44921875 C14.18564453 8.72055664 14.18564453 8.72055664 14.17578125 10.01757812 C14.15902344 10.89865234 14.14226562 11.77972656 14.125 12.6875 C14.11597656 13.58017578 14.10695313 14.47285156 14.09765625 15.39257812 C14.07409748 17.59532314 14.04120329 19.79752588 14 22 C12.35 22 10.7 22 9 22 C8.95101563 20.85660156 8.90203125 19.71320313 8.8515625 18.53515625 C8.77654811 17.04424527 8.70099972 15.55336108 8.625 14.0625 C8.57859375 12.93038086 8.57859375 12.93038086 8.53125 11.77539062 C8.4273685 9.84492605 8.22104386 7.92057919 8 6 C7.34 5.67 6.68 5.34 6 5 C5.67 10.61 5.34 16.22 5 22 C3.35 22 1.7 22 0 22 C0 14.74 0 7.48 0 0 Z " fill="#1A4685" transform="translate(1076,113)"/>
<path d="M0 0 C0.70125 -0.01675781 1.4025 -0.03351563 2.125 -0.05078125 C2.74375 0.06910156 3.3625 0.18898438 4 0.3125 C6.05127844 3.38941766 6.27260872 4.24894999 6.4140625 7.76171875 C6.45273437 8.60927734 6.49140625 9.45683594 6.53125 10.33007812 C6.5621875 11.21115234 6.593125 12.09222656 6.625 13 C6.66367187 13.89267578 6.70234375 14.78535156 6.7421875 15.70507812 C6.83640218 17.9073462 6.92201588 20.10960722 7 22.3125 C5.04196493 22.36639087 3.08351091 22.40524217 1.125 22.4375 C-0.51082031 22.47230469 -0.51082031 22.47230469 -2.1796875 22.5078125 C-5 22.3125 -5 22.3125 -7 20.3125 C-7.56213018 13.22965976 -7.56213018 13.22965976 -5.8125 10.375 C-3.57501375 9.06337013 -1.55687669 8.65802388 1 8.3125 C1 7.3225 1 6.3325 1 5.3125 C0.01 5.3125 -0.98 5.3125 -2 5.3125 C-2 5.9725 -2 6.6325 -2 7.3125 C-3.65 7.3125 -5.3 7.3125 -7 7.3125 C-6.21116524 2.31654654 -5.34468357 0.02947436 0 0 Z M-1 13.3125 C-1.99 14.7975 -1.99 14.7975 -3 16.3125 C-1.68 16.6425 -0.36 16.9725 1 17.3125 C1 15.9925 1 14.6725 1 13.3125 C0.34 13.3125 -0.32 13.3125 -1 13.3125 Z " fill="#1A4685" transform="translate(531,112.6875)"/>
<path d="M0 0 C3.625 0.25 3.625 0.25 5.5 1.5625 C8.43667809 5.96751714 8.10332636 11.166769 7.625 16.25 C6.46067931 18.73050929 5.53074048 20.34425952 3.625 22.25 C-2.70514354 22.71889952 -2.70514354 22.71889952 -5.25 20.9375 C-8.18667809 16.53248286 -7.85332636 11.333231 -7.375 6.25 C-4.60131167 0.3408379 -4.60131167 0.3408379 0 0 Z M-0.375 5.25 C-2.70028287 7.57528287 -2.67011025 8.09665898 -2.6875 11.25 C-2.70425781 11.95125 -2.72101563 12.6525 -2.73828125 13.375 C-2.61839844 13.99375 -2.49851562 14.6125 -2.375 15.25 C-0.89 16.24 -0.89 16.24 0.625 17.25 C2.95028287 14.92471713 2.92011025 14.40334102 2.9375 11.25 C2.95425781 10.54875 2.97101563 9.8475 2.98828125 9.125 C2.86839844 8.50625 2.74851562 7.8875 2.625 7.25 C1.635 6.59 0.645 5.93 -0.375 5.25 Z " fill="#1A4685" transform="translate(404.375,112.75)"/>
<path d="M0 0 C0.94552734 0.16242188 0.94552734 0.16242188 1.91015625 0.328125 C3.96143469 3.40504266 4.18276497 4.26457499 4.32421875 7.77734375 C4.36289062 8.62490234 4.4015625 9.47246094 4.44140625 10.34570312 C4.47234375 11.22677734 4.50328125 12.10785156 4.53515625 13.015625 C4.57382812 13.90830078 4.6125 14.80097656 4.65234375 15.72070312 C4.74655843 17.9229712 4.83217213 20.12523222 4.91015625 22.328125 C2.95249344 22.40894594 0.99388897 22.46723278 -0.96484375 22.515625 C-2.60066406 22.56783203 -2.60066406 22.56783203 -4.26953125 22.62109375 C-5.20023437 22.52441406 -6.1309375 22.42773438 -7.08984375 22.328125 C-9.55308444 18.63326397 -9.47976063 16.69519408 -9.08984375 12.328125 C-7.44658801 9.73351067 -6.38724897 9.40420541 -3.40234375 8.640625 C-2.63921875 8.5375 -1.87609375 8.434375 -1.08984375 8.328125 C-1.08984375 7.338125 -1.08984375 6.348125 -1.08984375 5.328125 C-2.07984375 5.328125 -3.06984375 5.328125 -4.08984375 5.328125 C-4.08984375 5.988125 -4.08984375 6.648125 -4.08984375 7.328125 C-5.73984375 7.328125 -7.38984375 7.328125 -9.08984375 7.328125 C-6.83020395 0.24792029 -6.83020395 0.24792029 0 0 Z M-3.08984375 13.328125 C-3.41984375 14.648125 -3.74984375 15.968125 -4.08984375 17.328125 C-3.09984375 17.328125 -2.10984375 17.328125 -1.08984375 17.328125 C-1.08984375 16.008125 -1.08984375 14.688125 -1.08984375 13.328125 C-1.74984375 13.328125 -2.40984375 13.328125 -3.08984375 13.328125 Z " fill="#1A4685" transform="translate(367.08984375,112.671875)"/>
<path d="M0 0 C3.5625 0.375 3.5625 0.375 5.2734375 1.8203125 C7.22909989 5.69607978 6.88016892 9.35278926 6.75 13.625 C6.73646484 14.46546875 6.72292969 15.3059375 6.70898438 16.171875 C6.67373464 18.23985938 6.6199302 20.30751271 6.5625 22.375 C2.8540447 22.6583285 -0.73647299 22.79952957 -4.4375 22.375 C-6.75 20.3125 -6.75 20.3125 -7.4375 17.375 C-6.48867139 11.15490136 -6.48867139 11.15490136 -3.5 8.9375 C-1.4375 8.375 -1.4375 8.375 1.5625 8.375 C1.5625 7.385 1.5625 6.395 1.5625 5.375 C0.69625 5.87 0.69625 5.87 -0.1875 6.375 C-2.4375 7.375 -2.4375 7.375 -6.4375 7.375 C-5.67134292 2.52267185 -5.28909383 0.57699205 0 0 Z M0.5625 12.375 C-0.4275 13.035 -1.4175 13.695 -2.4375 14.375 C-2.1075 15.365 -1.7775 16.355 -1.4375 17.375 C-0.4475 17.045 0.5425 16.715 1.5625 16.375 C1.2325 15.055 0.9025 13.735 0.5625 12.375 Z " fill="#1A4685" transform="translate(1067.4375,112.625)"/>
<path d="M0 0 C3.5 0.6875 3.5 0.6875 5.9375 3.0625 C7.974906 7.78928191 8.29593743 11.61647599 7.5 16.6875 C5.9375 20.3125 5.9375 20.3125 3.5 22.6875 C0 23.375 0 23.375 -3.5 22.6875 C-5.9375 20.9375 -5.9375 20.9375 -7.5 17.6875 C-8.23183023 12.22517954 -8.34940496 7.45426232 -5.9375 2.4375 C-3.5 0.6875 -3.5 0.6875 0 0 Z M-1.5 5.6875 C-2.62256131 7.93262262 -2.63413762 9.20206649 -2.625 11.6875 C-2.62757813 12.38875 -2.63015625 13.09 -2.6328125 13.8125 C-2.61377236 15.77903775 -2.61377236 15.77903775 -1.5 17.6875 C-0.18 17.0275 1.14 16.3675 2.5 15.6875 C2.5 13.0475 2.5 10.4075 2.5 7.6875 C1.18 7.0275 -0.14 6.3675 -1.5 5.6875 Z " fill="#1A4685" transform="translate(313.5,112.3125)"/>
<path d="M0 0 C2.475 0.495 2.475 0.495 5 1 C5.33 0.67 5.66 0.34 6 0 C8.4375 -0.1875 8.4375 -0.1875 11 0 C14.09732871 3.09732871 13.9887814 5.55305094 14.09765625 9.890625 C14.09105099 11.34378224 14.07918727 12.79692356 14.0625 14.25 C14.05798828 14.99507812 14.05347656 15.74015625 14.04882812 16.5078125 C14.03709246 18.3385764 14.0191585 20.16929873 14 22 C12.35 22 10.7 22 9 22 C8.67 16.72 8.34 11.44 8 6 C7.34 6 6.68 6 6 6 C5.67 11.28 5.34 16.56 5 22 C3.35 22 1.7 22 0 22 C0 14.74 0 7.48 0 0 Z " fill="#1A4685" transform="translate(323,113)"/>
<path d="M0 0 C3.5625 0.4375 3.5625 0.4375 5.5 2.4375 C6.88073119 6.33603511 6.7721324 9.31472948 6.5625 13.4375 C3.5925 13.4375 0.6225 13.4375 -2.4375 13.4375 C-2.1075 14.7575 -1.7775 16.0775 -1.4375 17.4375 C-0.4475 17.4375 0.5425 17.4375 1.5625 17.4375 C1.8925 16.4475 2.2225 15.4575 2.5625 14.4375 C3.8825 14.7675 5.2025 15.0975 6.5625 15.4375 C5.8125 20.1875 5.8125 20.1875 3.5625 22.4375 C-2.56552768 23.10601211 -2.56552768 23.10601211 -5.3125 21 C-8.0760088 14.70534106 -7.89047482 8.76359295 -5.4375 2.4375 C-3.4375 0.4375 -3.4375 0.4375 0 0 Z M-1.4375 5.4375 C-1.7675 6.7575 -2.0975 8.0775 -2.4375 9.4375 C-0.7875 9.4375 0.8625 9.4375 2.5625 9.4375 C1.9025 8.1175 1.2425 6.7975 0.5625 5.4375 C-0.0975 5.4375 -0.7575 5.4375 -1.4375 5.4375 Z " fill="#1A4685" transform="translate(457.4375,112.5625)"/>
<path d="M0 0 C0.99773437 0.02320312 1.99546875 0.04640625 3.0234375 0.0703125 C4.52777344 0.09738281 4.52777344 0.09738281 6.0625 0.125 C6.83335937 0.14820312 7.60421875 0.17140625 8.3984375 0.1953125 C8.3984375 2.1753125 8.3984375 4.1553125 8.3984375 6.1953125 C5.7584375 6.1953125 3.1184375 6.1953125 0.3984375 6.1953125 C0.0684375 6.8553125 -0.2615625 7.5153125 -0.6015625 8.1953125 C0.3884375 8.1953125 1.3784375 8.1953125 2.3984375 8.1953125 C2.3984375 9.8453125 2.3984375 11.4953125 2.3984375 13.1953125 C1.4084375 13.1953125 0.4184375 13.1953125 -0.6015625 13.1953125 C-0.6015625 18.8053125 -0.6015625 24.4153125 -0.6015625 30.1953125 C-1.9215625 30.1953125 -3.2415625 30.1953125 -4.6015625 30.1953125 C-4.6015625 24.5853125 -4.6015625 18.9753125 -4.6015625 13.1953125 C-5.2615625 13.1953125 -5.9215625 13.1953125 -6.6015625 13.1953125 C-6.6015625 11.5453125 -6.6015625 9.8953125 -6.6015625 8.1953125 C-5.9415625 8.1953125 -5.2815625 8.1953125 -4.6015625 8.1953125 C-4.6428125 7.2465625 -4.6840625 6.2978125 -4.7265625 5.3203125 C-4.5692482 1.3874549 -4.00308701 0.30053206 0 0 Z " fill="#1A4685" transform="translate(498.6015625,104.8046875)"/>
<path d="M0 0 C4.62 0 9.24 0 14 0 C13.58643824 4.54917933 12.56243868 8.49111533 11.0625 12.8125 C9.21012483 18.15407641 7.9365806 23.42981012 7 29 C5.68 29 4.36 29 3 29 C2.37400798 21.17509977 4.67485871 14.39062767 7 7 C4.69 6.67 2.38 6.34 0 6 C0 4.02 0 2.04 0 0 Z " fill="#1A4685" transform="translate(1014,106)"/>
<path d="M0 0 C1.65 0 3.3 0 5 0 C5 9.9 5 19.8 5 30 C3.35 30 1.7 30 0 30 C-0.33 24.06 -0.66 18.12 -1 12 C-2.32 12.33 -3.64 12.66 -5 13 C-5.25 10.25 -5.25 10.25 -5 7 C-3.0625 4.8125 -3.0625 4.8125 -1 3 C-0.67 2.01 -0.34 1.02 0 0 Z " fill="#1A4685" transform="translate(1219,105)"/>
<path d="M0 0 C1.32 0 2.64 0 4 0 C4 9.9 4 19.8 4 30 C2.35 30 0.7 30 -1 30 C-1.33 24.06 -1.66 18.12 -2 12 C-3.32 12.33 -4.64 12.66 -6 13 C-6.25 10.25 -6.25 10.25 -6 7 C-4.125 4.8125 -4.125 4.8125 -2 3 C-1.34 2.01 -0.68 1.02 0 0 Z " fill="#1A4685" transform="translate(1160,105)"/>
<path d="M0 0 C0 9.9 0 19.8 0 30 C-1.65 30 -3.3 30 -5 30 C-5.33 24.06 -5.66 18.12 -6 12 C-6.99 12.33 -7.98 12.66 -9 13 C-9.62181039 7.90115483 -8.30761454 5.34604295 -5.484375 1.3203125 C-4 0 -4 0 0 0 Z " fill="#1A4685" transform="translate(941,105)"/>
<path d="M0 0 C1.32 0 2.64 0 4 0 C4 9.9 4 19.8 4 30 C2.35 30 0.7 30 -1 30 C-1.33 24.06 -1.66 18.12 -2 12 C-2.99 12.33 -3.98 12.66 -5 13 C-5.35870303 9.14394242 -5.33442938 7.47467396 -3.0625 4.25 C-2.381875 3.5075 -1.70125 2.765 -1 2 C-0.67 1.34 -0.34 0.68 0 0 Z " fill="#1A4685" transform="translate(877,105)"/>
<path d="M0 0 C1.32 0 2.64 0 4 0 C4 9.9 4 19.8 4 30 C2.35 29.67 0.7 29.34 -1 29 C-1.33 23.39 -1.66 17.78 -2 12 C-2.99 12.33 -3.98 12.66 -5 13 C-5.35870303 9.14394242 -5.33442938 7.47467396 -3.0625 4.25 C-2.381875 3.5075 -1.70125 2.765 -1 2 C-0.67 1.34 -0.34 0.68 0 0 Z " fill="#1A4685" transform="translate(729,105)"/>
<path d="M0 0 C0 2.31 0 4.62 0 7 C0.66 7 1.32 7 2 7 C2 8.65 2 10.3 2 12 C1.34 12 0.68 12 0 12 C0.33 15.63 0.66 19.26 1 23 C1.33 23 1.66 23 2 23 C2 24.98 2 26.96 2 29 C0.00045254 29.04254356 -2.00041636 29.04080783 -4 29 C-5 28 -5 28 -5.09765625 24.40234375 C-5.0909822 22.91403133 -5.07902183 21.42573568 -5.0625 19.9375 C-5.05798828 19.17888672 -5.05347656 18.42027344 -5.04882812 17.63867188 C-5.0370068 15.75908129 -5.01907078 13.87953101 -5 12 C-5.66 12 -6.32 12 -7 12 C-7 10.35 -7 8.7 -7 7 C-6.34 7 -5.68 7 -5 7 C-5.061875 6.21625 -5.12375 5.4325 -5.1875 4.625 C-5.125625 3.75875 -5.06375 2.8925 -5 2 C-2 0 -2 0 0 0 Z " fill="#1A4685" transform="translate(545,106)"/>
<path d="M0 0 C0.66 0 1.32 0 2 0 C2 2.31 2 4.62 2 7 C2.99 7 3.98 7 5 7 C5 8.65 5 10.3 5 12 C4.01 12 3.02 12 2 12 C2.33 15.63 2.66 19.26 3 23 C3.66 23 4.32 23 5 23 C5 24.98 5 26.96 5 29 C3.00045254 29.04254356 0.99958364 29.04080783 -1 29 C-2 28 -2 28 -2.09765625 24.40234375 C-2.0909822 22.91403133 -2.07902183 21.42573568 -2.0625 19.9375 C-2.05798828 19.17888672 -2.05347656 18.42027344 -2.04882812 17.63867188 C-2.0370068 15.75908129 -2.01907078 13.87953101 -2 12 C-2.66 12 -3.32 12 -4 12 C-4 10.35 -4 8.7 -4 7 C-3.34 7 -2.68 7 -2 7 C-2.04125 6.21625 -2.0825 5.4325 -2.125 4.625 C-2 2 -2 2 0 0 Z " fill="#1A4685" transform="translate(342,106)"/>
<path d="M0 0 C1.32 0 2.64 0 4 0 C4 9.9 4 19.8 4 30 C2.68 30 1.36 30 0 30 C-0.33 23.73 -0.66 17.46 -1 11 C-2.98 11.99 -2.98 11.99 -5 13 C-5.25 10.25 -5.25 10.25 -5 7 C-3.0625 4.8125 -3.0625 4.8125 -1 3 C-0.67 2.01 -0.34 1.02 0 0 Z " fill="#1A4685" transform="translate(660,105)"/>
<path d="M0 0 C1.65 0 3.3 0 5 0 C5 9.9 5 19.8 5 30 C3.35 30 1.7 30 0 30 C0 20.1 0 10.2 0 0 Z " fill="#1A4685" transform="translate(1100,105)"/>
<path d="M0 0 C1.65 0 3.3 0 5 0 C5 9.9 5 19.8 5 30 C3.35 30 1.7 30 0 30 C0 20.1 0 10.2 0 0 Z " fill="#1A4685" transform="translate(556,105)"/>
<path d="M0 0 C3.3 0 6.6 0 10 0 C9.67 1.98 9.34 3.96 9 6 C8.01 6.33 7.02 6.66 6 7 C5.67 11.95 5.34 16.9 5 22 C3.35 22 1.7 22 0 22 C0 14.74 0 7.48 0 0 Z " fill="#1A4685" transform="translate(348,113)"/>
<path d="M0 0 C3.3 0 6.6 0 10 0 C9.67 1.98 9.34 3.96 9 6 C8.01 6.33 7.02 6.66 6 7 C5.67 11.95 5.34 16.9 5 22 C3.35 22 1.7 22 0 22 C0 14.74 0 7.48 0 0 Z " fill="#1A4685" transform="translate(414,113)"/>
<path d="M0 0 C1.65 0 3.3 0 5 0 C5 7.26 5 14.52 5 22 C3.35 22 1.7 22 0 22 C0 14.74 0 7.48 0 0 Z " fill="#1A4685" transform="translate(502,113)"/>
<path d="M0 0 C1.65 0 3.3 0 5 0 C5 7.26 5 14.52 5 22 C3.35 22 1.7 22 0 22 C0 14.74 0 7.48 0 0 Z " fill="#1A4685" transform="translate(486,113)"/>
<path d="M0 0 C1.65 0 3.3 0 5 0 C5.05416188 1.60379341 5.09286638 3.20811406 5.125 4.8125 C5.14820313 5.70582031 5.17140625 6.59914062 5.1953125 7.51953125 C5 10 5 10 3 13 C2.01 12.67 1.02 12.34 0 12 C0.66 10.35 1.32 8.7 2 7 C1.34 7 0.68 7 0 7 C0 4.69 0 2.38 0 0 Z " fill="#1A4685" transform="translate(753,128)"/>
<path d="M0 0 C2.475 0.495 2.475 0.495 5 1 C4.93999894 2.6260287 4.8512115 4.25101549 4.75 5.875 C4.70359375 6.77992188 4.6571875 7.68484375 4.609375 8.6171875 C4 11 4 11 1.953125 12.3203125 C1.30859375 12.54460937 0.6640625 12.76890625 0 13 C0.185625 12.195625 0.37125 11.39125 0.5625 10.5625 C0.706875 9.716875 0.85125 8.87125 1 8 C0.67 7.67 0.34 7.34 0 7 C-0.04092937 4.66702567 -0.04241723 2.33294775 0 0 Z " fill="#1A4685" transform="translate(1030,128)"/>
<path d="M0 0 C2.64 0 5.28 0 8 0 C8 1.98 8 3.96 8 6 C5.36 6 2.72 6 0 6 C0 4.02 0 2.04 0 0 Z " fill="#1A4685" transform="translate(424,121)"/>
<path d="M0 0 C1.65 0 3.3 0 5 0 C5 2.31 5 4.62 5 7 C3.35 7 1.7 7 0 7 C0 4.69 0 2.38 0 0 Z " fill="#1A4685" transform="translate(1237,128)"/>
<path d="M0 0 C1.65 0 3.3 0 5 0 C5 2.31 5 4.62 5 7 C3.35 7 1.7 7 0 7 C0 4.69 0 2.38 0 0 Z " fill="#1A4685" transform="translate(1237,113)"/>
<path d="M0 0 C1.65 0 3.3 0 5 0 C5 2.31 5 4.62 5 7 C3.35 7 1.7 7 0 7 C0 4.69 0 2.38 0 0 Z " fill="#1A4685" transform="translate(678,113)"/>
<path d="M0 0 C1.32 0 2.64 0 4 0 C4 2.31 4 4.62 4 7 C2.35 7 0.7 7 -1 7 C-1.04254356 5.00045254 -1.04080783 2.99958364 -1 1 C-0.67 0.67 -0.34 0.34 0 0 Z " fill="#1A4685" transform="translate(955,128)"/>
<path d="M0 0 C2.475 0.495 2.475 0.495 5 1 C5 2.98 5 4.96 5 7 C3.35 7 1.7 7 0 7 C0 4.69 0 2.38 0 0 Z " fill="#1A4685" transform="translate(678,128)"/>
<path d="M0 0 C1.65 0 3.3 0 5 0 C5 2.31 5 4.62 5 7 C3.35 6.67 1.7 6.34 0 6 C0 4.02 0 2.04 0 0 Z " fill="#1A4685" transform="translate(954,113)"/>
<path d="M0 0 C1.65 0 3.3 0 5 0 C5 1.98 5 3.96 5 6 C3.35 6 1.7 6 0 6 C0 4.02 0 2.04 0 0 Z " fill="#1A4685" transform="translate(486,105)"/>
</svg>
