<?xml version="1.0" encoding="UTF-8"?>
<svg version="1.1" xmlns="http://www.w3.org/2000/svg" width="300" height="215">
<path d="M0 0 C9.57 0 19.14 0 29 0 C29 26.73 29 53.46 29 81 C63.98 81 98.96 81 135 81 C135 54.27 135 27.54 135 0 C144.57 0 154.14 0 164 0 C164.33 26.4 164.66 52.8 165 80 C174.24 74.39 183.48 68.78 193 63 C204.1875 56.375 204.1875 56.375 209.55078125 53.21875 C216.38711984 49.18995028 223.183777 45.09547416 229.98339844 41.00512695 C235.90593296 37.44609396 241.83829656 33.90491432 247.78515625 30.38671875 C248.45203461 29.99206924 249.11891296 29.59741974 249.80599976 29.19081116 C255.5772114 25.77557129 255.5772114 25.77557129 257.97143555 24.35964966 C265.26623421 20.0429453 272.53822321 15.69503459 279.74609375 11.234375 C280.35551315 10.85735947 280.96493256 10.48034393 281.59281921 10.09190369 C284.46912475 8.31000587 287.34033834 6.52065338 290.20678711 4.72290039 C291.20846924 4.09891357 292.21015137 3.47492676 293.2421875 2.83203125 C294.1172998 2.28264893 294.99241211 1.7332666 295.89404297 1.16723633 C298 0 298 0 300 0 C303.58369058 23.98111803 303.58369058 23.98111803 300 34 C294.79998776 40.87445544 286.54699675 44.08960881 278.81011963 47.40715027 C272.42148645 50.14894283 266.65173259 53.65160245 260.78369141 57.35629272 C257.9133607 59.15935916 255.01162715 60.91043743 252.11328125 62.66796875 C250.9433851 63.38047165 249.7736271 64.09320144 248.60400391 64.80615234 C244.83647754 67.10068029 241.06501357 69.38869113 237.29296875 71.67578125 C236.34086266 72.25319313 236.34086266 72.25319313 235.36952209 72.8422699 C230.39540604 75.85885453 230.39540604 75.85885453 227.96707153 77.33053589 C221.61798332 81.17886466 215.28378183 85.04581534 209 89 C219.06548777 91.39516704 229.17427188 93.49961919 239.31640625 95.5390625 C240.94737872 95.86850071 242.5783137 96.19812458 244.20921326 96.52792358 C248.46019685 97.38716851 252.71157306 98.2444529 256.96307373 99.10113525 C263.7975283 100.47848911 270.6314964 101.8582491 277.46522331 103.23920822 C279.84257315 103.71922637 282.22016937 104.19800923 284.59779358 104.67666626 C286.05161382 104.97011125 287.50542591 105.26359659 288.95922852 105.55712891 C290.22573746 105.81233307 291.4922464 106.06753723 292.7971344 106.33047485 C295.20959569 106.83477435 297.60898004 107.40224501 300 108 C300 117.9 300 127.8 300 138 C284.4723231 135.35646881 269.02364846 132.4800468 253.58984375 129.33984375 C251.43670131 128.90409196 249.28350699 128.46859651 247.13026428 128.03334045 C242.66531498 127.13015465 238.20077439 126.22498679 233.73657227 125.31811523 C228.05231521 124.16340784 222.36736685 123.01214972 216.68215084 121.86217403 C211.19281968 120.75169293 205.70381164 119.6396188 200.21484375 118.52734375 C199.19077864 118.31994001 198.16671352 118.11253628 197.11161613 117.89884758 C186.06070228 115.65946976 175.01950495 113.38991656 164 111 C164 119.91 164 128.82 164 138 C154.43 138 144.86 138 135 138 C135 129.09 135 120.18 135 111 C100.02 111 65.04 111 29 111 C29 119.91 29 128.82 29 138 C19.43 138 9.86 138 0 138 C0 92.46 0 46.92 0 0 Z " fill="#EC1E24" transform="translate(0,16)"/>
<path d="M0 0 C0.33 0 0.66 0 1 0 C1 26.07 1 52.14 1 79 C34.66 79 68.32 79 103 79 C103 52.93 103 26.86 103 0 C103.33 0 103.66 0 104 0 C104 26.4 104 52.8 104 80 C69.68 80 35.36 80 0 80 C0 53.6 0 27.2 0 0 Z " fill="#F3193A" transform="translate(30,16)"/>
<path d="M0 0 C2.31 0 4.62 0 7 0 C7.33 3.3 7.66 6.6 8 10 C8 9.34 8 8.68 8 8 C8 5.33333333 8 2.66666667 8 0 C8.33 0.99 8.66 1.98 9 3 C10.98 3 12.96 3 15 3 C12.8614515 5.1385485 11.86724686 5.42655063 9 6 C10.98 6 12.96 6 15 6 C15 8 15 8 13 10.125 C12.34 10.74375 11.68 11.3625 11 12 C11.825 12.94875 12.65 13.8975 13.5 14.875 C16 17.75 16 17.75 16 20 C13.69 20 11.38 20 9 20 C8.67 19.34 8.34 18.68 8 18 C8 18.66 8 19.32 8 20 C5.36 20 2.72 20 0 20 C0 13.4 0 6.8 0 0 Z " fill="#363F91" transform="translate(187,175)"/>
<path d="M0 0 C3.63 0 7.26 0 11 0 C11 0.66 11 1.32 11 2 C10.34 2 9.68 2 9 2 C9 6.95 9 11.9 9 17 C10.98 17 12.96 17 15 17 C15 12.38 15 7.76 15 3 C14.34 2.67 13.68 2.34 13 2 C13 1.34 13 0.68 13 0 C15.64 0 18.28 0 21 0 C20.67 5.61 20.34 11.22 20 17 C19.67 17 19.34 17 19 17 C19.01160156 16.00097656 19.02320313 15.00195312 19.03515625 13.97265625 C19.04417969 12.68230469 19.05320313 11.39195312 19.0625 10.0625 C19.07410156 8.77472656 19.08570313 7.48695313 19.09765625 6.16015625 C19.36532549 3.13701597 19.36532549 3.13701597 18 2 C18.05220703 3.44632813 18.05220703 3.44632813 18.10546875 4.921875 C18.13253906 6.18515625 18.15960938 7.4484375 18.1875 8.75 C18.23970703 10.62945312 18.23970703 10.62945312 18.29296875 12.546875 C17.98527419 16.17356826 17.70130146 17.59685543 15 20 C12.84375 20.49609375 12.84375 20.49609375 10.5 20.4375 C9.7265625 20.43621094 8.953125 20.43492187 8.15625 20.43359375 C6 20 6 20 4.23046875 18.953125 C2.31460059 15.91206442 2.68614201 12.78248486 2.8125 9.3125 C2.83280273 8.2596582 2.83280273 8.2596582 2.85351562 7.18554688 C2.88879818 5.45670171 2.94260417 3.72825235 3 2 C2.01 2.33 1.02 2.66 0 3 C0 2.01 0 1.02 0 0 Z " fill="#363F91" transform="translate(115,175)"/>
<path d="M0 0 C0.90105469 0.02707031 1.80210937 0.05414063 2.73046875 0.08203125 C3.76107422 0.13423828 3.76107422 0.13423828 4.8125 0.1875 C4.8125 2.4975 4.8125 4.8075 4.8125 7.1875 C4.1525 7.1875 3.4925 7.1875 2.8125 7.1875 C2.4825 5.8675 2.1525 4.5475 1.8125 3.1875 C0.1625 3.1875 -1.4875 3.1875 -3.1875 3.1875 C-3.1875 3.8475 -3.1875 4.5075 -3.1875 5.1875 C-1.90468489 5.96770873 -0.5848631 6.68762762 0.75 7.375 C4.18365806 9.42667157 4.68729893 9.80530725 6 13.8125 C5.8125 17.1875 5.8125 17.1875 4.65625 18.88671875 C2.0816225 20.70314027 0.23974454 20.48493216 -2.875 20.375 C-4.36580078 20.33439453 -4.36580078 20.33439453 -5.88671875 20.29296875 C-6.64597656 20.25816406 -7.40523437 20.22335938 -8.1875 20.1875 C-9.1640625 14.1328125 -9.1640625 14.1328125 -9.1875 12.1875 C-8.5275 11.5275 -7.8675 10.8675 -7.1875 10.1875 C-7.5175 9.8575 -7.8475 9.5275 -8.1875 9.1875 C-8.6521439 3.84409515 -8.6521439 3.84409515 -6.99609375 1.50390625 C-4.56092508 -0.26855993 -2.97812791 -0.11603096 0 0 Z M-6.1875 11.1875 C-5.8575 13.1675 -5.5275 15.1475 -5.1875 17.1875 C-2.2175 17.6825 -2.2175 17.6825 0.8125 18.1875 C0.4825 16.5375 0.1525 14.8875 -0.1875 13.1875 C-2.1675 12.5275 -4.1475 11.8675 -6.1875 11.1875 Z " fill="#353F92" transform="translate(224.1875,174.8125)"/>
<path d="M0 0 C4.62 0 9.24 0 14 0 C14.33 4.62 14.66 9.24 15 14 C5.8203125 14.1953125 5.8203125 14.1953125 3 14 C-0.57386064 10.42613936 0.30970752 4.85208447 0 0 Z M7 2 C6.67 4.97 6.34 7.94 6 11 C6.66 11 7.32 11 8 11 C8 8.03 8 5.06 8 2 C7.67 2 7.34 2 7 2 Z " fill="#353E91" transform="translate(169,181)"/>
<path d="M0 0 C0.33 4.29 0.66 8.58 1 13 C-3.95 13 -8.9 13 -14 13 C-13.67 12.34 -13.34 11.68 -13 11 C-12.9044069 9.33555539 -12.87015355 7.66718037 -12.875 6 C-12.87242188 5.113125 -12.86984375 4.22625 -12.8671875 3.3125 C-12.84872098 0.97323034 -12.84872098 0.97323034 -14 -1 C-12.60669619 -1.2246285 -11.21010791 -1.4289245 -9.8125 -1.625 C-8.64654297 -1.79902344 -8.64654297 -1.79902344 -7.45703125 -1.9765625 C-5 -2 -5 -2 0 0 Z M-7 2 C-7 4.97 -7 7.94 -7 11 C-6.34 11 -5.68 11 -5 11 C-5 8.03 -5 5.06 -5 2 C-5.66 2 -6.32 2 -7 2 Z " fill="#353E92" transform="translate(27,182)"/>
<path d="M0 0 C0.06058594 0.77085937 0.12117187 1.54171875 0.18359375 2.3359375 C0.26738281 3.33882812 0.35117188 4.34171875 0.4375 5.375 C0.51871094 6.37273437 0.59992188 7.37046875 0.68359375 8.3984375 C0.84965626 10.97927613 0.84965626 10.97927613 2 13 C-2.95 13 -7.9 13 -13 13 C-13 8.38 -13 3.76 -13 -1 C-7.74074989 -1.89139832 -4.94552823 -2.26922661 0 0 Z M-7 2 C-7 4.97 -7 7.94 -7 11 C-6.34 11 -5.68 11 -5 11 C-5 8.03 -5 5.06 -5 2 C-5.66 2 -6.32 2 -7 2 Z " fill="#353E92" transform="translate(152,182)"/>
<path d="M0 0 C0.99 0.495 0.99 0.495 2 1 C2.33 26.41 2.66 51.82 3 78 C1.515 78.495 1.515 78.495 0 79 C0 52.93 0 26.86 0 0 Z " fill="#F50006" transform="translate(165,16)"/>
<path d="M0 0 C34.32 0 68.64 0 104 0 C104 8.58 104 17.16 104 26 C103.67 26 103.34 26 103 26 C103 17.75 103 9.5 103 1 C69.34 1 35.68 1 1 1 C1 9.25 1 17.5 1 26 C0.67 26 0.34 26 0 26 C0 17.42 0 8.84 0 0 Z " fill="#F31939" transform="translate(30,128)"/>
<path d="M0 0 C1.98 0 3.96 0 6 0 C6 3.63 6 7.26 6 11 C6.66 11 7.32 11 8 11 C7.67 7.37 7.34 3.74 7 0 C8.98 0 10.96 0 13 0 C13 3.96 13 7.92 13 12 C13.66 12 14.32 12 15 12 C15 12.66 15 13.32 15 14 C13.04196493 14.05389087 11.08351091 14.09274217 9.125 14.125 C8.03445313 14.14820313 6.94390625 14.17140625 5.8203125 14.1953125 C3 14 3 14 1 12 C0.5859375 9.1796875 0.5859375 9.1796875 0.375 5.875 C0.30023438 4.77929688 0.22546875 3.68359375 0.1484375 2.5546875 C0.09945313 1.71164063 0.05046875 0.86859375 0 0 Z " fill="#353F92" transform="translate(261,181)"/>
<path d="M0 0 C0.886875 0.391875 1.77375 0.78375 2.6875 1.1875 C2.6875 4.4875 2.6875 7.7875 2.6875 11.1875 C3.3475 11.1875 4.0075 11.1875 4.6875 11.1875 C4.6875 11.8475 4.6875 12.5075 4.6875 13.1875 C0.62381321 13.96153558 -3.17675173 14.2859702 -7.3125 14.1875 C-7.9725 12.8675 -8.6325 11.5475 -9.3125 10.1875 C-8.6525 9.1975 -7.9925 8.2075 -7.3125 7.1875 C-7.6246764 4.54117713 -7.6246764 4.54117713 -8.3125 2.1875 C-5.09279771 -0.27462528 -4.04623082 -0.99247171 0 0 Z M-4.3125 2.1875 C-3.3225 3.6725 -3.3225 3.6725 -2.3125 5.1875 C-2.3125 4.1975 -2.3125 3.2075 -2.3125 2.1875 C-2.9725 2.1875 -3.6325 2.1875 -4.3125 2.1875 Z M-3.3125 8.1875 C-2.3125 11.1875 -2.3125 11.1875 -2.3125 11.1875 Z " fill="#353E92" transform="translate(74.3125,180.8125)"/>
<path d="M0 0 C4.16943993 0.93599672 5.58410733 1.37616099 8 5 C8.46155369 8.61550392 8.45406883 10.33636094 6.375 13.375 C3.32214079 15.46379841 1.63031776 15.54068562 -2 15 C-4.36002096 13.45377937 -4.90125807 12.2680138 -5.875 9.625 C-6.0389951 6.18110287 -5.05689702 4.71804249 -3 2 C-2.01 1.34 -1.02 0.68 0 0 Z M0 3 C0 6.3 0 9.6 0 13 C0.66 13 1.32 13 2 13 C2 9.7 2 6.4 2 3 C1.34 3 0.68 3 0 3 Z " fill="#353E92" transform="translate(239,180)"/>
<path d="M0 0 C3.3 0 6.6 0 10 0 C10 0.66 10 1.32 10 2 C9.34 2 8.68 2 8 2 C8 7.28 8 12.56 8 18 C8.66 18 9.32 18 10 18 C10 18.66 10 19.32 10 20 C6.7 20 3.4 20 0 20 C0 19.34 0 18.68 0 18 C0.66 18 1.32 18 2 18 C2 12.72 2 7.44 2 2 C1.34 2 0.68 2 0 2 C0 1.34 0 0.68 0 0 Z " fill="#323C90" transform="translate(0,175)"/>
<path d="M0 0 C2.8125 1.4375 2.8125 1.4375 4.8125 4.4375 C5.15995351 7.70356297 5.09623354 9.80327208 3.75 12.8125 C1.8125 14.4375 1.8125 14.4375 -1.6875 14.9375 C-5.1875 14.4375 -5.1875 14.4375 -7.125 12.875 C-8.61541738 9.45580718 -8.71454073 7.12678508 -8.1875 3.4375 C-5.42307705 0.10393114 -4.32667863 -0.76353152 0 0 Z M-2.1875 2.4375 C-3.39311184 3.42017859 -3.39311184 3.42017859 -3.28515625 5.28515625 C-3.27355469 6.01605469 -3.26195312 6.74695313 -3.25 7.5 C-3.229375 8.799375 -3.20875 10.09875 -3.1875 11.4375 C-2.1975 11.9325 -2.1975 11.9325 -1.1875 12.4375 C0.2908226 9.48085481 -0.12717217 6.69520263 -0.1875 3.4375 C-0.8475 3.1075 -1.5075 2.7775 -2.1875 2.4375 Z " fill="#353F93" transform="translate(40.1875,180.5625)"/>
<path d="M0 0 C1.98 0 3.96 0 6 0 C7.54950268 1.54950268 7.21655193 3.09990594 7.31640625 5.25390625 C7.35830078 6.10791016 7.40019531 6.96191406 7.44335938 7.84179688 C7.48267578 8.73962891 7.52199219 9.63746094 7.5625 10.5625 C7.60568359 11.46419922 7.64886719 12.36589844 7.69335938 13.29492188 C7.79978142 15.52978485 7.90179988 17.76476308 8 20 C5.36 20 2.72 20 0 20 C0 13.4 0 6.8 0 0 Z " fill="#353E92" transform="translate(250,175)"/>
<path d="M0 0 C0.928125 0.20625 1.85625 0.4125 2.8125 0.625 C2.8125 2.95833333 2.8125 5.29166667 2.8125 7.625 C2.85375 8.45 2.895 9.275 2.9375 10.125 C2.8125 12.625 2.8125 12.625 0.8125 14.625 C-1.87589385 14.89491906 -4.47891936 14.71237357 -7.1875 14.625 C-7.1875 5.26136364 -7.1875 5.26136364 -6.1875 1.625 C-3.1875 -0.375 -3.1875 -0.375 0 0 Z M-3.1875 2.625 C-2.8575 3.285 -2.5275 3.945 -2.1875 4.625 C-1.5275 4.295 -0.8675 3.965 -0.1875 3.625 C-1.1775 3.295 -2.1675 2.965 -3.1875 2.625 Z M-4.1875 9.625 C-3.8575 10.615 -3.5275 11.605 -3.1875 12.625 C-2.5275 12.625 -1.8675 12.625 -1.1875 12.625 C-1.1875 11.965 -1.1875 11.305 -1.1875 10.625 C-2.1775 10.295 -3.1675 9.965 -4.1875 9.625 Z " fill="#353E92" transform="translate(286.1875,180.375)"/>
<path d="M0 0 C0.99 0.33 1.98 0.66 3 1 C2.67 2.32 2.34 3.64 2 5 C2.99 5 3.98 5 5 5 C5 5.99 5 6.98 5 8 C4.01 8 3.02 8 2 8 C2.33 10.31 2.66 12.62 3 15 C3.66 15 4.32 15 5 15 C4.34 16.32 3.68 17.64 3 19 C2.2575 18.814375 1.515 18.62875 0.75 18.4375 C-1.99177639 18.0013083 -3.39298201 18.24797558 -6 19 C-5.64960134 8.0150021 -5.64960134 8.0150021 -3 3.875 C-2.34 3.25625 -1.68 2.6375 -1 2 C-0.67 1.34 -0.34 0.68 0 0 Z M-4 8 C-4 10.97 -4 13.94 -4 17 C-3.67 17 -3.34 17 -3 17 C-3 14.03 -3 11.06 -3 8 C-3.33 8 -3.66 8 -4 8 Z " fill="#363F91" transform="translate(161,176)"/>
<path d="M0 0 C0.763125 0.20625 1.52625 0.4125 2.3125 0.625 C3.62427829 8.98758661 3.62427829 8.98758661 3.3125 12.625 C1.3125 14.625 1.3125 14.625 -0.6328125 14.8203125 C-2.65104167 14.75520833 -4.66927083 14.69010417 -6.6875 14.625 C-6.6875 5.26136364 -6.6875 5.26136364 -5.6875 1.625 C-2.6875 -0.375 -2.6875 -0.375 0 0 Z M-2.6875 2.625 C-1.6975 4.11 -1.6975 4.11 -0.6875 5.625 C-0.0275 5.295 0.6325 4.965 1.3125 4.625 C-0.0075 3.965 -1.3275 3.305 -2.6875 2.625 Z M-4.6875 8.625 C-4.0275 9.945 -3.3675 11.265 -2.6875 12.625 C-2.0275 12.625 -1.3675 12.625 -0.6875 12.625 C-0.6875 11.965 -0.6875 11.305 -0.6875 10.625 C-2.0075 9.965 -3.3275 9.305 -4.6875 8.625 Z " fill="#353F92" transform="translate(88.6875,180.375)"/>
<path d="M0 0 C2.64 0 5.28 0 8 0 C8.33 1.65 8.66 3.3 9 5 C9 3.35 9 1.7 9 0 C10.65 0 12.3 0 14 0 C12.50829734 4.9723422 10.39542583 9.41845739 8 14 C7.34 14 6.68 14 6 14 C4.99515796 12.04414675 3.99626195 10.08523763 3 8.125 C2.1646875 6.48917969 2.1646875 6.48917969 1.3125 4.8203125 C0 2 0 2 0 0 Z " fill="#363F92" transform="translate(48,181)"/>
<path d="M0 0 C2.31 0 4.62 0 7 0 C7.33 4.62 7.66 9.24 8 14 C5.36 14 2.72 14 0 14 C0 13.34 0 12.68 0 12 C0.66 12 1.32 12 2 12 C1.85831863 10.56208484 1.71148957 9.1246763 1.5625 7.6875 C1.48128906 6.88699219 1.40007812 6.08648437 1.31640625 5.26171875 C1.04734307 2.83912821 1.04734307 2.83912821 0 0 Z " fill="#353E92" transform="translate(95,181)"/>
<path d="M0 0 C2.31 0 4.62 0 7 0 C7.33 4.62 7.66 9.24 8 14 C5.36 14 2.72 14 0 14 C0 13.34 0 12.68 0 12 C0.66 12 1.32 12 2 12 C2 8.7 2 5.4 2 2 C1.34 2 0.68 2 0 2 C0 1.34 0 0.68 0 0 Z " fill="#363F93" transform="translate(292,181)"/>
<path d="M0 0 C8.91 0 17.82 0 27 0 C27.33 0.66 27.66 1.32 28 2 C18.43 2 8.86 2 -1 2 C-0.67 1.34 -0.34 0.68 0 0 Z " fill="#F60006" transform="translate(136,13)"/>
<path d="M0 0 C2.97 0.495 2.97 0.495 6 1 C4.68 1.33 3.36 1.66 2 2 C2 9.59 2 17.18 2 25 C1.34 24.67 0.68 24.34 0 24 C0 16.08 0 8.16 0 0 Z " fill="#F5040E" transform="translate(165,128)"/>
<path d="M0 0 C9.57 0 19.14 0 29 0 C29 0.33 29 0.66 29 1 C19.43 1 9.86 1 0 1 C0 0.67 0 0.34 0 0 Z " fill="#F41837" transform="translate(135,155)"/>
<path d="M0 0 C9.57 0 19.14 0 29 0 C29 0.33 29 0.66 29 1 C19.43 1 9.86 1 0 1 C0 0.67 0 0.34 0 0 Z " fill="#F41939" transform="translate(0,155)"/>
<path d="M0 0 C9.24 0 18.48 0 28 0 C28 0.33 28 0.66 28 1 C18.76 1.33 9.52 1.66 0 2 C0 1.34 0 0.68 0 0 Z " fill="#F60006" transform="translate(0,13)"/>
<path d="M0 0 C0.33 0 0.66 0 1 0 C1 3.96 1 7.92 1 12 C1.66 12 2.32 12 3 12 C3 8.04 3 4.08 3 0 C3.33 0 3.66 0 4 0 C4 4.29 4 8.58 4 13 C2.68 13 1.36 13 0 13 C0 8.71 0 4.42 0 0 Z " fill="#41458B" transform="translate(125,178)"/>
<path d="M0 0 C3.32238501 4.42984668 3.48314281 5.68542913 3 11 C2.01 12.485 2.01 12.485 1 14 C0.34 14 -0.32 14 -1 14 C-0.67 9.38 -0.34 4.76 0 0 Z " fill="#43478B" transform="translate(290,181)"/>
<path d="M0 0 C1.65 0.33 3.3 0.66 5 1 C4.67 2.32 4.34 3.64 4 5 C2.68 5 1.36 5 0 5 C-0.33 4.01 -0.66 3.02 -1 2 C-0.67 1.34 -0.34 0.68 0 0 Z " fill="#353F94" transform="translate(97,175)"/>
<path d="M0 0 C2.475 0.495 2.475 0.495 5 1 C4.67 2.32 4.34 3.64 4 5 C2.68 5 1.36 5 0 5 C0 3.35 0 1.7 0 0 Z " fill="#363F94" transform="translate(294,175)"/>
<path d="M0 0 C0.33 0.66 0.66 1.32 1 2 C1.66 2 2.32 2 3 2 C3.1953125 8.0546875 3.1953125 8.0546875 3 10 C2.34 10.66 1.68 11.32 1 12 C0.67 8.04 0.34 4.08 0 0 Z " fill="#3F438B" transform="translate(28,182)"/>
<path d="M0 0 C0.33 0 0.66 0 1 0 C1 5.28 1 10.56 1 16 C0.34 15.34 -0.32 14.68 -1 14 C-0.9765625 10.7421875 -0.9765625 10.7421875 -0.625 6.875 C-0.51414063 5.59367188 -0.40328125 4.31234375 -0.2890625 2.9921875 C-0.19367188 2.00476563 -0.09828125 1.01734375 0 0 Z " fill="#36398D" transform="translate(249,177)"/>
<path d="M0 0 C6.49850211 0.51553879 12.66226532 1.46667709 19 3 C14.97985339 4.56454159 11.30074319 3.46223974 7.25 2.5625 C6.55261719 2.41490234 5.85523438 2.26730469 5.13671875 2.11523438 C3.4227979 1.75131967 1.71115419 1.37670932 0 1 C0 0.67 0 0.34 0 0 Z " fill="#F50B1E" transform="translate(281,152)"/>
<path d="M0 0 C2 2 2 2 2.1953125 4.8203125 C2.16050781 6.45613281 2.16050781 6.45613281 2.125 8.125 C2.10695313 9.22070312 2.08890625 10.31640625 2.0703125 11.4453125 C2.04710937 12.28835937 2.02390625 13.13140625 2 14 C0 12 0 12 -0.1953125 9.1796875 C-0.17210937 8.08914062 -0.14890625 6.99859375 -0.125 5.875 C-0.10695313 4.77929688 -0.08890625 3.68359375 -0.0703125 2.5546875 C-0.04710937 1.71164063 -0.02390625 0.86859375 0 0 Z " fill="#3F428B" transform="translate(276,181)"/>
<path d="M0 0 C1.52961198 3.05922395 0.50723611 5.67478548 0 9 C-0.03545297 10.66628955 -0.05048188 12.33409803 0 14 C-0.66 13.67 -1.32 13.34 -2 13 C-2.05416188 11.39620659 -2.09286638 9.79188594 -2.125 8.1875 C-2.14820312 7.29417969 -2.17140625 6.40085938 -2.1953125 5.48046875 C-2 3 -2 3 0 0 Z " fill="#3D418C" transform="translate(81,181)"/>
<path d="M0 0 C0.33 0 0.66 0 1 0 C1.05395478 1.62463842 1.09277195 3.24978541 1.125 4.875 C1.14820312 5.77992188 1.17140625 6.68484375 1.1953125 7.6171875 C1 10 1 10 -1 12 C-2.24834144 9.50331711 -1.95155125 8.18670849 -1.625 5.4375 C-1.53476563 4.63183594 -1.44453125 3.82617188 -1.3515625 2.99609375 C-1 1 -1 1 0 0 Z " fill="#40438B" transform="translate(94,183)"/>
<path d="M0 0 C1.72945653 0.14235457 3.45855654 0.28904382 5.1875 0.4375 C6.63189453 0.55931641 6.63189453 0.55931641 8.10546875 0.68359375 C10.78649602 0.97666151 13.3662986 1.42703754 16 2 C16 2.33 16 2.66 16 3 C10.36718401 3.2396943 5.45461169 2.38529821 0 1 C0 0.67 0 0.34 0 0 Z " fill="#F50919" transform="translate(256,147)"/>
<path d="M0 0 C0.33 0 0.66 0 1 0 C2.14819277 5.8685408 1.77313045 11.0885256 1 17 C0.67 17 0.34 17 0 17 C0 11.39 0 5.78 0 0 Z " fill="#41458B" transform="translate(258,176)"/>
<path d="M0 0 C3.63 0 7.26 0 11 0 C11.33 0.66 11.66 1.32 12 2 C8.37 2 4.74 2 1 2 C0.67 1.34 0.34 0.68 0 0 Z " fill="#43478B" transform="translate(14,178)"/>
<path d="M0 0 C5.36891879 0.49869404 10.69235173 1.02227532 16 2 C16 2.33 16 2.66 16 3 C10.36718401 3.2396943 5.45461169 2.38529821 0 1 C0 0.67 0 0.34 0 0 Z " fill="#F50A1A" transform="translate(226,141)"/>
<path d="M0 0 C1.72945653 0.14235457 3.45855654 0.28904382 5.1875 0.4375 C6.63189453 0.55931641 6.63189453 0.55931641 8.10546875 0.68359375 C10.78649602 0.97666151 13.3662986 1.42703754 16 2 C16 2.33 16 2.66 16 3 C14.08268082 2.88544319 12.1661325 2.75793742 10.25 2.625 C9.18265625 2.55539063 8.1153125 2.48578125 7.015625 2.4140625 C4.19793568 2.0271777 2.4169634 1.44313834 0 0 Z " fill="#F50B1D" transform="translate(201,136)"/>
<path d="M0 0 C1.72945653 0.14235457 3.45855654 0.28904382 5.1875 0.4375 C6.63189453 0.55931641 6.63189453 0.55931641 8.10546875 0.68359375 C10.78649602 0.97666151 13.3662986 1.42703754 16 2 C16 2.33 16 2.66 16 3 C14.08268082 2.88544319 12.1661325 2.75793742 10.25 2.625 C9.18265625 2.55539063 8.1153125 2.48578125 7.015625 2.4140625 C4.19793568 2.0271777 2.4169634 1.44313834 0 0 Z " fill="#F50A1A" transform="translate(171,130)"/>
<path d="M0 0 C1.91731918 0.11455681 3.8338675 0.24206258 5.75 0.375 C7.35101563 0.47941406 7.35101563 0.47941406 8.984375 0.5859375 C11.80206432 0.9728223 13.5830366 1.55686166 16 3 C14.27054347 2.85764543 12.54144346 2.71095618 10.8125 2.5625 C9.36810547 2.44068359 9.36810547 2.44068359 7.89453125 2.31640625 C5.21350398 2.02333849 2.6337014 1.57296246 0 1 C0 0.67 0 0.34 0 0 Z " fill="#F50A1A" transform="translate(262,115)"/>
<path d="M0 0 C0.33 0 0.66 0 1 0 C1.33 5.28 1.66 10.56 2 16 C1.34 15.67 0.68 15.34 0 15 C0 10.05 0 5.1 0 0 Z " fill="#42468B" transform="translate(116,178)"/>
<path d="M0 0 C0.33 0 0.66 0 1 0 C1 5.28 1 10.56 1 16 C0.67 16 0.34 16 0 16 C0 10.72 0 5.44 0 0 Z " fill="#41458B" transform="translate(186,177)"/>
<path d="M0 0 C3.63 0 7.26 0 11 0 C7.3558226 2.4294516 5.28758728 2.16179575 1 2 C0.67 1.34 0.34 0.68 0 0 Z " fill="#43478B" transform="translate(139,178)"/>
<path d="M0 0 C5.445 1.485 5.445 1.485 11 3 C11 3.33 11 3.66 11 4 C7.37 3.67 3.74 3.34 0 3 C0 2.01 0 1.02 0 0 Z " fill="#F40B1B" transform="translate(212,103)"/>
<path d="M0 0 C0.33 0 0.66 0 1 0 C1.33 3.96 1.66 7.92 2 12 C1.01 12 0.02 12 -1 12 C-0.67 8.04 -0.34 4.08 0 0 Z " fill="#3E418C" transform="translate(260,183)"/>
<path d="M0 0 C4.62 0 9.24 0 14 0 C14 0.33 14 0.66 14 1 C9.38 1 4.76 1 0 1 C0 0.67 0 0.34 0 0 Z " fill="#383C8D" transform="translate(139,196)"/>
<path d="M0 0 C4.62 0 9.24 0 14 0 C14 0.33 14 0.66 14 1 C9.38 1 4.76 1 0 1 C0 0.67 0 0.34 0 0 Z " fill="#373B8D" transform="translate(14,196)"/>
<path d="M0 0 C0.33 0 0.66 0 1 0 C1 4.62 1 9.24 1 14 C0.67 14 0.34 14 0 14 C0 9.38 0 4.76 0 0 Z " fill="#35388E" transform="translate(9,178)"/>
<path d="M0 0 C0.33 0 0.66 0 1 0 C1 4.62 1 9.24 1 14 C0.67 14 0.34 14 0 14 C0 9.38 0 4.76 0 0 Z " fill="#36388D" transform="translate(0,178)"/>
<path d="M0 0 C0.66 0 1.32 0 2 0 C2 3.63 2 7.26 2 11 C1.67 11 1.34 11 1 11 C0.67 7.37 0.34 3.74 0 0 Z " fill="#43478B" transform="translate(153,182)"/>
<path d="M0 0 C0.33 0.66 0.66 1.32 1 2 C-0.36125 1.9690625 -0.36125 1.9690625 -1.75 1.9375 C-4.42672588 1.9889755 -6.46988052 2.2215017 -9 3 C-6.38997624 -0.48003168 -4.1689578 -0.27793052 0 0 Z " fill="#43478B" transform="translate(75,178)"/>
<path d="M0 0 C2.72869407 0.03287583 5.2966618 0.56397771 8 1 C7.34 1.66 6.68 2.32 6 3 C3.27130593 2.96712417 0.7033382 2.43602229 -2 2 C-1.34 1.34 -0.68 0.68 0 0 Z " fill="#43478B" transform="translate(220,172)"/>
<path d="M0 0 C4.60209225 -0.17700355 6.78370866 -0.10814567 11 2 C7.37 1.67 3.74 1.34 0 1 C0 0.67 0 0.34 0 0 Z " fill="#F50816" transform="translate(237,110)"/>
<path d="M0 0 C0.66 0.33 1.32 0.66 2 1 C-1 3 -1 3 -4.1875 2.625 C-5.115625 2.41875 -6.04375 2.2125 -7 2 C-6.401875 1.855625 -5.80375 1.71125 -5.1875 1.5625 C-3.43849596 1.1127561 -1.71322977 0.57107659 0 0 Z " fill="#3F438B" transform="translate(287,195)"/>
<path d="M0 0 C0.33 0 0.66 0 1 0 C1 3.3 1 6.6 1 10 C0.01 10.495 0.01 10.495 -1 11 C-0.67 7.37 -0.34 3.74 0 0 Z " fill="#40448B" transform="translate(168,183)"/>
<path d="M0 0 C0.33 0 0.66 0 1 0 C1 3.96 1 7.92 1 12 C0.67 12 0.34 12 0 12 C0 8.04 0 4.08 0 0 Z " fill="#41458B" transform="translate(184,181)"/>
<path d="M0 0 C0.33 0 0.66 0 1 0 C1 3.96 1 7.92 1 12 C0.67 12 0.34 12 0 12 C0 8.04 0 4.08 0 0 Z " fill="#41458B" transform="translate(103,181)"/>
<path d="M0 0 C2.31 0 4.62 0 7 0 C6.67 0.66 6.34 1.32 6 2 C4.35 2 2.7 2 1 2 C0.67 1.34 0.34 0.68 0 0 Z " fill="#43478B" transform="translate(48,178)"/>
<path d="M0 0 C2.31 0.66 4.62 1.32 7 2 C4.39417629 2.93065133 3.35801776 3.14917407 0.75 2.0625 C0.1725 1.711875 -0.405 1.36125 -1 1 C-0.67 0.67 -0.34 0.34 0 0 Z " fill="#40448B" transform="translate(218,195)"/>
<path d="M0 0 C3.3 0 6.6 0 10 0 C10 0.33 10 0.66 10 1 C6.7 1 3.4 1 0 1 C0 0.67 0 0.34 0 0 Z " fill="#383B8D" transform="translate(0,196)"/>
<path d="M0 0 C2 3 2 3 1.625 5.6875 C1.41875 6.450625 1.2125 7.21375 1 8 C0.67 8 0.34 8 0 8 C0 5.36 0 2.72 0 0 Z " fill="#43478B" transform="translate(46,184)"/>
<path d="M0 0 C0.33 0 0.66 0 1 0 C1 3.3 1 6.6 1 10 C0.67 10 0.34 10 0 10 C0 6.7 0 3.4 0 0 Z " fill="#35378E" transform="translate(138,183)"/>
<path d="M0 0 C0.66 0 1.32 0 2 0 C2 2.97 2 5.94 2 9 C1.67 9 1.34 9 1 9 C0.67 6.03 0.34 3.06 0 0 Z " fill="#43478B" transform="translate(12,183)"/>
<path d="M0 0 C1.98 0 3.96 0 6 0 C6 0.66 6 1.32 6 2 C3.03 1.505 3.03 1.505 0 1 C0 0.67 0 0.34 0 0 Z " fill="#43478B" transform="translate(268,178)"/>
<path d="M0 0 C1.65 0 3.3 0 5 0 C5.33 0.66 5.66 1.32 6 2 C4.35 2 2.7 2 1 2 C0.67 1.34 0.34 0.68 0 0 Z " fill="#43478B" transform="translate(261,178)"/>
<path d="M0 0 C1.98 0 3.96 0 6 0 C6 0.66 6 1.32 6 2 C3.03 1.505 3.03 1.505 0 1 C0 0.67 0 0.34 0 0 Z " fill="#43478B" transform="translate(169,178)"/>
<path d="M0 0 C3.3 0 6.6 0 10 0 C10 0.33 10 0.66 10 1 C6.7 1 3.4 1 0 1 C0 0.67 0 0.34 0 0 Z " fill="#43478B" transform="translate(116,173)"/>
<path d="M0 0 C3.3 0 6.6 0 10 0 C10 0.33 10 0.66 10 1 C6.7 1 3.4 1 0 1 C0 0.67 0 0.34 0 0 Z " fill="#43478B" transform="translate(0,173)"/>
<path d="M0 0 C2.97 0.33 5.94 0.66 9 1 C9 1.33 9 1.66 9 2 C6.03 1.67 3.06 1.34 0 1 C0 0.67 0 0.34 0 0 Z " fill="#F40F25" transform="translate(272,150)"/>
<path d="M0 0 C2.97 0.33 5.94 0.66 9 1 C9 1.33 9 1.66 9 2 C6.03 1.67 3.06 1.34 0 1 C0 0.67 0 0.34 0 0 Z " fill="#F40F25" transform="translate(217,139)"/>
<path d="M0 0 C2.31 0 4.62 0 7 0 C7.33 0.66 7.66 1.32 8 2 C5.36 1.67 2.72 1.34 0 1 C0 0.67 0 0.34 0 0 Z " fill="#E30E23" transform="translate(292,121)"/>
<path d="M0 0 C2.97 0.33 5.94 0.66 9 1 C9 1.33 9 1.66 9 2 C6.03 1.67 3.06 1.34 0 1 C0 0.67 0 0.34 0 0 Z " fill="#E21633" transform="translate(253,113)"/>
<path d="M0 0 C2.97 0.33 5.94 0.66 9 1 C9 1.33 9 1.66 9 2 C6.03 1.67 3.06 1.34 0 1 C0 0.67 0 0.34 0 0 Z " fill="#F31328" transform="translate(223,107)"/>
<path d="M0 0 C2.475 0.495 2.475 0.495 5 1 C4.67 1.99 4.34 2.98 4 4 C2.68 2.68 1.36 1.36 0 0 Z " fill="#41458B" transform="translate(42,180)"/>
<path d="M0 0 C1.32 0.33 2.64 0.66 4 1 C4 1.66 4 2.32 4 3 C2.68 2.67 1.36 2.34 0 2 C0 1.34 0 0.68 0 0 Z " fill="#3B3F8C" transform="translate(221,178)"/>
<path d="M0 0 C1.65 0 3.3 0 5 0 C5 0.66 5 1.32 5 2 C3.35 1.67 1.7 1.34 0 1 C0 0.67 0 0.34 0 0 Z " fill="#43478B" transform="translate(177,178)"/>
<path d="M0 0 C2.64 0 5.28 0 8 0 C8 0.33 8 0.66 8 1 C5.36 1 2.72 1 0 1 C0 0.67 0 0.34 0 0 Z " fill="#383C8D" transform="translate(267,196)"/>
<path d="M0 0 C2.64 0 5.28 0 8 0 C8 0.33 8 0.66 8 1 C5.36 1 2.72 1 0 1 C0 0.67 0 0.34 0 0 Z " fill="#383B8D" transform="translate(250,196)"/>
<path d="M0 0 C2.64 0 5.28 0 8 0 C8 0.33 8 0.66 8 1 C5.36 1 2.72 1 0 1 C0 0.67 0 0.34 0 0 Z " fill="#383C8D" transform="translate(187,196)"/>
<path d="M0 0 C2.64 0 5.28 0 8 0 C8 0.33 8 0.66 8 1 C5.36 1 2.72 1 0 1 C0 0.67 0 0.34 0 0 Z " fill="#393D8D" transform="translate(95,196)"/>
<path d="M0 0 C2 3.75 2 3.75 2 6 C1.34 6 0.68 6 0 6 C0 4.02 0 2.04 0 0 Z " fill="#373A8D" transform="translate(231,186)"/>
<path d="M0 0 C0.99 0.33 1.98 0.66 3 1 C3 1.66 3 2.32 3 3 C1.68 2.67 0.36 2.34 -1 2 C-0.67 1.34 -0.34 0.68 0 0 Z " fill="#3C408C" transform="translate(221,189)"/>
<path d="M0 0 C0.33 0 0.66 0 1 0 C1 2.64 1 5.28 1 8 C0.67 8 0.34 8 0 8 C0 5.36 0 2.72 0 0 Z " fill="#43478B" transform="translate(213,187)"/>
<path d="M0 0 C0.66 0.33 1.32 0.66 2 1 C1.67 2.65 1.34 4.3 1 6 C-0.0625 4.125 -0.0625 4.125 -1 2 C-0.67 1.34 -0.34 0.68 0 0 Z " fill="#41458B" transform="translate(64,181)"/>
<path d="M0 0 C1.98 0 3.96 0 6 0 C5.67 0.66 5.34 1.32 5 2 C3.35 1.67 1.7 1.34 0 1 C0 0.67 0 0.34 0 0 Z " fill="#43478B" transform="translate(85,178)"/>
<path d="M0 0 C2.31 0 4.62 0 7 0 C7 0.33 7 0.66 7 1 C4.69 1 2.38 1 0 1 C0 0.67 0 0.34 0 0 Z " fill="#373B8D" transform="translate(293,196)"/>
<path d="M0 0 C2.31 0 4.62 0 7 0 C7 0.33 7 0.66 7 1 C4.69 1 2.38 1 0 1 C0 0.67 0 0.34 0 0 Z " fill="#373B8D" transform="translate(196,196)"/>
<path d="M0 0 C1.65 0 3.3 0 5 0 C5.33 0.66 5.66 1.32 6 2 C3.03 1.505 3.03 1.505 0 1 C0 0.67 0 0.34 0 0 Z " fill="#43478B" transform="translate(238,178)"/>
<path d="M0 0 C0.33 0 0.66 0 1 0 C1 2.31 1 4.62 1 7 C0.67 7 0.34 7 0 7 C0 4.69 0 2.38 0 0 Z " fill="#393D8D" transform="translate(230,175)"/>
<path d="M0 0 C1.65 0 3.3 0 5 0 C5.33 0.66 5.66 1.32 6 2 C3.03 1.505 3.03 1.505 0 1 C0 0.67 0 0.34 0 0 Z " fill="#43478B" transform="translate(36,178)"/>
<path d="M0 0 C0.33 0.99 0.66 1.98 1 3 C0.67 3.66 0.34 4.32 0 5 C-0.5625 3.0625 -0.5625 3.0625 -1 1 C-0.67 0.67 -0.34 0.34 0 0 Z " fill="#43478B" transform="translate(292,175)"/>
<path d="M0 0 C1.32 0.66 2.64 1.32 4 2 C2.35 2 0.7 2 -1 2 C-0.67 1.34 -0.34 0.68 0 0 Z " fill="#43478B" transform="translate(295,172)"/>
<path d="M0 0 C0.66 0.33 1.32 0.66 2 1 C0.35 1.66 -1.3 2.32 -3 3 C-2.01 2.01 -1.02 1.02 0 0 Z " fill="#F50B1C" transform="translate(214,64)"/>
<path d="M0 0 C2.475 0.495 2.475 0.495 5 1 C4.01 1.495 4.01 1.495 3 2 C2.01 1.34 1.02 0.68 0 0 Z " fill="#3E418C" transform="translate(83,196)"/>
<path d="M0 0 C0.99 0.33 1.98 0.66 3 1 C1.35 1.33 -0.3 1.66 -2 2 C-1.34 1.34 -0.68 0.68 0 0 Z " fill="#40448B" transform="translate(241,196)"/>
<path d="M0 0 C1.98 0 3.96 0 6 0 C6 0.33 6 0.66 6 1 C4.02 1 2.04 1 0 1 C0 0.67 0 0.34 0 0 Z " fill="#383C8D" transform="translate(178,196)"/>
<path d="M0 0 C0.99 0.33 1.98 0.66 3 1 C1.35 1.33 -0.3 1.66 -2 2 C-1.34 1.34 -0.68 0.68 0 0 Z " fill="#40448B" transform="translate(39,196)"/>
<path d="M0 0 C0.66 0.66 1.32 1.32 2 2 C1.67 2.99 1.34 3.98 1 5 C0.67 3.35 0.34 1.7 0 0 Z " fill="#40448B" transform="translate(49,187)"/>
<path d="M0 0 C0.66 0 1.32 0 2 0 C2 1.65 2 3.3 2 5 C0 1.125 0 1.125 0 0 Z " fill="#3E418C" transform="translate(164,185)"/>
<path d="M0 0 C0.33 0.99 0.66 1.98 1 3 C0.34 3.66 -0.32 4.32 -1 5 C-0.67 3.35 -0.34 1.7 0 0 Z " fill="#3C408C" transform="translate(61,185)"/>
<path d="M0 0 C0.33 0.99 0.66 1.98 1 3 C0.34 3.66 -0.32 4.32 -1 5 C-0.67 3.35 -0.34 1.7 0 0 Z " fill="#40448B" transform="translate(214,177)"/>
<path d="M0 0 C2.475 0.495 2.475 0.495 5 1 C4.01 1.495 4.01 1.495 3 2 C2.01 1.34 1.02 0.68 0 0 Z " fill="#43478B" transform="translate(282,178)"/>
<path d="M0 0 C1.32 0.33 2.64 0.66 4 1 C2.68 1 1.36 1 0 1 C0 0.67 0 0.34 0 0 Z " fill="#43478B" transform="translate(58,178)"/>
<path d="M0 0 C1.98 0 3.96 0 6 0 C6 0.33 6 0.66 6 1 C4.02 1 2.04 1 0 1 C0 0.67 0 0.34 0 0 Z " fill="#43478B" transform="translate(129,173)"/>
<path d="M0 0 C0.99 0.33 1.98 0.66 3 1 C1.68 1.33 0.36 1.66 -1 2 C-0.67 1.34 -0.34 0.68 0 0 Z " fill="#43478B" transform="translate(98,172)"/>
<path d="M0 0 C1.65 0 3.3 0 5 0 C5 0.33 5 0.66 5 1 C3.35 1 1.7 1 0 1 C0 0.67 0 0.34 0 0 Z " fill="#373A8D" transform="translate(160,196)"/>
<path d="M0 0 C1.65 0 3.3 0 5 0 C5 0.33 5 0.66 5 1 C3.35 1 1.7 1 0 1 C0 0.67 0 0.34 0 0 Z " fill="#3A3D8C" transform="translate(73,196)"/>
<path d="M0 0 C1.65 0 3.3 0 5 0 C5 0.33 5 0.66 5 1 C3.35 1 1.7 1 0 1 C0 0.67 0 0.34 0 0 Z " fill="#373A8D" transform="translate(66,196)"/>
<path d="M0 0 C0.99 0.99 1.98 1.98 3 3 C2.01 2.67 1.02 2.34 0 2 C0 1.34 0 0.68 0 0 Z " fill="#43478B" transform="translate(32,193)"/>
<path d="M0 0 C0.66 1.32 1.32 2.64 2 4 C1.34 3.67 0.68 3.34 0 3 C0 2.01 0 1.02 0 0 Z " fill="#3D408C" transform="translate(199,185)"/>
<path d="M0 0 C1.65 0 3.3 0 5 0 C5 0.33 5 0.66 5 1 C3.35 1 1.7 1 0 1 C0 0.67 0 0.34 0 0 Z " fill="#43478B" transform="translate(251,173)"/>
<path d="M0 0 C1.65 0 3.3 0 5 0 C5 0.33 5 0.66 5 1 C3.35 1 1.7 1 0 1 C0 0.67 0 0.34 0 0 Z " fill="#43478B" transform="translate(188,173)"/>
<path d="M0 0 C1.65 0 3.3 0 5 0 C5 0.33 5 0.66 5 1 C3.35 1 1.7 1 0 1 C0 0.67 0 0.34 0 0 Z " fill="#F41430" transform="translate(251,146)"/>
<path d="M0 0 C1.65 0 3.3 0 5 0 C5 0.33 5 0.66 5 1 C3.35 1 1.7 1 0 1 C0 0.67 0 0.34 0 0 Z " fill="#F40F25" transform="translate(242,144)"/>
<path d="M0 0 C1.65 0 3.3 0 5 0 C5 0.33 5 0.66 5 1 C3.35 1 1.7 1 0 1 C0 0.67 0 0.34 0 0 Z " fill="#F40F25" transform="translate(196,135)"/>
<path d="M0 0 C1.65 0 3.3 0 5 0 C5 0.33 5 0.66 5 1 C3.35 1 1.7 1 0 1 C0 0.67 0 0.34 0 0 Z " fill="#F40F25" transform="translate(187,133)"/>
<path d="M0 0 C1.65 0 3.3 0 5 0 C5 0.33 5 0.66 5 1 C3.35 1 1.7 1 0 1 C0 0.67 0 0.34 0 0 Z " fill="#F40F25" transform="translate(287,120)"/>
<path d="M0 0 C1.65 0 3.3 0 5 0 C5 0.33 5 0.66 5 1 C3.35 1 1.7 1 0 1 C0 0.67 0 0.34 0 0 Z " fill="#F41430" transform="translate(278,118)"/>
<path d="M0 0 C1.65 0 3.3 0 5 0 C5 0.33 5 0.66 5 1 C3.35 1 1.7 1 0 1 C0 0.67 0 0.34 0 0 Z " fill="#F40F25" transform="translate(248,112)"/>
<path d="M0 0 C1.65 0 3.3 0 5 0 C5 0.33 5 0.66 5 1 C3.35 1 1.7 1 0 1 C0 0.67 0 0.34 0 0 Z " fill="#F40F25" transform="translate(232,109)"/>
<path d="M0 0 C0.99 0.33 1.98 0.66 3 1 C2.01 1 1.02 1 0 1 C0 0.67 0 0.34 0 0 Z " fill="#3F438B" transform="translate(172,196)"/>
<path d="M0 0 C4 1 4 1 4 1 Z " fill="#43478B" transform="translate(123,197)"/>
<path d="M0 0 C0.66 0.66 1.32 1.32 2 2 C1.01 2.495 1.01 2.495 0 3 C0 2.01 0 1.02 0 0 Z " fill="#3C418C" transform="translate(219,187)"/>
<path d="M0 0 C0 3 0 3 0 3 Z " fill="#3F438B" transform="translate(32,181)"/>
<path d="M0 0 C0.66 0.33 1.32 0.66 2 1 C1.01 1 0.02 1 -1 1 C-0.67 0.67 -0.34 0.34 0 0 Z " fill="#43478B" transform="translate(34,179)"/>
<path d="M0 0 C0.33 0.99 0.66 1.98 1 3 C0.34 2.67 -0.32 2.34 -1 2 C-0.67 1.34 -0.34 0.68 0 0 Z " fill="#43478B" transform="translate(165,177)"/>
<path d="M0 0 C4 1 4 1 4 1 Z " fill="#F21527" transform="translate(247,145)"/>
<path d="M0 0 C4 1 4 1 4 1 Z " fill="#F21527" transform="translate(192,134)"/>
<path d="M0 0 C4 1 4 1 4 1 Z " fill="#F21527" transform="translate(283,119)"/>
<path d="M0 0 C0.66 0.33 1.32 0.66 2 1 C1.01 1 0.02 1 -1 1 C-0.67 0.67 -0.34 0.34 0 0 Z " fill="#F50D20" transform="translate(222,97)"/>
<path d="M0 0 C0.66 0.33 1.32 0.66 2 1 C1.01 1 0.02 1 -1 1 C-0.67 0.67 -0.34 0.34 0 0 Z " fill="#F50D20" transform="translate(227,94)"/>
<path d="M0 0 C0.66 0.33 1.32 0.66 2 1 C1.01 1 0.02 1 -1 1 C-0.67 0.67 -0.34 0.34 0 0 Z " fill="#C81E41" transform="translate(232,91)"/>
<path d="M0 0 C0.66 0.33 1.32 0.66 2 1 C1.01 1 0.02 1 -1 1 C-0.67 0.67 -0.34 0.34 0 0 Z " fill="#F50D20" transform="translate(172,89)"/>
<path d="M0 0 C0.66 0.33 1.32 0.66 2 1 C1.01 1 0.02 1 -1 1 C-0.67 0.67 -0.34 0.34 0 0 Z " fill="#F50D20" transform="translate(240,86)"/>
<path d="M0 0 C0.66 0.33 1.32 0.66 2 1 C1.01 1 0.02 1 -1 1 C-0.67 0.67 -0.34 0.34 0 0 Z " fill="#F50D20" transform="translate(182,83)"/>
<path d="M0 0 C0.66 0.33 1.32 0.66 2 1 C1.01 1 0.02 1 -1 1 C-0.67 0.67 -0.34 0.34 0 0 Z " fill="#F50D20" transform="translate(250,80)"/>
<path d="M0 0 C0.66 0.33 1.32 0.66 2 1 C1.01 1 0.02 1 -1 1 C-0.67 0.67 -0.34 0.34 0 0 Z " fill="#F50D20" transform="translate(255,77)"/>
<path d="M0 0 C0.66 0.33 1.32 0.66 2 1 C1.01 1 0.02 1 -1 1 C-0.67 0.67 -0.34 0.34 0 0 Z " fill="#F50D20" transform="translate(192,77)"/>
<path d="M0 0 C0.66 0.33 1.32 0.66 2 1 C1.01 1 0.02 1 -1 1 C-0.67 0.67 -0.34 0.34 0 0 Z " fill="#C81E41" transform="translate(260,74)"/>
<path d="M0 0 C0.66 0.33 1.32 0.66 2 1 C1.01 1 0.02 1 -1 1 C-0.67 0.67 -0.34 0.34 0 0 Z " fill="#F50D20" transform="translate(202,71)"/>
<path d="M0 0 C0.66 0.33 1.32 0.66 2 1 C1.01 1 0.02 1 -1 1 C-0.67 0.67 -0.34 0.34 0 0 Z " fill="#F50D20" transform="translate(268,69)"/>
<path d="M0 0 C0.66 0.33 1.32 0.66 2 1 C1.01 1 0.02 1 -1 1 C-0.67 0.67 -0.34 0.34 0 0 Z " fill="#F50D20" transform="translate(278,63)"/>
<path d="M0 0 C0.66 0.33 1.32 0.66 2 1 C1.01 1 0.02 1 -1 1 C-0.67 0.67 -0.34 0.34 0 0 Z " fill="#F50D20" transform="translate(283,60)"/>
<path d="M0 0 C0.66 0.33 1.32 0.66 2 1 C1.01 1 0.02 1 -1 1 C-0.67 0.67 -0.34 0.34 0 0 Z " fill="#F50D20" transform="translate(224,58)"/>
<path d="M0 0 C0.66 0.33 1.32 0.66 2 1 C1.01 1 0.02 1 -1 1 C-0.67 0.67 -0.34 0.34 0 0 Z " fill="#F50D20" transform="translate(288,57)"/>
<path d="M0 0 C0.66 0.33 1.32 0.66 2 1 C1.01 1 0.02 1 -1 1 C-0.67 0.67 -0.34 0.34 0 0 Z " fill="#F50D20" transform="translate(239,49)"/>
<path d="M0 0 C0.66 0.33 1.32 0.66 2 1 C1.01 1 0.02 1 -1 1 C-0.67 0.67 -0.34 0.34 0 0 Z " fill="#F50D20" transform="translate(249,43)"/>
<path d="M0 0 C0.66 0.33 1.32 0.66 2 1 C1.01 1 0.02 1 -1 1 C-0.67 0.67 -0.34 0.34 0 0 Z " fill="#F50D20" transform="translate(259,37)"/>
<path d="M0 0 C0.66 0.33 1.32 0.66 2 1 C1.01 1 0.02 1 -1 1 C-0.67 0.67 -0.34 0.34 0 0 Z " fill="#F50D20" transform="translate(269,31)"/>
<path d="M0 0 C0.66 0.33 1.32 0.66 2 1 C1.01 1 0.02 1 -1 1 C-0.67 0.67 -0.34 0.34 0 0 Z " fill="#F50D20" transform="translate(279,25)"/>
<path d="M0 0 C0.66 0.33 1.32 0.66 2 1 C1.01 1 0.02 1 -1 1 C-0.67 0.67 -0.34 0.34 0 0 Z " fill="#F50D20" transform="translate(291,18)"/>
<path d="M0 0 C3 1 3 1 3 1 Z " fill="#3F448C" transform="translate(127,196)"/>
<path d="M0 0 C0.66 0 1.32 0 2 0 C1.67 0.66 1.34 1.32 1 2 C0.67 1.34 0.34 0.68 0 0 Z " fill="#43478B" transform="translate(54,196)"/>
<path d="" fill="#43478B" transform="translate(0,0)"/>
<path d="" fill="#3E418C" transform="translate(0,0)"/>
<path d="M0 0 C0.33 0.66 0.66 1.32 1 2 C0.34 1.67 -0.32 1.34 -1 1 C-0.67 0.67 -0.34 0.34 0 0 Z " fill="#43478B" transform="translate(93,181)"/>
<path d="" fill="#43478B" transform="translate(0,0)"/>
<path d="" fill="#43478B" transform="translate(0,0)"/>
<path d="M0 0 C2 1 2 1 2 1 Z " fill="#43478B" transform="translate(265,197)"/>
<path d="M0 0 C2 1 2 1 2 1 Z " fill="#3C3F8C" transform="translate(263,196)"/>
<path d="M0 0 C2 1 2 1 2 1 Z " fill="#35378E" transform="translate(237,196)"/>
<path d="M0 0 C2 1 2 1 2 1 Z " fill="#3C3F8C" transform="translate(225,196)"/>
<path d="M0 0 C2 1 2 1 2 1 Z " fill="#3C3F8C" transform="translate(175,196)"/>
<path d="M0 0 C2 1 2 1 2 1 Z " fill="#35378E" transform="translate(121,196)"/>
<path d="M0 0 C2 1 2 1 2 1 Z " fill="#3C3F8C" transform="translate(88,196)"/>
<path d="M0 0 C2 1 2 1 2 1 Z " fill="#35378E" transform="translate(35,196)"/>
<path d="M0 0 C2 1 2 1 2 1 Z " fill="#43478B" transform="translate(235,195)"/>
<path d="M0 0 C2 1 2 1 2 1 Z " fill="#43478B" transform="translate(170,195)"/>
<path d="M0 0 C2 1 2 1 2 1 Z " fill="#43478B" transform="translate(158,195)"/>
<path d="M0 0 C2 1 2 1 2 1 Z " fill="#43478B" transform="translate(119,195)"/>
<path d="M0 0 C2 1 2 1 2 1 Z " fill="#3C3F8C" transform="translate(71,195)"/>
<path d="" fill="#43478B" transform="translate(0,0)"/>
<path d="" fill="#3C3F8C" transform="translate(0,0)"/>
<path d="" fill="#43478B" transform="translate(0,0)"/>
<path d="" fill="#43478B" transform="translate(0,0)"/>
<path d="" fill="#43478B" transform="translate(0,0)"/>
<path d="" fill="#43478B" transform="translate(0,0)"/>
<path d="" fill="#3C3F8C" transform="translate(0,0)"/>
<path d="" fill="#3C3F8C" transform="translate(0,0)"/>
<path d="" fill="#43478B" transform="translate(0,0)"/>
<path d="" fill="#43478B" transform="translate(0,0)"/>
<path d="" fill="#3C3F8C" transform="translate(0,0)"/>
<path d="" fill="#43478B" transform="translate(0,0)"/>
<path d="" fill="#43478B" transform="translate(0,0)"/>
<path d="" fill="#43478B" transform="translate(0,0)"/>
<path d="" fill="#43478B" transform="translate(0,0)"/>
<path d="" fill="#43478B" transform="translate(0,0)"/>
<path d="" fill="#43478B" transform="translate(0,0)"/>
<path d="" fill="#3C3F8C" transform="translate(0,0)"/>
<path d="" fill="#3C3F8C" transform="translate(0,0)"/>
<path d="M0 0 C2 1 2 1 2 1 Z " fill="#3D438D" transform="translate(200,184)"/>
<path d="" fill="#35378E" transform="translate(0,0)"/>
<path d="" fill="#343B90" transform="translate(0,0)"/>
<path d="" fill="#43478B" transform="translate(0,0)"/>
<path d="" fill="#43478B" transform="translate(0,0)"/>
<path d="" fill="#3C3F8C" transform="translate(0,0)"/>
<path d="" fill="#43478B" transform="translate(0,0)"/>
<path d="" fill="#43478B" transform="translate(0,0)"/>
<path d="" fill="#43478B" transform="translate(0,0)"/>
<path d="" fill="#43478B" transform="translate(0,0)"/>
<path d="" fill="#43478B" transform="translate(0,0)"/>
<path d="M0 0 C2 1 2 1 2 1 Z " fill="#43478B" transform="translate(280,179)"/>
<path d="M0 0 C2 1 2 1 2 1 Z " fill="#43478B" transform="translate(236,179)"/>
<path d="M0 0 C2 1 2 1 2 1 Z " fill="#43478B" transform="translate(83,179)"/>
<path d="" fill="#3C3F8C" transform="translate(0,0)"/>
<path d="M0 0 C2 1 2 1 2 1 Z " fill="#43478B" transform="translate(126,177)"/>
<path d="" fill="#43478B" transform="translate(0,0)"/>
<path d="" fill="#43478B" transform="translate(0,0)"/>
<path d="" fill="#43478B" transform="translate(0,0)"/>
<path d="" fill="#43478B" transform="translate(0,0)"/>
<path d="" fill="#43478B" transform="translate(0,0)"/>
<path d="M0 0 C2 1 2 1 2 1 Z " fill="#43478B" transform="translate(161,174)"/>
<path d="M0 0 C2 1 2 1 2 1 Z " fill="#43478B" transform="translate(126,174)"/>
<path d="M0 0 C2 1 2 1 2 1 Z " fill="#F50D20" transform="translate(214,102)"/>
<path d="M0 0 C2 1 2 1 2 1 Z " fill="#F50D20" transform="translate(216,101)"/>
<path d="M0 0 C2 1 2 1 2 1 Z " fill="#F50D20" transform="translate(219,99)"/>
<path d="M0 0 C2 1 2 1 2 1 Z " fill="#F50D20" transform="translate(224,96)"/>
<path d="M0 0 C2 1 2 1 2 1 Z " fill="#F50D20" transform="translate(229,93)"/>
<path d="M0 0 C2 1 2 1 2 1 Z " fill="#F50D20" transform="translate(169,91)"/>
<path d="M0 0 C2 1 2 1 2 1 Z " fill="#F50D20" transform="translate(234,90)"/>
<path d="M0 0 C2 1 2 1 2 1 Z " fill="#F41A3B" transform="translate(237,88)"/>
<path d="M0 0 C2 1 2 1 2 1 Z " fill="#F50D20" transform="translate(174,88)"/>
<path d="M0 0 C2 1 2 1 2 1 Z " fill="#F41A3B" transform="translate(176,87)"/>
<path d="M0 0 C2 1 2 1 2 1 Z " fill="#F50D20" transform="translate(242,85)"/>
<path d="M0 0 C2 1 2 1 2 1 Z " fill="#F50D20" transform="translate(179,85)"/>
<path d="M0 0 C2 1 2 1 2 1 Z " fill="#F50D20" transform="translate(244,84)"/>
<path d="M0 0 C2 1 2 1 2 1 Z " fill="#F50D20" transform="translate(247,82)"/>
<path d="M0 0 C2 1 2 1 2 1 Z " fill="#F50D20" transform="translate(184,82)"/>
<path d="M0 0 C2 1 2 1 2 1 Z " fill="#F50D20" transform="translate(186,81)"/>
<path d="M0 0 C2 1 2 1 2 1 Z " fill="#F50D20" transform="translate(252,79)"/>
<path d="M0 0 C2 1 2 1 2 1 Z " fill="#F50D20" transform="translate(189,79)"/>
<path d="M0 0 C2 1 2 1 2 1 Z " fill="#F50D20" transform="translate(257,76)"/>
<path d="M0 0 C2 1 2 1 2 1 Z " fill="#F50D20" transform="translate(194,76)"/>
<path d="M0 0 C2 1 2 1 2 1 Z " fill="#F50D20" transform="translate(196,75)"/>
<path d="M0 0 C2 1 2 1 2 1 Z " fill="#F50D20" transform="translate(262,73)"/>
<path d="M0 0 C2 1 2 1 2 1 Z " fill="#F50D20" transform="translate(199,73)"/>
<path d="M0 0 C2 1 2 1 2 1 Z " fill="#F41A3B" transform="translate(265,71)"/>
<path d="M0 0 C2 1 2 1 2 1 Z " fill="#F50D20" transform="translate(204,70)"/>
<path d="M0 0 C2 1 2 1 2 1 Z " fill="#F50D20" transform="translate(206,69)"/>
<path d="M0 0 C2 1 2 1 2 1 Z " fill="#F41A3B" transform="translate(270,68)"/>
<path d="M0 0 C2 1 2 1 2 1 Z " fill="#F50D20" transform="translate(272,67)"/>
<path d="M0 0 C2 1 2 1 2 1 Z " fill="#F50D20" transform="translate(209,67)"/>
<path d="M0 0 C2 1 2 1 2 1 Z " fill="#F50D20" transform="translate(275,65)"/>
<path d="M0 0 C2 1 2 1 2 1 Z " fill="#F50D20" transform="translate(216,63)"/>
<path d="M0 0 C2 1 2 1 2 1 Z " fill="#F50D20" transform="translate(280,62)"/>
<path d="M0 0 C2 1 2 1 2 1 Z " fill="#F50D20" transform="translate(219,61)"/>
<path d="M0 0 C2 1 2 1 2 1 Z " fill="#F50D20" transform="translate(221,60)"/>
<path d="M0 0 C2 1 2 1 2 1 Z " fill="#F50D20" transform="translate(285,59)"/>
<path d="M0 0 C2 1 2 1 2 1 Z " fill="#F50D20" transform="translate(226,57)"/>
<path d="M0 0 C2 1 2 1 2 1 Z " fill="#F50D20" transform="translate(290,56)"/>
<path d="M0 0 C2 1 2 1 2 1 Z " fill="#F50D20" transform="translate(229,55)"/>
<path d="M0 0 C2 1 2 1 2 1 Z " fill="#F41A3B" transform="translate(293,54)"/>
<path d="M0 0 C2 1 2 1 2 1 Z " fill="#F50D20" transform="translate(231,54)"/>
<path d="M0 0 C2 1 2 1 2 1 Z " fill="#F50D20" transform="translate(295,53)"/>
<path d="M0 0 C2 1 2 1 2 1 Z " fill="#F50D20" transform="translate(233,53)"/>
<path d="M0 0 C2 1 2 1 2 1 Z " fill="#F50D20" transform="translate(298,51)"/>
<path d="M0 0 C2 1 2 1 2 1 Z " fill="#F50D20" transform="translate(236,51)"/>
<path d="M0 0 C2 1 2 1 2 1 Z " fill="#F50D20" transform="translate(241,48)"/>
<path d="M0 0 C2 1 2 1 2 1 Z " fill="#F41A3B" transform="translate(243,47)"/>
<path d="M0 0 C2 1 2 1 2 1 Z " fill="#F50D20" transform="translate(246,45)"/>
<path d="M0 0 C2 1 2 1 2 1 Z " fill="#F50D20" transform="translate(251,42)"/>
<path d="M0 0 C2 1 2 1 2 1 Z " fill="#F41A3B" transform="translate(253,41)"/>
<path d="M0 0 C2 1 2 1 2 1 Z " fill="#F50D20" transform="translate(256,39)"/>
<path d="M0 0 C2 1 2 1 2 1 Z " fill="#F50D20" transform="translate(261,36)"/>
<path d="M0 0 C2 1 2 1 2 1 Z " fill="#F41A3B" transform="translate(263,35)"/>
<path d="M0 0 C2 1 2 1 2 1 Z " fill="#F50D20" transform="translate(266,33)"/>
<path d="M0 0 C2 1 2 1 2 1 Z " fill="#F50D20" transform="translate(271,30)"/>
<path d="M0 0 C2 1 2 1 2 1 Z " fill="#F41A3B" transform="translate(273,29)"/>
<path d="M0 0 C2 1 2 1 2 1 Z " fill="#F50D20" transform="translate(276,27)"/>
<path d="M0 0 C2 1 2 1 2 1 Z " fill="#F50D20" transform="translate(281,24)"/>
<path d="M0 0 C2 1 2 1 2 1 Z " fill="#F41A3B" transform="translate(283,23)"/>
<path d="M0 0 C2 1 2 1 2 1 Z " fill="#F50D20" transform="translate(286,21)"/>
<path d="M0 0 C2 1 2 1 2 1 Z " fill="#F50D20" transform="translate(288,20)"/>
<path d="M0 0 C2 1 2 1 2 1 Z " fill="#F41A3B" transform="translate(293,17)"/>
<path d="M0 0 C2 1 2 1 2 1 Z " fill="#F50D20" transform="translate(296,15)"/>
<path d="M0 0 C2 1 2 1 2 1 Z " fill="#F60006" transform="translate(298,14)"/>
<path d="" fill="#43478B" transform="translate(0,0)"/>
<path d="" fill="#43478B" transform="translate(0,0)"/>
<path d="" fill="#43478B" transform="translate(0,0)"/>
<path d="" fill="#43478B" transform="translate(0,0)"/>
<path d="" fill="#43478B" transform="translate(0,0)"/>
<path d="" fill="#43478B" transform="translate(0,0)"/>
<path d="" fill="#43478B" transform="translate(0,0)"/>
<path d="" fill="#35378E" transform="translate(0,0)"/>
<path d="" fill="#43478B" transform="translate(0,0)"/>
<path d="" fill="#43478B" transform="translate(0,0)"/>
<path d="" fill="#43478B" transform="translate(0,0)"/>
<path d="" fill="#43478B" transform="translate(0,0)"/>
<path d="" fill="#43478B" transform="translate(0,0)"/>
<path d="" fill="#43478B" transform="translate(0,0)"/>
<path d="" fill="#43478B" transform="translate(0,0)"/>
<path d="" fill="#43478B" transform="translate(0,0)"/>
<path d="" fill="#43478B" transform="translate(0,0)"/>
<path d="" fill="#35378E" transform="translate(0,0)"/>
<path d="" fill="#43478B" transform="translate(0,0)"/>
<path d="" fill="#43478B" transform="translate(0,0)"/>
<path d="" fill="#43478B" transform="translate(0,0)"/>
<path d="" fill="#43478B" transform="translate(0,0)"/>
<path d="" fill="#43478B" transform="translate(0,0)"/>
<path d="" fill="#43478B" transform="translate(0,0)"/>
<path d="" fill="#43478B" transform="translate(0,0)"/>
<path d="" fill="#35378E" transform="translate(0,0)"/>
<path d="" fill="#43478B" transform="translate(0,0)"/>
<path d="" fill="#43478B" transform="translate(0,0)"/>
<path d="" fill="#43478B" transform="translate(0,0)"/>
<path d="" fill="#43478B" transform="translate(0,0)"/>
<path d="" fill="#43478B" transform="translate(0,0)"/>
<path d="" fill="#43478B" transform="translate(0,0)"/>
<path d="" fill="#43478B" transform="translate(0,0)"/>
<path d="" fill="#43478B" transform="translate(0,0)"/>
<path d="" fill="#43478B" transform="translate(0,0)"/>
<path d="" fill="#35378E" transform="translate(0,0)"/>
<path d="" fill="#43478B" transform="translate(0,0)"/>
<path d="" fill="#43478B" transform="translate(0,0)"/>
<path d="" fill="#43478B" transform="translate(0,0)"/>
<path d="" fill="#35378E" transform="translate(0,0)"/>
<path d="" fill="#43478B" transform="translate(0,0)"/>
<path d="" fill="#43478B" transform="translate(0,0)"/>
<path d="" fill="#43478B" transform="translate(0,0)"/>
<path d="" fill="#43478B" transform="translate(0,0)"/>
<path d="" fill="#43478B" transform="translate(0,0)"/>
<path d="" fill="#35378E" transform="translate(0,0)"/>
<path d="" fill="#35378E" transform="translate(0,0)"/>
<path d="" fill="#35378E" transform="translate(0,0)"/>
<path d="" fill="#43478B" transform="translate(0,0)"/>
<path d="" fill="#35378E" transform="translate(0,0)"/>
<path d="" fill="#43478B" transform="translate(0,0)"/>
<path d="" fill="#43478B" transform="translate(0,0)"/>
<path d="" fill="#35378E" transform="translate(0,0)"/>
<path d="" fill="#43478B" transform="translate(0,0)"/>
<path d="" fill="#35378E" transform="translate(0,0)"/>
<path d="" fill="#35378E" transform="translate(0,0)"/>
<path d="" fill="#43478B" transform="translate(0,0)"/>
<path d="" fill="#43478B" transform="translate(0,0)"/>
<path d="" fill="#43478B" transform="translate(0,0)"/>
<path d="" fill="#35378E" transform="translate(0,0)"/>
<path d="" fill="#43478B" transform="translate(0,0)"/>
<path d="" fill="#35378E" transform="translate(0,0)"/>
<path d="" fill="#35378E" transform="translate(0,0)"/>
<path d="" fill="#43478B" transform="translate(0,0)"/>
<path d="" fill="#43478B" transform="translate(0,0)"/>
<path d="" fill="#43478B" transform="translate(0,0)"/>
<path d="" fill="#43478B" transform="translate(0,0)"/>
<path d="" fill="#43478B" transform="translate(0,0)"/>
<path d="" fill="#43478B" transform="translate(0,0)"/>
<path d="" fill="#43478B" transform="translate(0,0)"/>
<path d="" fill="#43478B" transform="translate(0,0)"/>
<path d="" fill="#43478B" transform="translate(0,0)"/>
<path d="" fill="#43478B" transform="translate(0,0)"/>
<path d="" fill="#43478B" transform="translate(0,0)"/>
<path d="" fill="#43478B" transform="translate(0,0)"/>
<path d="" fill="#43478B" transform="translate(0,0)"/>
<path d="" fill="#43478B" transform="translate(0,0)"/>
<path d="" fill="#43478B" transform="translate(0,0)"/>
<path d="" fill="#43478B" transform="translate(0,0)"/>
<path d="" fill="#43478B" transform="translate(0,0)"/>
<path d="" fill="#43478B" transform="translate(0,0)"/>
<path d="" fill="#43478B" transform="translate(0,0)"/>
<path d="" fill="#43478B" transform="translate(0,0)"/>
<path d="" fill="#43478B" transform="translate(0,0)"/>
<path d="" fill="#43478B" transform="translate(0,0)"/>
<path d="" fill="#43478B" transform="translate(0,0)"/>
<path d="" fill="#43478B" transform="translate(0,0)"/>
<path d="" fill="#43478B" transform="translate(0,0)"/>
<path d="" fill="#43478B" transform="translate(0,0)"/>
<path d="" fill="#373F8F" transform="translate(0,0)"/>
<path d="" fill="#43478B" transform="translate(0,0)"/>
<path d="" fill="#43478B" transform="translate(0,0)"/>
<path d="" fill="#43478B" transform="translate(0,0)"/>
<path d="" fill="#373F8F" transform="translate(0,0)"/>
<path d="" fill="#43478B" transform="translate(0,0)"/>
<path d="" fill="#43478B" transform="translate(0,0)"/>
<path d="" fill="#43478B" transform="translate(0,0)"/>
<path d="" fill="#43478B" transform="translate(0,0)"/>
<path d="" fill="#43478B" transform="translate(0,0)"/>
<path d="" fill="#43478B" transform="translate(0,0)"/>
<path d="" fill="#43478B" transform="translate(0,0)"/>
<path d="" fill="#43478B" transform="translate(0,0)"/>
<path d="" fill="#43478B" transform="translate(0,0)"/>
<path d="" fill="#43478B" transform="translate(0,0)"/>
<path d="" fill="#43478B" transform="translate(0,0)"/>
<path d="" fill="#43478B" transform="translate(0,0)"/>
<path d="" fill="#43478B" transform="translate(0,0)"/>
<path d="" fill="#F60006" transform="translate(0,0)"/>
<path d="" fill="#F60006" transform="translate(0,0)"/>
<path d="" fill="#F60006" transform="translate(0,0)"/>
<path d="" fill="#F41A3B" transform="translate(0,0)"/>
<path d="" fill="#F41A3B" transform="translate(0,0)"/>
<path d="" fill="#F41A3B" transform="translate(0,0)"/>
<path d="" fill="#F41A3B" transform="translate(0,0)"/>
<path d="" fill="#F41A3B" transform="translate(0,0)"/>
<path d="" fill="#F41A3B" transform="translate(0,0)"/>
<path d="" fill="#F41A3B" transform="translate(0,0)"/>
<path d="" fill="#F41A3B" transform="translate(0,0)"/>
<path d="" fill="#F41A3B" transform="translate(0,0)"/>
<path d="" fill="#F41A3B" transform="translate(0,0)"/>
<path d="" fill="#F41A3B" transform="translate(0,0)"/>
<path d="" fill="#F41A3B" transform="translate(0,0)"/>
<path d="" fill="#F41A3B" transform="translate(0,0)"/>
<path d="" fill="#F41A3B" transform="translate(0,0)"/>
<path d="" fill="#F41A3B" transform="translate(0,0)"/>
<path d="" fill="#F41A3B" transform="translate(0,0)"/>
<path d="" fill="#F41A3B" transform="translate(0,0)"/>
<path d="" fill="#F41A3B" transform="translate(0,0)"/>
<path d="" fill="#F41A3B" transform="translate(0,0)"/>
<path d="" fill="#F41A3B" transform="translate(0,0)"/>
<path d="" fill="#F41A3B" transform="translate(0,0)"/>
<path d="" fill="#F60006" transform="translate(0,0)"/>
<path d="" fill="#F60006" transform="translate(0,0)"/>
<path d="" fill="#F60006" transform="translate(0,0)"/>
</svg>
