<?xml version="1.0" encoding="UTF-8"?>
<svg version="1.1" xmlns="http://www.w3.org/2000/svg" width="300" height="86">
<path d="M0 0 C22.44 0 44.88 0 68 0 C68 22.11 68 44.22 68 67 C57.44 67 46.88 67 36 67 C36 55.12 36 43.24 36 31 C34.35 31 32.7 31 31 31 C31 44.53 31 58.06 31 72 C44.86 72 58.72 72 73 72 C73 48.24 73 24.48 73 0 C77.62 0 82.24 0 87 0 C87 28.05 87 56.1 87 85 C64.23 85 41.46 85 18 85 C18 62.89 18 40.78 18 18 C28.56 18 39.12 18 50 18 C50 29.88 50 41.76 50 54 C51.65 54 53.3 54 55 54 C55 40.47 55 26.94 55 13 C41.14 13 27.28 13 13 13 C13 36.76 13 60.52 13 85 C8.71 85 4.42 85 0 85 C0 56.95 0 28.9 0 0 Z " fill="#E82129" transform="translate(0,1)"/>
<path d="M0 0 C66 0 132 0 200 0 C200 4.62 200 9.24 200 14 C134 14 68 14 0 14 C0 9.38 0 4.76 0 0 Z " fill="#1D1719" transform="translate(100,72)"/>
<path d="M0 0 C6.6 0 13.2 0 20 0 C22.69448459 5.726099 25.38429235 11.45394667 28.06274414 17.1875 C28.97480313 19.13633569 29.8894924 21.08394269 30.80688477 23.03027344 C32.12693694 25.83207524 33.43739029 28.63819524 34.74609375 31.4453125 C35.36175453 32.74409836 35.36175453 32.74409836 35.98985291 34.06912231 C36.37017166 34.88951996 36.75049042 35.7099176 37.14233398 36.55517578 C37.47764633 37.27021271 37.81295868 37.98524963 38.15843201 38.72195435 C39 41 39 41 40 47 C33.4 47 26.8 47 20 47 C19.01 45.02 18.02 43.04 17 41 C14.1703969 40.36295275 12.14186274 40.11443282 9.3125 40.125 C8.61060547 40.104375 7.90871094 40.08375 7.18554688 40.0625 C5.45754532 40.01547955 3.72863594 40.00425249 2 40 C1.34 42.31 0.68 44.62 0 47 C-6.27 47 -12.54 47 -19 47 C-18.27490186 43.37450931 -17.6500931 40.8544113 -16.23413086 37.5769043 C-15.87383286 36.73641037 -15.51353485 35.89591644 -15.14231873 35.029953 C-14.75375198 34.1370607 -14.36518524 33.2441684 -13.96484375 32.32421875 C-13.56672989 31.3990596 -13.16861603 30.47390045 -12.75843811 29.52070618 C-11.48932101 26.57432645 -10.21350999 23.63090019 -8.9375 20.6875 C-8.07442644 18.68704018 -7.2117911 16.68639123 -6.34960938 14.68554688 C-4.23895961 9.78778309 -2.11927948 4.89407183 0 0 Z M9 17 C7.68 20.96 6.36 24.92 5 29 C8.3 29 11.6 29 15 29 C13.35 25.04 11.7 21.08 10 17 C9.67 17 9.34 17 9 17 Z " fill="#1C1718" transform="translate(259,1)"/>
<path d="M0 0 C0.79075928 0.00523682 1.58151855 0.01047363 2.39624023 0.01586914 C3.67724609 0.02070313 3.67724609 0.02070313 4.98413086 0.02563477 C5.88196289 0.03401367 6.77979492 0.04239258 7.70483398 0.05102539 C8.6065332 0.05553711 9.50823242 0.06004883 10.43725586 0.06469727 C12.67234712 0.07652315 14.90730835 0.09300319 17.14233398 0.11352539 C22.50709301 10.4054347 27.38374 20.90580107 32.14233398 31.48852539 C32.43909027 32.14525238 32.73584656 32.80197937 33.04159546 33.47860718 C33.89194672 35.36284445 34.73683337 37.24942738 35.57983398 39.13696289 C36.07354492 40.23959473 36.56725586 41.34222656 37.07592773 42.47827148 C38.14233398 45.11352539 38.14233398 45.11352539 38.14233398 47.11352539 C34.8719667 47.25862701 31.60242392 47.34751912 28.32983398 47.42602539 C27.40106445 47.46791992 26.47229492 47.50981445 25.51538086 47.55297852 C22.96622363 47.59899218 20.6476945 47.59131326 18.14233398 47.11352539 C15.95645137 44.66389825 15.14233398 43.38860768 15.14233398 40.11352539 C10.19233398 40.44352539 5.24233398 40.77352539 0.14233398 41.11352539 C-0.51766602 43.09352539 -1.17766602 45.07352539 -1.85766602 47.11352539 C-8.45766602 47.11352539 -15.05766602 47.11352539 -21.85766602 47.11352539 C-18.48212759 36.98691013 -18.48212759 36.98691013 -17.06420898 33.71118164 C-16.74733124 32.97432129 -16.43045349 32.23746094 -16.10397339 31.47827148 C-15.77261383 30.71853027 -15.44125427 29.95878906 -15.09985352 29.17602539 C-14.57707321 27.9668042 -14.57707321 27.9668042 -14.04373169 26.7331543 C-13.31440486 25.04845328 -12.58325576 23.36454005 -11.8503418 21.68139648 C-10.72434016 19.09439666 -9.60505883 16.5045632 -8.48657227 13.91430664 C-7.77472376 12.27220997 -7.06249802 10.63027677 -6.34985352 8.98852539 C-6.0144455 8.21259033 -5.67903748 7.43665527 -5.33346558 6.63720703 C-2.50364577 0.1530024 -2.50364577 0.1530024 0 0 Z M7.14233398 18.11352539 C6.47113849 19.56977989 5.80551591 21.02860406 5.14233398 22.48852539 C4.77108398 23.30063477 4.39983398 24.11274414 4.01733398 24.94946289 C3.01738386 27.03350972 3.01738386 27.03350972 3.14233398 29.11352539 C6.11233398 29.11352539 9.08233398 29.11352539 12.14233398 29.11352539 C10.82233398 25.48352539 9.50233398 21.85352539 8.14233398 18.11352539 C7.81233398 18.11352539 7.48233398 18.11352539 7.14233398 18.11352539 Z " fill="#1C1718" transform="translate(164.857666015625,0.886474609375)"/>
<path d="M0 0 C17.81466695 -1.63899979 17.81466695 -1.63899979 22.78125 2.0859375 C24.50404205 4.66256947 25.7662355 7.16277153 27 10 C27.99 11.32 28.98 12.64 30 14 C32.64 9.38 35.28 4.76 38 0 C44.93 0 51.86 0 59 0 C57.48278946 3.79302635 56.42177986 6.0689171 54.1015625 9.21484375 C53.53953125 9.98376953 52.9775 10.75269531 52.3984375 11.54492188 C51.81320313 12.33447266 51.22796875 13.12402344 50.625 13.9375 C48.91424043 16.26497312 47.20633075 18.59389352 45.51367188 20.93457031 C44.25938323 22.6460674 42.95250245 24.31887893 41.6328125 25.98046875 C39.39246931 30.12349575 39.3327401 33.7373332 39.25 38.375 C39.1675 41.22125 39.085 44.0675 39 47 C33.06 47 27.12 47 21 47 C21.103125 44.56625 21.20625 42.1325 21.3125 39.625 C21.13383861 28.82602884 15.19287688 21.99138074 8.59130859 13.95751953 C6.49751828 11.38188118 4.58696077 8.7219077 2.6875 6 C2.15511719 5.2575 1.62273437 4.515 1.07421875 3.75 C0 2 0 2 0 0 Z " fill="#1C1718" transform="translate(191,1)"/>
<path d="M0 0 C6.27 0 12.54 0 19 0 C19.09224838 4.98141263 19.17175286 9.95981736 19.21972656 14.94140625 C19.2397406 16.63291511 19.26696073 18.32435567 19.30175781 20.015625 C19.35073065 22.45850554 19.37307033 24.90046511 19.390625 27.34375 C19.41127014 28.08991577 19.43191528 28.83608154 19.45318604 29.6048584 C19.45552027 35.16873587 18.03812522 39.32641008 15 44 C13 45.83984375 13 45.83984375 11 46.9375 C10.34 47.31777344 9.68 47.69804688 9 48.08984375 C2.69885452 50.95735722 -4.97336348 51.05488232 -11.609375 49.31640625 C-17.44552237 46.9564876 -21.14917589 43.70164823 -24 38 C-24.13860991 33.99694593 -24.04262206 30.00647376 -24 26 C-18.39 26 -12.78 26 -7 26 C-6.67 28.97 -6.34 31.94 -6 35 C-4.68 35.33 -3.36 35.66 -2 36 C0.00503509 33.99496491 -0.74411337 29.99974556 -0.68359375 27.24609375 C-0.66281265 26.47064713 -0.64203156 25.6952005 -0.62062073 24.89625549 C-0.55504198 22.41009692 -0.49620201 19.92382955 -0.4375 17.4375 C-0.39432267 15.75584796 -0.35070864 14.07420706 -0.30664062 12.39257812 C-0.19852719 8.2618288 -0.09951669 4.13100133 0 0 Z " fill="#1C1718" transform="translate(125,0)"/>
<path d="M0 0 C7 0 7 0 9.4375 2 C10.2109375 2.99 10.2109375 2.99 11 4 C11.33 2.68 11.66 1.36 12 0 C14.31 0 16.62 0 19 0 C19 4.62 19 9.24 19 14 C12 14 12 14 9.5625 12 C9.046875 11.34 8.53125 10.68 8 10 C7.67 11.32 7.34 12.64 7 14 C4.69 14 2.38 14 0 14 C0 9.38 0 4.76 0 0 Z " fill="#1D1719" transform="translate(146,53)"/>
<path d="M0 0 C2.41734542 -0.08117951 4.83194949 -0.14056926 7.25 -0.1875 C7.93191406 -0.21263672 8.61382812 -0.23777344 9.31640625 -0.26367188 C12.59199289 -0.31137459 14.65348556 -0.21085076 17.484375 1.51171875 C17.98453125 2.00285156 18.4846875 2.49398437 19 3 C18.814375 3.804375 18.62875 4.60875 18.4375 5.4375 C18.2209375 6.7059375 18.2209375 6.7059375 18 8 C18.33 8.33 18.66 8.66 19 9 C19.04063832 10.66617115 19.042721 12.33388095 19 14 C16.36 14 13.72 14 11 14 C11 12.68 11 11.36 11 10 C9.68 10 8.36 10 7 10 C7 11.32 7 12.64 7 14 C4.69 14 2.38 14 0 14 C0 9.38 0 4.76 0 0 Z M7 4 C11 5 11 5 11 5 Z " fill="#1D1719" transform="translate(207,53)"/>
<path d="M0 0 C2.64 0 5.28 0 8 0 C8 3.3 8 6.6 8 10 C9.32 10 10.64 10 12 10 C12 6.7 12 3.4 12 0 C14.64 0 17.28 0 20 0 C20.10815225 1.76949095 20.18566083 3.54087487 20.25 5.3125 C20.29640625 6.29863281 20.3428125 7.28476562 20.390625 8.30078125 C20 11 20 11 18.22265625 12.80078125 C14.31150772 14.91101429 10.23394285 15.63337843 5.9609375 14.421875 C1.58510638 12.58510638 1.58510638 12.58510638 0 11 C-0.07226502 9.14712498 -0.0838122 7.29166122 -0.0625 5.4375 C-0.05347656 4.42558594 -0.04445312 3.41367187 -0.03515625 2.37109375 C-0.02355469 1.58863281 -0.01195312 0.80617187 0 0 Z " fill="#1D1719" transform="translate(228,53)"/>
<path d="M0 0 C3.1875 1 3.1875 1 5 3 C5.64168586 5.80008373 5.61451215 8.19665408 5 11 C2.74756816 13.90939112 0.78950645 14.04830999 -2.8125 14.875 C-7.30248793 15.30301754 -10.06528102 14.12474825 -14 12 C-14.66 11.34 -15.32 10.68 -16 10 C-15.77331901 3.76627282 -15.77331901 3.76627282 -13.28515625 1.30078125 C-9.11690246 -1.07191706 -4.64993584 -0.48150223 0 0 Z M-7 4 C-7.33 5.65 -7.66 7.3 -8 9 C-5.525 9.495 -5.525 9.495 -3 10 C-2.67 8.35 -2.34 6.7 -2 5 C-3.65 4.67 -5.3 4.34 -7 4 Z " fill="#1D1819" transform="translate(138,53)"/>
<path d="M0 0 C2.31 0 4.62 0 7 0 C7 0.99 7 1.98 7 3 C7.474375 2.505 7.94875 2.01 8.4375 1.5 C12.20358351 -0.70453669 15.73459379 -0.24608113 20 0 C20 0.66 20 1.32 20 2 C18.37373596 3.38232443 16.7074998 4.71937515 15 6 C17.54604597 9.52381687 17.54604597 9.52381687 21 12 C21 12.66 21 13.32 21 14 C12.96498906 14.63019694 12.96498906 14.63019694 8.9375 12 C8.298125 11.34 7.65875 10.68 7 10 C7 11.32 7 12.64 7 14 C4.69 14 2.38 14 0 14 C0 9.38 0 4.76 0 0 Z " fill="#1C1718" transform="translate(251,53)"/>
<path d="M0 0 C2.31 0 4.62 0 7 0 C7 0.99 7 1.98 7 3 C7.474375 2.505 7.94875 2.01 8.4375 1.5 C12.20358351 -0.70453669 15.73459379 -0.24608113 20 0 C20 0.66 20 1.32 20 2 C18.37373596 3.38232443 16.7074998 4.71937515 15 6 C17.54604597 9.52381687 17.54604597 9.52381687 21 12 C21 12.66 21 13.32 21 14 C12.96498906 14.63019694 12.96498906 14.63019694 8.9375 12 C8.298125 11.34 7.65875 10.68 7 10 C7 11.32 7 12.64 7 14 C4.69 14 2.38 14 0 14 C0 9.38 0 4.76 0 0 Z " fill="#1C1718" transform="translate(102,53)"/>
<path d="M0 0 C2.6875 2 2.6875 2 4 4 C3.34 4.66 2.68 5.32 2 6 C2.66 6.33 3.32 6.66 4 7 C4 8.65 4 10.3 4 12 C-1.6167611 14.9253964 -4.7857591 15.34641886 -11 14 C-11.99 13.34 -12.98 12.68 -14 12 C-14 11.01 -14 10.02 -14 9 C-13.34 8.67 -12.68 8.34 -12 8 C-12.66 7.67 -13.32 7.34 -14 7 C-14.1875 4.625 -14.1875 4.625 -14 2 C-9.57048752 -0.95300832 -5.19863438 -0.66928526 0 0 Z " fill="#1D1819" transform="translate(182,53)"/>
<path d="M0 0 C0.95648438 -0.02578125 1.91296875 -0.0515625 2.8984375 -0.078125 C6.0705707 0.30362169 7.42982902 0.94038882 9.625 3.25 C9.625 6.25 9.625 9.25 9.625 12.25 C4.0082389 15.1753964 0.8392409 15.59641886 -5.375 14.25 C-6.365 13.59 -7.355 12.93 -8.375 12.25 C-8.375 11.26 -8.375 10.27 -8.375 9.25 C-7.715 8.92 -7.055 8.59 -6.375 8.25 C-7.035 7.59 -7.695 6.93 -8.375 6.25 C-8.125 3.6875 -8.125 3.6875 -7.375 1.25 C-4.80935275 -0.03282363 -2.86466931 0.04608047 0 0 Z " fill="#1C1719" transform="translate(280.375,52.75)"/>
<path d="M0 0 C6.27 0 12.54 0 19 0 C18.67 1.65 18.34 3.3 18 5 C16.35 5 14.7 5 13 5 C13 7.97 13 10.94 13 14 C10.36 14 7.72 14 5 14 C5 11.03 5 8.06 5 5 C3.35 5 1.7 5 0 5 C0 3.35 0 1.7 0 0 Z " fill="#1C1718" transform="translate(187,53)"/>
<path d="M0 0 C2.31 0 4.62 0 7 0 C7 4.62 7 9.24 7 14 C4.69 14 2.38 14 0 14 C0 9.38 0 4.76 0 0 Z " fill="#1D1819" transform="translate(293,53)"/>
</svg>
