<?xml version="1.0" encoding="UTF-8"?>
<svg version="1.1" xmlns="http://www.w3.org/2000/svg" width="268" height="140">
<path d="M0 0 C11.25 -0.40178571 11.25 -0.40178571 15 3 C15.474375 2.505 15.94875 2.01 16.4375 1.5 C20.12299037 -0.65736022 23.80958198 -0.62289998 28 0 C28.66 0.66 29.32 1.32 30 2 C30.66 1.34 31.32 0.68 32 0 C34.625 -0.125 34.625 -0.125 37 0 C38.32 2.31 39.64 4.62 41 7 C41.33 4.69 41.66 2.38 42 0 C43.65 0 45.3 0 47 0 C47.495 0.99 47.495 0.99 48 2 C48.99 1.34 49.98 0.68 51 0 C53.41015625 -0.1953125 53.41015625 -0.1953125 56.0625 -0.125 C57.37927734 -0.09792969 57.37927734 -0.09792969 58.72265625 -0.0703125 C59.47417969 -0.04710938 60.22570312 -0.02390625 61 0 C61.66 0 62.32 0 63 0 C67.33333333 0 71.66666667 0 76 0 C76 1.32 76 2.64 76 4 C72.7 4.33 69.4 4.66 66 5 C66 5.33 66 5.66 66 6 C66.63808594 6.06058594 67.27617187 6.12117188 67.93359375 6.18359375 C69.17302734 6.30927734 69.17302734 6.30927734 70.4375 6.4375 C71.26121094 6.51871094 72.08492188 6.59992188 72.93359375 6.68359375 C75 7 75 7 76 8 C76.33 5.36 76.66 2.72 77 0 C78.65 0.33 80.3 0.66 82 1 C82.495 4.465 82.495 4.465 83 8 C84.32 5.36 85.64 2.72 87 0 C88.65 0 90.3 0 92 0 C93.0067004 2.26807204 94.00551766 4.53907754 95 6.8125 C95.28617187 7.45509766 95.57234375 8.09769531 95.8671875 8.75976562 C97.13711041 11.67756469 98 13.78265714 98 17 C96.35 17 94.7 17 93 17 C92.505 15.515 92.505 15.515 92 14 C89.58380177 13.74969023 89.58380177 13.74969023 87 14 C86.34 14.99 85.68 15.98 85 17 C82.2539049 17.13076643 79.72350533 17.14561316 77 17 C74.17487871 17 71.35219691 17.03350811 68.52734375 17.0703125 C66.3307325 17.08893912 64.13411771 17.10715168 61.9375 17.125 C60.2659082 17.15013672 60.2659082 17.15013672 58.56054688 17.17578125 C57.49771484 17.18222656 56.43488281 17.18867187 55.33984375 17.1953125 C54.36394287 17.20578613 53.38804199 17.21625977 52.38256836 17.22705078 C50 17 50 17 48 15 C47.67 15.66 47.34 16.32 47 17 C44.8125 17.5 44.8125 17.5 42 17 C39.98728161 14.51946058 38.48112914 11.82359938 37 9 C36.67 11.64 36.34 14.28 36 17 C33.66666667 17 31.33333333 17 29 17 C27.7625 17.226875 26.525 17.45375 25.25 17.6875 C21.06144068 18.25310838 18.61239506 17.25774691 15 15 C14.01 15.66 13.02 16.32 12 17 C7.98500069 17.26874159 4.02862593 17.08663712 0 17 C0 11.39 0 5.78 0 0 Z M5 4 C5 6.97 5 9.94 5 13 C6.65 13 8.3 13 10 13 C10.67673447 9.59679066 10.67673447 9.59679066 11 6 C10.34 5.34 9.68 4.68 9 4 C7.68 4 6.36 4 5 4 Z M21 4 C19.59567064 5.17718985 19.59567064 5.17718985 19.875 8.5 C19.59567064 11.82281015 19.59567064 11.82281015 21 13 C22.66617115 13.04063832 24.33388095 13.042721 26 13 C26.67673447 9.59679066 26.67673447 9.59679066 27 6 C26.34 5.34 25.68 4.68 25 4 C23.68 4 22.36 4 21 4 Z M53 4 C52.67 4.66 52.34 5.32 52 6 C54.64 6 57.28 6 60 6 C60 5.34 60 4.68 60 4 C57.69 4 55.38 4 53 4 Z M89 6 C88.67 6.99 88.34 7.98 88 9 C88.66 9 89.32 9 90 9 C89.67 8.01 89.34 7.02 89 6 Z M61 9 C60.67 9.33 60.34 9.66 60 10 C57.34536879 10.45459858 54.67810862 10.70243238 52 11 C52.33 11.66 52.66 12.32 53 13 C58.94 13 64.88 13 71 13 C71.33 12.34 71.66 11.68 72 11 C70.18885568 10.63896464 68.37603177 10.28634496 66.5625 9.9375 C65.04849609 9.64166016 65.04849609 9.64166016 63.50390625 9.33984375 C62.67761719 9.22769531 61.85132813 9.11554688 61 9 Z " fill="#505050" transform="translate(157,96)"/>
<path d="M0 0 C3.06669937 0.09154326 6.13207861 0.19803224 9.19775391 0.31933594 C10.79876953 0.35994141 10.79876953 0.35994141 12.43212891 0.40136719 C13.45564453 0.44132812 14.47916016 0.48128906 15.53369141 0.52246094 C16.47519043 0.55500977 17.41668945 0.58755859 18.38671875 0.62109375 C21.27422995 1.1524097 22.01333062 1.81050919 23.82275391 4.06933594 C24.09665422 6.99931893 24.19536068 9.7121601 24.15087891 12.63964844 C24.14900574 13.47648163 24.14713257 14.31331482 24.14520264 15.17550659 C24.13848432 16.94240306 24.12457413 18.70928472 24.10400391 20.47607422 C24.07279347 23.19089462 24.06302784 25.90513502 24.05712891 28.62011719 C24.04796126 30.33496807 24.03758624 32.04981301 24.02587891 33.76464844 C24.01950409 34.98959518 24.01950409 34.98959518 24.01300049 36.23928833 C23.93991848 41.95217136 23.93991848 41.95217136 22.82275391 43.06933594 C21.15846339 43.16757531 19.4899346 43.19907225 17.82275391 43.19433594 C16.46150391 43.19820312 16.46150391 43.19820312 15.07275391 43.20214844 C12.82275391 43.06933594 12.82275391 43.06933594 11.82275391 42.06933594 C11.73484416 39.77782177 11.71581352 37.48361069 11.72509766 35.19042969 C11.7265126 34.50376724 11.72792755 33.8171048 11.72938538 33.1096344 C11.73499911 30.90865793 11.74755384 28.70778185 11.76025391 26.50683594 C11.76526714 25.01790511 11.76983035 23.5289727 11.77392578 22.04003906 C11.78412369 18.38306788 11.80369611 14.72631477 11.82275391 11.06933594 C6.87275391 11.06933594 1.92275391 11.06933594 -3.17724609 11.06933594 C-3.27490234 3.35449219 -3.27490234 3.35449219 -3.17724609 1.06933594 C-2.17724609 0.06933594 -2.17724609 0.06933594 0 0 Z " fill="#EF1C28" transform="translate(124.17724609375,25.9306640625)"/>
<path d="M0 0 C3.96 0 7.92 0 12 0 C12.66 2.97 13.32 5.94 14 9 C14.66 9 15.32 9 16 9 C16.66 6.03 17.32 3.06 18 0 C19.99954746 -0.04254356 22.00041636 -0.04080783 24 0 C25.96822886 1.96822886 25.66248381 5.34808709 26 8 C27.32 5.36 28.64 2.72 30 0 C31.65 0 33.3 0 35 0 C36.0067004 2.26807204 37.00551766 4.53907754 38 6.8125 C38.28617188 7.45509766 38.57234375 8.09769531 38.8671875 8.75976562 C40.13711041 11.67756469 41 13.78265714 41 17 C39.35 17 37.7 17 36 17 C35.505 15.515 35.505 15.515 35 14 C32.58380177 13.74969023 32.58380177 13.74969023 30 14 C29.01 15.485 29.01 15.485 28 17 C26.0546875 17.29296875 26.0546875 17.29296875 23.875 17.1875 C22.59625 17.125625 21.3175 17.06375 20 17 C19.67 16.01 19.34 15.02 19 14 C18.67 14.99 18.34 15.98 18 17 C16.02 17 14.04 17 12 17 C11.67 16.01 11.34 15.02 11 14 C10.67 14.99 10.34 15.98 10 17 C6.7 17 3.4 17 0 17 C0 11.39 0 5.78 0 0 Z M32 7 C31.67 7.66 31.34 8.32 31 9 C31.66 9 32.32 9 33 9 C32.67 8.34 32.34 7.68 32 7 Z " fill="#191919" transform="translate(90,96)"/>
<path d="M0 0 C8.33333333 0 16.66666667 0 25 0 C25 1.32 25 2.64 25 4 C21.7 4.33 18.4 4.66 15 5 C15 5.33 15 5.66 15 6 C15.63808594 6.06058594 16.27617187 6.12117188 16.93359375 6.18359375 C17.75988281 6.26738281 18.58617187 6.35117188 19.4375 6.4375 C20.67306641 6.55931641 20.67306641 6.55931641 21.93359375 6.68359375 C24 7 24 7 25 8 C25.33 5.36 25.66 2.72 26 0 C28.475 0.495 28.475 0.495 31 1 C31.495 4.465 31.495 4.465 32 8 C33.32 5.36 34.64 2.72 36 0 C37.65 0 39.3 0 41 0 C42.0067004 2.26807204 43.00551766 4.53907754 44 6.8125 C44.28617188 7.45509766 44.57234375 8.09769531 44.8671875 8.75976562 C46.13711041 11.67756469 47 13.78265714 47 17 C45.35 17 43.7 17 42 17 C41.505 15.515 41.505 15.515 41 14 C38.58380177 13.74969023 38.58380177 13.74969023 36 14 C35.34 14.99 34.68 15.98 34 17 C31.2539049 17.13076643 28.72350533 17.14561316 26 17 C23.17375193 17 20.35298848 17.0502467 17.52734375 17.10546875 C15.33073667 17.13340863 13.13412162 17.16072748 10.9375 17.1875 C9.2659082 17.22520508 9.2659082 17.22520508 7.56054688 17.26367188 C6.49771484 17.27333984 5.43488281 17.28300781 4.33984375 17.29296875 C3.36394287 17.3086792 2.38804199 17.32438965 1.38256836 17.34057617 C0.5963208 17.22818604 -0.18992676 17.1157959 -1 17 C-1.66 16.01 -2.32 15.02 -3 14 C2.94 14.99 2.94 14.99 9 16 C9 15.34 9 14.68 9 14 C6.36 14 3.72 14 1 14 C0.67 12.68 0.34 11.36 0 10 C2.97 10 5.94 10 9 10 C9 9.01 9 8.02 9 7 C6.03 7 3.06 7 0 7 C0.33 5.68 0.66 4.36 1 3 C3.64 3 6.28 3 9 3 C9 2.34 9 1.68 9 1 C6.03 1 3.06 1 0 1 C0 0.67 0 0.34 0 0 Z M2 4 C1.67 4.66 1.34 5.32 1 6 C3.64 6 6.28 6 9 6 C9 5.34 9 4.68 9 4 C6.69 4 4.38 4 2 4 Z M38 6 C37.67 6.99 37.34 7.98 37 9 C37.66 9 38.32 9 39 9 C38.67 8.01 38.34 7.02 38 6 Z M10 9 C9.67 9.33 9.34 9.66 9 10 C6.34536879 10.45459858 3.67810862 10.70243238 1 11 C1.33 11.66 1.66 12.32 2 13 C7.94 13 13.88 13 20 13 C20.33 12.34 20.66 11.68 21 11 C19.18885568 10.63896464 17.37603177 10.28634496 15.5625 9.9375 C14.04849609 9.64166016 14.04849609 9.64166016 12.50390625 9.33984375 C11.67761719 9.22769531 10.85132813 9.11554688 10 9 Z " fill="#6F6F6F" transform="translate(208,96)"/>
<path d="M0 0 C1.65 0 3.3 0 5 0 C5.33 1.65 5.66 3.3 6 5 C6.556875 4.175 7.11375 3.35 7.6875 2.5 C10 0 10 0 12.75 -0.3125 C13.86375 -0.1578125 13.86375 -0.1578125 15 0 C13.50163895 3.11198065 11.80066242 6.0534615 10 9 C10.99 9.99 11.98 10.98 13 12 C14.65 8.04 16.3 4.08 18 0 C19.65 0 21.3 0 23 0 C23.84069415 1.60032137 24.67231505 3.20541171 25.5 4.8125 C25.9640625 5.70582031 26.428125 6.59914063 26.90625 7.51953125 C28 10 28 10 28 13 C29.98 13 31.96 13 34 13 C34.495 6.565 34.495 6.565 35 0 C36.32 0 37.64 0 39 0 C39.08097324 2.27024968 39.13917704 4.54132075 39.1875 6.8125 C39.23970703 8.70935547 39.23970703 8.70935547 39.29296875 10.64453125 C39 14 39 14 37.8359375 15.92578125 C35.29458403 17.41274339 33.36718436 17.39840627 30.4375 17.375 C29.46683594 17.38273437 28.49617188 17.39046875 27.49609375 17.3984375 C26.67238281 17.26695313 25.84867188 17.13546875 25 17 C24.34 16.01 23.68 15.02 23 14 C20.41619823 13.74969023 20.41619823 13.74969023 18 14 C17.67 14.99 17.34 15.98 17 17 C11.62694301 17.35233161 11.62694301 17.35233161 9 17 C7 15 7 15 6 13 C5.67 14.32 5.34 15.64 5 17 C3.35 17 1.7 17 0 17 C0 11.39 0 5.78 0 0 Z M20 7 C20 7.66 20 8.32 20 9 C20.66 8.67 21.32 8.34 22 8 C21.34 7.67 20.68 7.34 20 7 Z " fill="#535353" transform="translate(50,96)"/>
<path d="M0 0 C0.91007812 0.10183594 1.82015625 0.20367187 2.7578125 0.30859375 C3.45648438 0.39238281 4.15515625 0.47617187 4.875 0.5625 C4.90386537 4.87498609 4.92175255 9.18744762 4.9375 13.5 C4.94587891 14.73169922 4.95425781 15.96339844 4.96289062 17.23242188 C4.96611328 18.40224609 4.96933594 19.57207031 4.97265625 20.77734375 C4.97789307 21.86136475 4.98312988 22.94538574 4.98852539 24.06225586 C4.875 26.5625 4.875 26.5625 3.875 27.5625 C2.21070949 27.66073937 0.54218069 27.69223631 -1.125 27.6875 C-2.48625 27.69136719 -2.48625 27.69136719 -3.875 27.6953125 C-6.125 27.5625 -6.125 27.5625 -7.125 26.5625 C-7.21248207 24.63582493 -7.23197334 22.70598139 -7.22265625 20.77734375 C-7.21943359 19.60751953 -7.21621094 18.43769531 -7.21289062 17.23242188 C-7.20451172 16.00072266 -7.19613281 14.76902344 -7.1875 13.5 C-7.18298828 12.26443359 -7.17847656 11.02886719 -7.17382812 9.75585938 C-7.16199608 6.69135883 -7.14551173 3.62695279 -7.125 0.5625 C-4.50184968 -0.74907516 -2.89466564 -0.33399988 0 0 Z " fill="#ED1D28" transform="translate(112.125,41.4375)"/>
<path d="M0 0 C1.81242052 -0.02687279 3.62495233 -0.04633715 5.4375 -0.0625 C6.44683594 -0.07410156 7.45617187 -0.08570313 8.49609375 -0.09765625 C11 0 11 0 12 1 C12.09959621 2.84159023 12.13080411 4.68696967 12.1328125 6.53125 C12.13474609 8.21154297 12.13474609 8.21154297 12.13671875 9.92578125 C12.13285156 11.10527344 12.12898437 12.28476562 12.125 13.5 C12.12886719 14.67949219 12.13273438 15.85898437 12.13671875 17.07421875 C12.13542969 18.19441406 12.13414062 19.31460938 12.1328125 20.46875 C12.13168457 21.50451172 12.13055664 22.54027344 12.12939453 23.60742188 C12 26 12 26 11 27 C9.33570949 27.09823937 7.66718069 27.12973631 6 27.125 C4.63875 27.12886719 4.63875 27.12886719 3.25 27.1328125 C1 27 1 27 0 26 C-0.08748207 24.07332493 -0.10697334 22.14348139 -0.09765625 20.21484375 C-0.09443359 19.04501953 -0.09121094 17.87519531 -0.08789062 16.66992188 C-0.07951172 15.43822266 -0.07113281 14.20652344 -0.0625 12.9375 C-0.05798828 11.70193359 -0.05347656 10.46636719 -0.04882812 9.19335938 C-0.03699608 6.12885883 -0.02051173 3.06445279 0 0 Z " fill="#ED1D28" transform="translate(121,42)"/>
<path d="M0 0 C1.16781006 0.00523682 2.33562012 0.01047363 3.53881836 0.01586914 C4.79887695 0.0190918 6.05893555 0.02231445 7.35717773 0.02563477 C8.6976732 0.03399136 10.03816799 0.04245632 11.37866211 0.05102539 C12.72306153 0.05603879 14.06746271 0.06060197 15.41186523 0.06469727 C18.71334151 0.07653051 22.01473014 0.09301568 25.31616211 0.11352539 C25.31616211 1.43352539 25.31616211 2.75352539 25.31616211 4.11352539 C23.66616211 4.11352539 22.01616211 4.11352539 20.31616211 4.11352539 C20.31616211 8.40352539 20.31616211 12.69352539 20.31616211 17.11352539 C18.66616211 17.11352539 17.01616211 17.11352539 15.31616211 17.11352539 C15.31616211 12.82352539 15.31616211 8.53352539 15.31616211 4.11352539 C14.32616211 4.11352539 13.33616211 4.11352539 12.31616211 4.11352539 C12.16147461 5.53665039 12.16147461 5.53665039 12.00366211 6.98852539 C11.31616211 10.11352539 11.31616211 10.11352539 8.31616211 12.11352539 C5.98416823 12.19257603 3.64783589 12.20151308 1.31616211 12.11352539 C1.31616211 13.76352539 1.31616211 15.41352539 1.31616211 17.11352539 C-0.33383789 17.11352539 -1.98383789 17.11352539 -3.68383789 17.11352539 C-3.71068468 14.46762525 -3.73060146 11.82199443 -3.74633789 9.17602539 C-3.7547168 8.4212793 -3.7630957 7.6665332 -3.77172852 6.88891602 C-3.7803623 4.96358226 -3.73608122 3.03816958 -3.68383789 1.11352539 C-2.68383789 0.11352539 -2.68383789 0.11352539 0 0 Z M1.31616211 4.11352539 C1.31616211 5.10352539 1.31616211 6.09352539 1.31616211 7.11352539 C3.29616211 7.11352539 5.27616211 7.11352539 7.31616211 7.11352539 C6.98616211 6.12352539 6.65616211 5.13352539 6.31616211 4.11352539 C4.66616211 4.11352539 3.01616211 4.11352539 1.31616211 4.11352539 Z " fill="#9A9A9A" transform="translate(17.683837890625,95.886474609375)"/>
<path d="M0 0 C3.96 0 7.92 0 12 0 C13.32 2.64 14.64 5.28 16 8 C16.33 5.36 16.66 2.72 17 0 C18.32 0 19.64 0 21 0 C21 5.61 21 11.22 21 17 C19.35 17 17.7 17 16 17 C13.6875 14 13.6875 14 12 11 C11.67 12.98 11.34 14.96 11 17 C7.37 17 3.74 17 0 17 C0 11.39 0 5.78 0 0 Z " fill="#5F5F5F" transform="translate(135,96)"/>
<path d="M0 0 C1.65 0 3.3 0 5 0 C5.33 0.66 5.66 1.32 6 2 C6.33 1.67 6.66 1.34 7 1 C8.85287502 0.92773498 10.70833878 0.9161878 12.5625 0.9375 C13.57441406 0.94652344 14.58632812 0.95554687 15.62890625 0.96484375 C16.80259766 0.98224609 16.80259766 0.98224609 18 1 C18 1.66 18 2.32 18 3 C15.36 3 12.72 3 10 3 C9.67 4.32 9.34 5.64 9 7 C11.97 7 14.94 7 18 7 C18 7.99 18 8.98 18 10 C15.03 10 12.06 10 9 10 C9.33 10.99 9.66 11.98 10 13 C12.64 13.33 15.28 13.66 18 14 C18 14.66 18 15.32 18 16 C16.58376784 16.05447047 15.16691809 16.09300508 13.75 16.125 C12.56664062 16.15980469 12.56664062 16.15980469 11.359375 16.1953125 C8.79268059 15.9828378 7.2083933 15.28654105 5 14 C5 14.99 5 15.98 5 17 C2.8125 17.5 2.8125 17.5 0 17 C-2.88348242 13.65671903 -5 10.46253766 -5 6 C-5.66 6 -6.32 6 -7 6 C-7 9.3 -7 12.6 -7 16 C-7.66 16 -8.32 16 -9 16 C-9 11.05 -9 6.1 -9 1 C-7.35 1 -5.7 1 -4 1 C-3.01 2.98 -2.02 4.96 -1 7 C-0.67 4.69 -0.34 2.38 0 0 Z " fill="#545454" transform="translate(199,96)"/>
<path d="M0 0 C3.62493334 -0.05787784 7.24974857 -0.0935542 10.875 -0.125 C11.90753906 -0.14175781 12.94007813 -0.15851562 14.00390625 -0.17578125 C14.99003906 -0.18222656 15.97617188 -0.18867188 16.9921875 -0.1953125 C18.35899658 -0.21102295 18.35899658 -0.21102295 19.75341797 -0.22705078 C22 0 22 0 24 2 C24.17517747 4.72485728 24.23149133 7.34659362 24.1953125 10.0703125 C24.1924826 10.86654022 24.18965271 11.66276794 24.18673706 12.48312378 C24.1755264 15.03056763 24.15042062 17.57766211 24.125 20.125 C24.11497133 21.85025535 24.10584528 23.57551619 24.09765625 25.30078125 C24.07558422 29.53398914 24.04104867 33.7669353 24 38 C23.67 38 23.34 38 23 38 C22.505 25.13 22.505 25.13 22 12 C20.02 12.99 20.02 12.99 18 14 C18 21.92 18 29.84 18 38 C17.67 38 17.34 38 17 38 C16.67 28.43 16.34 18.86 16 9 C10.72 8.67 5.44 8.34 0 8 C0 5.36 0 2.72 0 0 Z " fill="#ED1B26" transform="translate(122,28)"/>
<path d="M0 0 C1.99954746 -0.04254356 4.00041636 -0.04080783 6 0 C7.96822886 1.96822886 7.66248381 5.34808709 8 8 C9.32 5.36 10.64 2.72 12 0 C13.65 0 15.3 0 17 0 C18.0067004 2.26807204 19.00551766 4.53907754 20 6.8125 C20.28617188 7.45509766 20.57234375 8.09769531 20.8671875 8.75976562 C22.13711041 11.67756469 23 13.78265714 23 17 C21.35 17 19.7 17 18 17 C17.67 16.01 17.34 15.02 17 14 C14.58380177 13.74969023 14.58380177 13.74969023 12 14 C11.01 15.485 11.01 15.485 10 17 C8.0546875 17.29296875 8.0546875 17.29296875 5.875 17.1875 C4.59625 17.125625 3.3175 17.06375 2 17 C1.77825067 15.54364629 1.57301302 14.08477044 1.375 12.625 C1.25898437 11.81289062 1.14296875 11.00078125 1.0234375 10.1640625 C1.01570313 9.44992188 1.00796875 8.73578125 1 8 C1.66 7.34 2.32 6.68 3 6 C3 9.3 3 12.6 3 16 C3.66 15.67 4.32 15.34 5 15 C5 10.38 5 5.76 5 1 C3.35 1.33 1.7 1.66 0 2 C0 1.34 0 0.68 0 0 Z M14 7 C13.67 7.66 13.34 8.32 13 9 C13.66 9 14.32 9 15 9 C14.67 8.34 14.34 7.68 14 7 Z " fill="#737373" transform="translate(108,96)"/>
<path d="M0 0 C10.83943966 -0.38712284 10.83943966 -0.38712284 15 3 C15.99 3 16.98 3 18 3 C19.125 6.75 19.125 6.75 18 9 C16.68 9 15.36 9 14 9 C14 11.31 14 13.62 14 16 C11.23547967 17.38226016 8.9538637 17.09525387 5.875 17.0625 C2.966875 17.0315625 2.966875 17.0315625 0 17 C0 11.39 0 5.78 0 0 Z M5 4 C5 6.97 5 9.94 5 13 C6.65 13 8.3 13 10 13 C10.67673447 9.59679066 10.67673447 9.59679066 11 6 C10.34 5.34 9.68 4.68 9 4 C7.68 4 6.36 4 5 4 Z " fill="#171717" transform="translate(157,96)"/>
<path d="M0 0 C3.06669937 0.09154326 6.13207861 0.19803224 9.19775391 0.31933594 C10.79876953 0.35994141 10.79876953 0.35994141 12.43212891 0.40136719 C13.45564453 0.44132812 14.47916016 0.48128906 15.53369141 0.52246094 C16.47519043 0.55500977 17.41668945 0.58755859 18.38671875 0.62109375 C21.27422995 1.1524097 22.01333062 1.81050919 23.82275391 4.06933594 C24.09665422 6.99931893 24.19536068 9.7121601 24.15087891 12.63964844 C24.14900574 13.47648163 24.14713257 14.31331482 24.14520264 15.17550659 C24.13848432 16.94240306 24.12457413 18.70928472 24.10400391 20.47607422 C24.07279347 23.19089462 24.06302784 25.90513502 24.05712891 28.62011719 C24.04796126 30.33496807 24.03758624 32.04981301 24.02587891 33.76464844 C24.01950409 34.98959518 24.01950409 34.98959518 24.01300049 36.23928833 C23.93991848 41.95217136 23.93991848 41.95217136 22.82275391 43.06933594 C21.15846339 43.16757531 19.4899346 43.19907225 17.82275391 43.19433594 C16.46150391 43.19820312 16.46150391 43.19820312 15.07275391 43.20214844 C12.82275391 43.06933594 12.82275391 43.06933594 11.82275391 42.06933594 C11.73484416 39.77782177 11.71581352 37.48361069 11.72509766 35.19042969 C11.7265126 34.50376724 11.72792755 33.8171048 11.72938538 33.1096344 C11.73499911 30.90865793 11.74755384 28.70778185 11.76025391 26.50683594 C11.76526714 25.01790511 11.76983035 23.5289727 11.77392578 22.04003906 C11.78412369 18.38306788 11.80369611 14.72631477 11.82275391 11.06933594 C6.87275391 11.06933594 1.92275391 11.06933594 -3.17724609 11.06933594 C-3.27490234 3.35449219 -3.27490234 3.35449219 -3.17724609 1.06933594 C-2.17724609 0.06933594 -2.17724609 0.06933594 0 0 Z M-2.17724609 2.06933594 C-2.17724609 4.70933594 -2.17724609 7.34933594 -2.17724609 10.06933594 C4.75275391 10.56433594 4.75275391 10.56433594 11.82275391 11.06933594 C12.15275391 20.96933594 12.48275391 30.86933594 12.82275391 41.06933594 C15.79275391 41.06933594 18.76275391 41.06933594 21.82275391 41.06933594 C21.87211215 35.83660263 21.9084534 30.60400418 21.93261719 25.37109375 C21.94268822 23.59014527 21.95634576 21.80921337 21.97363281 20.02832031 C21.99783303 17.47163811 22.00922575 14.91517409 22.01806641 12.35839844 C22.02838898 11.55939117 22.03871155 10.76038391 22.04934692 9.93716431 C22.04974617 7.97976374 21.94516459 6.02290517 21.82275391 4.06933594 C20.02565827 1.85062601 20.02565827 1.85062601 17.57617188 1.84228516 C16.20936279 1.85799561 16.20936279 1.85799561 14.81494141 1.87402344 C13.82880859 1.88046875 12.84267578 1.88691406 11.82666016 1.89355469 C10.79412109 1.9103125 9.76158203 1.92707031 8.69775391 1.94433594 C7.65748047 1.95335938 6.61720703 1.96238281 5.54541016 1.97167969 C2.97096298 1.99529847 0.39697178 2.02823445 -2.17724609 2.06933594 Z " fill="#F48892" transform="translate(124.17724609375,25.9306640625)"/>
<path d="M0 0 C1.65 0 3.3 0 5 0 C6.0067004 2.26807204 7.00551766 4.53907754 8 6.8125 C8.28617188 7.45509766 8.57234375 8.09769531 8.8671875 8.75976562 C10.13711041 11.67756469 11 13.78265714 11 17 C9.35 17 7.7 17 6 17 C5.67 16.01 5.34 15.02 5 14 C1.28400809 13.79913557 0.22791555 13.8480563 -3 16 C-4.62746924 10.82903389 -3.04405635 6.32012523 -0.875 1.5 C-0.58625 1.005 -0.2975 0.51 0 0 Z M2 6 C1.67 6.99 1.34 7.98 1 9 C1.66 9 2.32 9 3 9 C2.67 8.01 2.34 7.02 2 6 Z " fill="#111111" transform="translate(244,96)"/>
<path d="M0 0 C1.51400391 0.01740234 1.51400391 0.01740234 3.05859375 0.03515625 C4.07050781 0.04417969 5.08242188 0.05320312 6.125 0.0625 C7.29869141 0.07990234 7.29869141 0.07990234 8.49609375 0.09765625 C8.82609375 0.75765625 9.15609375 1.41765625 9.49609375 2.09765625 C5.04109375 2.59265625 5.04109375 2.59265625 0.49609375 3.09765625 C0.49609375 4.74765625 0.49609375 6.39765625 0.49609375 8.09765625 C3.13609375 8.09765625 5.77609375 8.09765625 8.49609375 8.09765625 C8.49609375 6.44765625 8.49609375 4.79765625 8.49609375 3.09765625 C9.15609375 3.09765625 9.81609375 3.09765625 10.49609375 3.09765625 C10.49609375 5.73765625 10.49609375 8.37765625 10.49609375 11.09765625 C7.53944856 12.57597885 4.75379638 12.15798408 1.49609375 12.09765625 C1.49609375 13.74765625 1.49609375 15.39765625 1.49609375 17.09765625 C-0.15390625 17.09765625 -1.80390625 17.09765625 -3.50390625 17.09765625 C-3.53075304 14.45175611 -3.55066982 11.80612529 -3.56640625 9.16015625 C-3.57478516 8.40541016 -3.58316406 7.65066406 -3.59179688 6.87304688 C-3.60043066 4.94771312 -3.55614958 3.02230044 -3.50390625 1.09765625 C-2.50390625 0.09765625 -2.50390625 0.09765625 0 0 Z " fill="#282828" transform="translate(17.50390625,95.90234375)"/>
<path d="M0 0 C8.33333333 0 16.66666667 0 25 0 C25 1.32 25 2.64 25 4 C21.7 4.33 18.4 4.66 15 5 C15 5.33 15 5.66 15 6 C17.97 6.33 20.94 6.66 24 7 C22.02 7.99 22.02 7.99 20 9 C20.33 9.66 20.66 10.32 21 11 C12.42857143 11.14285714 12.42857143 11.14285714 9 10 C9 9.01 9 8.02 9 7 C6.03 7 3.06 7 0 7 C0.33 5.68 0.66 4.36 1 3 C3.64 3 6.28 3 9 3 C9 2.34 9 1.68 9 1 C6.03 1 3.06 1 0 1 C0 0.67 0 0.34 0 0 Z M2 4 C1.67 4.66 1.34 5.32 1 6 C3.64 6 6.28 6 9 6 C9 5.34 9 4.68 9 4 C6.69 4 4.38 4 2 4 Z " fill="#818181" transform="translate(208,96)"/>
<path d="M0 0 C3.96 0 7.92 0 12 0 C11.67 0.66 11.34 1.32 11 2 C9.68 1.67 8.36 1.34 7 1 C7 5.95 7 10.9 7 16 C7.99 16 8.98 16 10 16 C10 13.69 10 11.38 10 9 C10.33 9 10.66 9 11 9 C11 11.64 11 14.28 11 17 C7.37 17 3.74 17 0 17 C0 11.39 0 5.78 0 0 Z " fill="#A8A8A8" transform="translate(135,96)"/>
<path d="M0 0 C3.96 0 7.92 0 12 0 C11.67 0.66 11.34 1.32 11 2 C9.35 1.67 7.7 1.34 6 1 C6 5.95 6 10.9 6 16 C6.99 16 7.98 16 9 16 C9 12.7 9 9.4 9 6 C9.66 6.66 10.32 7.32 11 8 C10.96692593 11.05383879 10.43304158 13.96870896 10 17 C6.7 17 3.4 17 0 17 C0 11.39 0 5.78 0 0 Z " fill="#A2A2A2" transform="translate(90,96)"/>
<path d="M0 0 C0.9075 0.00257812 1.815 0.00515625 2.75 0.0078125 C4.11125 0.00394531 4.11125 0.00394531 5.5 0 C7.75 0.1328125 7.75 0.1328125 8.75 1.1328125 C8.89257189 4.46899481 8.79228157 7.79256856 8.75 11.1328125 C4.79 11.1328125 0.83 11.1328125 -3.25 11.1328125 C-3.34765625 3.41796875 -3.34765625 3.41796875 -3.25 1.1328125 C-2.25 0.1328125 -2.25 0.1328125 0 0 Z " fill="#EF4953" transform="translate(108.25,25.8671875)"/>
<path d="M0 0 C1.51400391 0.01740234 1.51400391 0.01740234 3.05859375 0.03515625 C4.07050781 0.04417969 5.08242187 0.05320312 6.125 0.0625 C7.29869141 0.07990234 7.29869141 0.07990234 8.49609375 0.09765625 C8.49609375 0.75765625 8.49609375 1.41765625 8.49609375 2.09765625 C5.85609375 2.09765625 3.21609375 2.09765625 0.49609375 2.09765625 C0.16609375 3.41765625 -0.16390625 4.73765625 -0.50390625 6.09765625 C2.46609375 6.09765625 5.43609375 6.09765625 8.49609375 6.09765625 C8.49609375 7.08765625 8.49609375 8.07765625 8.49609375 9.09765625 C5.52609375 9.09765625 2.55609375 9.09765625 -0.50390625 9.09765625 C-0.17390625 10.08765625 0.15609375 11.07765625 0.49609375 12.09765625 C3.13609375 12.42765625 5.77609375 12.75765625 8.49609375 13.09765625 C8.49609375 13.75765625 8.49609375 14.41765625 8.49609375 15.09765625 C7.05901285 15.15188572 5.62133913 15.19055348 4.18359375 15.22265625 C3.38308594 15.24585937 2.58257812 15.2690625 1.7578125 15.29296875 C-0.50390625 15.09765625 -0.50390625 15.09765625 -3.50390625 13.09765625 C-3.83203125 10.3125 -3.83203125 10.3125 -3.75390625 7.03515625 C-3.7384375 5.95105469 -3.72296875 4.86695312 -3.70703125 3.75 C-3.43008942 0.13377884 -3.43008942 0.13377884 0 0 Z " fill="#1B1B1B" transform="translate(208.50390625,96.90234375)"/>
<path d="M0 0 C1.81242052 -0.02687279 3.62495233 -0.04633715 5.4375 -0.0625 C6.44683594 -0.07410156 7.45617187 -0.08570313 8.49609375 -0.09765625 C11 0 11 0 12 1 C12.09959621 2.84159023 12.13080411 4.68696967 12.1328125 6.53125 C12.13474609 8.21154297 12.13474609 8.21154297 12.13671875 9.92578125 C12.13285156 11.10527344 12.12898437 12.28476562 12.125 13.5 C12.12886719 14.67949219 12.13273438 15.85898437 12.13671875 17.07421875 C12.13542969 18.19441406 12.13414062 19.31460938 12.1328125 20.46875 C12.13168457 21.50451172 12.13055664 22.54027344 12.12939453 23.60742188 C12 26 12 26 11 27 C9.33570949 27.09823937 7.66718069 27.12973631 6 27.125 C4.63875 27.12886719 4.63875 27.12886719 3.25 27.1328125 C1 27 1 27 0 26 C-0.08748207 24.07332493 -0.10697334 22.14348139 -0.09765625 20.21484375 C-0.09443359 19.04501953 -0.09121094 17.87519531 -0.08789062 16.66992188 C-0.07951172 15.43822266 -0.07113281 14.20652344 -0.0625 12.9375 C-0.05798828 11.70193359 -0.05347656 10.46636719 -0.04882812 9.19335938 C-0.03699608 6.12885883 -0.02051173 3.06445279 0 0 Z M1 1 C1 8.92 1 16.84 1 25 C3.97 25 6.94 25 10 25 C10 17.08 10 9.16 10 1 C7.03 1 4.06 1 1 1 Z " fill="#F58B93" transform="translate(121,42)"/>
<path d="M0 0 C0.33 0 0.66 0 1 0 C1 8.25 1 16.5 1 25 C3.97 25 6.94 25 10 25 C10 17.08 10 9.16 10 1 C10.66 0.67 11.32 0.34 12 0 C12.02886537 4.31248609 12.04675255 8.62494762 12.0625 12.9375 C12.07087891 14.16919922 12.07925781 15.40089844 12.08789062 16.66992188 C12.09111328 17.83974609 12.09433594 19.00957031 12.09765625 20.21484375 C12.10289307 21.29886475 12.10812988 22.38288574 12.11352539 23.49975586 C12 26 12 26 11 27 C9.33570949 27.09823937 7.66718069 27.12973631 6 27.125 C4.63875 27.12886719 4.63875 27.12886719 3.25 27.1328125 C1 27 1 27 0 26 C-0.08748207 24.07332493 -0.10697334 22.14348139 -0.09765625 20.21484375 C-0.09443359 19.04501953 -0.09121094 17.87519531 -0.08789062 16.66992188 C-0.07951172 15.43822266 -0.07113281 14.20652344 -0.0625 12.9375 C-0.05798828 11.70193359 -0.05347656 10.46636719 -0.04882812 9.19335938 C-0.03699608 6.12885883 -0.02051173 3.06445279 0 0 Z " fill="#F3737F" transform="translate(105,42)"/>
<path d="M0 0 C2.375 -0.1875 2.375 -0.1875 5 0 C7.5847236 3.87708541 7.62782738 6.38505957 8 11 C7 12 7 12 5.1875 12.1328125 C4.465625 12.13023438 3.74375 12.12765625 3 12.125 C2.278125 12.12757812 1.55625 12.13015625 0.8125 12.1328125 C-1 12 -1 12 -2 11 C-2.28743526 6.78428287 -1.79760213 3.81990452 0 0 Z M2 7 C2 7.66 2 8.32 2 9 C2.66 8.67 3.32 8.34 4 8 C3.34 7.67 2.68 7.34 2 7 Z " fill="#292929" transform="translate(68,96)"/>
<path d="M0 0 C10.00211416 -0.602537 10.00211416 -0.602537 12.84375 1.11328125 C14.1875 2.5 14.1875 2.5 16 5 C15.01 4.67 14.02 4.34 13 4 C12.87625 5.27875 12.7525 6.5575 12.625 7.875 C12.25 11.75 12.25 11.75 10 14 C6.875 14.125 6.875 14.125 4 14 C4 10.37 4 6.74 4 3 C5.98 3 7.96 3 10 3 C10 2.34 10 1.68 10 1 C7.03 1 4.06 1 1 1 C1 5.95 1 10.9 1 16 C7.435 15.505 7.435 15.505 14 15 C12 17 12 17 9.1796875 17.1953125 C6.11979167 17.13020833 3.05989583 17.06510417 0 17 C0 11.39 0 5.78 0 0 Z M5 4 C5 6.97 5 9.94 5 13 C6.65 13 8.3 13 10 13 C10.67673447 9.59679066 10.67673447 9.59679066 11 6 C10.34 5.34 9.68 4.68 9 4 C7.68 4 6.36 4 5 4 Z " fill="#7D7D7D" transform="translate(157,96)"/>
<path d="M0 0 C2.625 -0.1875 2.625 -0.1875 5 0 C3.68 0.33 2.36 0.66 1 1 C1 5.95 1 10.9 1 16 C1.66 16 2.32 16 3 16 C3 12.7 3 9.4 3 6 C3.66 6 4.32 6 5 6 C4.67 9.63 4.34 13.26 4 17 C1.66666667 17 -0.66666667 17 -3 17 C-5.01014894 17.31907126 -7.02023115 17.63891739 -9.02734375 17.9765625 C-11 18 -11 18 -14 16 C-10.7 16 -7.4 16 -4 16 C-4 15.01 -4 14.02 -4 13 C-4.66 13 -5.32 13 -6 13 C-5.67 10.69 -5.34 8.38 -5 6 C-3.5393715 8.64738916 -3 9.89448334 -3 13 C-2.34 13 -1.68 13 -1 13 C-1.09539062 12.31292969 -1.19078125 11.62585938 -1.2890625 10.91796875 C-1.39992187 10.01691406 -1.51078125 9.11585937 -1.625 8.1875 C-1.74101562 7.29417969 -1.85703125 6.40085937 -1.9765625 5.48046875 C-2 3 -2 3 0 0 Z " fill="#868686" transform="translate(189,96)"/>
<path d="M0 0 C1.32 0 2.64 0 4 0 C4 4.62 4 9.24 4 14 C-1.625 16.25 -1.625 16.25 -5.3125 16.125 C-6.529375 16.08375 -7.74625 16.0425 -9 16 C-8.67 14.68 -8.34 13.36 -8 12 C-8 12.66 -8 13.32 -8 14 C-5.69 14 -3.38 14 -1 14 C-0.67 9.38 -0.34 4.76 0 0 Z " fill="#2D2D2D" transform="translate(85,96)"/>
<path d="M0 0 C1.9451 2.91765 2.45276317 4.62537285 3 8 C4.98 8 6.96 8 9 8 C9 8.33 9 8.66 9 9 C6.69 9 4.38 9 2 9 C1.67 9.66 1.34 10.32 1 11 C6.94 10.505 6.94 10.505 13 10 C10.38826365 12.61173635 9.12801112 12.2981789 5.5 12.3125 C4.5203125 12.32925781 3.540625 12.34601563 2.53125 12.36328125 C1.27828125 12.18345703 1.27828125 12.18345703 0 12 C-0.66 11.01 -1.32 10.02 -2 9 C-4.58380177 8.74969023 -4.58380177 8.74969023 -7 9 C-7.33 9.99 -7.66 10.98 -8 12 C-10.64 12 -13.28 12 -16 12 C-16.33 11.01 -16.66 10.02 -17 9 C-16.34 9 -15.68 9 -15 9 C-15 9.66 -15 10.32 -15 11 C-13.02 11 -11.04 11 -9 11 C-9 10.01 -9 9.02 -9 8 C-10.32 8.33 -11.64 8.66 -13 9 C-12.01 7.02 -11.02 5.04 -10 3 C-9.01 4.485 -9.01 4.485 -8 6 C-6.02252878 6.36297936 -6.02252878 6.36297936 -3.875 6.1875 C-2.59625 6.125625 -1.3175 6.06375 0 6 C0 4.02 0 2.04 0 0 Z " fill="#727272" transform="translate(75,101)"/>
<path d="M0 0 C0.33 0 0.66 0 1 0 C1.33 1.98 1.66 3.96 2 6 C4.31 6.33 6.62 6.66 9 7 C9 7.99 9 8.98 9 10 C7.22925083 10.02705729 5.45838289 10.04642195 3.6875 10.0625 C2.70136719 10.07410156 1.71523437 10.08570312 0.69921875 10.09765625 C-2 10 -2 10 -5 9 C-5.33 6.69 -5.66 4.38 -6 2 C-3.525 2.495 -3.525 2.495 -1 3 C-0.67 2.01 -0.34 1.02 0 0 Z " fill="#626262" transform="translate(176,102)"/>
<path d="M0 0 C1.65 0 3.3 0 5 0 C6.79760213 3.81990452 7.28743526 6.78428287 7 11 C4.95301586 13.04698414 0.69588759 12.70045693 -2 13 C-3 10 -3 10 -2.0625 7.8125 C-1.711875 7.214375 -1.36125 6.61625 -1 6 C-0.67 7.32 -0.34 8.64 0 10 C1.32 10 2.64 10 4 10 C3.67 8.35 3.34 6.7 3 5 C2.01 4.67 1.02 4.34 0 4 C0 2.68 0 1.36 0 0 Z " fill="#121212" transform="translate(120,96)"/>
<path d="M0 0 C1.51400391 0.01740234 1.51400391 0.01740234 3.05859375 0.03515625 C4.07050781 0.04417969 5.08242188 0.05320312 6.125 0.0625 C7.29869141 0.07990234 7.29869141 0.07990234 8.49609375 0.09765625 C8.49609375 0.42765625 8.49609375 0.75765625 8.49609375 1.09765625 C5.19609375 1.09765625 1.89609375 1.09765625 -1.50390625 1.09765625 C-1.50390625 4.72765625 -1.50390625 8.35765625 -1.50390625 12.09765625 C-0.84390625 11.76765625 -0.18390625 11.43765625 0.49609375 11.09765625 C3.16845585 10.96350153 5.81859863 11.05447084 8.49609375 11.09765625 C8.49609375 11.42765625 8.49609375 11.75765625 8.49609375 12.09765625 C6.18609375 12.09765625 3.87609375 12.09765625 1.49609375 12.09765625 C1.49609375 13.74765625 1.49609375 15.39765625 1.49609375 17.09765625 C-0.15390625 17.09765625 -1.80390625 17.09765625 -3.50390625 17.09765625 C-3.53075304 14.45175611 -3.55066982 11.80612529 -3.56640625 9.16015625 C-3.57478516 8.40541016 -3.58316406 7.65066406 -3.59179688 6.87304688 C-3.60043066 4.94771312 -3.55614958 3.02230044 -3.50390625 1.09765625 C-2.50390625 0.09765625 -2.50390625 0.09765625 0 0 Z " fill="#7E7E7E" transform="translate(17.50390625,95.90234375)"/>
<path d="M0 0 C4.29 0 8.58 0 13 0 C13 0.66 13 1.32 13 2 C11.35 2 9.7 2 8 2 C8 6.29 8 10.58 8 15 C7.01 15 6.02 15 5 15 C5 10.71 5 6.42 5 2 C3.35 2 1.7 2 0 2 C0 1.34 0 0.68 0 0 Z " fill="#131313" transform="translate(29,97)"/>
<path d="M0 0 C1.32 0 2.64 0 4 0 C4.33 4.95 4.66 9.9 5 15 C4.01 15 3.02 15 2 15 C1.67 12.36 1.34 9.72 1 7 C0.01 7.99 -0.98 8.98 -2 10 C-1.85950482 8.52031676 -1.71245174 7.04125484 -1.5625 5.5625 C-1.48128906 4.73878906 -1.40007812 3.91507812 -1.31640625 3.06640625 C-1 1 -1 1 0 0 Z " fill="#121212" transform="translate(109,97)"/>
<path d="M0 0 C3.96 0 7.92 0 12 0 C12 2.64 12 5.28 12 8 C7.71 8 3.42 8 -1 8 C-1 7.34 -1 6.68 -1 6 C2.3 5.67 5.6 5.34 9 5 C8.67 4.01 8.34 3.02 8 2 C5.36 1.67 2.72 1.34 0 1 C0 0.67 0 0.34 0 0 Z " fill="#111111" transform="translate(220,104)"/>
<path d="M0 0 C0.99 0 1.98 0 3 0 C3 4.95 3 9.9 3 15 C1.68 14.67 0.36 14.34 -1 14 C-1 10.83772601 -0.82985212 7.88359512 -0.5 4.75 C-0.4071875 3.85796875 -0.314375 2.9659375 -0.21875 2.046875 C-0.1465625 1.37140625 -0.074375 0.6959375 0 0 Z " fill="#131313" transform="translate(200,97)"/>
<path d="M0 0 C1.51400391 0.01740234 1.51400391 0.01740234 3.05859375 0.03515625 C4.07050781 0.04417969 5.08242187 0.05320312 6.125 0.0625 C7.29869141 0.07990234 7.29869141 0.07990234 8.49609375 0.09765625 C8.49609375 0.75765625 8.49609375 1.41765625 8.49609375 2.09765625 C5.85609375 2.09765625 3.21609375 2.09765625 0.49609375 2.09765625 C0.16609375 3.41765625 -0.16390625 4.73765625 -0.50390625 6.09765625 C2.46609375 6.09765625 5.43609375 6.09765625 8.49609375 6.09765625 C8.49609375 6.42765625 8.49609375 6.75765625 8.49609375 7.09765625 C4.86609375 7.09765625 1.23609375 7.09765625 -2.50390625 7.09765625 C-2.88523924 5.10625065 -3.21716207 3.10486548 -3.50390625 1.09765625 C-2.50390625 0.09765625 -2.50390625 0.09765625 0 0 Z " fill="#282828" transform="translate(208.50390625,96.90234375)"/>
<path d="M0 0 C2.97903734 2.97903734 4 5.80285329 4 10 C2.35 10 0.7 10 -1 10 C-1.33 9.01 -1.66 8.02 -2 7 C-4.41645782 6.83312552 -4.41645782 6.83312552 -7 7 C-7.66 7.66 -8.32 8.32 -9 9 C-8.67 7.68 -8.34 6.36 -8 5 C-4.535 4.505 -4.535 4.505 -1 4 C-0.67 2.68 -0.34 1.36 0 0 Z " fill="#5C5C5C" transform="translate(127,103)"/>
<path d="M0 0 C0.99 0 1.98 0 3 0 C3 4.95 3 9.9 3 15 C2.01 15 1.02 15 0 15 C0 10.05 0 5.1 0 0 Z " fill="#171717" transform="translate(136,97)"/>
<path d="M0 0 C0.99 0 1.98 0 3 0 C3 4.95 3 9.9 3 15 C2.01 15 1.02 15 0 15 C0 10.05 0 5.1 0 0 Z " fill="#1C1C1C" transform="translate(91,97)"/>
<path d="M0 0 C2.83374881 3.20336822 3.5205537 5.78087253 4 10 C2.35 10 0.7 10 -1 10 C-1.33 9.01 -1.66 8.02 -2 7 C-5.62885324 6.84850702 -5.62885324 6.84850702 -9 8 C-8.67 7.01 -8.34 6.02 -8 5 C-4.535 4.505 -4.535 4.505 -1 4 C-0.67 2.68 -0.34 1.36 0 0 Z " fill="#5B5B5B" transform="translate(251,103)"/>
<path d="M0 0 C2.97 0 5.94 0 9 0 C9 0.66 9 1.32 9 2 C7.02 2.33 5.04 2.66 3 3 C2.34 6.96 1.68 10.92 1 15 C0.67 15 0.34 15 0 15 C0 10.05 0 5.1 0 0 Z " fill="#0D0D0D" transform="translate(158,97)"/>
<path d="M0 0 C1.32 0 2.64 0 4 0 C4 1.32 4 2.64 4 4 C3.34 4 2.68 4 2 4 C2.33 7.63 2.66 11.26 3 15 C2.01 15 1.02 15 0 15 C0 10.05 0 5.1 0 0 Z " fill="#131313" transform="translate(142,97)"/>
<path d="M0 0 C1.32 0.33 2.64 0.66 4 1 C3.01 1 2.02 1 1 1 C1 5.95 1 10.9 1 16 C3.31 16 5.62 16 8 16 C8 16.33 8 16.66 8 17 C0.25 17.125 0.25 17.125 -2 16 C-2 13.36 -2 10.72 -2 8 C-1.67 8 -1.34 8 -1 8 C-0.67 5.36 -0.34 2.72 0 0 Z " fill="#767676" transform="translate(234,96)"/>
<path d="M0 0 C1.31745347 4.70519095 2.57012675 9.28961976 1 14 C-0.98 14 -2.96 14 -5 14 C-5.33 12.35 -5.66 10.7 -6 9 C-5.01 9.495 -5.01 9.495 -4 10 C-4 10.99 -4 11.98 -4 13 C-2.68 13 -1.36 13 0 13 C0 12.34 0 11.68 0 11 C-0.66 11 -1.32 11 -2 11 C-2.33 9.35 -2.66 7.7 -3 6 C-2.34 6 -1.68 6 -1 6 C-0.67 4.02 -0.34 2.04 0 0 Z " fill="#767676" transform="translate(107,99)"/>
<path d="M0 0 C0.66 0 1.32 0 2 0 C2 4.95 2 9.9 2 15 C0.68 15 -0.64 15 -2 15 C-2.33 13.68 -2.66 12.36 -3 11 C-2.01 11 -1.02 11 0 11 C0 7.37 0 3.74 0 0 Z " fill="#090909" transform="translate(153,97)"/>
<path d="M0 0 C1.65 0 3.3 0 5 0 C3.515 1.98 3.515 1.98 2 4 C2.66 4 3.32 4 4 4 C4.33 5.98 4.66 7.96 5 10 C3.68 10 2.36 10 1 10 C0.67 9.01 0.34 8.02 0 7 C-0.66 7 -1.32 7 -2 7 C-1.34 4.69 -0.68 2.38 0 0 Z M2 7 C2 7.66 2 8.32 2 9 C2.66 8.67 3.32 8.34 4 8 C3.34 7.67 2.68 7.34 2 7 Z " fill="#757575" transform="translate(68,96)"/>
<path d="M0 0 C1.2065625 0.0309375 1.2065625 0.0309375 2.4375 0.0625 C2.1075 0.7225 1.7775 1.3825 1.4375 2.0625 C0.7775 2.0625 0.1175 2.0625 -0.5625 2.0625 C-0.8925 3.0525 -1.2225 4.0425 -1.5625 5.0625 C-0.9025 5.3925 -0.2425 5.7225 0.4375 6.0625 C-0.5525 7.5475 -0.5525 7.5475 -1.5625 9.0625 C-0.9025 9.0625 -0.2425 9.0625 0.4375 9.0625 C0.7675 8.4025 1.0975 7.7425 1.4375 7.0625 C1.4375 8.0525 1.4375 9.0425 1.4375 10.0625 C0.1175 10.0625 -1.2025 10.0625 -2.5625 10.0625 C-2.5625 9.0725 -2.5625 8.0825 -2.5625 7.0625 C-3.5525 7.3925 -4.5425 7.7225 -5.5625 8.0625 C-3.38616071 0.08258929 -3.38616071 0.08258929 0 0 Z " fill="#727272" transform="translate(246.5625,95.9375)"/>
<path d="M0 0 C0 2.64 0 5.28 0 8 C-0.33 8 -0.66 8 -1 8 C-1 5.69 -1 3.38 -1 1 C-1.66 1 -2.32 1 -3 1 C-3 2.65 -3 4.3 -3 6 C-5.64 6 -8.28 6 -11 6 C-11 4.35 -11 2.7 -11 1 C-7.27569643 0.30710631 -3.78916254 -0.11144596 0 0 Z M-10 2 C-10 2.99 -10 3.98 -10 5 C-8.02 5 -6.04 5 -4 5 C-4.33 4.01 -4.66 3.02 -5 2 C-6.65 2 -8.3 2 -10 2 Z " fill="#656565" transform="translate(29,98)"/>
<path d="M0 0 C-1.44253657 3.36591866 -3.33264727 5.51047079 -6 8 C-6.66 6.35 -7.32 4.7 -8 3 C-5.53387212 -0.1151089 -3.89156016 -0.31553191 0 0 Z " fill="#5B5B5B" transform="translate(65,96)"/>
<path d="M0 0 C1.88391785 3.26545761 2.49287967 6.28111761 3 10 C-1.32734391 12.22923777 -4.28400182 11.92470553 -9 11 C-9 10.67 -9 10.34 -9 10 C-5.7 10 -2.4 10 1 10 C1 9.01 1 8.02 1 7 C0.34 7 -0.32 7 -1 7 C-0.67 4.69 -0.34 2.38 0 0 Z " fill="#6D6D6D" transform="translate(184,102)"/>
<path d="M0 0 C1.65 0 3.3 0 5 0 C5.66 2.31 6.32 4.62 7 7 C5.68 7 4.36 7 3 7 C3 6.34 3 5.68 3 5 C2.01 4.67 1.02 4.34 0 4 C0 2.68 0 1.36 0 0 Z " fill="#444444" transform="translate(120,96)"/>
<path d="M0 0 C0.99 0 1.98 0 3 0 C4.20272819 2.40545638 4.10071472 3.94996953 4.0625 6.625 C4.05347656 7.44226563 4.04445312 8.25953125 4.03515625 9.1015625 C4.02355469 9.72804688 4.01195312 10.35453125 4 11 C3.34 11 2.68 11 2 11 C0.80712589 7.12315913 0 4.08378077 0 0 Z " fill="#212121" transform="translate(184,98)"/>
<path d="M0 0 C3.2542015 2.83430453 4.5206753 4.68607774 5 9 C3.68 9 2.36 9 1 9 C0.67 8.01 0.34 7.02 0 6 C-0.33 6.99 -0.66 7.98 -1 9 C-1.66 9 -2.32 9 -3 9 C-2.01 6.03 -1.02 3.06 0 0 Z M3 6 C2.67 6.66 2.34 7.32 2 8 C2.66 8 3.32 8 4 8 C3.67 7.34 3.34 6.68 3 6 Z " fill="#828282" transform="translate(119,97)"/>
<path d="M0 0 C0.33 0 0.66 0 1 0 C1 3.3 1 6.6 1 10 C3.64 10 6.28 10 9 10 C7 12 7 12 5.0546875 12.1953125 C3.03645833 12.13020833 1.01822917 12.06510417 -1 12 C-0.67 8.04 -0.34 4.08 0 0 Z " fill="#1E1E1E" transform="translate(160,100)"/>
<path d="M0 0 C0.66 0 1.32 0 2 0 C2.33 2.31 2.66 4.62 3 7 C2.01 7 1.02 7 0 7 C-0.66 7.99 -1.32 8.98 -2 10 C-2 7.69 -2 5.38 -2 3 C-1.34 3 -0.68 3 0 3 C0 2.01 0 1.02 0 0 Z " fill="#4D4D4D" transform="translate(146,98)"/>
<path d="M0 0 C1.50433594 0.01353516 1.50433594 0.01353516 3.0390625 0.02734375 C3.80992187 0.03894531 4.58078125 0.05054687 5.375 0.0625 C5.375 0.7225 5.375 1.3825 5.375 2.0625 C4.52035156 2.11148438 3.66570312 2.16046875 2.78515625 2.2109375 C1.68042969 2.28570312 0.57570312 2.36046875 -0.5625 2.4375 C-1.66464844 2.50710937 -2.76679688 2.57671875 -3.90234375 2.6484375 C-4.80082031 2.78507812 -5.69929687 2.92171875 -6.625 3.0625 C-6.955 3.7225 -7.285 4.3825 -7.625 5.0625 C-7.625 3.7425 -7.625 2.4225 -7.625 1.0625 C-4.98041621 -0.25979189 -2.94738699 -0.03427194 0 0 Z " fill="#0D0D0D" transform="translate(226.625,96.9375)"/>
<path d="M0 0 C4.29 0 8.58 0 13 0 C13 0.66 13 1.32 13 2 C11.02 2 9.04 2 7 2 C6.67 2.66 6.34 3.32 6 4 C4.02 3.34 2.04 2.68 0 2 C0 1.34 0 0.68 0 0 Z " fill="#0C0C0C" transform="translate(29,97)"/>
<path d="M0 0 C1.485 0.99 1.485 0.99 3 2 C5.05709596 2.24055468 5.05709596 2.24055468 7.1875 2.125 C8.445625 2.08375 9.70375 2.0425 11 2 C11 2.99 11 3.98 11 5 C7.7 5 4.4 5 1 5 C0.67 3.35 0.34 1.7 0 0 Z " fill="#171717" transform="translate(174,107)"/>
<path d="M0 0 C2.29013653 3.4352048 2.17842973 4.985331 2 9 C-0.64 9 -3.28 9 -6 9 C-6.33 8.01 -6.66 7.02 -7 6 C-6.34 6 -5.68 6 -5 6 C-5 6.66 -5 7.32 -5 8 C-3.02 8 -1.04 8 1 8 C1 7.01 1 6.02 1 5 C-0.32 5.33 -1.64 5.66 -3 6 C-2.01 4.02 -1.02 2.04 0 0 Z " fill="#696969" transform="translate(65,104)"/>
<path d="M0 0 C0.33 0 0.66 0 1 0 C1 1.98 1 3.96 1 6 C3.97 6.495 3.97 6.495 7 7 C7 7.33 7 7.66 7 8 C4.36 8 1.72 8 -1 8 C-1.33 6.35 -1.66 4.7 -2 3 C-1.34 3 -0.68 3 0 3 C0 2.01 0 1.02 0 0 Z " fill="#121212" transform="translate(68,100)"/>
<path d="M0 0 C2.1519437 3.22791555 2.20086443 4.28400809 2 8 C2.66 8.33 3.32 8.66 4 9 C3.67 9.66 3.34 10.32 3 11 C3.66 11 4.32 11 5 11 C5 11.66 5 12.32 5 13 C3.68 13 2.36 13 1 13 C0.83052421 11.58366664 0.66454493 10.16691467 0.5 8.75 C0.4071875 7.96109375 0.314375 7.1721875 0.21875 6.359375 C0 4 0 4 0 0 Z " fill="#3D3D3D" transform="translate(102,99)"/>
<path d="M0 0 C3.63 0 7.26 0 11 0 C7.5647952 2.29013653 6.014669 2.17842973 2 2 C1.67 3.32 1.34 4.64 1 6 C0.67 4.02 0.34 2.04 0 0 Z " fill="#111111" transform="translate(16,97)"/>
<path d="M0 0 C3.63 0.66 7.26 1.32 11 2 C11 2.66 11 3.32 11 4 C8.03 4 5.06 4 2 4 C1.34 2.68 0.68 1.36 0 0 Z " fill="#111111" transform="translate(206,108)"/>
<path d="M0 0 C0.33 0 0.66 0 1 0 C1 2.64 1 5.28 1 8 C0.38125 7.67 -0.2375 7.34 -0.875 7 C-2.91018344 5.85806765 -2.91018344 5.85806765 -5 6 C-5 5.01 -5 4.02 -5 3 C-4.360625 2.87625 -3.72125 2.7525 -3.0625 2.625 C-2.0415625 2.315625 -2.0415625 2.315625 -1 2 C-0.67 1.34 -0.34 0.68 0 0 Z " fill="#ED1C2E" transform="translate(115,28)"/>
<path d="M0 0 C0.66 0 1.32 0 2 0 C2 2.31 2 4.62 2 7 C-0.97 7 -3.94 7 -7 7 C-7 6.67 -7 6.34 -7 6 C-3.535 5.505 -3.535 5.505 0 5 C0 3.35 0 1.7 0 0 Z " fill="#101010" transform="translate(26,99)"/>
<path d="M0 0 C1.32 0 2.64 0 4 0 C4 0.66 4 1.32 4 2 C5.32 1.67 6.64 1.34 8 1 C8 1.99 8 2.98 8 4 C6.02 4 4.04 4 2 4 C2 3.34 2 2.68 2 2 C1.34 2 0.68 2 0 2 C0 1.34 0 0.68 0 0 Z " fill="#181818" transform="translate(58,108)"/>
<path d="M0 0 C0.66 0.66 1.32 1.32 2 2 C1.625 4.625 1.625 4.625 1 7 C1.66 7.33 2.32 7.66 3 8 C2.01 8 1.02 8 0 8 C-0.99 5.69 -1.98 3.38 -3 1 C-2.01 0.67 -1.02 0.34 0 0 Z " fill="#505050" transform="translate(197,103)"/>
<path d="M0 0 C0.66 0 1.32 0 2 0 C2 0.66 2 1.32 2 2 C3.32 1.67 4.64 1.34 6 1 C6 1.66 6 2.32 6 3 C4.68 3 3.36 3 2 3 C2.33 3.99 2.66 4.98 3 6 C2.34 6 1.68 6 1 6 C0.67 6.66 0.34 7.32 0 8 C0 5.36 0 2.72 0 0 Z " fill="#E62129" transform="translate(122,28)"/>
<path d="M0 0 C0.66 0 1.32 0 2 0 C1.34 2.97 0.68 5.94 0 9 C-2 5 -2 5 -1.125 2.25 C-0.75375 1.5075 -0.3825 0.765 0 0 Z " fill="#161616" transform="translate(242,103)"/>
<path d="M0 0 C0.33 0 0.66 0 1 0 C1.33 3.3 1.66 6.6 2 10 C1.34 10 0.68 10 0 10 C-0.66 7.69 -1.32 5.38 -2 3 C-1.34 3 -0.68 3 0 3 C0 2.01 0 1.02 0 0 Z " fill="#272727" transform="translate(101,98)"/>
<path d="M0 0 C1.98 0.495 1.98 0.495 4 1 C4.33 2.65 4.66 4.3 5 6 C4.34 5.67 3.68 5.34 3 5 C3 4.34 3 3.68 3 3 C1.68 3.33 0.36 3.66 -1 4 C-0.67 2.68 -0.34 1.36 0 0 Z " fill="#3B3B3B" transform="translate(246,97)"/>
<path d="M0 0 C0.99 0.66 1.98 1.32 3 2 C3 2.66 3 3.32 3 4 C2.01 4 1.02 4 0 4 C-0.33 4.66 -0.66 5.32 -1 6 C-1.625 4.125 -1.625 4.125 -2 2 C-1.34 1.34 -0.68 0.68 0 0 Z " fill="#515151" transform="translate(58,104)"/>
<path d="M0 0 C0.99 0 1.98 0 3 0 C3 1.32 3 2.64 3 4 C1.68 4 0.36 4 -1 4 C-0.67 2.68 -0.34 1.36 0 0 Z " fill="#7E7E7E" transform="translate(42,109)"/>
<path d="" fill="#E4FFFF" transform="translate(0,0)"/>
</svg>
