<?xml version="1.0" encoding="UTF-8"?>
<svg version="1.1" xmlns="http://www.w3.org/2000/svg" width="2594" height="1581">
<path d="M0 0 C1.15427805 0.00040031 1.15427805 0.00040031 2.33187485 0.00080872 C48.40008462 0.02071074 94.17731045 2.00988456 140.0625 6.1875 C141.20938293 6.29191406 142.35626587 6.39632812 143.53790283 6.50390625 C220.05858336 13.51855507 296.3123622 23.40438357 1040.43066406 203.98773193 C1044.13946735 205.21292597 1047.84897498 206.43596891 1051.55859375 207.65869141 C1084.16742118 218.41090597 1116.66832504 229.42735221 1148.97045898 241.07348633 C1152.17414478 242.22772385 1155.37896402 243.37877067 1158.58398438 244.52929688 C1206.02202786 261.56937147 1253.20811244 279.29215182 1299.89245605 298.30847168 C1302.22331258 299.25264099 1304.55917958 300.18371705 1306.89550781 301.11425781 C1308.46427429 301.74523991 1310.03296171 302.37641861 1311.6015625 303.0078125 C1312.33627777 303.29751923 1313.07099304 303.58722595 1313.82797241 303.88571167 C1318.94918596 305.96087191 1318.94918596 305.96087191 1320.0625 308.1875 C1294.09078528 308.278332 1268.13489707 308.08199129 1242.16711807 307.63191223 C1236.10316872 307.52686029 1230.03912872 307.42779721 1223.97506714 307.32946777 C1207.82829168 307.0668485 1191.68161936 306.79815007 1175.53504157 306.5236454 C1104.53569811 305.30217749 1104.53569811 305.30217749 1033.52786255 305.07762146 C1032.73240284 305.08078719 1031.93694313 305.08395292 1031.11737858 305.08721458 C1010.26103425 305.17367552 989.40567088 305.37620535 968.55007356 305.56648463 C910.32081252 306.0964988 852.09232641 306.41024333 793.8609314 306.60249138 C779.08404751 306.6512788 764.30718591 306.70552632 749.53032471 306.76071226 C743.47218724 306.78331834 737.41404922 306.80577585 731.35591125 306.82824802 C730.348493 306.83198648 730.348493 306.83198648 729.32072287 306.83580046 C713.59728265 306.89412923 697.87383783 306.95115643 682.15039062 307.00756836 C681.46923365 307.01001364 680.78807667 307.01245892 680.08627857 307.0149783 C660.80258258 307.08418147 641.51887949 307.15102721 622.23516942 307.21618246 C587.90674643 307.33218692 553.57835139 307.45407788 519.25 307.58984375 C517.94962601 307.59498627 516.64925203 307.60012879 515.30947277 307.60542715 C451.64685096 307.85849296 387.98786976 308.16261031 324.33203125 309.16796875 C323.04692657 309.18824025 321.7618219 309.20851175 320.43777466 309.22939754 C302.97852762 309.50800017 285.5204112 309.83573475 268.0625 310.1875 C266.71067975 310.21460758 265.35885919 310.24169989 264.00703835 310.26877832 C253.81990047 310.4729664 243.63282717 310.68021728 233.44580078 310.88989258 C232.76269624 310.90393796 232.07959171 310.91798334 231.37578703 310.93245433 C155.59053959 312.49232911 79.81525821 314.59239755 -648.9375 359.1875 C-649.69865364 359.26618065 -650.45980728 359.3448613 -651.24402618 359.42592621 C-651.99109581 359.50328255 -652.73816544 359.58063889 -653.50787354 359.66033936 C-654.15566898 359.72741467 -654.80346443 359.79448997 -655.47089005 359.86359787 C-696.63880673 364.17305729 -737.66124364 369.55013108 -778.67330599 375.13323379 C-782.81470106 375.69684316 -786.95630105 376.25893727 -791.09794235 376.82073402 C-841.523241 383.66103716 -891.94122032 390.5551085 -942.35953081 397.44669175 C-957.09725372 399.4611571 -971.83504677 401.47510845 -986.57290445 403.48858765 C-990.00352455 403.95727917 -993.43414282 404.42598408 -996.86476052 404.89469314 C-1015.65731177 407.4622232 -1015.65731177 407.4622232 -1024.50890756 408.67140913 C-1051.68253629 412.38352321 -1078.85570381 416.09897368 -1106.02808698 419.8201948 C-1125.84864748 422.53447441 -1145.66991605 425.24353757 -1165.49184453 427.94780904 C-1177.59852335 429.59968014 -1189.70462344 431.25567211 -1201.80999123 432.91712401 C-1210.00870343 434.0420102 -1218.20808776 435.16190188 -1226.40803529 436.27774724 C-1231.12869378 436.92028826 -1235.84901137 437.56511487 -1240.56853676 438.21593094 C-1244.87778292 438.81012368 -1249.1878378 439.39802189 -1253.49864571 439.98077313 C-1255.06099372 440.19313422 -1256.62302166 440.40786549 -1258.1846952 440.62513103 C-1260.29603456 440.91852792 -1262.40834262 441.20348718 -1264.5211277 441.48625469 C-1265.69641332 441.64699181 -1266.87169894 441.80772893 -1268.08259928 441.97333688 C-1270.9375 442.1875 -1270.9375 442.1875 -1273.9375 441.1875 C-1268.63607706 439.26429158 -1263.26780322 438.08428215 -1257.76538086 436.91040039 C-1256.74326256 436.68952003 -1255.72114426 436.46863968 -1254.66805267 436.24106598 C-1251.24682834 435.5025749 -1247.82459132 434.76888968 -1244.40234375 434.03515625 C-1241.95355353 433.5075386 -1239.50482973 432.97961256 -1237.0561676 432.45140076 C-1231.77793382 431.31347104 -1226.49927128 430.17756363 -1221.22021484 429.04345703 C-1213.48663979 427.38200366 -1205.75391054 425.71664102 -1198.02140975 424.05019593 C-1194.40574443 423.27098055 -1190.7900495 422.49190261 -1187.17434692 421.71286011 C-1186.4518139 421.55718217 -1185.72928087 421.40150423 -1184.98485291 421.24110878 C-1179.79950635 420.1239512 -1174.61400904 419.00749508 -1169.42843628 417.89138794 C-1143.59667101 412.33147936 -1117.76852955 406.75491992 -1091.9414587 401.17324257 C-1082.96993607 399.23442593 -1073.99810164 397.297057 -1065.02612305 395.36035156 C-1040.07944748 389.9748872 -1015.13442347 384.58204913 -990.19337177 379.17060459 C-985.18977842 378.08505977 -980.18601245 377.0003135 -975.18212891 375.91610718 C-974.48075522 375.76413805 -973.77938154 375.61216892 -973.05675411 375.45559466 C-969.54475948 374.69467138 -966.03274132 373.93385676 -962.52070618 373.1731205 C-955.77834107 371.71251748 -949.03632034 370.25036154 -942.29516602 368.78417969 C-897.56330876 359.05729762 -852.81984762 350.14447428 -807.67874908 342.53600311 C-804.43006987 341.98820833 -801.18165429 341.43887176 -797.93328857 340.88922119 C-697.07242947 323.83151464 -595.93509312 308.63053322 -252.47658539 266.45524597 C-250.06858738 266.20132313 -247.66066158 265.94672528 -245.25274658 265.6920166 C-157.09441279 256.38084604 -68.4745757 251.17993101 63.0625 245.1875 C63.90003059 245.15262733 64.73756119 245.11775467 65.6004715 245.08182526 C113.36584461 243.09915996 161.14664362 241.75614316 208.9375 240.5625 C210.19210148 240.53096203 211.44670296 240.49942406 212.73932266 240.46693039 C229.96647654 240.0341557 247.19408509 239.63047507 264.42280197 239.26496124 C266.82022782 239.21393844 269.21764093 239.16231277 271.61503983 239.11003876 C319.83824111 238.05962525 368.05552199 238.03122844 416.28803372 238.05893028 C424.76816961 238.06329067 433.24829072 238.06015461 441.72842568 238.0553025 C450.06378854 238.05073089 458.39914511 238.05013859 466.73450881 238.05274117 C471.6467418 238.05427388 476.55896484 238.05458169 481.47119713 238.05120468 C502.35931825 238.03872399 523.19449074 238.16032264 544.0625 239.1875 C542.94784221 238.58535785 542.94784221 238.58535785 541.81066608 237.97105122 C540.83394538 237.44341269 539.85722467 236.91577417 538.85090637 236.37214661 C537.8835043 235.84954663 536.91610224 235.32694666 535.91938496 234.78851032 C527.58396583 230.28496612 519.2627263 225.76086569 511 221.125 C501.58224462 215.85432562 492.00370547 210.8998307 482.4206543 205.93823242 C479.87345151 204.61027959 477.33121085 203.27443101 474.79223633 201.9309082 C463.47046825 195.94134349 452.08422704 190.0971 440.625 184.375 C439.75788391 183.94174408 438.89076782 183.50848816 437.99737549 183.06210327 C423.44337443 175.79873974 408.81219703 168.75479958 393.98718262 162.05804443 C391.9111206 161.11903027 389.836818 160.17619987 387.76269531 159.23291016 C304.63787154 121.45889962 218.65184584 89.20326752 114.0625 61.1875 C113.22259521 60.96791626 112.38269043 60.74833252 111.51733398 60.52209473 C61.10652376 47.37241488 9.96166361 37.85138469 -41.79316711 31.91891479 C-46.70730377 31.34971204 -51.60566583 30.69599816 -56.50390625 30.00390625 C-79.60035912 26.75783032 -102.65704312 24.58029581 -125.9375 23.1875 C-127.11570312 23.11547363 -128.29390625 23.04344727 -129.5078125 22.96923828 C-220.11608213 17.72364282 -311.93592011 27.7940903 -400.9375 44.1875 C-400.9375 43.5275 -400.9375 42.8675 -400.9375 42.1875 C-300.59392819 21.4391548 -199.22839199 7.84047416 -96.875 2.4375 C-95.76256927 2.37833405 -94.65013855 2.31916809 -93.5039978 2.25820923 C-62.34977093 0.63092078 -31.19348708 -0.0245473 0 0 Z " fill="#D62029" transform="translate(1273.9375,200.8125)"/>
<path d="M0 0 C37.29 0 74.58 0 113 0 C113.33 71.61 113.66 143.22 114 217 C129.51 210.4 145.02 203.8 161 197 C183.0625 187.6875 183.0625 187.6875 189.27441406 185.06762695 C209.67798468 176.46156442 230.04469011 167.76891221 250.41508484 159.08470154 C264.56562261 153.05270427 278.72368268 147.03842572 292.88189697 141.0244751 C298.51192349 138.63281415 304.14090319 136.23870001 309.76953125 133.84375 C326.11759663 126.88876997 342.47279287 119.95133011 358.84283447 113.04821777 C382.39154027 103.11790992 405.90559992 93.1071558 429.41519165 83.08465576 C443.56569417 77.05267458 457.72371834 71.03841058 471.88189697 65.0244751 C477.51192349 62.63281415 483.14090319 60.23870001 488.76953125 57.84375 C506.96112403 50.10447556 525.16464072 42.39430278 543.38076782 34.71295166 C582.59300924 18.77094341 582.59300924 18.77094341 621.1773634 1.45341778 C625.01360129 -0.18100506 628.61899833 -0.41326624 632.75120544 -0.36076355 C633.8749867 -0.36460846 633.8749867 -0.36460846 635.02147061 -0.36853105 C637.51510704 -0.37344619 640.00812896 -0.35701413 642.50170898 -0.34057617 C644.295822 -0.33972941 646.08993605 -0.34020601 647.88404846 -0.34190369 C652.74307466 -0.34276313 657.60187792 -0.3251455 662.46085238 -0.30418181 C667.5430683 -0.28540663 672.62528954 -0.28366391 677.70753479 -0.28010559 C687.32632759 -0.27078761 696.94501789 -0.24617713 706.56376559 -0.21605712 C717.51654667 -0.18250546 728.4693327 -0.16602517 739.4221524 -0.15097082 C761.94815839 -0.11962739 784.47407345 -0.06687164 807 0 C805.67622861 2.64754277 804.49440473 2.83188779 801.78637695 3.97338867 C800.87744186 4.36040955 799.96850677 4.74743042 799.0320282 5.1461792 C798.02759171 5.56586975 797.02315521 5.9855603 795.98828125 6.41796875 C794.93884842 6.86271545 793.88941559 7.30746216 792.80818176 7.76568604 C789.31216152 9.24571323 785.81230955 10.71645841 782.3125 12.1875 C779.85435181 13.22658696 777.39645887 14.26625403 774.93896484 15.30688477 C770.47153348 17.19793519 766.00322216 19.0868758 761.53369522 20.9729681 C750.49072736 25.6331507 739.46217037 30.32701962 728.43588257 35.02651978 C725.09206169 36.45153713 721.74784525 37.87562293 718.40356445 39.29956055 C701.08636052 46.67475397 683.78496558 54.0865634 666.48709106 61.50695801 C648.06179146 69.41049448 629.62207502 77.27958573 611.17382812 85.12939453 C594.26671001 92.32396489 577.37245429 99.54791836 560.48684692 106.79281616 C543.20760697 114.20579806 525.91239526 121.58080205 508.61099243 128.94189453 C496.1649989 134.23747815 483.72284679 139.5416818 471.29296875 144.875 C470.18285431 145.35126831 469.07273987 145.82753662 467.9289856 146.3182373 C462.67510073 148.57278461 457.42198117 150.82909397 452.16992188 153.08789062 C441.15183767 157.82202618 430.10584419 162.47536264 419 167 C426.64717591 172.98549521 434.3932257 178.75447767 442.34741211 184.32519531 C447.59901377 188.00417791 452.80931276 191.73561554 458 195.5 C463.80547882 199.70711322 469.63522108 203.87595546 475.5 208 C485.15523463 214.7921047 494.71205932 221.71820213 504.27050781 228.64550781 C513.01146795 234.97828264 521.77620234 241.27190344 530.60571289 247.48071289 C536.52979108 251.65255074 542.40240075 255.89313377 548.26953125 260.14453125 C553.32082386 263.79995716 558.39960525 267.41346155 563.5 271 C573.15523463 277.7921047 582.71205932 284.71820213 592.27050781 291.64550781 C601.00933434 297.97673685 609.77224649 304.26835014 618.59912109 310.47631836 C624.59406361 314.69860762 630.54121227 318.98501315 636.48046875 323.28515625 C640.97568712 326.53950705 645.48013532 329.77997428 650 333 C655.28842633 336.76756165 660.55307864 340.56707142 665.8125 344.375 C672.37626995 349.12538944 678.97690434 353.81950981 685.60473633 358.47998047 C691.52908815 362.6521363 697.40207089 366.89289474 703.26953125 371.14453125 C708.32082386 374.79995716 713.39960525 378.41346155 718.5 382 C728.93222062 389.33868595 739.25664515 396.82553399 749.57421875 404.32421875 C751.09086733 405.42486303 752.60779231 406.52512655 754.125 407.625 C755.22678589 408.42393677 755.22678589 408.42393677 756.35083008 409.23901367 C762.23628403 413.4885726 768.20189065 417.61363407 774.22705078 421.66259766 C775.83450962 422.75112282 777.41997373 423.87202484 779 425 C779 425.33 779 425.66 779 426 C762.36138074 426.30515438 745.72368373 426.53363311 729.08293343 426.67355824 C721.35429876 426.74028757 713.62741321 426.83107004 705.89990234 426.98071289 C699.15588085 427.11124704 692.41312692 427.1943774 685.66787708 427.22315043 C682.10318931 427.23994464 678.54212385 427.27871176 674.97861099 427.37449074 C657.75610843 427.81946807 645.71542818 426.7702693 632.76536179 414.60146141 C630.02645178 412.1168383 627.04469346 410.09577389 624 408 C622.86956679 407.19745901 621.74048311 406.39301077 620.61328125 405.5859375 C620.03529785 405.17311523 619.45731445 404.76029297 618.86181641 404.33496094 C615.29479462 401.77733241 611.74269206 399.19903173 608.1875 396.625 C602.31868597 392.37757019 596.42575593 388.16760248 590.5 384 C580.84482256 377.20781202 571.28794223 370.28179899 561.72949219 363.35449219 C553.68371227 357.52537139 545.62615028 351.71672884 537.5 346 C527.84491899 339.20767176 518.2879448 332.28180085 508.72949219 325.35449219 C500.68371227 319.52537139 492.62615028 313.71672884 484.5 308 C476.37815439 302.28629949 468.32506432 296.48052528 460.28369141 290.65429688 C456.44120888 287.87081798 452.5959003 285.09125401 448.75 282.3125 C447.99726807 281.76859619 447.24453613 281.22469238 446.46899414 280.66430664 C441.43156592 277.02698958 436.38092946 273.40877094 431.32055664 269.8034668 C426.59364258 266.4325072 421.89009337 263.02977374 417.1875 259.625 C411.31868597 255.37757019 405.42575593 251.16760248 399.5 247 C389.84482256 240.20781202 380.28794223 233.28179899 370.72949219 226.35449219 C366.98593453 223.64230642 363.23909206 220.93500065 359.484375 218.23828125 C356.3897974 216.01379889 353.32234263 213.75665416 350.265625 211.48046875 C348.73977131 210.36172274 347.21373613 209.24322421 345.6875 208.125 C344.98810303 207.59447021 344.28870605 207.06394043 343.56811523 206.51733398 C342.91012939 206.03981689 342.25214355 205.5622998 341.57421875 205.0703125 C340.71703247 204.43246826 340.71703247 204.43246826 339.8425293 203.78173828 C337.18569829 202.65451251 335.74729833 203.17478492 333 204 C330.81920338 204.88663789 328.66222539 205.83274623 326.5234375 206.81640625 C325.8938765 207.1041391 325.26431549 207.39187195 324.61567688 207.68832397 C322.53317235 208.64149737 320.4541628 209.60206195 318.375 210.5625 C316.89713496 211.24019638 315.41902134 211.9173509 313.94067383 212.59399414 C310.06176781 214.37067867 306.18555476 216.15315834 302.30999756 217.93713379 C296.49324004 220.61351542 290.67248916 223.28119931 284.85083008 225.94689941 C283.39921564 226.61160155 281.9477197 227.27656254 280.49633789 227.94177246 C269.49255653 232.98319272 258.44629229 237.92139562 247.375 242.8125 C232.530599 249.37163501 217.79485991 256.15015978 203.08105469 262.99658203 C191.13717044 268.55346317 179.16733657 274.04836252 167.16577148 279.47949219 C165.84485864 280.07740618 164.52397655 280.67538812 163.203125 281.2734375 C162.54844742 281.56984131 161.89376984 281.86624512 161.21925354 282.17163086 C155.94335642 284.56399227 150.68157884 286.98634271 145.421875 289.4140625 C143.01912978 290.5208729 140.61623624 291.62736073 138.21331787 292.73379517 C136.67297736 293.4443798 135.13344486 294.15671902 133.5947876 294.87094116 C131.45846576 295.86247065 129.31938364 296.84780925 127.1796875 297.83203125 C126.55511658 298.12401398 125.93054565 298.4159967 125.28704834 298.71682739 C121.17618804 300.59860038 117.43663038 301.73239132 113 303 C113 343.59 113 384.18 113 426 C75.71 426 38.42 426 0 426 C0 285.42 0 144.84 0 0 Z " fill="#050708" transform="translate(32,789)"/>
<path d="M0 0 C2.11812978 -0.0004365 4.23625951 -0.00131287 6.35438895 -0.00258917 C12.15348791 -0.00481857 17.95256829 -0.00083415 23.75166488 0.0041889 C30.01327115 0.00851556 36.27487642 0.0070454 42.53648376 0.00628662 C53.37808791 0.00576279 64.21968463 0.00885985 75.06128693 0.01452446 C86.42783893 0.02044808 97.79438854 0.02429174 109.16094208 0.02537727 C110.22233957 0.02548038 110.22233957 0.02548038 111.30517944 0.02558558 C114.89893488 0.02592392 118.49269033 0.0262253 122.08644578 0.02651245 C147.51944449 0.02861104 172.95244007 0.03534332 198.38543701 0.04481506 C223.08823632 0.05400423 247.79103477 0.06108552 272.49383545 0.06532288 C273.63666183 0.06552017 273.63666183 0.06552017 274.80257562 0.06572144 C282.45395754 0.06704 290.10533946 0.06831581 297.75672139 0.0695603 C313.34249367 0.07209629 328.92826589 0.07491754 344.51403809 0.07791138 C345.23059545 0.07804867 345.94715281 0.07818596 346.68542403 0.07832741 C394.50942063 0.08752301 442.33341515 0.10359645 490.15740967 0.12025452 C490.15740967 27.51025452 490.15740967 54.90025452 490.15740967 83.12025452 C483.80806183 83.12612076 477.45871399 83.131987 470.91696167 83.13803101 C428.96266727 83.17778679 387.00838053 83.22087811 345.05410767 83.27923584 C344.33762655 83.28023141 343.62114543 83.28122697 342.88295276 83.28225271 C327.30984344 83.303914 311.73673514 83.32623689 296.16362775 83.3492408 C288.52597581 83.36051878 280.88832366 83.37165064 273.25067139 83.38270569 C272.49065528 83.38380825 271.73063917 83.38491082 270.94759226 83.3860468 C246.33749054 83.42168057 221.72739018 83.44767606 197.11727195 83.4686442 C171.81565131 83.49025263 146.51406104 83.52164295 121.21246829 83.56524565 C117.6343202 83.5714074 114.05617193 83.57745796 110.47802353 83.58344078 C109.7738304 83.58462166 109.06963727 83.58580254 108.34410495 83.58701921 C97.03344992 83.60570096 85.72280956 83.61414835 74.41214099 83.61871576 C63.02601026 83.62353396 51.639946 83.63949888 40.25384094 83.66592018 C34.09072496 83.67989987 27.92770115 83.68911916 21.76456833 83.68526268 C16.112356 83.68183329 10.46033997 83.6923271 4.8081678 83.71349003 C2.77287449 83.71872519 0.7375606 83.71902764 -1.29773234 83.71365014 C-41.83782504 83.61752203 -76.38595281 97.34784037 -105.56134033 125.76869202 C-128.50357681 149.94516274 -141.51828539 181.8995255 -141.1963501 215.25868225 C-140.03120842 253.11127428 -124.85746027 284.32421423 -97.65509033 310.18275452 C-72.72812942 332.24169862 -40.19733741 345.30221177 -6.83277035 345.25891972 C-5.53571782 345.26318304 -5.53571782 345.26318304 -4.21246222 345.2675325 C-1.32515931 345.27583115 1.56210322 345.27714389 4.44941711 345.2784729 C6.54433455 345.28304154 8.63925109 345.28804201 10.73416656 345.29343647 C16.48302677 345.30699254 22.23188108 345.3144286 27.98075306 345.32086313 C34.18311384 345.32887819 40.38546237 345.34257216 46.58781433 345.35557556 C57.33124526 345.3773226 68.074676 345.3955079 78.81811714 345.4111805 C90.08388295 345.42763002 101.3496424 345.44611634 112.61540031 345.46731377 C113.31627313 345.46863137 114.01714594 345.46994898 114.73925733 345.47130652 C118.29873948 345.47800874 121.85822156 345.48474727 125.41770362 345.49149977 C150.61942563 345.53924334 175.82115359 345.58243395 201.02288818 345.62294006 C225.50368685 345.66229787 249.9844806 345.70372231 274.465271 345.74794006 C275.22007955 345.74930259 275.97488811 345.75066512 276.75256965 345.75206894 C284.3327735 345.7657545 291.91297728 345.77948202 299.493181 345.79324028 C314.93447436 345.82126567 330.37576821 345.84901099 345.81706238 345.87658691 C346.52700416 345.87785511 347.23694595 345.87912331 347.96840112 345.88042994 C395.36472938 345.9650639 442.76106896 346.04294497 490.15740967 346.12025452 C490.15740967 372.85025452 490.15740967 399.58025452 490.15740967 427.12025452 C440.87862217 427.17101036 391.59983588 427.21940308 342.32102966 427.24728394 C341.22578318 427.24790519 341.22578318 427.24790519 340.1084105 427.248539 C324.23727434 427.2575192 308.3661379 427.26582954 292.49500104 427.2734505 C284.71100242 427.27719228 276.92700388 427.28108198 269.14300537 427.28504944 C268.36843311 427.28544172 267.59386085 427.28583399 266.7958167 427.28623816 C241.72165028 427.29900606 216.64750423 427.3215279 191.57335013 427.34914618 C165.79118553 427.37749251 140.00903218 427.39592209 114.22685226 427.40199949 C110.57939325 427.40286386 106.93193428 427.40384077 103.28447533 427.40488625 C102.20774178 427.40518965 102.20774178 427.40518965 101.10925603 427.40549918 C89.58717551 427.40903459 78.06512996 427.42292233 66.54306366 427.44075062 C54.93958182 427.45848145 43.33614294 427.46489961 31.73264716 427.46075865 C25.45370428 427.45884298 19.17486346 427.4617165 12.89593887 427.47787094 C7.13441959 427.49258508 1.37306996 427.49313294 -4.38845751 427.4829512 C-6.46015331 427.4816948 -8.53186016 427.48540208 -10.60353454 427.49490406 C-28.21055663 427.57088917 -45.48881727 425.9285431 -62.59259033 421.55775452 C-63.57517822 421.30727356 -64.55776611 421.0567926 -65.57012939 420.79872131 C-90.34910727 414.15687278 -113.52315997 402.73853133 -133.84259033 387.12025452 C-135.19223877 386.08771545 -135.19223877 386.08771545 -136.56915283 385.03431702 C-181.02151834 350.2155911 -211.62859302 302.38783322 -219.84259033 246.12025452 C-220.84987959 237.80889574 -221.44281737 229.48099657 -221.84259033 221.12025452 C-221.90317627 219.8659967 -221.96376221 218.61173889 -222.02618408 217.31947327 C-222.09715026 213.90057342 -222.00760994 210.53651145 -221.84259033 207.12025452 C-221.80150146 206.26093323 -221.7604126 205.40161194 -221.71807861 204.51625061 C-219.12326442 155.01581763 -201.8374051 109.13823556 -168.04571533 72.51087952 C-166.57601565 70.91609901 -165.12786491 69.30118962 -163.70196533 67.66712952 C-154.20578878 56.80459662 -143.49733671 47.57307318 -131.84259033 39.12025452 C-131.30392334 38.72515686 -130.76525635 38.3300592 -130.21026611 37.92298889 C-112.58500288 25.13695643 -92.70536428 15.28718399 -71.84259033 9.12025452 C-71.057229 8.88371155 -70.27186768 8.64716858 -69.46270752 8.40345764 C-46.61976909 1.63031532 -23.70755338 -0.03639521 0 0 Z " fill="#050708" transform="translate(1065.8425903320313,787.8797454833984)"/>
<path d="M0 0 C2.11486804 -0.00043659 4.22973602 -0.00131312 6.34460372 -0.00258917 C12.13004177 -0.0048168 17.91546118 -0.00083661 23.70089686 0.0041889 C29.94953383 0.00851814 36.19816981 0.00704522 42.44680786 0.00628662 C53.26438515 0.00576295 64.08195498 0.00885829 74.89953041 0.01452446 C86.24013612 0.02044931 97.58073942 0.02429199 108.92134666 0.02537727 C109.62748991 0.02544601 110.33363315 0.02551475 111.06117467 0.02558558 C114.64758111 0.02592393 118.23398756 0.0262253 121.820394 0.02651245 C147.19737755 0.0286107 172.57435795 0.03534203 197.95133972 0.04481506 C222.59880049 0.05400513 247.2462604 0.06108598 271.89372253 0.06532288 C272.65398121 0.0654544 273.41423988 0.06558593 274.1975367 0.06572144 C281.8326356 0.06704 289.4677345 0.06831581 297.10283341 0.0695603 C312.65525609 0.07209625 328.20767872 0.0749175 343.76010132 0.07791138 C344.83262319 0.07811731 344.83262319 0.07811731 345.92681217 0.07832741 C393.64291585 0.08752207 441.35901743 0.10359549 489.07511902 0.12025452 C489.07511902 27.51025452 489.07511902 54.90025452 489.07511902 83.12025452 C482.72577118 83.12612076 476.37642334 83.131987 469.83467102 83.13803101 C427.88037662 83.17778679 385.92608988 83.22087811 343.97181702 83.27923584 C343.2553359 83.28023141 342.53885478 83.28122697 341.80066211 83.28225271 C326.22755279 83.303914 310.65444449 83.32623689 295.0813371 83.3492408 C287.44368516 83.36051878 279.80603301 83.37165064 272.16838074 83.38270569 C271.40836463 83.38380825 270.64834852 83.38491082 269.86530161 83.3860468 C245.25519989 83.42168057 220.64509953 83.44767606 196.0349813 83.4686442 C170.73336066 83.49025263 145.43177039 83.52164295 120.13017764 83.56524565 C116.55202955 83.5714074 112.97388128 83.57745796 109.39573288 83.58344078 C108.69153975 83.58462166 107.98734662 83.58580254 107.2618143 83.58701921 C95.95115927 83.60570096 84.64051891 83.61414835 73.32985034 83.61871576 C61.94371961 83.62353396 50.55765535 83.63949888 39.17155029 83.66592018 C33.00843431 83.67989987 26.8454105 83.68911916 20.68227768 83.68526268 C15.03006535 83.68183329 9.37804932 83.6923271 3.72587715 83.71349003 C1.69058384 83.71872519 -0.34473004 83.71902764 -2.38002299 83.71365014 C-41.00008595 83.62207478 -76.07367867 95.92297269 -104.06550598 123.19056702 C-108.39214017 127.54880345 -112.25031284 132.20271785 -115.92488098 137.12025452 C-116.67382629 138.11541077 -117.42277161 139.11056702 -118.19441223 140.13587952 C-138.33786259 168.00041391 -145.68065991 201.97636144 -140.32722473 235.86390686 C-135.76421908 261.45328688 -124.42439634 283.08681524 -106.92488098 302.12025452 C-106.28292786 302.84470764 -105.64097473 303.56916077 -104.97956848 304.31556702 C-82.16522136 328.76681797 -47.80299382 343.5520685 -14.60870583 345.23788455 C-8.37754656 345.4268735 -2.1447407 345.40554225 4.08865356 345.39872742 C6.18875055 345.40373842 8.28884562 345.40961655 10.38893801 345.41628015 C16.12425411 345.43199679 21.85952111 345.43550622 27.59485614 345.43692875 C33.79302847 345.44063742 39.99117432 345.45580017 46.18933105 345.46954346 C56.91628908 345.49177413 67.64323197 345.50688178 78.37020683 345.51691055 C89.6142724 345.52745291 100.85832039 345.54210695 112.10237312 345.56219101 C112.8028335 345.56343988 113.50329388 345.56468874 114.22498032 345.56597546 C117.78260878 345.57233966 121.34023709 345.57877673 124.89786536 345.58524184 C150.06297916 345.63084234 175.22809866 345.66731656 200.39323425 345.69837952 C224.83302141 345.72856813 249.27279696 345.76291808 273.71257019 345.8028717 C274.46658959 345.80410271 275.22060899 345.80533371 275.99747746 345.80660202 C283.57000365 345.81896942 291.1425297 345.83142109 298.71505565 345.8439345 C314.13964651 345.86942133 329.56423825 345.89434584 344.98883057 345.91893005 C346.05250764 345.92062642 346.05250764 345.92062642 347.13767313 345.92235705 C394.45014191 345.99774705 441.76262933 346.0595797 489.07511902 346.12025452 C489.07511902 372.85025452 489.07511902 399.58025452 489.07511902 427.12025452 C439.86690798 427.18794826 390.65869911 427.2524708 341.45045471 427.28962708 C340.35624365 427.29045542 340.35624365 427.29045542 339.23992732 427.29130049 C323.38263115 427.30327495 307.52533447 427.31435527 291.66803703 427.32451583 C283.89048222 427.32950474 276.11292754 427.33469102 268.33537292 427.33998108 C267.17449523 427.34076563 267.17449523 427.34076563 265.99016546 427.34156604 C240.95093939 427.35858063 215.91174967 427.38860272 190.87254559 427.4254434 C165.11974499 427.46326476 139.36696446 427.48781732 113.61413656 427.49591448 C109.96828128 427.49706693 106.32242608 427.49836947 102.67657089 427.49976349 C101.95908564 427.50003318 101.24160039 427.50030287 100.50237316 427.50058074 C88.99986388 427.50528901 77.49741708 427.52379064 65.99493318 427.54758265 C54.40255937 427.57126143 42.81026209 427.57977275 31.2178634 427.57426003 C24.94839594 427.57171095 18.6791103 427.57547709 12.4096756 427.59707642 C-18.89792928 427.69947299 -47.92589015 427.08009553 -77.92488098 417.12025452 C-78.64852844 416.88048889 -79.3721759 416.64072327 -80.11775208 416.39369202 C-90.51073651 412.87539736 -100.25070645 408.27221112 -109.92488098 403.12025452 C-110.8177179 402.65280823 -110.8177179 402.65280823 -111.72859192 402.17591858 C-121.90959318 396.81002556 -130.92670191 390.25013791 -139.92488098 383.12025452 C-140.47998352 382.68374573 -141.03508606 382.24723694 -141.60700989 381.79750061 C-156.19213234 370.22720507 -169.73967595 356.82424234 -180.71443176 341.77064514 C-181.91549862 340.13304692 -183.14876905 338.52463083 -184.38972473 336.91712952 C-216.65263037 294.39888763 -228.11694551 237.28657338 -221.13972473 184.92103577 C-214.88547483 141.70446538 -197.52341127 102.63678801 -167.37800598 70.72572327 C-165.29460943 68.51294381 -163.31740497 66.25777136 -161.36238098 63.93275452 C-139.48255938 38.86105305 -107.30928615 20.10309363 -75.92488098 10.12025452 C-75.20590637 9.88757874 -74.48693176 9.65490295 -73.74617004 9.41517639 C-49.67228929 1.76471723 -25.09452729 -0.03866086 0 0 Z " fill="#050708" transform="translate(2102.9248809814453,787.8797454833984)"/>
<path d="M0 0 C37.29 0 74.58 0 113 0 C113 140.58 113 281.16 113 426 C75.71 426 38.42 426 0 426 C0 285.42 0 144.84 0 0 Z " fill="#050708" transform="translate(1685,789)"/>
<path d="M0 0 C0.99573029 -0.00426498 1.99146057 -0.00852997 3.0173645 -0.01292419 C4.10044891 -0.01247101 5.18353333 -0.01201782 6.29943848 -0.0115509 C7.45064178 -0.01490952 8.60184509 -0.01826813 9.78793335 -0.02172852 C13.62315951 -0.03127165 17.45834176 -0.03318664 21.2935791 -0.03425598 C22.6384737 -0.03568268 23.98336813 -0.03727932 25.32826233 -0.03904152 C32.44007793 -0.04833322 39.55187483 -0.05237614 46.66369629 -0.05158997 C52.42088702 -0.05106811 58.17800782 -0.05783949 63.93518066 -0.07209778 C103.98553178 -0.16892278 143.92828327 0.46766536 183.9498291 2.13371277 C184.91299545 2.17371777 185.8761618 2.21372276 186.86851501 2.25494003 C197.70144088 2.70949226 208.52970125 3.23361328 219.35598373 3.82515335 C221.67468139 3.95166067 223.99347587 4.07627818 226.31228638 4.20069885 C304.73035123 8.42569799 383.02302241 15.37878631 496.9810791 29.96965027 C497.72375534 30.07348526 498.46643158 30.17732025 499.23161316 30.28430176 C502.82999606 30.79681752 506.39479091 31.37501559 509.9498291 32.13371277 C509.9498291 34.82121277 509.9498291 34.82121277 508.9498291 38.13371277 C502.96927223 43.93072621 494.39856013 44.9224582 486.5670166 46.44499207 C485.11068505 46.74057586 483.65464421 47.03759498 482.19887257 47.33592415 C478.24107461 48.14278812 474.27952577 48.92960591 470.31702828 49.71301484 C466.09983577 50.55049161 461.88647554 51.40683626 457.6726532 52.26107788 C450.49084721 53.71441497 443.30682786 55.15631916 436.12106323 56.58995056 C425.88752833 58.63166407 415.65741847 60.69009699 405.42829883 62.75380564 C400.79690824 63.68817582 396.16540124 64.62196832 391.53385925 65.55558777 C390.62168524 65.73946651 389.70951123 65.92334525 388.76969558 66.11279607 C382.34864385 67.40678168 375.92691158 68.69735287 369.50483704 69.98625183 C349.44900704 74.01192932 329.40060253 78.06890586 309.36779785 82.20793152 C307.27243489 82.64032114 305.17706757 83.07268965 303.08169556 83.5050354 C295.68646871 85.0317714 288.29151181 86.55975618 280.89880371 88.09864807 C246.11171877 95.33645057 246.11171877 95.33645057 229.9498291 97.13371277 C229.18551575 97.22752228 228.42120239 97.32133179 227.63372803 97.41798401 C218.2866629 98.43815352 208.90977036 98.30241789 199.5201416 98.28215027 C198.5739307 98.28132824 197.6277198 98.28050621 196.65283585 98.27965927 C174.24354709 98.24913077 151.85235244 97.65657949 129.4552002 96.96183777 C123.83925725 96.78785219 118.22300366 96.62795161 112.60655022 96.47142982 C108.20534666 96.34701489 103.80440801 96.21467878 99.40350723 96.08001328 C97.32969938 96.01762236 95.25581223 95.9578056 93.18185043 95.90076065 C90.30975811 95.82073968 87.43820413 95.72981069 84.56652832 95.63615417 C83.7365332 95.61529251 82.90653809 95.59443085 82.0513916 95.57293701 C69.72689677 95.13711643 60.04055883 92.71673789 51.45202637 83.54191589 C49.38832729 81.27245871 47.35740379 78.97525237 45.33068848 76.67277527 C43.5088465 74.6422074 41.58854346 72.72705005 39.6373291 70.82121277 C37.14139654 68.36636551 34.79323764 65.85206517 32.5123291 63.19621277 C29.9431764 60.20569561 27.25665654 57.40254593 24.4498291 54.63371277 C21.68422503 51.9054187 19.03695879 49.14854443 16.5123291 46.19621277 C13.79363662 43.02335357 10.92231235 40.07032895 7.9498291 37.13371277 C4.36948634 33.59657173 1.00921577 29.97047672 -2.25720215 26.14543152 C-5.03976271 23.02338645 -8.03674311 20.12578593 -11.0345459 17.21183777 C-15.77552301 12.32385361 -15.77552301 12.32385361 -16.6126709 8.69621277 C-15.91146621 5.50183584 -14.34229325 4.18361112 -11.85095215 2.14933777 C-8.1832094 0.08076268 -4.12997801 0.00804717 0 0 Z " fill="#050708" transform="translate(1173.0501708984375,4.8662872314453125)"/>
<path d="M0 0 C0.87393906 -0.01899353 1.74787811 -0.03798706 2.64830017 -0.05755615 C3.57630936 -0.07151428 4.50431854 -0.08547241 5.46044922 -0.09985352 C6.45440201 -0.11534241 7.4483548 -0.1308313 8.47242737 -0.14678955 C34.62053167 -0.475714 59.71970693 1.13523391 85.53369141 5.18237305 C91.39499416 6.10047228 97.2632063 6.96437404 103.13421631 7.81793213 C182.35202422 19.34691384 261.21585377 33.33403814 340.05884296 47.16144043 C344.27554879 47.9008917 348.49249203 48.63896902 352.70963842 49.37590349 C360.00639276 50.65100379 367.30206992 51.93200786 374.59661674 53.21968842 C377.03118023 53.64869929 379.46605778 54.07593216 381.90126228 54.50128937 C385.2321464 55.08359751 388.56175723 55.67269889 391.89111328 56.26367188 C392.86471896 56.43239209 393.83832464 56.60111231 394.84143353 56.77494526 C399.15677832 57.54806923 403.14328816 58.32055236 407.14013672 60.20874023 C406.78561529 62.89052332 406.47370905 63.94317084 404.31982422 65.65795898 C403.55927734 66.0665918 402.79873047 66.47522461 402.01513672 66.89624023 C401.27005859 67.31260742 400.52498047 67.72897461 399.75732422 68.15795898 C393.89399271 70.51204283 387.33375655 70.44326306 381.08380127 70.74659729 C380.1934439 70.79237079 379.30308652 70.83814429 378.38574862 70.88530487 C375.41242537 71.03732401 372.43889074 71.18469507 369.46533203 71.33203125 C367.3271867 71.44030326 365.18905428 71.54883034 363.05093384 71.65759277 C357.23889532 71.95222115 351.42664639 72.24246985 345.6143198 72.53135419 C341.96337969 72.71288923 338.31247653 72.8951512 334.66158295 73.07761955 C323.1847172 73.65096744 311.70771896 74.22155608 300.23052716 74.78834015 C287.08952153 75.43732573 273.94900703 76.09527288 260.80885625 76.76133782 C250.59448778 77.27852172 240.37971901 77.78726656 230.16463161 78.29004806 C224.09496908 78.58897303 218.02551332 78.89110034 211.95645905 79.20215034 C196.6881892 79.98232121 181.41956236 80.68552659 166.14013672 81.20874023 C165.26962913 81.23904044 164.39912154 81.26934065 163.50223494 81.30055904 C125.72932693 82.55752662 87.93541508 79.40136245 50.25998323 77.01431227 C40.47805003 76.39497785 30.69520583 75.79062106 20.91231154 75.18669127 C3.44851991 74.10815297 -14.01448801 73.01743052 -31.47705078 71.91918945 C-48.35448676 70.85776542 -65.23237328 69.80394451 -82.11083984 68.7590332 C-83.15402669 68.69445011 -84.19721353 68.62986701 -85.2720121 68.56332685 C-89.46751938 68.30359984 -93.66302719 68.04388144 -97.85853636 67.784185 C-114.05784334 66.78124506 -130.25680268 65.77271034 -146.45569374 64.76307765 C-151.32309612 64.45971299 -156.19051201 64.15656903 -161.05796194 63.85396814 C-171.26486105 63.21936547 -181.47162809 62.58276496 -191.6780173 61.94000758 C-195.88932071 61.67481902 -200.1006783 61.41061148 -204.31223106 61.14941025 C-233.14933154 59.35907328 -233.14933154 59.35907328 -246.01443481 58.25582886 C-247.21911795 58.16338793 -247.21911795 58.16338793 -248.44813812 58.06907952 C-253.68927992 57.5822932 -257.99687926 56.2325007 -262.85986328 54.20874023 C-262.85986328 52.88874023 -262.85986328 51.56874023 -262.85986328 50.20874023 C-256.63693229 47.15139314 -250.69750334 45.25080328 -243.90283203 43.94091797 C-242.88714645 43.73731627 -241.87146088 43.53371458 -240.82499695 43.32394314 C-237.17324502 42.6011259 -233.51756256 41.90066579 -229.85986328 41.20874023 C-228.79892834 41.00791202 -228.79892834 41.00791202 -227.71656036 40.80302668 C-215.52728724 38.50059449 -203.32589035 36.26453306 -191.12333679 34.0337708 C-186.10249613 33.1152187 -181.08228877 32.19321775 -176.06201172 31.27159119 C-166.55674142 29.52710591 -157.05095989 27.78542412 -147.54496574 26.04488796 C-133.68457028 23.50695385 -119.82489004 20.96511933 -105.96528625 18.42286587 C-104.42015555 18.13944642 -104.42015555 18.13944642 -102.84381008 17.85030133 C-100.7844399 17.47255527 -98.72507112 17.09480155 -96.66570377 16.71704 C-90.74601105 15.63125849 -84.82615051 14.54639818 -78.9061327 13.4623906 C-75.19912988 12.78354275 -71.49219927 12.1043014 -67.78530312 11.42487133 C-66.00457695 11.09849167 -64.22383455 10.77220058 -62.44307518 10.44600213 C-53.41602513 8.79188438 -44.39129144 7.12695021 -35.37353516 5.42282104 C-34.6277483 5.28205507 -33.88196144 5.14128909 -33.11357498 4.99625748 C-29.66255507 4.34448575 -26.21216523 3.68977352 -22.76263428 3.03014469 C-7.63240813 0.16167705 -7.63240813 0.16167705 0 0 Z " fill="#90908F" transform="translate(1773.85986328125,50.791259765625)"/>
<path d="M0 0 C2.45782462 2.18976159 4.82233546 4.42577574 7.1328125 6.76953125 C7.6278125 7.26453125 7.6278125 7.26453125 8.1328125 7.76953125 C8.4628125 3.80953125 8.7928125 -0.15046875 9.1328125 -4.23046875 C17.7128125 -4.23046875 26.2928125 -4.23046875 35.1328125 -4.23046875 C35.17812475 9.10492533 35.21476397 22.44026768 35.23643684 35.77572155 C35.24684243 41.9689185 35.26094238 48.16205972 35.28369141 54.35522461 C35.3055352 60.33988805 35.31740535 66.32449812 35.32256699 72.30919838 C35.32624212 74.5843623 35.33341833 76.85952354 35.34427261 79.13466454 C35.52374356 118.33753093 35.52374356 118.33753093 21.85546875 132.5078125 C6.37564028 145.36695265 -12.78961728 144.90348361 -31.8671875 143.76953125 C-41.8041951 142.62194574 -51.02096929 139.43146914 -59.8671875 134.76953125 C-59.58049901 132.76881159 -59.28756165 130.76898706 -58.9921875 128.76953125 C-58.82976563 127.65578125 -58.66734375 126.54203125 -58.5 125.39453125 C-57.81108645 121.44816226 -56.8784589 117.64465528 -55.8671875 113.76953125 C-55.34398926 113.9711084 -54.82079102 114.17268555 -54.28173828 114.38037109 C-30.8053511 123.61797302 -30.8053511 123.61797302 -6.1796875 121.45703125 C-5.0865625 120.90015625 -3.9934375 120.34328125 -2.8671875 119.76953125 C-1.9596875 119.35703125 -1.0521875 118.94453125 -0.1171875 118.51953125 C5.87012652 113.86273146 6.87651922 107.64255439 7.828125 100.48046875 C8.36761409 93.90976834 8.28499822 87.35579114 8.1328125 80.76953125 C7.61074219 81.36121094 7.08867188 81.95289063 6.55078125 82.5625 C-0.73540432 90.38462217 -9.00732666 95.41912578 -19.84375 95.97265625 C-34.55665887 96.22455164 -45.50408511 94.09228893 -56.90625 83.95703125 C-67.98925774 72.23931382 -71.59086676 56.36428983 -71.21484375 40.63671875 C-69.94845169 26.54988578 -65.52350767 13.29569708 -54.9296875 3.484375 C-40.35655227 -8.63230373 -15.65917465 -12.18172851 0 0 Z M-37.3671875 21.95703125 C-44.81283675 31.4166676 -45.06002166 42.12218059 -43.8671875 53.76953125 C-42.22851437 61.21299565 -38.33191518 67.6734833 -32.01953125 72.05078125 C-24.76810432 76.08736085 -17.28901815 76.48443746 -9.2890625 74.62109375 C-2.60153683 72.26967343 2.95376352 67.09066352 6.1328125 60.76953125 C8.0821314 55.2510369 8.51935114 50.2413504 8.5078125 44.45703125 C8.50620117 43.61833496 8.50458984 42.77963867 8.50292969 41.91552734 C8.34847975 34.10974886 6.43594854 28.60809131 2.4453125 21.95703125 C-3.74700292 16.09943558 -11.0375473 13.31088845 -19.5625 13.50390625 C-26.68212989 14.32447376 -32.40651069 16.74102549 -37.3671875 21.95703125 Z " fill="#221E1F" transform="translate(1019.8671875,1437.23046875)"/>
<path d="M0 0 C3.27849347 2.72281661 5.92124158 5.74037957 8.5 9.125 C8.83 4.505 9.16 -0.115 9.5 -4.875 C15.44 -4.875 21.38 -4.875 27.5 -4.875 C27.54650393 8.57349489 27.58196056 22.02197039 27.60362434 35.47052956 C27.61402603 41.7163847 27.62811873 47.96218451 27.65087891 54.20800781 C27.67273678 60.24454664 27.68459576 66.2810325 27.68975449 72.31760788 C27.69342712 74.61148283 27.70059833 76.90535514 27.71146011 79.19920731 C27.89145426 118.81566024 27.89145426 118.81566024 15.5 132.125 C2.74597556 143.99943655 -12.9860864 143.79074812 -29.41308594 143.30859375 C-39.07440819 142.73398806 -52.4180257 140.2069743 -59.5 133.125 C-59.43534675 131.53805659 -59.29783033 129.9538284 -59.125 128.375 C-59.03476563 127.51390625 -58.94453125 126.6528125 -58.8515625 125.765625 C-58.50841596 123.18821319 -58.03966584 120.66783227 -57.5 118.125 C-56.68547363 118.47280518 -56.68547363 118.47280518 -55.85449219 118.82763672 C-41.15435336 125.20402604 -41.15435336 125.20402604 -25.5 128.125 C-24.66726563 128.19332031 -23.83453125 128.26164062 -22.9765625 128.33203125 C-14.58160324 128.68954529 -5.77053407 127.37279314 1 122.125 C7.93001518 114.9795741 8.95614774 106.15624256 8.8515625 96.56054688 C8.81804687 95.36494141 8.78453125 94.16933594 8.75 92.9375 C8.73195313 91.69935547 8.71390625 90.46121094 8.6953125 89.18554688 C8.64865581 86.16452635 8.58320983 83.1451969 8.5 80.125 C7.62553223 81.04732422 7.62553223 81.04732422 6.73339844 81.98828125 C-1.07300885 90.04195031 -1.07300885 90.04195031 -6.25 92.125 C-7.13171875 92.49625 -8.0134375 92.8675 -8.921875 93.25 C-20.72529963 97.25601078 -34.9396886 96.34598304 -46.04296875 90.87109375 C-58.50258177 83.95327533 -65.25838395 74.1811124 -69.375 60.625 C-73.17891417 43.41681686 -70.94038753 25.09298285 -61.5 10.125 C-54.97008442 1.69052571 -45.36569056 -4.52156371 -34.8046875 -6.625 C-22.58790597 -7.9502102 -10.31992495 -7.33004015 0 0 Z M-46.5 19.125 C-53.84115427 29.90323413 -54.45455361 42.55794418 -52.5 55.125 C-50.48287193 64.02341641 -46.11295469 71.51309868 -38.30859375 76.53515625 C-29.89685242 80.85721119 -19.90880237 81.68486149 -10.69140625 79.44140625 C-8.4512282 78.50573396 -6.52242332 77.46490779 -4.5 76.125 C-3.86707031 75.7125 -3.23414063 75.3 -2.58203125 74.875 C4.462183 69.5880844 7.49676689 61.46445063 9.5 53.125 C10.57941946 40.44809703 9.8326668 27.0650988 1.34375 16.84375 C-6.64906921 9.39281684 -14.29010201 7.74159857 -24.890625 7.8515625 C-33.67271128 8.51687207 -40.76918378 12.47521102 -46.5 19.125 Z " fill="#221E1F" transform="translate(1812.5,1437.875)"/>
<path d="M0 0 C2.91307563 2.35417158 5.46740006 4.884664 8.015625 7.62890625 C8.510625 1.19390625 8.510625 1.19390625 9.015625 -5.37109375 C14.955625 -5.37109375 20.895625 -5.37109375 27.015625 -5.37109375 C27.08543374 8.30360911 27.13859219 21.9782689 27.17106152 35.65311432 C27.18665275 42.00432168 27.20777043 48.35540625 27.24194336 54.70654297 C27.27477144 60.8468393 27.29252709 66.98701824 27.30025673 73.12739563 C27.30575842 75.45870306 27.31650063 77.79000477 27.33281517 80.1212616 C27.58429709 117.57936824 27.58429709 117.57936824 16.046875 130.90234375 C4.10220213 142.54407202 -10.24617536 143.00343737 -25.92578125 142.84765625 C-36.90163951 142.57668922 -51.76009476 140.68457937 -59.984375 132.62890625 C-60.19140625 130.32421875 -60.19140625 130.32421875 -59.796875 127.75390625 C-59.60738281 126.43132812 -59.60738281 126.43132812 -59.4140625 125.08203125 C-58.48255018 119.76394275 -58.48255018 119.76394275 -57.984375 117.62890625 C-55.18250912 118.73476603 -52.40482026 119.87776989 -49.63671875 121.06640625 C-41.83262226 124.3807334 -34.50680166 126.87450057 -25.984375 127.62890625 C-25.08332031 127.71140625 -24.18226562 127.79390625 -23.25390625 127.87890625 C-15.13176286 128.25395472 -6.27298343 126.95957809 0.2890625 121.86328125 C8.32303548 113.25303172 8.42616128 104.38365986 8.203125 93.12890625 C8.18958984 91.82953125 8.17605469 90.53015625 8.16210938 89.19140625 C8.12694834 86.00347213 8.07773164 82.81641026 8.015625 79.62890625 C7.14115723 80.55123047 7.14115723 80.55123047 6.24902344 81.4921875 C-1.55738385 89.54585656 -1.55738385 89.54585656 -6.734375 91.62890625 C-7.61609375 92.00015625 -8.4978125 92.37140625 -9.40625 92.75390625 C-21.20967463 96.75991703 -35.4240636 95.84988929 -46.52734375 90.375 C-58.98695677 83.45718158 -65.74275895 73.68501865 -69.859375 60.12890625 C-73.31240605 44.35248295 -72.09105316 26.60398352 -63.671875 12.62890625 C-56.66458592 2.65017179 -47.587357 -4.64129843 -35.296875 -7.125 C-22.41042266 -8.49636233 -10.71845242 -7.69183905 0 0 Z M-46.984375 18.62890625 C-54.21591633 29.56230802 -54.86466995 42.68915211 -52.76171875 55.265625 C-50.39291579 65.51456646 -44.96668948 72.12075973 -36.1875 77.7890625 C-28.93703813 81.23784414 -17.13074872 80.97883895 -9.546875 78.62890625 C-1.32279078 74.69881291 3.69315482 68.51372186 7.140625 60.2421875 C10.68664645 49.6516145 10.90089243 34.78224191 6.015625 24.62890625 C1.56884883 16.59148611 -3.37268307 11.65073392 -12.04296875 8.39453125 C-25.26768894 4.9522402 -37.96864079 8.36098673 -46.984375 18.62890625 Z " fill="#221E1F" transform="translate(1987.984375,1438.37109375)"/>
<path d="M0 0 C5.94 0 11.88 0 18 0 C27.41924193 26.30352622 36.77174289 52.62883441 46 79 C51.70529872 64.63011748 56.97818189 50.11841969 62.1875 35.5625 C63.38279109 32.22997516 64.5787465 28.89768922 65.7747345 25.56541443 C66.51105114 23.5130975 67.24684084 21.4605914 67.98197937 19.40785217 C70.30193349 12.93142752 72.64485493 6.46371491 75 0 C80.28 0 85.56 0 91 0 C91.56396484 1.58119629 92.12792969 3.16239258 92.70898438 4.79150391 C94.60827781 10.11607164 96.50820579 15.44041269 98.40853119 20.7646122 C99.55655518 23.98113477 100.70435266 27.19773773 101.8515625 30.41455078 C104.89426696 38.94546668 107.94296048 47.47421009 111 56 C111.40412109 57.12772827 111.80824219 58.25545654 112.22460938 59.4173584 C113.34427903 62.53728087 114.46813627 65.65565538 115.59375 68.7734375 C116.09279846 70.16497543 116.09279846 70.16497543 116.60192871 71.58462524 C116.90538208 72.42214325 117.20883545 73.25966125 117.52148438 74.12255859 C117.91611877 75.21677628 117.91611877 75.21677628 118.31872559 76.33309937 C118.87695275 78.00596267 118.87695275 78.00596267 120 79 C120.27704269 78.21676361 120.55408539 77.43352722 120.83952332 76.6265564 C123.47194498 69.18447206 126.10457262 61.74246061 128.73742199 54.30052757 C130.09043938 50.47610695 131.44338176 46.65165982 132.79614258 42.82714844 C134.10571885 39.12473729 135.41550537 35.42240059 136.72542763 31.72011185 C137.22097316 30.31941919 137.71644747 28.91870133 138.21184349 27.51795578 C141.45806982 18.33935681 144.72156162 9.16714808 148 0 C153.94 0 159.88 0 166 0 C164.08256208 6.57386497 161.98417117 13.00950879 159.5859375 19.421875 C159.09494064 20.74657555 159.09494064 20.74657555 158.59402466 22.09803772 C157.52395019 24.9831242 156.44955545 27.8665798 155.375 30.75 C154.62535681 32.76771298 153.87601276 34.78553711 153.12695312 36.8034668 C151.95817822 39.95196444 150.78915837 43.10036881 149.61895752 46.24833679 C146.77506916 53.90089424 143.94978971 61.56015597 141.1328125 69.22265625 C139.96603995 72.39323188 138.79909625 75.56374449 137.63214111 78.73425293 C136.87767424 80.78561861 136.12405204 82.83729515 135.37127686 84.88928223 C134.3229443 87.74612946 133.27123317 90.60171104 132.21875 93.45703125 C131.90600128 94.31208755 131.59325256 95.16714386 131.27102661 96.04811096 C129.11389122 101.88610878 129.11389122 101.88610878 128 103 C125.13732433 103.07325168 122.299281 103.09238205 119.4375 103.0625 C118.63119141 103.05798828 117.82488281 103.05347656 116.99414062 103.04882812 C114.99606244 103.03700518 112.99802217 103.01906914 111 103 C101.27260389 77.81018407 92.13558932 52.40911258 83 27 C79.37971497 35.45254244 76.11487782 43.98983543 73.0234375 52.6484375 C72.56731476 53.91742002 72.11081476 55.18626699 71.65396118 56.45498657 C69.98140288 61.10205689 68.31479606 65.75125445 66.64935303 70.40087891 C65.231514 74.35894824 63.81073088 78.31593432 62.38576126 82.27144241 C61.72538719 84.10824628 61.06935518 85.94660938 60.41342163 87.78500366 C60.00935089 88.90702179 59.60528015 90.02903992 59.18896484 91.18505859 C58.66198502 92.65632706 58.66198502 92.65632706 58.12435913 94.15731812 C56.92811524 97.18174398 55.45452062 100.09095875 54 103 C48.39 103 42.78 103 37 103 C27.98321562 79.05993814 18.99496813 55.10885848 10.13348389 31.11080933 C9.33834368 28.95950768 8.54135623 26.80888786 7.74249268 24.65896606 C6.62388631 21.64693936 5.51220847 18.63244437 4.40234375 15.6171875 C3.9051458 14.2843145 3.9051458 14.2843145 3.39790344 12.92451477 C3.09506943 12.09719345 2.79223541 11.26987213 2.48022461 10.41748047 C2.08534096 9.34891312 2.08534096 9.34891312 1.68247986 8.25875854 C0.86988732 5.56937465 0.46187316 2.77123899 0 0 Z " fill="#221E1F" transform="translate(2221,1433)"/>
<path d="M0 0 C0.7425 0.825 1.485 1.65 2.25 2.5 C3.075 3.386875 3.9 4.27375 4.75 5.1875 C14.7055771 17.55370426 16.75831214 34.11382279 15.25 49.5 C13.87481687 59.07848725 11.04628779 67.64508103 5.25 75.5 C4.81042969 76.13164063 4.37085938 76.76328125 3.91796875 77.4140625 C-4.00686343 87.78257492 -17.17479852 92.7932505 -29.75 94.5 C-45.1243816 95.4894404 -60.08556975 93.02910419 -72.47265625 83.37890625 C-83.75249604 73.01778645 -88.97827016 58.9579246 -89.9140625 43.8515625 C-90.37828269 28.11027779 -86.47394201 12.43361215 -75.6875 0.5625 C-55.29786603 -18.18337274 -20.38423459 -18.53112236 0 0 Z M-56.24609375 15.46875 C-63.60522685 25.40835834 -63.70765111 37.63123889 -62.75 49.5 C-61.37906216 56.86134016 -59.44422486 63.45284615 -53.75 68.5 C-45.8482027 73.27206582 -38.19188207 74.96364035 -29.05078125 72.88671875 C-21.85599556 70.38562173 -17.30610661 66.22549598 -13.69140625 59.54296875 C-9.14410508 48.1638371 -9.86494862 33.87157374 -13.75 22.5 C-16.83736797 15.8842115 -21.08276126 11.52320137 -27.75 8.5 C-38.01259842 5.2916526 -48.974448 7.50536997 -56.24609375 15.46875 Z " fill="#221E1F" transform="translate(209.75,1443.5)"/>
<path d="M0 0 C8.05068198 7.6457181 11.36708299 17.13359261 11.74525452 28.1178894 C11.74303391 29.40140289 11.74081329 30.68491638 11.73852539 32.00732422 C11.73867142 32.72021103 11.73881744 33.43309784 11.7389679 34.16758728 C11.73827572 36.50498585 11.73051612 38.84230299 11.72265625 41.1796875 C11.7207896 42.80778968 11.71936686 44.43589242 11.71836853 46.06399536 C11.71456282 50.33501759 11.70474926 54.60600545 11.69366455 58.87701416 C11.68340848 63.24092138 11.67886194 67.60483419 11.67382812 71.96875 C11.66312515 80.52085081 11.64554422 89.07291716 11.625 97.625 C3.045 97.625 -5.535 97.625 -14.375 97.625 C-14.404729 94.69669312 -14.404729 94.69669312 -14.43505859 91.70922852 C-14.50305839 85.23115036 -14.57985022 78.75322212 -14.66252708 72.27531528 C-14.71229571 68.35097798 -14.75862603 64.42666509 -14.796875 60.50219727 C-14.83397514 56.70896746 -14.88039904 52.91595214 -14.93306351 49.12290764 C-14.95147703 47.68181083 -14.96663214 46.24066827 -14.97834396 44.79950142 C-14.68447006 30.38422507 -14.68447006 30.38422507 -20.375 17.625 C-25.56931319 14.16212454 -31.29539006 13.20244153 -37.44921875 13.83984375 C-43.52529408 15.09325811 -49.26193536 17.69599951 -52.953125 22.8125 C-56.29760183 28.65572388 -57.48739993 33.21059503 -57.58032227 39.95410156 C-57.60026749 41.23512756 -57.62021271 42.51615356 -57.64076233 43.83599854 C-57.65774409 45.22920614 -57.67462299 46.62241499 -57.69140625 48.015625 C-57.71198794 49.44480983 -57.73298473 50.87398873 -57.75437927 52.30316162 C-57.80947449 56.0579345 -57.85893888 59.81276118 -57.90722656 63.56762695 C-57.95753345 67.40190395 -58.01317148 71.2361032 -58.06835938 75.0703125 C-58.17578739 82.58847755 -58.27677328 90.10670807 -58.375 97.625 C-66.955 97.625 -75.535 97.625 -84.375 97.625 C-84.40005615 95.07330078 -84.4251123 92.52160156 -84.45092773 89.89257812 C-84.53490591 81.40295114 -84.62352185 72.91337693 -84.71433926 64.4238205 C-84.76919014 59.28338007 -84.82254354 54.14293373 -84.87231445 49.00244141 C-84.92052372 44.02920785 -84.9728757 39.05603268 -85.02794075 34.08287048 C-85.04811158 32.19817078 -85.06686148 30.31345524 -85.08407402 28.4287262 C-85.18843584 17.12123049 -85.56800444 5.90570666 -86.375 -5.375 C-78.125 -5.375 -69.875 -5.375 -61.375 -5.375 C-60.715 -0.755 -60.055 3.865 -59.375 8.625 C-58.3025 7.26375 -57.23 5.9025 -56.125 4.5 C-42.39997258 -10.87106245 -15.9581447 -13.25934081 0 0 Z " fill="#221E1F" transform="translate(452.375,1438.375)"/>
<path d="M0 0 C8.51989435 7.64977748 11.27966034 18.73881234 11.96691895 29.82666016 C12.1281495 34.1983638 12.07738799 38.56427792 12.015625 42.9375 C12.00813768 44.52888263 12.00245659 46.12027466 11.99847412 47.71166992 C11.9834132 51.84141824 11.94430819 55.97057748 11.8996582 60.10009766 C11.85827588 64.33748411 11.84037271 68.57496847 11.8203125 72.8125 C11.77778803 81.08362995 11.7076066 89.35417319 11.625 97.625 C3.045 97.625 -5.535 97.625 -14.375 97.625 C-14.404729 94.74998779 -14.404729 94.74998779 -14.43505859 91.81689453 C-14.50310941 85.45058121 -14.57990449 79.08441914 -14.66252708 72.71827888 C-14.71225649 68.86235199 -14.75858644 65.00644944 -14.796875 61.15039062 C-14.83402559 57.42199363 -14.8804616 53.69381274 -14.93306351 49.96560287 C-14.95145071 48.55045273 -14.96661504 47.13525654 -14.97834396 45.72003555 C-14.6213522 30.839844 -14.6213522 30.839844 -20.375 17.625 C-26.05649374 13.83733751 -32.71270898 12.88689339 -39.375 14.1875 C-44.9530062 15.87205787 -50.41048294 18.81854705 -53.796875 23.65625 C-56.59307161 29.08654486 -57.49617418 33.84735498 -57.58032227 39.95410156 C-57.60026749 41.23512756 -57.62021271 42.51615356 -57.64076233 43.83599854 C-57.65774409 45.22920614 -57.67462299 46.62241499 -57.69140625 48.015625 C-57.71198794 49.44480983 -57.73298473 50.87398873 -57.75437927 52.30316162 C-57.80947449 56.0579345 -57.85893888 59.81276118 -57.90722656 63.56762695 C-57.95753345 67.40190395 -58.01317148 71.2361032 -58.06835938 75.0703125 C-58.17578739 82.58847755 -58.27677328 90.10670807 -58.375 97.625 C-66.955 97.625 -75.535 97.625 -84.375 97.625 C-84.40005615 95.14436035 -84.4251123 92.6637207 -84.45092773 90.10791016 C-84.53501885 81.84181508 -84.62361783 73.57577253 -84.71433926 65.3097477 C-84.76912049 60.3061271 -84.82246005 55.30250042 -84.87231445 50.29882812 C-84.92062985 45.45526279 -84.97298073 40.61175528 -85.02794075 35.76826096 C-85.04806507 33.93545376 -85.06682054 32.10263093 -85.08407402 30.26979446 C-85.19738129 18.3559642 -85.63597533 6.51777415 -86.375 -5.375 C-78.125 -5.375 -69.875 -5.375 -61.375 -5.375 C-60.715 -0.755 -60.055 3.865 -59.375 8.625 C-58.3025 7.26375 -57.23 5.9025 -56.125 4.5 C-42.37112806 -10.93058071 -15.9942063 -13.26491972 0 0 Z " fill="#221E1F" transform="translate(330.375,1438.375)"/>
<path d="M0 0 C8.6308713 8.21408879 11.34733673 18.45769761 11.74525452 30.16221619 C11.74303391 31.40797928 11.74081329 32.65374237 11.73852539 33.93725586 C11.73867142 34.63078156 11.73881744 35.32430725 11.7389679 36.03884888 C11.7382774 38.30588023 11.73052592 40.57282695 11.72265625 42.83984375 C11.720789 44.42167618 11.71936655 46.00350919 11.71836853 47.58534241 C11.71456755 51.72976301 11.70475814 55.87414805 11.69366455 60.01855469 C11.6833982 64.25520344 11.67885976 68.49185799 11.67382812 72.72851562 C11.66313351 81.02736182 11.64555653 89.32617237 11.625 97.625 C3.045 97.625 -5.535 97.625 -14.375 97.625 C-14.404729 94.74998779 -14.404729 94.74998779 -14.43505859 91.81689453 C-14.50310941 85.45058121 -14.57990449 79.08441914 -14.66252708 72.71827888 C-14.71225649 68.86235199 -14.75858644 65.00644944 -14.796875 61.15039062 C-14.83402559 57.42199363 -14.8804616 53.69381274 -14.93306351 49.96560287 C-14.95145071 48.55045273 -14.96661504 47.13525654 -14.97834396 45.72003555 C-14.6213522 30.839844 -14.6213522 30.839844 -20.375 17.625 C-25.56931319 14.16212454 -31.29539006 13.20244153 -37.44921875 13.83984375 C-44.02005118 15.19531999 -49.48181632 18.33325134 -53.75 23.5 C-56.59996484 28.98070161 -57.62086976 34.15237131 -57.69384766 40.29467773 C-57.71371735 41.57547714 -57.73358704 42.85627655 -57.75405884 44.17588806 C-57.76593158 45.55345487 -57.77759465 46.93102351 -57.7890625 48.30859375 C-57.80779555 49.73349604 -57.82737052 51.15838749 -57.8477478 52.58326721 C-57.89884969 56.31331967 -57.93859199 60.043408 -57.97589111 63.77362061 C-58.01606924 67.58810135 -58.06709823 71.40243568 -58.1171875 75.21679688 C-58.21368664 82.68610458 -58.29716933 90.15547016 -58.375 97.625 C-66.955 97.625 -75.535 97.625 -84.375 97.625 C-84.40005615 95.14436035 -84.4251123 92.6637207 -84.45092773 90.10791016 C-84.53501885 81.84181508 -84.62361783 73.57577253 -84.71433926 65.3097477 C-84.76912049 60.3061271 -84.82246005 55.30250042 -84.87231445 50.29882812 C-84.92062985 45.45526279 -84.97298073 40.61175528 -85.02794075 35.76826096 C-85.04806507 33.93545376 -85.06682054 32.10263093 -85.08407402 30.26979446 C-85.19738129 18.3559642 -85.63597533 6.51777415 -86.375 -5.375 C-78.125 -5.375 -69.875 -5.375 -61.375 -5.375 C-60.715 -0.755 -60.055 3.865 -59.375 8.625 C-58.3025 7.26375 -57.23 5.9025 -56.125 4.5 C-42.37112806 -10.93058071 -15.9942063 -13.26491972 0 0 Z " fill="#221E1F" transform="translate(917.375,1438.375)"/>
<path d="M0 0 C0.804375 0.53625 1.60875 1.0725 2.4375 1.625 C11.12968268 9.68116931 14.72287318 19.61436588 17 31 C17 36.28 17 41.56 17 47 C-6.1 47 -29.2 47 -53 47 C-50.24381152 63.06726574 -50.24381152 63.06726574 -40 74 C-30.64165505 79.12060384 -18.08589295 78.21337786 -8.0625 75.375 C-2.23628348 73.33509044 2.8999064 70.45378799 8 67 C11.25643639 73.16396888 13.72401366 79.41416719 16 86 C0.84348161 97.14260992 -17.28902552 100.87579695 -35.890625 98.50390625 C-50.98515091 95.79972499 -61.71570171 89.3661426 -71 77 C-79.67113024 63.48974042 -80.5118186 46.86602788 -77.875 31.4375 C-74.7367983 17.31559237 -67.61699763 6.20098851 -55.5625 -1.9375 C-38.84293508 -11.86182275 -15.73806072 -11.99090341 0 0 Z M-46.3125 18.25 C-49.74559703 22.59048235 -52 27.38280267 -52 33 C-36.82 33 -21.64 33 -6 33 C-7.0676594 24.45872483 -8.67437308 19.66055029 -15.125 14.0625 C-24.7690992 7.14390709 -38.54635689 9.99256803 -46.3125 18.25 Z " fill="#221E1F" transform="translate(563,1439)"/>
<path d="M0 0 C5.94 0 11.88 0 18 0 C18.33 19.47 18.66 38.94 19 59 C21.31 56.69 23.62 54.38 26 52 C37.32594387 44.53478511 50.61125901 43.32300424 63.8125 45.625 C72.61610751 48.01692355 79.47273003 53.11863966 84 61 C90.01964915 72.3021984 89.2894678 86.57391842 89.1953125 99.0234375 C89.19156982 100.50558275 89.18872881 101.98773052 89.18673706 103.46987915 C89.17919917 107.31997843 89.15963884 111.16992027 89.1373291 115.0199585 C89.11665503 118.96901318 89.10768985 122.91809398 89.09765625 126.8671875 C89.07638072 134.57820417 89.04128252 142.28905973 89 150 C83.06 150 77.12 150 71 150 C70.98541748 147.8660376 70.97083496 145.7320752 70.95581055 143.53344727 C70.90531224 136.4566239 70.83869089 129.38001705 70.76428509 122.30340672 C70.71969355 118.01584847 70.68041323 113.7283828 70.65356445 109.44067383 C70.62741887 105.29725526 70.58693836 101.15419507 70.53681374 97.01099968 C70.5202207 95.4359377 70.50865958 93.86081384 70.50238609 92.28567696 C70.63477058 78.3998489 70.63477058 78.3998489 64.75 66.125 C57.276235 60.34981795 50.27959059 60.08030784 41 61 C33.6108112 62.77220382 26.85394743 66.49285131 22.71875 73.0234375 C19.80061235 78.63043055 18.87814423 83.26103832 18.79467773 89.60449219 C18.78477814 90.25856552 18.77487854 90.91263885 18.76467896 91.58653259 C18.73319149 93.73994374 18.70835728 95.89337692 18.68359375 98.046875 C18.66301319 99.54332032 18.64201643 101.03975996 18.62062073 102.53619385 C18.56551382 106.46852009 18.51605453 110.40089781 18.46777344 114.33331299 C18.41747514 118.34855716 18.36183261 122.36372689 18.30664062 126.37890625 C18.1991983 134.25254284 18.09821669 142.12624292 18 150 C12.06 150 6.12 150 0 150 C0 100.5 0 51 0 0 Z " fill="#221E1F" transform="translate(1268,1386)"/>
<path d="M0 0 C3.32106362 2.71786417 5.96587405 5.71692845 8.5625 9.125 C8.8925 4.505 9.2225 -0.115 9.5625 -4.875 C15.1725 -4.875 20.7825 -4.875 26.5625 -4.875 C26.5625 29.115 26.5625 63.105 26.5625 98.125 C20.9525 98.125 15.3425 98.125 9.5625 98.125 C9.2325 93.505 8.9025 88.885 8.5625 84.125 C7.634375 85.32125 6.70625 86.5175 5.75 87.75 C-0.67813341 95.03005471 -8.69242691 98.73855623 -18.265625 99.94140625 C-31.51832284 100.7084959 -43.12525347 98.64829387 -53.44140625 89.96875 C-65.01467026 79.27876837 -69.61952263 65.46593518 -70.4375 49.94140625 C-70.4375 33.83998533 -67.27798144 18.0231819 -56.25 5.67578125 C-41.50378509 -8.62143032 -17.23596791 -12.21952949 0 0 Z M-45.4375 19.125 C-47.10822417 21.68809909 -48.33419346 24.27625083 -49.4375 27.125 C-50.0253125 28.6409375 -50.0253125 28.6409375 -50.625 30.1875 C-54.09532552 42.7340615 -53.99446822 57.92820959 -48.1484375 69.7265625 C-43.67512267 76.87908193 -38.19138184 82.31543163 -29.94921875 84.65234375 C-19.59904778 86.60004311 -10.68756847 84.73615067 -1.625 79.5 C8.13791035 68.90026877 10.28754159 56.17448447 9.84765625 42.25 C9.26562148 31.67109189 6.18711966 21.18714079 -1.6875 13.75 C-15.46901818 3.1261316 -34.29801736 6.67201828 -45.4375 19.125 Z " fill="#221E1F" transform="translate(1450.4375,1437.875)"/>
<path d="M0 0 C5.61 0 11.22 0 17 0 C17.33 20.13 17.66 40.26 18 61 C20.31 58.36 22.62 55.72 25 53 C35.27956826 45.2903238 46.37527129 44.02678751 59 45 C67.52791419 46.29537937 74.97474515 49.48149729 80.78515625 56.00390625 C88.62969029 66.77809427 88.41845979 78.94724829 88.29296875 91.69921875 C88.2873619 93.38743205 88.28309696 95.07565028 88.28010559 96.76387024 C88.26874242 101.1713956 88.23935046 105.5786165 88.20599365 109.98602295 C88.17510712 114.49780155 88.16156085 119.00963015 88.14648438 123.52148438 C88.11447103 132.3478104 88.06177462 141.17383205 88 150 C82.39 150 76.78 150 71 150 C70.98541748 147.90156738 70.97083496 145.80313477 70.95581055 143.64111328 C70.90527432 136.67605402 70.83864673 129.71121387 70.76428509 122.74637032 C70.71972532 118.52722237 70.68043833 114.30816779 70.65356445 110.08886719 C70.62738676 106.01028045 70.58688451 101.93205581 70.53681374 97.85369492 C70.52024214 96.30457977 70.50866784 94.75540213 70.50238609 93.20621109 C70.61995126 78.82205282 70.61995126 78.82205282 64.75 66.0625 C57.14578934 60.359342 50.34870687 60.24572933 41 61 C33.88640698 62.17501313 28.74713527 65.62852494 24 71 C17.56291496 80.37866099 17.68257799 91.48391655 17.5859375 102.44140625 C17.56719121 103.81860977 17.54761532 105.19580222 17.5272522 106.57298279 C17.47628991 110.16819686 17.43647413 113.76344803 17.39910889 117.35882568 C17.35884184 121.0394379 17.30785402 124.71990063 17.2578125 128.40039062 C17.16147929 135.60016481 17.07793375 142.79999884 17 150 C11.39 150 5.78 150 0 150 C0 100.5 0 51 0 0 Z " fill="#221E1F" transform="translate(2480,1386)"/>
<path d="M0 0 C0 10.89 0 21.78 0 33 C9.24 33 18.48 33 28 33 C28 39.6 28 46.2 28 53 C18.76 53 9.52 53 0 53 C0.09718752 59.54736977 0.20007773 66.09414378 0.31738281 72.64111328 C0.35554764 74.86599348 0.39042181 77.09093276 0.421875 79.31591797 C0.46779762 82.52332602 0.52574675 85.73033175 0.5859375 88.9375 C0.59748871 89.92427734 0.60903992 90.91105469 0.62094116 91.92773438 C0.764107 98.70333176 1.14491736 104.95236423 4.75 110.875 C8.34860196 114.27367962 11.56870047 114.92192912 16.4375 115.1875 C19.9756174 115.00128329 23.49259464 114.50105791 27 114 C27 120.93 27 127.86 27 135 C17.90595363 139.54702318 5.61995201 138.70223371 -4 136 C-12.30671009 133.04013778 -18.21830593 128.41073419 -22.28125 120.5078125 C-26.05935073 111.62927578 -26.14142106 103.24660407 -26.09765625 93.72265625 C-26.0962413 92.5561705 -26.09482635 91.38968475 -26.09336853 90.18785095 C-26.08779206 86.47937403 -26.07524384 82.77095853 -26.0625 79.0625 C-26.05748196 76.5410165 -26.05291959 74.01953205 -26.04882812 71.49804688 C-26.03783033 65.33200776 -26.02058188 59.16601427 -26 53 C-32.6 53 -39.2 53 -46 53 C-46 46.4 -46 39.8 -46 33 C-39.4 33 -32.8 33 -26 33 C-26 24.75 -26 16.5 -26 8 C-22.266875 6.68 -18.53375 5.36 -14.6875 4 C-13.51405029 3.58234375 -12.34060059 3.1646875 -11.1315918 2.734375 C-10.20515869 2.40953125 -9.27872559 2.0846875 -8.32421875 1.75 C-7.37635498 1.41484375 -6.42849121 1.0796875 -5.4519043 0.734375 C-3 0 -3 0 0 0 Z " fill="#221E1F" transform="translate(736,1400)"/>
<path d="M0 0 C1.84375 1.6875 1.84375 1.6875 3 3 C1.17778624 9.61242722 -1.05223604 15.80520671 -4 22 C-7.7289993 20.58719152 -11.17224101 18.87730787 -14.6875 17 C-24.19909697 12.23838046 -33.07969676 10.64566107 -43.41796875 13.71875 C-50.98722091 16.66023493 -55.10767008 21.40704599 -58.375 28.75 C-61.83337988 39.27044971 -61.70053237 52.68647592 -57.19140625 62.8359375 C-53.29892293 69.90621868 -48.24708707 73.34302513 -40.625 75.75 C-28.36605911 76.91751818 -17.71794337 74.67541581 -7.70703125 67.171875 C-6 66 -6 66 -4 66 C-2.77233849 68.74277547 -1.567837 71.49212499 -0.375 74.25 C-0.024375 75.02730469 0.32625 75.80460937 0.6875 76.60546875 C1.00976562 77.35957031 1.33203125 78.11367187 1.6640625 78.890625 C1.96779785 79.58188477 2.2715332 80.27314453 2.58447266 80.98535156 C3.13601758 83.65946948 2.47017979 84.75194572 1 87 C-11.22352266 96.91766544 -27.83375664 98.85221347 -43 98 C-55.64577547 96.37980293 -68.43733171 91.99640438 -76.734375 81.88671875 C-86.95409763 68.19491087 -90.3821648 52.53239123 -88.4375 35.6875 C-86.18428744 21.34109599 -80.53479938 9.91252109 -69.26953125 0.62890625 C-48.54856463 -14.24311282 -21.3406849 -12.64633179 0 0 Z " fill="#221E1F" transform="translate(107,1440)"/>
<path d="M0 0 C1.13665504 3.40996511 0.91583208 3.86305848 -0.43359375 7.01171875 C-0.75263672 7.76904297 -1.07167969 8.52636719 -1.40039062 9.30664062 C-1.74263672 10.09232422 -2.08488281 10.87800781 -2.4375 11.6875 C-2.77587891 12.48478516 -3.11425781 13.28207031 -3.46289062 14.10351562 C-4.3000701 16.07265607 -5.1489353 18.03682084 -6 20 C-9.68134589 18.61533464 -13.00200775 16.90595964 -16.4375 15 C-25.26505882 10.56993358 -35.05567836 8.6515441 -44.75390625 11.18359375 C-52.24330818 13.90582854 -56.52076399 17.84352268 -60 25 C-64.41927084 35.82721356 -64.0898203 48.2584481 -60.22265625 59.19921875 C-57.5963132 65.11694451 -53.73015361 69.13139753 -47.93359375 72.03515625 C-37.46202429 76.06268296 -27.13108894 74.21596387 -17 70 C-14.44303371 68.51296996 -12.0725194 66.94489394 -9.70703125 65.171875 C-8 64 -8 64 -6 64 C-3.69 69.94 -1.38 75.88 1 82 C-9.47834139 92.47834139 -23.02152739 95.87798402 -37.5625 96.25 C-52.68078741 96.08967882 -66.83616722 91.91147618 -77.96484375 81.328125 C-88.89821294 68.82085429 -91.95766852 53.28502165 -91.17919922 37.06884766 C-89.94480332 22.81779744 -84.31878195 10.17843429 -73.91796875 0.296875 C-53.6166803 -15.68325567 -20.27107471 -16.96472466 0 0 Z " fill="#221E1F" transform="translate(686,1442)"/>
<path d="M0 0 C9.64093001 9.42668712 15.14903454 22.25953559 15.8125 35.75 C15.86277344 36.60207031 15.91304687 37.45414063 15.96484375 38.33203125 C16.50374894 54.43451844 12.81334294 70.49104 1.75 82.6875 C-9.5031236 92.92803353 -22.87009016 96.19912697 -37.8125 95.625 C-51.48674376 94.40107077 -62.46126005 88.80832893 -71.33203125 78.30859375 C-82.36221839 63.09854622 -83.74740873 45.35191461 -80.93359375 27.3046875 C-78.42754051 15.36485268 -72.24528724 4.17604762 -62.375 -3.1875 C-42.18421368 -16.1806449 -18.86033553 -13.31317802 0 0 Z M-55.1875 11.75 C-64.5121765 24.32635857 -65.80023034 39.04426562 -63.71875 54.15234375 C-61.80253464 63.01483978 -58.31365454 70.91549748 -50.75 76.25 C-42.47753875 81.11453701 -33.49201069 82.32005786 -24.14453125 79.9921875 C-15.67183846 77.08791764 -10.97898272 73.4539283 -6.546875 65.640625 C-0.24715455 52.24466772 -0.29988042 35.5860058 -5.1875 21.75 C-8.81126487 14.44756474 -14.27136819 8.31931657 -21.75 4.875 C-32.83612848 1.28008067 -46.94429854 3.04884291 -55.1875 11.75 Z " fill="#221E1F" transform="translate(2192.1875,1442.25)"/>
<path d="M0 0 C8.84029741 7.19457482 12.08245625 16.26753282 13.37109375 27.3046875 C13.62598246 32.91547428 13.60537042 38.51366132 13.56640625 44.12890625 C13.56266775 45.72744061 13.55982474 47.32597728 13.55783081 48.92451477 C13.55026016 53.09523038 13.53066958 57.2658027 13.50842285 61.4364624 C13.48782144 65.70697085 13.47879878 69.97750286 13.46875 74.24804688 C13.44741625 82.60033292 13.41228916 90.95247578 13.37109375 99.3046875 C7.43109375 99.3046875 1.49109375 99.3046875 -4.62890625 99.3046875 C-4.64348877 97.13519531 -4.65807129 94.96570312 -4.6730957 92.73046875 C-4.72355733 85.54188123 -4.79017253 78.3535077 -4.86462116 71.16513062 C-4.90924351 66.80916209 -4.94851728 62.45328534 -4.9753418 58.09716797 C-5.00145633 53.88891754 -5.04191558 49.68102182 -5.09209251 45.47299194 C-5.10870634 43.87198314 -5.12025464 42.27091306 -5.12652016 40.66983032 C-5.16679889 31.31860793 -5.36614462 23.74262354 -10.31640625 15.4921875 C-16.28833207 9.84306849 -23.29515418 9.77245675 -31.1484375 9.94921875 C-38.12361063 10.66161017 -44.6861721 13.22073237 -49.62890625 18.3046875 C-54.68688666 25.0634508 -56.84983509 31.65534196 -56.94775391 40.15795898 C-56.95779953 40.80271683 -56.96784515 41.44747467 -56.97819519 42.11177063 C-57.00877773 44.21643278 -57.02599171 46.32096927 -57.04296875 48.42578125 C-57.06170056 49.89552371 -57.08127545 51.36525565 -57.10165405 52.8349762 C-57.15276888 56.6833981 -57.19250437 60.53185478 -57.22979736 64.38043213 C-57.26996726 68.31555643 -57.32100005 72.25053861 -57.37109375 76.18554688 C-57.46760827 83.89183652 -57.55108513 91.59818226 -57.62890625 99.3046875 C-63.56890625 99.3046875 -69.50890625 99.3046875 -75.62890625 99.3046875 C-75.95890625 65.3146875 -76.28890625 31.3246875 -76.62890625 -3.6953125 C-71.34890625 -3.6953125 -66.06890625 -3.6953125 -60.62890625 -3.6953125 C-58.81774669 -1.88415294 -59.24691177 0.91746977 -59.06640625 3.3671875 C-58.94072266 5.02427734 -58.94072266 5.02427734 -58.8125 6.71484375 C-58.75191406 7.56949219 -58.69132812 8.42414063 -58.62890625 9.3046875 C-57.96890625 9.3046875 -57.30890625 9.3046875 -56.62890625 9.3046875 C-55.96890625 8.4384375 -55.30890625 7.5721875 -54.62890625 6.6796875 C-42.3769161 -8.51852902 -15.77727866 -10.17435206 0 0 Z " fill="#221E1F" transform="translate(1704.62890625,1436.6953125)"/>
<path d="M0 0 C2.34375 2.05078125 2.34375 2.05078125 4 4 C4 8.67764254 1.1591603 12.95282976 -1 17 C-4.23458297 15.8881121 -6.91913511 14.44219429 -9.75 12.5625 C-18.9754168 6.73863353 -30.15550042 4.6511021 -40.9375 6.6875 C-45.9093647 8.05590313 -49.60211163 10.27593767 -52.875 14.3125 C-54.78975621 18.88663983 -54.46661324 22.51267029 -53 27.1875 C-47.32682162 35.16540709 -35.06300014 36.23743941 -26.05688477 38.42456055 C-3.96479131 43.83050475 -3.96479131 43.83050475 2.15234375 52.6640625 C6.55906834 60.03474063 7.14493498 67.86566947 5.57421875 76.28125 C3.14483646 83.79295964 -2.07393718 89.28019418 -9 92.875 C-24.51711799 100.17417064 -43.29188236 99.10950078 -59.375 94.25 C-65.87367064 91.90520938 -72.10275808 88.84586288 -76 83 C-74.02 79.04 -72.04 75.08 -70 71 C-68.288125 72.0725 -66.57625 73.145 -64.8125 74.25 C-54.72633978 80.03194999 -45.81229484 82.33917375 -34.25 82.5 C-33.37480713 82.51861084 -32.49961426 82.53722168 -31.59790039 82.55639648 C-25.3776593 82.49582309 -20.37929119 81.1834548 -15 78 C-11.70999568 74.51060148 -11.60370111 70.9778716 -11.40625 66.37890625 C-12.29916412 62.80137533 -14.27637555 60.37893339 -17 58 C-20.29980455 56.38644442 -20.29980455 56.38644442 -24.0625 55.4375 C-24.74715332 55.23825928 -25.43180664 55.03901855 -26.13720703 54.83374023 C-30.11295368 53.7015534 -34.11870413 52.72558194 -38.14453125 51.7890625 C-50.37061394 48.93801981 -61.76767964 46.21845072 -69 35 C-72.75130479 28.29614734 -72.95152629 20.98758362 -71.53125 13.54296875 C-69.03092145 4.80670175 -63.55992593 -0.36862957 -55.74609375 -4.7109375 C-37.91629029 -13.08054652 -16.42221507 -10.11549091 0 0 Z " fill="#221E1F" transform="translate(1237,1440)"/>
<path d="M0 0 C0 10.56 0 21.12 0 32 C9.57 32 19.14 32 29 32 C29 36.62 29 41.24 29 46 C19.43 46 9.86 46 0 46 C0.06771354 53.9388285 0.13823985 61.87677346 0.2355423 69.81515503 C0.28006433 73.51249087 0.31952739 77.20971702 0.34643555 80.90722656 C0.3725897 84.47360852 0.41307546 88.0395747 0.46318626 91.60569763 C0.48780439 93.61728473 0.49786836 95.62903309 0.50764465 97.64074707 C0.61577171 104.41806619 0.89544335 109.91131028 4 116 C9.3379888 120.28116126 13.76642544 120.52952931 20.4375 120.25 C21.26443359 120.23195313 22.09136719 120.21390625 22.94335938 120.1953125 C24.96274933 120.1486214 26.98153445 120.07689393 29 120 C29 124.95 29 129.9 29 135 C17.26141251 137.404289 5.62192871 138.50619117 -5 132 C-11.6061577 127.57400568 -15.4302411 121.81304859 -17 114 C-17.08759059 111.7693019 -17.11765949 109.53612422 -17.11352539 107.30371094 C-17.11367142 106.63988403 -17.11381744 105.97605713 -17.1139679 105.29211426 C-17.11327332 103.1061675 -17.10550231 100.92030681 -17.09765625 98.734375 C-17.09579045 97.21551561 -17.09436731 95.69665562 -17.09336853 94.17779541 C-17.0895561 90.18622161 -17.0797367 86.19468438 -17.06866455 82.203125 C-17.05842303 78.1276092 -17.05386504 74.05208747 -17.04882812 69.9765625 C-17.03811327 61.98435638 -17.0205268 53.99218695 -17 46 C-23.6 46 -30.2 46 -37 46 C-37 41.38 -37 36.76 -37 32 C-30.4 32 -23.8 32 -17 32 C-17 23.42 -17 14.84 -17 6 C-14.380625 5.01 -11.76125 4.02 -9.0625 3 C-8.2362915 2.68675781 -7.41008301 2.37351562 -6.55883789 2.05078125 C-1.11111111 0 -1.11111111 0 0 0 Z " fill="#221E1F" transform="translate(2432,1401)"/>
<path d="M0 0 C8.58 0 17.16 0 26 0 C26 33.99 26 67.98 26 103 C17.42 103 8.84 103 0 103 C0 69.01 0 35.02 0 0 Z " fill="#231F20" transform="translate(780,1433)"/>
<path d="M0 0 C0 4.95 0 9.9 0 15 C-3.4651459 15.86628648 -6.06494115 16.01257061 -9.58447266 15.88305664 C-17.75626935 15.60889258 -24.24837536 15.95629235 -30.73046875 21.47265625 C-39.1691754 30.28641653 -39.60266341 41.07734712 -39.609375 52.6328125 C-39.6243846 54.12069473 -39.6411175 55.60856047 -39.65948486 57.09640503 C-39.70285962 60.97937864 -39.72309032 64.86212764 -39.73822021 68.74530029 C-39.75790018 72.72095865 -39.79985725 76.6963782 -39.83984375 80.671875 C-39.91482167 88.4478822 -39.96324461 96.22370097 -40 104 C-45.94 104 -51.88 104 -58 104 C-58.33 70.01 -58.66 36.02 -59 1 C-53.72 1 -48.44 1 -43 1 C-42.34 5.95 -41.68 10.9 -41 16 C-40.05125 14.63875 -39.1025 13.2775 -38.125 11.875 C-28.91356158 0.03438583 -14.31332986 -3.57833246 0 0 Z " fill="#221E1F" transform="translate(2103,1432)"/>
<path d="M0 0 C-0.33 5.28 -0.66 10.56 -1 16 C-2.26714844 15.95359375 -3.53429688 15.9071875 -4.83984375 15.859375 C-18.96024701 15.23500177 -18.96024701 15.23500177 -30.9765625 21.765625 C-40.58559122 31.80963033 -40.14708755 43.87522448 -40.31640625 57.02734375 C-40.33700907 58.38498011 -40.35800634 59.74261053 -40.37937927 61.10023499 C-40.43425665 64.65275226 -40.48381552 68.20532408 -40.53222656 71.75793457 C-40.58269427 75.3914061 -40.63824768 79.02479959 -40.69335938 82.65820312 C-40.80052019 89.77206885 -40.9015857 96.88600711 -41 104 C-46.61 104 -52.22 104 -58 104 C-58.02505615 101.34171143 -58.0501123 98.68342285 -58.07592773 95.94458008 C-58.15974774 87.11965535 -58.24838665 78.29478364 -58.33933926 69.4699297 C-58.39428824 64.12425947 -58.44766029 58.77858357 -58.49731445 53.43286133 C-58.5453753 48.26512559 -58.59772736 43.09744887 -58.65294075 37.92978477 C-58.6731771 35.96724625 -58.6919185 34.00469167 -58.70907402 32.04212379 C-58.80098547 21.64205772 -59.0412463 11.36204623 -60 1 C-54.39 1 -48.78 1 -43 1 C-42.34 5.95 -41.68 10.9 -41 16 C-40.195625 14.80375 -39.39125 13.6075 -38.5625 12.375 C-29.37889807 0.19487069 -14.52364097 -3.63091024 0 0 Z " fill="#221E1F" transform="translate(1566,1432)"/>
<path d="M0 0 C5.94 0 11.88 0 18 0 C18 33.99 18 67.98 18 103 C12.06 103 6.12 103 0 103 C0 69.01 0 35.02 0 0 Z " fill="#221E1F" transform="translate(1581,1433)"/>
<path d="M0 0 C-0.59548591 6.67322301 -2.77378575 12.60756064 -5.0625 18.875 C-5.46082031 19.97457031 -5.85914063 21.07414062 -6.26953125 22.20703125 C-15.0675904 46.0675904 -15.0675904 46.0675904 -19 50 C-21.34987262 50.23527773 -23.70556039 50.41386417 -26.0625 50.5625 C-27.35285156 50.64628906 -28.64320312 50.73007813 -29.97265625 50.81640625 C-30.97167969 50.87699219 -31.97070312 50.93757813 -33 51 C-32.77860352 50.22624023 -32.55720703 49.45248047 -32.32910156 48.65527344 C-27.92984343 33.20522537 -23.80215192 17.8358454 -21 2 C-13.94546999 0.79556805 -7.16562789 -0.28100502 0 0 Z " fill="#221E1F" transform="translate(1103,1510)"/>
<path d="M0 0 C9.57 0 19.14 0 29 0 C29 8.58 29 17.16 29 26 C19.43 26 9.86 26 0 26 C0 17.42 0 8.84 0 0 Z " fill="#231F20" transform="translate(778,1387)"/>
<path d="M0 0 C6.93 0 13.86 0 21 0 C21 6.6 21 13.2 21 20 C14.07 20 7.14 20 0 20 C0 13.4 0 6.8 0 0 Z " fill="#221E1F" transform="translate(1580,1390)"/>
</svg>
