<?xml version="1.0" encoding="UTF-8"?>
<svg version="1.1" xmlns="http://www.w3.org/2000/svg" width="200" height="100">
<path d="M0 0 C66 0 132 0 200 0 C200 33 200 66 200 100 C134 100 68 100 0 100 C0 67 0 34 0 0 Z " fill="#FCFDFC" transform="translate(0,0)"/>
<path d="M0 0 C4.28146411 1.88273574 5.45808298 4.05116025 7.6875 8.1875 C8.37718926 9.44495368 9.0686646 10.70142901 9.76171875 11.95703125 C10.12185059 12.61396973 10.48198242 13.2709082 10.85302734 13.94775391 C12.82219185 17.47112488 14.91193782 20.92120309 17 24.375 C17.39791748 25.0352417 17.79583496 25.6954834 18.20581055 26.37573242 C19.13583781 27.91798146 20.06770377 29.4591215 21 31 C19.02 27.04 17.04 23.08 15 19 C17.39706123 18.89145383 19.78915838 18.81246843 22.1875 18.75 C22.86103516 18.71648438 23.53457031 18.68296875 24.22851562 18.6484375 C27.61246808 18.58240916 29.75069572 18.85396857 32.6875 20.57421875 C35.49989428 23.52438235 37.66000618 26.61349576 39.8125 30.0625 C40.21919922 30.68705078 40.62589844 31.31160156 41.04492188 31.95507812 C44 36.60870536 44 36.60870536 44 40 C27.5 40 11 40 -6 40 C-5.47103163 46.01968036 -5.47103163 46.01968036 -3 51 C-2.67 48.69 -2.34 46.38 -2 44 C-0.68 44 0.64 44 2 44 C2 50.6 2 57.2 2 64 C0.35 64 -1.3 64 -3 64 C-3.66 62.02 -4.32 60.04 -5 58 C-5.33 59.98 -5.66 61.96 -6 64 C-7.95766281 64.08082094 -9.91626728 64.13910778 -11.875 64.1875 C-13.51082031 64.23970703 -13.51082031 64.23970703 -15.1796875 64.29296875 C-16.11039063 64.19628906 -17.04109375 64.09960938 -18 64 C-18.66 63.01 -19.32 62.02 -20 61 C-20.556875 61.495 -21.11375 61.99 -21.6875 62.5 C-24.4411615 64.28615881 -25.77756457 64.4957593 -29 64 C-30.62890625 62.91015625 -30.62890625 62.91015625 -32 61 C-32.3984375 57.78515625 -32.3984375 57.78515625 -32.375 54.0625 C-32.38273437 52.83660156 -32.39046875 51.61070313 -32.3984375 50.34765625 C-31.97903205 46.82382812 -31.52128543 45.4397658 -29 43 C-25.0914588 41.57871229 -22.1714867 41 -18 41 C-19.65 40.67 -21.3 40.34 -23 40 C-17.66518579 25.85770949 -7.85166767 12.84610547 0 0 Z " fill="#186536" transform="translate(90,12)"/>
<path d="M0 0 C63.36 0 126.72 0 192 0 C193.04973814 4.19895255 192.72795155 6.79405774 192 11 C190.68 11 189.36 11 188 11 C187.67 10.01 187.34 9.02 187 8 C186.67 8.99 186.34 9.98 186 11 C181.05 11 176.1 11 171 11 C171 9.02 171 7.04 171 5 C170.01 5 169.02 5 168 5 C168 6.65 168 8.3 168 10 C167.34 10 166.68 10 166 10 C166 8.35 166 6.7 166 5 C165.01 5.33 164.02 5.66 163 6 C162.26676204 8.01508358 162.26676204 8.01508358 162 10 C157.48387097 11.12903226 157.48387097 11.12903226 155.125 10.5 C152.64904027 9.91742124 150.76374763 10.10479811 148.25 10.4375 C147.45078125 10.53933594 146.6515625 10.64117187 145.828125 10.74609375 C145.22484375 10.82988281 144.6215625 10.91367188 144 11 C143.67 10.01 143.34 9.02 143 8 C142.34 8 141.68 8 141 8 C141 8.66 141 9.32 141 10 C140.34 10 139.68 10 139 10 C139 7.36 139 4.72 139 2 C130.42 2 121.84 2 113 2 C113.495 5.465 113.495 5.465 114 9 C113.34 9.66 112.68 10.32 112 11 C109.66327016 10.6913753 107.33006911 10.35543427 105 10 C104.071875 10.185625 103.14375 10.37125 102.1875 10.5625 C101.465625 10.706875 100.74375 10.85125 100 11 C99.01 10.01 99.01 10.01 98 9 C98.375 5.875 98.375 5.875 99 3 C96.69 3 94.38 3 92 3 C92.57584432 5.38564077 93.22227595 7.66682784 94 10 C91.69 10.33 89.38 10.66 87 11 C86.17361624 8.10765685 86 6.11257569 86 3 C74.45 3 62.9 3 51 3 C51 4.32 51 5.64 51 7 C50.01 7 49.02 7 48 7 C48 7.66 48 8.32 48 9 C49.32 8.67 50.64 8.34 52 8 C52.33 6.35 52.66 4.7 53 3 C54.98 3 56.96 3 59 3 C59.495 6.96 59.495 6.96 60 11 C40.2 11 20.4 11 0 11 C0 7.37 0 3.74 0 0 Z " fill="#A9A9A9" transform="translate(5,77)"/>
<path d="M0 0 C3.08708331 3.70589056 5.73750332 7.57910265 8.25 11.6875 C8.61351563 12.26822266 8.97703125 12.84894531 9.3515625 13.44726562 C12 17.7534657 12 17.7534657 12 20 C25.86 20.33 39.72 20.66 54 21 C54.33 20.34 54.66 19.68 55 19 C55 19.99 55 20.98 55 22 C38.5 22 22 22 5 22 C5.52896837 28.01968036 5.52896837 28.01968036 8 33 C8.33 30.69 8.66 28.38 9 26 C10.32 26 11.64 26 13 26 C13 32.6 13 39.2 13 46 C11.35 46 9.7 46 8 46 C7.34 44.02 6.68 42.04 6 40 C5.67 41.98 5.34 43.96 5 46 C3.04233719 46.08082094 1.08373272 46.13910778 -0.875 46.1875 C-2.51082031 46.23970703 -2.51082031 46.23970703 -4.1796875 46.29296875 C-5.11039063 46.19628906 -6.04109375 46.09960938 -7 46 C-7.66 45.01 -8.32 44.02 -9 43 C-9.556875 43.495 -10.11375 43.99 -10.6875 44.5 C-13.4411615 46.28615881 -14.77756457 46.4957593 -18 46 C-19.62890625 44.91015625 -19.62890625 44.91015625 -21 43 C-21.3984375 39.78515625 -21.3984375 39.78515625 -21.375 36.0625 C-21.38273437 34.83660156 -21.39046875 33.61070313 -21.3984375 32.34765625 C-20.97903205 28.82382812 -20.52128543 27.4397658 -18 25 C-14.0914588 23.57871229 -11.1714867 23 -7 23 C-8.65 22.67 -10.3 22.34 -12 22 C-10.54928656 18.07369099 -8.69633623 14.59769378 -6.5625 11 C-5.96566406 9.989375 -5.36882812 8.97875 -4.75390625 7.9375 C-3.17285198 5.2894982 -1.58889704 2.64330271 0 0 Z " fill="#D5D8D0" transform="translate(79,30)"/>
<path d="M0 0 C63.36 0 126.72 0 192 0 C193.04973814 4.19895255 192.72795155 6.79405774 192 11 C190.68 11 189.36 11 188 11 C187.67 10.01 187.34 9.02 187 8 C186.67 8.99 186.34 9.98 186 11 C181.05 11 176.1 11 171 11 C171 9.02 171 7.04 171 5 C170.01 5 169.02 5 168 5 C168 6.65 168 8.3 168 10 C167.34 10 166.68 10 166 10 C166 8.35 166 6.7 166 5 C165.01 5.33 164.02 5.66 163 6 C162.26676204 8.01508358 162.26676204 8.01508358 162 10 C157.48387097 11.12903226 157.48387097 11.12903226 155.125 10.5 C152.64904027 9.91742124 150.76374763 10.10479811 148.25 10.4375 C147.45078125 10.53933594 146.6515625 10.64117187 145.828125 10.74609375 C145.22484375 10.82988281 144.6215625 10.91367188 144 11 C143.67 10.01 143.34 9.02 143 8 C142.34 8 141.68 8 141 8 C141 8.66 141 9.32 141 10 C140.34 10 139.68 10 139 10 C139 7.36 139 4.72 139 2 C93.13 2 47.26 2 0 2 C0 1.34 0 0.68 0 0 Z " fill="#797979" transform="translate(5,77)"/>
<path d="M0 0 C7.26 0.33 14.52 0.66 22 1 C22 2.65 22 4.3 22 6 C20.68 6 19.36 6 18 6 C18 10.95 18 15.9 18 21 C16.35 21 14.7 21 13 21 C13 16.38 13 11.76 13 7 C11.35 7.66 9.7 8.32 8 9 C8.33 12.96 8.66 16.92 9 21 C7.68 21 6.36 21 5 21 C4.67 20.34 4.34 19.68 4 19 C1.97536745 18.34786708 1.97536745 18.34786708 0 18 C-0.33 18.99 -0.66 19.98 -1 21 C-3.64 21 -6.28 21 -9 21 C-9.99 18.69 -10.98 16.38 -12 14 C-12.33 16.31 -12.66 18.62 -13 21 C-14.32 21 -15.64 21 -17 21 C-17 14.4 -17 7.8 -17 1 C-14.03 1 -11.06 1 -8 1 C-6 3 -6 3 -5.75 6.375 C-5.97484367 9.63523324 -6.2760489 11.30632641 -8 14 C-7.34 14 -6.68 14 -6 14 C-5.67 15.32 -5.34 16.64 -5 18 C-2.87463019 12.11436051 -1.4842374 6.07188028 0 0 Z " fill="#0F0F0F" transform="translate(130,55)"/>
<path d="M0 0 C62.7 0 125.4 0 190 0 C190 0.33 190 0.66 190 1 C164.26 1 138.52 1 112 1 C112.495 4.465 112.495 4.465 113 8 C112.34 8.66 111.68 9.32 111 10 C108.66327016 9.6913753 106.33006911 9.35543427 104 9 C103.071875 9.185625 102.14375 9.37125 101.1875 9.5625 C100.465625 9.706875 99.74375 9.85125 99 10 C98.01 9.01 98.01 9.01 97 8 C97.375 4.875 97.375 4.875 98 2 C95.69 2 93.38 2 91 2 C91.57584432 4.38564077 92.22227595 6.66682784 93 9 C90.69 9.33 88.38 9.66 86 10 C85.17361624 7.10765685 85 5.11257569 85 2 C56.95 1.67 28.9 1.34 0 1 C0 0.67 0 0.34 0 0 Z " fill="#1B1B1B" transform="translate(6,78)"/>
<path d="M0 0 C2.97 0 5.94 0 9 0 C9.33 0.66 9.66 1.32 10 2 C10.33 1.34 10.66 0.68 11 0 C15.29 0 19.58 0 24 0 C24 1.65 24 3.3 24 5 C22.68 5 21.36 5 20 5 C20 9.95 20 14.9 20 20 C18.68 20 17.36 20 16 20 C16 15.05 16 10.1 16 5 C14.35 5 12.7 5 11 5 C10.855625 5.969375 10.71125 6.93875 10.5625 7.9375 C10 11 10 11 9 12 C7.33382885 12.04063832 5.66611905 12.042721 4 12 C4 14.64 4 17.28 4 20 C2.68 20 1.36 20 0 20 C0 13.4 0 6.8 0 0 Z " fill="#454545" transform="translate(6,56)"/>
<path d="M0 0 C3.08708331 3.70589056 5.73750332 7.57910265 8.25 11.6875 C8.61351563 12.26822266 8.97703125 12.84894531 9.3515625 13.44726562 C12 17.7534657 12 17.7534657 12 20 C12.99 20.33 13.98 20.66 15 21 C6.09 21 -2.82 21 -12 21 C-5.25 8.625 -5.25 8.625 -2.625 4.3125 C-2.12226562 3.48363281 -1.61953125 2.65476563 -1.1015625 1.80078125 C-0.73804687 1.20652344 -0.37453125 0.61226562 0 0 Z " fill="#BD915A" transform="translate(79,30)"/>
<path d="M0 0 C2.72923388 -0.0270817 5.45819637 -0.04687847 8.1875 -0.0625 C8.95642578 -0.07087891 9.72535156 -0.07925781 10.51757812 -0.08789062 C14.48526789 -0.10491934 18.12571234 0.01395885 22 1 C22 2.32 22 3.64 22 5 C21.01 5 20.02 5 19 5 C19 5.66 19 6.32 19 7 C20.32 6.67 21.64 6.34 23 6 C23.33 4.35 23.66 2.7 24 1 C25.98 1 27.96 1 30 1 C30.33 3.64 30.66 6.28 31 9 C22.09 9 13.18 9 4 9 C4 8.01 4 7.02 4 6 C3.34 6 2.68 6 2 6 C1.67 6.66 1.34 7.32 1 8 C1.020625 7.05125 1.04125 6.1025 1.0625 5.125 C1.22551826 2.09333717 1.22551826 2.09333717 0 0 Z " fill="#BEBEBE" transform="translate(34,79)"/>
<path d="M0 0 C4.41665288 -0.02902168 8.83328123 -0.04680608 13.25 -0.0625 C15.13138672 -0.07506836 15.13138672 -0.07506836 17.05078125 -0.08789062 C18.85869141 -0.09272461 18.85869141 -0.09272461 20.703125 -0.09765625 C22.36843262 -0.10551147 22.36843262 -0.10551147 24.06738281 -0.11352539 C26.57157379 -0.01658493 28.6181156 0.26769724 31 1 C31 1.66 31 2.32 31 3 C30.34 3 29.68 3 29 3 C29 4.65 29 6.3 29 8 C28.34 8 27.68 8 27 8 C27 6.35 27 4.7 27 3 C26.01 3.33 25.02 3.66 24 4 C23.26676204 6.01508358 23.26676204 6.01508358 23 8 C18.48387097 9.12903226 18.48387097 9.12903226 16.125 8.5 C13.64904027 7.91742124 11.76374763 8.10479811 9.25 8.4375 C8.45078125 8.53933594 7.6515625 8.64117187 6.828125 8.74609375 C6.22484375 8.82988281 5.6215625 8.91367188 5 9 C4.67 8.01 4.34 7.02 4 6 C3.34 6 2.68 6 2 6 C2 6.66 2 7.32 2 8 C1.34 8 0.68 8 0 8 C0 5.36 0 2.72 0 0 Z " fill="#9C9C9C" transform="translate(144,79)"/>
<path d="M0 0 C1.98 0 3.96 0 6 0 C6.33 1.98 6.66 3.96 7 6 C7.66 4.02 8.32 2.04 9 0 C10.65 0 12.3 0 14 0 C14 6.6 14 13.2 14 20 C13.01 20 12.02 20 11 20 C10.67 17.69 10.34 15.38 10 13 C9.67 14.98 9.34 16.96 9 19 C8.01 19 7.02 19 6 19 C5.34 16.03 4.68 13.06 4 10 C3.67 12.97 3.34 15.94 3 19 C2.01 19 1.02 19 0 19 C0 12.73 0 6.46 0 0 Z " fill="#4D4D4D" transform="translate(167,56)"/>
<path d="M0 0 C3.4375 0.875 3.4375 0.875 5.4375 3.875 C5.7734375 6.65234375 5.7734375 6.65234375 5.8125 9.8125 C5.84085938 10.85277344 5.86921875 11.89304687 5.8984375 12.96484375 C5.33118912 16.54620002 4.27275697 17.68765368 1.4375 19.875 C-1.37635919 20.35541498 -2.80196565 20.38384672 -5.19140625 18.78515625 C-7.27300282 15.88515419 -6.95950036 13.39505829 -6.9375 9.875 C-6.94523437 8.6375 -6.95296875 7.4 -6.9609375 6.125 C-6.5625 2.875 -6.5625 2.875 -5.26171875 0.9296875 C-3.5625 -0.125 -3.5625 -0.125 0 0 Z " fill="#313131" transform="translate(64.5625,56.125)"/>
<path d="M0 0 C1.98362069 2.91708924 1.9876191 4.12380904 1.625 7.75 C1.315625 9.35875 1.315625 9.35875 1 11 C-0.32 11 -1.64 11 -3 11 C-3.33 10.01 -3.66 9.02 -4 8 C-4.33 8.99 -4.66 9.98 -5 11 C-9.95 11 -14.9 11 -20 11 C-20.33 8.36 -20.66 5.72 -21 3 C-22.32 2.67 -23.64 2.34 -25 2 C-16.75 2 -8.5 2 0 2 C0 1.34 0 0.68 0 0 Z " fill="#DBDBDB" transform="translate(196,77)"/>
<path d="M0 0 C8.91 0 17.82 0 27 0 C27.33 2.31 27.66 4.62 28 7 C27.34 7.66 26.68 8.32 26 9 C23.66327016 8.6913753 21.33006911 8.35543427 19 8 C18.071875 8.185625 17.14375 8.37125 16.1875 8.5625 C15.465625 8.706875 14.74375 8.85125 14 9 C13.34 8.34 12.68 7.68 12 7 C12.375 3.875 12.375 3.875 13 1 C10.69 1 8.38 1 6 1 C6.57584432 3.38564077 7.22227595 5.66682784 8 8 C5.69 8.33 3.38 8.66 1 9 C0.03087958 5.72921858 0 3.60964568 0 0 Z " fill="#DADADA" transform="translate(91,79)"/>
<path d="M0 0 C7.26 0.33 14.52 0.66 22 1 C22 2.65 22 4.3 22 6 C20.68 6 19.36 6 18 6 C18 10.95 18 15.9 18 21 C16.35 21 14.7 21 13 21 C13 16.38 13 11.76 13 7 C10.69 7.66 8.38 8.32 6 9 C5.7525 7.88625 5.505 6.7725 5.25 5.625 C4.32862925 1.58116476 4.32862925 1.58116476 0 0 Z " fill="#B9B9B8" transform="translate(130,55)"/>
<path d="M0 0 C1.32 0 2.64 0 4 0 C4.33 1.65 4.66 3.3 5 5 C5.391875 4.175 5.78375 3.35 6.1875 2.5 C6.785625 1.675 7.38375 0.85 8 0 C10.6875 -0.3125 10.6875 -0.3125 13 0 C12.566875 1.051875 12.566875 1.051875 12.125 2.125 C10.97866412 5.05452503 9.97374346 8.00921653 9 11 C9.66 11 10.32 11 11 11 C11.66 13.97 12.32 16.94 13 20 C11.35 19.67 9.7 19.34 8 19 C7.67 16.69 7.34 14.38 7 12 C6.34 12 5.68 12 5 12 C4.67 14.64 4.34 17.28 4 20 C2.68 20 1.36 20 0 20 C0 13.4 0 6.8 0 0 Z " fill="#1C1C1C" transform="translate(43,56)"/>
<path d="M0 0 C1.32 0 2.64 0 4 0 C4 6.6 4 13.2 4 20 C2.35 20 0.7 20 -1 20 C-1.99 17.03 -2.98 14.06 -4 11 C-4.33 13.64 -4.66 16.28 -5 19 C-5.99 19 -6.98 19 -8 19 C-8 13.06 -8 7.12 -8 1 C-4 2 -4 2 -2.25 4.5625 C-1.8375 5.366875 -1.425 6.17125 -1 7 C-0.67 4.69 -0.34 2.38 0 0 Z " fill="#232323" transform="translate(88,56)"/>
<path d="M0 0 C1.65 0 3.3 0 5 0 C5.67449966 2.39387157 6.33976641 4.78969221 7 7.1875 C7.19078125 7.86103516 7.3815625 8.53457031 7.578125 9.22851562 C8.5825836 12.90555156 9.23704741 16.1850182 9 20 C7.68 20 6.36 20 5 20 C5 19.01 5 18.02 5 17 C3.02 17 1.04 17 -1 17 C-1 17.66 -1 18.32 -1 19 C-1.99 19 -2.98 19 -4 19 C-2.89309248 12.59406714 -1.66054831 6.28636144 0 0 Z " fill="#2B2B2B" transform="translate(187,56)"/>
<path d="M0 0 C2.97 0 5.94 0 9 0 C11 2 11 2 11.25 5.4375 C11 9 11 9 9 12 C6.375 12.1875 6.375 12.1875 4 12 C4 14.64 4 17.28 4 20 C2.68 20 1.36 20 0 20 C0 13.4 0 6.8 0 0 Z " fill="#040404" transform="translate(100,56)"/>
<path d="M0 0 C1.65 0 3.3 0 5 0 C7.43046191 6.32837252 8.59060025 12.23784552 9 19 C7.68 19 6.36 19 5 19 C5 18.01 5 17.02 5 16 C3.01508358 16.26676204 3.01508358 16.26676204 1 17 C0.67 17.99 0.34 18.98 0 20 C-1.32 20 -2.64 20 -4 20 C-2.66666667 13.33333333 -1.33333333 6.66666667 0 0 Z " fill="#121212" transform="translate(156,56)"/>
<path d="M0 0 C1.65 0 3.3 0 5 0 C5 4.95 5 9.9 5 15 C6.32 15.33 7.64 15.66 9 16 C2.4 16 -4.2 16 -11 16 C-9.68 15.67 -8.36 15.34 -7 15 C-7 12.36 -7 9.72 -7 7 C-5.35 6.67 -3.7 6.34 -2 6 C-1.34 4.02 -0.68 2.04 0 0 Z " fill="#F2F2F2" transform="translate(17,61)"/>
<path d="M0 0 C0.33 0 0.66 0 1 0 C1 6.6 1 13.2 1 20 C2.32 20 3.64 20 5 20 C5 17.36 5 14.72 5 12 C7.89932357 14.39509338 8.50168276 16.31245243 9 20 C11.97 19.67 14.94 19.34 18 19 C18 19.66 18 20.32 18 21 C8.1 21 -1.8 21 -12 21 C-10.68 20.67 -9.36 20.34 -8 20 C-8 17.36 -8 14.72 -8 12 C-6.35 11.67 -4.7 11.34 -3 11 C-2.01 7.37 -1.02 3.74 0 0 Z " fill="#F0F0F0" transform="translate(112,56)"/>
<path d="M0 0 C0.33 0 0.66 0 1 0 C1.33 5.94 1.66 11.88 2 18 C2.99 18.33 3.98 18.66 5 19 C5.33 18.34 5.66 17.68 6 17 C5.67 18.32 5.34 19.64 5 21 C-4.9 21 -14.8 21 -25 21 C-24.67 19.35 -24.34 17.7 -24 16 C-22.68 16 -21.36 16 -20 16 C-20 16.99 -20 17.98 -20 19 C-19.01 18.67 -18.02 18.34 -17 18 C-16.26676204 15.98491642 -16.26676204 15.98491642 -16 14 C-14 16 -14 16 -14 19 C-13.01 19 -12.02 19 -11 19 C-11 15.37 -11 11.74 -11 8 C-8.60236815 10.39763185 -8.65719414 11.33273498 -8.375 14.625 C-8.30023438 15.44226563 -8.22546875 16.25953125 -8.1484375 17.1015625 C-8.07496094 18.04128906 -8.07496094 18.04128906 -8 19 C-7.01 19 -6.02 19 -5 19 C-4.67 15.37 -4.34 11.74 -4 8 C-3.67 8 -3.34 8 -3 8 C-3 11.96 -3 15.92 -3 20 C-2.01 20 -1.02 20 0 20 C0 13.4 0 6.8 0 0 Z " fill="#B5B5B5" transform="translate(181,56)"/>
<path d="M0 0 C0.66 0.33 1.32 0.66 2 1 C3.99960012 1.039992 6.00047242 1.04346799 8 1 C9.31626692 4.61973402 10 7.09567131 10 11 C5.38 11 0.76 11 -4 11 C-4 9.68 -4 8.36 -4 7 C-4.66 6.67 -5.32 6.34 -6 6 C-5.34 6 -4.68 6 -4 6 C-3.67 5.01 -3.34 4.02 -3 3 C-2.34 3 -1.68 3 -1 3 C-0.67 2.01 -0.34 1.02 0 0 Z " fill="#146435" transform="translate(120,39)"/>
<path d="M0 0 C2.875 -0.125 2.875 -0.125 6 0 C6.66 0.66 7.32 1.32 8 2 C8.33 1.34 8.66 0.68 9 0 C9.639375 0.185625 10.27875 0.37125 10.9375 0.5625 C11.9584375 0.7790625 11.9584375 0.7790625 13 1 C13.33 0.67 13.66 0.34 14 0 C15.66617115 -0.04063832 17.33388095 -0.042721 19 0 C19 0.66 19 1.32 19 2 C17.68 2 16.36 2 15 2 C15 3.32 15 4.64 15 6 C15.66 5.34 16.32 4.68 17 4 C17.99 4 18.98 4 20 4 C20 4.99 20 5.98 20 7 C13.30247126 8.16478761 6.7910971 8 0 8 C0 5.36 0 2.72 0 0 Z " fill="#939393" transform="translate(66,80)"/>
<path d="M0 0 C3.63 0 7.26 0 11 0 C11 1.32 11 2.64 11 4 C10.01 4 9.02 4 8 4 C8 8.95 8 13.9 8 19 C6.68 19 5.36 19 4 19 C4 14.05 4 9.1 4 4 C2.68 4 1.36 4 0 4 C0 2.68 0 1.36 0 0 Z " fill="#1D1D1D" transform="translate(18,57)"/>
<path d="M0 0 C0.99 0 1.98 0 3 0 C3.33 2.97 3.66 5.94 4 9 C5.32 9 6.64 9 8 9 C8.33 6.03 8.66 3.06 9 0 C9.99 0.33 10.98 0.66 12 1 C12.62068966 10.03448276 12.62068966 10.03448276 10.3125 13.625 C7.54812231 15.26868403 6.16111629 15.56737985 3 15 C1.359375 13.859375 1.359375 13.859375 0 12 C-0.29296875 9.08203125 -0.29296875 9.08203125 -0.1875 5.8125 C-0.16042969 4.72582031 -0.13335937 3.63914062 -0.10546875 2.51953125 C-0.07066406 1.68808594 -0.03585938 0.85664062 0 0 Z " fill="#0F0F0F" transform="translate(58,61)"/>
<path d="M0 0 C11.55 0 23.1 0 35 0 C35 1.65 35 3.3 35 5 C34.34 5.66 33.68 6.32 33 7 C32.01 7 31.02 7 30 7 C30 5.68 30 4.36 30 3 C31.32 3 32.64 3 34 3 C34 2.34 34 1.68 34 1 C31.69 1.66 29.38 2.32 27 3 C27 2.34 27 1.68 27 1 C26.01 1 25.02 1 24 1 C23.67 1.99 23.34 2.98 23 4 C21.68 3.01 20.36 2.02 19 1 C19 3.31 19 5.62 19 8 C18.67 8 18.34 8 18 8 C18 5.69 18 3.38 18 1 C17.01 1 16.02 1 15 1 C15 3.64 15 6.28 15 9 C13 7 13 7 12.875 3.875 C12.91625 2.92625 12.9575 1.9775 13 1 C11.02 1 9.04 1 7 1 C7 2.65 7 4.3 7 6 C5.35 6.33 3.7 6.66 2 7 C2 5.68 2 4.36 2 3 C2.99 3 3.98 3 5 3 C5 2.34 5 1.68 5 1 C3.35 1 1.7 1 0 1 C0 0.67 0 0.34 0 0 Z " fill="#DDDDDD" transform="translate(51,79)"/>
<path d="M0 0 C3.73367536 1.33345549 4.75433957 3.54259773 6.625 6.9375 C6.625 7.5975 6.625 8.2575 6.625 8.9375 C0.685 8.9375 -5.255 8.9375 -11.375 8.9375 C-11.045 7.6175 -10.715 6.2975 -10.375 4.9375 C-8.395 4.9375 -6.415 4.9375 -4.375 4.9375 C-4.375 3.6175 -4.375 2.2975 -4.375 0.9375 C-2.375 -0.0625 -2.375 -0.0625 0 0 Z " fill="#CB762A" transform="translate(82.375,41.0625)"/>
<path d="M0 0 C0.99 0 1.98 0 3 0 C3.33 0.66 3.66 1.32 4 2 C4.33 1.34 4.66 0.68 5 0 C5.99 0 6.98 0 8 0 C8 1.65 8 3.3 8 5 C9.32 5 10.64 5 12 5 C11.01 4.34 10.02 3.68 9 3 C9.33 2.01 9.66 1.02 10 0 C11.65 0.33 13.3 0.66 15 1 C15 2.98 15 4.96 15 7 C9.91761871 8.06997501 5.18438406 8 0 8 C0 5.36 0 2.72 0 0 Z " fill="#626262" transform="translate(120,80)"/>
<path d="M0 0 C4.95 0 9.9 0 15 0 C14.01 0.495 14.01 0.495 13 1 C12.34786708 3.02463255 12.34786708 3.02463255 12 5 C10.68 3.68 9.36 2.36 8 1 C8 3.31 8 5.62 8 8 C8.66 8 9.32 8 10 8 C10.33 7.01 10.66 6.02 11 5 C11 6.32 11 7.64 11 9 C7.37 9 3.74 9 0 9 C0 6.03 0 3.06 0 0 Z " fill="#C3C3C3" transform="translate(5,79)"/>
<path d="M0 0 C2.97 0 5.94 0 9 0 C9 0.33 9 0.66 9 1 C6.36 1 3.72 1 1 1 C1.33 2.98 1.66 4.96 2 7 C2.33 6.01 2.66 5.02 3 4 C4.65 4.33 6.3 4.66 8 5 C8 6.32 8 7.64 8 9 C7.01 9 6.02 9 5 9 C4.67 12.63 4.34 16.26 4 20 C2.68 20 1.36 20 0 20 C0 13.4 0 6.8 0 0 Z " fill="#353435" transform="translate(113,56)"/>
<path d="M0 0 C3.63 0 7.26 0 11 0 C11 1.32 11 2.64 11 4 C9.68 4 8.36 4 7 4 C7 8.62 7 13.24 7 18 C6.01 18 5.02 18 4 18 C4 13.38 4 8.76 4 4 C2.68 4 1.36 4 0 4 C0 2.68 0 1.36 0 0 Z " fill="#080707" transform="translate(140,57)"/>
<path d="M0 0 C7.26 0 14.52 0 22 0 C22 0.99 22 1.98 22 3 C21.34 3 20.68 3 20 3 C20 4.98 20 6.96 20 9 C18.68 9 17.36 9 16 9 C13.64046906 6.64046906 13.50858587 5.22104383 13 2 C11.68 2 10.36 2 9 2 C8.77390663 4.12364481 8.77390663 4.12364481 10.5 5.625 C10.995 6.07875 11.49 6.5325 12 7 C10.35 6.67 8.7 6.34 7 6 C7 4.35 7 2.7 7 1 C6.01 1 5.02 1 4 1 C3.67 1.99 3.34 2.98 3 4 C2.67 3.01 2.34 2.02 2 1 C1.34 0.67 0.68 0.34 0 0 Z " fill="#DBDBDB" transform="translate(121,79)"/>
<path d="M0 0 C0.33 0 0.66 0 1 0 C1.04898438 0.84304687 1.09796875 1.68609375 1.1484375 2.5546875 C1.22320312 3.65039062 1.29796875 4.74609375 1.375 5.875 C1.44460937 6.96554688 1.51421875 8.05609375 1.5859375 9.1796875 C1.73253491 12.13046474 1.73253491 12.13046474 4 14 C7.58343976 14.16677282 7.58343976 14.16677282 11 14 C11.33 13.01 11.66 12.02 12 11 C12.33 11.99 12.66 12.98 13 14 C11 16 11 16 8.47802734 16.22705078 C7.4411377 16.21657715 6.40424805 16.20610352 5.3359375 16.1953125 C4.21445312 16.18886719 3.09296875 16.18242188 1.9375 16.17578125 C0.761875 16.15902344 -0.41375 16.14226562 -1.625 16.125 C-3.40003906 16.11146484 -3.40003906 16.11146484 -5.2109375 16.09765625 C-8.14082523 16.07402812 -11.0703134 16.04108514 -14 16 C-12.68 15.67 -11.36 15.34 -10 15 C-10.020625 14.05125 -10.04125 13.1025 -10.0625 12.125 C-10 9 -10 9 -9 7 C-8.34 7 -7.68 7 -7 7 C-6.34 9.31 -5.68 11.62 -5 14 C-3.68 14.33 -2.36 14.66 -1 15 C-0.67 10.05 -0.34 5.1 0 0 Z " fill="#DCDCDC" transform="translate(57,61)"/>
<path d="M0 0 C2.83960774 0.067118 5.41016905 0.28255635 8.125 1.1875 C8.125 1.8475 8.125 2.5075 8.125 3.1875 C7.465 3.1875 6.805 3.1875 6.125 3.1875 C6.125 4.8375 6.125 6.4875 6.125 8.1875 C5.465 8.1875 4.805 8.1875 4.125 8.1875 C4.125 6.5375 4.125 4.8875 4.125 3.1875 C3.135 3.5175 2.145 3.8475 1.125 4.1875 C0.39176204 6.20258358 0.39176204 6.20258358 0.125 8.1875 C-1.53114657 8.56968767 -3.19957024 8.90145102 -4.875 9.1875 C-5.875 8.1875 -5.875 8.1875 -6.0625 5.25 C-5.77137221 0.4949128 -4.68553205 0.22671929 0 0 Z " fill="#CECECE" transform="translate(166.875,78.8125)"/>
<path d="M0 0 C1.32 0 2.64 0 4 0 C4 6.6 4 13.2 4 20 C2.68 20 1.36 20 0 20 C0 13.4 0 6.8 0 0 Z " fill="#272727" transform="translate(73,56)"/>
<path d="M0 0 C4 1 4 1 5.75 3.375 C7 6 7 6 7 9 C6.01 9.33 5.02 9.66 4 10 C3.67 12.64 3.34 15.28 3 18 C2.01 18 1.02 18 0 18 C0 12.06 0 6.12 0 0 Z " fill="#0D0D0D" transform="translate(80,57)"/>
<path d="M0 0 C0.33 0 0.66 0 1 0 C1 6.93 1 13.86 1 21 C2.65 21 4.3 21 6 21 C6 18.69 6 16.38 6 14 C7.5 15.25 7.5 15.25 9 17 C9 18.32 9 19.64 9 21 C10.65 21 12.3 21 14 21 C14 21.33 14 21.66 14 22 C6.08 22 -1.84 22 -10 22 C-9.01 20.35 -8.02 18.7 -7 17 C-6.67 18.32 -6.34 19.64 -6 21 C-4.02 21 -2.04 21 0 21 C0 14.07 0 7.14 0 0 Z " fill="#F6F6F6" transform="translate(78,55)"/>
<path d="M0 0 C1.65 0 3.3 0 5 0 C8.44419134 9.41002278 8.44419134 9.41002278 8 14 C6.79371992 11.66785852 5.8345262 9.50357861 5 7 C4.67 8.98 4.34 10.96 4 13 C3.01 13 2.02 13 1 13 C-0.97387813 8.23947038 -1.0070238 5.03511899 0 0 Z " fill="#282828" transform="translate(156,56)"/>
<path d="M0 0 C3.60239038 3.13756581 3.9957244 3.97862202 5 9 C-7.87 9 -20.74 9 -34 9 C-34 8.67 -34 8.34 -34 8 C-24.1 7.505 -24.1 7.505 -14 7 C-14.66 6.67 -15.32 6.34 -16 6 C-15.67 4.68 -15.34 3.36 -15 2 C-14.01 2.66 -13.02 3.32 -12 4 C-12 5.32 -12 6.64 -12 8 C-7.38 8 -2.76 8 2 8 C1.34 5.36 0.68 2.72 0 0 Z " fill="#4C7D5D" transform="translate(128,42)"/>
<path d="M0 0 C2.97 0 5.94 0 9 0 C11 2 11 2 11.125 5.625 C11.08375 6.73875 11.0425 7.8525 11 9 C10.67 9 10.34 9 10 9 C9.67 7.35 9.34 5.7 9 4 C8.34 5.65 7.68 7.3 7 9 C6.01 9 5.02 9 4 9 C4 7.02 4 5.04 4 3 C4.99 2.67 5.98 2.34 7 2 C4.03 1.505 4.03 1.505 1 1 C1 6.94 1 12.88 1 19 C1.99 19.33 2.98 19.66 4 20 C2.68 20 1.36 20 0 20 C0 13.4 0 6.8 0 0 Z " fill="#696969" transform="translate(100,56)"/>
<path d="M0 0 C1.11375 0.185625 1.11375 0.185625 2.25 0.375 C1.76917969 1.05949219 1.28835937 1.74398437 0.79296875 2.44921875 C-1.00702122 5.86236428 -1.24378405 8.35192423 -1.4375 12.1875 C-1.50324219 13.34894531 -1.56898437 14.51039062 -1.63671875 15.70703125 C-1.67410156 16.58746094 -1.71148437 17.46789062 -1.75 18.375 C-2.41 18.045 -3.07 17.715 -3.75 17.375 C-4.375 14.3125 -4.375 14.3125 -4.75 11.375 C-5.41 11.375 -6.07 11.375 -6.75 11.375 C-7.16451116 7.85165512 -6.70386636 6.28444137 -5.0625 3.0625 C-2.75 0.375 -2.75 0.375 0 0 Z " fill="#EAEAEA" transform="translate(58.75,55.625)"/>
<path d="M0 0 C1.65 0 3.3 0 5 0 C5 1.98 5 3.96 5 6 C4.67 6 4.34 6 4 6 C3.67 9.96 3.34 13.92 3 18 C2.01 18 1.02 18 0 18 C0 12.06 0 6.12 0 0 Z " fill="#101010" transform="translate(167,57)"/>
<path d="M0 0 C3.3 0 6.6 0 10 0 C9.34 1.32 8.68 2.64 8 4 C6.68 4 5.36 4 4 4 C4 7.3 4 10.6 4 14 C-0.12111617 8.50517844 -0.10687185 6.62605445 0 0 Z " fill="#FAF9F8" transform="translate(84,52)"/>
<path d="M0 0 C1.47906892 -0.02689216 2.95827483 -0.04634621 4.4375 -0.0625 C5.26121094 -0.07410156 6.08492188 -0.08570313 6.93359375 -0.09765625 C9 0 9 0 10 1 C10.375 4.375 10.375 4.375 10 8 C7.5 9.9375 7.5 9.9375 5 11 C4.67 10.01 4.34 9.02 4 8 C4.99 7.67 5.98 7.34 7 7 C6.67 6.01 6.34 5.02 6 4 C3.98491642 3.26676204 3.98491642 3.26676204 2 3 C1.67 4.32 1.34 5.64 1 7 C0 6 0 6 -0.0625 2.9375 C-0.041875 1.968125 -0.02125 0.99875 0 0 Z " fill="#121111" transform="translate(114,57)"/>
<path d="M0 0 C1.65 0.33 3.3 0.66 5 1 C5.33 2.65 5.66 4.3 6 6 C5.34 6 4.68 6 4 6 C4 8.31 4 10.62 4 13 C3.01 13 2.02 13 1 13 C1 11.02 1 9.04 1 7 C0.01 7.33 -0.98 7.66 -2 8 C-1.34 5.36 -0.68 2.72 0 0 Z " fill="#414242" transform="translate(130,56)"/>
<path d="M0 0 C0.99 0.66 1.98 1.32 3 2 C3 3.32 3 4.64 3 6 C4.32 6 5.64 6 7 6 C7.33 5.01 7.66 4.02 8 3 C8 3.99 8 4.98 8 6 C8.99 6.33 9.98 6.66 11 7 C4.73 7 -1.54 7 -8 7 C-7.67 5.35 -7.34 3.7 -7 2 C-5.68 2 -4.36 2 -3 2 C-3 2.99 -3 3.98 -3 5 C-2.01 4.67 -1.02 4.34 0 4 C0 2.68 0 1.36 0 0 Z " fill="#D1D1D1" transform="translate(164,70)"/>
<path d="M0 0 C2.625 0.375 2.625 0.375 5 1 C5.625 3.375 5.625 3.375 6 6 C5.34 6.66 4.68 7.32 4 8 C1.375 7.625 1.375 7.625 -1 7 C-1.625 4.625 -1.625 4.625 -2 2 C-1.34 1.34 -0.68 0.68 0 0 Z " fill="#616161" transform="translate(182,80)"/>
<path d="M0 0 C1.32 0.66 2.64 1.32 4 2 C3.91291331 3.45945288 3.80473093 4.91765868 3.6875 6.375 C3.62949219 7.18710937 3.57148437 7.99921875 3.51171875 8.8359375 C3 11 3 11 0 13 C-4 6.25 -4 6.25 -4 4 C-3.01 4.33 -2.02 4.66 -1 5 C-0.67 3.35 -0.34 1.7 0 0 Z " fill="#156535" transform="translate(84,26)"/>
<path d="M0 0 C2.475 0.495 2.475 0.495 5 1 C5 3.64 5 6.28 5 9 C3.02 9.99 3.02 9.99 1 11 C0 10 0 10 -0.09765625 7.71484375 C-0.08605469 6.79832031 -0.07445312 5.88179688 -0.0625 4.9375 C-0.05347656 4.01839844 -0.04445312 3.09929687 -0.03515625 2.15234375 C-0.02355469 1.44207031 -0.01195312 0.73179688 0 0 Z " fill="#DBDBDB" transform="translate(62,61)"/>
<path d="M0 0 C2.31 0 4.62 0 7 0 C6.0409375 0.5878125 6.0409375 0.5878125 5.0625 1.1875 C2.56221181 3.38472296 2.35049575 4.75791433 2 8 C2.99 8.33 3.98 8.66 5 9 C4.34 9 3.68 9 3 9 C2.67 11.97 2.34 14.94 2 18 C1.34 18 0.68 18 0 18 C0 12.06 0 6.12 0 0 Z " fill="#030303" transform="translate(7,57)"/>
<path d="M0 0 C2.00720923 0.28674418 4.0085944 0.61866701 6 1 C6.125 3.375 6.125 3.375 6 6 C5.34 6.66 4.68 7.32 4 8 C1.375 7.625 1.375 7.625 -1 7 C-1.04254356 5.00045254 -1.04080783 2.99958364 -1 1 C-0.67 0.67 -0.34 0.34 0 0 Z " fill="#5F5F5F" transform="translate(113,80)"/>
<path d="M0 0 C0.33 0.99 0.66 1.98 1 3 C1.66 3 2.32 3 3 3 C3.268125 3.78375 3.53625 4.5675 3.8125 5.375 C4.84814432 8.28114923 4.84814432 8.28114923 8 10 C5.36 10 2.72 10 0 10 C-1.32 7.03 -2.64 4.06 -4 1 C-2.68 0.67 -1.36 0.34 0 0 Z " fill="#2E2E2E" transform="translate(121,66)"/>
<path d="M0 0 C1.875 0.125 1.875 0.125 4 1 C5.25 4.0625 5.25 4.0625 6 7 C3.69 7.33 1.38 7.66 -1 8 C-1.93065133 5.39417629 -2.14917407 4.35801776 -1.0625 1.75 C-0.711875 1.1725 -0.36125 0.595 0 0 Z " fill="#4E4E4E" transform="translate(93,80)"/>
<path d="M0 0 C5.28 0 10.56 0 16 0 C16 1.65 16 3.3 16 5 C15.34 5.66 14.68 6.32 14 7 C13.01 7 12.02 7 11 7 C11 5.68 11 4.36 11 3 C12.32 3 13.64 3 15 3 C15 2.34 15 1.68 15 1 C12.69 1.66 10.38 2.32 8 3 C8 2.34 8 1.68 8 1 C7.01 1 6.02 1 5 1 C4.67 1.99 4.34 2.98 4 4 C2.68 2.68 1.36 1.36 0 0 Z " fill="#CDCDCD" transform="translate(70,79)"/>
<path d="M0 0 C1.98 0 3.96 0 6 0 C6 1.32 6 2.64 6 4 C5.01 4 4.02 4 3 4 C3 4.66 3 5.32 3 6 C4.32 6 5.64 6 7 6 C7 6.66 7 7.32 7 8 C4.69 8 2.38 8 0 8 C0 5.36 0 2.72 0 0 Z " fill="#767676" transform="translate(5,80)"/>
<path d="M0 0 C0.99 0 1.98 0 3 0 C3.33 0.66 3.66 1.32 4 2 C4.33 1.34 4.66 0.68 5 0 C5.66 0 6.32 0 7 0 C7 2.31 7 4.62 7 7 C5.68 6.34 4.36 5.68 3 5 C2.67 5.99 2.34 6.98 2 8 C1.34 8 0.68 8 0 8 C0 5.36 0 2.72 0 0 Z " fill="#343434" transform="translate(189,80)"/>
<path d="M0 0 C2.89932357 2.39509338 3.50168276 4.31245243 4 8 C8.455 7.505 8.455 7.505 13 7 C13 7.66 13 8.32 13 9 C7.39 9 1.78 9 -4 9 C-2.68 8.67 -1.36 8.34 0 8 C0 5.36 0 2.72 0 0 Z " fill="#E5E5E5" transform="translate(117,68)"/>
<path d="M0 0 C1.65 0 3.3 0 5 0 C5.33 2.97 5.66 5.94 6 9 C5.01 9.33 4.02 9.66 3 10 C3 8.68 3 7.36 3 6 C1.68 6.33 0.36 6.66 -1 7 C-0.67 4.69 -0.34 2.38 0 0 Z " fill="#1F1F1F" transform="translate(187,56)"/>
<path d="M0 0 C1.875 0.625 1.875 0.625 4 2 C5.25 5.125 5.25 5.125 6 8 C4.33388095 8.042721 2.66617115 8.04063832 1 8 C0.67 7.67 0.34 7.34 0 7 C-0.99 7 -1.98 7 -3 7 C-1.125 2.25 -1.125 2.25 0 0 Z " fill="#34714E" transform="translate(90,12)"/>
<path d="M0 0 C1.98 0 3.96 0 6 0 C6.33 2.31 6.66 4.62 7 7 C6.01 7 5.02 7 4 7 C4 6.34 4 5.68 4 5 C3.34 5 2.68 5 2 5 C2 5.66 2 6.32 2 7 C1.34 7 0.68 7 0 7 C0 4.69 0 2.38 0 0 Z " fill="#343434" transform="translate(144,80)"/>
<path d="M0 0 C0.99 0 1.98 0 3 0 C3.33 1.32 3.66 2.64 4 4 C4.66 4 5.32 4 6 4 C6.33 3.01 6.66 2.02 7 1 C7 2.98 7 4.96 7 7 C5.68 6.67 4.36 6.34 3 6 C3 6.66 3 7.32 3 8 C2.01 8 1.02 8 0 8 C0 5.36 0 2.72 0 0 Z " fill="#424242" transform="translate(120,80)"/>
<path d="M0 0 C1.98 0.99 1.98 0.99 4 2 C4.33 1.34 4.66 0.68 5 0 C5.66 0 6.32 0 7 0 C7 2.31 7 4.62 7 7 C6.01 7 5.02 7 4 7 C3.67 6.34 3.34 5.68 3 5 C2.67 5.66 2.34 6.32 2 7 C1.34 7 0.68 7 0 7 C0 4.69 0 2.38 0 0 Z " fill="#2E2E2E" transform="translate(70,80)"/>
<path d="M0 0 C1.98 0 3.96 0 6 0 C6 2.31 6 4.62 6 7 C5.34 7 4.68 7 4 7 C4 6.34 4 5.68 4 5 C3.34 5 2.68 5 2 5 C2 5.66 2 6.32 2 7 C1.34 7 0.68 7 0 7 C0 4.69 0 2.38 0 0 Z " fill="#3D3D3D" transform="translate(58,80)"/>
<path d="M0 0 C0.33 0 0.66 0 1 0 C2.29243536 4.1196377 3.26252625 7.66831683 3 12 C1.68 12 0.36 12 -1 12 C-1.33 11.34 -1.66 10.68 -2 10 C-4.01669827 8.86649466 -4.01669827 8.86649466 -6 8 C-5.38125 7.79375 -4.7625 7.5875 -4.125 7.375 C-1.15346355 5.45224112 -0.86975341 3.33405473 0 0 Z " fill="#3D3D3D" transform="translate(136,64)"/>
<path d="M0 0 C1.65 0.33 3.3 0.66 5 1 C5 2.32 5 3.64 5 5 C4.01 5 3.02 5 2 5 C1.67 5.99 1.34 6.98 1 8 C0.01 7.34 -0.98 6.68 -2 6 C-1.33333333 4 -0.66666667 2 0 0 Z " fill="#5D5E5D" transform="translate(116,60)"/>
<path d="M0 0 C2.625 0.375 2.625 0.375 5 1 C5 1.66 5 2.32 5 3 C3.68 2.67 2.36 2.34 1 2 C1 3.32 1 4.64 1 6 C2.32 5.67 3.64 5.34 5 5 C4.67 5.99 4.34 6.98 4 8 C2.35 7.67 0.7 7.34 -1 7 C-1.625 4.625 -1.625 4.625 -2 2 C-1.34 1.34 -0.68 0.68 0 0 Z " fill="#4B4B4B" transform="translate(105,80)"/>
<path d="M0 0 C3 1 3 1 4 3 C4.33 2.01 4.66 1.02 5 0 C5.66 0 6.32 0 7 0 C7 2.31 7 4.62 7 7 C6.01 7 5.02 7 4 7 C3.67 6.34 3.34 5.68 3 5 C2.67 5.66 2.34 6.32 2 7 C1.34 7 0.68 7 0 7 C0 4.69 0 2.38 0 0 Z " fill="#2D2D2D" transform="translate(13,80)"/>
<path d="M0 0 C0.99 0.33 1.98 0.66 3 1 C3 4.3 3 7.6 3 11 C1.02 11.99 1.02 11.99 -1 13 C-0.67 8.71 -0.34 4.42 0 0 Z " fill="#0A0A0A" transform="translate(67,61)"/>
<path d="M0 0 C1.32 0 2.64 0 4 0 C4 5.94 4 11.88 4 18 C3.67 18 3.34 18 3 18 C3 13.71 3 9.42 3 5 C2.34 5 1.68 5 1 5 C0.67 5.99 0.34 6.98 0 8 C0 5.36 0 2.72 0 0 Z " fill="#030303" transform="translate(176,57)"/>
<path d="M0 0 C1.2065625 0.0309375 1.2065625 0.0309375 2.4375 0.0625 C2.4375 0.7225 2.4375 1.3825 2.4375 2.0625 C1.1175 2.0625 -0.2025 2.0625 -1.5625 2.0625 C-1.5625 3.3825 -1.5625 4.7025 -1.5625 6.0625 C-0.9025 5.4025 -0.2425 4.7425 0.4375 4.0625 C1.4275 4.0625 2.4175 4.0625 3.4375 4.0625 C3.4375 5.0525 3.4375 6.0425 3.4375 7.0625 C1.4460944 7.44383299 -0.55529077 7.77575582 -2.5625 8.0625 C-3.5625 7.0625 -3.5625 7.0625 -3.6875 4.0625 C-3.52180824 0.08589776 -3.52180824 0.08589776 0 0 Z " fill="#3F3F3F" transform="translate(82.5625,79.9375)"/>
<path d="M0 0 C0.66 0 1.32 0 2 0 C3.54296875 2.1171875 3.54296875 2.1171875 5.1875 4.875 C5.73792969 5.77992187 6.28835937 6.68484375 6.85546875 7.6171875 C7.23316406 8.40351562 7.61085938 9.18984375 8 10 C7.67 10.66 7.34 11.32 7 12 C6.01 11.67 5.02 11.34 4 11 C2.8125 8.4375 2.8125 8.4375 2 6 C1.01 6.495 1.01 6.495 0 7 C-0.93423645 3.98968256 -1.04449911 3.13349732 0 0 Z " fill="#21653B" transform="translate(102,31)"/>
<path d="M0 0 C1.98 0 3.96 0 6 0 C6 1.32 6 2.64 6 4 C5.01 4 4.02 4 3 4 C3 4.66 3 5.32 3 6 C4.32 6.33 5.64 6.66 7 7 C4.69 7 2.38 7 0 7 C0 4.69 0 2.38 0 0 Z " fill="#424242" transform="translate(50,80)"/>
<path d="M0 0 C0.78375 0.04125 1.5675 0.0825 2.375 0.125 C2.375 0.785 2.375 1.445 2.375 2.125 C1.055 2.455 -0.265 2.785 -1.625 3.125 C-1.625 3.785 -1.625 4.445 -1.625 5.125 C-0.305 4.795 1.015 4.465 2.375 4.125 C2.045 5.445 1.715 6.765 1.375 8.125 C-0.275 7.795 -1.925 7.465 -3.625 7.125 C-4.25 4.75 -4.25 4.75 -4.625 2.125 C-2.625 0.125 -2.625 0.125 0 0 Z " fill="#414141" transform="translate(25.625,79.875)"/>
<path d="M0 0 C0.33 1.32 0.66 2.64 1 4 C2.32 4.33 3.64 4.66 5 5 C3.68 5.33 2.36 5.66 1 6 C0.67 7.32 0.34 8.64 0 10 C-0.99 10 -1.98 10 -3 10 C-2.69201674 8.51988629 -2.378482 7.04092675 -2.0625 5.5625 C-1.88847656 4.73878906 -1.71445313 3.91507812 -1.53515625 3.06640625 C-1 1 -1 1 0 0 Z " fill="#070707" transform="translate(186,65)"/>
<path d="M0 0 C1.65 0 3.3 0 5 0 C3.68 0.33 2.36 0.66 1 1 C1 2.65 1 4.3 1 6 C1.66 6 2.32 6 3 6 C3.33 8.31 3.66 10.62 4 13 C3.01 13 2.02 13 1 13 C-0.97387813 8.23947038 -1.0070238 5.03511899 0 0 Z " fill="#6A6A6A" transform="translate(156,56)"/>
<path d="M0 0 C3.60239038 3.13756581 3.9957244 3.97862202 5 9 C-0.61 9 -6.22 9 -12 9 C-12 8.67 -12 8.34 -12 8 C-7.38 8 -2.76 8 2 8 C1.34 5.36 0.68 2.72 0 0 Z " fill="#447155" transform="translate(128,42)"/>
<path d="M0 0 C0.33 0.99 0.66 1.98 1 3 C1.99 3 2.98 3 4 3 C4 5.64 4 8.28 4 11 C3.01 11 2.02 11 1 11 C-0.28317892 7.15046324 -0.06643637 4.05261865 0 0 Z " fill="#0A0A0A" transform="translate(172,64)"/>
<path d="M0 0 C0.66 0 1.32 0 2 0 C2.66 1.65 3.32 3.3 4 5 C1.525 4.01 1.525 4.01 -1 3 C-1.4021875 4.7015625 -1.4021875 4.7015625 -1.8125 6.4375 C-2.204375 7.613125 -2.59625 8.78875 -3 10 C-3.99 10.33 -4.98 10.66 -6 11 C-5.39096941 7.90694578 -4.40131197 5.80360238 -2.5625 3.25 C-2.13066406 2.63640625 -1.69882813 2.0228125 -1.25390625 1.390625 C-0.63322266 0.70226563 -0.63322266 0.70226563 0 0 Z " fill="#C68B50" transform="translate(78,33)"/>
<path d="M0 0 C1.67542976 0.28604898 3.34385343 0.61781233 5 1 C3.68 1.33 2.36 1.66 1 2 C1 3.32 1 4.64 1 6 C2.65 5.67 4.3 5.34 6 5 C5.01 6.485 5.01 6.485 4 8 C2.35 7.67 0.7 7.34 -1 7 C-1.04254356 5.00045254 -1.04080783 2.99958364 -1 1 C-0.67 0.67 -0.34 0.34 0 0 Z " fill="#3E3E3E" transform="translate(162,80)"/>
<path d="M0 0 C2.31 0 4.62 0 7 0 C7 0.66 7 1.32 7 2 C6.34 2 5.68 2 5 2 C5 3.98 5 5.96 5 8 C4.01 7.67 3.02 7.34 2 7 C2 5.35 2 3.7 2 2 C1.34 2 0.68 2 0 2 C0 1.34 0 0.68 0 0 Z " fill="#525252" transform="translate(136,80)"/>
<path d="M0 0 C0.66 0 1.32 0 2 0 C2 2.31 2 4.62 2 7 C-0.475 6.01 -0.475 6.01 -3 5 C-3.33 5.66 -3.66 6.32 -4 7 C-4 5.02 -4 3.04 -4 1 C-3.01 1.33 -2.02 1.66 -1 2 C-0.67 1.34 -0.34 0.68 0 0 Z " fill="#222222" transform="translate(39,80)"/>
<path d="M0 0 C1.2065625 0.0309375 1.2065625 0.0309375 2.4375 0.0625 C1.8125 2.4375 1.8125 2.4375 0.4375 5.0625 C-2.6875 6.375 -2.6875 6.375 -5.5625 7.0625 C-3.33446653 0.08132845 -3.33446653 0.08132845 0 0 Z " fill="#2A2A2A" transform="translate(53.5625,55.9375)"/>
<path d="M0 0 C1.98 0 3.96 0 6 0 C5.67 1.32 5.34 2.64 5 4 C4.01 4 3.02 4 2 4 C2 4.66 2 5.32 2 6 C3.32 6.33 4.64 6.66 6 7 C4.02 7 2.04 7 0 7 C0 4.69 0 2.38 0 0 Z " fill="#363636" transform="translate(43,80)"/>
<path d="M0 0 C0.99 0 1.98 0 3 0 C3.33 2.31 3.66 4.62 4 7 C2.68 7 1.36 7 0 7 C-0.66 5.35 -1.32 3.7 -2 2 C-1.34 1.34 -0.68 0.68 0 0 Z " fill="#616161" transform="translate(187,62)"/>
<path d="M0 0 C0.33 1.32 0.66 2.64 1 4 C-1.31 4.33 -3.62 4.66 -6 5 C-6.33 3.68 -6.66 2.36 -7 1 C-2.25 0 -2.25 0 0 0 Z " fill="#1A1A1A" transform="translate(67,71)"/>
<path d="M0 0 C1.98362069 2.91708924 1.9876191 4.12380904 1.625 7.75 C1.41875 8.8225 1.2125 9.895 1 11 C-0.32 11 -1.64 11 -3 11 C-2.67 10.34 -2.34 9.68 -2 9 C-1.34 9.33 -0.68 9.66 0 10 C0 7.69 0 5.38 0 3 C-0.66 3 -1.32 3 -2 3 C-2.33 3.99 -2.66 4.98 -3 6 C-3.33 4.68 -3.66 3.36 -4 2 C-2.68 2 -1.36 2 0 2 C0 1.34 0 0.68 0 0 Z " fill="#CDCDCD" transform="translate(196,77)"/>
<path d="M0 0 C1.32 0.33 2.64 0.66 4 1 C4 3.31 4 5.62 4 8 C3.01 8 2.02 8 1 8 C0.67 5.36 0.34 2.72 0 0 Z " fill="#727272" transform="translate(9,60)"/>
<path d="M0 0 C1.65 0 3.3 0 5 0 C5 0.99 5 1.98 5 3 C6.32 3.33 7.64 3.66 9 4 C5.7 4 2.4 4 -1 4 C-0.67 2.68 -0.34 1.36 0 0 Z " fill="#F4F4F4" transform="translate(187,73)"/>
<path d="M0 0 C0.99 0 1.98 0 3 0 C3 2.64 3 5.28 3 8 C2.01 8 1.02 8 0 8 C0 5.36 0 2.72 0 0 Z " fill="#5F5F5F" transform="translate(176,80)"/>
<path d="M0 0 C1.32 0 2.64 0 4 0 C4 1.98 4 3.96 4 6 C2.68 6 1.36 6 0 6 C0 4.02 0 2.04 0 0 Z " fill="#404040" transform="translate(31,70)"/>
<path d="M0 0 C4.95 0 9.9 0 15 0 C14.01 0.495 14.01 0.495 13 1 C12.34786708 3.02463255 12.34786708 3.02463255 12 5 C11.34 4.01 10.68 3.02 10 2 C7.57478506 1.41810734 7.57478506 1.41810734 4.875 1.3125 C3.96492187 1.24675781 3.05484375 1.18101563 2.1171875 1.11328125 C1.41851562 1.07589844 0.71984375 1.03851563 0 1 C0 0.67 0 0.34 0 0 Z " fill="#D2D2D2" transform="translate(5,79)"/>
<path d="M0 0 C2.31 0 4.62 0 7 0 C6.67 0.66 6.34 1.32 6 2 C5.01 2.33 4.02 2.66 3 3 C1.79117904 5.00016466 1.79117904 5.00016466 1 7 C0 6 0 6 -0.0625 2.9375 C-0.041875 1.968125 -0.02125 0.99875 0 0 Z " fill="#040304" transform="translate(114,57)"/>
<path d="M0 0 C1.2380014 3.57644848 0.74926071 6.33694766 0 10 C-1.32 9.01 -2.64 8.02 -4 7 C-2.68 4.69 -1.36 2.38 0 0 Z " fill="#36704E" transform="translate(84,22)"/>
<path d="M0 0 C1.98 0 3.96 0 6 0 C6 0.66 6 1.32 6 2 C5.34 2 4.68 2 4 2 C4 3.65 4 5.3 4 7 C3.34 7 2.68 7 2 7 C2 5.35 2 3.7 2 2 C1.34 2 0.68 2 0 2 C0 1.34 0 0.68 0 0 Z " fill="#3C3C3C" transform="translate(169,80)"/>
<path d="M0 0 C2.12508244 3.18762365 2.5020163 5.26512223 3 9 C1.35 8.67 -0.3 8.34 -2 8 C-2 6 -2 6 0 4 C0 2.68 0 1.36 0 0 Z " fill="#373737" transform="translate(53,67)"/>
<path d="M0 0 C0.33 0 0.66 0 1 0 C1.16820551 1.93736701 1.33451095 3.87489906 1.5 5.8125 C1.5928125 6.89144531 1.685625 7.97039062 1.78125 9.08203125 C2 12 2 12 2 15 C1.01 15 0.02 15 -1 15 C-0.67 10.05 -0.34 5.1 0 0 Z " fill="#C4C4C4" transform="translate(57,61)"/>
<path d="M0 0 C0.99 0.33 1.98 0.66 3 1 C2.01 2.98 1.02 4.96 0 7 C-0.99 6.67 -1.98 6.34 -3 6 C-3 4.68 -3 3.36 -3 2 C-2.01 2 -1.02 2 0 2 C0 1.34 0 0.68 0 0 Z " fill="#FBF2E0" transform="translate(67,46)"/>
<path d="M0 0 C0.66 0.33 1.32 0.66 2 1 C1.67 2.65 1.34 4.3 1 6 C-0.32 6 -1.64 6 -3 6 C-3 4.68 -3 3.36 -3 2 C-2.01 2 -1.02 2 0 2 C0 1.34 0 0.68 0 0 Z " fill="#C4C4C4" transform="translate(56,80)"/>
<path d="M0 0 C0.33 0 0.66 0 1 0 C1.1875 3.375 1.1875 3.375 1 7 C0.01 7.66 -0.98 8.32 -2 9 C-1.125 1.125 -1.125 1.125 0 0 Z " fill="#101010" transform="translate(129,63)"/>
<path d="M0 0 C1.32 0 2.64 0 4 0 C4 2.64 4 5.28 4 8 C1.84622436 5.37801226 0.59927826 3.35595828 0 0 Z " fill="#DDDFE1" transform="translate(84,58)"/>
<path d="M0 0 C0.66 0 1.32 0 2 0 C2 0.66 2 1.32 2 2 C2.99 2.33 3.98 2.66 5 3 C4.01 3 3.02 3 2 3 C2 3.66 2 4.32 2 5 C2.99 5.33 3.98 5.66 5 6 C3.35 6 1.7 6 0 6 C0 4.02 0 2.04 0 0 Z " fill="#202020" transform="translate(6,81)"/>
<path d="M0 0 C1.98 0.495 1.98 0.495 4 1 C4 1.99 4 2.98 4 4 C2.35 4.33 0.7 4.66 -1 5 C-0.67 3.35 -0.34 1.7 0 0 Z " fill="#CE7329" transform="translate(77,36)"/>
<path d="M0 0 C2.50037734 2.17424117 3.43628586 3.73045798 4 7 C2.35 7 0.7 7 -1 7 C-0.67 4.69 -0.34 2.38 0 0 Z " fill="#3F7856" transform="translate(92,13)"/>
</svg>
