<?xml version="1.0" encoding="UTF-8"?>
<svg version="1.1" xmlns="http://www.w3.org/2000/svg" width="734" height="200">
<path d="M0 0 C0.81973801 -0.00014603 1.63947601 -0.00029205 2.48405457 -0.0004425 C5.19488161 0.00025443 7.90564003 0.00803661 10.61645508 0.01586914 C12.49546776 0.0177341 14.37448092 0.01915763 16.25349426 0.02015686 C21.20023947 0.02397592 26.14695535 0.03380101 31.09368896 0.04486084 C36.14098717 0.05508809 41.18829012 0.0596573 46.2355957 0.06469727 C56.13990547 0.0754238 66.04419346 0.09249292 75.94848633 0.11352539 C76.52050781 1.99731445 76.52050781 1.99731445 76.94848633 4.11352539 C75.79614258 5.97290039 75.79614258 5.97290039 74.01098633 7.86352539 C73.3690332 8.54930664 72.72708008 9.23508789 72.06567383 9.94165039 C71.01766602 11.01672852 71.01766602 11.01672852 69.94848633 12.11352539 C69.22918945 12.87149414 68.50989258 13.62946289 67.76879883 14.41040039 C63.78162612 18.52901835 63.78162612 18.52901835 61.94848633 20.11352539 C61.28848633 20.11352539 60.62848633 20.11352539 59.94848633 20.11352539 C59.94848633 20.77352539 59.94848633 21.43352539 59.94848633 22.11352539 C59.28848633 22.11352539 58.62848633 22.11352539 57.94848633 22.11352539 C57.94848633 22.77352539 57.94848633 23.43352539 57.94848633 24.11352539 C57.28848633 24.11352539 56.62848633 24.11352539 55.94848633 24.11352539 C55.94848633 24.77352539 55.94848633 25.43352539 55.94848633 26.11352539 C55.28848633 26.11352539 54.62848633 26.11352539 53.94848633 26.11352539 C53.94848633 26.77352539 53.94848633 27.43352539 53.94848633 28.11352539 C52.4621582 29.57861328 52.4621582 29.57861328 50.41723633 31.27368164 C46.21770867 34.8467859 42.32012435 38.62867797 38.44848633 42.55102539 C37.76850586 43.23479248 37.08852539 43.91855957 36.38793945 44.62304688 C34.23897707 46.78409594 32.09331354 48.94837265 29.94848633 51.11352539 C27.11814796 53.97068556 24.2843596 56.82435993 21.44848633 59.67602539 C20.81491211 60.31789795 20.18133789 60.95977051 19.52856445 61.62109375 C16.48098329 64.68506406 13.3918559 67.63386712 10.11254883 70.44946289 C5.10221554 74.77750453 0.48128513 79.47509106 -4.17651367 84.17602539 C-5.13210737 85.13603914 -6.08800551 86.09574992 -7.04418945 87.05517578 C-10.04948917 90.07178908 -13.05080979 93.09234135 -16.05151367 96.11352539 C-19.53444378 99.6202269 -23.01907869 103.12520005 -26.50799561 106.62594604 C-27.88804501 108.01237879 -29.26499111 109.40189837 -30.6418457 110.79150391 C-35.02521326 115.19181641 -39.4718323 119.41656403 -44.18377686 123.46173096 C-47.34521801 126.25765534 -50.25329602 129.29093013 -53.18432617 132.32446289 C-54.49753257 133.66489049 -55.81135242 135.00471732 -57.12573242 136.34399414 C-59.16361074 138.42528405 -61.19732101 140.51006822 -63.22094727 142.60522461 C-65.19732328 144.64816127 -67.18922012 146.67483608 -69.18432617 148.69946289 C-69.7844754 149.3285556 -70.38462463 149.95764832 -71.00296021 150.60580444 C-74.52767491 154.15264479 -76.81885145 155.91177222 -82.05151367 156.11352539 C-83.20975841 151.95325227 -83.23168783 147.90565836 -83.25463867 143.61352539 C-83.26033875 142.78199951 -83.26603882 141.95047363 -83.27191162 141.09375 C-83.28134947 139.33196274 -83.28789078 137.57015792 -83.29174805 135.80834961 C-83.3013792 133.15063277 -83.33238226 130.49371468 -83.36401367 127.83618164 C-83.44322002 115.61485023 -83.17763149 104.1629809 -75.61401367 93.98852539 C-74.71487722 92.70906838 -73.81647144 91.42909765 -72.91870117 90.14868164 C-72.44916016 89.4914209 -71.97961914 88.83416016 -71.49584961 88.15698242 C-69.00276255 84.62974464 -66.62690664 81.02492403 -64.23901367 77.42602539 C-63.73233154 76.66668701 -63.22564941 75.90734863 -62.70361328 75.125 C-58.62240883 69.00287283 -54.62000389 62.83170119 -50.6262207 56.65234375 C-46.97642629 51.02562197 -43.27482014 45.43520809 -39.54760742 39.85961914 C-39.06126831 39.1318779 -38.5749292 38.40413666 -38.07385254 37.65434265 C-35.63337376 34.00407638 -33.18951132 30.35612591 -30.74145508 26.7109375 C-29.82477231 25.34286713 -28.90858198 23.97446665 -27.99291992 22.60571289 C-27.55446243 21.9506073 -27.11600494 21.29550171 -26.66426086 20.62054443 C-23.70622577 16.17244682 -20.92295989 11.6512157 -18.30395508 6.99316406 C-13.96009666 0.47398941 -7.23369197 -0.0335716 0 0 Z " fill="#00A0D0" transform="translate(104.051513671875,18.886474609375)"/>
<path d="M0 0 C3.33733304 1.15561383 4.90696204 2.83347837 7.3046875 5.40625 C10.1457632 8.57821677 10.1457632 8.57821677 13.6171875 10.90625 C13.6171875 11.56625 13.6171875 12.22625 13.6171875 12.90625 C14.2771875 12.90625 14.9371875 12.90625 15.6171875 12.90625 C15.6171875 13.56625 15.6171875 14.22625 15.6171875 14.90625 C16.2771875 14.90625 16.9371875 14.90625 17.6171875 14.90625 C17.6171875 15.56625 17.6171875 16.22625 17.6171875 16.90625 C18.2771875 16.90625 18.9371875 16.90625 19.6171875 16.90625 C19.6171875 17.56625 19.6171875 18.22625 19.6171875 18.90625 C20.2771875 18.90625 20.9371875 18.90625 21.6171875 18.90625 C21.6171875 19.56625 21.6171875 20.22625 21.6171875 20.90625 C22.2771875 20.90625 22.9371875 20.90625 23.6171875 20.90625 C23.6171875 21.56625 23.6171875 22.22625 23.6171875 22.90625 C24.2771875 22.90625 24.9371875 22.90625 25.6171875 22.90625 C25.6171875 23.56625 25.6171875 24.22625 25.6171875 24.90625 C26.2771875 24.90625 26.9371875 24.90625 27.6171875 24.90625 C27.6171875 25.56625 27.6171875 26.22625 27.6171875 26.90625 C28.2771875 26.90625 28.9371875 26.90625 29.6171875 26.90625 C30.91088867 28.21899414 30.91088867 28.21899414 32.47265625 30.12890625 C37.13078075 35.60543148 42.1991056 40.63844373 47.28930664 45.70874023 C48.94731705 47.36132182 50.59982726 49.01927199 52.25195312 50.67773438 C53.30697061 51.73209219 54.36229764 52.78614038 55.41796875 53.83984375 C56.15700188 54.58191322 56.15700188 54.58191322 56.91096497 55.338974 C59.5174613 57.95038458 59.5174613 57.95038458 62.6171875 59.90625 C62.6171875 60.56625 62.6171875 61.22625 62.6171875 61.90625 C63.2771875 61.90625 63.9371875 61.90625 64.6171875 61.90625 C64.6171875 62.56625 64.6171875 63.22625 64.6171875 63.90625 C65.2771875 63.90625 65.9371875 63.90625 66.6171875 63.90625 C66.6171875 64.56625 66.6171875 65.22625 66.6171875 65.90625 C67.2771875 65.90625 67.9371875 65.90625 68.6171875 65.90625 C69.2421875 68.28125 69.2421875 68.28125 69.6171875 70.90625 C67.6171875 72.90625 67.6171875 72.90625 65.07533836 73.15234566 C63.45206092 73.14958028 63.45206092 73.14958028 61.79598999 73.14675903 C60.55636002 73.14950836 59.31673004 73.15225769 58.03953552 73.15509033 C56.65835476 73.14801158 55.27717496 73.14074196 53.89599609 73.13330078 C52.44744372 73.13273688 50.99889078 73.13305281 49.55033875 73.13418579 C45.61045043 73.13476114 41.67068315 73.12297748 37.73082304 73.10903788 C33.61617866 73.09656078 29.50153171 73.09536241 25.38687134 73.09298706 C17.59185669 73.08676338 9.79689794 73.0703406 2.00190794 73.05028808 C-6.87099683 73.02795664 -15.74390424 73.0169426 -24.61683011 73.00689721 C-42.8721893 72.98597512 -61.12749641 72.95078195 -79.3828125 72.90625 C-79.7128125 71.58625 -80.0428125 70.26625 -80.3828125 68.90625 C-79.2631139 67.90031757 -78.1368713 66.9016651 -77.0078125 65.90625 C-76.38132812 65.349375 -75.75484375 64.7925 -75.109375 64.21875 C-73.3828125 62.90625 -73.3828125 62.90625 -71.3828125 62.90625 C-71.3828125 62.24625 -71.3828125 61.58625 -71.3828125 60.90625 C-69.7042612 59.40995821 -67.96322352 57.98332339 -66.1953125 56.59375 C-63.1661291 54.20527741 -60.34753485 51.8702678 -57.64453125 49.11328125 C-55.3828125 46.90625 -55.3828125 46.90625 -53.3828125 46.90625 C-53.3828125 46.24625 -53.3828125 45.58625 -53.3828125 44.90625 C-51.984375 43.49609375 -51.984375 43.49609375 -50.0078125 41.84375 C-46.79938312 39.1154553 -43.63300883 36.35480554 -40.5078125 33.53125 C-39.66863281 32.77457031 -38.82945313 32.01789063 -37.96484375 31.23828125 C-36.23257114 29.67373247 -34.50080642 28.10862119 -32.76953125 26.54296875 C-30.31263544 24.32467891 -27.85000148 22.11308235 -25.3828125 19.90625 C-24.68542969 19.27976562 -23.98804688 18.65328125 -23.26953125 18.0078125 C-18.61916813 13.90625 -18.61916813 13.90625 -16.3828125 13.90625 C-16.3828125 13.24625 -16.3828125 12.58625 -16.3828125 11.90625 C-14.5385887 10.04798389 -12.54607603 8.4156225 -10.54296875 6.73046875 C-9.22956213 5.62131705 -7.9382453 4.48427051 -6.69140625 3.30078125 C-3.02264703 -0.11892382 -3.02264703 -0.11892382 0 0 Z " fill="#009FD1" transform="translate(111.3828125,106.09375)"/>
<path d="M0 0 C1.65148544 0.0001133 1.65148544 0.0001133 3.33633423 0.00022888 C4.52906952 0.00539017 5.72180481 0.01055145 6.95068359 0.01586914 C8.16863617 0.01728409 9.38658875 0.01869904 10.64144897 0.02015686 C14.54403099 0.025769 18.44655632 0.0383236 22.34912109 0.05102539 C24.98974527 0.05603882 27.63037034 0.060602 30.27099609 0.06469727 C36.75539054 0.07574238 43.23975177 0.09249237 49.72412109 0.11352539 C48.80098594 4.35669784 46.80443309 7.81456427 44.66162109 11.55102539 C44.30390625 12.18717773 43.94619141 12.82333008 43.57763672 13.47875977 C41.12698057 17.79578184 38.55446111 22.02877867 35.94287109 26.25024414 C31.98535657 32.65356476 28.16056777 39.12730831 24.36993408 45.63046265 C22.51125703 48.81840429 20.64688732 52.00301385 18.78271484 55.18774414 C18.42278442 55.80279312 18.062854 56.4178421 17.6920166 57.05152893 C14.12186676 63.14873704 10.51093841 69.21828237 6.84130859 75.25610352 C5.4941282 77.49590869 4.17267068 79.75030483 2.84912109 82.00415039 C1.84939134 83.68660267 0.84939448 85.36889626 -0.15087891 87.05102539 C-0.61606934 87.85241943 -1.08125977 88.65381348 -1.56054688 89.47949219 C-2.00027832 90.21337158 -2.44000977 90.94725098 -2.89306641 91.70336914 C-3.28091309 92.36199951 -3.66875977 93.02062988 -4.06835938 93.69921875 C-4.46684082 94.16593994 -4.86532227 94.63266113 -5.27587891 95.11352539 C-6.26587891 95.11352539 -7.25587891 95.11352539 -8.27587891 95.11352539 C-8.29902386 83.30041513 -8.31680502 71.48731024 -8.32769108 59.67418194 C-8.33291517 54.18919259 -8.34000429 48.70421872 -8.35131836 43.21923828 C-8.36216398 37.92839721 -8.36815932 32.63757107 -8.37075615 27.34671974 C-8.37260736 25.32565895 -8.37622219 23.304599 -8.38160896 21.28354454 C-8.38884157 18.45821731 -8.3898689 15.63295215 -8.3894043 12.80761719 C-8.39299957 11.96748581 -8.39659485 11.12735443 -8.40029907 10.26176453 C-8.39439337 6.95457301 -8.32920957 4.27351739 -7.27587891 1.11352539 C-4.70454432 -0.1721419 -2.8787079 -0.00657239 0 0 Z " fill="#00A0D0" transform="translate(29.27587890625,18.886474609375)"/>
<path d="M0 0 C0.70515244 0.00091141 1.41030487 0.00182281 2.13682556 0.00276184 C2.86731613 -0.00152328 3.5978067 -0.00580841 4.35043335 -0.01022339 C5.90137192 -0.01597391 7.45233746 -0.01646164 9.00328064 -0.01213074 C11.34971384 -0.0090012 13.69484808 -0.03231162 16.04112244 -0.05778503 C25.03053756 -0.0958389 32.7603647 0.15506467 40.63291931 5.05354309 C45.21559533 9.76715271 47.0628896 13.34141264 47.25791931 19.86604309 C46.98033279 26.86313783 44.30273573 31.0484135 39.82041931 36.30354309 C40.42627869 36.9803009 41.03213806 37.65705872 41.65635681 38.35432434 C46.76391676 45.31498817 50.50922275 57.60834493 50.82041931 66.30354309 C48.82041931 68.30354309 48.82041931 68.30354309 46.54307556 68.56916809 C45.665224 68.56401184 44.78737244 68.55885559 43.88291931 68.55354309 C43.00764587 68.55869934 42.13237244 68.56385559 41.23057556 68.56916809 C38.82041931 68.30354309 38.82041931 68.30354309 35.82041931 66.30354309 C34.97666931 64.19636536 34.97666931 64.19636536 34.32041931 61.61994934 C34.07291931 60.69246887 33.82541931 59.7649884 33.57041931 58.80940247 C33.32291931 57.83809387 33.07541931 56.86678528 32.82041931 55.86604309 C32.32979291 53.94825603 31.83014514 52.03274862 31.32041931 50.11994934 C31.10385681 49.26860413 30.88729431 48.41725891 30.66416931 47.54011536 C29.74295502 45.09820445 28.84363018 43.92633014 26.82041931 42.30354309 C22.81020953 41.13067964 18.66286458 41.01286194 14.50791931 40.74104309 C12.30104431 40.59666809 10.09416931 40.45229309 7.82041931 40.30354309 C7.82041931 49.21354309 7.82041931 58.12354309 7.82041931 67.30354309 C5.22583825 68.60083362 3.21594333 68.50782429 0.32041931 68.55354309 C-0.65926819 68.57932434 -1.63895569 68.60510559 -2.64833069 68.63166809 C-3.48364319 68.52338684 -4.31895569 68.41510559 -5.17958069 68.30354309 C-7.52065734 64.79192811 -7.43239601 63.36557705 -7.43836975 59.21150208 C-7.44467407 57.95687668 -7.45097839 56.70225128 -7.45747375 55.40960693 C-7.45389435 54.03961548 -7.44979248 52.6696253 -7.44520569 51.29963684 C-7.44655283 49.89623955 -7.44849378 48.49284271 -7.45100403 47.08944702 C-7.453952 44.1497808 -7.44966757 41.21023619 -7.44032288 38.27058411 C-7.42891791 34.49859429 -7.43549629 30.72688875 -7.4474678 26.95490932 C-7.45468632 24.05790047 -7.45239873 21.1609593 -7.44721222 18.26394844 C-7.44587624 16.87284881 -7.44752166 15.48174306 -7.45217133 14.09065056 C-7.45723727 12.14916472 -7.44814993 10.20765739 -7.43836975 8.26618958 C-7.43677856 7.16049118 -7.43518738 6.05479279 -7.43354797 4.91558838 C-6.95337257 -0.02300005 -4.37614148 0.06402625 0 0 Z M7.82041931 12.30354309 C7.82041931 17.91354309 7.82041931 23.52354309 7.82041931 29.30354309 C10.50166931 29.36541809 13.18291931 29.42729309 15.94541931 29.49104309 C17.19476257 29.53201111 17.19476257 29.53201111 18.46934509 29.57380676 C23.31805164 29.62760415 26.64430362 29.03630083 30.82041931 26.30354309 C32.57041931 23.55354309 32.57041931 23.55354309 32.82041931 20.30354309 C31.70556399 16.8933974 30.92879541 14.92674324 27.75010681 13.13948059 C23.78333999 12.00762979 20.10634455 12.08991577 16.00791931 12.17854309 C13.30604431 12.21979309 10.60416931 12.26104309 7.82041931 12.30354309 Z " fill="#403F41" transform="translate(263.17958068847656,56.69645690917969)"/>
<path d="M0 0 C1.48306641 0.02126953 1.48306641 0.02126953 2.99609375 0.04296875 C3.98738281 0.04941406 4.97867187 0.05585937 6 0.0625 C8.43359375 0.23046875 8.43359375 0.23046875 9.43359375 1.23046875 C9.59165906 3.15525688 9.68472875 5.08546085 9.75 7.015625 C9.8128418 8.77036133 9.8128418 8.77036133 9.87695312 10.56054688 C9.91626953 11.79224609 9.95558594 13.02394531 9.99609375 14.29296875 C10.03927734 15.52853516 10.08246094 16.76410156 10.12695312 18.03710938 C10.23343573 21.1014421 10.33544799 24.16585948 10.43359375 27.23046875 C12.24886482 25.27464127 14.06088266 23.31596998 15.87109375 21.35546875 C16.38736328 20.79988281 16.90363281 20.24429688 17.43554688 19.671875 C20.25464111 16.6829756 20.25464111 16.6829756 22.43359375 13.23046875 C23.09359375 13.23046875 23.75359375 13.23046875 24.43359375 13.23046875 C24.83964844 12.35261719 24.83964844 12.35261719 25.25390625 11.45703125 C26.42500658 9.24667633 27.69134952 7.50761611 29.30859375 5.60546875 C29.80101562 5.01507813 30.2934375 4.4246875 30.80078125 3.81640625 C33.66566539 1.03376759 35.64906281 0.27784381 39.66796875 0.03515625 C40.828125 0.05835938 41.98828125 0.0815625 43.18359375 0.10546875 C44.3540625 0.12351563 45.52453125 0.1415625 46.73046875 0.16015625 C48.06851563 0.19496094 48.06851563 0.19496094 49.43359375 0.23046875 C50.18359375 1.96484375 50.18359375 1.96484375 50.43359375 4.23046875 C48.80859375 6.30859375 48.80859375 6.30859375 46.43359375 8.48046875 C43.33378673 11.41585543 40.32478188 14.3435012 37.49609375 17.54296875 C36.67818359 18.46529297 36.67818359 18.46529297 35.84375 19.40625 C34.33865979 21.35327805 33.2774868 22.91167301 32.43359375 25.23046875 C33.09945203 27.36452484 33.09945203 27.36452484 34.51171875 29.43359375 C35.00897461 30.24183594 35.50623047 31.05007812 36.01855469 31.8828125 C36.84274902 33.16865234 36.84274902 33.16865234 37.68359375 34.48046875 C38.23047852 35.36347656 38.77736328 36.24648437 39.34082031 37.15625 C42.00898073 41.45126214 44.73742383 45.70731955 47.46484375 49.96484375 C47.9247168 50.68768555 48.38458984 51.41052734 48.85839844 52.15527344 C49.72426504 53.51118097 50.59955939 54.86112634 51.48535156 56.20410156 C53.66755644 59.59724094 54.43359375 61.07637659 54.43359375 65.23046875 C52.18465421 65.33870648 49.934218 65.4161652 47.68359375 65.48046875 C46.430625 65.526875 45.17765625 65.57328125 43.88671875 65.62109375 C39.72845366 65.15070177 39.10537473 64.31976688 36.43359375 61.23046875 C35.31403557 59.56578976 34.24963741 57.86307516 33.234375 56.1328125 C32.66525391 55.16666016 32.09613281 54.20050781 31.50976562 53.20507812 C30.92775391 52.20283203 30.34574219 51.20058594 29.74609375 50.16796875 C28.85567383 48.65879883 28.85567383 48.65879883 27.94726562 47.11914062 C23.57592041 39.65744874 23.57592041 39.65744874 22.43359375 36.23046875 C21.17879721 37.28729981 19.92999502 38.35124942 18.68359375 39.41796875 C17.9875 40.00964844 17.29140625 40.60132813 16.57421875 41.2109375 C11.92336748 45.59869317 10.00007516 48.3400457 9.7265625 54.71289062 C9.70529297 55.8662793 9.70529297 55.8662793 9.68359375 57.04296875 C9.65394531 57.83123047 9.62429688 58.61949219 9.59375 59.43164062 C9.52348082 61.36404321 9.47622241 63.2972589 9.43359375 65.23046875 C7.28782738 65.25732813 5.1419673 65.27679963 2.99609375 65.29296875 C1.80113281 65.30457031 0.60617187 65.31617187 -0.625 65.328125 C-3.56640625 65.23046875 -3.56640625 65.23046875 -4.56640625 64.23046875 C-4.67086182 62.30829797 -4.70495762 60.38227056 -4.71166992 58.45727539 C-4.71804977 57.22251968 -4.72442963 55.98776398 -4.73100281 54.71559143 C-4.73253137 53.35726968 -4.73364539 51.99894741 -4.734375 50.640625 C-4.73758595 49.2567898 -4.7409499 47.87295495 -4.74446106 46.48912048 C-4.75045849 43.58461724 -4.75230034 40.68014377 -4.75170898 37.77563477 C-4.75160734 34.04844729 -4.76525897 30.32145022 -4.78248119 26.5943079 C-4.79358405 23.73505267 -4.79562872 20.87584372 -4.79509926 18.01656914 C-4.79628199 16.64220969 -4.80072013 15.26784914 -4.80843163 13.89351082 C-4.81819623 11.97338423 -4.8140984 10.05320213 -4.80932617 8.13305664 C-4.81075119 7.03909073 -4.81217621 5.94512482 -4.81364441 4.81800842 C-4.47061661 1.22795567 -3.59830814 0.32313574 0 0 Z " fill="#403F41" transform="translate(400.56640625,57.76953125)"/>
<path d="M0 0 C0.99128906 -0.00257812 1.98257813 -0.00515625 3.00390625 -0.0078125 C5.4375 0.125 5.4375 0.125 6.4375 1.125 C6.59556531 3.04978813 6.688635 4.9799921 6.75390625 6.91015625 C6.81674805 8.66489258 6.81674805 8.66489258 6.88085938 10.45507812 C6.92017578 11.68677734 6.95949219 12.91847656 7 14.1875 C7.04318359 15.42306641 7.08636719 16.65863281 7.13085938 17.93164062 C7.23734198 20.99597335 7.33935424 24.06039073 7.4375 27.125 C8.54544922 25.81789063 8.54544922 25.81789063 9.67578125 24.484375 C14.87982353 18.36476678 20.11661465 12.27546497 25.5 6.3125 C26.37785156 5.33667969 27.25570312 4.36085938 28.16015625 3.35546875 C31.8995656 -0.30697162 35.10502334 0.01279726 40.125 0.0625 C41.89423828 0.07603516 41.89423828 0.07603516 43.69921875 0.08984375 C44.60285156 0.10144531 45.50648438 0.11304688 46.4375 0.125 C46.4375 5.09856895 44.58539571 6.59505789 41.3125 9.9375 C40.30426515 11.00611208 39.29645011 12.07512043 38.2890625 13.14453125 C37.3394267 14.13886683 36.38898142 15.13243034 35.4375 16.125 C33.25252301 18.41150938 31.34088341 20.58715545 29.4375 23.125 C29.74518676 26.95029481 31.99142786 30.11570012 33.875 33.375 C34.22264404 33.97691162 34.57028809 34.57882324 34.9284668 35.19897461 C38.55779431 41.4292271 42.38695639 47.53426398 46.23828125 53.62890625 C46.6142041 54.22977051 46.99012695 54.83063477 47.37744141 55.44970703 C48.32605379 56.94887289 49.3074497 58.42717734 50.29296875 59.90234375 C50.67066406 60.63582031 51.04835937 61.36929688 51.4375 62.125 C51.1075 63.115 50.7775 64.105 50.4375 65.125 C48.18915504 65.26026139 45.93847486 65.35710804 43.6875 65.4375 C42.43453125 65.49550781 41.1815625 65.55351563 39.890625 65.61328125 C36.4375 65.125 36.4375 65.125 34.2578125 63.05859375 C33.65710938 62.09050781 33.05640625 61.12242188 32.4375 60.125 C32.09138672 59.57303955 31.74527344 59.0210791 31.38867188 58.45239258 C30.25046886 56.60938313 29.15377908 54.74613572 28.0625 52.875 C24.69133181 47.16892624 21.20696444 41.57963677 17.4375 36.125 C16.98375 36.785 16.53 37.445 16.0625 38.125 C15.52625 38.785 14.99 39.445 14.4375 40.125 C13.7775 40.125 13.1175 40.125 12.4375 40.125 C12.0353125 41.0221875 12.0353125 41.0221875 11.625 41.9375 C10.4375 44.125 10.4375 44.125 8.89306641 45.51318359 C7.10409282 47.49419728 7.03655822 48.46836293 6.9609375 51.1015625 C6.91453125 52.23078125 6.91453125 52.23078125 6.8671875 53.3828125 C6.84914062 54.16398437 6.83109375 54.94515625 6.8125 55.75 C6.54222973 64.02027027 6.54222973 64.02027027 5.4375 65.125 C3.43950428 65.22373816 1.43792842 65.25471799 -0.5625 65.25 C-1.655625 65.25257812 -2.74875 65.25515625 -3.875 65.2578125 C-6.5625 65.125 -6.5625 65.125 -7.5625 64.125 C-7.6565067 62.16130847 -7.67993381 60.19420801 -7.67602539 58.22827148 C-7.67594986 56.96703964 -7.67587433 55.7058078 -7.67579651 54.40635681 C-7.6706891 53.01960206 -7.66547309 51.63284771 -7.66015625 50.24609375 C-7.65829201 48.83504791 -7.65686814 47.42400143 -7.65586853 46.01295471 C-7.65204379 42.29259465 -7.6422139 38.5722734 -7.63116455 34.85192871 C-7.62094948 31.05819219 -7.61637071 27.26444942 -7.61132812 23.47070312 C-7.60059158 16.02211769 -7.5835157 8.57356428 -7.5625 1.125 C-4.93920316 -0.18664842 -2.92551375 -0.00762846 0 0 Z " fill="#403F41" transform="translate(196.5625,57.875)"/>
<path d="M0 0 C1.093125 0.00257812 2.18625 0.00515625 3.3125 0.0078125 C4.405625 0.00523438 5.49875 0.00265625 6.625 0 C9.3125 0.1328125 9.3125 0.1328125 10.3125 1.1328125 C10.41383696 2.51296179 10.44816544 3.89813162 10.4543457 5.28198242 C10.46138016 6.16347458 10.46841461 7.04496674 10.47566223 7.95317078 C10.47982651 8.91350723 10.48399078 9.87384369 10.48828125 10.86328125 C10.51148854 12.88347386 10.53560623 14.90365617 10.56054688 16.92382812 C10.59561516 20.11896549 10.62497227 23.31372715 10.63842773 26.5090332 C10.65393262 29.58591739 10.69417159 32.66169134 10.73828125 35.73828125 C10.73637283 36.68849655 10.73446442 37.63871185 10.73249817 38.61772156 C10.83557569 44.22605136 11.34886939 47.82318776 15.3125 52.1328125 C19.72767394 54.89330517 25.05674644 54.5763985 30.125 54.7578125 C31.00865234 54.79648438 31.89230469 54.83515625 32.80273438 54.875 C34.97232972 54.96882034 37.14238547 55.05188576 39.3125 55.1328125 C39.31027939 54.458517 39.30805878 53.7842215 39.30577087 53.0894928 C39.28372071 46.09848559 39.26859453 39.10748819 39.25756836 32.11645508 C39.25252623 29.50414631 39.24569275 26.89184039 39.23706055 24.27954102 C39.22498964 20.53400982 39.21927065 16.78851578 39.21484375 13.04296875 C39.20968246 11.86694595 39.20452118 10.69092316 39.19920349 9.47926331 C39.19912796 8.39821823 39.19905243 7.31717316 39.19897461 6.20336914 C39.196754 5.24628555 39.19453339 4.28920197 39.19224548 3.30311584 C39.3125 1.1328125 39.3125 1.1328125 40.3125 0.1328125 C42.31049572 0.03407434 44.31207158 0.00309451 46.3125 0.0078125 C47.405625 0.00523438 48.49875 0.00265625 49.625 0 C52.3125 0.1328125 52.3125 0.1328125 53.3125 1.1328125 C53.43256047 2.97735839 53.48270257 4.82649459 53.50537109 6.67480469 C53.52143402 7.85983582 53.53749695 9.04486694 53.55404663 10.26580811 C53.59832522 15.69999803 53.64001902 21.13404081 53.66259766 26.56835938 C53.67921995 30.14762515 53.72396869 33.72596548 53.7749691 37.30488205 C53.80867089 40.05874659 53.82017831 42.81239275 53.82582474 45.5664444 C53.83579052 47.52579061 53.8700308 49.48496475 53.90463257 51.44403076 C53.88106178 61.34892418 53.88106178 61.34892418 50.94116211 64.40087891 C44.46655676 68.66677009 38.15546281 68.49852137 30.625 68.5078125 C29.59955078 68.53230469 28.57410156 68.55679688 27.51757812 68.58203125 C18.99693304 68.61432681 11.80834404 66.77167748 4.4375 62.4453125 C-0.4141458 57.16558031 -3.80993044 50.71753364 -3.81689453 43.49365234 C-3.82004669 42.55613129 -3.82319885 41.61861023 -3.82644653 40.65267944 C-3.8244223 39.64323273 -3.82239807 38.63378601 -3.8203125 37.59375 C-3.82174759 36.03885361 -3.82174759 36.03885361 -3.82321167 34.45254517 C-3.82389222 32.26198262 -3.82204665 30.07141805 -3.81787109 27.88085938 C-3.81251029 24.51427729 -3.81782589 21.14782798 -3.82421875 17.78125 C-3.82355816 15.6562497 -3.82227739 13.53124949 -3.8203125 11.40625 C-3.82233673 10.39275482 -3.82436096 9.37925964 -3.82644653 8.33505249 C-3.82329437 7.40383575 -3.82014221 6.47261902 -3.81689453 5.51318359 C-3.81609894 4.68950287 -3.81530334 3.86582214 -3.81448364 3.0171814 C-3.61030248 -0.01275707 -3.05942825 0.15119267 0 0 Z " fill="#403F41" transform="translate(658.6875,56.8671875)"/>
<path d="M0 0 C1.24652344 -0.02835938 2.49304688 -0.05671875 3.77734375 -0.0859375 C7.0625 0.375 7.0625 0.375 8.79296875 1.85546875 C10.6276886 5.496682 12.04337672 9.23362162 13.4375 13.0625 C16.01307825 20.00361424 18.65609113 26.91157764 21.40625 33.78515625 C21.69666168 34.51300827 21.98707336 35.24086029 22.2862854 35.99076843 C24.04270646 40.39224036 24.04270646 40.39224036 25.81170654 44.78866577 C31.89757801 59.86043276 31.89757801 59.86043276 33.0625 67.375 C31.33276886 69.10473114 29.03733037 68.54708117 26.6875 68.5625 C25.71039063 68.57667969 24.73328125 68.59085937 23.7265625 68.60546875 C21.0625 68.375 21.0625 68.375 18.0625 66.375 C16.89453125 64.09765625 16.89453125 64.09765625 15.875 61.4375 C15.53082031 60.56222656 15.18664062 59.68695313 14.83203125 58.78515625 C14.0625 56.375 14.0625 56.375 14.0625 53.375 C4.8225 53.375 -4.4175 53.375 -13.9375 53.375 C-14.2675 55.025 -14.5975 56.675 -14.9375 58.375 C-15.55767367 59.97711532 -16.22423278 61.56210565 -16.9375 63.125 C-17.288125 63.90359375 -17.63875 64.6821875 -18 65.484375 C-18.9375 67.375 -18.9375 67.375 -19.9375 68.375 C-21.95714199 68.44744053 -23.97917124 68.45877188 -26 68.4375 C-27.10472656 68.42847656 -28.20945312 68.41945313 -29.34765625 68.41015625 C-30.20230469 68.39855469 -31.05695313 68.38695313 -31.9375 68.375 C-33.30604958 64.67574933 -32.55063977 62.65205949 -31.05859375 59.078125 C-30.63497559 58.04526367 -30.21135742 57.01240234 -29.77490234 55.94824219 C-29.31293457 54.85157227 -28.8509668 53.75490234 -28.375 52.625 C-27.4375394 50.3442686 -26.50133846 48.06301902 -25.56640625 45.78125 C-24.88215576 44.12222656 -24.88215576 44.12222656 -24.18408203 42.4296875 C-22.6563585 38.68607669 -21.21123647 34.91833708 -19.8125 31.125 C-19.13574219 29.30355469 -19.13574219 29.30355469 -18.4453125 27.4453125 C-18.21102539 26.81270508 -17.97673828 26.18009766 -17.73535156 25.52832031 C-16.0630548 21.01496124 -14.38036546 16.50568506 -12.6875 12 C-12.3457373 11.07670898 -12.00397461 10.15341797 -11.65185547 9.20214844 C-11.32846191 8.34395508 -11.00506836 7.48576172 -10.671875 6.6015625 C-10.38538086 5.83408691 -10.09888672 5.06661133 -9.80371094 4.27587891 C-7.64849244 -0.45369584 -4.77046033 0.04923076 0 0 Z M-0.9375 19.375 C-2.27350613 22.85314628 -3.60585642 26.33268139 -4.9375 29.8125 C-5.3190625 30.80572266 -5.700625 31.79894531 -6.09375 32.82226562 C-6.4546875 33.76650391 -6.815625 34.71074219 -7.1875 35.68359375 C-7.52265625 36.55814209 -7.8578125 37.43269043 -8.203125 38.33374023 C-8.9939207 40.17026915 -8.9939207 40.17026915 -8.9375 41.375 C-2.9975 41.375 2.9425 41.375 9.0625 41.375 C8.11375 38.673125 7.165 35.97125 6.1875 33.1875 C5.89246582 32.34550049 5.59743164 31.50350098 5.29345703 30.63598633 C3.95983305 26.84807999 2.59542588 23.0882525 1.0625 19.375 C0.4025 19.375 -0.2575 19.375 -0.9375 19.375 Z " fill="#403F41" transform="translate(354.9375,56.625)"/>
<path d="M0 0 C1.28132812 0.00902344 2.56265625 0.01804688 3.8828125 0.02734375 C5.36394531 0.04474609 5.36394531 0.04474609 6.875 0.0625 C9.59899388 4.6218501 11.74966453 8.98612172 13.5625 14 C14.07639738 15.40510362 14.59075085 16.81004049 15.10546875 18.21484375 C15.38438965 18.9816748 15.66331055 19.74850586 15.95068359 20.53857422 C17.34656087 24.35013769 18.77627606 28.14882814 20.20483398 31.94824219 C20.98411375 34.02220268 21.76097545 36.09707337 22.53540039 38.17285156 C24.25936267 42.79117253 25.9966535 47.40049025 27.8203125 51.98046875 C28.10712891 52.71072266 28.39394531 53.44097656 28.68945312 54.19335938 C29.44289519 56.10510515 30.20920868 58.01176441 30.9765625 59.91796875 C31.90637138 63.17229982 31.87275433 64.87088824 30.875 68.0625 C29.10492286 68.14364106 27.33377902 68.20175505 25.5625 68.25 C24.57636719 68.28480469 23.59023438 68.31960937 22.57421875 68.35546875 C19.875 68.0625 19.875 68.0625 16.875 65.0625 C14.895 59.6175 14.895 59.6175 12.875 54.0625 C3.965 53.7325 -4.945 53.4025 -14.125 53.0625 C-15.115 56.3625 -16.105 59.6625 -17.125 63.0625 C-19.125 67.0625 -19.125 67.0625 -21.125 68.0625 C-22.99879605 68.13283769 -24.87501102 68.1468022 -26.75 68.125 C-27.75289062 68.11597656 -28.75578125 68.10695313 -29.7890625 68.09765625 C-30.55992187 68.08605469 -31.33078125 68.07445313 -32.125 68.0625 C-34.10593793 62.74757278 -31.7474266 58.53358812 -29.75 53.58203125 C-29.387854 52.65517014 -29.02570801 51.72830902 -28.65258789 50.77336121 C-27.48863073 47.80239667 -26.30721602 44.83873984 -25.125 41.875 C-24.35950107 39.93080117 -23.59516642 37.98614349 -22.83203125 36.04101562 C-21.33154012 32.21999095 -19.82135845 28.40300743 -18.3046875 24.58837891 C-16.86396894 20.95539779 -15.45301656 17.3131634 -14.0703125 13.65771484 C-13.5918689 12.3995118 -13.5918689 12.3995118 -13.10375977 11.1158905 C-12.50728169 9.54265573 -11.91632834 7.96731154 -11.33178711 6.38960266 C-8.76066587 -0.36860291 -7.00877466 -0.06371613 0 0 Z M-1.125 18.0625 C-2.46371641 21.51877381 -3.79505392 24.97784297 -5.125 28.4375 C-5.69734375 29.91476563 -5.69734375 29.91476563 -6.28125 31.421875 C-6.6421875 32.36289063 -7.003125 33.30390625 -7.375 34.2734375 C-7.87773438 35.57740479 -7.87773438 35.57740479 -8.390625 36.90771484 C-9.23253032 38.99859786 -9.23253032 38.99859786 -9.125 41.0625 C-3.515 41.0625 2.095 41.0625 7.875 41.0625 C7.17323112 37.5536556 6.52718934 34.87439669 5.24609375 31.63671875 C4.93349609 30.84072266 4.62089844 30.04472656 4.29882812 29.22460938 C3.8105957 27.99967773 3.8105957 27.99967773 3.3125 26.75 C2.98314453 25.91404297 2.65378906 25.07808594 2.31445312 24.21679688 C1.50501123 22.16386454 0.69176543 20.11252714 -0.125 18.0625 C-0.455 18.0625 -0.785 18.0625 -1.125 18.0625 Z " fill="#403F41" transform="translate(614.125,56.9375)"/>
<path d="M0 0 C4.95 0 9.9 0 15 0 C18.38911355 6.47383314 21.10562606 13.09454934 23.73046875 19.91015625 C24.16635818 21.03642929 24.60224762 22.16270233 25.05134583 23.32310486 C25.96690074 25.69319491 26.88033097 28.06410669 27.79174805 30.43579102 C29.1855614 34.05746276 30.59147202 37.67428422 31.99804688 41.29101562 C32.88876322 43.60127641 33.77876175 45.91181411 34.66796875 48.22265625 C35.08773483 49.29886734 35.50750092 50.37507843 35.93998718 51.48390198 C37.91740552 56.66303101 39.67195502 61.43956558 40 67 C38.26780072 68.73219928 35.97973192 68.21291761 33.625 68.25 C32.64789062 68.27578125 31.67078125 68.3015625 30.6640625 68.328125 C28 68 28 68 25 65 C23.02 59.555 23.02 59.555 21 54 C12.09 53.67 3.18 53.34 -6 53 C-6.99 56.3 -7.98 59.6 -9 63 C-11 67 -11 67 -13 68 C-14.87379605 68.07033769 -16.75001102 68.0843022 -18.625 68.0625 C-19.62789063 68.05347656 -20.63078125 68.04445313 -21.6640625 68.03515625 C-22.43492187 68.02355469 -23.20578125 68.01195313 -24 68 C-25.54605344 63.26339756 -24.19426236 59.92572682 -22.38671875 55.515625 C-22.10131226 54.79045685 -21.81590576 54.0652887 -21.52185059 53.31814575 C-20.5891766 50.95708301 -19.63862126 48.60368471 -18.6875 46.25 C-18.04291588 44.6288592 -17.3994484 43.00727398 -16.75708008 41.38525391 C-15.15227667 37.34120078 -13.53307733 33.30309312 -11.90966797 29.26647949 C-10.55541576 25.89229797 -9.21506596 22.51264691 -7.875 19.1328125 C-1.33129302 2.66258604 -1.33129302 2.66258604 0 0 Z M7 18 C5.66128359 21.45627381 4.32994608 24.91534297 3 28.375 C2.42765625 29.85226563 2.42765625 29.85226563 1.84375 31.359375 C1.4828125 32.30039063 1.121875 33.24140625 0.75 34.2109375 C0.24726563 35.51490479 0.24726563 35.51490479 -0.265625 36.84521484 C-1.10753032 38.93609786 -1.10753032 38.93609786 -1 41 C4.61 41 10.22 41 16 41 C15.29823112 37.4911556 14.65218934 34.81189669 13.37109375 31.57421875 C13.05849609 30.77822266 12.74589844 29.98222656 12.42382812 29.16210938 C11.9355957 27.93717773 11.9355957 27.93717773 11.4375 26.6875 C11.10814453 25.85154297 10.77878906 25.01558594 10.43945312 24.15429688 C9.63001123 22.10136454 8.81676543 20.05002714 8 18 C7.67 18 7.34 18 7 18 Z " fill="#403F41" transform="translate(489,57)"/>
<path d="M0 0 C7.28421977 -0.02255606 14.56842059 -0.04091801 21.85266781 -0.05181217 C25.23471813 -0.05703975 28.6167434 -0.06413511 31.9987793 -0.07543945 C35.88329777 -0.08834267 39.76780597 -0.09322924 43.65234375 -0.09765625 C44.87211411 -0.10281754 46.09188446 -0.10797882 47.34861755 -0.11329651 C49.03024742 -0.11340981 49.03024742 -0.11340981 50.74584961 -0.11352539 C51.73846298 -0.115746 52.73107635 -0.11796661 53.75376892 -0.12025452 C56 0 56 0 57 1 C57.09823937 2.66429051 57.12973631 4.33281931 57.125 6 C57.12886719 7.36125 57.12886719 7.36125 57.1328125 8.75 C57 11 57 11 56 12 C54.43827255 12.08685603 52.87270656 12.10702219 51.30859375 12.09765625 C50.36435547 12.09443359 49.42011719 12.09121094 48.44726562 12.08789062 C47.45404297 12.07951172 46.46082031 12.07113281 45.4375 12.0625 C44.44041016 12.05798828 43.44332031 12.05347656 42.41601562 12.04882812 C39.94395151 12.03700007 37.47200482 12.02051849 35 12 C35.00222061 12.68682358 35.00444122 13.37364716 35.00672913 14.08128357 C35.02877895 21.20205162 35.04390533 28.32281004 35.05493164 35.44360352 C35.05997383 38.10441481 35.06680736 40.76522332 35.07543945 43.42602539 C35.08751009 47.24105516 35.09322929 51.05604844 35.09765625 54.87109375 C35.10281754 56.06899033 35.10797882 57.2668869 35.11329651 58.50108337 C35.11337204 59.6021492 35.11344757 60.70321503 35.11352539 61.83764648 C35.115746 62.81249496 35.11796661 63.78734344 35.12025452 64.79173279 C35 67 35 67 34 68 C32.189715 68.09879565 30.37547273 68.12971514 28.5625 68.125 C27.57378906 68.12757812 26.58507812 68.13015625 25.56640625 68.1328125 C23 68 23 68 21 67 C21 48.85 21 30.7 21 12 C14.07 12 7.14 12 0 12 C0 8.04 0 4.08 0 0 Z " fill="#403F41" transform="translate(527,57)"/>
<path d="M0 0 C6 0 6 0 7.49145508 1.34521484 C7.83072021 1.96090332 8.16998535 2.5765918 8.51953125 3.2109375 C8.90173828 3.87867188 9.28394531 4.54640625 9.67773438 5.234375 C10.05220703 5.94078125 10.42667969 6.6471875 10.8125 7.375 C11.20630859 8.07367188 11.60011719 8.77234375 12.00585938 9.4921875 C13.39314568 11.96693495 14.73117615 14.4623523 16 17 C16.33 11.39 16.66 5.78 17 0 C18.65 0 20.3 0 22 0 C22 8.91 22 17.82 22 27 C20.35 27.33 18.7 27.66 17 28 C13.37 22.39 9.74 16.78 6 11 C5.67 16.28 5.34 21.56 5 27 C3.35 27.33 1.7 27.66 0 28 C0 18.76 0 9.52 0 0 Z " fill="#413F41" transform="translate(416,141)"/>
<path d="M0 0 C2.8425293 -0.20068359 2.8425293 -0.20068359 6 0 C7.49145508 1.34521484 7.49145508 1.34521484 8.51953125 3.2109375 C8.90173828 3.87867188 9.28394531 4.54640625 9.67773438 5.234375 C10.05220703 5.94078125 10.42667969 6.6471875 10.8125 7.375 C11.20630859 8.07367188 11.60011719 8.77234375 12.00585938 9.4921875 C13.39314568 11.96693495 14.73117615 14.4623523 16 17 C16.33 11.39 16.66 5.78 17 0 C18.65 0 20.3 0 22 0 C22 8.91 22 17.82 22 27 C20.35 27.33 18.7 27.66 17 28 C15.72881267 25.93771746 14.45804035 23.87518109 13.1875 21.8125 C12.65286133 20.9452832 12.65286133 20.9452832 12.10742188 20.06054688 C10.04981458 16.71929467 8.01901195 13.36501992 6 10 C5.67 15.61 5.34 21.22 5 27 C3.68 27.33 2.36 27.66 1 28 C0 27 0 27 -0.11352539 24.40795898 C-0.10828857 23.28204346 -0.10305176 22.15612793 -0.09765625 20.99609375 C-0.09443359 19.78115234 -0.09121094 18.56621094 -0.08789062 17.31445312 C-0.07951172 16.03505859 -0.07113281 14.75566406 -0.0625 13.4375 C-0.05798828 12.15423828 -0.05347656 10.87097656 -0.04882812 9.54882812 C-0.03699545 6.36583978 -0.02051068 3.18294238 0 0 Z " fill="#403F41" transform="translate(340,141)"/>
<path d="M0 0 C2.50182936 1.51626022 3.6918931 2.6530606 5.0625 5.25 C5.39105599 8.40413751 5.59751881 10.40523346 3.875 13.125 C2.66468872 16.2904295 4.04369319 18.259365 5.32421875 21.27734375 C6.22200116 23.67618034 6.30050216 25.71131034 6.0625 28.25 C4.4125 27.92 2.7625 27.59 1.0625 27.25 C0.85753906 26.61191406 0.65257812 25.97382813 0.44140625 25.31640625 C0.17199219 24.49011719 -0.09742188 23.66382813 -0.375 22.8125 C-0.64183594 21.98878906 -0.90867187 21.16507813 -1.18359375 20.31640625 C-1.75905494 18.28780412 -1.75905494 18.28780412 -2.9375 17.25 C-5.26567964 16.88239269 -7.5993385 16.54758419 -9.9375 16.25 C-9.9375 19.88 -9.9375 23.51 -9.9375 27.25 C-11.5875 27.58 -13.2375 27.91 -14.9375 28.25 C-14.9375 19.01 -14.9375 9.77 -14.9375 0.25 C-10.57271117 -1.93239441 -4.60774782 -1.17644625 0 0 Z M-9.9375 4.25 C-9.9375 6.89 -9.9375 9.53 -9.9375 12.25 C-4.61579506 12.54562367 -4.61579506 12.54562367 0.0625 10.25 C-0.31654208 6.95924004 -0.31654208 6.95924004 -1.9375 4.25 C-4.60808851 4.10884839 -7.26182238 4.20752893 -9.9375 4.25 Z " fill="#3F3E40" transform="translate(481.9375,140.75)"/>
<path d="M0 0 C2.5 1.1875 2.5 1.1875 4.5 4.1875 C4.95125157 10.39220911 4.95125157 10.39220911 3.3984375 13.12890625 C2.27278166 15.16713105 2.27278166 15.16713105 2.9609375 17.40625 C3.26257813 18.1590625 3.56421875 18.911875 3.875 19.6875 C5.16043014 22.95137479 5.5 24.52993653 5.5 28.1875 C3.14453125 28.00390625 3.14453125 28.00390625 0.5 27.1875 C-0.86328125 24.90234375 -0.86328125 24.90234375 -1.8125 22.125 C-2.13863281 21.20589844 -2.46476562 20.28679687 -2.80078125 19.33984375 C-3.03152344 18.62957031 -3.26226562 17.91929687 -3.5 17.1875 C-5.81 16.8575 -8.12 16.5275 -10.5 16.1875 C-10.5 19.8175 -10.5 23.4475 -10.5 27.1875 C-12.15 27.5175 -13.8 27.8475 -15.5 28.1875 C-15.5 18.9475 -15.5 9.7075 -15.5 0.1875 C-10.93801654 -2.09349173 -4.80790099 -1.11611987 0 0 Z M-10.5 4.1875 C-10.5 6.8275 -10.5 9.4675 -10.5 12.1875 C-5.17829506 12.48312367 -5.17829506 12.48312367 -0.5 10.1875 C-0.87904208 6.89674004 -0.87904208 6.89674004 -2.5 4.1875 C-5.17058851 4.04634839 -7.82432238 4.14502893 -10.5 4.1875 Z " fill="#3E3D3F" transform="translate(305.5,140.8125)"/>
<path d="M0 0 C3 1.625 3 1.625 4 3.625 C4.35561497 10.02606952 4.35561497 10.02606952 2.8125 12.625 C1.64084623 14.85704045 1.64084623 14.85704045 3.3125 18.0625 C3.869375 19.238125 4.42625 20.41375 5 21.625 C5.6875 24.5625 5.6875 24.5625 6 26.625 C4.35 26.955 2.7 27.285 1 27.625 C0.49632243 26.16793274 -0.00282556 24.70929904 -0.5 23.25 C-0.7784375 22.43789062 -1.056875 21.62578125 -1.34375 20.7890625 C-2 18.625 -2 18.625 -2 16.625 C-4.97 16.295 -7.94 15.965 -11 15.625 C-11 19.585 -11 23.545 -11 27.625 C-12.65 27.295 -14.3 26.965 -16 26.625 C-16 17.715 -16 8.805 -16 -0.375 C-10.67672712 -2.14942429 -5.22674744 -2.13821486 0 0 Z M-11 3.625 C-11 6.265 -11 8.905 -11 11.625 C-6.96797664 11.97631202 -6.96797664 11.97631202 -3 11.625 C-0.91783124 9.2700037 -0.91783124 9.2700037 0 6.625 C-0.66 5.635 -1.32 4.645 -2 3.625 C-4.20725073 3.26137182 -4.20725073 3.26137182 -6.625 3.4375 C-7.44226563 3.46457031 -8.25953125 3.49164063 -9.1015625 3.51953125 C-10.04128906 3.57173828 -10.04128906 3.57173828 -11 3.625 Z " fill="#3F3E3F" transform="translate(706,141.375)"/>
<path d="M0 0 C3.29812783 1.64906391 4.29909573 2.88074776 5.625 6.3125 C5.36407143 9.57410713 4.6582302 12.2128094 3.625 15.3125 C4.2751445 17.63505567 5.15030921 19.81447303 6.03125 22.05859375 C6.69221955 24.56766894 6.46342592 25.89099355 5.625 28.3125 C4.305 28.3125 2.985 28.3125 1.625 28.3125 C1.42003906 27.60222656 1.21507812 26.89195312 1.00390625 26.16015625 C0.73449219 25.24105469 0.46507812 24.32195312 0.1875 23.375 C-0.07933594 22.45847656 -0.34617187 21.54195312 -0.62109375 20.59765625 C-1.16526051 18.3722507 -1.16526051 18.3722507 -2.375 17.3125 C-3.72247084 17.08174918 -5.07877565 16.90096937 -6.4375 16.75 C-7.736875 16.605625 -9.03625 16.46125 -10.375 16.3125 C-10.375 20.2725 -10.375 24.2325 -10.375 28.3125 C-11.695 28.3125 -13.015 28.3125 -14.375 28.3125 C-14.375 19.0725 -14.375 9.8325 -14.375 0.3125 C-10.05766752 -1.84616624 -4.58522921 -0.93402817 0 0 Z M-10.375 4.3125 C-10.375 6.9525 -10.375 9.5925 -10.375 12.3125 C-5.01409407 12.84923893 -5.01409407 12.84923893 -0.375 10.8125 C-0.045 10.3175 0.285 9.8225 0.625 9.3125 C-0.035 7.6625 -0.695 6.0125 -1.375 4.3125 C-4.345 4.3125 -7.315 4.3125 -10.375 4.3125 Z " fill="#3F3E40" transform="translate(577.375,140.6875)"/>
<path d="M0 0 C1.65 0 3.3 0 5 0 C5.33 3.3 5.66 6.6 6 10 C7.14842923 8.71064081 8.29366227 7.41843421 9.4375 6.125 C10.07558594 5.40570313 10.71367188 4.68640625 11.37109375 3.9453125 C13.05014465 2.09249509 13.05014465 2.09249509 14 0 C15.98 0 17.96 0 20 0 C18.35371179 4.68558952 18.35371179 4.68558952 16.3125 6.5 C15.6628125 7.2425 15.6628125 7.2425 15 8 C15.52074893 13.16259714 18.13799825 16.99410997 20.72265625 21.37890625 C22 24 22 24 22 28 C19.73828125 27.87890625 19.73828125 27.87890625 17 27 C14.98046875 24.27734375 14.98046875 24.27734375 13.1875 20.9375 C12.58292969 19.83277344 11.97835937 18.72804687 11.35546875 17.58984375 C10.90816406 16.73519531 10.46085938 15.88054687 10 15 C6.92278298 17.67630008 6.92278298 17.67630008 5.390625 21.359375 C5.34421875 22.14828125 5.2978125 22.9371875 5.25 23.75 C5.19328125 24.54921875 5.1365625 25.3484375 5.078125 26.171875 C5.05234375 26.77515625 5.0265625 27.3784375 5 28 C3.35 27.67 1.7 27.34 0 27 C0 18.09 0 9.18 0 0 Z " fill="#414042" transform="translate(615,141)"/>
<path d="M0 0 C2.96156143 1.45848701 3.27155438 3.36455545 4.35668945 6.42724609 C4.75436523 7.53841797 5.15204102 8.64958984 5.56176758 9.79443359 C5.96202148 10.96490234 6.36227539 12.13537109 6.7746582 13.34130859 C7.19424805 14.50404297 7.61383789 15.66677734 8.04614258 16.86474609 C11.09903435 25.55568016 11.09903435 25.55568016 9.9621582 28.96630859 C8.3121582 28.63630859 6.6621582 28.30630859 4.9621582 27.96630859 C4.6321582 25.98630859 4.3021582 24.00630859 3.9621582 21.96630859 C0.6621582 21.96630859 -2.6378418 21.96630859 -6.0378418 21.96630859 C-6.6978418 24.27630859 -7.3578418 26.58630859 -8.0378418 28.96630859 C-9.6878418 28.96630859 -11.3378418 28.96630859 -13.0378418 28.96630859 C-12.42019996 22.86500881 -10.69417364 17.4246377 -8.6628418 11.65380859 C-8.35862305 10.74824219 -8.0544043 9.84267578 -7.7409668 8.90966797 C-7.28850586 7.61319336 -7.28850586 7.61319336 -6.8269043 6.29052734 C-6.55571777 5.50766357 -6.28453125 4.7247998 -6.00512695 3.91821289 C-4.64982401 1.18331965 -3.10986164 -0.05141499 0 0 Z M-2.0378418 7.96630859 C-3.0278418 11.26630859 -4.0178418 14.56630859 -5.0378418 17.96630859 C-2.7278418 17.96630859 -0.4178418 17.96630859 1.9621582 17.96630859 C1.680884 16.48513059 1.38682088 15.00637611 1.0871582 13.52880859 C0.84352539 12.29324219 0.84352539 12.29324219 0.5949707 11.03271484 C0.38614258 10.35080078 0.17731445 9.66888672 -0.0378418 8.96630859 C-0.6978418 8.63630859 -1.3578418 8.30630859 -2.0378418 7.96630859 Z " fill="#3F3E40" transform="translate(326.037841796875,140.03369140625)"/>
<path d="M0 0 C2.92829937 1.53538056 3.26694009 3.41403208 4.35668945 6.48974609 C4.75436523 7.60091797 5.15204102 8.71208984 5.56176758 9.85693359 C5.96202148 11.02740234 6.36227539 12.19787109 6.7746582 13.40380859 C7.19424805 14.56654297 7.61383789 15.72927734 8.04614258 16.92724609 C11.09903435 25.61818016 11.09903435 25.61818016 9.9621582 29.02880859 C8.3121582 28.69880859 6.6621582 28.36880859 4.9621582 28.02880859 C4.6321582 26.04880859 4.3021582 24.06880859 3.9621582 22.02880859 C-0.9878418 22.52380859 -0.9878418 22.52380859 -6.0378418 23.02880859 C-6.6978418 25.00880859 -7.3578418 26.98880859 -8.0378418 29.02880859 C-9.6878418 29.02880859 -11.3378418 29.02880859 -13.0378418 29.02880859 C-12.34417382 23.35760421 -10.5425109 18.20457933 -8.6628418 12.84130859 C-8.35862305 11.93960938 -8.0544043 11.03791016 -7.7409668 10.10888672 C-7.28850586 8.81047852 -7.28850586 8.81047852 -6.8269043 7.48583984 C-6.55571777 6.70184814 -6.28453125 5.91785645 -6.00512695 5.11010742 C-4.600621 2.0880445 -3.53129503 0.04992127 0 0 Z M-2.0378418 8.02880859 C-3.0278418 11.32880859 -4.0178418 14.62880859 -5.0378418 18.02880859 C-2.7278418 18.02880859 -0.4178418 18.02880859 1.9621582 18.02880859 C1.6734082 16.75005859 1.3846582 15.47130859 1.0871582 14.15380859 C0.92473633 13.43451172 0.76231445 12.71521484 0.5949707 11.97412109 C0.05741392 9.82160895 0.05741392 9.82160895 -2.0378418 8.02880859 Z " fill="#403F41" transform="translate(503.037841796875,139.97119140625)"/>
<path d="M0 0 C2.67326765 0.99985246 3.79471301 1.62565065 5.18847656 4.16723633 C5.50268555 5.04661865 5.81689453 5.92600098 6.140625 6.83203125 C6.48867188 7.79560547 6.83671875 8.75917969 7.1953125 9.75195312 C7.54335938 10.76193359 7.89140625 11.77191406 8.25 12.8125 C8.61351562 13.81087891 8.97703125 14.80925781 9.3515625 15.83789062 C10.97011791 20.40452909 12.22641856 24.10837 12 29 C9.625 28.8125 9.625 28.8125 7 28 C5.6875 25.4375 5.6875 25.4375 5 23 C2.03 23 -0.94 23 -4 23 C-4.99 24.98 -5.98 26.96 -7 29 C-8.32 29 -9.64 29 -11 29 C-10.45296533 22.59821591 -8.87989554 17.12563111 -6.625 11.125 C-6.16867187 9.84496094 -6.16867187 9.84496094 -5.703125 8.5390625 C-5.40148437 7.724375 -5.09984375 6.9096875 -4.7890625 6.0703125 C-4.51787598 5.33570801 -4.24668945 4.60110352 -3.96728516 3.84423828 C-3 2 -3 2 0 0 Z M0 8 C-0.99 11.3 -1.98 14.6 -3 18 C-0.69 18 1.62 18 4 18 C3.01 14.7 2.02 11.4 1 8 C0.67 8 0.34 8 0 8 Z " fill="#3F3F40" transform="translate(377,140)"/>
<path d="M0 0 C2.67326765 0.99985246 3.79471301 1.62565065 5.18847656 4.16723633 C5.50268555 5.04661865 5.81689453 5.92600098 6.140625 6.83203125 C6.48867188 7.79560547 6.83671875 8.75917969 7.1953125 9.75195312 C7.54335938 10.76193359 7.89140625 11.77191406 8.25 12.8125 C8.61351562 13.81087891 8.97703125 14.80925781 9.3515625 15.83789062 C10.97011791 20.40452909 12.22641856 24.10837 12 29 C10.35 28.67 8.7 28.34 7 28 C6.67 26.02 6.34 24.04 6 22 C2.5753227 22.01285057 -0.6733627 22.14825228 -4 23 C-6.23886732 25.88679844 -6.23886732 25.88679844 -7 29 C-8.32 29 -9.64 29 -11 29 C-10.38235816 22.89870022 -8.65633185 17.45832911 -6.625 11.6875 C-6.32078125 10.78193359 -6.0165625 9.87636719 -5.703125 8.94335938 C-5.25066406 7.64688477 -5.25066406 7.64688477 -4.7890625 6.32421875 C-4.51787598 5.54135498 -4.24668945 4.75849121 -3.96728516 3.9519043 C-3 2 -3 2 0 0 Z M0 7 C-1.485 12.445 -1.485 12.445 -3 18 C-0.69 18 1.62 18 4 18 C3.01 14.37 2.02 10.74 1 7 C0.67 7 0.34 7 0 7 Z " fill="#3F3E40" transform="translate(274,140)"/>
<path d="M0 0 C-0.33 1.65 -0.66 3.3 -1 5 C-4.63 5 -8.26 5 -12 5 C-12 6.32 -12 7.64 -12 9 C-11.40832031 9.15855469 -10.81664062 9.31710938 -10.20703125 9.48046875 C-4.99266964 11.02010897 -1.29906665 12.42387529 2 17 C2.5625 20.0625 2.5625 20.0625 2 23 C0.1329009 25.30275556 -1.35647741 26.67823871 -4 28 C-9.28910111 28.40253336 -14.21290155 28.55311917 -19 26 C-18.67 24.68 -18.34 23.36 -18 22 C-16.87851563 22.12568359 -16.87851563 22.12568359 -15.734375 22.25390625 C-14.74953125 22.35574219 -13.7646875 22.45757812 -12.75 22.5625 C-11.77546875 22.66691406 -10.8009375 22.77132812 -9.796875 22.87890625 C-7.2368648 22.98974468 -5.41851841 22.77738092 -3 22 C-3.04521971 20.08019275 -3.04521971 20.08019275 -4 18 C-6.69454166 16.30318242 -6.69454166 16.30318242 -9.9375 14.9375 C-15.79693704 12.30459444 -15.79693704 12.30459444 -18 9 C-17.9375 5.5 -17.9375 5.5 -17 2 C-12.42110524 -2.30138598 -5.73517094 -1.91172365 0 0 Z " fill="#403F41" transform="translate(259,141)"/>
<path d="M0 0 C3 1 3 1 5 2 C4.67 3.32 4.34 4.64 4 6 C0.04 5.67 -3.92 5.34 -8 5 C-5.82888643 10.44779262 -5.82888643 10.44779262 -1 12.6875 C3.85301837 14.85301837 3.85301837 14.85301837 6 17 C6.56833559 24.16102842 6.56833559 24.16102842 4.6875 26.9375 C1.51423607 28.935481 -1.28510917 29.16003841 -4.9375 29.1875 C-5.79214844 29.20167969 -6.64679687 29.21585938 -7.52734375 29.23046875 C-10.13909303 28.98703556 -11.75500652 28.3178268 -14 27 C-14 25.68 -14 24.36 -14 23 C-13.24074219 23.08378906 -12.48148438 23.16757813 -11.69921875 23.25390625 C-10.70535156 23.35574219 -9.71148438 23.45757812 -8.6875 23.5625 C-7.70136719 23.66691406 -6.71523438 23.77132812 -5.69921875 23.87890625 C-2.90069653 24.16602527 -2.90069653 24.16602527 0 23 C-0.11630239 20.57810571 -0.11630239 20.57810571 -1 18 C-3.21279221 16.38682299 -3.21279221 16.38682299 -5.9375 15.3125 C-10.86340206 13.13659794 -10.86340206 13.13659794 -13 11 C-13.4375 7.625 -13.4375 7.625 -13 4 C-9.31834829 -0.48701302 -5.42960304 -0.76627462 0 0 Z " fill="#3F3E40" transform="translate(530,140)"/>
<path d="M0 0 C1.65 0 3.3 0 5 0 C5.33 6.93 5.66 13.86 6 21 C10.2981424 23.52174919 10.2981424 23.52174919 17 23 C17 15.41 17 7.82 17 0 C18.32 0 19.64 0 21 0 C21 8.91 21 17.82 21 27 C18.20268195 28.39865903 15.80715441 28.24537267 12.6875 28.3125 C11.55699219 28.34988281 10.42648437 28.38726562 9.26171875 28.42578125 C5.35695943 27.91605818 3.77851871 26.72790817 1 24 C-0.25248502 21.49502996 -0.11374406 19.79146726 -0.09765625 16.9921875 C-0.09443359 16.00605469 -0.09121094 15.01992187 -0.08789062 14.00390625 C-0.07951172 12.97136719 -0.07113281 11.93882812 -0.0625 10.875 C-0.05798828 9.83472656 -0.05347656 8.79445312 -0.04882812 7.72265625 C-0.03701952 5.14838038 -0.02055075 2.57421854 0 0 Z " fill="#403F41" transform="translate(663,141)"/>
<path d="M0 0 C1.65 0 3.3 0 5 0 C5.33 6.93 5.66 13.86 6 21 C10.2981424 23.52174919 10.2981424 23.52174919 17 23 C17 15.41 17 7.82 17 0 C18.32 0 19.64 0 21 0 C21.05783842 4.29161047 21.0935412 8.58312145 21.125 12.875 C21.14175781 14.09832031 21.15851562 15.32164062 21.17578125 16.58203125 C21.18222656 17.74863281 21.18867187 18.91523438 21.1953125 20.1171875 C21.20578613 21.19597168 21.21625977 22.27475586 21.22705078 23.38623047 C21 26 21 26 19 28 C16.13671875 28.3359375 16.13671875 28.3359375 12.6875 28.375 C11.55699219 28.40335938 10.42648437 28.43171875 9.26171875 28.4609375 C5.37580704 27.91179069 3.77283996 26.71728215 1 24 C-0.25248502 21.49502996 -0.11374406 19.79146726 -0.09765625 16.9921875 C-0.09443359 16.00605469 -0.09121094 15.01992187 -0.08789062 14.00390625 C-0.07951172 12.97136719 -0.07113281 11.93882812 -0.0625 10.875 C-0.05798828 9.83472656 -0.05347656 8.79445312 -0.04882812 7.72265625 C-0.03701952 5.14838038 -0.02055075 2.57421854 0 0 Z " fill="#403F41" transform="translate(588,141)"/>
<path d="M0 0 C2.95064148 -0.2208564 5.68368231 -0.28060989 8.625 -0.1875 C9.42679687 -0.17396484 10.22859375 -0.16042969 11.0546875 -0.14648438 C13.03674378 -0.11109051 15.01845551 -0.05728234 17 0 C17 1.32 17 2.64 17 4 C12.38 4 7.76 4 3 4 C3 6.31 3 8.62 3 11 C6.96 11 10.92 11 15 11 C15 12.32 15 13.64 15 15 C11.04 15 7.08 15 3 15 C3 18.96 3 22.92 3 27 C1.35 27.33 -0.3 27.66 -2 28 C-2.05796132 23.89589245 -2.09358313 19.79188984 -2.125 15.6875 C-2.14175781 14.52025391 -2.15851563 13.35300781 -2.17578125 12.15039062 C-2.18222656 11.03212891 -2.18867188 9.91386719 -2.1953125 8.76171875 C-2.20578613 7.73006592 -2.21625977 6.69841309 -2.22705078 5.63549805 C-2 3 -2 3 0 0 Z " fill="#3F3E41" transform="translate(446,141)"/>
<path d="M0 0 C6.93 0 13.86 0 21 0 C21 1.32 21 2.64 21 4 C18.36 4 15.72 4 13 4 C13 11.92 13 19.84 13 28 C11.35 27.67 9.7 27.34 8 27 C8 19.41 8 11.82 8 4 C5.36 4 2.72 4 0 4 C0 2.68 0 1.36 0 0 Z " fill="#424142" transform="translate(638,141)"/>
<path d="M0 0 C6.93 0 13.86 0 21 0 C21 1.32 21 2.64 21 4 C18.36 4 15.72 4 13 4 C13 11.59 13 19.18 13 27 C11.68 27.33 10.36 27.66 9 28 C8 27 8 27 7.88647461 24.77514648 C7.89171143 23.81680908 7.89694824 22.85847168 7.90234375 21.87109375 C7.90556641 20.83662109 7.90878906 19.80214844 7.91210938 18.73632812 C7.92048828 17.64771484 7.92886719 16.55910156 7.9375 15.4375 C7.94201172 14.34501953 7.94652344 13.25253906 7.95117188 12.12695312 C7.96300174 9.41791505 7.97948457 6.70898401 8 4 C5.36 4 2.72 4 0 4 C0 2.68 0 1.36 0 0 Z " fill="#3F3F41" transform="translate(538,141)"/>
<path d="M0 0 C1.65 0 3.3 0 5 0 C5 8.91 5 17.82 5 27 C3.35 27.33 1.7 27.66 0 28 C0 18.76 0 9.52 0 0 Z " fill="#403F41" transform="translate(405,141)"/>
</svg>
