<?xml version="1.0" encoding="UTF-8"?>
<svg version="1.1" xmlns="http://www.w3.org/2000/svg" width="443" height="135">
<path d="M0 0 C2.8519281 2.43636144 3.89120442 4.8005543 5.125 8.3125 C5.62386719 9.69888672 5.62386719 9.69888672 6.1328125 11.11328125 C10.63936642 26.11482786 8.00837292 41.48418448 0.79296875 55.11328125 C-7.55115088 68.54749565 -20.47154613 77.95771888 -35.83813477 81.60522461 C-50.36501595 84.25795943 -65.15179675 81.76285413 -77.58203125 73.7734375 C-83.71195387 69.27750072 -89.58095528 64.22500135 -94 58 C-94 57.01 -94 56.02 -94 55 C-84.35475378 53.91877133 -84.35475378 53.91877133 -81.35546875 56.3125 C-80.45715891 57.5283393 -79.57265821 58.75445416 -78.69921875 59.98828125 C-71.89225829 68.04709651 -60.33075623 71.26795543 -50.22265625 72.27734375 C-37.10053395 72.74800811 -24.53424064 68.28700073 -14.75 59.5 C-7.46665783 51.6621647 -2.5558939 40.69278266 -2 30 C-2.13474806 26.9187611 -2.49960498 24.05240961 -3 21 C-3.87398438 21.50789063 -4.74796875 22.01578125 -5.6484375 22.5390625 C-30.35863047 36.52036788 -57.85518913 41.21654981 -86 38 C-86 37.34 -86 36.68 -86 36 C-85.08863281 35.98582031 -84.17726563 35.97164062 -83.23828125 35.95703125 C-55.89738223 34.95045089 -28.5245339 25.30213214 -8 7 C-7.19046875 6.29875 -6.3809375 5.5975 -5.546875 4.875 C-3.68673687 3.26201309 -1.83811406 1.63797557 0 0 Z " fill="#E7161D" transform="translate(120,42)"/>
<path d="M0 0 C0 2 0 2 -2.4375 4.8125 C-4.1015625 6.1484375 -4.1015625 6.1484375 -6 7 C-9.21827355 6.57812893 -12.0198253 5.24381248 -15 4 C-27.984469 -0.06511921 -40.55026548 1.59637018 -52.7578125 7.28515625 C-63.70693535 13.29545457 -69.99892836 22.59074719 -74.125 34.15234375 C-75.22531297 38.99077355 -75.21747261 43.49732887 -75.125 48.4375 C-75.11597656 49.35982422 -75.10695313 50.28214844 -75.09765625 51.23242188 C-75.07427829 53.48839498 -75.0384142 55.74423283 -75 58 C-78.3 58 -81.6 58 -85 58 C-87.93994105 44.03527999 -85.12914638 30.30431515 -78.01171875 18.0390625 C-69.48543916 5.15858576 -57.70307946 -3.54950956 -42.7421875 -7.61328125 C-27.11977017 -9.81644267 -13.84607655 -7.45557968 0 0 Z " fill="#C2842B" transform="translate(103,22)"/>
<path d="M0 0 C1.60546875 2.21484375 1.60546875 2.21484375 3.1875 4.9375 C3.71730469 5.83339844 4.24710937 6.72929688 4.79296875 7.65234375 C6 10 6 10 6 12 C-4.26531175 14.46750784 -14.40827787 16.34890901 -24.9375 17.25 C-25.85861572 17.32976074 -26.77973145 17.40952148 -27.72875977 17.49169922 C-52.38981294 19.39733606 -81.37632259 17.87455914 -105 10 C-105 9.34 -105 8.68 -105 8 C-104.08863281 8.13277344 -103.17726563 8.26554687 -102.23828125 8.40234375 C-72.06975456 12.51486928 -32.52748701 14.64400168 -4.734375 -0.2109375 C-3 -1 -3 -1 0 0 Z " fill="#E7181D" transform="translate(107,76)"/>
<path d="M0 0 C5.61 0.66 11.22 1.32 17 2 C15.16356746 6.59108135 13.29377399 9.27480847 10 12.75 C9.50725586 13.27440674 9.01451172 13.79881348 8.50683594 14.33911133 C-7.20027795 30.86986638 -28.79252524 43.97930684 -51 50 C-53.35546875 49.62109375 -53.35546875 49.62109375 -55 49 C-53.80375 48.505 -52.6075 48.01 -51.375 47.5 C-30.56342498 38.13805324 -12.06322977 23.28258791 -1 3 C-0.67 2.01 -0.34 1.02 0 0 Z " fill="#C18229" transform="translate(111,20)"/>
<path d="M0 0 C1.00353516 -0.01836914 1.00353516 -0.01836914 2.02734375 -0.03710938 C6.0530706 -0.04897301 9.16513634 0.32310923 12.75 2.1875 C14.75 4.1875 14.75 4.1875 15.25 7.875 C15.16718968 12.40472437 13.24979509 14.69979903 10.2578125 17.9375 C8.75 19.1875 8.75 19.1875 6.75 19.1875 C7.03875 19.81398438 7.3275 20.44046875 7.625 21.0859375 C7.99625 21.90320313 8.3675 22.72046875 8.75 23.5625 C9.12125 24.37460938 9.4925 25.18671875 9.875 26.0234375 C10.75 28.1875 10.75 28.1875 10.75 30.1875 C8.11 30.1875 5.47 30.1875 2.75 30.1875 C-0.25 24.5625 -0.25 24.5625 -0.25 21.1875 C-1.9 21.1875 -3.55 21.1875 -5.25 21.1875 C-5.91 24.1575 -6.57 27.1275 -7.25 30.1875 C-9.56 30.1875 -11.87 30.1875 -14.25 30.1875 C-13.58057519 23.72907198 -12.27951577 17.55597502 -10.75 11.25 C-10.52441406 10.29287109 -10.29882812 9.33574219 -10.06640625 8.34960938 C-8.24845777 0.77123835 -7.92304231 0.00746049 0 0 Z M-2.25 7.1875 C-2.58 9.4975 -2.91 11.8075 -3.25 14.1875 C2.03513335 14.65062039 2.03513335 14.65062039 6.8125 12.9375 C8.15475402 10.90276441 8.15475402 10.90276441 6.75 7.1875 C3.78 7.1875 0.81 7.1875 -2.25 7.1875 Z " fill="#505050" transform="translate(190.25,51.8125)"/>
<path d="M0 0 C2.39652528 -0.08139142 4.79025436 -0.14067009 7.1875 -0.1875 C7.86103516 -0.21263672 8.53457031 -0.23777344 9.22851562 -0.26367188 C13.70855667 -0.32923345 16.46037634 0.22395146 20 3 C22 6 22 6 22.0625 8.8125 C20.59835867 13.20492399 17.83643926 15.50144141 14 18 C13.34 18 12.68 18 12 18 C12.3609375 18.61488281 12.721875 19.22976562 13.09375 19.86328125 C13.5578125 20.67152344 14.021875 21.47976562 14.5 22.3125 C14.9640625 23.11300781 15.428125 23.91351563 15.90625 24.73828125 C17 27 17 27 17 30 C14.75 30 14.75 30 12 29 C9.94304343 26.00985547 8 22.686098 8 19 C5.03 19 2.06 19 -1 19 C-1.144375 20.44375 -1.28875 21.8875 -1.4375 23.375 C-1.875 27.75 -1.875 27.75 -3 30 C-4.32 30 -5.64 30 -7 30 C-5.89252734 23.25316 -4.49574014 16.59242525 -2.9375 9.9375 C-2.7631543 9.18734619 -2.58880859 8.43719238 -2.40917969 7.66430664 C-1.12507047 2.25014093 -1.12507047 2.25014093 0 0 Z M3 4 C1.80712589 7.87684087 1 10.91621923 1 15 C8.34866121 15.55459539 8.34866121 15.55459539 15.1875 13.3125 C17.22926589 11.12350706 17.22926589 11.12350706 17.3125 8.25 C17.209375 7.5075 17.10625 6.765 17 6 C13.78817851 4.09391902 11.46117397 3.77733753 7.75 3.875 C6.41195313 3.90207031 6.41195313 3.90207031 5.046875 3.9296875 C4.37140625 3.95289063 3.6959375 3.97609375 3 4 Z " fill="#585756" transform="translate(366,52)"/>
<path d="M0 0 C7.92 0 15.84 0 24 0 C23.67 2.31 23.34 4.62 23 7 C20.03 7 17.06 7 14 7 C13.89042969 7.73863281 13.78085938 8.47726563 13.66796875 9.23828125 C12.56144746 16.3182183 11.02896862 23.12855962 9 30 C6.69 30 4.38 30 2 30 C2.645477 22.09290669 4.86997139 14.60866033 7 7 C4.03 7 1.06 7 -2 7 C-1.34 4.69 -0.68 2.38 0 0 Z " fill="#50504F" transform="translate(210,52)"/>
<path d="M0 0 C1.134375 0.020625 2.26875 0.04125 3.4375 0.0625 C2.79232025 2.97931264 2.1463818 5.89595373 1.5 8.8125 C1.31759766 9.6375 1.13519531 10.4625 0.94726562 11.3125 C0.77001953 12.11171875 0.59277344 12.9109375 0.41015625 13.734375 C0.24781494 14.4675293 0.08547363 15.20068359 -0.08178711 15.95605469 C-0.54778616 17.99802511 -1.05451677 20.03056708 -1.5625 22.0625 C2.7275 22.3925 7.0175 22.7225 11.4375 23.0625 C11.1075 25.3725 10.7775 27.6825 10.4375 30.0625 C3.5075 30.0625 -3.4225 30.0625 -10.5625 30.0625 C-9.43636805 19.92731242 -9.43636805 19.92731242 -8.40625 15.84375 C-8.18839844 14.97492188 -7.97054687 14.10609375 -7.74609375 13.2109375 C-7.52050781 12.33695313 -7.29492188 11.46296875 -7.0625 10.5625 C-6.83691406 9.65757813 -6.61132812 8.75265625 -6.37890625 7.8203125 C-4.41412348 0.07744076 -4.41412348 0.07744076 0 0 Z " fill="#525251" transform="translate(161.5625,51.9375)"/>
<path d="M0 0 C1.32 0 2.64 0 4 0 C3.68917128 1.75029762 3.37626821 3.50022694 3.0625 5.25 C2.88847656 6.22453125 2.71445312 7.1990625 2.53515625 8.203125 C2.0959497 10.49854027 1.57833619 12.73749798 1 15 C3.22938605 13.25027888 5.45851504 11.50023195 7.6875 9.75 C8.31333984 9.25886719 8.93917969 8.76773438 9.58398438 8.26171875 C10.19951172 7.77832031 10.81503906 7.29492188 11.44921875 6.796875 C12.05685059 6.32314453 12.66448242 5.84941406 13.29052734 5.36132812 C14.79634813 4.16217693 16.25589152 2.90539902 17.70703125 1.640625 C20 0 20 0 24 0 C22.75619293 3.7314212 21.2196681 4.63190615 18.125 7 C15.25035616 9.21255386 12.4924909 11.35895004 10 14 C10.86625 15.48113281 10.86625 15.48113281 11.75 16.9921875 C12.500226 18.28632735 13.25021368 19.58060537 14 20.875 C14.3815625 21.52597656 14.763125 22.17695312 15.15625 22.84765625 C18 27.7734375 18 27.7734375 18 30 C15.73046875 30.375 15.73046875 30.375 13 30 C11.05078125 27.375 11.05078125 27.375 9.3125 24 C8.25534276 21.97475863 7.16202202 19.96694912 6 18 C3.79991832 17.82850141 3.79991832 17.82850141 1.5 19.5 C-1.86762139 22.86762139 -2.15036033 25.36560179 -3 30 C-4.32 30 -5.64 30 -7 30 C-6.35440084 23.70540816 -5.07366009 17.74878582 -3.5 11.625 C-3.27441406 10.72394531 -3.04882812 9.82289062 -2.81640625 8.89453125 C-1.1409337 2.2818674 -1.1409337 2.2818674 0 0 Z " fill="#5C5C5B" transform="translate(305,52)"/>
<path d="M0 0 C1.32 0 2.64 0 4 0 C10 23.23404255 10 23.23404255 10 30 C8.68 30 7.36 30 6 30 C5.34 27.69 4.68 25.38 4 23 C-4.95563044 21.84475458 -4.95563044 21.84475458 -12.96875 24.55859375 C-14.07265727 26.31706143 -15.04522698 28.15630037 -16 30 C-17.32 30 -18.64 30 -20 30 C-18.55535889 26.92236251 -16.84439625 24.21977379 -14.8828125 21.4453125 C-14.27566406 20.58292969 -13.66851562 19.72054687 -13.04296875 18.83203125 C-12.41003906 17.93871094 -11.77710938 17.04539062 -11.125 16.125 C-9.87699188 14.35720293 -8.62958098 12.58898407 -7.3828125 10.8203125 C-6.79274414 9.99047852 -6.20267578 9.16064453 -5.59472656 8.30566406 C-4.24974475 6.36108228 -3.02118849 4.39231085 -1.8046875 2.3671875 C-0.91136719 1.19542969 -0.91136719 1.19542969 0 0 Z M0 6 C-1.17232685 7.6209213 -2.3377077 9.24686833 -3.5 10.875 C-4.1496875 11.77992187 -4.799375 12.68484375 -5.46875 13.6171875 C-7.18020606 15.80835508 -7.18020606 15.80835508 -7 18 C-3.7 18 -0.4 18 3 18 C2.87625 16.576875 2.7525 15.15375 2.625 13.6875 C2.55539062 12.88699219 2.48578125 12.08648437 2.4140625 11.26171875 C2.10435574 8.72775559 2.10435574 8.72775559 0 6 Z " fill="#5A5958" transform="translate(283,52)"/>
<path d="M0 0 C1.32 0 2.64 0 4 0 C10 23.47572816 10 23.47572816 10 30 C8.68 30 7.36 30 6 30 C5.34 27.69 4.68 25.38 4 23 C-0.95 22.67 -5.9 22.34 -11 22 C-11.66 23.32 -12.32 24.64 -13 26 C-14.375 28.25 -14.375 28.25 -16 30 C-17.32 30 -18.64 30 -20 30 C-18.55535889 26.92236251 -16.84439625 24.21977379 -14.8828125 21.4453125 C-14.27566406 20.58292969 -13.66851562 19.72054687 -13.04296875 18.83203125 C-12.41003906 17.93871094 -11.77710938 17.04539062 -11.125 16.125 C-9.87699188 14.35720293 -8.62958098 12.58898407 -7.3828125 10.8203125 C-6.79274414 9.99047852 -6.20267578 9.16064453 -5.59472656 8.30566406 C-4.24974475 6.36108228 -3.02118849 4.39231085 -1.8046875 2.3671875 C-0.91136719 1.19542969 -0.91136719 1.19542969 0 0 Z M0 6 C-1.17232685 7.6209213 -2.3377077 9.24686833 -3.5 10.875 C-4.1496875 11.77992187 -4.799375 12.68484375 -5.46875 13.6171875 C-7.18020606 15.80835508 -7.18020606 15.80835508 -7 18 C-3.7 18 -0.4 18 3 18 C2.814375 15.586875 2.814375 15.586875 2.625 13.125 C2.55539062 12.22007813 2.48578125 11.31515625 2.4140625 10.3828125 C2.20431868 7.82058097 2.20431868 7.82058097 0 6 Z " fill="#3E4242" transform="translate(428,52)"/>
<path d="M0 0 C1.32 0 2.64 0 4 0 C10 23.47572816 10 23.47572816 10 30 C8.68 30 7.36 30 6 30 C5 28 5 28 5 22 C-0.28 22 -5.56 22 -11 22 C-11.99 24.475 -11.99 24.475 -13 27 C-14.375 28.8125 -14.375 28.8125 -16 30 C-17.32 30 -18.64 30 -20 30 C-20 29.34 -20 28.68 -20 28 C-19.34 28 -18.68 28 -18 28 C-17.73050537 27.26265625 -17.46101074 26.5253125 -17.18334961 25.765625 C-16.04286029 23.10016946 -14.78489011 21.07249344 -13.06640625 18.75 C-12.49986328 17.9765625 -11.93332031 17.203125 -11.34960938 16.40625 C-10.75986328 15.6121875 -10.17011719 14.818125 -9.5625 14 C-8.39528416 12.4180309 -7.22986523 10.83473413 -6.06640625 9.25 C-5.52258301 8.51394531 -4.97875977 7.77789062 -4.41845703 7.01953125 C-2.86232074 4.88649505 -2.86232074 4.88649505 -1.33984375 1.9375 C-0.89769531 1.298125 -0.45554687 0.65875 0 0 Z M0 6 C-1.22727981 7.59516944 -2.40706505 9.22704632 -3.5625 10.875 C-4.20316406 11.77992187 -4.84382813 12.68484375 -5.50390625 13.6171875 C-7.17724832 15.81337567 -7.17724832 15.81337567 -7 18 C-3.37 18 0.26 18 4 18 C3.01 14.04 2.02 10.08 1 6 C0.67 6 0.34 6 0 6 Z " fill="#666665" transform="translate(344,52)"/>
<path d="M0 0 C7.59 0 15.18 0 23 0 C23 1.32 23 2.64 23 4 C19.7 4 16.4 4 13 4 C12.73445313 5.2065625 12.46890625 6.413125 12.1953125 7.65625 C11.83859941 9.27084609 11.48182532 10.88542871 11.125 12.5 C10.95097656 13.29148437 10.77695312 14.08296875 10.59765625 14.8984375 C9.47864527 19.95470933 8.27766555 24.98142181 7 30 C5.68 30 4.36 30 3 30 C3.61419174 21.40131562 5.80907021 13.30515248 8 5 C5.03 5 2.06 5 -1 5 C-0.67 3.35 -0.34 1.7 0 0 Z " fill="#5C5A59" transform="translate(393,52)"/>
<path d="M0 0 C1.32 0 2.64 0 4 0 C0.69957846 21.66987297 0.69957846 21.66987297 -6 29 C-9.17746491 30.58873246 -12.54012202 30.41026221 -16 30 C-18.5 28.5 -18.5 28.5 -20 27 C-19.67 25.68 -19.34 24.36 -19 23 C-18.01 23 -17.02 23 -16 23 C-15.67 23.66 -15.34 24.32 -15 25 C-10.9317231 25.41460771 -10.9317231 25.41460771 -7.38525391 23.77563477 C-5.7359526 21.66154093 -5.25198186 20.00931286 -4.6484375 17.40234375 C-4.43703125 16.51869141 -4.225625 15.63503906 -4.0078125 14.72460938 C-3.79898437 13.80486328 -3.59015625 12.88511719 -3.375 11.9375 C-2.9471675 10.11284531 -2.51756529 8.28860438 -2.0859375 6.46484375 C-1.9007959 5.656521 -1.7156543 4.84819824 -1.52490234 4.01538086 C-1 2 -1 2 0 0 Z " fill="#515252" transform="translate(263,52)"/>
<path d="M0 0 C13.21243649 -0.39051536 13.21243649 -0.39051536 19 2 C21 5 21 5 21.0625 7.8125 C19.59835867 12.20492399 16.83643926 14.50144141 13 17 C12.34 17 11.68 17 11 17 C11.3609375 17.61488281 11.721875 18.22976562 12.09375 18.86328125 C12.5578125 19.67152344 13.021875 20.47976562 13.5 21.3125 C13.9640625 22.11300781 14.428125 22.91351563 14.90625 23.73828125 C16 26 16 26 16 29 C13.6875 28.875 13.6875 28.875 11 28 C9.0625 25.3125 9.0625 25.3125 8 22 C8.875 18.75 8.875 18.75 10 16 C9.67 15.34 9.34 14.68 9 14 C9.99 13.443125 10.98 12.88625 12 12.3125 C12.99 11.549375 13.98 10.78625 15 10 C15.25041448 7.40310329 15.25041448 7.40310329 15 5 C13.62714844 4.80083984 13.62714844 4.80083984 12.2265625 4.59765625 C11.03804688 4.42105469 9.84953125 4.24445312 8.625 4.0625 C6.84996094 3.80146484 6.84996094 3.80146484 5.0390625 3.53515625 C2 3 2 3 0 2 C0 1.34 0 0.68 0 0 Z " fill="#515251" transform="translate(367,53)"/>
<path d="M0 0 C1.32 0 2.64 0 4 0 C6.42857143 7.42857143 6.42857143 7.42857143 5 11 C5 10.01 5 9.02 5 8 C4.34 8 3.68 8 3 8 C3 9.65 3 11.3 3 13 C2.67 13 2.34 13 2 13 C1.67 11.35 1.34 9.7 1 8 C-1.57939515 10.50774529 -3.9764106 12.96967077 -6.1875 15.8125 C-6.785625 16.534375 -7.38375 17.25625 -8 18 C-8.66 18 -9.32 18 -10 18 C-10.2475 19.051875 -10.495 20.10375 -10.75 21.1875 C-11.8010328 24.82910659 -13.24124855 27.3223883 -16 30 C-17.32 30 -18.64 30 -20 30 C-18.55535889 26.92236251 -16.84439625 24.21977379 -14.8828125 21.4453125 C-14.27566406 20.58292969 -13.66851562 19.72054687 -13.04296875 18.83203125 C-12.41003906 17.93871094 -11.77710938 17.04539062 -11.125 16.125 C-9.87699188 14.35720293 -8.62958098 12.58898407 -7.3828125 10.8203125 C-6.79274414 9.99047852 -6.20267578 9.16064453 -5.59472656 8.30566406 C-4.24974475 6.36108228 -3.02118849 4.39231085 -1.8046875 2.3671875 C-0.91136719 1.19542969 -0.91136719 1.19542969 0 0 Z " fill="#666664" transform="translate(428,52)"/>
<path d="M0 0 C0.66 0 1.32 0 2 0 C3.95979369 2.93969054 4.48320069 4.55022586 5.125 7.9375 C5.29257812 8.79214844 5.46015625 9.64679688 5.6328125 10.52734375 C6 13 6 13 6 17 C4.68 17 3.36 17 2 17 C1 15 1 15 1 9 C-4.28 9 -9.56 9 -15 9 C-15.66 10.65 -16.32 12.3 -17 14 C-18.375 15.8125 -18.375 15.8125 -20 17 C-21.32 17 -22.64 17 -24 17 C-24 16.34 -24 15.68 -24 15 C-23.34 15 -22.68 15 -22 15 C-21.7525 14.278125 -21.505 13.55625 -21.25 12.8125 C-19.86858872 9.70432462 -18.33146746 7.47276852 -16 5 C-15.01 5 -14.02 5 -13 5 C-13 5.66 -13 6.32 -13 7 C-8.71 7 -4.42 7 0 7 C0 4.69 0 2.38 0 0 Z " fill="#434646" transform="translate(348,65)"/>
<path d="M0 0 C1.32 0 2.64 0 4 0 C4.53251766 1.91345327 5.05059483 3.8309295 5.5625 5.75 C5.85253906 6.81734375 6.14257812 7.8846875 6.44140625 8.984375 C6.97098494 11.84335927 6.98370862 13.31597383 6 16 C6 15.01 6 14.02 6 13 C5.34 13 4.68 13 4 13 C4 14.98 4 16.96 4 19 C3.22914063 18.98839844 2.45828125 18.97679688 1.6640625 18.96484375 C0.66117187 18.95582031 -0.34171875 18.94679688 -1.375 18.9375 C-2.87160156 18.92009766 -2.87160156 18.92009766 -4.3984375 18.90234375 C-6.98432453 18.81993398 -6.98432453 18.81993398 -9 20 C-9.99 19.67 -10.98 19.34 -12 19 C-10.33676113 15.40497848 -8.21165421 12.21839145 -6 8.9375 C-4.948125 7.37322266 -4.948125 7.37322266 -3.875 5.77734375 C-2.946875 4.40255859 -2.946875 4.40255859 -2 3 C-1.34 2.01 -0.68 1.02 0 0 Z M0 6 C-1.17232685 7.6209213 -2.3377077 9.24686833 -3.5 10.875 C-4.1496875 11.77992187 -4.799375 12.68484375 -5.46875 13.6171875 C-7.18020606 15.80835508 -7.18020606 15.80835508 -7 18 C-3.7 18 -0.4 18 3 18 C2.87625 16.576875 2.7525 15.15375 2.625 13.6875 C2.55539062 12.88699219 2.48578125 12.08648437 2.4140625 11.26171875 C2.10435574 8.72775559 2.10435574 8.72775559 0 6 Z " fill="#5F6060" transform="translate(283,52)"/>
<path d="M0 0 C0.66 0.66 1.32 1.32 2 2 C0.35 3.98 -1.3 5.96 -3 8 C-2.34 8.33 -1.68 8.66 -1 9 C-26.74757198 21.35741007 -26.74757198 21.35741007 -31.36328125 20.625 C-31.90339844 20.41875 -32.44351563 20.2125 -33 20 C-31.80375 19.505 -30.6075 19.01 -29.375 18.5 C-18.59748577 13.67982041 -8.92922659 7.73591981 0 0 Z " fill="#C48835" transform="translate(89,49)"/>
<path d="M0 0 C1.00417969 0.13277344 2.00835937 0.26554687 3.04296875 0.40234375 C11.68422258 1.52494279 20.30073962 2.43395224 29 3 C28.01 3.66 27.02 4.32 26 5 C28.97 5.495 28.97 5.495 32 6 C32 6.33 32 6.66 32 7 C21.02694404 6.6059944 10.6749111 4.42355426 0 2 C0 1.34 0 0.68 0 0 Z " fill="#EA4732" transform="translate(2,84)"/>
<path d="M0 0 C1.32 0 2.64 0 4 0 C2.89309248 6.40593286 1.66054831 12.71363856 0 19 C-0.66 18.01 -1.32 17.02 -2 16 C-2.66 16.66 -3.32 17.32 -4 18 C-3.41632611 11.69632197 -1.95928381 6.01339937 0 0 Z " fill="#474A4A" transform="translate(263,52)"/>
<path d="M0 0 C0 1.32 0 2.64 0 4 C-8.07029553 4.11547323 -15.97667603 3.90041311 -24 3 C-24 2.34 -24 1.68 -24 1 C-21.50018262 0.8301095 -19.00020399 0.66402047 -16.5 0.5 C-15.80390625 0.45230469 -15.1078125 0.40460938 -14.390625 0.35546875 C-9.58304475 0.04386633 -4.81771254 -0.04340282 0 0 Z " fill="#EB483D" transform="translate(58,77)"/>
<path d="M0 0 C6.70518586 -0.19818283 12.65176798 -0.30844801 19 2 C19 3.98 19 5.96 19 8 C18.01 8.495 18.01 8.495 17 9 C17 7.68 17 6.36 17 5 C15.41058594 4.80083984 15.41058594 4.80083984 13.7890625 4.59765625 C12.40101721 4.41946125 11.01299769 4.2410654 9.625 4.0625 C8.92632812 3.97548828 8.22765625 3.88847656 7.5078125 3.79882812 C2.2265625 3.11328125 2.2265625 3.11328125 0 2 C0 1.34 0 0.68 0 0 Z " fill="#4A4B4A" transform="translate(367,53)"/>
<path d="M0 0 C1.32 0 2.64 0 4 0 C3.71617054 1.75128818 3.42260471 3.50100003 3.125 5.25 C2.96257812 6.22453125 2.80015625 7.1990625 2.6328125 8.203125 C2.05144152 10.77264117 1.29159735 12.72071056 0 15 C-0.33 14.01 -0.66 13.02 -1 12 C-1.66 12.66 -2.32 13.32 -3 14 C-2.48594831 9.03083364 -1.76615118 4.70973649 0 0 Z " fill="#5A5A59" transform="translate(305,52)"/>
<path d="M0 0 C0.66 0 1.32 0 2 0 C2.33 2.64 2.66 5.28 3 8 C-3.27 8 -9.54 8 -16 8 C-16 7.34 -16 6.68 -16 6 C-10.72 6 -5.44 6 0 6 C0 4.02 0 2.04 0 0 Z " fill="#3D4141" transform="translate(287,65)"/>
<path d="M0 0 C0.66 0.33 1.32 0.66 2 1 C0.58474822 2.58459815 -0.8322642 4.16762391 -2.25 5.75 C-3.03890625 6.63171875 -3.8278125 7.5134375 -4.640625 8.421875 C-6.70592672 10.67866165 -8.81735064 12.85739926 -11 15 C-11.99 14.67 -12.98 14.34 -14 14 C-12.60919892 12.41224451 -11.21211596 10.82999061 -9.8125 9.25 C-8.64654297 7.92742188 -8.64654297 7.92742188 -7.45703125 6.578125 C-5.11544754 4.12113732 -2.69841735 2.05137234 0 0 Z " fill="#C58A39" transform="translate(41,23)"/>
<path d="M0 0 C0.57363281 0.37382813 1.14726563 0.74765625 1.73828125 1.1328125 C-1.58628236 3.34918824 -5.01963299 4.82096068 -8.69921875 6.3203125 C-9.36759766 6.60583984 -10.03597656 6.89136719 -10.72460938 7.18554688 C-15.68936472 9.2078605 -15.68936472 9.2078605 -18.734375 8.80859375 C-19.23839844 8.58558594 -19.74242187 8.36257812 -20.26171875 8.1328125 C-19.71644531 7.90207031 -19.17117187 7.67132813 -18.609375 7.43359375 C-13.57692216 5.25716543 -8.93104792 2.84003511 -4.3046875 -0.109375 C-2.26171875 -0.8671875 -2.26171875 -0.8671875 0 0 Z " fill="#C99143" transform="translate(76.26171875,60.8671875)"/>
<path d="M0 0 C0 0.66 0 1.32 0 2 C0.66 2 1.32 2 2 2 C2.33 3.65 2.66 5.3 3 7 C2.21625 6.835 1.4325 6.67 0.625 6.5 C-2.66834196 5.87269677 -4.79559043 6.14549078 -8 7 C-7.62005832 4.24542282 -7.1926367 3.17979426 -5.125 1.25 C-3 0 -3 0 0 0 Z " fill="#545555" transform="translate(313,64)"/>
<path d="M0 0 C2.4377963 -0.05397335 4.87439685 -0.09365616 7.3125 -0.125 C8.00279297 -0.14175781 8.69308594 -0.15851562 9.40429688 -0.17578125 C13.17135396 -0.21217794 14.78431704 -0.14378864 18 2 C12.39 1.67 6.78 1.34 1 1 C1 1.66 1 2.32 1 3 C1.66 3 2.32 3 3 3 C2.67 5.64 2.34 8.28 2 11 C1.34 10.01 0.68 9.02 0 8 C-0.66 8.66 -1.32 9.32 -2 10 C-1.125 2.25 -1.125 2.25 0 0 Z " fill="#6D6967" transform="translate(366,52)"/>
<path d="M0 0 C0.33 0 0.66 0 1 0 C1.42722116 4.27221159 1.39896684 7.04325808 -1.25 10.4375 C-4 13 -4 13 -8 13 C-6.53400783 9.91220974 -4.82973607 7.09532795 -2.9375 4.25 C-2.41027344 3.45078125 -1.88304687 2.6515625 -1.33984375 1.828125 C-0.89769531 1.22484375 -0.45554687 0.6215625 0 0 Z " fill="#636564" transform="translate(416,69)"/>
<path d="M0 0 C0.33 0 0.66 0 1 0 C1.33820166 1.5823006 1.67035939 3.16589375 2 4.75 C2.185625 5.63171875 2.37125 6.5134375 2.5625 7.421875 C3 10 3 10 3 14 C1.68 14 0.36 14 -1 14 C-1.66 11.36 -2.32 8.72 -3 6 C-2.34 6 -1.68 6 -1 6 C-0.67 4.02 -0.34 2.04 0 0 Z " fill="#545555" transform="translate(435,68)"/>
<path d="M0 0 C0.33 0 0.66 0 1 0 C1.47181905 3.96328 1.17601286 6.25902018 -1.25 9.375 C-4 12 -4 12 -8 12 C-8 11.34 -8 10.68 -8 10 C-7.34 10 -6.68 10 -6 10 C-5.7525 9.278125 -5.505 8.55625 -5.25 7.8125 C-3.88449106 4.74010488 -2.22300052 2.50983929 0 0 Z " fill="#626463" transform="translate(332,70)"/>
<path d="M0 0 C0.33 0 0.66 0 1 0 C1.36504603 1.58086048 1.71660506 3.16483907 2.0625 4.75 C2.25972656 5.63171875 2.45695312 6.5134375 2.66015625 7.421875 C2.99825872 9.98679028 2.81158635 11.57091639 2 14 C2 13.01 2 12.02 2 11 C1.34 11 0.68 11 0 11 C0 12.98 0 14.96 0 17 C-3.63 17 -7.26 17 -11 17 C-11 16.67 -11 16.34 -11 16 C-7.7 16 -4.4 16 -1 16 C-1.33 13.03 -1.66 10.06 -2 7 C-1.67 7.66 -1.34 8.32 -1 9 C-0.34 9 0.32 9 1 9 C0.67 8.34 0.34 7.68 0 7 C-0.04022391 4.6670134 -0.04320247 2.33293334 0 0 Z " fill="#7B7774" transform="translate(287,54)"/>
<path d="M0 0 C0.66 1.32 1.32 2.64 2 4 C1.26708288 5.1774734 0.51296199 6.34176854 -0.25 7.5 C-0.66765625 8.1496875 -1.0853125 8.799375 -1.515625 9.46875 C-2.00546875 9.9740625 -2.4953125 10.479375 -3 11 C-4.32 11 -5.64 11 -7 11 C-5.22054913 6.95579349 -2.60470327 3.53921513 0 0 Z " fill="#606161" transform="translate(270,71)"/>
<path d="M0 0 C0.33 0 0.66 0 1 0 C1.2954439 5.02254631 0.98514628 7.89542386 -2 12 C-2.99 11.67 -3.98 11.34 -5 11 C-4.34 8.36 -3.68 5.72 -3 3 C-2.34 3 -1.68 3 -1 3 C-0.67 2.01 -0.34 1.02 0 0 Z " fill="#4E5050" transform="translate(261,67)"/>
<path d="M0 0 C0.33 0.99 0.66 1.98 1 3 C1.66 3 2.32 3 3 3 C3.125 8.75 3.125 8.75 2 11 C0.68 11 -0.64 11 -2 11 C-1.34 7.37 -0.68 3.74 0 0 Z " fill="#656260" transform="translate(361,71)"/>
<path d="M0 0 C2 2 2 2 2 6 C-2.62 6 -7.24 6 -12 6 C-11.67 5.34 -11.34 4.68 -11 4 C-7.37 4 -3.74 4 0 4 C0 2.68 0 1.36 0 0 Z " fill="#716E6C" transform="translate(431,66)"/>
<path d="M0 0 C1.32 0 2.64 0 4 0 C4.33 3.63 4.66 7.26 5 11 C4.34 11 3.68 11 3 11 C2.67 9.02 2.34 7.04 2 5 C1.34 5 0.68 5 0 5 C0 3.35 0 1.7 0 0 Z " fill="#474A4A" transform="translate(283,52)"/>
<path d="M0 0 C3.96 0 7.92 0 12 0 C11.34 1.65 10.68 3.3 10 5 C9.34 5 8.68 5 8 5 C8 4.01 8 3.02 8 2 C5.36 2 2.72 2 0 2 C0 1.34 0 0.68 0 0 Z " fill="#3B4041" transform="translate(366,68)"/>
<path d="M0 0 C0.33 0.99 0.66 1.98 1 3 C-0.75 6.1875 -0.75 6.1875 -3 9 C-3.99 9 -4.98 9 -6 9 C-6 5.37546731 -5.07530387 3.92079805 -3 1 C-2.01 0.67 -1.02 0.34 0 0 Z " fill="#565959" transform="translate(424,61)"/>
<path d="M0 0 C5.28 0.66 10.56 1.32 16 2 C16 2.33 16 2.66 16 3 C9.93179132 4.08360869 5.89893243 3.79074734 0 2 C0 1.34 0 0.68 0 0 Z " fill="#EE7754" transform="translate(2,84)"/>
<path d="M0 0 C0.66 0.66 1.32 1.32 2 2 C1.625 5.125 1.625 5.125 1 8 C-2.75 9.125 -2.75 9.125 -5 8 C-4.34 6.02 -3.68 4.04 -3 2 C-2.34 2.66 -1.68 3.32 -1 4 C-0.67 2.68 -0.34 1.36 0 0 Z " fill="#646261" transform="translate(386,56)"/>
<path d="M0 0 C0.33 0 0.66 0 1 0 C1.33 2.97 1.66 5.94 2 9 C0.68 9 -0.64 9 -2 9 C-3.35439668 6.29120665 -3.06501451 3.99066732 -3 1 C-2.34 2.32 -1.68 3.64 -1 5 C-0.67 3.35 -0.34 1.7 0 0 Z " fill="#696664" transform="translate(352,73)"/>
<path d="M0 0 C2.31 0 4.62 0 7 0 C7.98120464 3.05263664 7.98120464 4.94736336 7 8 C6.67 6.68 6.34 5.36 6 4 C5.34 4 4.68 4 4 4 C4 3.34 4 2.68 4 2 C2.68 1.34 1.36 0.68 0 0 Z " fill="#3E4242" transform="translate(378,54)"/>
<path d="M0 0 C1.32 0 2.64 0 4 0 C4.33 1.98 4.66 3.96 5 6 C4.01 6.33 3.02 6.66 2 7 C2 6.01 2 5.02 2 4 C1.34 4 0.68 4 0 4 C0 2.68 0 1.36 0 0 Z " fill="#525353" transform="translate(428,52)"/>
<path d="M0 0 C2.64 0 5.28 0 8 0 C8 1.32 8 2.64 8 4 C4.7 4 1.4 4 -2 4 C-2 3.67 -2 3.34 -2 3 C-0.35 2.67 1.3 2.34 3 2 C2.01 1.34 1.02 0.68 0 0 Z " fill="#EC594A" transform="translate(50,77)"/>
<path d="M0 0 C1 2 1 2 0.0625 5.125 C-0.288125 6.07375 -0.63875 7.0225 -1 8 C-1.99 7.67 -2.98 7.34 -4 7 C-4 5.02 -4 3.04 -4 1 C-2.68 0.67 -1.36 0.34 0 0 Z " fill="#525353" transform="translate(406,54)"/>
<path d="M0 0 C0.66 0 1.32 0 2 0 C4 3 4 3 4 6 C2.35 5.67 0.7 5.34 -1 5 C-0.67 3.35 -0.34 1.7 0 0 Z " fill="#595A5A" transform="translate(379,76)"/>
<path d="M0 0 C0.33 0 0.66 0 1 0 C1.33 2.97 1.66 5.94 2 9 C1.67 8.34 1.34 7.68 1 7 C0.34 7 -0.32 7 -1 7 C-1.33 8.32 -1.66 9.64 -2 11 C-2.33 8.03 -2.66 5.06 -3 2 C-2.01 3.485 -2.01 3.485 -1 5 C-0.67 3.35 -0.34 1.7 0 0 Z " fill="#716C6B" transform="translate(349,58)"/>
<path d="M0 0 C0.33 0.66 0.66 1.32 1 2 C1.66 2.33 2.32 2.66 3 3 C1.02 4.32 -0.96 5.64 -3 7 C-3 6.34 -3 5.68 -3 5 C-3.66 4.67 -4.32 4.34 -5 4 C-3.35 2.68 -1.7 1.36 0 0 Z " fill="#616160" transform="translate(316,59)"/>
<path d="M0 0 C0.66 1.32 1.32 2.64 2 4 C1.01 4.66 0.02 5.32 -1 6 C-1.99 5.67 -2.98 5.34 -4 5 C-3.34 5 -2.68 5 -2 5 C-2 4.34 -2 3.68 -2 3 C-2.99 3.33 -3.98 3.66 -5 4 C-5.66 3.34 -6.32 2.68 -7 2 C-4.69 1.34 -2.38 0.68 0 0 Z " fill="#646160" transform="translate(256,76)"/>
<path d="M0 0 C0.33 0 0.66 0 1 0 C1.41176754 3.60296594 1.1535853 4.78402067 -1 7.8125 C-1.66 8.534375 -2.32 9.25625 -3 10 C-3 7.69 -3 5.38 -3 3 C-2.34 3 -1.68 3 -1 3 C-0.67 2.01 -0.34 1.02 0 0 Z " fill="#454848" transform="translate(304,63)"/>
<path d="M0 0 C0.99 0.66 1.98 1.32 3 2 C1.75579353 2.5345256 0.50429064 3.05208611 -0.75 3.5625 C-1.44609375 3.85253906 -2.1421875 4.14257812 -2.859375 4.44140625 C-5.30012784 5.07831803 -6.6403655 4.80248831 -9 4 C-7.57086153 3.27494442 -6.13129342 2.57041565 -4.6875 1.875 C-3.88699219 1.48054688 -3.08648437 1.08609375 -2.26171875 0.6796875 C-1.51535156 0.45539063 -0.76898438 0.23109375 0 0 Z " fill="#DAB276" transform="translate(65,65)"/>
<path d="M0 0 C0.33 0.99 0.66 1.98 1 3 C1.66 3 2.32 3 3 3 C3.33 2.34 3.66 1.68 4 1 C3.67 3.64 3.34 6.28 3 9 C2.34 8.01 1.68 7.02 1 6 C0.34 6.66 -0.32 7.32 -1 8 C-0.67 5.36 -0.34 2.72 0 0 Z " fill="#696664" transform="translate(303,58)"/>
<path d="M0 0 C0.33 0.66 0.66 1.32 1 2 C2.32 2 3.64 2 5 2 C5.33 1.34 5.66 0.68 6 0 C6.66 1.32 7.32 2.64 8 4 C5.36 4 2.72 4 0 4 C0 2.68 0 1.36 0 0 Z " fill="#5E5E5D" transform="translate(193,78)"/>
<path d="M0 0 C0.33 0 0.66 0 1 0 C1.33 2.97 1.66 5.94 2 9 C1.67 8.34 1.34 7.68 1 7 C0.34 7 -0.32 7 -1 7 C-1 8.65 -1 10.3 -1 12 C-1.33 12 -1.66 12 -2 12 C-2.33 10.02 -2.66 8.04 -3 6 C-2.34 6 -1.68 6 -1 6 C-0.67 4.02 -0.34 2.04 0 0 Z " fill="#6B6765" transform="translate(435,68)"/>
<path d="M0 0 C0.66 0 1.32 0 2 0 C2 0.66 2 1.32 2 2 C2.66 2 3.32 2 4 2 C4.33 3.65 4.66 5.3 5 7 C4.01 6.67 3.02 6.34 2 6 C1.67 5.01 1.34 4.02 1 3 C0.34 2.67 -0.32 2.34 -1 2 C-0.67 1.34 -0.34 0.68 0 0 Z " fill="#414545" transform="translate(311,64)"/>
<path d="M0 0 C0.33 1.32 0.66 2.64 1 4 C1.66 4 2.32 4 3 4 C3.33 3.34 3.66 2.68 4 2 C3.67 4.31 3.34 6.62 3 9 C2.34 8.01 1.68 7.02 1 6 C0.34 6.66 -0.32 7.32 -1 8 C-0.67 5.36 -0.34 2.72 0 0 Z " fill="#736E6C" transform="translate(260,62)"/>
<path d="M0 0 C1.32 0 2.64 0 4 0 C3.67 2.31 3.34 4.62 3 7 C2.34 5.68 1.68 4.36 1 3 C0.34 3.99 -0.32 4.98 -1 6 C-0.67 4.02 -0.34 2.04 0 0 Z " fill="#75716F" transform="translate(263,52)"/>
<path d="M0 0 C0.33 0 0.66 0 1 0 C1 2.64 1 5.28 1 8 C0.01 7.67 -0.98 7.34 -2 7 C-1.125 1.125 -1.125 1.125 0 0 Z " fill="#434647" transform="translate(401,66)"/>
<path d="M0 0 C0.33 0.99 0.66 1.98 1 3 C-0.4375 5.1875 -0.4375 5.1875 -2 7 C-2 6.34 -2 5.68 -2 5 C-2.66 5 -3.32 5 -4 5 C-2.25 1.125 -2.25 1.125 0 0 Z " fill="#4F5252" transform="translate(337,65)"/>
<path d="M0 0 C3.96 0.33 7.92 0.66 12 1 C12 1.33 12 1.66 12 2 C6.06 2.495 6.06 2.495 0 3 C0 2.01 0 1.02 0 0 Z " fill="#CD994D" transform="translate(111,20)"/>
<path d="M0 0 C0.33 0 0.66 0 1 0 C1 1.98 1 3.96 1 6 C-0.32 6 -1.64 6 -3 6 C-3 5.01 -3 4.02 -3 3 C-2.34 3 -1.68 3 -1 3 C-0.67 2.01 -0.34 1.02 0 0 Z " fill="#595A5A" transform="translate(362,76)"/>
<path d="M0 0 C0.66 0 1.32 0 2 0 C3.42944945 2.35438733 4.08661261 3.48032433 3.625 6.25 C3.41875 6.8275 3.2125 7.405 3 8 C3 7.01 3 6.02 3 5 C2.01 5.33 1.02 5.66 0 6 C0 4.02 0 2.04 0 0 Z " fill="#4A4C4C" transform="translate(431,60)"/>
<path d="M0 0 C2.1519437 3.22791555 2.20086443 4.28400809 2 8 C1.01 8.495 1.01 8.495 0 9 C-1.125 2.25 -1.125 2.25 0 0 Z " fill="#383D3E" transform="translate(347,55)"/>
</svg>
