<?xml version="1.0" encoding="UTF-8"?>
<svg version="1.1" xmlns="http://www.w3.org/2000/svg" width="2771" height="707">
<path d="M0 0 C914.43 0 1828.86 0 2771 0 C2771 233.31 2771 466.62 2771 707 C1856.57 707 942.14 707 0 707 C0 473.69 0 240.38 0 0 Z " fill="#006436" transform="translate(0,0)"/>
<path d="M0 0 C0.9356781 -0.00637985 1.8713562 -0.0127597 2.83538818 -0.01933289 C4.36174896 -0.02100212 4.36174896 -0.02100212 5.91894531 -0.02270508 C6.97051819 -0.02603348 8.02209106 -0.02936188 9.10552979 -0.03279114 C11.34167035 -0.03786529 13.57781852 -0.04019931 15.81396484 -0.04003906 C19.19153923 -0.04220079 22.56877361 -0.06028188 25.94628906 -0.0793457 C36.9717625 -0.10858814 47.64785413 -0.02201939 58.49707031 2.14526367 C59.21846191 2.2806958 59.93985352 2.41612793 60.68310547 2.55566406 C93.27395376 9.14606898 125.34022458 24.42295184 150.49707031 46.14526367 C151.26535156 46.80397461 152.03363281 47.46268555 152.82519531 48.14135742 C169.75561341 63.02374107 182.98026308 78.8257039 194.49707031 98.14526367 C194.89313477 98.79897949 195.28919922 99.45269531 195.69726562 100.1262207 C201.50559502 109.75480968 205.93485474 119.52541459 209.74023438 130.10083008 C210.39829002 131.87842943 211.12549106 133.63013213 211.86425781 135.37573242 C218.79590373 152.3604176 221.23427706 172.4402362 221.46191406 190.72436523 C221.50265928 193.53012651 221.59673215 196.33277879 221.68457031 199.13745117 C222.06866075 215.65706887 221.78741806 233.62855227 215.49707031 249.14526367 C215.22894531 250.42401367 214.96082031 251.70276367 214.68457031 253.02026367 C208.03332254 283.92298409 189.91806525 311.61742957 169.49707031 335.14526367 C168.43408998 336.43653508 167.37148883 337.72811891 166.30957031 339.02026367 C163.04664234 342.79936104 159.30325584 345.92947656 155.49707031 349.14526367 C154.10875 350.38276367 154.10875 350.38276367 152.69238281 351.64526367 C138.83772405 363.90054222 123.18623849 372.77657188 106.70410156 381.03686523 C104.97023636 381.90763382 103.24713352 382.79983583 101.52832031 383.69995117 C92.59625872 388.13698177 82.74698352 390.59559192 73.19970703 393.3581543 C70.91827355 394.02259346 68.64642239 394.71016924 66.37597656 395.41088867 C41.08597108 402.83446093 2.00838901 405.82641123 -22.50292969 395.14526367 C-24.66240783 394.67355948 -26.83016756 394.23891072 -29.00292969 393.83276367 C-36.1980152 392.34256814 -42.73295437 389.95807922 -49.50292969 387.14526367 C-51.23135648 386.45590568 -52.96047157 385.7682697 -54.69042969 385.08276367 C-55.49480469 384.7553418 -56.29917969 384.42791992 -57.12792969 384.09057617 C-58.67923002 383.47311782 -60.24183524 382.8831519 -61.81542969 382.32495117 C-100.20003262 368.3095205 -136.99385663 331.51542473 -154.50292969 295.14526367 C-154.50292969 294.48526367 -154.50292969 293.82526367 -154.50292969 293.14526367 C-155.16292969 293.14526367 -155.82292969 293.14526367 -156.50292969 293.14526367 C-158.17838693 289.14888614 -159.8416864 285.14756739 -161.50292969 281.14526367 C-161.83679687 280.35635742 -162.17066406 279.56745117 -162.51464844 278.75463867 C-164.82713995 273.17343552 -166.81132406 267.4887613 -168.75292969 261.77026367 C-169.02355225 260.98441895 -169.2941748 260.19857422 -169.57299805 259.38891602 C-169.82315674 258.64077637 -170.07331543 257.89263672 -170.33105469 257.12182617 C-170.55696289 256.45231934 -170.78287109 255.7828125 -171.015625 255.09301758 C-171.50292969 253.14526367 -171.50292969 253.14526367 -171.50292969 249.14526367 C-172.16292969 249.14526367 -172.82292969 249.14526367 -173.50292969 249.14526367 C-178.27247594 232.64263364 -178.83307419 216.21836404 -178.76367188 199.16674805 C-178.7528268 195.99012696 -178.76369586 192.81405658 -178.77636719 189.63745117 C-178.77504744 187.59578327 -178.77248889 185.55411571 -178.76855469 183.51245117 C-178.77462738 182.10453812 -178.77462738 182.10453812 -178.78082275 180.66818237 C-178.74365834 175.44765119 -178.11356805 171.15836613 -176.50292969 166.14526367 C-176.1678592 164.10521855 -175.86790494 162.05907413 -175.60449219 160.00854492 C-174.60784973 153.24008474 -172.91535078 146.85595609 -170.87792969 140.33276367 C-170.52891602 139.20491455 -170.17990234 138.07706543 -169.8203125 136.91503906 C-167.28175911 128.97836666 -164.20882639 121.63837975 -160.22949219 114.32885742 C-158.84942614 111.7841655 -157.69615799 109.32581788 -156.62792969 106.64526367 C-149.60220627 90.49842565 -137.53815116 75.78313246 -125.50292969 63.14526367 C-124.9436377 62.55342285 -124.3843457 61.96158203 -123.80810547 61.35180664 C-114.43299162 51.49037565 -104.71372301 42.85950767 -93.50292969 35.14526367 C-92.90770508 34.73195801 -92.31248047 34.31865234 -91.69921875 33.89282227 C-83.33735082 28.14024888 -74.59714706 23.49242267 -65.45800781 19.10375977 C-63.55159311 18.16912139 -61.6743044 17.19293795 -59.79980469 16.19604492 C-53.48718933 12.86015199 -47.51678712 10.34179299 -40.52246094 8.82495117 C-34.07554828 7.37377031 -27.72083359 5.31311914 -21.51074219 3.05932617 C-18.35332039 2.09979799 -15.54135119 1.77692926 -12.25292969 1.58276367 C-7.91501667 1.31838838 -4.2983866 0.01988875 0 0 Z " fill="#FEFEFE" transform="translate(2057.5029296875,153.854736328125)"/>
<path d="M0 0 C0.86193466 -0.00817749 1.72386932 -0.01635498 2.61192322 -0.02478027 C5.47125549 -0.04964334 8.33053815 -0.06615109 11.18994141 -0.08056641 C12.65254835 -0.08855192 12.65254835 -0.08855192 14.14470291 -0.09669876 C19.30398015 -0.12343213 24.46323315 -0.14280792 29.62255859 -0.15722656 C34.95836389 -0.17389048 40.29355345 -0.21868231 45.6291256 -0.26959801 C49.72631564 -0.30320639 53.82335825 -0.31479685 57.92067337 -0.32045364 C59.88792257 -0.32718205 61.85516154 -0.34244514 63.82227707 -0.36634445 C66.57343959 -0.39786682 69.32292402 -0.39805267 72.07421875 -0.390625 C72.88891129 -0.40703033 73.70360382 -0.42343567 74.54298401 -0.44033813 C78.48351844 -0.39671783 80.24380004 -0.21796913 83.12173462 2.57919312 C87.64239126 10.22793445 90.56727021 18.48759309 93.48291016 26.85302734 C94.48012822 29.6669595 95.53700172 32.4303537 96.66650391 35.19287109 C98.74988568 40.30432597 100.58703801 45.49510891 102.42041016 50.70068359 C103.79329827 54.54821328 105.22309197 58.3713977 106.66650391 62.19287109 C107.15499229 63.49097025 107.64327546 64.78914665 108.13134766 66.08740234 C108.37191895 66.72701904 108.61249023 67.36663574 108.86035156 68.02563477 C109.89443949 70.77856288 110.92483827 73.53286245 111.95410156 76.28759766 C112.56865581 77.93118276 113.18570356 79.57383513 113.80322266 81.21630859 C115.60137853 86.0635114 117.19947064 90.92202611 118.66650391 95.88037109 C119.9861543 100.2568679 121.50342913 104.15982219 123.66650391 108.17333984 C125.3089249 111.49026036 126.44014172 114.98665362 127.66650391 118.47412109 C128.56748345 120.92365922 129.56908386 123.26405912 130.66650391 125.63037109 C132.70450962 130.08054763 134.17003186 134.65727152 135.67431641 139.31005859 C136.51157775 141.74273133 137.44070413 143.9980038 138.54150391 146.31787109 C140.99257739 151.58816348 142.69898751 157.10879177 144.47265625 162.63476562 C145.97566362 167.28069933 147.67358804 171.73394361 149.66650391 176.19287109 C154.14218653 165.79405104 158.02613616 155.23819581 161.54150391 144.47924805 C163.56823728 138.28108572 165.83214108 132.29379603 168.40869141 126.30615234 C170.3389432 121.52847942 171.88829963 116.64275228 173.45556641 111.73583984 C174.68828671 108.12913882 176.14882422 104.68789325 177.66650391 101.19287109 C180.83527077 92.80248177 183.67239119 84.29327599 186.43530273 75.76196289 C187.69579748 71.91664505 189.06414474 68.15375807 190.59619141 64.40771484 C192.91617408 58.69503972 194.82404193 52.86707491 196.72900391 47.00537109 C198.80985807 40.60426734 200.93319187 34.34476999 203.66650391 28.19287109 C204.30739469 26.46953092 204.9335052 24.74058864 205.54150391 23.00537109 C207.02121245 18.92632663 208.51902871 14.85732199 210.10400391 10.81787109 C210.47396484 9.86138672 210.84392578 8.90490234 211.22509766 7.91943359 C213.02021616 4.52378937 214.65016094 2.60517105 217.66650391 0.19287109 C220.60418082 -0.51717952 223.45371435 -0.46092428 226.46411133 -0.40649414 C227.77711967 -0.41240822 227.77711967 -0.41240822 229.11665344 -0.41844177 C232.00234683 -0.42514071 234.88644932 -0.39601943 237.77197266 -0.36572266 C239.77785434 -0.3614721 241.78374095 -0.35914393 243.78962708 -0.35865784 C247.98864097 -0.35249606 252.18712067 -0.32980882 256.38598633 -0.29418945 C261.77665183 -0.24882978 267.16683474 -0.23415881 272.55767345 -0.23045254 C276.69685147 -0.22603167 280.83592755 -0.21074295 284.97506142 -0.191576 C286.96344475 -0.18267925 288.951839 -0.17595634 290.94023705 -0.17141533 C293.71270573 -0.16240597 296.48473077 -0.14004668 299.25708008 -0.11352539 C300.08360077 -0.11286072 300.91012146 -0.11219604 301.76168823 -0.11151123 C307.43732805 -0.03630476 307.43732805 -0.03630476 309.66650391 2.19287109 C310.12133789 4.0144043 310.12133789 4.0144043 310.41259766 6.24365234 C310.58287476 7.493479 310.58287476 7.493479 310.7565918 8.76855469 C310.87123779 9.6717041 310.98588379 10.57485352 311.10400391 11.50537109 C311.36156015 13.42077015 311.61938013 15.33613376 311.87744141 17.25146484 C312.07225098 18.72848877 312.07225098 18.72848877 312.27099609 20.23535156 C312.88828698 24.85131567 313.56101814 29.45902396 314.22900391 34.06787109 C315.25343917 41.19815092 316.22967452 48.33206876 317.13916016 55.47802734 C317.57183619 58.5259896 318.06319223 61.54870943 318.58349609 64.58227539 C319.70178907 71.26332027 320.62152303 77.96392877 321.52197266 84.67724609 C323.34492606 98.07163852 325.34528411 111.43323744 327.41412354 124.79156494 C331.39857395 150.54648414 335.17163945 176.32663116 338.81054688 202.13232422 C340.1629559 211.71762806 341.53109396 221.30069349 342.8994751 230.88372803 C343.34820265 234.02723116 343.79618549 237.17083984 344.24414062 240.31445312 C345.90947392 251.98717545 347.62486614 263.65066157 349.38769531 275.30908203 C350.61927628 283.58153737 351.63834672 291.87419669 352.54052734 300.18896484 C353.1550134 305.65694535 353.97433506 311.04532373 354.96337891 316.45849609 C357.20946303 328.78034273 358.9409359 341.18653816 360.73803711 353.58007812 C361.2539816 357.13662262 361.77694327 360.69209817 362.30157757 364.24736977 C362.70907199 367.01621369 363.11201003 369.78570676 363.51368141 372.55540085 C363.7965165 374.49836501 364.08383489 376.44067487 364.3712616 378.38296509 C366.14568068 390.7244033 366.14568068 390.7244033 365.66650391 395.19287109 C364.38597393 396.84747791 364.38597393 396.84747791 362.66650391 398.19287109 C359.69749072 398.47359934 356.94070644 398.57155501 353.97241211 398.53344727 C353.08439911 398.53388535 352.19638611 398.53432343 351.28146362 398.53477478 C348.34318129 398.53268299 345.40546794 398.5093335 342.46728516 398.48583984 C340.43133353 398.48024528 338.39537788 398.47597452 336.35942078 398.47297668 C330.99828968 398.46151695 325.63740203 398.43203996 320.27636719 398.39886475 C314.80683689 398.36818824 309.33726729 398.35447652 303.86767578 398.33935547 C293.1338448 398.30717143 282.40019459 398.25596136 271.66650391 398.19287109 C270.38303126 395.06488069 269.37133872 392.24937827 268.88525391 388.89990234 C268.76537109 388.10390625 268.64548828 387.30791016 268.52197266 386.48779297 C268.34601563 385.25899414 268.34601563 385.25899414 268.16650391 384.00537109 C267.46767365 379.24027026 266.75299522 374.50728574 265.73681641 369.79833984 C264.23286754 362.43709294 263.37510542 354.97336627 262.40945435 347.52670288 C261.76002313 342.52499987 261.09740105 337.52503888 260.43603516 332.52490234 C260.29497849 331.45693924 260.15392181 330.38897614 260.0085907 329.28865051 C258.29138955 316.31338302 256.5145359 303.3463863 254.72900391 290.38037109 C254.56205017 289.16493622 254.39509644 287.94950134 254.2230835 286.69723511 C252.41233317 273.52721905 250.562028 260.36472195 248.60009766 247.21630859 C248.43566666 246.11009659 248.27123566 245.00388458 248.1018219 243.864151 C247.32842725 238.66688387 246.54662489 233.47115789 245.7487793 228.27758789 C243.11677048 210.87535058 243.11677048 210.87535058 243.66650391 202.19287109 C243.00650391 202.19287109 242.34650391 202.19287109 241.66650391 202.19287109 C241.41384766 203.47033203 241.16119141 204.74779297 240.90087891 206.06396484 C239.72619278 211.33871773 237.89946274 216.23833087 235.91650391 221.25537109 C235.19345076 223.11719617 234.47079793 224.97917676 233.74853516 226.84130859 C233.39355957 227.75106445 233.03858398 228.66082031 232.67285156 229.59814453 C231.2836056 233.18012077 229.94138259 236.77878557 228.60400391 240.38037109 C226.47657506 246.09210255 224.27009555 251.76993101 222.04150391 257.44287109 C219.73372895 263.32144741 217.61987573 269.21928619 215.68345642 275.2322998 C214.70879095 278.06976427 213.60746227 280.79701196 212.42651367 283.55419922 C209.3051186 290.97778095 206.46590348 298.50059192 203.63134766 306.03662109 C203.06526576 307.53776341 202.49906564 309.03886114 201.93275452 310.53991699 C200.75401151 313.66574572 199.57677925 316.79213796 198.40063477 319.91894531 C196.90540714 323.89363581 195.40623783 327.86682592 193.90590572 331.83959198 C192.73828532 334.9327827 191.57285837 338.02679643 190.40805244 341.12104797 C189.85662265 342.58508384 189.30452274 344.04886751 188.75169182 345.51237488 C185.83871589 353.22745835 183.01064104 360.95343211 180.46179199 368.79872131 C179.51817634 371.6393991 178.42185375 374.38557821 177.22900391 377.13037109 C174.90816507 382.5528248 172.8171477 388.04095929 170.77978516 393.57568359 C169.66650391 396.19287109 169.66650391 396.19287109 167.66650391 398.19287109 C164.86965594 398.36812164 162.17322311 398.42430298 159.37744141 398.38818359 C158.14980576 398.38393875 158.14980576 398.38393875 156.89736938 398.37960815 C154.27859998 398.36839641 151.66017027 398.34329038 149.04150391 398.31787109 C147.26807134 398.30784256 145.49463342 398.29871649 143.72119141 398.29052734 C139.36949765 398.26845387 135.01805841 398.23391754 130.66650391 398.19287109 C127.21985044 390.80879148 124.08014085 383.35894732 121.16259766 375.75146484 C120.75743423 374.7031398 120.35227081 373.65481476 119.93482971 372.57472229 C118.65482974 369.26110892 117.37924968 365.94581664 116.10400391 362.63037109 C114.82425391 359.31172196 113.5435823 355.99343031 112.26246643 352.67530823 C111.47007748 350.62209365 110.67862248 348.5685183 109.88829041 346.51451111 C108.18783958 342.10045328 106.47377781 337.69350235 104.7097168 333.30444336 C102.28178922 327.25888691 99.94451761 321.1789432 97.60400391 315.09912109 C96.88084812 313.22338575 96.15769161 311.34765068 95.43449402 309.47193146 C93.92443679 305.55477276 92.41550424 301.63718069 90.90637207 297.71966553 C89.65890919 294.48154263 88.41119242 291.24351808 87.1628418 288.0057373 C86.23175944 285.59067804 85.30122627 283.17540694 84.37133789 280.7598877 C81.84926977 274.21834782 79.28190495 267.69758087 76.66650391 261.19287109 C74.51235466 255.7894991 72.3712496 250.3809439 70.23071289 244.97216797 C69.56560124 243.29277322 68.89959278 241.61373335 68.23266602 239.93505859 C64.97470132 231.73350406 61.72556539 223.52819778 58.69384766 215.23974609 C58.2980249 214.16047852 57.90220215 213.08121094 57.49438477 211.96923828 C56.66650391 209.19287109 56.66650391 209.19287109 56.66650391 205.19287109 C56.00650391 205.19287109 55.34650391 205.19287109 54.66650391 205.19287109 C54.6984082 207.14628418 54.6984082 207.14628418 54.73095703 209.13916016 C54.72774212 213.8496904 54.27629951 218.39096144 53.63525391 223.05224609 C53.52399673 223.89323853 53.41273956 224.73423096 53.29811096 225.60070801 C52.927561 228.38236817 52.54749925 231.16262364 52.16650391 233.94287109 C51.96926224 235.40364075 51.96926224 235.40364075 51.76803589 236.8939209 C49.27728828 255.33918834 46.51680974 273.74155456 43.70629883 292.14038086 C41.53845411 306.3415358 39.43966992 320.55046007 37.42025757 334.77349854 C36.98467791 337.84042035 36.5471467 340.90705807 36.10913086 343.97363281 C34.91129022 352.37023431 33.72007416 360.76740787 32.57243347 369.17103577 C32.13058176 372.39401236 31.67947184 375.61564894 31.22640991 378.83706665 C31.02239321 380.30564535 30.82291042 381.77486221 30.62832642 383.24472046 C30.36586412 385.22635851 30.08697452 387.20580058 29.80712891 389.18505859 C29.65791992 390.28188965 29.50871094 391.3787207 29.35498047 392.50878906 C28.56490936 395.58894571 28.2654091 396.40317439 25.66650391 398.19287109 C22.81773765 398.51822835 20.18033932 398.66122185 17.32714844 398.67285156 C16.47642761 398.68786209 15.62570679 398.70287262 14.74920654 398.71833801 C11.93256635 398.76387916 9.11622894 398.78765809 6.29931641 398.81005859 C4.34258962 398.83452251 2.3858735 398.8598537 0.4291687 398.88601685 C-3.67478557 398.93743933 -7.77867129 398.97806801 -11.8828125 399.01123047 C-17.14125689 399.05461731 -22.39892743 399.12499988 -27.65695 399.20355034 C-31.6991781 399.26089161 -35.74146075 399.30369365 -39.78390884 399.34213638 C-41.72242599 399.36235528 -43.66090114 399.3871352 -45.59930038 399.41656113 C-48.31142181 399.45558238 -51.02300201 399.4749801 -53.73535156 399.48925781 C-54.93561478 399.51239296 -54.93561478 399.51239296 -56.16012573 399.53599548 C-60.67086431 399.53572035 -63.93371974 399.31340005 -67.33349609 396.19287109 C-67.8706665 393.66972351 -67.8706665 393.66972351 -67.73291016 390.70727539 C-67.68718872 389.63383881 -67.64146729 388.56040222 -67.59436035 387.45443726 C-67.20550285 382.5925812 -66.65430779 377.7873326 -65.94287109 372.96240234 C-65.79698547 371.92887131 -65.65109985 370.89534027 -65.50079346 369.83049011 C-65.03610789 366.55429048 -64.55978264 363.27990181 -64.08349609 360.00537109 C-63.77939838 357.86289395 -63.47600862 355.7203162 -63.17333984 353.57763672 C-61.66933388 343.00474283 -60.06973487 332.4520239 -58.35302734 321.91162109 C-56.08154869 307.9345759 -54.17275907 293.91170454 -52.27099609 279.88037109 C-51.75917444 276.11686197 -51.24646754 272.35347768 -50.73231506 268.59028625 C-50.41691147 266.28058041 -50.1028243 263.97069412 -49.79051208 261.66056824 C-48.7680906 254.15731319 -47.66087818 246.66898047 -46.53040218 239.18146038 C-44.99439379 228.98462369 -43.53811825 218.7765825 -42.08349609 208.56787109 C-41.93420654 207.52162567 -41.78491699 206.47538025 -41.63110352 205.39743042 C-38.1508067 181.00259318 -34.73894181 156.59824869 -31.33349609 132.19287109 C-29.15794389 116.60161596 -26.97836452 101.01094039 -24.78717041 85.421875 C-24.31690428 82.07477973 -23.84741987 78.72757529 -23.37792969 75.38037109 C-22.58267035 69.71440477 -21.78321817 64.04904271 -20.98095703 58.38406372 C-20.67780381 56.23960464 -20.37585444 54.09497498 -20.07519531 51.95016479 C-19.65817095 48.9771913 -19.23661764 46.00489267 -18.81396484 43.03271484 C-18.69341232 42.16622314 -18.5728598 41.29973145 -18.44865417 40.40698242 C-17.75726486 35.58373505 -16.87416685 30.86096976 -15.74565125 26.12010193 C-15.19000015 23.52188637 -15.05613563 20.96915995 -14.95849609 18.31787109 C-14.52817202 12.22291744 -13.06086933 6.67849348 -10.33349609 1.19287109 C-7.09980016 -0.42397687 -3.55427131 0.01849304 0 0 Z " fill="#FEFEFE" transform="translate(174.33349609375,153.80712890625)"/>
<path d="M0 0 C1.28830215 -0.00289284 1.28830215 -0.00289284 2.60263062 -0.00584412 C5.44722287 -0.00716012 8.29102124 0.01469911 11.13549805 0.03955078 C13.11223689 0.04981784 15.08897748 0.05975184 17.0657196 0.06936646 C21.21276497 0.09387518 25.35947532 0.13140628 29.50634766 0.17626953 C34.81611417 0.23140613 40.1248779 0.24068998 45.43488789 0.23835564 C49.51961141 0.24398948 53.60361672 0.28101067 57.6880703 0.32672501 C59.64518038 0.34354148 61.60242245 0.34901201 63.55959511 0.34286118 C66.30162319 0.33758504 69.03973667 0.37630589 71.78125 0.42578125 C72.58718094 0.41467819 73.39311188 0.40357513 74.22346497 0.39213562 C77.62719165 0.4932939 79.75070694 0.65323564 82.40351105 2.9008646 C83.92848809 4.65853559 85.28017826 6.43471573 86.5847168 8.35986328 C87.13111816 9.10453857 87.67751953 9.84921387 88.24047852 10.61645508 C88.66087402 11.25752197 89.08126953 11.89858887 89.5144043 12.55908203 C90.24336914 13.66219727 90.24336914 13.66219727 90.98706055 14.78759766 C91.47303711 15.53332031 91.95901367 16.27904297 92.4597168 17.04736328 C93.43618903 18.53049563 94.41275342 20.01356731 95.3894043 21.49658203 C96.15244873 22.66000122 96.15244873 22.66000122 96.9309082 23.84692383 C100.12504558 28.70037172 103.35872228 33.52755981 106.5847168 38.35986328 C108.04059767 40.54335588 109.49632393 42.72695159 110.9519043 44.91064453 C111.70059279 46.03369769 112.44929077 47.15674452 113.19799805 48.27978516 C114.69799805 50.52978516 116.19799805 52.77978516 117.69799805 55.02978516 C118.06850281 55.58552216 118.43900757 56.14125916 118.82073975 56.71383667 C119.58062104 57.85369961 120.34042623 58.99361329 121.10015869 60.13357544 C123.02261229 63.01796549 124.94633289 65.90149371 126.87280273 68.78320312 C134.96993136 80.90151599 142.97581311 93.07984194 150.98950195 105.25341797 C157.33026857 114.88459013 163.67410902 124.51304024 170.0801239 134.10096741 C174.12475264 140.15888757 178.12252577 146.24723127 182.11459351 152.33987427 C183.44498048 154.37025833 184.77612074 156.40014688 186.10742188 158.42993164 C189.40953202 163.46484839 192.71042905 168.50056011 196.01135254 173.53625488 C198.81827423 177.81822414 201.6256806 182.0998749 204.4336853 186.38113403 C205.72448303 188.3495704 207.01460608 190.31844766 208.3046875 192.28735352 C213.62128635 200.39666222 218.97925335 208.47750077 224.36836243 216.5388031 C226.1089058 219.14465079 227.84655594 221.75242599 229.5847168 224.35986328 C229.58802694 223.22880755 229.59133709 222.09775183 229.59474754 220.93242168 C229.67565417 193.44223138 229.76794267 165.95209737 229.87224388 138.46198559 C229.92241772 125.16810573 229.96886 111.87424315 230.0065918 98.58032227 C230.03947885 86.99664061 230.07929174 75.41300728 230.12750685 63.8293789 C230.15280458 57.69297345 230.17457615 51.5566002 230.18806076 45.42015648 C230.20085145 39.64921535 230.22287332 33.87838447 230.25209999 28.10750389 C230.26119925 25.98503813 230.26687143 23.86255461 230.26893044 21.74007034 C230.27223643 18.8508129 230.28766854 15.9618712 230.3062439 13.07267761 C230.30430916 12.22540751 230.30237443 11.37813741 230.30038106 10.50519246 C230.33804611 6.60866752 230.37365672 4.67645339 232.5847168 1.35986328 C235.47392528 1.05780307 238.14963272 0.95055094 241.04174805 0.97167969 C242.35409927 0.96379425 242.35409927 0.96379425 243.69296265 0.95574951 C246.59456053 0.94250977 249.49561301 0.95130159 252.3972168 0.96142578 C254.4073904 0.95940619 256.41756329 0.95649571 258.42773438 0.95272827 C262.6445207 0.94829953 266.86111663 0.95475367 271.07788086 0.96875 C276.49222467 0.98584214 281.9061224 0.97600391 287.32044983 0.95803261 C291.4724872 0.94720963 295.62441822 0.95063428 299.77645874 0.95841599 C301.77322441 0.96042211 303.76999963 0.95794435 305.76675415 0.95097733 C308.55399274 0.94338724 311.34050154 0.95493252 314.12768555 0.97167969 C314.95891937 0.96560699 315.7901532 0.9595343 316.64657593 0.95327759 C318.94091797 0.97891235 318.94091797 0.97891235 322.5847168 1.35986328 C324.9866617 4.96278063 324.83438964 6.5583238 324.83360577 10.84263611 C324.83621305 11.50704134 324.83882034 12.17144656 324.84150663 12.85598528 C324.84783858 15.0981769 324.83982389 17.34009183 324.83195496 19.58227539 C324.83354217 21.19964928 324.8360049 22.81702251 324.83927137 24.43439388 C324.84570523 28.89127301 324.83960103 33.34806176 324.83150709 37.80493498 C324.82494546 42.6066235 324.82987521 47.40830166 324.83338928 52.20999146 C324.83843857 61.62142136 324.8327805 71.03281621 324.82353898 80.44424176 C324.81317081 91.39543206 324.81322475 102.34661472 324.81371156 113.297809 C324.81421255 132.83249858 324.80504075 152.3671718 324.79052734 171.90185547 C324.7764392 190.87386371 324.76935654 209.84585755 324.77001953 228.81787109 C324.77005949 229.98628898 324.77009944 231.15470687 324.77014061 232.35853136 C324.77018097 233.52489362 324.77022132 234.69125588 324.7702629 235.89296246 C324.77095218 257.46736684 324.76506585 279.04176509 324.75610968 300.61616749 C324.75308907 308.25663423 324.75202961 315.89709986 324.75157738 323.53756714 C324.75089627 332.84386864 324.74644598 342.15015979 324.73724457 351.4564569 C324.73261745 356.20812825 324.72958443 360.95978635 324.73083878 365.71146011 C324.73193014 370.05630218 324.72843801 374.40111488 324.72119025 378.74595082 C324.71937019 380.32261907 324.71925313 381.89929033 324.72095754 383.4759587 C324.72300973 385.60970461 324.71898113 387.74335307 324.71335125 389.87709045 C324.71264682 391.06512803 324.7119424 392.25316561 324.71121663 393.47720432 C324.5847168 396.35986328 324.5847168 396.35986328 323.5847168 399.35986328 C311.79788855 399.75505233 300.01265261 400.05643844 288.22053146 400.2406702 C282.74350618 400.32913428 277.27103444 400.44891353 271.79663086 400.64233398 C266.50530213 400.8280998 261.21832751 400.92889027 255.92398834 400.97277641 C253.91246196 401.00401191 251.9011551 401.06502473 249.89150238 401.15727425 C234.61462448 401.83015427 234.61462448 401.83015427 229.59719658 397.73943329 C225.98047865 393.75093082 223.32156758 389.30936135 220.8017683 384.57300663 C218.83635763 380.999012 216.50109604 377.68736861 214.18237305 374.33642578 C213.27693296 372.97713096 212.37311211 371.6167521 211.47265625 370.25415039 C208.42829411 365.65332759 205.37499222 361.05849813 202.3190918 356.46533203 C201.77376297 355.64547318 201.22843414 354.82561432 200.6665802 353.98091125 C194.28362917 344.39266376 187.84186162 334.84420469 181.3972168 325.29736328 C180.17073121 323.47973934 178.94425011 321.66211237 177.71777344 319.84448242 C172.19178785 311.65674218 166.66150467 303.47192843 161.12469482 295.29150391 C146.90540228 274.2803133 132.80509679 253.19754136 118.87304688 231.99462891 C117.68843769 230.1918666 116.50378662 228.38913181 115.3190918 226.58642578 C114.74551437 225.71362976 114.17193695 224.84083374 113.58097839 223.94158936 C109.94134922 218.40829781 106.2815704 212.8889995 102.6003418 207.38330078 C102.13918472 206.69345596 101.67802765 206.00361115 101.20289612 205.29286194 C99.11325402 202.16894328 97.02024729 199.04734416 94.92236328 195.92895508 C91.28400899 190.50028025 87.73481056 185.04205841 84.32617188 179.46704102 C83.78182369 178.57951771 83.78182369 178.57951771 83.22647858 177.67406464 C82.34498196 176.23655475 81.46471706 174.79828968 80.5847168 173.35986328 C80.58048486 174.51853126 80.57625292 175.67719923 80.57189274 176.87097836 C80.47131624 204.34727777 80.36562609 231.82355354 80.25359986 259.29980877 C80.23982953 262.6783066 80.22610254 266.05680461 80.21240234 269.43530273 C80.20967404 270.10792875 80.20694574 270.78055476 80.20413475 271.47356338 C80.16000494 282.37867512 80.11939023 293.28379728 80.08006418 304.18892729 C80.03966366 315.37042044 79.99543522 326.55189479 79.94783825 337.73335987 C79.92121156 344.01725059 79.89635794 350.30113737 79.87564278 356.58505058 C79.85611509 362.49220077 79.83198314 368.39931374 79.80422592 374.30643082 C79.79483492 376.48134373 79.78716708 378.65626484 79.78129768 380.83119011 C79.77307117 383.78674757 79.75880454 386.74221385 79.74293518 389.69773865 C79.74195707 390.57028917 79.74097897 391.4428397 79.73997122 392.34183115 C79.69883801 398.24574207 79.69883801 398.24574207 78.5847168 399.35986328 C75.85752435 399.50098885 73.15410325 399.57778383 70.42480469 399.61279297 C69.56955704 399.62751144 68.71430939 399.64222992 67.83314514 399.65739441 C64.99127761 399.70447162 62.14937564 399.74373532 59.30737305 399.78173828 C57.34061175 399.80991455 55.37385048 399.83809247 53.40708923 399.86627197 C49.27859597 399.9238443 45.15006873 399.9767562 41.02148438 400.02734375 C35.72021624 400.09333126 30.41941781 400.17791986 25.11849308 400.26691818 C21.05495338 400.33189215 16.99132387 400.38343815 12.92754936 400.43125153 C10.97257831 400.45657413 9.01766633 400.48696403 7.06285286 400.52242279 C4.33320094 400.57063138 1.60397608 400.59995426 -1.12597656 400.62451172 C-1.94007996 400.64307724 -2.75418335 400.66164276 -3.59295654 400.68077087 C-5.84068298 400.68939209 -5.84068298 400.68939209 -9.4152832 400.35986328 C-11.82083419 396.7515368 -11.66664311 395.13816655 -11.6697588 390.84585571 C-11.67296527 390.17807374 -11.67617175 389.51029176 -11.6794754 388.82227397 C-11.68782402 386.56860456 -11.6818343 384.31519755 -11.67597961 382.06152344 C-11.67899808 380.43589922 -11.68288602 378.81027641 -11.68757218 377.18465614 C-11.69790012 372.70498166 -11.69565823 368.22538677 -11.69139159 363.7457056 C-11.68893305 358.91947111 -11.69792759 354.09325621 -11.70542908 349.26702881 C-11.7182021 339.80747804 -11.71996657 330.34795563 -11.71762881 320.88839769 C-11.71584854 313.20304071 -11.71758904 305.51769237 -11.72185326 297.83233643 C-11.72244845 296.74011674 -11.72304363 295.64789705 -11.72365686 294.52257979 C-11.72486856 292.30402358 -11.72608269 290.08546738 -11.72729924 287.86691117 C-11.73818463 267.04469959 -11.73600745 246.22250418 -11.72991439 225.40029168 C-11.72474331 206.3327022 -11.73600396 187.26516377 -11.75501261 168.19758439 C-11.77436283 148.63808544 -11.78265203 129.07861068 -11.77888936 109.5191021 C-11.77697316 98.53023474 -11.77950556 87.54141085 -11.7936039 76.55255127 C-11.80548279 67.19865443 -11.80696196 57.84482783 -11.79481373 48.49093008 C-11.78890062 43.71491346 -11.78789232 38.93902553 -11.79981613 34.16301727 C-11.81059279 29.79589899 -11.80767064 25.42901813 -11.79355445 21.06191134 C-11.79088468 19.47716688 -11.79334465 17.8924043 -11.80129031 16.30767751 C-11.81130302 14.16278353 -11.80305602 12.01872993 -11.79001331 9.87387085 C-11.79006833 8.67975775 -11.79012334 7.48564465 -11.79018003 6.2553463 C-11.4152832 3.35986328 -11.4152832 3.35986328 -10.12306088 1.47585678 C-7.08603597 -0.50876926 -3.51064688 -0.03951298 0 0 Z " fill="#FEFEFE" transform="translate(2337.415283203125,152.64013671875)"/>
<path d="M0 0 C1.21644196 0.00135956 1.21644196 0.00135956 2.4574585 0.00274658 C3.31124588 -0.00397064 4.16503326 -0.01068787 5.04469299 -0.01760864 C7.87643194 -0.03665856 10.70793479 -0.04051627 13.53973389 -0.04266357 C15.5026713 -0.04908638 17.46560773 -0.05581434 19.42854309 -0.06283569 C23.54692811 -0.07482578 27.66522913 -0.07851471 31.78363037 -0.07733154 C37.06790653 -0.0771282 42.35164582 -0.10443893 47.63579464 -0.13887596 C51.69092801 -0.16108331 55.74593089 -0.16517099 59.80111885 -0.16411209 C61.74962783 -0.16647703 63.69813993 -0.17535047 65.64658928 -0.19077682 C68.36908747 -0.21031357 71.09041124 -0.20464783 73.81292725 -0.19256592 C74.62186432 -0.20380493 75.43080139 -0.21504395 76.26425171 -0.22662354 C81.73303946 -0.16476723 81.73303946 -0.16476723 83.90547752 1.96667671 C85.50637457 4.84415377 85.58367812 6.72662953 85.59861755 10.01330566 C85.6111557 11.17995758 85.62369385 12.3466095 85.63661194 13.5486145 C85.63517685 14.82463531 85.63374176 16.10065613 85.63226318 17.41534424 C85.64128137 18.77553193 85.65160874 20.13571148 85.66314697 21.49588013 C85.69073677 25.18562967 85.70000411 28.87522509 85.70600104 32.56506443 C85.71537961 36.42218197 85.74158255 40.27918415 85.76600647 44.13623047 C85.80968947 51.43884686 85.83822533 58.74144088 85.86132985 66.04414821 C85.8883719 74.35853842 85.932284 82.67281269 85.97761858 90.98712015 C86.07049062 108.08911174 86.1421596 125.19112836 86.19989014 142.29327393 C88.25294702 139.77323214 90.30465252 137.25209331 92.35614014 134.73077393 C92.93009521 134.02630127 93.50405029 133.32182861 94.09539795 132.5960083 C97.67453716 128.19559352 101.21109129 123.76561158 104.69989014 119.29327393 C109.18438905 113.55509827 113.75941403 107.89639253 118.36395264 102.25421143 C121.85519417 97.96875381 125.29790835 93.64984907 128.69989014 89.29327393 C135.29967972 80.84698584 142.0880327 72.55574875 148.86590576 64.2522583 C154.51357487 57.33037948 160.14285706 50.40012477 165.63739014 43.35577393 C172.00141947 35.20602744 178.58555475 27.24040552 185.19989014 19.29327393 C185.99072998 18.3414624 185.99072998 18.3414624 186.79754639 17.37042236 C188.26103376 15.6121789 189.72926358 13.85804806 191.19989014 12.10577393 C192.02489014 11.12221924 192.84989014 10.13866455 193.69989014 9.12530518 C194.52489014 8.19073486 195.34989014 7.25616455 196.19989014 6.29327393 C197.42690643 4.74222206 197.42690643 4.74222206 198.67871094 3.15983582 C202.16875456 -0.27750086 205.20506109 -0.41520151 209.96839905 -0.46435547 C210.98161728 -0.44435486 211.99483551 -0.42435425 213.03875732 -0.40374756 C214.11906723 -0.40623001 215.19937714 -0.40871246 216.31242371 -0.41127014 C219.87458914 -0.41218667 223.43487595 -0.37041613 226.99676514 -0.32781982 C229.47203848 -0.31916424 231.94732177 -0.31301912 234.42260742 -0.3092804 C240.93232375 -0.29205926 247.44125045 -0.23793844 253.95068359 -0.17700195 C259.27668404 -0.13335221 264.60253257 -0.1158452 269.92869186 -0.09973049 C276.26392911 -0.08015919 282.59909186 -0.049578 288.93426514 -0.01531982 C290.14893211 -0.00889402 291.36359909 -0.00246822 292.61507416 0.0041523 C296.03632775 0.02505591 299.45742755 0.05334763 302.87860107 0.08453369 C303.89991623 0.09036469 304.92123138 0.09619568 305.97349548 0.10220337 C307.36556969 0.1172718 307.36556969 0.1172718 308.7857666 0.13264465 C309.99914011 0.14295133 309.99914011 0.14295133 311.23702621 0.15346622 C313.19989014 0.29327393 313.19989014 0.29327393 315.19989014 1.29327393 C314.57134339 7.99777256 310.26917758 13.21678006 305.89910889 18.05889893 C302.43485912 21.97317486 299.26708631 26.04740343 296.13739014 30.23077393 C291.0175772 37.00303307 285.71834958 43.59523928 280.29364014 50.12481689 C276.21587395 55.0392517 272.23770406 60.01888011 268.31268311 65.0557251 C264.83090517 69.51456504 261.27711029 73.9107467 257.69989014 78.29327393 C251.77513502 85.55652351 245.96719008 92.9047125 240.19989014 100.29327393 C233.89245769 108.37380597 227.51746044 116.38973533 221.03631592 124.33184814 C217.54481698 128.61738652 214.10184234 132.93638777 210.69989014 137.29327393 C206.21788903 143.0333806 201.64032456 148.69020639 197.03582764 154.33233643 C193.09033789 159.17537835 189.21672182 164.06945144 185.3727417 168.9932251 C181.24437856 174.26760625 177.01714494 179.45903478 172.78314209 184.64874268 C168.85010322 189.47546432 164.97969635 194.34516397 161.19989014 199.29327393 C161.88953857 200.03190674 162.57918701 200.77053955 163.28973389 201.53155518 C169.52977701 208.25228955 175.45441697 215.14130893 181.19989014 222.29327393 C182.23133931 223.55719561 183.26396716 224.82015601 184.29754639 226.08233643 C190.23194892 233.33646876 196.06530594 240.65031238 201.75457764 248.09796143 C208.35839967 256.74190225 215.12652425 265.23641183 222.07489014 273.60577393 C227.31695437 279.92196141 232.35171435 286.36342695 237.30047607 292.91094971 C241.75046182 298.77095216 246.39396717 304.45186019 251.09466553 310.1116333 C257.21252547 317.48564808 263.12620983 325.01091924 268.97723389 332.59796143 C272.14423653 336.70190128 275.37632482 340.74378824 278.65838623 344.75592041 C284.44320855 351.8280479 290.07425357 358.9931341 295.59368896 366.27423096 C298.65818684 370.30762006 301.77879988 374.26910763 305.01239014 378.16827393 C308.00671897 381.8002839 310.9291325 385.47125899 313.76239014 389.23077393 C314.4236792 390.10604736 315.08496826 390.9813208 315.76629639 391.88311768 C317.19989014 394.29327393 317.19989014 394.29327393 317.19989014 398.29327393 C302.26608223 398.59778047 287.33251585 398.82659619 272.39625835 398.96683216 C265.45986983 399.0336973 258.52541657 399.1247407 251.590271 399.27398682 C244.89212944 399.41806307 238.19640841 399.49304972 231.4966526 399.52667809 C228.94599653 399.55062785 226.39544563 399.597401 223.84564781 399.66776466 C202.80088233 400.22520818 202.80088233 400.22520818 197.22897339 395.44888306 C194.3207298 392.34974194 192.27004347 388.99185008 190.19989014 385.29327393 C189.19652665 383.97982768 188.17052224 382.68277781 187.10614014 381.41827393 C185.91504639 379.87139893 185.91504639 379.87139893 184.69989014 378.29327393 C181.13552012 373.70022569 177.4814384 369.20910744 173.69989014 364.79327393 C169.48874386 359.87182279 165.44426042 354.8453099 161.46551514 349.73468018 C157.93452331 345.20623303 154.33172119 340.74114471 150.69989014 336.29327393 C144.31810074 328.47004151 138.07789408 320.54254691 131.86590576 312.58428955 C126.58683476 305.82553734 121.25595831 299.11820565 115.82489014 292.48077393 C110.25821666 285.66878186 104.87810758 278.72862144 99.56317139 271.71905518 C95.1342524 265.89098872 90.662943 260.09524265 86.19989014 254.29327393 C85.86989014 301.81327393 85.53989014 349.33327393 85.19989014 398.29327393 C77.32433455 399.4183533 77.32433455 399.4183533 74.18260193 399.38902283 C73.46908066 399.38487366 72.75555939 399.38072449 72.02041626 399.37644958 C71.26326324 399.36664566 70.50611023 399.35684174 69.72601318 399.34674072 C68.90890366 399.34034576 68.09179413 399.33395081 67.24992371 399.32736206 C64.57039829 399.30472381 61.89104282 399.27407335 59.21160889 399.24249268 C57.34310596 399.22324751 55.47460107 399.20419213 53.60609436 399.18531799 C49.70167864 399.14444895 45.79734084 399.09923274 41.89300537 399.05133057 C36.8814672 398.99048937 31.8699049 398.94369869 26.85818768 398.9005003 C23.0054908 398.86522335 19.15293573 398.82098034 15.30036354 398.77414894 C13.45155969 398.75306794 11.60271668 398.73517629 9.75385094 398.72049522 C7.17795208 398.69901586 4.6025086 398.66511831 2.02679443 398.62799072 C1.25952026 398.62425949 0.49224609 398.62052826 -0.29827881 398.61668396 C-5.57176619 398.5216176 -5.57176619 398.5216176 -7.80010986 396.29327393 C-8.05080819 393.52083874 -8.05080819 393.52083874 -8.05179214 389.89952087 C-8.05469903 389.23259315 -8.05760591 388.56566542 -8.06060088 387.87852776 C-8.06795678 385.62174877 -8.06093179 383.36523693 -8.05407715 381.10845947 C-8.05637938 379.48298598 -8.0595543 377.85751352 -8.06353164 376.23204327 C-8.07192098 371.74817507 -8.0677357 367.26439143 -8.0615592 362.78052282 C-8.05705255 357.95156612 -8.06400955 353.12262442 -8.06951904 348.29367065 C-8.07843387 338.8269626 -8.07648176 329.36028618 -8.07069376 319.89357686 C-8.06618547 312.20294385 -8.06556075 304.51231974 -8.06774139 296.82168579 C-8.06804786 295.72904189 -8.06835433 294.63639799 -8.06867008 293.51064366 C-8.0693095 291.29128019 -8.06995793 289.07191672 -8.07061526 286.85255325 C-8.07632468 266.01892922 -8.06975109 245.18532276 -8.05901453 224.35170162 C-8.05007847 206.45754244 -8.05163034 188.5634092 -8.06085205 170.66925049 C-8.0715439 149.9125275 -8.0757753 129.15581994 -8.06962752 108.39909458 C-8.06899039 106.18768374 -8.06836165 103.9762729 -8.06774139 101.76486206 C-8.06743284 100.67667401 -8.06712429 99.58848597 -8.06680639 98.46732253 C-8.06507619 90.78181031 -8.06800154 83.09630783 -8.0727005 75.41079712 C-8.0782973 66.05063645 -8.07681829 56.69050935 -8.06613901 47.33035254 C-8.06086605 42.55044313 -8.05885303 37.77058976 -8.06543732 32.99068069 C-8.07136549 28.62115115 -8.06817393 24.25172999 -8.05748221 19.88221037 C-8.05523479 18.29543593 -8.0564142 16.70865246 -8.06123379 15.12188375 C-8.06725299 12.97679845 -8.06114166 10.83209196 -8.05179214 8.68702698 C-8.05146744 7.49199208 -8.05114274 6.29695719 -8.05080819 5.06570911 C-7.56745227 -0.27965144 -4.68888216 0.05413211 0 0 Z " fill="#FEFEFE" transform="translate(1597.8001098632813,153.70672607421875)"/>
<path d="M0 0 C0.79958633 0.01123901 1.59917267 0.02247803 2.42298889 0.03405762 C3.26877502 0.03026093 4.11456116 0.02646423 4.98597717 0.02255249 C7.78493696 0.0151358 10.58286144 0.03654299 13.38172913 0.05895996 C15.32321043 0.06134361 17.26469406 0.06224988 19.20617676 0.06173706 C23.27582733 0.06486687 27.34512604 0.08144743 31.41468811 0.10827637 C36.63949579 0.14227905 41.86391701 0.14990444 47.08882236 0.148386 C51.09760245 0.14892898 55.10629751 0.15988416 59.11504936 0.17438889 C61.04203078 0.18076694 62.96902186 0.18469813 64.89601326 0.1861763 C67.58486078 0.19049737 70.27329269 0.20797169 72.96205139 0.22937012 C73.76366196 0.22846375 74.56527252 0.22755737 75.39117432 0.22662354 C80.89886649 0.29094107 80.89886649 0.29094107 83.12782288 2.51989746 C83.37687856 4.35174042 83.37687856 4.35174042 83.37556934 6.62284946 C83.37995134 7.48719657 83.38433334 8.35154369 83.38884813 9.24208313 C83.38350279 10.19739849 83.37815746 11.15271384 83.37265015 12.13697815 C83.37491472 13.14758047 83.37717929 14.15818279 83.37951249 15.19940943 C83.38483751 18.60846616 83.37595356 22.0173437 83.36732483 25.4263916 C83.36843701 27.86212726 83.37049372 30.29786265 83.37342834 32.7335968 C83.37816286 37.99265782 83.37714905 43.25167205 83.3716526 48.51072884 C83.36343897 56.83701206 83.37467046 65.16321591 83.38885498 73.48948669 C83.39345675 76.33980256 83.39790708 79.19011864 83.40229321 82.04043484 C83.40339135 82.75291021 83.40448949 83.46538558 83.40562091 84.19945111 C83.41780307 92.31578494 83.42534798 100.43212133 83.43128967 108.54846191 C83.43183773 109.29052533 83.43238579 110.03258874 83.43295046 110.79713892 C83.44138588 122.78740774 83.43808425 134.77765401 83.43213532 146.76792295 C83.42649981 159.09316256 83.4401455 171.41828967 83.46968812 183.74349493 C83.48715378 191.33506774 83.48895135 198.92631382 83.47004297 206.51788472 C83.45696552 212.3564595 83.47008857 218.19475698 83.49246979 224.03329277 C83.49748652 226.41434875 83.49411207 228.7954409 83.48133659 231.1764679 C83.37755123 252.01582646 85.80844891 271.408864 100.63734436 287.25354004 C110.82682035 297.54033031 124.5452548 302.54530295 138.94032288 302.89489746 C140.67180008 302.80755291 142.40188242 302.68351873 144.12782288 302.51989746 C144.97086975 302.46060059 145.81391663 302.40130371 146.68251038 302.34020996 C159.52901844 300.77728168 172.7688152 293.25995857 181.12782288 283.51989746 C184.47671273 279.08057803 187.48348001 274.41240265 190.12782288 269.51989746 C190.47541291 268.87890386 190.82300294 268.23791025 191.181126 267.57749259 C194.17620855 261.51018536 194.69630299 256.40549739 194.63334656 249.70108032 C194.63943668 248.64603424 194.6455268 247.59098816 194.65180147 246.50397098 C194.667353 242.98707956 194.65463227 239.47087385 194.64198303 235.95397949 C194.6474457 233.42552768 194.6546882 230.89707918 194.66357422 228.36863708 C194.67889476 222.93391786 194.68222946 217.49940237 194.6748085 212.06467056 C194.66427079 204.20385605 194.67770837 196.34322098 194.69727306 188.48243032 C194.72856916 175.72278334 194.74361461 162.96317439 194.7469635 150.20349121 C194.74716749 149.44077966 194.74737148 148.67806811 194.74758165 147.89224409 C194.74778501 147.1285517 194.74798838 146.36485932 194.74819791 145.57802474 C194.75112152 134.73670314 194.7579331 123.89539322 194.76942444 113.05407715 C194.77022973 112.29048001 194.77103503 111.52688286 194.77186473 110.74014641 C194.78560793 98.01928396 194.80738509 85.29844254 194.83329427 72.57759941 C194.84875095 64.73302742 194.8559459 56.88852407 194.85249935 49.04393713 C194.85022273 43.04252141 194.85755013 37.04115921 194.86837959 31.03975105 C194.87107156 28.5737922 194.87029521 26.10782685 194.86586952 23.6418705 C194.86026239 20.28676772 194.86673678 16.93190148 194.87626648 13.57681274 C194.87160327 12.59171663 194.86694005 11.60662052 194.86213553 10.59167302 C194.86713423 9.6960175 194.87213292 8.80036198 194.8772831 7.87756538 C194.87739313 7.1028782 194.87750316 6.32819102 194.87761652 5.53002846 C195.12782288 3.51989746 195.12782288 3.51989746 197.12782288 0.51989746 C200.01703136 0.21783725 202.6927388 0.11058512 205.58485413 0.13171387 C206.89720535 0.12382843 206.89720535 0.12382843 208.23606873 0.11578369 C211.13766661 0.10254395 214.03871909 0.11133577 216.94032288 0.12145996 C218.95049648 0.11944037 220.96066937 0.11652989 222.97084045 0.11276245 C227.18762678 0.10833371 231.40422271 0.11478785 235.62098694 0.12878418 C241.03533075 0.14587632 246.44922848 0.13603808 251.86355591 0.11806679 C256.01559328 0.10724381 260.1675243 0.11066846 264.31956482 0.11845016 C266.31633049 0.12045629 268.31310571 0.11797853 270.30986023 0.11101151 C273.09709882 0.10342142 275.88360762 0.1149667 278.67079163 0.13171387 C279.50202545 0.12564117 280.33325928 0.11956848 281.18968201 0.11331177 C283.48402405 0.13894653 283.48402405 0.13894653 287.12782288 0.51989746 C289.22929254 3.67210196 289.37873985 4.39896642 289.38509178 7.99298191 C289.39154067 8.9144377 289.39798957 9.83589349 289.40463388 10.78527218 C289.39998807 12.30623553 289.39998807 12.30623553 289.39524841 13.85792542 C289.39977953 14.93401343 289.40431064 16.01010145 289.40897906 17.1187982 C289.4216916 20.74350776 289.41999821 24.36806839 289.41835022 27.99279785 C289.42433163 30.58469334 289.43113628 33.17658705 289.43870544 35.76847839 C289.45533773 42.09277885 289.46081622 48.41704203 289.4619302 54.74136252 C289.46288074 59.88893027 289.46699137 65.03648574 289.47333145 70.18404961 C289.49095905 84.79493202 289.50016932 99.40578504 289.4986705 114.01667816 C289.49859059 114.80479375 289.49851068 115.59290934 289.49842834 116.40490723 C289.49834658 117.19399266 289.49826482 117.9830781 289.49818058 118.79607522 C289.49736987 131.54869855 289.5164492 144.30120314 289.54470508 157.05379219 C289.57352312 170.16438637 289.58724011 183.27492287 289.58551753 196.38554949 C289.58485612 203.73919615 289.59023654 211.09271875 289.61187363 218.44633675 C289.63213344 225.37632663 289.63132092 232.30605215 289.61684036 239.23605537 C289.61476118 241.76827884 289.61939946 244.30051896 289.63156128 246.83271408 C289.69496029 260.95801618 289.00044177 273.89581481 285.12782288 287.51989746 C284.86427694 288.4774849 284.60073101 289.43507235 284.32919884 290.42167759 C283.73882884 292.50170547 283.08459421 294.5393024 282.37782288 296.58239746 C282.12814758 297.31297363 281.87847229 298.0435498 281.62123108 298.79626465 C267.57772098 338.62254779 238.7398237 368.72828359 201.12782288 387.14489746 C184.21333772 395.10567098 166.80661123 399.82981908 148.12782288 400.51989746 C147.11284729 400.56227539 146.0978717 400.60465332 145.05213928 400.64831543 C131.0217023 401.15655762 117.93601156 400.45149629 104.29530334 397.04821777 C102.06215497 396.503891 99.82019286 396.03910771 97.56922913 395.57458496 C93.2398084 394.61812873 89.22652861 393.19414787 85.12782288 391.51989746 C84.50633362 391.2720752 83.88484436 391.02425293 83.24452209 390.7689209 C46.40698787 375.86467186 17.8028141 347.82500669 1.75672913 311.47302246 C-0.04964803 307.19652455 -1.62686131 302.85138321 -3.12217712 298.45739746 C-3.35638367 297.77443604 -3.59059021 297.09147461 -3.83189392 296.38781738 C-4.57289332 294.11274464 -5.22407568 291.8232529 -5.87217712 289.51989746 C-6.12804407 288.6616292 -6.38391102 287.80336094 -6.64753151 286.91908455 C-9.85159649 274.48545543 -9.29310207 261.86647211 -9.26036072 249.11706543 C-9.26443074 246.45156287 -9.26966744 243.78608531 -9.27629089 241.12059021 C-9.28955857 234.66276574 -9.28678312 228.20504647 -9.27805297 221.74721806 C-9.27125506 216.50015208 -9.27036875 211.25311542 -9.27362442 206.0060463 C-9.27408412 205.25697515 -9.27454382 204.507904 -9.27501745 203.73613373 C-9.27597668 202.21415113 -9.27694932 200.69216853 -9.27793522 199.17018594 C-9.28646714 184.9371086 -9.27668655 170.70408946 -9.26053412 156.47102167 C-9.24710538 144.25942003 -9.24948427 132.04790385 -9.26329041 119.83630371 C-9.27933775 105.63578737 -9.28567227 91.43532173 -9.27645361 77.2347976 C-9.27549799 75.72172873 -9.27455488 74.20865986 -9.27362442 72.69559097 C-9.27316159 71.95120977 -9.27269877 71.20682856 -9.27222192 70.43989035 C-9.26963154 65.19424754 -9.27400347 59.94863694 -9.28106308 54.70299911 C-9.28946766 48.31819321 -9.28721884 41.93349798 -9.27122085 35.54870479 C-9.26332821 32.29141053 -9.26187434 29.03433948 -9.2701683 25.77704048 C-9.27832487 22.24947931 -9.2681335 18.72244318 -9.25312805 15.19491577 C-9.25982022 14.16166983 -9.26651238 13.12842388 -9.27340734 12.06386745 C-9.2655841 11.12053684 -9.25776086 10.17720623 -9.24970055 9.20528984 C-9.24921349 8.39116406 -9.24872643 7.57703829 -9.24822462 6.73824203 C-8.28940385 1.08205526 -5.39771477 0.06175298 0 0 Z " fill="#FEFEFE" transform="translate(577.8721771240234,153.4801025390625)"/>
<path d="M0 0 C35.39853375 -0.02286522 70.7970662 -0.04049764 106.19560581 -0.05106533 C110.37023136 -0.05231611 114.54485689 -0.05361042 118.71948242 -0.05493164 C119.55061102 -0.05519395 120.38173961 -0.05545626 121.23805393 -0.05572652 C134.71362175 -0.06008345 148.18918533 -0.06797113 161.66475063 -0.0771528 C175.48141681 -0.08648869 189.29808076 -0.09205547 203.11474997 -0.09408849 C211.64737724 -0.09546386 220.17999251 -0.09981515 228.71261609 -0.10791647 C234.5556456 -0.11318314 240.39866887 -0.11480448 246.24170058 -0.11350138 C249.61795196 -0.11285787 252.99418231 -0.1138769 256.37042999 -0.11920547 C260.02223396 -0.12413519 263.67398538 -0.12300097 267.32579041 -0.12025452 C268.94394658 -0.12462378 268.94394658 -0.12462378 270.59479278 -0.12908131 C271.5651678 -0.12709026 272.53554282 -0.12509921 273.53532314 -0.12304783 C274.37944144 -0.12342755 275.22355973 -0.12380727 276.09325737 -0.1241985 C278 0 278 0 279 1 C279.10055113 3.85554581 279.13615544 6.68694023 279.12939453 9.54296875 C279.13202301 10.88677109 279.13202301 10.88677109 279.13470459 12.25772095 C279.13912447 15.23433337 279.13618464 18.21088692 279.1328125 21.1875 C279.1334855 23.24633801 279.13445549 25.30517594 279.13571167 27.36401367 C279.13718883 31.68506627 279.13503351 36.00609823 279.13037109 40.32714844 C279.1246738 45.87936546 279.12795271 51.43153414 279.13394356 56.98374939 C279.13754869 61.23694221 279.13641081 65.49012349 279.13381577 69.74331665 C279.13314636 71.79114793 279.13397538 73.83898023 279.13629532 75.8868103 C279.13882106 78.74357908 279.13498236 81.60026843 279.12939453 84.45703125 C279.13141876 85.31213287 279.13344299 86.1672345 279.13552856 87.04824829 C279.11426239 92.88573761 279.11426239 92.88573761 278 94 C275.10856849 94.09523905 272.24107936 94.12553027 269.34936523 94.11352539 C267.9885231 94.11374443 267.9885231 94.11374443 266.60018921 94.1139679 C263.58630015 94.11326841 260.57247207 94.10547434 257.55859375 94.09765625 C255.47494033 94.0957922 253.39128646 94.09436824 251.30763245 94.09336853 C245.81176554 94.08954234 240.31592487 94.0797112 234.82006836 94.06866455 C229.21663773 94.0584526 223.61320287 94.05387137 218.00976562 94.04882812 C207.00649886 94.03808902 196.00325161 94.02101139 185 94 C185.00075944 94.63576771 185.00151888 95.27153541 185.00230134 95.92656881 C185.04702449 133.57892926 185.08135641 171.2312858 185.10213066 208.88366737 C185.10463217 213.40120472 185.10722081 217.91874202 185.10986328 222.4362793 C185.1103879 223.33566741 185.11091252 224.23505553 185.11145304 225.16169783 C185.12016372 239.73846338 185.13593733 254.31521321 185.15430559 268.89196942 C185.17298623 283.84091697 185.18411283 298.78985627 185.18817699 313.73881501 C185.19092587 322.96855547 185.19961853 332.19825151 185.21583293 341.4279783 C185.22637717 347.75085818 185.22960646 354.07371498 185.22700275 360.39660303 C185.22571746 364.04856072 185.22773455 367.70044059 185.23841095 371.35238457 C185.24988433 375.30565641 185.24599373 379.2588257 185.24050903 383.21211243 C185.24633472 384.37454934 185.2521604 385.53698625 185.25816262 386.73464853 C185.25418052 387.78912374 185.25019842 388.84359895 185.24609566 389.93002796 C185.2468551 390.84325536 185.24761454 391.75648275 185.24839699 392.6973837 C185 395 185 395 183 398 C181.13649082 398.51095486 181.13649082 398.51095486 178.90931702 398.68614197 C178.10143801 398.75038298 177.293559 398.81462399 176.46119881 398.88081169 C172.78429305 399.05887296 169.13105511 399.08660159 165.45092773 399.02172852 C164.64982071 399.01212097 163.84871368 399.00251343 163.02333069 398.99261475 C160.4099853 398.95997966 157.7968263 398.91951569 155.18359375 398.87890625 C153.35800304 398.8545703 151.53240569 398.83072856 149.70680237 398.80735779 C144.92776857 398.74486225 140.14885415 398.67569988 135.36993408 398.60510254 C130.48300563 398.53410501 125.59599327 398.4694768 120.70898438 398.40429688 C111.13923069 398.27573039 101.5695911 398.14011373 92 398 C90.7568052 395.51361041 90.8705985 393.85424347 90.86412811 391.07148647 C90.85927037 390.0231024 90.85441262 388.97471833 90.84940767 387.89456505 C90.84911169 386.73378836 90.8488157 385.57301167 90.84851074 384.37705994 C90.84427833 383.15099094 90.84004592 381.92492195 90.83568525 380.66169935 C90.82488407 377.24766569 90.81855449 373.83367528 90.81405044 370.41963089 C90.80811244 366.7420292 90.7964422 363.0644454 90.78541565 359.38685608 C90.76704694 353.0113516 90.7522093 346.63584672 90.73963928 340.26032829 C90.7213709 331.04122653 90.69670612 321.82215033 90.67026538 312.60306878 C90.62744822 297.64546229 90.58833793 282.68784877 90.55224609 267.73022461 C90.54900189 266.38653793 90.54900189 266.38653793 90.54569215 265.01570607 C90.52816826 257.7461465 90.51082332 250.47658651 90.49348927 243.20702648 C90.47832696 236.85115222 90.46309437 230.49527813 90.44775391 224.1394043 C90.4445156 222.79689256 90.4445156 222.79689256 90.44121188 221.42725938 C90.40514679 206.52570752 90.3651977 191.62416853 90.32245111 176.72263438 C90.29624807 167.52195383 90.27360058 158.32127728 90.25546753 149.12057722 C90.24283276 142.8215537 90.22671892 136.52254544 90.20781839 130.22353762 C90.1970258 126.58399539 90.18791986 122.94446805 90.18312263 119.30491257 C90.17790455 115.36857186 90.16509482 111.43227758 90.15148926 107.49595642 C90.15119327 106.33294901 90.15089728 105.16994161 90.15059233 103.97169155 C90.14573458 102.92591523 90.14087684 101.8801389 90.13587189 100.80267239 C90.13375592 99.89280746 90.13163995 98.98294253 90.12945986 98.04550594 C90.22665973 96.0063159 90.22665973 96.0063159 89 95 C86.27239519 94.88014826 83.56897396 94.82453831 80.84008789 94.81054688 C79.98484024 94.80225357 79.12959259 94.79396027 78.24842834 94.78541565 C76.38502446 94.76797465 74.52159815 94.75281903 72.65815926 94.73963928 C69.71283751 94.71868013 66.76762837 94.69165179 63.82237244 94.66296387 C57.5691245 94.60315584 51.31582469 94.5510578 45.0625 94.5 C37.82255887 94.44085038 30.58267308 94.37859454 23.34283257 94.30812073 C20.43455131 94.28147352 17.52626474 94.26070144 14.61793518 94.2401123 C12.84172296 94.22351321 11.06551326 94.20664172 9.28930664 94.18945312 C8.47520325 94.18526871 7.66109985 94.18108429 6.82232666 94.17677307 C1.22768212 94.11384106 1.22768212 94.11384106 -1 93 C-1.02313347 81.169619 -1.04092023 69.33924335 -1.05181217 57.50884438 C-1.05703879 52.01597929 -1.06413246 46.52312964 -1.07543945 41.03027344 C-1.08627614 35.73295311 -1.09227851 30.43564766 -1.09487724 25.13831711 C-1.09673007 23.11363872 -1.10034799 21.08896118 -1.10573006 19.06428909 C-1.11295083 16.23636339 -1.1139905 13.40849979 -1.11352539 10.58056641 C-1.11712067 9.73683975 -1.12071594 8.8931131 -1.12442017 8.02381897 C-1.11405216 2.22810432 -1.11405216 2.22810432 0 0 Z " fill="#FEFEFE" transform="translate(1115,154)"/>
<path d="M0 0 C11.58688402 -0.02312228 23.17376259 -0.0409145 34.76066494 -0.05181217 C40.14033762 -0.05704125 45.51999458 -0.06413935 50.8996582 -0.07543945 C56.08674843 -0.08626745 61.27382349 -0.09227665 66.46092415 -0.09487724 C68.4445628 -0.09673165 70.42820058 -0.10035256 72.41183281 -0.10573006 C75.18009136 -0.11293932 77.94828638 -0.11399099 80.71655273 -0.11352539 C81.54517319 -0.11712067 82.37379364 -0.12071594 83.2275238 -0.12442017 C88.88594784 -0.11405216 88.88594784 -0.11405216 90 1 C90.10208551 2.6105946 90.13398746 4.22567389 90.1386652 5.83949375 C90.14413964 6.89347026 90.14961409 7.94744678 90.15525442 9.03336197 C90.15623253 10.20551552 90.15721064 11.37766906 90.15821838 12.58534241 C90.16562535 14.43647326 90.16562535 14.43647326 90.17318195 16.3250007 C90.18593979 19.76602551 90.19419651 23.20700942 90.20060861 26.64804852 C90.2085896 30.35291727 90.22229524 34.0577652 90.23532104 37.76261902 C90.25711657 44.18670566 90.27524976 50.61079438 90.29092598 57.03489876 C90.31359667 66.32318206 90.34174332 75.61144235 90.37124526 84.89970618 C90.4189556 99.9677139 90.46221042 115.035731 90.50268555 130.10375977 C90.54202299 144.74471773 90.58345641 159.38566729 90.62768555 174.02661133 C90.63180981 175.3931382 90.63180981 175.3931382 90.63601738 176.78727168 C90.65753535 183.91156972 90.67917526 191.03586739 90.70085371 198.16016495 C90.80716108 233.10675973 90.90282841 268.05337632 91 303 C162.28 303.495 162.28 303.495 235 304 C236.63266802 307.26533605 236.13813204 310.86904416 236.12939453 314.45703125 C236.13202301 315.76938248 236.13202301 315.76938248 236.13470459 317.10824585 C236.13911759 320.00968388 236.13618704 322.91106131 236.1328125 325.8125 C236.1334857 327.82267265 236.13445586 329.83284521 236.13571167 331.84301758 C236.13718789 336.05974094 236.13503649 340.27644315 236.13037109 344.49316406 C236.12467386 349.90737085 236.12795326 355.32152807 236.13394356 360.73573303 C236.13755119 364.88773983 236.13640965 369.0397348 236.13381577 373.19174194 C236.13314706 375.18850714 236.13397297 377.1852734 236.13629532 379.18203735 C236.13882514 381.96904354 236.13497655 384.75596863 236.12939453 387.54296875 C236.13141876 388.37420258 236.13344299 389.2054364 236.13552856 390.06185913 C236.11426399 395.77147201 236.11426399 395.77147201 235 398 C228.98847262 399.4314732 222.48079713 399.13128051 216.33787537 399.08229065 C215.40730271 399.07906152 214.47673005 399.07583239 213.51795822 399.07250541 C210.42265456 399.06051207 207.32744318 399.04112288 204.23217773 399.02172852 C202.00427954 399.01157705 199.77637921 399.00188432 197.54847717 398.99261475 C191.51611521 398.9662207 185.48380316 398.93342368 179.45147967 398.89946485 C173.14142256 398.86503548 166.83133879 398.83651176 160.52125549 398.80735779 C149.93529436 398.75765461 139.34935633 398.7043232 128.76342773 398.64819336 C117.86337386 398.59040792 106.96331239 398.53482241 96.06323242 398.48217773 C95.39053593 398.47892802 94.71783944 398.4756783 94.02475821 398.4723301 C90.64979399 398.45603955 87.27482956 398.43979207 83.89986503 398.42356598 C55.93320833 398.28905285 27.96659404 398.14692562 0 398 C-1.41917661 395.16164678 -1.12540973 392.7817245 -1.12584114 389.60624695 C-1.12729458 388.93931922 -1.12874802 388.27239149 -1.13024551 387.58525383 C-1.13392335 385.32854201 -1.13041086 383.07189698 -1.12698364 380.81518555 C-1.12813476 379.18971312 -1.12972221 377.56424096 -1.13171089 375.93876934 C-1.13590554 371.45492218 -1.1338129 366.97109616 -1.13072467 362.4872489 C-1.12847134 357.65829668 -1.13194984 352.82934821 -1.13470459 348.00039673 C-1.139162 338.53369627 -1.13818595 329.06700371 -1.13529195 319.60030293 C-1.1330378 311.90967192 -1.13272544 304.21904312 -1.13381577 296.52841187 C-1.133969 295.43576796 -1.13412223 294.34312406 -1.13428011 293.21736974 C-1.13459982 290.99800626 -1.13492403 288.77864279 -1.1352527 286.55927932 C-1.13810741 265.72566041 -1.13482061 244.89204589 -1.12945233 224.05842769 C-1.1249843 206.16427511 -1.12576024 188.27012902 -1.13037109 170.37597656 C-1.13571702 149.61925684 -1.13783272 128.86254097 -1.13475883 108.10582066 C-1.13444027 105.89440982 -1.13412589 103.68299898 -1.13381577 101.47158813 C-1.13366149 100.38340009 -1.13350721 99.29521204 -1.13334826 98.1740486 C-1.13248316 90.4885392 -1.13394584 82.80303222 -1.13629532 75.11752319 C-1.13909372 65.75737188 -1.13835421 56.39722896 -1.13301457 47.03707862 C-1.1303781 42.2571833 -1.12937159 37.477302 -1.13266373 32.69740677 C-1.13562779 28.3279068 -1.13403201 23.95843393 -1.12868617 19.58893645 C-1.12756246 18.00216118 -1.12815216 16.41538366 -1.13056196 14.82860982 C-1.13357142 12.6836243 -1.13051571 10.53873349 -1.12584114 8.39375305 C-1.12567879 7.19871816 -1.12551644 6.00368326 -1.12534916 4.77243519 C-1 2 -1 2 0 0 Z " fill="#FFFFFF" transform="translate(920,154)"/>
<path d="M0 0 C2.93057069 -0.28611093 5.64887526 -0.37805361 8.58056641 -0.34057617 C9.46843338 -0.34101425 10.35630035 -0.34145233 11.27107239 -0.34190369 C14.21479043 -0.33980852 17.15794358 -0.3164433 20.1015625 -0.29296875 C22.13894337 -0.28737538 24.17632826 -0.28310406 26.2137146 -0.28010559 C31.58307992 -0.26863643 36.95220281 -0.23915143 42.32147217 -0.20599365 C47.79761475 -0.17533737 53.27379639 -0.16160977 58.75 -0.14648438 C69.50010667 -0.11428372 80.2500332 -0.06306238 91 0 C92.41917661 2.83835322 92.12540973 5.2182755 92.12584114 8.39375305 C92.12729458 9.06068078 92.12874802 9.72760851 92.13024551 10.41474617 C92.13392335 12.67145799 92.13041086 14.92810302 92.12698364 17.18481445 C92.12813476 18.81028688 92.12972221 20.43575904 92.13171089 22.06123066 C92.13590554 26.54507782 92.1338129 31.02890384 92.13072467 35.5127511 C92.12847134 40.34170332 92.13194984 45.17065179 92.13470459 49.99960327 C92.139162 59.46630373 92.13818595 68.93299629 92.13529195 78.39969707 C92.1330378 86.09032808 92.13272544 93.78095688 92.13381577 101.47158813 C92.133969 102.56423204 92.13412223 103.65687594 92.13428011 104.78263026 C92.13459982 107.00199374 92.13492403 109.22135721 92.1352527 111.44072068 C92.13810741 132.27433959 92.13482061 153.10795411 92.12945233 173.94157231 C92.1249843 191.83572489 92.12576024 209.72987098 92.13037109 227.62402344 C92.13571702 248.38074316 92.13783272 269.13745903 92.13475883 289.89417934 C92.13444027 292.10559018 92.13412589 294.31700102 92.13381577 296.52841187 C92.13358435 298.16069393 92.13358435 298.16069393 92.13334826 299.8259514 C92.13248316 307.5114608 92.13394584 315.19696778 92.13629532 322.88247681 C92.13909372 332.24262812 92.13835421 341.60277104 92.13301457 350.96292138 C92.1303781 355.7428167 92.12937159 360.522698 92.13266373 365.30259323 C92.13562779 369.6720932 92.13403201 374.04156607 92.12868617 378.41106355 C92.12756246 379.99783882 92.12815216 381.58461634 92.13056196 383.17139018 C92.13357142 385.3163757 92.13051571 387.46126651 92.12584114 389.60624695 C92.12567879 390.80128184 92.12551644 391.99631674 92.12534916 393.22756481 C92 396 92 396 91 398 C85.41279088 399.28410033 79.40983118 399.1553524 73.69799805 399.17700195 C72.92282333 399.18357315 72.14764862 399.19014435 71.34898376 399.19691467 C68.81989412 399.21640343 66.29086267 399.22824567 63.76171875 399.23828125 C62.89236002 399.24235678 62.02300129 399.2464323 61.12729836 399.25063133 C56.53856274 399.27137279 51.94985611 399.28573383 47.36108398 399.29516602 C42.62529084 399.3062956 37.88995912 399.34080363 33.15433025 399.38033772 C29.5040854 399.40643587 25.85395277 399.41485102 22.20362282 399.41844749 C20.45688519 399.42331938 18.71015278 399.43495051 16.9635067 399.45348549 C14.52696606 399.47776615 12.09165318 399.47693454 9.6550293 399.4699707 C8.57572144 399.48918579 8.57572144 399.48918579 7.47460938 399.50878906 C4.31097097 399.47578588 2.3886592 399.2877377 -0.18498671 397.38237959 C-2.58643399 394.23024896 -2.49922118 392.33697886 -2.49777794 388.39417934 C-2.50299251 387.72862027 -2.50820708 387.0630612 -2.51357967 386.37733367 C-2.52621835 384.13695161 -2.5102325 381.89768272 -2.49447632 379.65733337 C-2.4976516 378.03909325 -2.5025779 376.42085577 -2.50910914 374.80262572 C-2.52196414 370.34790938 -2.50977872 365.89355528 -2.49358058 361.43886268 C-2.48044744 356.63786441 -2.49031894 351.83690733 -2.49734497 347.03590393 C-2.50743923 337.62791378 -2.49613309 328.220064 -2.47764437 318.81209128 C-2.45690067 307.86416006 -2.4570161 296.91625939 -2.45798953 285.96831221 C-2.45899131 266.43970124 -2.4406529 246.91115571 -2.41162109 227.38256836 C-2.38344132 208.41738696 -2.36927967 189.45226317 -2.37060547 170.48706055 C-2.37068538 169.31890538 -2.37076529 168.15075022 -2.37084763 166.94719642 C-2.37096869 165.19804254 -2.37096869 165.19804254 -2.3710922 163.41355222 C-2.37247075 141.84424104 -2.36069876 120.27495441 -2.34278577 98.70565118 C-2.33674481 91.06767695 -2.33462567 83.42970723 -2.33372116 75.79173088 C-2.33235897 66.48909866 -2.32345873 57.18650783 -2.30505554 47.88389318 C-2.29580134 43.13422929 -2.28973525 38.38461844 -2.29224396 33.63494492 C-2.29442669 29.29195766 -2.28744254 24.94908792 -2.27294691 20.60612518 C-2.2693068 19.03016292 -2.26907266 17.45418858 -2.27248149 15.8782258 C-2.27658608 13.74533571 -2.26852909 11.61283552 -2.25726891 9.47997952 C-2.25586006 8.29248401 -2.25445121 7.10498851 -2.25299966 5.88150829 C-2 3 -2 3 0 0 Z " fill="#FFFFFF" transform="translate(1446,154)"/>
<path d="M0 0 C1.26457031 -0.01224609 2.52914062 -0.02449219 3.83203125 -0.03710938 C32.6982613 -0.0817019 58.33737586 11.86610991 78.8671875 31.91015625 C92.97074019 46.3048174 101.85071415 64.57718473 106 84.1875 C106.17289551 84.95529785 106.34579102 85.7230957 106.52392578 86.51416016 C109.85169549 105.20086701 107.85123816 127.50299285 98.91162109 144.42456055 C97.90634081 146.2916115 97.90634081 146.2916115 96.9921875 148.78515625 C89.81058717 166.17367673 73.67478179 183.68663085 57 192.1875 C56.34 192.1875 55.68 192.1875 55 192.1875 C55 192.8475 55 193.5075 55 194.1875 C54.443125 194.42984375 53.88625 194.6721875 53.3125 194.921875 C52.549375 195.25703125 51.78625 195.5921875 51 195.9375 C49.74896484 196.48664063 49.74896484 196.48664063 48.47265625 197.046875 C46.38745686 198.00876792 44.43483597 199.06148509 42.4375 200.1875 C37.13999195 202.91162507 31.27544623 204.01117526 25.51171875 205.35546875 C22.0577752 206.11880128 22.0577752 206.11880128 19 207.1875 C3.32545068 208.1696995 -13.06318763 208.49895218 -28 203.1875 C-28.70898438 202.94080566 -29.41796875 202.69411133 -30.1484375 202.43994141 C-39.97674065 198.92890943 -48.63541688 194.50530394 -57 188.1875 C-58.38251953 187.15496094 -58.38251953 187.15496094 -59.79296875 186.1015625 C-80.96440789 169.55857621 -95.31774176 146.11016722 -99.58984375 119.515625 C-100.22144696 113.98376694 -100.184168 108.43609991 -100.1875 102.875 C-100.19974609 101.81087891 -100.21199219 100.74675781 -100.22460938 99.65039062 C-100.27408415 72.62067362 -87.5568609 48.34651787 -69.1875 29.0625 C-54.41488229 14.78521661 -37.4318292 6.84834375 -18 1.1875 C-17.37754395 0.99816895 -16.75508789 0.80883789 -16.11376953 0.61376953 C-10.87460356 -0.44277745 -5.32249891 0.00264801 0 0 Z " fill="#016537" transform="translate(2074,248.8125)"/>
<path d="M0 0 C0.66 0.33 1.32 0.66 2 1 C-4.27 7.27 -10.54 13.54 -17 20 C-17.66 19.67 -18.32 19.34 -19 19 C-13.0763504 12.14630879 -6.85369121 5.9236496 0 0 Z " fill="#247A53" transform="translate(2015,269)"/>
<path d="M0 0 C0.66 0 1.32 0 2 0 C2 3.3 2 6.6 2 10 C0.68 9.34 -0.64 8.68 -2 8 C-1.34 5.36 -0.68 2.72 0 0 Z " fill="#4E9373" transform="translate(416,356)"/>
</svg>
