<?xml version="1.0" encoding="UTF-8"?>
<svg version="1.1" xmlns="http://www.w3.org/2000/svg" width="1772" height="1636">
<path d="M0 0 C-0.70644552 5.69679977 -1.91115038 11.18257923 -3.265625 16.7578125 C-3.49492706 17.7124791 -3.72422913 18.66714569 -3.96047974 19.65074158 C-4.72031312 22.80964302 -5.48502042 25.96734116 -6.25 29.125 C-6.79132711 31.36902337 -7.3325026 33.61308333 -7.87353516 35.85717773 C-14.68379882 64.06979214 -21.61738695 92.2525621 -28.57441711 120.42929077 C-30.03041867 126.32745651 -31.48451271 132.22609103 -32.9375 138.125 C-33.22684418 139.29953735 -33.51618835 140.47407471 -33.81430054 141.6842041 C-38.68244627 161.46412415 -43.40323079 181.27700141 -48.08190918 201.10247803 C-51.68121917 216.34535092 -55.34683419 231.56615318 -59.1875 246.75 C-64.44145353 267.52157357 -69.43975212 288.3531659 -74.4375 309.1875 C-76.10770256 316.14852639 -77.77823362 323.10947392 -79.44921875 330.0703125 C-79.75244458 331.33353175 -79.75244458 331.33353175 -80.06179619 332.62227058 C-83.25997205 345.94337302 -86.4820075 359.25832855 -89.75 372.5625 C-90.0769133 373.89371887 -90.0769133 373.89371887 -90.41043091 375.25183105 C-91.36754908 379.14842541 -92.32510145 383.04491278 -93.28312683 386.94128418 C-97.73757892 405.06141625 -102.17295155 423.18623425 -106.60959244 441.3107338 C-107.11877061 443.3907774 -107.62798422 445.47081233 -108.13723373 447.55083847 C-115.02975739 475.70336724 -121.89984476 503.86089247 -128.66357422 532.04467773 C-129.16230885 534.12096127 -129.66116522 536.19721557 -130.16015625 538.2734375 C-130.39285217 539.24243484 -130.6255481 540.21143219 -130.86529541 541.20979309 C-132.90457567 549.67068321 -135.01990006 558.11215463 -137.16920471 566.54574585 C-137.40912643 567.49438507 -137.64904816 568.44302429 -137.89624023 569.42041016 C-138.216605 570.67780502 -138.216605 570.67780502 -138.54344177 571.96060181 C-139.07282055 573.97696883 -139.07282055 573.97696883 -139 576 C-130.58577436 569.42830552 -122.24123807 562.78833832 -114 556 C-112.20842294 554.54155659 -110.41675498 553.08322483 -108.625 551.625 C-102.91119891 546.95007184 -97.27845716 542.18304475 -91.65283203 537.40283203 C-89.49560727 535.57189946 -87.33347391 533.74681635 -85.17138672 531.92163086 C-83.00281797 530.08970033 -80.83722607 528.25427648 -78.67236328 526.41796875 C-77.5411838 525.45886065 -76.40932873 524.50054886 -75.27685547 523.54296875 C-35.20652222 489.63472136 15.5708771 438.94987916 20.22753906 383.27978516 C21.21802655 365.27347024 18.7713493 350.5717947 6.81640625 336.4140625 C-2.90140145 326.04201816 -14.6305076 319.75764172 -27.6015625 314.41015625 C-30.14109313 313.35639699 -32.55637704 312.24650803 -35 311 C-30.81661847 292.59711712 -26.40563283 274.25767686 -21.875 255.9375 C-21.22146077 253.28958353 -20.56856699 250.64150811 -19.91577148 247.9934082 C-19.58458237 246.65000844 -19.25339034 245.30660939 -18.92219543 243.96321106 C-18.67559142 242.96291335 -18.67559142 242.96291335 -18.42400551 241.94240761 C-17.92684084 239.92617212 -17.42942094 237.90999975 -16.93193054 235.8938446 C-13.62627207 222.49561085 -10.34248078 209.09204123 -7.0625 195.6875 C-6.54346928 193.56697291 -6.02442671 191.44644873 -5.50537109 189.32592773 C-4.3365891 184.55069795 -3.16816657 179.77538037 -2 175 C12.04544584 174.8624914 25.95209573 174.88617816 39.9375 176.25 C40.64747131 176.31657806 41.35744263 176.38315613 42.08892822 176.45175171 C97.73694666 181.68160853 165.25318879 194.08353787 203.05517578 239.65869141 C219.10174349 259.96772603 224.80560513 285.05809179 222.2890625 310.53808594 C216.45418959 360.23306776 186.83105071 406.01345621 156 444 C155.25492188 444.92683594 154.50984375 445.85367187 153.7421875 446.80859375 C145.21578693 457.33671201 136.40049353 467.59818392 127.16455078 477.50927734 C124.41148572 480.46362998 121.70465357 483.44608224 119.0625 486.5 C115.3555443 490.76479854 112.09160416 494.45419792 107 497 C106.67 497.99 106.34 498.98 106 500 C105.34 500 104.68 500 104 500 C104 500.66 104 501.32 104 502 C102.63671875 503.33984375 102.63671875 503.33984375 100.6875 504.9375 C97.11196665 507.96879287 93.79169374 511.162397 90.5 514.5 C86.79765886 518.24852551 83.02347938 521.8442859 79.015625 525.265625 C76.69885379 527.25912581 74.44580016 529.31554388 72.1875 531.375 C67.87090287 535.2704657 63.4259887 538.96858218 58.90625 542.625 C56.34683134 544.71656793 53.82367784 546.84110046 51.31103516 548.98803711 C44.65713007 554.67237316 37.85182455 560.12767346 30.93798828 565.49169922 C28.86797094 567.1027558 26.8066458 568.72451395 24.74609375 570.34765625 C15.88786117 577.30832075 6.91232421 584.06179611 -2.25952148 590.60375977 C-5.22565943 592.72378065 -8.18155167 594.85638499 -11.12426758 597.00878906 C-22.11756047 605.03889082 -33.33416658 612.67758652 -44.6875 620.1875 C-46.35764484 621.29588807 -48.02756711 622.40461157 -49.69726562 623.51367188 C-52.94516284 625.67061791 -56.19478368 627.82493009 -59.44555664 629.97753906 C-62.33591079 631.89291684 -65.22093426 633.81577573 -68.09936523 635.74902344 C-75.86265084 640.96127225 -83.70403194 646.00303744 -91.6875 650.875 C-92.80688965 651.56062012 -93.9262793 652.24624023 -95.07958984 652.95263672 C-108.99059831 661.46601945 -122.97713862 669.84084384 -137.0625 678.0625 C-138.06506836 678.649104 -139.06763672 679.23570801 -140.10058594 679.84008789 C-144.93340653 682.66054209 -149.78008755 685.44621022 -154.67578125 688.15625 C-155.55548584 688.64859131 -156.43519043 689.14093262 -157.34155273 689.64819336 C-158.98393824 690.56506136 -160.63289129 691.47030054 -162.28930664 692.36157227 C-163.01625732 692.76947998 -163.74320801 693.1773877 -164.4921875 693.59765625 C-165.12495605 693.94320557 -165.75772461 694.28875488 -166.40966797 694.64477539 C-169.62261321 697.38273348 -170.3223532 701.93781902 -171.24584961 705.91821289 C-171.47089172 706.87866013 -171.69593384 707.83910736 -171.92779541 708.82865906 C-172.16689636 709.86617813 -172.40599731 710.9036972 -172.65234375 711.97265625 C-173.1812323 714.23486362 -173.71012233 716.49707063 -174.23901367 718.75927734 C-174.51570892 719.94946472 -174.79240417 721.1396521 -175.07748413 722.36590576 C-179.88181656 743.01630097 -184.73019845 763.65707067 -190.06225586 784.17871094 C-192.16308769 792.31125162 -194.1370544 800.41677064 -195.68769836 808.67462158 C-196.40750802 812.48586439 -197.18591164 816.28421126 -197.96694946 820.08331299 C-198.31667747 821.87389955 -198.63660695 823.67061812 -198.9234314 825.47235107 C-201.05588703 838.82848228 -201.05588703 838.82848228 -205.84463501 842.36056519 C-210.51341773 844.78840066 -215.4530216 846.12969573 -220.54425049 847.37734985 C-224.12307714 848.28475386 -227.5638511 849.51970923 -231.04296875 850.74609375 C-232.37019976 851.1901029 -233.69859433 851.63064769 -235.02807617 852.06787109 C-237.9420395 853.02733567 -240.85504693 853.98954949 -243.7668457 854.95556641 C-247.07068054 856.05131886 -250.37499625 857.14560272 -253.6796875 858.23876953 C-263.35269092 861.43960762 -273.02055358 864.65592233 -282.6875 867.875 C-284.21837753 868.38474365 -284.21837753 868.38474365 -285.78018188 868.90478516 C-303.86470064 874.92945674 -321.91031198 881.06302652 -339.94223022 887.24302673 C-351.01701316 891.0366622 -362.10293636 894.7975634 -373.1875 898.5625 C-387.31219301 903.36031887 -401.43208108 908.17148047 -415.54208374 913.0123291 C-428.13567825 917.33182741 -440.74250166 921.60806024 -453.375 925.8125 C-454.09721741 926.05290009 -454.81943481 926.29330017 -455.5635376 926.54098511 C-462.90866163 928.98492371 -470.25580166 931.42276439 -477.60449219 933.85595703 C-483.65402517 935.85920565 -489.70241696 937.86587264 -495.75 939.875 C-496.75796631 940.20972321 -497.76593262 940.54444641 -498.80444336 940.88931274 C-515.27839985 946.36571789 -531.68420728 952.02132947 -548.04199219 957.83544922 C-548.83910614 958.11766327 -549.63622009 958.39987732 -550.45748901 958.69064331 C-551.93938296 959.2156057 -553.42034187 959.74321798 -554.900177 960.2739563 C-559.77581264 962 -559.77581264 962 -562 962 C-563.078125 960.58569336 -563.078125 960.58569336 -564.25 958.58984375 C-564.68803955 957.85540039 -565.1260791 957.12095703 -565.57739258 956.36425781 C-566.04685303 955.56342773 -566.51631348 954.76259766 -567 953.9375 C-570.48046015 948.11754601 -574.00601083 942.36267775 -577.8125 936.75 C-581.99146442 930.57214275 -586.0111931 924.30217564 -590 918 C-595.54230223 909.24709383 -601.19797486 900.58271922 -607 892 C-614.34553603 893.9182508 -621.53793841 896.10676769 -628.7109375 898.58984375 C-630.76105847 899.29250744 -632.81118906 899.99514302 -634.86132812 900.69775391 C-635.92295166 901.06298157 -636.9845752 901.42820923 -638.07836914 901.80450439 C-643.71269985 903.74092743 -649.35236477 905.66167307 -654.9921875 907.58203125 C-656.11683411 907.96498352 -657.24148071 908.34793579 -658.40020752 908.74249268 C-697.23834135 921.95136508 -736.47585654 933.94997102 -776 944.9375 C-776.76724396 945.15118225 -777.53448792 945.3648645 -778.32498169 945.58502197 C-780.44481751 946.17368729 -782.56578945 946.75797597 -784.6875 947.33984375 C-785.86699219 947.66331787 -787.04648437 947.98679199 -788.26171875 948.32006836 C-791 949 -791 949 -793 949 C-793.15843384 950.84259399 -793.15843384 950.84259399 -793.32006836 952.72241211 C-793.99496313 958.75358196 -795.43208431 964.55588498 -796.87890625 970.44140625 C-797.16513855 971.63054123 -797.45137085 972.81967621 -797.74627686 974.04484558 C-799.15299482 979.87023509 -800.58845664 985.6871666 -802.06556225 991.49503136 C-802.89881294 994.77249238 -803.72436678 998.05185951 -804.546875 1001.33203125 C-804.70891733 1001.97607784 -804.87095966 1002.62012444 -805.03791237 1003.28368759 C-806.9643994 1010.99332901 -808.51089691 1018.53900424 -809.265625 1026.44921875 C-810.90579152 1041.7872334 -810.90579152 1041.7872334 -816 1048 C-825.12500328 1054.77172002 -837.42711363 1057.09707104 -848.24430847 1059.76242065 C-857.64710357 1062.08179853 -866.69522474 1065.16509337 -875.8197937 1068.38989258 C-880.71309781 1070.10827964 -885.62707299 1071.76563651 -890.5390625 1073.4296875 C-892.69174906 1074.16108194 -894.84441774 1074.89252897 -896.99707031 1075.62402344 C-910.66046625 1080.26188656 -924.3303923 1084.88048522 -938 1089.5 C-938.74586994 1089.75206081 -939.49173988 1090.00412163 -940.26021194 1090.26382065 C-955.01030881 1095.24836321 -969.76110494 1100.23083549 -984.51220703 1105.21240234 C-993.10030756 1108.11269101 -1001.68823319 1111.01349703 -1010.27593613 1113.91496277 C-1011.79940986 1114.42968278 -1013.32289059 1114.9443821 -1014.84637833 1115.45906067 C-1033.04370952 1121.60673877 -1051.23501923 1127.77063714 -1069.40106201 1134.01031494 C-1081.05196544 1138.01122093 -1092.73091651 1141.92296181 -1104.42211914 1145.80438232 C-1115.86365276 1149.60425943 -1127.28368844 1153.46335451 -1138.6875 1157.375 C-1139.3916806 1157.61630646 -1140.09586121 1157.85761292 -1140.82138062 1158.10623169 C-1142.86436461 1158.80672547 -1144.90692948 1159.50842096 -1146.94921875 1160.2109375 C-1147.60089523 1160.43504807 -1148.25257172 1160.65915863 -1148.92399597 1160.89006042 C-1152.53165263 1162.13496876 -1156.13136411 1163.39999005 -1159.72509766 1164.68457031 C-1160.89502007 1165.1018187 -1160.89502007 1165.1018187 -1162.08857727 1165.52749634 C-1163.59674741 1166.06646285 -1165.10394451 1166.60816201 -1166.61003113 1167.15292358 C-1171.77898946 1169 -1171.77898946 1169 -1174 1169 C-1172.76307223 1161.83954238 -1171.31643248 1154.77146197 -1169.6015625 1147.7109375 C-1169.37094116 1146.7509938 -1169.14031982 1145.79105011 -1168.90270996 1144.80201721 C-1168.14660415 1141.65891427 -1167.38594274 1138.51693513 -1166.625 1135.375 C-1166.0856212 1133.13879028 -1165.54639884 1130.90254283 -1165.00732422 1128.66625977 C-1158.62657813 1102.22553556 -1152.1342564 1075.81213101 -1145.63916016 1049.39932251 C-1138.3591277 1019.79321178 -1131.10239027 990.18150485 -1123.875 960.5625 C-1123.65818321 959.67396584 -1123.44136642 958.78543167 -1123.21797943 957.86997223 C-1117.74249088 935.42847351 -1112.29590496 912.98068548 -1106.92617798 890.51361084 C-1101.02241294 865.8208937 -1094.93935976 841.1723495 -1088.86712646 816.52062988 C-1086.3667114 806.36866663 -1083.86876294 796.21609945 -1081.375 786.0625 C-1081.10712677 784.97190277 -1080.83925354 783.88130554 -1080.56326294 782.75765991 C-1076.65829043 766.85041644 -1072.81059013 750.93009652 -1069 735 C-1064.92549624 717.96661776 -1060.80235631 700.9459609 -1056.625 683.9375 C-1056.3607019 682.86112274 -1056.09640381 681.78474548 -1055.82409668 680.67575073 C-1053.08434798 669.52077648 -1050.3379606 658.36744293 -1047.5865078 647.21535015 C-1046.28084578 641.92305494 -1044.97660106 636.63041151 -1043.67316628 631.33756733 C-1042.58613774 626.92423025 -1041.49573939 622.51173324 -1040.40478516 618.09936523 C-1039.83743694 615.79674381 -1039.27021049 613.49409239 -1038.703125 611.19140625 C-1038.31346054 609.62019516 -1038.31346054 609.62019516 -1037.91592407 608.01724243 C-1036.77189062 603.36115319 -1035.683737 598.75136704 -1035 594 C-1035.99966797 594.81791016 -1035.99966797 594.81791016 -1037.01953125 595.65234375 C-1045.51302083 602.6015625 -1054.00651042 609.55078125 -1062.5 616.5 C-1063.41136719 617.24636719 -1064.32273437 617.99273438 -1065.26171875 618.76171875 C-1067.05319681 620.22607956 -1068.84736638 621.68715531 -1070.64453125 623.14453125 C-1077.60173149 628.79789308 -1084.41566195 634.60479785 -1091.20605469 640.45605469 C-1093.53581222 642.46114269 -1095.87159227 644.45913804 -1098.20751953 646.45703125 C-1100.5312387 648.44560492 -1102.85181419 650.43782422 -1105.171875 652.43066406 C-1106.4341323 653.51423643 -1107.69720458 654.5968599 -1108.9609375 655.67871094 C-1110.95557003 657.38714862 -1112.94682995 659.09944799 -1114.9375 660.8125 C-1115.54005615 661.3273999 -1116.1426123 661.8422998 -1116.76342773 662.37280273 C-1122.915992 667.68061354 -1128.57494508 673.37018219 -1133.87109375 679.53125 C-1135.53631456 681.46229504 -1137.21681179 683.37508674 -1138.91015625 685.28125 C-1154.39378824 702.79409603 -1167.93258236 721.6035802 -1179.02441406 742.1953125 C-1179.88353138 743.78455055 -1180.76432937 745.3620277 -1181.6484375 746.9375 C-1192.04218657 766.29517022 -1198.2077841 789.36226066 -1193.28125 811.18359375 C-1187.86067866 829.15091857 -1176.23600901 841.2649045 -1160 850 C-1153.189619 853.36117011 -1146.21088596 856.59637135 -1139 859 C-1142.07514678 872.11109939 -1145.18347871 885.21415576 -1148.3125 898.3125 C-1148.55532715 899.32899628 -1148.7981543 900.34549255 -1149.04833984 901.39279175 C-1152.06167903 913.99756485 -1155.10376255 926.59261743 -1158.28295898 939.15673828 C-1160.17505327 946.64949938 -1162.01495985 954.1537253 -1163.8359375 961.6640625 C-1164.08567322 962.69250778 -1164.33540894 963.72095306 -1164.5927124 964.78056335 C-1166.11228989 971.03860619 -1166.11228989 971.03860619 -1167.62475586 977.29837036 C-1168.32749935 980.21398892 -1169.03446988 983.12855426 -1169.7421875 986.04296875 C-1169.95539642 986.93315704 -1170.16860535 987.82334534 -1170.38827515 988.74050903 C-1171.88641063 994.88641063 -1171.88641063 994.88641063 -1173 996 C-1216.08813137 997.43654546 -1262.19455511 990.76605203 -1303 977 C-1303.88075195 976.70544922 -1304.76150391 976.41089844 -1305.66894531 976.10742188 C-1337.89142381 965.11736107 -1368.85563423 947.36897271 -1386 917 C-1386.75023437 915.69095703 -1386.75023437 915.69095703 -1387.515625 914.35546875 C-1390.98305714 907.89058774 -1393.07154982 901.05694869 -1395 894 C-1395.54527344 892.26943359 -1395.54527344 892.26943359 -1396.1015625 890.50390625 C-1397.63065617 884.30748208 -1397.24890595 877.90024057 -1397.1875 871.5625 C-1397.1865332 869.62600586 -1397.1865332 869.62600586 -1397.18554688 867.65039062 C-1397.14047619 858.14047619 -1397.14047619 858.14047619 -1396 857 C-1395.60301927 854.95960442 -1395.21168179 852.91795668 -1394.84814453 850.87133789 C-1386.145782 802.6580941 -1356.99006506 758.67252895 -1326.1328125 721.56640625 C-1324.69551961 719.83691645 -1323.27386442 718.0943254 -1321.8671875 716.33984375 C-1316.41347171 709.54713323 -1310.61510435 703.15916218 -1304.66381836 696.80737305 C-1303.47847476 695.51975768 -1302.30902091 694.21743767 -1301.15063477 692.90551758 C-1294.69057294 685.59490995 -1287.8506955 678.69831766 -1280.94311523 671.81274414 C-1278.93422136 669.80923014 -1276.93075611 667.80039848 -1274.92773438 665.79101562 C-1268.78565259 659.64574339 -1262.6283817 653.62417237 -1256 648 C-1254.04525669 646.22634839 -1252.11900857 644.42413945 -1250.1875 642.625 C-1245.56566169 638.35480741 -1240.80576052 634.31774627 -1235.90234375 630.37109375 C-1232.61036472 627.68168423 -1229.40005506 624.90818046 -1226.1875 622.125 C-1219.91314997 616.71245492 -1213.47073664 611.55716096 -1206.91748047 606.48779297 C-1204.86710005 604.89688155 -1202.82563094 603.29499999 -1200.78515625 601.69140625 C-1190.76832341 593.83383109 -1180.61170619 586.18992028 -1170.32177734 578.69384766 C-1168.09127349 577.06658838 -1165.86745137 575.43056524 -1163.64453125 573.79296875 C-1152.38216069 565.53406684 -1140.80583326 557.78390189 -1129.15380859 550.08789062 C-1125.93647836 547.95794728 -1122.72685725 545.81684968 -1119.51953125 543.671875 C-1118.45879395 542.96264893 -1117.39805664 542.25342285 -1116.30517578 541.52270508 C-1114.29666643 540.17934734 -1112.28850145 538.83547451 -1110.28076172 537.4909668 C-1100.56234231 531.00157061 -1090.68831172 524.77106119 -1080.75 518.625 C-1079.83959961 518.06192139 -1078.92919922 517.49884277 -1077.99121094 516.91870117 C-1070.36703457 512.2116652 -1062.70783938 507.56860161 -1055 503 C-1054.38366699 502.63406738 -1053.76733398 502.26813477 -1053.13232422 501.89111328 C-1042.41379544 495.53423691 -1031.62205635 489.30464734 -1020.82104492 483.08935547 C-1019.75088135 482.47334473 -1018.68071777 481.85733398 -1017.578125 481.22265625 C-1016.62325195 480.67359619 -1015.66837891 480.12453613 -1014.68457031 479.55883789 C-1012.86423568 478.50183201 -1011.06162602 477.41381066 -1009.27636719 476.29858398 C-1007 475 -1007 475 -1005 475 C-1004.85667236 474.22317871 -1004.71334473 473.44635742 -1004.56567383 472.64599609 C-1002.04987868 459.5353081 -998.84162934 446.59396863 -995.6875 433.625 C-995.0703244 431.07832432 -994.45330235 428.53161141 -993.83642578 425.98486328 C-988.00020107 401.90751015 -982.12930108 377.83753972 -976.16725159 353.79104614 C-975.02450933 349.18204445 -973.89314249 344.57234096 -972.82128906 339.94628906 C-972.64409332 339.19606476 -972.46689758 338.44584045 -972.28433228 337.67288208 C-971.83014951 335.74473926 -971.38647307 333.81412948 -970.94384766 331.88330078 C-969.96683863 328.89869742 -969.33223733 327.97441784 -967 326 C-964.32287006 324.94017215 -961.69841429 324.00890295 -958.9609375 323.13671875 C-958.14477966 322.86840744 -957.32862183 322.60009613 -956.48773193 322.32365417 C-954.71642987 321.7423489 -952.94378544 321.16512172 -951.16998291 320.5914917 C-947.36606212 319.36117548 -943.56863814 318.11137946 -939.77084351 316.86230469 C-937.79526359 316.21259464 -935.81936772 315.56384459 -933.84317017 314.91601562 C-923.90744655 311.65491853 -914.01481119 308.27225344 -904.125 304.875 C-890.83932937 300.31906338 -877.53454389 295.82727931 -864.20391846 291.40472412 C-850.94603554 287.00418649 -837.72029578 282.51208162 -824.5 278 C-810.68263571 273.2842978 -796.85712607 268.59759563 -783 264 C-770.06258814 259.7058087 -757.15075907 255.3405373 -744.25 250.9375 C-722.59355548 243.54705295 -700.91627225 236.21888727 -679.23490906 228.90193558 C-676.59564049 228.01118489 -673.95644127 227.12022902 -671.31726074 226.22921753 C-669.60180993 225.65011639 -667.88635586 225.0710249 -666.17089844 224.49194336 C-665.33378389 224.2093419 -664.49666935 223.92674044 -663.6341877 223.63557529 C-659.5475798 222.25632972 -655.46045268 220.87865956 -651.37216187 219.50440979 C-649.81857779 218.98212254 -648.26499899 218.45981958 -646.71142578 217.9375 C-645.965063 217.68660583 -645.21870022 217.43571165 -644.44972038 217.17721462 C-639.74773338 215.59450323 -635.05354493 213.99070604 -630.36279297 212.375 C-629.23397202 211.98940918 -628.10515106 211.60381836 -626.94212341 211.20654297 C-624.90305642 210.50970502 -622.86627791 209.80611586 -620.83241272 209.09423828 C-619.52306007 208.64927002 -619.52306007 208.64927002 -618.18725586 208.1953125 C-617.44293808 207.93766113 -616.6986203 207.68000977 -615.93174744 207.41455078 C-614 207 -614 207 -611 208 C-609.73242188 209.58789062 -609.73242188 209.58789062 -608.46875 211.65625 C-607.99405273 212.42211426 -607.51935547 213.18797852 -607.03027344 213.97705078 C-606.27278809 215.22591064 -606.27278809 215.22591064 -605.5 216.5 C-604.4123269 218.25835007 -603.32376884 220.016153 -602.234375 221.7734375 C-601.41549805 223.10133301 -601.41549805 223.10133301 -600.58007812 224.45605469 C-598.35149201 228.04410588 -596.0565726 231.58677089 -593.75 235.125 C-588.34009107 243.44886658 -582.99456147 251.81352866 -577.65722656 260.18408203 C-573.8361165 266.16731147 -569.96692684 272.11233346 -566 278 C-557.29650007 275.8252999 -548.86167292 272.967797 -540.39822388 270.02093506 C-508.31780595 258.87229074 -476.0092965 248.5111115 -443.50089645 238.68634796 C-441.47642702 238.07426921 -439.45231453 237.4610219 -437.42825317 236.84759521 C-423.75994552 232.70890141 -410.06922433 228.67165938 -396.28515625 224.93359375 C-395.18739365 224.63453629 -394.08963104 224.33547882 -392.95860291 224.02735901 C-391.95269608 223.75850388 -390.94678925 223.48964874 -389.91040039 223.21264648 C-389.03057999 222.97706528 -388.15075958 222.74148407 -387.24427795 222.49876404 C-385 222 -385 222 -382 222 C-381.68651611 220.54907959 -381.68651611 220.54907959 -381.36669922 219.06884766 C-378.45576676 205.72553828 -375.26081163 192.45313606 -372.04638672 179.18017578 C-371.13181466 175.40314343 -370.22000141 171.62545328 -369.30859375 167.84765625 C-367.83517159 161.74450321 -366.34882189 155.64457676 -364.85949707 149.54528809 C-364.00177018 146.00730172 -363.16125424 142.46555336 -362.32324219 138.92285156 C-361.79652385 136.73234974 -361.26952003 134.54191654 -360.7421875 132.3515625 C-360.39185959 130.84207535 -360.39185959 130.84207535 -360.03445435 129.30209351 C-359.81022797 128.38078644 -359.58600159 127.45947937 -359.35498047 126.51025391 C-359.16467255 125.70746002 -358.97436462 124.90466614 -358.77828979 124.07754517 C-357.86187671 121.63129753 -357.07294477 120.58768217 -355 119 C-352.52340698 117.936203 -352.52340698 117.936203 -349.52685547 116.95385742 C-347.83142609 116.39053207 -347.83142609 116.39053207 -346.10174561 115.81582642 C-344.25313934 115.21669937 -344.25313934 115.21669937 -342.3671875 114.60546875 C-341.07095212 114.17811256 -339.77499797 113.74990255 -338.47930908 113.32089233 C-335.71897961 112.40866932 -332.95694928 111.50187956 -330.19342041 110.59939575 C-325.85229476 109.18150421 -321.51531457 107.75124569 -317.17919922 106.31811523 C-315.72781552 105.83851079 -314.27643002 105.35891179 -312.82504272 104.87931824 C-312.1086198 104.64256063 -311.39219688 104.40580303 -310.65406418 104.16187096 C-308.48317428 103.44491595 -306.31190727 102.72911403 -304.14053345 102.0136261 C-292.77737891 98.2679939 -281.44138012 94.44729152 -270.125 90.5625 C-268.50937334 90.00882779 -266.89373213 89.45519805 -265.27807617 88.90161133 C-262.1158324 87.81750595 -258.95400081 86.73220927 -255.79248047 85.64599609 C-229.36015273 76.56530582 -202.89587153 67.58974649 -176.36987305 58.78649902 C-169.53949361 56.51967432 -162.70972927 54.25101466 -155.881073 51.97900391 C-153.48959797 51.18388186 -151.09749573 50.39067383 -148.70532227 49.59765625 C-136.74783722 45.62483287 -124.8242981 41.55441607 -112.90234375 37.4765625 C-98.28471718 32.47669537 -83.65658945 27.50924192 -69.015625 22.578125 C-68.11606771 22.27508831 -67.21651043 21.97205162 -66.28969383 21.659832 C-58.05589265 18.88628309 -49.82133609 16.11498045 -41.58642578 13.34472656 C-36.99355518 11.7995737 -32.40114548 10.25305751 -27.80901337 8.70571136 C-26.08843807 8.12627234 -24.36768242 7.54736856 -22.64673615 6.96903229 C-20.27610333 6.17236234 -17.90605684 5.37397082 -15.53613281 4.57519531 C-14.84241074 4.34255981 -14.14868866 4.10992432 -13.4339447 3.87023926 C-10.65716084 2.9326897 -7.92220624 1.96755366 -5.2164917 0.83905029 C-3 0 -3 0 0 0 Z M-399.14453125 250.2890625 C-399.96825729 250.54320923 -400.79198334 250.79735596 -401.64067078 251.0592041 C-404.3678437 251.90447482 -407.09032334 252.76378405 -409.8125 253.625 C-410.75480469 253.92065857 -411.69710937 254.21631714 -412.66796875 254.52093506 C-454.94107843 267.78565641 -496.4644777 283.01162251 -537.5625 299.5625 C-538.64942139 299.9970752 -539.73634277 300.43165039 -540.85620117 300.87939453 C-541.81244385 301.2711084 -542.76868652 301.66282227 -543.75390625 302.06640625 C-544.96542358 302.5605603 -544.96542358 302.5605603 -546.20141602 303.06469727 C-548.17954181 303.86973881 -548.17954181 303.86973881 -549 306 C-547.55426081 308.49972969 -546.05130737 310.86077258 -544.4375 313.25 C-543.41169279 314.80007525 -542.38700709 316.35089311 -541.36328125 317.90234375 C-540.81494629 318.72976074 -540.26661133 319.55717773 -539.70166016 320.40966797 C-536.78917889 324.8431581 -533.96176296 329.33034339 -531.125 333.8125 C-526.14666096 341.65573865 -521.11486017 349.4615961 -516.04003906 357.24267578 C-511.61538871 364.03452742 -507.23989497 370.85711938 -502.875 377.6875 C-497.04672161 386.80759333 -491.19382612 395.91078138 -485.30322266 404.99072266 C-482.99152964 408.55483535 -480.68316379 412.12110107 -478.375 415.6875 C-477.91569092 416.39712891 -477.45638184 417.10675781 -476.9831543 417.83789062 C-473.78281972 422.78453825 -470.59317799 427.7379471 -467.41137695 432.6965332 C-465.39835034 435.83172077 -463.37761736 438.96168335 -461.34765625 442.0859375 C-455.12829936 451.66100731 -449.01961817 461.29809914 -443 471 C-441.31002224 467.91701747 -440.383458 464.97766478 -439.56152344 461.56420898 C-439.29145981 460.4531781 -439.02139618 459.34214722 -438.7431488 458.19744873 C-438.45150345 456.97600159 -438.15985809 455.75455444 -437.859375 454.49609375 C-437.54213774 453.18302299 -437.22446253 451.87005797 -436.90638733 450.55718994 C-436.21537734 447.70086707 -435.52749024 444.84381595 -434.84194946 441.98617554 C-433.73238183 437.36111629 -432.6159872 432.73772065 -431.4987793 428.11450195 C-429.8685826 421.3654277 -428.24162225 414.61558017 -426.61669922 407.86523438 C-422.49807735 390.75675367 -418.36280279 373.65229123 -414.22869873 356.54754639 C-413.28526231 352.64400896 -412.34211814 348.74040109 -411.39923096 344.83673096 C-403.67818631 312.87161197 -395.8879955 280.92436782 -388 249 C-392.14509091 247.61830303 -395.13197958 249.01630064 -399.14453125 250.2890625 Z M-732 699 C-732.1443045 699.60005356 -732.28860901 700.20010712 -732.43728638 700.81834412 C-739.61178312 730.6460615 -746.82847022 760.46241867 -754.16210938 790.25146484 C-757.9996641 805.8426258 -761.82148224 821.43756357 -765.6328125 837.03515625 C-765.87890511 838.04223507 -766.12499771 839.04931389 -766.37854767 840.08691025 C-768.86020861 850.24295093 -771.3410182 860.39919936 -773.82097054 870.55565739 C-774.75512992 874.38108615 -775.6896212 878.20643379 -776.62417221 882.03176689 C-777.0592467 883.81301324 -777.49416162 885.59429858 -777.92889786 887.37562752 C-778.33812098 889.05241599 -778.74760262 890.7291414 -779.15736198 892.40579891 C-779.54571098 893.99593232 -779.93313633 895.58629164 -780.31955147 897.1768961 C-781.25334338 901.00838977 -782.21144324 904.83102885 -783.2164917 908.64450073 C-783.40848333 909.38170569 -783.60047497 910.11891066 -783.79828453 910.87845516 C-784.16036457 912.26347161 -784.52908223 913.64677652 -784.90564919 915.02792454 C-785.74415318 918.25202519 -786.0794907 919.76152789 -785 923 C-738.22181134 908.97824213 -692.41868458 892.94076057 -647 875 C-645.77361816 874.5162793 -644.54723633 874.03255859 -643.28369141 873.53417969 C-640.12266171 872.2824029 -636.96635983 871.0197151 -633.8125 869.75 C-632.91015625 869.39147949 -632.0078125 869.03295898 -631.078125 868.66357422 C-630.27503906 868.33631348 -629.47195313 868.00905273 -628.64453125 867.671875 C-627.95721924 867.3944043 -627.26990723 867.11693359 -626.56176758 866.83105469 C-624.80286356 866.08865602 -624.80286356 866.08865602 -624 864 C-624.81852623 862.19500981 -624.81852623 862.19500981 -626.140625 860.24609375 C-626.62837402 859.48321045 -627.11612305 858.72032715 -627.61865234 857.93432617 C-628.15699707 857.11037354 -628.6953418 856.2864209 -629.25 855.4375 C-629.79994629 854.58196533 -630.34989258 853.72643066 -630.91650391 852.8449707 C-632.60320598 850.22484392 -634.30056906 847.61188382 -636 845 C-636.91978468 843.57845735 -637.83909196 842.15660562 -638.7578125 840.734375 C-640.07550435 838.69575602 -641.39424863 836.65785977 -642.71630859 834.62207031 C-646.47327021 828.83413867 -650.17747404 823.01353597 -653.875 817.1875 C-658.85582368 809.3427027 -663.887869 801.53389854 -668.96435547 793.75073242 C-673.34673415 787.02409125 -677.67844538 780.26584728 -682 773.5 C-686.80347852 765.98024839 -691.62640895 758.47451125 -696.5 751 C-701.41440424 743.46248065 -706.27865647 735.89394813 -711.125 728.3125 C-711.79934082 727.2594165 -712.47368164 726.20633301 -713.16845703 725.12133789 C-716.25539228 720.29983544 -719.33499541 715.47422323 -722.390625 710.6328125 C-723.38535248 709.06766754 -724.38013966 707.50256052 -725.375 705.9375 C-725.82117676 705.22311768 -726.26735352 704.50873535 -726.72705078 703.77270508 C-727.76503199 702.14672621 -728.87489529 700.56695618 -730 699 C-730.66 699 -731.32 699 -732 699 Z " fill="#E65A24" transform="translate(1478,98)"/>
<path d="M0 0 C-0.70644552 5.69679977 -1.91115038 11.18257923 -3.265625 16.7578125 C-3.49492706 17.7124791 -3.72422913 18.66714569 -3.96047974 19.65074158 C-4.72031312 22.80964302 -5.48502042 25.96734116 -6.25 29.125 C-6.79132711 31.36902337 -7.3325026 33.61308333 -7.87353516 35.85717773 C-14.68379882 64.06979214 -21.61738695 92.2525621 -28.57441711 120.42929077 C-30.03041867 126.32745651 -31.48451271 132.22609103 -32.9375 138.125 C-33.37151627 139.88680603 -33.37151627 139.88680603 -33.81430054 141.6842041 C-38.68244627 161.46412415 -43.40323079 181.27700141 -48.08190918 201.10247803 C-51.68121917 216.34535092 -55.34683419 231.56615318 -59.1875 246.75 C-64.44145353 267.52157357 -69.43975212 288.3531659 -74.4375 309.1875 C-76.10770256 316.14852639 -77.77823362 323.10947392 -79.44921875 330.0703125 C-79.6513693 330.91245867 -79.85351986 331.75460484 -80.06179619 332.62227058 C-83.25997205 345.94337302 -86.4820075 359.25832855 -89.75 372.5625 C-89.9679422 373.44997925 -90.1858844 374.3374585 -90.41043091 375.25183105 C-91.36754908 379.14842541 -92.32510145 383.04491278 -93.28312683 386.94128418 C-97.7375126 405.06114644 -102.17280717 423.18569743 -106.60939026 441.30992508 C-107.37229081 444.42643274 -108.13530259 447.54291314 -108.89831543 450.65939331 C-115.76359695 478.70285686 -122.59572369 506.75372437 -129.32772827 534.82951355 C-130.04651029 537.81636823 -130.77272033 540.80133743 -131.5 543.78613281 C-132.61705685 548.37700498 -133.68879907 552.97696611 -134.75 557.58105469 C-135.35370256 560.13487538 -135.9578607 562.68858843 -136.5625 565.2421875 C-136.8313501 566.43997833 -137.1002002 567.63776917 -137.37719727 568.87185669 C-139.8401542 579.12460727 -139.8401542 579.12460727 -145 583 C-145.93392578 583.79144409 -145.93392578 583.79144409 -146.88671875 584.59887695 C-147.48097656 585.05738037 -148.07523438 585.51588379 -148.6875 585.98828125 C-149.37513428 586.52130859 -150.06276855 587.05433594 -150.77124023 587.60351562 C-151.50673096 588.16748047 -152.24222168 588.73144531 -153 589.3125 C-153.7825415 589.91642578 -154.56508301 590.52035156 -155.37133789 591.14257812 C-157.9108543 593.09948045 -160.45500725 595.05022646 -163 597 C-163.85319824 597.65532715 -164.70639648 598.3106543 -165.58544922 598.98583984 C-188.6158907 616.66660539 -212.05588644 633.78388221 -235.81933594 650.46533203 C-238.00110166 652.00077531 -240.17672099 653.54461257 -242.3515625 655.08984375 C-271.89109876 676.00749032 -302.31096715 695.81777386 -333 715 C-333.80018555 715.50176758 -334.60037109 716.00353516 -335.42480469 716.52050781 C-350.46200184 725.94176004 -365.7034755 735.00822993 -381 744 C-382.55388428 744.91531494 -382.55388428 744.91531494 -384.13916016 745.84912109 C-406.07766481 758.76387677 -428.27573815 771.19534596 -450.70751953 783.23242188 C-452.9806264 784.45274619 -455.25253435 785.6750849 -457.52294922 786.90039062 C-480.10934091 799.08370685 -503.00165444 810.61617386 -526 822 C-526.99046658 818.49595758 -526.85045395 816.40181579 -525.9609375 812.84375 C-525.70957031 811.81894531 -525.45820312 810.79414062 -525.19921875 809.73828125 C-524.92722656 808.66964844 -524.65523437 807.60101562 -524.375 806.5 C-524.12621094 805.49324219 -523.87742187 804.48648438 -523.62109375 803.44921875 C-522.7572178 799.96362973 -521.87827207 796.48198924 -521 793 C-520.40832853 790.63476381 -519.81801776 788.26919015 -519.22772217 785.90361023 C-517.55192008 779.18866463 -515.86975451 772.47540287 -514.17222595 765.76591492 C-509.67937477 748.00692603 -505.29895149 730.24141152 -501.33911133 712.35546875 C-499.62914038 704.66597352 -497.76903483 697.04307549 -495.7019043 689.44238281 C-494.31213863 684.30295904 -493.11644453 679.14272687 -492 673.9375 C-490.72431194 667.99330909 -489.24761442 662.1534929 -487.5625 656.3125 C-485.27284966 648.36523731 -483.51066519 640.3469112 -481.80712891 632.25610352 C-480.45383729 625.89541965 -478.83227627 619.72781542 -476.9609375 613.5 C-475.80282544 609.28183573 -474.92607143 605.0364624 -474.0625 600.75 C-472.60768633 593.53461688 -470.81474515 586.48800631 -468.78540039 579.41455078 C-467.20938079 573.87994434 -465.95254382 568.32521307 -464.79296875 562.6875 C-463.88720024 558.47545332 -462.86531594 554.30228825 -461.8125 550.125 C-461.6069751 549.3093457 -461.4014502 548.49369141 -461.18969727 547.65332031 C-460.72830105 545.82667145 -460.26626243 544.00018478 -459.80371094 542.17382812 C-458.17510701 535.74252464 -456.55281361 529.30965344 -454.9375 522.875 C-454.67502975 521.82968109 -454.67502975 521.82968109 -454.40725708 520.76324463 C-452.25033918 512.1598432 -450.16289653 503.549058 -448.29223633 494.87817383 C-447.32699958 490.41348595 -446.25773278 485.98752522 -445.125 481.5625 C-443.38216277 474.70775563 -441.84578284 467.81953297 -440.3359375 460.91015625 C-437.09457629 446.21352411 -433.57710011 431.58735829 -430.01010895 416.96722412 C-429.30965103 414.09427912 -428.61127118 411.22083036 -427.91283607 408.34739304 C-422.79779568 387.30493273 -417.63864877 366.27333284 -412.46240234 345.24584961 C-407.3128978 324.31873192 -402.21578672 303.37896418 -397.125 282.4375 C-396.92067604 281.59701111 -396.71635208 280.75652222 -396.50583649 279.89056396 C-394.00280454 269.59397319 -391.50084531 259.29712208 -389 249 C-395.71392419 250.63846962 -402.37465638 252.33285183 -408.97265625 254.390625 C-409.6815097 254.6115834 -410.39036316 254.83254181 -411.12069702 255.06019592 C-413.43631924 255.78489 -415.74968191 256.51640834 -418.0625 257.25 C-418.87590851 257.50743988 -419.68931702 257.76487976 -420.52737427 258.03012085 C-457.29139022 269.69576665 -493.68517581 282.66637898 -529.328125 297.421875 C-529.96991699 297.68691833 -530.61170898 297.95196167 -531.27294922 298.22503662 C-534.2297975 299.44815403 -537.18028239 300.68374827 -540.12304688 301.94042969 C-541.12916016 302.36227539 -542.13527344 302.78412109 -543.171875 303.21875 C-544.0390918 303.58935547 -544.90630859 303.95996094 -545.79980469 304.34179688 C-548 305 -548 305 -551 304 C-552.7175293 301.80688477 -552.7175293 301.80688477 -554.57421875 298.94140625 C-555.24130859 297.91595703 -555.90839844 296.89050781 -556.59570312 295.83398438 C-557.28599609 294.75439453 -557.97628906 293.67480469 -558.6875 292.5625 C-559.38939453 291.48677734 -560.09128906 290.41105469 -560.81445312 289.30273438 C-566 281.27496356 -566 281.27496356 -566 279 C-523.36700105 263.88108772 -480.49425636 249.67080387 -437.125 236.8125 C-436.10664755 236.51033821 -436.10664755 236.51033821 -435.06772232 236.20207214 C-421.50966379 232.18088604 -407.93832363 228.20755508 -394.3046875 224.44921875 C-393.39606964 224.19678909 -392.48745178 223.94435944 -391.55130005 223.6842804 C-390.72467865 223.4593541 -389.89805725 223.2344278 -389.04638672 223.00268555 C-388.33215546 222.80740768 -387.61792419 222.61212982 -386.88204956 222.41093445 C-385 222 -385 222 -382 222 C-381.68651611 220.54907959 -381.68651611 220.54907959 -381.36669922 219.06884766 C-378.45576676 205.72553828 -375.26081163 192.45313606 -372.04638672 179.18017578 C-371.13181466 175.40314343 -370.22000141 171.62545328 -369.30859375 167.84765625 C-367.83517159 161.74450321 -366.34882189 155.64457676 -364.85949707 149.54528809 C-364.00177018 146.00730172 -363.16125424 142.46555336 -362.32324219 138.92285156 C-361.79652385 136.73234974 -361.26952003 134.54191654 -360.7421875 132.3515625 C-360.50863556 131.34523773 -360.27508362 130.33891296 -360.03445435 129.30209351 C-359.81022797 128.38078644 -359.58600159 127.45947937 -359.35498047 126.51025391 C-359.16467255 125.70746002 -358.97436462 124.90466614 -358.77828979 124.07754517 C-357.86187671 121.63129753 -357.07294477 120.58768217 -355 119 C-352.52340698 117.936203 -352.52340698 117.936203 -349.52685547 116.95385742 C-348.39656921 116.57830719 -347.26628296 116.20275696 -346.10174561 115.81582642 C-344.25313934 115.21669937 -344.25313934 115.21669937 -342.3671875 114.60546875 C-341.07095212 114.17811256 -339.77499797 113.74990255 -338.47930908 113.32089233 C-335.71897961 112.40866932 -332.95694928 111.50187956 -330.19342041 110.59939575 C-325.85229476 109.18150421 -321.51531457 107.75124569 -317.17919922 106.31811523 C-315.72781552 105.83851079 -314.27643002 105.35891179 -312.82504272 104.87931824 C-312.1086198 104.64256063 -311.39219688 104.40580303 -310.65406418 104.16187096 C-308.48317428 103.44491595 -306.31190727 102.72911403 -304.14053345 102.0136261 C-292.77737891 98.2679939 -281.44138012 94.44729152 -270.125 90.5625 C-268.50937334 90.00882779 -266.89373213 89.45519805 -265.27807617 88.90161133 C-262.1158324 87.81750595 -258.95400081 86.73220927 -255.79248047 85.64599609 C-229.36015273 76.56530582 -202.89587153 67.58974649 -176.36987305 58.78649902 C-169.53949361 56.51967432 -162.70972927 54.25101466 -155.881073 51.97900391 C-153.48959797 51.18388186 -151.09749573 50.39067383 -148.70532227 49.59765625 C-136.74783722 45.62483287 -124.8242981 41.55441607 -112.90234375 37.4765625 C-98.28471718 32.47669537 -83.65658945 27.50924192 -69.015625 22.578125 C-67.66628907 22.12356997 -67.66628907 22.12356997 -66.28969383 21.659832 C-58.05589265 18.88628309 -49.82133609 16.11498045 -41.58642578 13.34472656 C-36.99355518 11.7995737 -32.40114548 10.25305751 -27.80901337 8.70571136 C-26.08843807 8.12627234 -24.36768242 7.54736856 -22.64673615 6.96903229 C-20.27610333 6.17236234 -17.90605684 5.37397082 -15.53613281 4.57519531 C-14.84241074 4.34255981 -14.14868866 4.10992432 -13.4339447 3.87023926 C-10.65716084 2.9326897 -7.92220624 1.96755366 -5.2164917 0.83905029 C-3 0 -3 0 0 0 Z " fill="#E65B23" transform="translate(1478,98)"/>
<path d="M0 0 C14.04544584 -0.1375086 27.95209573 -0.11382184 41.9375 1.25 C43.00245697 1.3498671 43.00245697 1.3498671 44.08892822 1.45175171 C99.73694666 6.68160853 167.25318879 19.08353787 205.05517578 64.65869141 C221.10174349 84.96772603 226.80560513 110.05809179 224.2890625 135.53808594 C218.45418959 185.23306776 188.83105071 231.01345621 158 269 C157.25492188 269.92683594 156.50984375 270.85367187 155.7421875 271.80859375 C147.21578693 282.33671201 138.40049353 292.59818392 129.16455078 302.50927734 C126.41148572 305.46362998 123.70465357 308.44608224 121.0625 311.5 C117.3555443 315.76479854 114.09160416 319.45419792 109 322 C108.67 322.99 108.34 323.98 108 325 C107.34 325 106.68 325 106 325 C106 325.66 106 326.32 106 327 C104.63671875 328.33984375 104.63671875 328.33984375 102.6875 329.9375 C99.11196665 332.96879287 95.79169374 336.162397 92.5 339.5 C88.79765886 343.24852551 85.02347938 346.8442859 81.015625 350.265625 C78.69885379 352.25912581 76.44580016 354.31554388 74.1875 356.375 C69.87090287 360.2704657 65.4259887 363.96858218 60.90625 367.625 C58.34683134 369.71656793 55.82367784 371.84110046 53.31103516 373.98803711 C46.65713007 379.67237316 39.85182455 385.12767346 32.93798828 390.49169922 C30.86797094 392.1027558 28.8066458 393.72451395 26.74609375 395.34765625 C17.88786117 402.30832075 8.91232421 409.06179611 -0.25952148 415.60375977 C-3.22565943 417.72378065 -6.18155167 419.85638499 -9.12426758 422.00878906 C-20.11756047 430.03889082 -31.33416658 437.67758652 -42.6875 445.1875 C-44.35764484 446.29588807 -46.02756711 447.40461157 -47.69726562 448.51367188 C-50.94516284 450.67061791 -54.19478368 452.82493009 -57.44555664 454.97753906 C-60.33591079 456.89291684 -63.22093426 458.81577573 -66.09936523 460.74902344 C-73.86265084 465.96127225 -81.70403194 471.00303744 -89.6875 475.875 C-90.80688965 476.56062012 -91.9262793 477.24624023 -93.07958984 477.95263672 C-106.99059831 486.46601945 -120.97713862 494.84084384 -135.0625 503.0625 C-136.56635254 503.94240601 -136.56635254 503.94240601 -138.10058594 504.84008789 C-142.93340653 507.66054209 -147.78008755 510.44621022 -152.67578125 513.15625 C-153.99533813 513.89476196 -153.99533813 513.89476196 -155.34155273 514.64819336 C-156.98393824 515.56506136 -158.63289129 516.47030054 -160.28930664 517.36157227 C-161.01625732 517.76947998 -161.74320801 518.1773877 -162.4921875 518.59765625 C-163.12495605 518.94320557 -163.75772461 519.28875488 -164.40966797 519.64477539 C-167.62261321 522.38273348 -168.3223532 526.93781902 -169.24584961 530.91821289 C-169.47089172 531.87866013 -169.69593384 532.83910736 -169.92779541 533.82865906 C-170.16689636 534.86617813 -170.40599731 535.9036972 -170.65234375 536.97265625 C-171.1812323 539.23486362 -171.71012233 541.49707063 -172.23901367 543.75927734 C-172.51570892 544.94946472 -172.79240417 546.1396521 -173.07748413 547.36590576 C-177.88181656 568.01630097 -182.73019845 588.65707067 -188.06225586 609.17871094 C-190.16308769 617.31125162 -192.1370544 625.41677064 -193.68769836 633.67462158 C-194.40750802 637.48586439 -195.18591164 641.28421126 -195.96694946 645.08331299 C-196.31667747 646.87389955 -196.63660695 648.67061812 -196.9234314 650.47235107 C-199.05588703 663.82848228 -199.05588703 663.82848228 -203.84463501 667.36056519 C-208.51341773 669.78840066 -213.4530216 671.12969573 -218.54425049 672.37734985 C-222.12307714 673.28475386 -225.5638511 674.51970923 -229.04296875 675.74609375 C-230.37019976 676.1901029 -231.69859433 676.63064769 -233.02807617 677.06787109 C-235.9420395 678.02733567 -238.85504693 678.98954949 -241.7668457 679.95556641 C-245.07068054 681.05131886 -248.37499625 682.14560272 -251.6796875 683.23876953 C-261.35269092 686.43960762 -271.02055358 689.65592233 -280.6875 692.875 C-282.21837753 693.38474365 -282.21837753 693.38474365 -283.78018188 693.90478516 C-301.86470064 699.92945674 -319.91031198 706.06302652 -337.94223022 712.24302673 C-349.01701316 716.0366622 -360.10293636 719.7975634 -371.1875 723.5625 C-385.31219301 728.36031887 -399.43208108 733.17148047 -413.54208374 738.0123291 C-426.13567825 742.33182741 -438.74250166 746.60806024 -451.375 750.8125 C-452.45832611 751.17310013 -452.45832611 751.17310013 -453.5635376 751.54098511 C-460.90866163 753.98492371 -468.25580166 756.42276439 -475.60449219 758.85595703 C-481.65402517 760.85920565 -487.70241696 762.86587264 -493.75 764.875 C-494.75796631 765.20972321 -495.76593262 765.54444641 -496.80444336 765.88931274 C-513.27839985 771.36571789 -529.68420728 777.02132947 -546.04199219 782.83544922 C-547.23766312 783.25877029 -547.23766312 783.25877029 -548.45748901 783.69064331 C-549.93938296 784.2156057 -551.42034187 784.74321798 -552.900177 785.2739563 C-557.77581264 787 -557.77581264 787 -560 787 C-561.078125 785.58569336 -561.078125 785.58569336 -562.25 783.58984375 C-562.68803955 782.85540039 -563.1260791 782.12095703 -563.57739258 781.36425781 C-564.04685303 780.56342773 -564.51631348 779.76259766 -565 778.9375 C-568.48046015 773.11754601 -572.00601083 767.36267775 -575.8125 761.75 C-579.99146442 755.57214275 -584.0111931 749.30217564 -588 743 C-593.54230223 734.24709383 -599.19797486 725.58271922 -605 717 C-612.34553603 718.9182508 -619.53793841 721.10676769 -626.7109375 723.58984375 C-628.76105847 724.29250744 -630.81118906 724.99514302 -632.86132812 725.69775391 C-633.92295166 726.06298157 -634.9845752 726.42820923 -636.07836914 726.80450439 C-641.71269985 728.74092743 -647.35236477 730.66167307 -652.9921875 732.58203125 C-654.11683411 732.96498352 -655.24148071 733.34793579 -656.40020752 733.74249268 C-695.23834135 746.95136508 -734.47585654 758.94997102 -774 769.9375 C-774.76724396 770.15118225 -775.53448792 770.3648645 -776.32498169 770.58502197 C-778.44481751 771.17368729 -780.56578945 771.75797597 -782.6875 772.33984375 C-783.86699219 772.66331787 -785.04648437 772.98679199 -786.26171875 773.32006836 C-789 774 -789 774 -791 774 C-790.5696914 771.54022178 -790.13089553 769.08242597 -789.6875 766.625 C-789.56955078 765.94566406 -789.45160156 765.26632812 -789.33007812 764.56640625 C-789.07056917 763.14243401 -788.78619954 761.72282141 -788.48022461 760.30810547 C-787.96071144 757.9591788 -787.96071144 757.9591788 -787.66235352 755.38330078 C-787.13005887 752.50853877 -786.55111083 750.48631097 -785 748 C-781.10852459 745.64203819 -776.95504439 744.70354984 -772.5625 743.625 C-771.26400742 743.26984386 -769.96698784 742.90926456 -768.67138672 742.54370117 C-766.60802174 741.96153079 -764.54436627 741.38209908 -762.47631836 740.8167572 C-754.42775066 738.61113128 -746.53195045 735.97467545 -738.625 733.3125 C-737.87791779 733.06242188 -737.13083557 732.81234375 -736.3611145 732.5546875 C-700.49694267 720.54651519 -665.0356781 707.38797679 -630.09765625 692.90014648 C-625.24676573 690.89322235 -620.37821198 689.02385647 -615.4375 687.25 C-604.61093881 683.31332743 -594.19356291 678.3393321 -583.71075439 673.58015442 C-578.20777856 671.0851076 -572.68105288 668.64679359 -567.15063477 666.21313477 C-557.64324711 662.02479036 -548.23314287 657.74284217 -538.984375 653.01171875 C-535.2691296 651.11754343 -531.50892629 649.3278092 -527.73901367 647.54541016 C-502.4097613 635.56599906 -477.22683058 623.15332614 -452.74853516 609.51318359 C-447.78304103 606.77947133 -442.76984413 604.13446573 -437.76538086 601.47302246 C-425.37495361 594.87731686 -413.13370411 588.05696413 -401 581 C-399.16537435 579.93748314 -397.33073865 578.87498363 -395.49609375 577.8125 C-389.31910412 574.22808086 -383.15731676 570.61809078 -377 567 C-376.38026306 566.63610168 -375.76052612 566.27220337 -375.12200928 565.89727783 C-358.40426061 556.07858571 -341.79703995 546.14685213 -325.51416016 535.61669922 C-323.06498791 534.04178967 -320.60390245 532.48791766 -318.13671875 530.94140625 C-305.66011027 523.10640768 -293.3825081 514.98446073 -281.125 506.8125 C-280.29751251 506.2611438 -279.47002502 505.7097876 -278.61746216 505.14172363 C-267.68228227 497.8511517 -256.80387186 490.48383222 -246 483 C-244.59886963 482.02945679 -244.59886963 482.02945679 -243.16943359 481.03930664 C-231.34917588 472.82671195 -219.62725938 464.48346223 -208 456 C-207.24396484 455.44876465 -206.48792969 454.8975293 -205.70898438 454.32958984 C-195.5993433 446.94750779 -185.59001331 439.44231435 -175.64770508 431.83642578 C-169.60682675 427.21557317 -163.52712325 422.65073587 -157.42456055 418.11181641 C-152.48684641 414.41767948 -147.73403418 410.54682066 -143.0390625 406.546875 C-141 405 -141 405 -139 405 C-138.80277344 404.44699219 -138.60554688 403.89398437 -138.40234375 403.32421875 C-136.42322754 400.04406794 -133.58033636 398.07597721 -130.5625 395.8125 C-129.2857498 394.83295406 -128.00971599 393.85247373 -126.734375 392.87109375 C-125.78401367 392.1438208 -125.78401367 392.1438208 -124.81445312 391.40185547 C-120.46046522 388.03794286 -116.24640005 384.49777545 -112 381 C-110.20842294 379.54155659 -108.41675498 378.08322483 -106.625 376.625 C-100.91119891 371.95007184 -95.27845716 367.18304475 -89.65283203 362.40283203 C-87.49560727 360.57189946 -85.33347391 358.74681635 -83.17138672 356.92163086 C-81.00281797 355.08970033 -78.83722607 353.25427648 -76.67236328 351.41796875 C-75.5411838 350.45886065 -74.40932873 349.50054886 -73.27685547 348.54296875 C-33.20652222 314.63472136 17.5708771 263.94987916 22.22753906 208.27978516 C23.21802655 190.27347024 20.7713493 175.5717947 8.81640625 161.4140625 C-0.90140145 151.04201816 -12.6305076 144.75764172 -25.6015625 139.41015625 C-28.14109313 138.35639699 -30.55637704 137.24650803 -33 136 C-28.81661847 117.59711712 -24.40563283 99.25767686 -19.875 80.9375 C-19.22146077 78.28958353 -18.56856699 75.64150811 -17.91577148 72.9934082 C-17.58458237 71.65000844 -17.25339034 70.30660939 -16.92219543 68.96321106 C-16.75779276 68.29634592 -16.59339008 67.62948078 -16.42400551 66.94240761 C-15.92684084 64.92617212 -15.42942094 62.90999975 -14.93193054 60.8938446 C-11.62627207 47.49561085 -8.34248078 34.09204123 -5.0625 20.6875 C-4.54346928 18.56697291 -4.02442671 16.44644873 -3.50537109 14.32592773 C-2.3365891 9.55069795 -1.16816657 4.77538037 0 0 Z " fill="#0F5F3C" transform="translate(1476,273)"/>
<path d="M0 0 C3.62501275 3.27820059 6.05779219 7.04030314 8.5625 11.1875 C9.45583436 12.64136112 10.35040508 14.09446314 11.24609375 15.546875 C11.93227783 16.6615918 11.93227783 16.6615918 12.63232422 17.79882812 C14.75076022 21.20829242 16.93505972 24.5736765 19.125 27.9375 C24.57673044 36.32347379 29.96473592 44.74963966 35.34228516 53.18334961 C38.23829089 57.71797041 41.14626741 62.23548168 44.16796875 66.6875 C46.58519421 70.28294049 48.68470285 73.98578428 50.75341797 77.78955078 C52.82849179 81.46908826 55.19240431 84.94348206 57.5625 88.4375 C58.62891316 90.02473494 59.69531921 91.61197466 60.76171875 93.19921875 C61.84099003 94.79958425 62.92041413 96.3998467 64 98 C71.05422371 108.47445338 77.96469465 119.02474123 84.72265625 129.69311523 C88.56698448 135.75941881 92.45065493 141.79767833 96.375 147.8125 C101.33173657 155.4121169 106.23924735 163.04205825 111.125 170.6875 C116.95327839 179.80759333 122.80617388 188.91078138 128.69677734 197.99072266 C131.00847036 201.55483535 133.31683621 205.12110107 135.625 208.6875 C136.08430908 209.39712891 136.54361816 210.10675781 137.0168457 210.83789062 C140.21718028 215.78453825 143.40682201 220.7379471 146.58862305 225.6965332 C149.05922866 229.54437701 151.54360421 233.38299324 154.03857422 237.21508789 C154.96978304 238.6528548 155.89462537 240.09476556 156.81298828 241.54077148 C159.10849043 245.14827956 161.45847349 248.65484974 164.02734375 252.07421875 C171.83281523 262.78110482 171.83281523 262.78110482 170.80981445 270.09692383 C170.08550503 273.47527216 169.0888738 276.72392509 168 280 C167.39137113 282.12372627 166.78715238 284.2487217 166.1875 286.375 C165.84460937 287.52484375 165.50171875 288.6746875 165.1484375 289.859375 C163.65603701 295.06324269 162.50495238 300.34603542 161.3125 305.625 C158.86041075 316.45765756 156.21846616 327.23173569 153.5 338 C150.51939176 349.81036954 147.65588904 361.63411497 144.96142578 373.51367188 C143.43701238 380.20516894 141.74951296 386.81995286 139.9296875 393.4375 C138.8424199 397.60383636 137.91243376 401.79256852 137 406 C135.83440493 411.37481365 134.58387127 416.69501356 133.125 422 C130.9184436 430.07043658 129.07756635 438.2169408 127.21582031 446.37280273 C125.54024871 453.69997756 123.78137199 460.99693746 121.9296875 468.28125 C120.59217462 473.63130151 119.35737375 479.0037761 118.125 484.37890625 C117.20207556 488.28046213 116.15954189 492.14545176 115.11328125 496.015625 C113.14222585 503.32873051 111.3856652 510.68228885 109.67962646 518.06109619 C106.2205843 533.00709271 102.57647014 547.89977877 98.81591797 562.77294922 C97.76784446 566.91820226 96.7230591 571.06424831 95.68652344 575.21240234 C95.19186934 577.17715294 94.68876886 579.13979863 94.17675781 581.10009766 C92.83455569 586.30396715 91.7214668 591.4640663 90.85546875 596.76953125 C88.04779694 612.94651473 88.04779694 612.94651473 83.1875 617.8203125 C79.77749919 619.54774712 76.50284943 620.77983705 72.87939453 621.95556641 C69.38579261 623.22278949 66.05979049 624.77722192 62.71484375 626.38671875 C62.06083084 626.70136078 61.40681793 627.01600281 60.73298645 627.34017944 C59.37137757 627.99649799 58.01005959 628.65342033 56.64901733 629.31091309 C43.21283955 635.76065574 29.59604473 641.8221706 15.91503906 647.73144531 C12.91105678 649.03870594 9.91986803 650.37243903 6.9296875 651.7109375 C5.01575049 652.55757541 3.10169348 653.40394212 1.1875 654.25 C0.31520752 654.64558105 -0.55708496 655.04116211 -1.45581055 655.44873047 C-2.26058838 655.80080566 -3.06536621 656.15288086 -3.89453125 656.515625 C-4.59425049 656.82790039 -5.29396973 657.14017578 -6.01489258 657.46191406 C-8.47002858 658.12740659 -9.66602553 658.00479782 -12 657 C-13.38110352 655.41210938 -13.38110352 655.41210938 -14.62890625 653.34375 C-15.10054199 652.57764404 -15.57217773 651.81153809 -16.05810547 651.0222168 C-16.55455566 650.18988525 -17.05100586 649.35755371 -17.5625 648.5 C-18.63836901 646.74550845 -19.71521057 644.99161295 -20.79296875 643.23828125 C-21.60193604 641.91111084 -21.60193604 641.91111084 -22.42724609 640.55712891 C-24.68097908 636.89280116 -27.02248012 633.28888307 -29.375 629.6875 C-33.5834355 623.21374916 -37.73749981 616.70678484 -41.875 610.1875 C-46.85582368 602.3427027 -51.887869 594.53389854 -56.96435547 586.75073242 C-61.34673415 580.02409125 -65.67844538 573.26584728 -70 566.5 C-74.80347852 558.98024839 -79.62640895 551.47451125 -84.5 544 C-90.1075554 535.39935275 -95.67006144 526.77008543 -101.16186523 518.0949707 C-104.17850665 513.3402131 -107.21761521 508.63382069 -110.49609375 504.0546875 C-118.76769198 492.40075525 -118.76769198 492.40075525 -118.5 486.0625 C-117.93359375 483.23046875 -117.93359375 483.23046875 -117 480 C-116.614073 478.53823772 -116.23010618 477.07595711 -115.84765625 475.61328125 C-115.03129408 472.55664743 -114.16237373 469.52256573 -113.25390625 466.4921875 C-112.39992605 463.56148274 -111.70743683 460.65981609 -111.14453125 457.66015625 C-110.19543983 452.70522145 -108.99379223 447.83076775 -107.7578125 442.94140625 C-107.54706589 442.1071814 -107.33631927 441.27295654 -107.1191864 440.41345215 C-106.23755852 436.93274589 -105.35226183 433.45298675 -104.46435547 429.97387695 C-101.88288538 419.84309654 -99.42258995 409.71515302 -97.37014771 399.46217346 C-96.34278726 394.38169254 -95.06806571 389.41532219 -93.625 384.4375 C-93.38869873 383.60935791 -93.15239746 382.78121582 -92.90893555 381.92797852 C-92.715979 381.25178467 -92.52302246 380.57559082 -92.32421875 379.87890625 C-90.85223481 374.58299921 -89.64258059 369.23689775 -88.4375 363.875 C-85.02900752 348.74419124 -81.20772986 333.7179616 -77.40209961 318.68310547 C-74.49465424 307.16701836 -71.72636235 295.63106101 -69.13525391 284.03955078 C-66.15580843 270.72581351 -62.90293694 257.47353056 -59.56542969 244.24560547 C-58.17664897 238.73005924 -56.80181634 233.21099923 -55.42431641 227.69262695 C-54.03486239 222.12918381 -52.63925382 216.56738218 -51.234375 211.0078125 C-48.06745067 198.45122022 -45.01454623 185.88260605 -42.18359375 173.24609375 C-40.21581754 164.47548087 -38.11606036 155.73584986 -36 147 C-35.82082031 146.25991699 -35.64164063 145.51983398 -35.45703125 144.75732422 C-33.47419154 136.60420042 -31.34304097 128.51442571 -28.9296875 120.4765625 C-28.20674241 117.77311237 -27.61589934 115.13590121 -27.08911133 112.39306641 C-26.08199626 107.30164951 -24.89575758 102.27058822 -23.64453125 97.234375 C-23.42202698 96.33036957 -23.19952271 95.42636414 -22.97027588 94.4949646 C-22.49682681 92.57148779 -22.02251453 90.64822327 -21.5473938 88.72515869 C-17.96254552 74.21218754 -14.42087278 59.69213104 -11.0625 45.125 C-9.152074 36.84261786 -7.16909723 28.60883542 -4.91015625 20.4140625 C-3.10711465 13.65072191 -1.56950582 6.82067155 0 0 Z " fill="#C52026" transform="translate(865,305)"/>
<path d="M0 0 C-0.71850655 10.05909172 -3.56075267 19.64326998 -6.1640625 29.34375 C-8.8066951 39.21475999 -11.21342506 49.11684908 -13.47900391 59.08129883 C-16.17261802 70.8750298 -19.04899877 82.62312797 -21.92871094 94.37255859 C-22.11574585 95.13732513 -22.30278076 95.90209167 -22.4954834 96.69003296 C-22.8581742 98.17092674 -23.22246869 99.65142884 -23.58850098 101.13150024 C-24.50412298 104.85633795 -25.31782448 108.57954213 -26.03125 112.34765625 C-27.04238016 116.15978002 -27.70632286 117.48353939 -30.75 119.875 C-31.95849609 120.85339844 -31.95849609 120.85339844 -33.19140625 121.8515625 C-34.11824219 122.56054688 -35.04507812 123.26953125 -36 124 C-37.07279643 124.83963799 -38.14435106 125.68086434 -39.21484375 126.5234375 C-40.96809916 127.90167438 -42.72292577 129.27750792 -44.484375 130.64526367 C-49.46530314 134.52561468 -54.25850674 138.5960487 -59.0300293 142.72949219 C-62.30100902 145.5582984 -65.6044318 148.32016431 -69 151 C-74.87413523 155.64555793 -80.52171474 160.54747845 -86.18994141 165.43994141 C-88.52479842 167.4523148 -90.86707556 169.45592794 -93.2097168 171.45922852 C-95.53286233 173.44688518 -97.85259716 175.43849676 -100.171875 177.43066406 C-101.4341323 178.51423643 -102.69720458 179.5968599 -103.9609375 180.67871094 C-105.95557003 182.38714862 -107.94682995 184.09944799 -109.9375 185.8125 C-110.54005615 186.3273999 -111.1426123 186.8422998 -111.76342773 187.37280273 C-117.915992 192.68061354 -123.57494508 198.37018219 -128.87109375 204.53125 C-130.53631456 206.46229504 -132.21681179 208.37508674 -133.91015625 210.28125 C-149.39378824 227.79409603 -162.93258236 246.6035802 -174.02441406 267.1953125 C-174.88353138 268.78455055 -175.76432937 270.3620277 -176.6484375 271.9375 C-187.04218657 291.29517022 -193.2077841 314.36226066 -188.28125 336.18359375 C-182.86067866 354.15091857 -171.23600901 366.2649045 -155 375 C-148.189619 378.36117011 -141.21088596 381.59637135 -134 384 C-137.07514678 397.11109939 -140.18347871 410.21415576 -143.3125 423.3125 C-143.55532715 424.32899628 -143.7981543 425.34549255 -144.04833984 426.39279175 C-147.06167903 438.99756485 -150.10376255 451.59261743 -153.28295898 464.15673828 C-155.17505327 471.64949938 -157.01495985 479.1537253 -158.8359375 486.6640625 C-159.08567322 487.69250778 -159.33540894 488.72095306 -159.5927124 489.78056335 C-161.11228989 496.03860619 -161.11228989 496.03860619 -162.62475586 502.29837036 C-163.32749935 505.21398892 -164.03446988 508.12855426 -164.7421875 511.04296875 C-164.95539642 511.93315704 -165.16860535 512.82334534 -165.38827515 513.74050903 C-166.88641063 519.88641063 -166.88641063 519.88641063 -168 521 C-211.08813137 522.43654546 -257.19455511 515.76605203 -298 502 C-298.88075195 501.70544922 -299.76150391 501.41089844 -300.66894531 501.10742188 C-332.89142381 490.11736107 -363.85563423 472.36897271 -381 442 C-381.75023437 440.69095703 -381.75023437 440.69095703 -382.515625 439.35546875 C-385.98305714 432.89058774 -388.07154982 426.05694869 -390 419 C-390.36351562 417.84628906 -390.72703125 416.69257812 -391.1015625 415.50390625 C-392.63065617 409.30748208 -392.24890595 402.90024057 -392.1875 396.5625 C-392.1865332 394.62600586 -392.1865332 394.62600586 -392.18554688 392.65039062 C-392.14047619 383.14047619 -392.14047619 383.14047619 -391 382 C-390.60301927 379.95960442 -390.21168179 377.91795668 -389.84814453 375.87133789 C-381.145782 327.6580941 -351.99006506 283.67252895 -321.1328125 246.56640625 C-319.69551961 244.83691645 -318.27386442 243.0943254 -316.8671875 241.33984375 C-311.41347171 234.54713323 -305.61510435 228.15916218 -299.66381836 221.80737305 C-298.47847476 220.51975768 -297.30902091 219.21743767 -296.15063477 217.90551758 C-289.69057294 210.59490995 -282.8506955 203.69831766 -275.94311523 196.81274414 C-273.93422136 194.80923014 -271.93075611 192.80039848 -269.92773438 190.79101562 C-263.78565259 184.64574339 -257.6283817 178.62417237 -251 173 C-249.04525669 171.22634839 -247.11900857 169.42413945 -245.1875 167.625 C-240.56566169 163.35480741 -235.80576052 159.31774627 -230.90234375 155.37109375 C-227.61036472 152.68168423 -224.40005506 149.90818046 -221.1875 147.125 C-214.91314997 141.71245492 -208.47073664 136.55716096 -201.91748047 131.48779297 C-199.86710005 129.89688155 -197.82563094 128.29499999 -195.78515625 126.69140625 C-185.76832341 118.83383109 -175.61170619 111.18992028 -165.32177734 103.69384766 C-163.09127349 102.06658838 -160.86745137 100.43056524 -158.64453125 98.79296875 C-147.38216069 90.53406684 -135.80583326 82.78390189 -124.15380859 75.08789062 C-120.93647836 72.95794728 -117.72685725 70.81684968 -114.51953125 68.671875 C-112.92842529 67.60803589 -112.92842529 67.60803589 -111.30517578 66.52270508 C-109.29666643 65.17934734 -107.28850145 63.83547451 -105.28076172 62.4909668 C-95.56234231 56.00157061 -85.68831172 49.77106119 -75.75 43.625 C-74.38439941 42.78038208 -74.38439941 42.78038208 -72.99121094 41.91870117 C-65.36703457 37.2116652 -57.70783938 32.56860161 -50 28 C-49.38366699 27.63406738 -48.76733398 27.26813477 -48.13232422 26.89111328 C-37.41379544 20.53423691 -26.62205635 14.30464734 -15.82104492 8.08935547 C-14.75088135 7.47334473 -13.68071777 6.85733398 -12.578125 6.22265625 C-11.62325195 5.67359619 -10.66837891 5.12453613 -9.68457031 4.55883789 C-7.86423568 3.50183201 -6.06162602 2.41381066 -4.27636719 1.29858398 C-2 0 -2 0 0 0 Z " fill="#0F5F3C" transform="translate(473,573)"/>
<path d="M0 0 C0.66 0.33 1.32 0.66 2 1 C-3.52311207 24.0495485 -9.05182198 47.09772831 -14.69921875 70.1171875 C-15.14958748 71.9557859 -15.14958748 71.9557859 -15.60905457 73.83152771 C-17.09869626 79.90416447 -18.60139734 85.97308691 -20.12866211 92.03637695 C-22.68150052 102.21308144 -25.16661116 112.34068098 -26.9921875 122.67578125 C-30.87761298 144.17521818 -30.87761298 144.17521818 -36.44140625 148.10546875 C-40.38365409 149.99258524 -44.48365401 150.6433863 -48.77001953 151.34667969 C-54.66276261 152.53859053 -60.27907921 154.68564586 -65.94577026 156.66287231 C-69.8257136 158.00358323 -73.72618079 159.28185687 -77.625 160.56640625 C-79.30997464 161.12362242 -80.99486861 161.68108261 -82.6796875 162.23876953 C-83.97737061 162.66817841 -83.97737061 162.66817841 -85.30126953 163.10626221 C-94.09971215 166.02003992 -102.89387022 168.94673537 -111.6875 171.875 C-112.70808502 172.2148291 -113.72867004 172.5546582 -114.78018188 172.90478516 C-132.86470064 178.92945674 -150.91031198 185.06302652 -168.94223022 191.24302673 C-180.01701316 195.0366622 -191.10293636 198.7975634 -202.1875 202.5625 C-216.31219301 207.36031887 -230.43208108 212.17148047 -244.54208374 217.0123291 C-257.13567825 221.33182741 -269.74250166 225.60806024 -282.375 229.8125 C-283.09721741 230.05290009 -283.81943481 230.29330017 -284.5635376 230.54098511 C-291.90866163 232.98492371 -299.25580166 235.42276439 -306.60449219 237.85595703 C-312.65402517 239.85920565 -318.70241696 241.86587264 -324.75 243.875 C-326.26194946 244.37708481 -326.26194946 244.37708481 -327.80444336 244.88931274 C-344.27839985 250.36571789 -360.68420728 256.02132947 -377.04199219 261.83544922 C-377.83910614 262.11766327 -378.63622009 262.39987732 -379.45748901 262.69064331 C-380.93938296 263.2156057 -382.42034187 263.74321798 -383.900177 264.2739563 C-388.77581264 266 -388.77581264 266 -391 266 C-392.078125 264.58569336 -392.078125 264.58569336 -393.25 262.58984375 C-393.68803955 261.85540039 -394.1260791 261.12095703 -394.57739258 260.36425781 C-395.04685303 259.56342773 -395.51631348 258.76259766 -396 257.9375 C-399.48046015 252.11754601 -403.00601083 246.36267775 -406.8125 240.75 C-411.6194626 233.6437589 -416.21652443 226.41152474 -420.79443359 219.15600586 C-423.52022019 214.84800116 -426.26679134 210.56637047 -429.15234375 206.36328125 C-429.62607422 205.67169922 -430.09980469 204.98011719 -430.58789062 204.26757812 C-431.46415922 202.99819337 -432.34912298 201.73475116 -433.24414062 200.47851562 C-434.40234375 198.80078125 -434.40234375 198.80078125 -436 196 C-435.67 195.01 -435.34 194.02 -435 193 C-432.46923828 191.80834961 -432.46923828 191.80834961 -429.0703125 190.65234375 C-428.45842575 190.44018219 -427.846539 190.22802063 -427.21611023 190.00942993 C-425.88854673 189.55044846 -424.55914282 189.09676414 -423.22817993 188.6477356 C-420.36088927 187.67946281 -417.50341832 186.68359055 -414.64491272 185.68974304 C-412.45641592 184.92947374 -410.26655851 184.17321331 -408.07666016 183.41699219 C-343.30437649 160.9764078 -279.72924549 134.39032681 -216.97021484 106.86401367 C-215.62307656 106.27324262 -214.27573631 105.68293193 -212.92822266 105.09301758 C-190.06953818 95.08548238 -167.42811992 84.67253744 -144.91345215 73.9140625 C-142.1125543 72.57606422 -139.31006246 71.24141365 -136.5078125 69.90625 C-131.91159877 67.71400233 -127.31984902 65.51258528 -122.72949219 63.30810547 C-119.85585609 61.93091923 -116.97895611 60.56072309 -114.1015625 59.19140625 C-91.16828103 48.26007673 -68.40218553 36.98556461 -46 25 C-43.75135115 23.80199123 -41.50264914 22.60408225 -39.25390625 21.40625 C-36.81462703 20.10505914 -34.37594885 18.80274622 -31.9375 17.5 C-31.33639404 17.17902344 -30.73528809 16.85804688 -30.1159668 16.52734375 C-24.13890359 13.33311065 -18.17492537 10.12073068 -12.27734375 6.78125 C-11.4376001 6.30623047 -10.59785645 5.83121094 -9.73266602 5.34179688 C-8.20151868 4.47038901 -6.67438957 3.59186846 -5.15209961 2.70507812 C-3.46711854 1.74422624 -1.73749066 0.86227824 0 0 Z " fill="#E65A24" transform="translate(1307,794)"/>
<path d="M0 0 C23.1 0 46.2 0 70 0 C75.7835763 10.41043733 81.50751719 20.74580636 86.90423584 31.34460449 C91.76526935 40.88573899 96.68909831 50.38048321 101.875 59.75 C107.96609228 70.76838313 113.69308972 81.96988544 119.41943359 93.18066406 C123.15565394 100.49165658 126.92484847 107.78197986 130.7746582 115.03393555 C131.18408913 115.80621239 131.59352005 116.57848923 132.01535797 117.3741684 C133.00977216 119.249693 134.00481819 121.12488259 135 123 C134.96189788 110.5080291 134.90246986 98.01635685 134.81609726 85.52462101 C134.77665141 79.72367818 134.74444858 73.9228865 134.72900391 68.12182617 C134.71381852 62.51953374 134.6793389 56.91765692 134.63169098 51.31554985 C134.6168967 49.18226173 134.60896011 47.04891427 134.60811615 44.91557503 C134.60573892 41.91861199 134.57859766 38.92279051 134.54589844 35.92602539 C134.5509288 35.05136124 134.55595917 34.17669708 134.56114197 33.27552795 C134.4157769 24.61865135 131.01020751 16.32812781 125 10 C120.62758552 6.54348291 116.21956992 3.95733872 111 2 C111 1.34 111 0.68 111 0 C136.08 0 161.16 0 187 0 C186 3 186 3 183.99609375 4.0703125 C183.15175781 4.41835937 182.30742188 4.76640625 181.4375 5.125 C173.78870796 8.75214923 168.06500062 15.06705721 165 23 C164.13188545 26.6082824 163.8708175 29.95931797 163.85955811 33.66583252 C163.85384796 34.7956102 163.84813782 35.92538788 163.84225464 37.08940125 C163.84113678 38.31963516 163.84001892 39.54986908 163.83886719 40.81738281 C163.83390228 42.12038834 163.82893738 43.42339386 163.82382202 44.7658844 C163.81073507 48.33426014 163.80426025 51.90261709 163.79981136 55.47101307 C163.79687449 57.70351473 163.79276852 59.93601133 163.78830719 62.16851044 C163.77464166 69.16253899 163.76497054 76.15655588 163.7611053 83.15059686 C163.75662752 91.2073428 163.73908875 99.26391884 163.7101047 107.32061315 C163.6884443 113.55944768 163.67839869 119.79823456 163.67706418 126.03710628 C163.67601922 129.75807282 163.67017759 133.47887946 163.65224457 137.19980621 C163.63260731 141.35498766 163.63707016 145.50981623 163.64355469 149.66503906 C163.62973251 151.49824455 163.62973251 151.49824455 163.6156311 153.3684845 C163.66733572 163.96217991 165.63561791 172.15569188 173 180 C177.27823254 183.77440875 181.78683521 186.65407585 187 189 C187 189.66 187 190.32 187 191 C163.9 191 140.8 191 117 191 C114.40125 185.946875 111.8025 180.89375 109.125 175.6875 C104.01657127 165.76375306 98.89813164 155.84689656 93.67822266 145.98120117 C90.08020964 139.17408804 86.53944585 132.33771573 83 125.5 C78.64991745 117.09751497 74.28179945 108.70559295 69.86218262 100.33947754 C66.27716213 93.54559167 62.73286935 86.73073181 59.19140625 79.9140625 C58.29476257 78.18893433 58.29476257 78.18893433 57.38000488 76.42895508 C55.91977688 73.61942093 54.45978024 70.80976682 53 68 C52.90706849 80.19641804 52.83611766 92.39275098 52.79275131 104.58945179 C52.77193118 110.25369135 52.74371557 115.91768756 52.69824219 121.58178711 C52.65458545 127.05423543 52.63082102 132.52645057 52.62049103 137.99905968 C52.61313516 140.08052932 52.59877132 142.16198709 52.57707977 144.2433567 C52.43668017 158.28121965 52.41222482 170.24623724 62.62890625 180.984375 C66.67006493 184.41969276 71.21713982 186.75803429 76 189 C76 189.66 76 190.32 76 191 C51.25 191 26.5 191 1 191 C2 188 2 188 3.63671875 187.0078125 C4.31347656 186.71648437 4.99023438 186.42515625 5.6875 186.125 C13.64306695 182.3244796 18.47741424 177.11680152 22 169 C24.05262922 161.47387627 24.286443 154.12412548 24.25878906 146.36523438 C24.2622937 145.14113358 24.26579834 143.91703278 24.26940918 142.65583801 C24.27665845 139.32726381 24.2750226 135.99894118 24.26865101 132.67038155 C24.26354896 129.16904515 24.26829405 125.6677187 24.27142334 122.16638184 C24.27505082 116.28912451 24.27029599 110.41191762 24.26074219 104.53466797 C24.24985997 97.76247728 24.25338642 90.99040706 24.264395 84.21821928 C24.27350272 78.37925808 24.27473618 72.54033292 24.26951766 66.7013669 C24.26641705 63.2247346 24.26593561 59.74815872 24.27259064 56.27153015 C24.27949863 52.39256187 24.26989465 48.51372601 24.25878906 44.63476562 C24.26283752 43.49888504 24.26688599 42.36300446 24.27105713 41.19270325 C24.21297312 30.19423708 22.97761218 20.82942008 16 12 C11.4705153 7.68929184 6.63820179 4.67814585 1 2 C0.67 1.34 0.34 0.68 0 0 Z " fill="#0F5F3C" transform="translate(660,1265)"/>
<path d="M0 0 C23.1 0 46.2 0 70 0 C75.41854989 10.29524479 80.78195617 20.52529582 85.953125 30.9296875 C91.7373086 42.49241709 97.90495975 53.85513808 104.125 65.1875 C107.91107625 72.08846817 111.58153979 79.02209415 115.05859375 86.08349609 C117.66603597 91.37005814 120.37743485 96.59747128 123.125 101.8125 C123.71885498 102.9411145 123.71885498 102.9411145 124.32470703 104.0925293 C126.57021371 108.34305196 128.8517094 112.57266238 131.15576172 116.79174805 C131.69014862 117.77056442 132.22453552 118.7493808 132.77511597 119.75785828 C133.1793277 120.49776505 133.58353943 121.23767181 134 122 C134.06967585 110.17743499 134.12290044 98.35491926 134.15543652 86.53219032 C134.17105643 81.0417312 134.19222744 75.55141312 134.22631836 70.06103516 C134.259043 64.75718179 134.27688062 59.45346364 134.28463173 54.14951706 C134.29015177 52.13143156 134.30093081 50.11335301 134.31719017 48.09532547 C134.33913874 45.25691291 134.34195968 42.4190509 134.34057617 39.58056641 C134.351362 38.75625122 134.36214783 37.93193604 134.3732605 37.0826416 C134.32186122 27.26330932 131.3965827 18.50340712 125 11 C120.74305861 7.10842484 116.17009055 4.52199539 111 2 C110.505 1.01 110.505 1.01 110 0 C135.08 0 160.16 0 186 0 C186 0.66 186 1.32 186 2 C185.28714844 2.3403125 184.57429688 2.680625 183.83984375 3.03125 C175.54230364 7.23027433 169.06684098 12.43822952 165 21 C162.7827948 28.01907474 162.71020967 34.63390232 162.7253418 41.95849609 C162.72023087 43.24082626 162.71511993 44.52315643 162.70985413 45.84434509 C162.69653192 49.34239447 162.69587788 52.84033535 162.69841743 56.33840513 C162.69949183 59.26807469 162.69459177 62.19772272 162.689812 65.12738764 C162.6787401 72.04425158 162.67826623 78.96106119 162.68432617 85.87792969 C162.69036353 92.99207315 162.67805577 100.10601871 162.6567561 107.22012842 C162.63909056 113.34779658 162.63314655 119.47540203 162.63639385 125.6030947 C162.63819909 129.25417254 162.63564701 132.90510921 162.62167931 136.55616379 C162.6066689 140.63180972 162.61611418 144.70705766 162.62768555 148.78271484 C162.62004181 149.97784195 162.61239807 151.17296906 162.60452271 152.40431213 C162.67151161 163.11277444 164.41471448 172.07380277 172 180 C176.28381653 183.77078461 180.78435876 186.65296144 186 189 C186 189.66 186 190.32 186 191 C162.9 191 139.8 191 116 191 C112.04 183.08 108.08 175.16 104 167 C100.35870241 160.04392969 100.35870241 160.04392969 96.69140625 153.1015625 C94.04793502 148.11112156 91.4611818 143.09205949 88.87304688 138.07275391 C83.63931467 127.92569328 78.31656903 117.84753263 72.76635742 107.87011719 C69.38712214 101.77128541 66.23696177 95.58727529 63.1651001 89.32885742 C60.94196159 84.84716868 58.60853415 80.42749566 56.2578125 76.01171875 C55.8460376 75.23614624 55.4342627 74.46057373 55.01000977 73.66149902 C54.00761789 71.77383072 53.00394442 69.88684305 52 68 C51.9535727 79.83985701 51.91807802 91.6796922 51.89637566 103.51962185 C51.8859574 109.01791548 51.87183398 114.51614662 51.84912109 120.0144043 C51.82732288 125.32472914 51.81541665 130.63499404 51.81024551 135.94536018 C51.80656227 137.96705124 51.79936991 139.98873918 51.78853989 142.01040459 C51.77393222 144.85132708 51.77202593 147.69200473 51.77294922 150.53295898 C51.76575867 151.36086945 51.75856812 152.18877991 51.75115967 153.04177856 C51.78562407 162.90068025 53.87028921 171.12637998 60 179 C64.46353807 183.25593164 69.35503686 186.53937504 75 189 C75 189.66 75 190.32 75 191 C50.25 191 25.5 191 0 191 C1 188 1 188 2.6015625 187.04296875 C3.26929688 186.76066406 3.93703125 186.47835938 4.625 186.1875 C13.73875712 181.85072112 18.59017132 175.5528127 22.04801941 166.15022278 C23.59203786 160.59607963 23.28643916 154.87461057 23.2746582 149.1550293 C23.27976913 147.87284515 23.28488007 146.59066101 23.29014587 145.2696228 C23.30348513 141.7673822 23.30412008 138.26524985 23.30158257 134.76298881 C23.30050911 131.83088408 23.30540596 128.89880093 23.310188 125.96670085 C23.32126628 119.04362059 23.32173048 112.12059459 23.31567383 105.19750977 C23.30963894 98.07600272 23.32193648 90.95469349 23.3432439 83.83322018 C23.36091007 77.70132594 23.36685326 71.56949437 23.36360615 65.43757564 C23.36180065 61.78312949 23.36435539 58.12882438 23.37832069 54.47440147 C23.393332 50.393857 23.38388527 46.31371002 23.37231445 42.2331543 C23.37995819 41.03645615 23.38760193 39.839758 23.39547729 38.60679626 C23.32426073 27.20785212 21.20255357 18.2340413 13 10 C8.93463903 6.79844254 4.64829864 4.25594629 0 2 C0 1.34 0 0.68 0 0 Z " fill="#0F5F3C" transform="translate(981,1265)"/>
<path d="M0 0 C12.38815238 -0.04655037 24.77628359 -0.08198379 37.16450596 -0.10362434 C42.91821467 -0.11401605 48.67186309 -0.12809005 54.42553711 -0.15087891 C59.98875958 -0.17277297 65.55192443 -0.18460322 71.11518669 -0.18975449 C73.22681522 -0.19342073 75.33844096 -0.20057904 77.45004463 -0.21146011 C105.9362657 -0.3522748 130.69018733 3.52220799 152.17578125 24.08203125 C169.90993678 42.64263286 175.17364109 68.44254904 175.1875 93.25 C175.19974609 94.38824219 175.21199219 95.52648438 175.22460938 96.69921875 C175.26425901 119.98677052 168.98429464 143.8337123 154 162 C153.37351562 162.78890625 152.74703125 163.5778125 152.1015625 164.390625 C139.64851499 179.33428201 119.6417601 189.34610293 100.25289154 191.27301407 C93.07482682 191.68116222 85.89670742 191.57589987 78.7109375 191.48828125 C76.4273863 191.47893094 74.14382492 191.47182536 71.86026001 191.46684265 C65.91226455 191.44794739 59.96490052 191.39900108 54.01715088 191.34332275 C47.92297909 191.29174906 41.82870312 191.26924796 35.734375 191.24414062 C23.8226425 191.19086228 11.91137419 191.10576653 0 191 C2.04040251 187.93939624 2.58957082 187.50921898 5.75 186.125 C13.71125006 182.27370936 18.37604987 177.07747921 22 169 C24.20467828 161.82349495 24.29062168 154.76374062 24.2746582 147.31103516 C24.27976913 146.06917953 24.28488007 144.82732391 24.29014587 143.5478363 C24.301608 140.16542574 24.30412452 136.78326144 24.30158257 133.40084887 C24.30050675 130.5656656 24.30541178 127.7305045 24.310188 124.89532602 C24.32125263 118.2003825 24.32173787 111.5054951 24.31567383 104.81054688 C24.30963688 97.92986312 24.32194486 91.049384 24.3432439 84.16873515 C24.36092212 78.2372075 24.36685148 72.30574463 24.36360615 66.37419164 C24.36180295 62.84214349 24.3643322 59.31024133 24.37832069 55.77821732 C24.39335708 51.83464943 24.38387473 47.89133749 24.37231445 43.94775391 C24.37995819 42.79519608 24.38760193 41.64263824 24.39547729 40.45515442 C24.32426656 29.41421947 22.38664184 19.53456591 15 11 C10.49839186 6.81862821 5.72411733 4.146544 0 2 C0 1.34 0 0.68 0 0 Z M73 29 C68.54840506 35.06906629 68.43145465 40.13772548 68.49829102 47.515625 C68.49288803 48.65632446 68.48748505 49.79702393 68.48191833 50.97229004 C68.46944141 54.73179302 68.48591637 58.49052869 68.50390625 62.25 C68.50375124 64.86881551 68.50226192 67.48763126 68.49949646 70.10644531 C68.49679929 75.59058537 68.51022714 81.07450594 68.53344727 86.55859375 C68.56005409 92.88607726 68.56180236 99.21319398 68.5500589 105.54071426 C68.53925474 111.64418054 68.54559116 117.74749377 68.55961418 123.85095215 C68.56412578 126.44087337 68.56446804 129.03080536 68.56054878 131.62072754 C68.5576338 135.24216716 68.57415859 138.86301074 68.59594727 142.484375 C68.59144562 143.5515979 68.58694397 144.6188208 68.58230591 145.71838379 C68.64081807 151.58090341 69.13355184 155.84057251 72 161 C75.94390339 164.45621641 80.08578429 164.5091052 85.125 164.4375 C85.87910156 164.42847656 86.63320312 164.41945313 87.41015625 164.41015625 C97.13005704 164.11108238 104.86345461 161.36293847 111.93359375 154.5078125 C125.05150201 138.58778017 126.18761196 116.89165352 126.18530273 97.21240234 C126.1874896 95.13488256 126.20572368 93.05789535 126.22460938 90.98046875 C126.3016884 73.12978833 123.57124136 54.83383868 113 40 C112.2575 38.9275 111.515 37.855 110.75 36.75 C103.50568099 29.50568099 95.50087271 26.58043506 85.5 25.6875 C81.09905081 26.08044189 76.77739041 26.60509259 73 29 Z " fill="#0F5F3C" transform="translate(1187,1265)"/>
<path d="M0 0 C15.18 0 30.36 0 46 0 C52.89267983 20.6780395 52.89267983 20.6780395 55.39648438 29.11987305 C55.68698669 30.09063782 55.97748901 31.06140259 56.27679443 32.06158447 C57.21848314 35.21082907 58.15616165 38.36125123 59.09375 41.51171875 C59.76883894 43.77243739 60.44417855 46.03308119 61.11975098 48.2936554 C62.89234528 54.22752777 64.66151135 60.16241674 66.42993164 66.09753418 C67.83366397 70.80690723 69.23956598 75.51563087 70.64575195 80.22427177 C71.6874681 83.71278381 72.72851105 87.20149629 73.76953125 90.69021606 C75.14833396 95.31006973 76.53015493 99.92900589 77.9140625 104.54733276 C80.97427409 114.77136316 84.01455031 124.99906093 86.94600677 135.26087093 C88.19021114 139.61287387 89.44832248 143.96080362 90.70722961 148.30857277 C91.29009019 150.33749794 91.86573825 152.36851148 92.43351746 154.4017086 C97.10863683 171.9003997 97.10863683 171.9003997 109.625 184.4375 C110.69621094 185.11619141 110.69621094 185.11619141 111.7890625 185.80859375 C114.13507251 187.07278642 116.50817645 188.06010164 119 189 C119 189.66 119 190.32 119 191 C89.96 191 60.92 191 31 191 C33.0687328 187.89690079 33.53417667 187.57122974 36.75 186.25 C42.21754301 183.65540232 45.4889594 179.74734654 48.375 174.5 C49.78079633 168.8768147 48.92045776 163.86524487 47.25 158.41015625 C46.76273438 156.79185913 46.76273438 156.79185913 46.265625 155.14086914 C45.84796875 153.79500732 45.4303125 152.44914551 45 151.0625 C43.02 144.5965625 43.02 144.5965625 41 138 C23.18 137.67 5.36 137.34 -13 137 C-13.66 140.63 -14.32 144.26 -15 148 C-16.07409116 151.80842941 -17.18804151 155.58466461 -18.40820312 159.34765625 C-20.3950445 165.97822951 -20.5268658 171.88519377 -17.4375 178.1875 C-13.21057214 183.06472445 -8.23353407 187.0520206 -2 189 C-2 189.66 -2 190.32 -2 191 C-24.77 191 -47.54 191 -71 191 C-70 188 -70 188 -68.36328125 187.0078125 C-67.68652344 186.71648437 -67.00976562 186.42515625 -66.3125 186.125 C-58.10118979 182.22462765 -53.13530756 176.61371605 -49.92712402 168.17941284 C-48.85392783 164.86293397 -47.85956294 161.53201932 -46.890625 158.18359375 C-46.52241638 156.94673325 -46.15420776 155.70987274 -45.77484131 154.43553162 C-44.78906736 151.12308346 -43.81804677 147.80648623 -42.85009766 144.48879242 C-41.84353554 141.04809702 -40.8232965 137.61146039 -39.8046875 134.17431641 C-37.51983361 126.45437953 -35.25768641 118.72792253 -33 111 C-32.48255298 109.23287176 -31.96499281 107.46577665 -31.44726562 105.69873047 C-29.6119528 99.4295692 -27.79086108 93.15644538 -25.984375 86.87890625 C-22.74828459 75.63527548 -19.43002826 64.41556915 -16.12037659 53.19342041 C-14.5493587 47.86619394 -12.98176549 42.53796719 -11.41531372 37.20939636 C-10.21906373 33.14154443 -9.02114011 29.07418652 -7.82287598 25.00692749 C-7.23442975 23.00843737 -6.64661652 21.00976074 -6.05944824 19.01089478 C-5.2380097 16.21507379 -4.41420865 13.41995929 -3.58984375 10.625 C-3.34239914 9.7808403 -3.09495453 8.9366806 -2.8400116 8.06694031 C-1.11403538 2.22807075 -1.11403538 2.22807075 0 0 Z M14 44 C12.0960272 50.50584828 10.1940003 57.01226333 8.29321289 63.51904297 C7.64878522 65.72424654 7.0039411 67.92932845 6.35864258 70.13427734 C5.421543 73.33658034 4.48603325 76.53934448 3.55078125 79.7421875 C3.27035477 80.69922577 2.98992828 81.65626404 2.70100403 82.64230347 C0.0473962 91.7397737 -2.46284252 100.86623306 -5 110 C7.87 110 20.74 110 34 110 C31.75346978 100.91551682 31.75346978 100.91551682 29.31420898 91.89599609 C28.87376503 90.34542007 28.87376503 90.34542007 28.42442322 88.76351929 C28.11807449 87.6942923 27.81172577 86.62506531 27.49609375 85.5234375 C27.17214127 84.39096588 26.84818878 83.25849426 26.51441956 82.09170532 C25.83574476 79.72339591 25.15587645 77.35542822 24.47485352 74.98779297 C23.43080399 71.3516798 22.39605452 67.71299436 21.36132812 64.07421875 C20.69848749 61.76546104 20.03509609 59.45686137 19.37109375 57.1484375 C19.06272079 56.0589682 18.75434784 54.9694989 18.43663025 53.84701538 C18.00091454 52.34372177 18.00091454 52.34372177 17.55639648 50.81005859 C17.30341293 49.92691986 17.05042938 49.04378113 16.78977966 48.13388062 C16.10452608 45.8260562 16.10452608 45.8260562 14 44 Z " fill="#0F5F3C" transform="translate(1583,1265)"/>
<path d="M0 0 C30.36 0 60.72 0 92 0 C91 3 91 3 88.92578125 4.140625 C88.06339844 4.50671875 87.20101563 4.8728125 86.3125 5.25 C81.31460915 7.61289969 77.9930993 10.33915903 75 15 C72.59560287 22.21319138 74.13208078 27.18382362 77.35449219 33.76782227 C77.85625977 34.75194092 78.35802734 35.73605957 78.875 36.75 C79.39223633 37.79534912 79.90947266 38.84069824 80.44238281 39.91772461 C81.6109404 42.27256055 82.78533005 44.62340424 83.96972656 46.97021484 C86.26534041 51.51972222 88.53437973 56.08235739 90.8046875 60.64453125 C95.18486463 69.43888053 99.5870718 78.22204612 104 87 C110.50807674 74.70473041 116.96466928 62.38493767 123.24438477 49.97119141 C124.13366205 48.21964953 125.02865828 46.47100107 125.92895508 44.72509766 C127.25922103 42.14372837 128.57081134 39.55359801 129.87890625 36.9609375 C130.27985001 36.19204193 130.68079376 35.42314636 131.09388733 34.63095093 C134.27603521 28.24332071 135.90208332 22.32643225 134 15.3125 C129.88838914 8.50264451 124.09725577 5.23734474 117 2 C117 1.34 117 0.68 117 0 C140.76 0 164.52 0 189 0 C189 0.66 189 1.32 189 2 C188.43152344 2.29132813 187.86304688 2.58265625 187.27734375 2.8828125 C186.50519531 3.29273438 185.73304688 3.70265625 184.9375 4.125 C184.18339844 4.51945312 183.42929688 4.91390625 182.65234375 5.3203125 C175.09429077 10.10670835 171.27952441 15.27887548 167.359375 23.28515625 C166.59726715 24.79336693 166.59726715 24.79336693 165.81976318 26.33204651 C164.19883133 29.54772165 162.59954631 32.77364376 161 36 C159.94244616 38.10225124 158.88321184 40.20365798 157.82226562 42.30419922 C154.61115643 48.67187189 151.42903477 55.05376966 148.25 61.4375 C147.16816197 63.60621619 146.08613113 65.7748362 145.00390625 67.94335938 C144.47563232 69.00221344 143.9473584 70.0610675 143.40307617 71.15200806 C142.3637353 73.23510027 141.32418885 75.31808992 140.28442383 77.40097046 C138.06209931 81.85491697 135.84395532 86.31060264 133.6484375 90.77783203 C128.19524545 101.84123418 128.19524545 101.84123418 125.03125 106.75 C117.69248126 118.63009976 117.0720874 130.01538753 117.125 143.625 C117.12491943 144.49898437 117.12483887 145.37296875 117.12475586 146.2734375 C117.19547458 159.49411567 118.09422867 170.96305036 127.62890625 180.984375 C131.67006493 184.41969276 136.21713982 186.75803429 141 189 C141 189.66 141 190.32 141 191 C110.31 191 79.62 191 48 191 C49 188 49 188 51.00390625 186.9296875 C52.27041016 186.40761719 52.27041016 186.40761719 53.5625 185.875 C61.21129204 182.24785077 66.93499938 175.93294279 70 168 C71.76343989 160.98960374 71.53618911 153.55943472 71.6796875 146.36914062 C71.72575495 144.57123059 71.79333365 142.77371358 71.88476562 140.97753906 C72.63485747 125.92532291 68.9732594 115.67073692 61.87860107 102.53753662 C59.73726314 98.54468503 57.72861077 94.48865476 55.72314453 90.42626953 C55.34666967 89.6640251 54.97019482 88.90178066 54.58231163 88.11643791 C53.80093007 86.53401802 53.01967644 84.95153496 52.23854446 83.36899185 C50.22976574 79.30990812 48.20181333 75.26045076 46.17382812 71.2109375 C45.34642573 69.55827314 44.51903321 67.90560385 43.69165039 66.25292969 C43.07338379 65.01808838 43.07338379 65.01808838 42.44262695 63.75830078 C40.75825577 60.3921795 39.07687437 57.02456857 37.39545727 53.65697098 C35.75566571 50.37375565 34.11395187 47.09150441 32.47167397 43.80953217 C31.69732559 42.26149452 30.92355351 40.71316844 30.15041161 39.16452789 C26.73854118 32.33264919 23.31548999 25.50497574 19.75512695 18.74902344 C19.32383987 17.92803162 18.8925528 17.10703979 18.44819641 16.26116943 C14.03677821 9.37331644 7.34266613 5.20407249 0 2 C0 1.34 0 0.68 0 0 Z " fill="#0F5F3C" transform="translate(1355,1265)"/>
<path d="M0 0 C30.69 0 61.38 0 93 0 C93 0.66 93 1.32 93 2 C92.28714844 2.3403125 91.57429687 2.680625 90.83984375 3.03125 C79.35447633 8.84349516 74.01751101 15.94746696 70 28 C69.9032602 29.79154437 69.86504652 31.58648454 69.85955811 33.38063049 C69.85384796 34.49779953 69.84813782 35.61496857 69.84225464 36.76599121 C69.84113678 37.9924939 69.84001892 39.21899658 69.83886719 40.48266602 C69.83390228 41.77401962 69.82893738 43.06537323 69.82382202 44.39585876 C69.81070174 47.94169351 69.80425305 51.48750931 69.79981136 55.03336453 C69.79687824 57.25145741 69.79277283 59.46954514 69.78830719 61.68763542 C69.77462928 68.63522046 69.76496574 75.58279371 69.7611053 82.53039128 C69.75663261 90.53507744 69.7391228 98.53959217 69.7101047 106.54422623 C69.68842981 112.73972435 69.67839782 118.93517446 69.67706418 125.13071007 C69.67601971 128.82658763 69.67018944 132.52230411 69.65224457 136.21814156 C69.63257704 140.34938932 69.63707589 144.4802827 69.64355469 148.61157227 C69.6343399 149.82390533 69.62512512 151.0362384 69.6156311 152.28530884 C69.67170895 163.7332516 71.75931378 172.72767967 80 181 C84.06536097 184.20155746 88.35170136 186.74405371 93 189 C93 189.66 93 190.32 93 191 C62.31 191 31.62 191 0 191 C0 190.34 0 189.68 0 189 C0.94359375 188.5978125 0.94359375 188.5978125 1.90625 188.1875 C10.09776097 184.43716968 17.62040353 179.08639187 21.18565369 170.48078918 C25.73230834 156.63005825 24.26206744 140.76345394 24.16551661 126.43120408 C24.15223164 124.37719838 24.14178887 122.32319715 24.13226509 120.26917076 C24.09865868 113.0775382 24.05360937 105.88607728 23.99829102 98.69458008 C23.94735054 92.0297006 23.92276029 85.36506687 23.91010088 78.70001489 C23.89791263 72.93890597 23.86657477 67.17809861 23.8208161 61.41715926 C23.79396637 57.99300453 23.77461273 54.56923731 23.77497673 51.14496803 C23.77041654 47.32629048 23.73450513 43.5090823 23.69116211 39.69067383 C23.69664566 38.57918976 23.70212921 37.46770569 23.70777893 36.32254028 C23.54715752 27.00040309 21.18570704 18.22913103 14.875 11.125 C10.50202919 7.17866049 5.24950859 4.59152956 0 2 C0 1.34 0 0.68 0 0 Z " fill="#0F5F3C" transform="translate(866,1265)"/>
<path d="M0 0 C-0.28626955 6.083228 -1.25496132 12.00856426 -2.625 17.9375 C-2.90601563 19.20464844 -3.18703125 20.47179687 -3.4765625 21.77734375 C-5.210682 25.44567345 -6.35922211 25.86576236 -10.00958252 27.29328918 C-13.2700877 28.45095299 -16.56187938 29.48100717 -19.87890625 30.4609375 C-21.43475177 30.92943665 -22.99049251 31.39828389 -24.54614258 31.86743164 C-25.3614444 32.11204132 -26.17674622 32.356651 -27.01675415 32.6086731 C-68.04308008 44.9585223 -108.4619508 59.36595773 -148.078125 75.6953125 C-148.731866 75.96465607 -149.38560699 76.23399963 -150.05915833 76.51150513 C-152.94116174 77.70353172 -155.81481817 78.91208518 -158.68041992 80.14306641 C-159.63021729 80.54444824 -160.58001465 80.94583008 -161.55859375 81.359375 C-162.35579834 81.70452148 -163.15300293 82.04966797 -163.97436523 82.40527344 C-166 83 -166 83 -169 82 C-170.7175293 79.80688477 -170.7175293 79.80688477 -172.57421875 76.94140625 C-173.24130859 75.91595703 -173.90839844 74.89050781 -174.59570312 73.83398438 C-175.28599609 72.75439453 -175.97628906 71.67480469 -176.6875 70.5625 C-177.38939453 69.48677734 -178.09128906 68.41105469 -178.81445312 67.30273438 C-184 59.27496356 -184 59.27496356 -184 57 C-141.36700105 41.88108772 -98.49425636 27.67080387 -55.125 14.8125 C-54.44609837 14.61105881 -53.76719673 14.40961761 -53.06772232 14.20207214 C-39.50966379 10.18088604 -25.93832363 6.20755508 -12.3046875 2.44921875 C-11.39606964 2.19678909 -10.48745178 1.94435944 -9.55130005 1.6842804 C-8.72467865 1.4593541 -7.89805725 1.2344278 -7.04638672 1.00268555 C-6.33215546 0.80740768 -5.61792419 0.61212982 -4.88204956 0.41093445 C-3 0 -3 0 0 0 Z " fill="#0F5F3C" transform="translate(1096,320)"/>
<path d="M0 0 C-1.26995439 6.55998921 -2.67966449 13.0682095 -4.25 19.5625 C-4.56988892 20.894021 -4.56988892 20.894021 -4.89624023 22.25244141 C-5.355146 24.16242801 -5.81471934 26.07225432 -6.27490234 27.98193359 C-7.02840414 31.11822627 -7.77465288 34.25617994 -8.51953125 37.39453125 C-12.83742544 55.54993551 -12.83742544 55.54993551 -15 63.4375 C-18.03059723 74.53256783 -20.45662817 85.78546319 -23 97 C-27.05449441 92.2581343 -30.25170693 87.01905551 -33.5625 81.75 C-34.8263005 79.75097171 -36.09062816 77.75227661 -37.35546875 75.75390625 C-37.97728027 74.7705127 -38.5990918 73.78711914 -39.23974609 72.77392578 C-41.59460004 69.06298951 -43.98085826 65.37315788 -46.375 61.6875 C-47.2435363 60.3437802 -48.11202393 59.00002893 -48.98046875 57.65625 C-51.0165296 54.50928949 -53.06630816 51.37159232 -55.1217041 48.23722839 C-56.61316077 45.95848495 -58.09678248 43.67470088 -59.5791626 41.39004517 C-60.66995414 39.71445264 -61.77020865 38.04503268 -62.87060547 36.37573242 C-63.53592285 35.34810791 -64.20124023 34.3204834 -64.88671875 33.26171875 C-65.48701904 32.34350342 -66.08731934 31.42528809 -66.70581055 30.47924805 C-68 28 -68 28 -68 24 C-67.20231201 23.71914551 -66.40462402 23.43829102 -65.58276367 23.14892578 C-46.17080079 16.3067883 -26.75449056 9.45506343 -7.54638672 2.0546875 C-2.19963858 0 -2.19963858 0 0 0 Z " fill="#C42027" transform="translate(940,963)"/>
</svg>
