<?xml version="1.0" encoding="UTF-8"?>
<svg version="1.1" xmlns="http://www.w3.org/2000/svg" width="1280" height="1280">
<path d="M0 0 C1.24700684 0.3393457 2.49401367 0.67869141 3.77880859 1.02832031 C48.74842771 13.41186582 93.16097136 28.53375205 136 47 C137.85927194 47.79569484 139.71854765 48.5913809 141.57792664 49.38682556 C155.49941062 55.34785282 169.37304994 61.38633362 183 68 C183 71 183 71 181.7530573 72.62095619 C180.86583951 73.50747207 180.86583951 73.50747207 179.96069813 74.41189736 C179.28125837 75.09807899 178.60181862 75.78426063 177.90178978 76.49123564 C177.14133005 77.24381434 176.38087031 77.99639304 175.59736633 78.77177715 C174.79707721 79.57552781 173.99678808 80.37927847 173.17224777 81.20738521 C170.93316956 83.453073 168.68742882 85.69184949 166.43881582 87.92798276 C164.0003402 90.35619376 161.57054117 92.79305991 159.13966084 95.22887021 C154.87271715 99.502049 150.60020281 103.76959457 146.32405472 108.03356171 C139.96555267 114.37400112 133.6156274 120.72297765 127.26747009 127.0737723 C116.59000057 137.75518901 105.90554611 148.429593 95.21713257 159.1000576 C84.62989019 169.66956635 74.04574008 180.24215579 63.46572876 190.81890297 C62.80860039 191.47582512 62.15147201 192.13274728 61.47443066 192.80957617 C58.13740533 196.14558653 54.8004354 199.4816523 51.46348679 202.8177394 C27.81010272 226.46481742 4.14976648 250.10492815 -19.51464844 273.7409668 C-42.50839866 296.70717669 -65.49900525 319.67652609 -88.48535156 342.65014648 C-89.19353406 343.35793441 -89.90171657 344.06572233 -90.63135915 344.79495837 C-97.74302899 351.90267276 -104.85463486 359.01045117 -111.96619384 366.11827649 C-126.45406114 380.59853457 -140.94235558 395.07836525 -155.4309082 409.55793762 C-156.09710995 410.2237275 -156.7633117 410.88951738 -157.44970138 411.57548271 C-201.95931488 456.05748081 -246.47888505 500.52951384 -291 545 C-294.0634819 543.63181438 -296.1693497 542.0802969 -298.53609586 539.71230114 C-299.22452478 539.0283668 -299.91295371 538.34443246 -300.62224412 537.63977283 C-301.3721958 536.88456712 -302.12214749 536.12936141 -302.89482498 535.35127068 C-303.69972949 534.54867386 -304.50463399 533.74607705 -305.33392954 532.91915911 C-307.5763466 530.68113771 -309.81420165 528.43866574 -312.05024895 526.19428343 C-314.48045018 523.75722385 -316.91644074 521.32596293 -319.3517139 518.89397347 C-323.62202553 514.62781375 -327.8885975 510.35794221 -332.15276718 506.08564377 C-338.49347934 499.73287789 -344.83989985 493.38583797 -351.18751976 487.03997516 C-361.86426585 476.36585906 -372.53634413 465.68708752 -383.20578766 455.00567245 C-393.77282329 444.42681055 -404.34191746 433.85001234 -414.91378021 423.27597427 C-415.57063363 422.61898338 -416.22748704 421.96199249 -416.90424511 421.28509278 C-420.23996119 417.94870004 -423.57571422 414.61234424 -426.91148147 411.27600266 C-450.55045754 387.63282362 -474.18479137 363.98500909 -497.81640625 340.33447266 C-520.77695111 317.35556476 -543.73959153 294.37875426 -566.70507812 271.40478516 C-567.41273452 270.69686571 -568.12039092 269.98894626 -568.84949145 269.2595747 C-575.95594565 262.15048351 -583.06244254 255.04143498 -590.16897071 247.93241773 C-604.64632145 233.44999429 -619.12338724 218.967286 -633.60028076 204.48440552 C-634.59875965 203.48551476 -634.59875965 203.48551476 -635.61740982 202.4664444 C-680.08304667 157.98240025 -724.54203975 113.49171608 -769 69 C-768 66 -768 66 -765.44433594 64.52050781 C-764.30254883 64.00327148 -763.16076172 63.48603516 -761.984375 62.953125 C-761.35421478 62.66521591 -760.72405457 62.37730682 -760.07479858 62.08067322 C-757.97172888 61.12510439 -755.86149077 60.1868006 -753.75 59.25 C-753.02182068 58.92319244 -752.29364136 58.59638489 -751.543396 58.25967407 C-725.8259164 46.71771953 -699.60536102 36.12440857 -673.03155518 26.71948242 C-671.60378942 26.21383415 -670.17654837 25.70670301 -668.74969482 25.19848633 C-580.35483765 -6.27986067 -488.59555558 -26.21912492 0 0 Z " fill="#41A862" transform="translate(938,435)"/>
<path d="M0 0 C2.78807474 1.27259639 4.83286268 2.58390959 6.98828125 4.7578125 C7.80135742 5.57378906 7.80135742 5.57378906 8.63085938 6.40625 C9.18580078 6.9734375 9.74074219 7.540625 10.3125 8.125 C11.12750977 8.94097656 11.12750977 8.94097656 11.95898438 9.7734375 C14.8402333 12.68530182 17.59612115 15.6629174 20.26171875 18.7734375 C24.74122109 23.94635162 29.62964234 28.69853 34.5 33.5 C39.93098171 38.85416443 45.25531363 44.20086208 50.21679688 49.99414062 C53.78805311 54.01131494 57.67063459 57.73113009 61.5 61.5 C66.58960926 66.50920469 71.53004601 71.54022781 76.18164062 76.95898438 C79.76842688 80.98496894 83.65852822 84.71921498 87.5 88.5 C96.59781432 97.45408897 96.59781432 97.45408897 100.4375 101.9375 C104.84276487 107.06930101 109.68662116 111.7547029 114.5 116.5 C119.92074763 121.8440751 125.23352025 127.18065411 130.18554688 132.96289062 C133.92664807 137.16307206 137.99450544 141.05428894 142 145 C147.27054566 150.1918808 152.41429857 155.39082714 157.23046875 161.0078125 C160.63988268 164.84622553 164.34063314 168.40203192 168 172 C176.56667474 180.42293858 176.56667474 180.42293858 180.44140625 184.94921875 C185.4500486 190.78179361 191.06310481 196.03554194 196.58789062 201.37304688 C197.41353516 202.18451172 198.23917969 202.99597656 199.08984375 203.83203125 C199.84128662 204.56139893 200.59272949 205.2907666 201.36694336 206.04223633 C203 208 203 208 203 211 C202.33097656 210.87995605 201.66195313 210.75991211 200.97265625 210.63623047 C164.17191616 204.07260854 127.22439784 198.51909617 90 195 C89.1071228 194.91536499 88.21424561 194.83072998 87.29431152 194.74353027 C28.63091414 189.29412991 -32.35653861 189.37648564 -91 195 C-92.01813782 195.09710266 -93.03627563 195.19420532 -94.08526611 195.29425049 C-126.17743787 198.39589717 -157.9448818 203.11599132 -189.70751953 208.60571289 C-194.46820837 209.42451081 -199.23393043 210.21319632 -204 211 C-204 208 -204 208 -202.08935547 205.8996582 C-201.06090788 204.93168237 -200.03088694 203.96537753 -199 203 C-197.55872022 201.5719205 -196.12182985 200.13940499 -194.68798828 198.70385742 C-193.8700882 197.88918503 -193.05218811 197.07451263 -192.20950317 196.2351532 C-188.979436 193.01672055 -185.75124498 189.79641027 -182.52366829 186.57548046 C-180.08302395 184.14004843 -177.64145274 181.70556082 -175.19775391 179.27319336 C-172.3607782 176.44927881 -169.52796542 173.62121949 -166.6953125 170.79296875 C-165.82842804 169.93124557 -164.96154358 169.0695224 -164.06838989 168.1816864 C-159.79863654 163.91232433 -155.70803974 159.57309239 -151.77218628 154.99580383 C-148.36197288 151.15528377 -144.6806461 147.58005258 -141.03125 143.96875 C-139.77254089 142.71572083 -139.77254089 142.71572083 -138.48840332 141.43737793 C-134.9314548 137.89663871 -131.3685388 134.36192676 -127.80615234 130.82666016 C-125.19159836 128.2302794 -122.58011816 125.63083434 -119.96875 123.03125 C-119.17376099 122.24455933 -118.37877197 121.45786865 -117.55969238 120.64733887 C-114.09152187 117.19428824 -110.70638623 113.72426031 -107.51367188 110.01367188 C-103.50811558 105.36077035 -99.17395336 101.06714626 -94.8125 96.75 C-93.52049683 95.46367676 -93.52049683 95.46367676 -92.20239258 94.15136719 C-88.54986017 90.51505061 -84.89136365 86.88475629 -81.23339844 83.25390625 C-78.54934844 80.58802403 -75.86836759 77.9190819 -73.1875 75.25 C-72.37063721 74.44143555 -71.55377441 73.63287109 -70.7121582 72.79980469 C-66.55278836 68.65810128 -62.58834928 64.43435894 -58.76089478 59.98574829 C-55.50624396 56.31550213 -51.99847617 52.89714094 -48.51171875 49.44921875 C-47.33510429 48.27828423 -47.33510429 48.27828423 -46.13471985 47.08369446 C-43.65474607 44.61583401 -41.17153756 42.15126955 -38.6875 39.6875 C-35.39687442 36.42343978 -32.10955675 33.15609996 -28.82421875 29.88671875 C-28.06904465 29.13984299 -27.31387054 28.39296722 -26.53581238 27.62345886 C-25.83781021 26.92875992 -25.13980804 26.23406097 -24.4206543 25.51831055 C-23.80667282 24.90956589 -23.19269135 24.30082123 -22.56010437 23.67362976 C-20.80177761 21.87772413 -20.80177761 21.87772413 -19 19 C-18.34 19 -17.68 19 -17 19 C-16.7417041 18.41573242 -16.4834082 17.83146484 -16.21728516 17.22949219 C-14.90326864 14.82283378 -13.47519985 13.24680663 -11.5234375 11.328125 C-10.51796875 10.33232422 -10.51796875 10.33232422 -9.4921875 9.31640625 C-8.44417969 8.29353516 -8.44417969 8.29353516 -7.375 7.25 C-6.66859375 6.55261719 -5.9621875 5.85523438 -5.234375 5.13671875 C-3.49401297 3.41987512 -1.74915019 1.70788168 0 0 Z " fill="#7EA4CF" transform="translate(643,18)"/>
<path d="M0 0 C20.8828125 -0.061875 20.8828125 -0.061875 42.1875 -0.125 C46.55895264 -0.14320801 50.93040527 -0.16141602 55.43432617 -0.18017578 C60.83459473 -0.18920898 60.83459473 -0.18920898 63.37471008 -0.19088745 C65.12248253 -0.19392842 66.87025119 -0.20089868 68.61799622 -0.21115112 C87.50279272 -0.31624816 105.18846847 0.50313267 119.94140625 13.7421875 C128.37660506 22.52353917 131.35693924 33.85764565 131.2109375 45.7421875 C130.56850249 55.66423937 127.73844603 64.90712915 120.125 71.6640625 C115.65223464 75 115.65223464 75 113 75 C113 75.66 113 76.32 113 77 C113.804375 77.165 114.60875 77.33 115.4375 77.5 C123.86445948 81.04819346 129.44909175 87.72847255 133 96 C133.31839844 96.72445313 133.63679687 97.44890625 133.96484375 98.1953125 C138.36928452 110.17052013 137.08492844 124.49516191 132 136 C125.25490995 148.96081861 116.37502585 156.55931152 103 162 C73.40546321 171.11900135 16.63216038 165 0 165 C0 110.55 0 56.1 0 0 Z M34 30 C34 41.22 34 52.44 34 64 C40.38672408 64.06911485 46.77213458 64.12877642 53.15893555 64.16479492 C55.3285768 64.17982036 57.49818798 64.20024653 59.66772461 64.22631836 C62.7980901 64.26297706 65.9280517 64.27978926 69.05859375 64.29296875 C70.49820717 64.31619453 70.49820717 64.31619453 71.96690369 64.33988953 C79.46806606 64.34173649 86.09173118 63.4751224 91.9375 58.5 C96.25639274 53.2649785 96.56332274 49.90910094 96.4296875 43.2421875 C95.90146572 39.2565141 94.99804092 37.10528441 92.00961304 34.42756653 C85.30445643 29.66443205 76.87181835 29.57871218 68.9609375 29.70703125 C67.95406891 29.71127609 66.94720032 29.71552094 65.90982056 29.71989441 C62.73126121 29.7365284 59.55336386 29.77415125 56.375 29.8125 C54.20443632 29.82756661 52.03386258 29.84125153 49.86328125 29.85351562 C44.57506795 29.88381478 39.28826456 29.94256511 34 30 Z M34 93 C34 106.86 34 120.72 34 135 C40.51082233 135.06915508 47.02035202 135.12880455 53.53125 135.16479492 C55.74255714 135.17981037 57.95383485 135.20022891 60.16503906 135.22631836 C63.35749609 135.26302154 66.54955675 135.2797993 69.7421875 135.29296875 C70.71864227 135.30845261 71.69509705 135.32393646 72.70114136 135.33988953 C80.31183929 135.3417237 87.18889234 134.15410433 93.875 130.375 C99.56133484 124.01968459 100.67007427 117.3443525 100.38671875 108.9609375 C99.71522458 103.81959834 97.34770316 101.34770316 93.8125 97.8125 C86.49317607 93.09560236 79.14259213 92.57554446 70.62109375 92.70703125 C69.04208031 92.71339851 69.04208031 92.71339851 67.4311676 92.71989441 C64.09967458 92.73656232 60.76880732 92.7741925 57.4375 92.8125 C55.16602442 92.82756219 52.89453927 92.8412479 50.62304688 92.85351562 C45.08160166 92.88386308 39.54149358 92.94260824 34 93 Z " fill="#000000" transform="translate(326,1093)"/>
<path d="M0 0 C12.73570783 9.8274044 20.54751665 23.66831574 24.9375 39 C25.2571875 40.10601563 25.576875 41.21203125 25.90625 42.3515625 C31.7728396 67.2845683 30.33658756 99.53793784 16.83447266 121.8203125 C9.54344337 133.2609756 0.97752107 141.57743557 -11.0625 148 C-11.86945313 148.44214844 -12.67640625 148.88429688 -13.5078125 149.33984375 C-35.11690609 160.2104734 -59.88946639 159.12096848 -82.390625 151.9375 C-100.49289086 145.1136092 -113.44230884 131.91076215 -121.75 114.6875 C-132.45252787 89.83228724 -133.85650542 57.8681213 -124.25 32.375 C-123.24585192 29.88329369 -122.17018003 27.44999179 -121.0625 25 C-120.40121094 23.51113281 -120.40121094 23.51113281 -119.7265625 21.9921875 C-112.03995551 6.39681724 -97.9106913 -4.49528566 -82.0625 -11 C-53.36501895 -20.51419958 -24.84996922 -17.1986163 0 0 Z M-81.0625 27 C-83.40476333 29.84706146 -85.29365059 32.76919934 -87.0625 36 C-87.44019531 36.67417969 -87.81789063 37.34835937 -88.20703125 38.04296875 C-96.58903376 54.7755805 -96.62997468 78.37294237 -91.0625 96 C-86.62545257 107.54176756 -80.33675406 117.36287297 -69.0625 123 C-68.44375 123.3196875 -67.825 123.639375 -67.1875 123.96875 C-58.0920067 127.80591124 -45.33311737 127.50129377 -36.0625 124.4375 C-24.33834256 119.27671291 -16.75498107 111.74412201 -11.75 99.9375 C-11.16006094 98.3013015 -10.59552678 96.6556135 -10.0625 95 C-9.84851563 94.34128906 -9.63453125 93.68257812 -9.4140625 93.00390625 C-4.56780987 74.98848887 -6.09096257 52.84592856 -14.0625 36 C-15.80901519 33.04250329 -17.75157484 30.53345869 -20.0625 28 C-20.57425781 27.38640625 -21.08601563 26.7728125 -21.61328125 26.140625 C-27.78795995 19.24384783 -36.56661202 15.35513683 -45.75 14.76171875 C-59.80401064 14.39561823 -70.78300047 16.64707547 -81.0625 27 Z " fill="#000000" transform="translate(288.0625,1105)"/>
<path d="M0 0 C11.88 0 23.76 0 36 0 C36 20.46 36 40.92 36 62 C56.46 62 76.92 62 98 62 C98 41.54 98 21.08 98 0 C109.55 0 121.1 0 133 0 C133 54.45 133 108.9 133 165 C121.45 165 109.9 165 98 165 C98 140.91 98 116.82 98 92 C77.54 92 57.08 92 36 92 C36 116.09 36 140.18 36 165 C24.12 165 12.24 165 0 165 C0 110.55 0 56.1 0 0 Z " fill="#000000" transform="translate(941,1093)"/>
<path d="M0 0 C1.41408966 1.18691641 2.8110171 2.39466876 4.1875 3.625 C4.81398438 4.17027344 5.44046875 4.71554687 6.0859375 5.27734375 C14.6702004 13.24308989 19.01704474 23.2109588 21.1875 34.625 C21.1875 37.265 21.1875 39.905 21.1875 42.625 C9.9675 42.625 -1.2525 42.625 -12.8125 42.625 C-13.8025 39.655 -14.7925 36.685 -15.8125 33.625 C-19.75184438 26.66549159 -24.38324823 23.41096942 -31.8125 20.625 C-43.30920863 17.71571073 -55.82338021 18.93982775 -66.25 24.4375 C-69.78193916 27.45257002 -71.52881054 30.11682492 -72.05859375 34.80078125 C-72.1890577 39.36701957 -71.92734389 43.49601908 -69.8125 47.625 C-59.97636012 52.2804003 -48.73880309 54.73063056 -38.1875 57.23828125 C-37.26251709 57.4593454 -36.33753418 57.68040955 -35.38452148 57.90817261 C-31.57215664 58.81612257 -27.75928385 59.72035438 -23.93945312 60.59643555 C-7.93717208 64.28433325 9.98907803 68.57684258 20.1875 82.625 C27.08153792 94.91074311 28.0515548 108.53780062 25.50390625 122.32421875 C21.01126588 136.58508963 12.41707691 146.89188065 -0.6015625 154.08984375 C-21.89413116 164.26986745 -49.49549081 164.81593096 -71.8125 157.625 C-80.74905841 154.25181232 -89.31403975 149.74889891 -95.8125 142.625 C-96.42351563 141.97144531 -97.03453125 141.31789063 -97.6640625 140.64453125 C-106.47376404 130.35405009 -108.8125 118.81030196 -108.8125 105.625 C-97.5925 105.625 -86.3725 105.625 -74.8125 105.625 C-73.4925 109.915 -72.1725 114.205 -70.8125 118.625 C-66.32191172 125.73509811 -59.97248627 128.31541912 -52.02270508 130.21923828 C-48.20575887 130.91997446 -44.43434619 130.96468329 -40.5625 130.9375 C-39.31678223 130.93012817 -39.31678223 130.93012817 -38.04589844 130.92260742 C-29.23621111 130.75582208 -20.21022538 129.83640367 -13.1484375 124.06640625 C-9.81739442 120.47238609 -8.66652087 116.33615422 -8.375 111.5625 C-8.8954599 106.87836093 -9.5953043 105.07199539 -12.8125 101.625 C-19.59472552 97.42926728 -26.75246669 95.31373506 -34.453125 93.50390625 C-35.53777039 93.23666245 -36.62241577 92.96941864 -37.7399292 92.69407654 C-42.32775224 91.56406142 -46.922093 90.46167816 -51.51611328 89.35717773 C-90.43040571 79.95173471 -90.43040571 79.95173471 -100.75 64.625 C-107.53776677 52.36864374 -108.30108416 38.08638452 -104.8125 24.625 C-101.00522059 11.7183228 -92.12357603 1.88499022 -80.4375 -4.5625 C-56.80917657 -15.55173272 -21.4137762 -16.1054708 0 0 Z " fill="#000000" transform="translate(909.8125,1100.375)"/>
<path d="M0 0 C1.6874269 0.00015917 3.37485866 0.00585622 5.06225586 0.01586914 C6.39189613 0.01799156 6.39189613 0.01799156 7.74839783 0.02015686 C10.59133215 0.02577324 13.43418892 0.03832848 16.27709961 0.05102539 C18.19962452 0.05603828 20.12215065 0.06060155 22.04467773 0.06469727 C26.7680151 0.07574798 31.49129419 0.09302356 36.21459961 0.11352539 C39.44347258 7.00281863 42.04650189 14.03211129 44.53100586 21.21899414 C44.93983002 22.39132599 45.34865417 23.56365784 45.76986694 24.77151489 C46.64991891 27.29646309 47.52861977 29.82183241 48.40499878 32.34805298 C49.79717289 36.36073792 51.19492441 40.37146561 52.59375 44.38183594 C54.03940645 48.52703986 55.48490974 52.67229589 56.92875671 56.81813049 C61.64603979 70.36248098 66.3932239 83.89623001 71.15209961 97.42602539 C71.73516876 99.08541138 71.73516876 99.08541138 72.33001709 100.77832031 C76.34924187 112.21498502 80.39086014 123.64263987 84.51147461 135.04321289 C84.8461525 135.97008408 85.18083038 136.89695526 85.52565002 137.85191345 C87.07808127 142.14857556 88.63613835 146.44304655 90.20458984 150.73388672 C90.74319731 152.21846428 91.28169726 153.70308085 91.82006836 155.18774414 C92.18881073 156.18661148 92.18881073 156.18661148 92.56500244 157.20565796 C93.574143 160.00014768 94.21459961 162.11368278 94.21459961 165.11352539 C81.34459961 165.11352539 68.47459961 165.11352539 55.21459961 165.11352539 C53.56459961 159.87477539 51.91459961 154.63602539 50.21459961 149.23852539 C49.6925293 147.5861084 49.17045898 145.93369141 48.63256836 144.23120117 C48.22218601 142.9238177 47.81201519 141.61636779 47.40209961 140.30883789 C47.18618164 139.62813232 46.97026367 138.94742676 46.74780273 138.24609375 C45.21459961 133.34166899 45.21459961 133.34166899 45.21459961 131.11352539 C25.74459961 131.11352539 6.27459961 131.11352539 -13.78540039 131.11352539 C-14.44540039 134.08352539 -15.10540039 137.05352539 -15.78540039 140.11352539 C-16.38706702 142.15543249 -17.02050463 144.18844104 -17.69555664 146.20727539 C-18.04553711 147.25657227 -18.39551758 148.30586914 -18.75610352 149.38696289 C-19.29654297 150.98411133 -19.29654297 150.98411133 -19.84790039 152.61352539 C-20.39414062 154.25708008 -20.39414062 154.25708008 -20.95141602 155.93383789 C-23.65171984 163.97984484 -23.65171984 163.97984484 -24.78540039 165.11352539 C-27.52434124 165.20211185 -30.23793309 165.22876018 -32.97680664 165.21118164 C-33.79664536 165.20976669 -34.61648407 165.20835175 -35.46116638 165.20689392 C-38.09011421 165.20127828 -40.71897813 165.18872318 -43.34790039 165.17602539 C-45.12589396 165.1710124 -46.90388885 165.16644915 -48.68188477 165.16235352 C-53.04975584 165.15130378 -57.41756387 165.1340287 -61.78540039 165.11352539 C-61.1305703 160.17715113 -59.73025179 155.65864453 -58.07446289 150.98461914 C-57.79520462 150.18445374 -57.51594635 149.38428833 -57.22822571 148.55987549 C-56.29404503 145.8884429 -55.35240744 143.21970741 -54.41040039 140.55102539 C-53.7364479 138.63093158 -53.06270633 136.71076372 -52.38916016 134.79052734 C-46.46026147 117.91752168 -40.42223141 101.08339338 -34.3684082 84.25488281 C-29.7860212 71.51209254 -25.23470151 58.75897051 -20.71899414 45.99243164 C-20.2077947 44.54786124 -19.69657956 43.1032964 -19.18534851 41.65873718 C-16.93620153 35.30236201 -14.68873533 28.9454084 -12.44736195 22.5862875 C-11.74811711 20.60374857 -11.04761881 18.62165793 -10.34657288 16.63975525 C-9.4846775 14.20279521 -8.62499285 11.76505185 -7.76780701 9.32643127 C-7.388022 8.2542485 -7.008237 7.18206573 -6.61694336 6.07739258 C-6.28564423 5.13804871 -5.95434509 4.19870483 -5.61300659 3.230896 C-4.22017004 -0.33257558 -4.21666035 0.12645902 0 0 Z M15.21459961 41.11352539 C12.73559875 48.78834886 10.25815532 56.46367253 7.78272247 64.13964748 C6.63334562 67.70353696 5.48342429 71.26724887 4.33227539 74.83056641 C3.22226629 78.26660546 2.11366555 81.70309591 1.00605774 85.13990974 C0.58232707 86.45385117 0.15808118 87.76762655 -0.26667786 89.08123589 C-0.85955142 90.91505068 -1.45045635 92.74950159 -2.04125977 94.58398438 C-2.5475592 96.15284645 -2.5475592 96.15284645 -3.06408691 97.75340271 C-3.83411366 99.86159951 -3.83411366 99.86159951 -3.78540039 101.11352539 C9.08459961 101.11352539 21.95459961 101.11352539 35.21459961 101.11352539 C29.1859187 80.9896187 23.00271442 60.99371386 16.21459961 41.11352539 C15.88459961 41.11352539 15.55459961 41.11352539 15.21459961 41.11352539 Z " fill="#000000" transform="translate(511.785400390625,1092.886474609375)"/>
<path d="M0 0 C13.53 0 27.06 0 41 0 C49.74765279 24.54202588 58.45088626 49.09749486 67.0625 73.6875 C73.97739198 93.43169746 80.9465006 113.15514376 88.00849915 132.84721375 C88.81417206 135.09551172 89.61761318 137.34459806 90.42089844 139.59375 C91.51687956 142.66050663 92.62680253 145.72185711 93.74316406 148.78125 C94.3002482 150.32287403 94.85721856 151.86453919 95.4140625 153.40625 C95.6748056 154.1125354 95.93554871 154.8188208 96.20419312 155.54650879 C97.42401039 158.94343144 98 161.33756058 98 165 C85.46 165 72.92 165 60 165 C57.6031036 158.60827626 55.39165281 152.2435545 53.3125 145.75 C52.99216797 144.7703125 52.67183594 143.790625 52.34179688 142.78125 C52.03951172 141.83765625 51.73722656 140.8940625 51.42578125 139.921875 C51.15161377 139.07206055 50.87744629 138.22224609 50.5949707 137.34667969 C50 135 50 135 50 131 C30.53 131.33 11.06 131.66 -9 132 C-12.63 142.89 -16.26 153.78 -20 165 C-32.54 165 -45.08 165 -58 165 C-56.04031961 157.81450525 -54.02185846 150.88190348 -51.515625 143.90234375 C-51.18345978 142.96706345 -50.85129456 142.03178314 -50.50906372 141.06816101 C-49.42656457 138.02321901 -48.33835227 134.98035428 -47.25 131.9375 C-46.48485038 129.78902023 -45.72004436 127.64041807 -44.95556641 125.49169922 C-43.01138741 120.03040557 -41.062395 114.57084458 -39.11169434 109.11187744 C-37.74428482 105.28419686 -36.37906083 101.45573933 -35.01402283 97.62721252 C-31.94511989 89.0201225 -28.87045462 80.41510413 -25.79270935 71.81117249 C-23.52904009 65.48207512 -21.26960291 59.15147576 -19.01171875 52.8203125 C-12.7249918 35.19477579 -6.42671835 17.57510733 0 0 Z M20 41 C17.53971674 47.4049168 15.34274322 53.87486931 13.20703125 60.39453125 C12.85613937 61.46370285 12.5052475 62.53287445 12.14372253 63.63444519 C11.40744752 65.88057907 10.67213748 68.12702948 9.93774414 70.3737793 C8.80994059 73.82032151 7.67556277 77.26465707 6.54101562 80.70898438 C5.82511611 82.89570087 5.10960748 85.08254539 4.39453125 87.26953125 C4.05396194 88.30076614 3.71339264 89.33200104 3.36250305 90.39448547 C3.0518541 91.34945419 2.74120514 92.30442291 2.42114258 93.28833008 C2.14595291 94.12801834 1.87076324 94.9677066 1.5872345 95.83283997 C0.86923099 98.10837788 0.86923099 98.10837788 1 101 C13.54 101 26.08 101 39 101 C37.36080084 93.55656278 37.36080084 93.55656278 35.30419922 86.29663086 C34.82392776 84.766063 34.82392776 84.766063 34.33395386 83.20457458 C33.99429596 82.13546341 33.65463806 81.06635223 33.3046875 79.96484375 C32.95238068 78.84557999 32.60007385 77.72631622 32.23709106 76.57313538 C31.11993388 73.02679569 29.9975521 69.48213522 28.875 65.9375 C28.11293452 63.52159372 27.3512122 61.10557917 26.58984375 58.68945312 C24.73053089 52.79171026 22.86693497 46.89533422 21 41 C20.67 41 20.34 41 20 41 Z " fill="#000000" transform="translate(709,1093)"/>
<path d="M0 0 C13.53 0 27.06 0 41 0 C50.01360544 18.02721088 50.01360544 18.02721088 52.96484375 24.11328125 C53.28477798 24.77265686 53.60471222 25.43203247 53.93434143 26.11138916 C54.93650901 28.17788818 55.93712328 30.24513353 56.9375 32.3125 C57.28184082 33.02324677 57.62618164 33.73399353 57.98095703 34.46627808 C63.3821193 45.6152439 68.73628669 56.78536637 74 68 C79.06033417 58.07164378 83.79481414 48.03210222 88.375 37.875 C89.03181695 36.42436737 89.68888323 34.97384761 90.34619141 33.5234375 C93.22346923 27.17010494 96.0878161 20.81107407 98.9375 14.4453125 C99.35725098 13.5083252 99.77700195 12.57133789 100.20947266 11.60595703 C100.96678736 9.91270668 101.72180178 8.21842496 102.47412109 6.52294922 C104.89115186 1.10884814 104.89115186 1.10884814 106 0 C108.95705321 -0.08868299 111.89065056 -0.11520296 114.84765625 -0.09765625 C116.17729652 -0.09553383 116.17729652 -0.09553383 117.53379822 -0.09336853 C120.37673254 -0.08775215 123.21958931 -0.07519691 126.0625 -0.0625 C127.98502491 -0.05748711 129.90755104 -0.05292384 131.83007812 -0.04882812 C136.55341549 -0.03777741 141.27669458 -0.02050183 146 0 C144.72447253 4.12315488 143.18067619 7.79620164 141.12109375 11.5859375 C140.5381958 12.66536621 139.95529785 13.74479492 139.35473633 14.85693359 C138.71566293 16.02962533 138.07658399 17.20231404 137.4375 18.375 C136.42503678 20.24564633 135.41436256 22.11725204 134.40379333 23.98892212 C133.69595617 25.2997332 132.98758285 26.61025487 132.27870178 27.92050171 C128.61106854 34.70392058 125.00181281 41.51792003 121.39376831 48.3331604 C115.24398985 59.94624576 109.03365107 71.52284042 102.7109375 83.04296875 C102.31126266 83.78853027 101.91158783 84.5340918 101.49980164 85.30224609 C100.46289156 87.16737822 99.37011124 89.00213633 98.23449707 90.80886841 C93.13176133 99.30088412 91.99987104 105.95634289 92.1328125 115.76171875 C92.12594448 117.12842218 92.11586067 118.4951128 92.10275269 119.86177063 C92.07647574 123.41394396 92.09025099 126.96476089 92.11407471 130.51690674 C92.13592942 134.8589131 92.11153305 139.2008687 92.09202385 143.54285145 C92.07742131 146.9135402 92.07266038 150.28321175 92.08621216 153.65397644 C92.08886078 154.85315201 92.0915094 156.05232758 92.09423828 157.2878418 C92.09980743 158.34561325 92.10537659 159.4033847 92.1111145 160.49320984 C92 163 92 163 91 165 C79.45 165 67.9 165 56 165 C56.07863281 160.71902344 56.15726563 156.43804688 56.23828125 152.02734375 C56.26461809 148.54152324 56.27765887 145.0561961 56.28195953 141.57030487 C56.28999328 137.9292191 56.31959294 134.29170862 56.40795898 130.65161133 C56.85108099 111.53978104 54.8225449 97.49953102 43.5920105 81.33670044 C41.4073659 78.13015123 39.57360572 74.78352762 37.7578125 71.359375 C37.15477295 70.26359131 36.5517334 69.16780762 35.93041992 68.03881836 C35.33463135 66.9535083 34.73884277 65.86819824 34.125 64.75 C32.77026371 62.28735698 31.41447921 59.82529171 30.05859375 57.36328125 C29.72195206 56.75178726 29.38531036 56.14029327 29.03846741 55.51026917 C25.43948204 48.97598524 21.81359965 42.45676921 18.1875 35.9375 C16.9608877 33.72789223 15.73432404 31.51825745 14.5078125 29.30859375 C12.22119062 25.19078459 9.92350084 21.07946494 7.6171875 16.97265625 C6.59884457 15.14850101 5.58060872 13.32428597 4.5625 11.5 C3.86193481 10.26237915 3.86193481 10.26237915 3.1472168 8.99975586 C2.72867432 8.24702393 2.31013184 7.49429199 1.87890625 6.71875 C1.5135376 6.06841797 1.14816895 5.41808594 0.77172852 4.74804688 C0 3 0 3 0 0 Z " fill="#000000" transform="translate(556,1093)"/>
<path d="M0 0 C11.55 0 23.1 0 35 0 C36.8431514 1.8431514 36.12620834 4.83442 36.12698364 7.30163574 C36.12854363 7.96740364 36.13010362 8.63317153 36.13171089 9.31911421 C36.13572276 11.56628046 36.13253054 13.81338003 36.12939453 16.06054688 C36.13074849 17.66496317 36.13252839 19.26937916 36.13470459 20.87379456 C36.13927957 25.24350554 36.1374891 29.61319302 36.1343255 33.98290443 C36.13180224 38.54552908 36.13413935 43.10815165 36.13571167 47.67077637 C36.13753346 55.33439497 36.1351268 62.99800395 36.13037109 70.66162109 C36.12492845 79.5349395 36.1266911 88.40823494 36.1321975 97.28155279 C36.13672835 104.88577392 36.13737932 112.48998811 36.13475883 120.09421015 C36.1331959 124.64211053 36.13300272 129.19000009 36.13629532 133.73789978 C36.13917363 138.01252765 36.13719908 142.28712577 36.13140106 146.56175041 C36.13007325 148.13518665 36.13046794 149.70862536 36.13266373 151.28206062 C36.13537441 153.42086288 36.13199515 155.55956826 36.12698364 157.69836426 C36.12660662 158.8981617 36.12622959 160.09795914 36.12584114 161.33411407 C36 164 36 164 35 165 C23.45 165 11.9 165 0 165 C0 110.55 0 56.1 0 0 Z " fill="#000000" transform="translate(1083,1093)"/>
</svg>
