<?xml version="1.0" encoding="UTF-8"?>
<svg version="1.1" xmlns="http://www.w3.org/2000/svg" width="4584" height="4584">
<path d="M0 0 C1.77562936 -0.00128164 1.77562936 -0.00128164 3.58713001 -0.00258917 C6.8504641 -0.00394528 10.1137579 -0.0008437 13.37708724 0.0041889 C16.90456932 0.00852554 20.43204969 0.0070447 23.95953369 0.00628662 C30.0637309 0.00576342 36.16791738 0.00888892 42.27211189 0.01452446 C51.0976464 0.02266708 59.92317575 0.02525751 68.74871361 0.02651245 C83.06912723 0.02869863 97.38953515 0.03534695 111.70994568 0.04481506 C125.61717195 0.0540004 139.52439667 0.06107575 153.43162537 0.06532288 C154.28951558 0.0655856 155.1474058 0.06584832 156.03129268 0.06611901 C160.33526949 0.06742409 164.6392463 0.06868779 168.94322312 0.06993091 C204.62352468 0.08029001 240.30381961 0.09789653 275.9841156 0.12025452 C274.39385287 3.40302964 272.57229944 6.1481441 270.3591156 9.05775452 C269.97723083 9.56153625 269.59534607 10.06531799 269.20188904 10.58436584 C267.79935183 12.43225974 266.39158104 14.27611163 264.9841156 16.12025452 C263.75213803 17.73988895 262.5203822 19.35969206 261.2888031 20.97962952 C254.51112872 29.88911217 247.71482785 38.78434155 240.91209412 47.67469788 C233.92176333 56.81228034 226.95442141 65.9673944 219.9841156 75.12025452 C211.96836706 85.64590821 203.95039236 96.1697557 195.91038513 106.67689514 C189.60538415 114.91877698 183.31959566 123.17529233 177.03245544 131.43080139 C173.01959738 136.69965054 169.00539719 141.96747721 164.99143982 147.23548889 C161.62005652 151.6602748 158.2490155 156.08532068 154.87864685 160.51087952 C148.23086583 169.23926376 141.57781858 177.9635133 134.91038513 186.67689514 C128.60538415 194.91877698 122.31959566 203.17529233 116.03245544 211.43080139 C112.01959738 216.69965054 108.00539719 221.96747721 103.99143982 227.23548889 C100.62005652 231.6602748 97.2490155 236.08532068 93.87864685 240.51087952 C87.23086583 249.23926376 80.57781858 257.9635133 73.91038513 266.67689514 C67.60538415 274.91877698 61.31959566 283.17529233 55.03245544 291.43080139 C51.01959738 296.69965054 47.00539719 301.96747721 42.99143982 307.23548889 C39.62005652 311.6602748 36.2490155 316.08532068 32.87864685 320.51087952 C26.23086583 329.23926376 19.57781858 337.9635133 12.91038513 346.67689514 C5.92069564 355.81380012 -1.04614062 364.96813241 -8.0158844 374.12025452 C-16.03163294 384.64590821 -24.04960764 395.1697557 -32.08961487 405.67689514 C-38.39461585 413.91877698 -44.68040434 422.17529233 -50.96754456 430.43080139 C-52.98728649 433.08270571 -55.00736761 435.73435122 -57.02760315 438.38587952 C-57.68647522 439.25075989 -58.34534729 440.11564026 -59.02418518 441.00672913 C-60.34883093 442.74494104 -61.67402376 444.48273618 -62.99977112 446.22010803 C-66.43407905 450.72231456 -69.85684847 455.23264784 -73.26197815 459.75697327 C-86.60408886 477.45131505 -86.60408886 477.45131505 -94.0158844 485.12025452 C-94.90147034 486.1160553 -94.90147034 486.1160553 -95.8049469 487.13197327 C-111.41830716 504.04091023 -137.22550153 515.92479784 -160.00381613 517.30074334 C-163.13518273 517.36953384 -166.26046092 517.37757066 -169.39253235 517.36076355 C-171.17200662 517.36332682 -171.17200662 517.36332682 -172.98742986 517.36594188 C-176.2440317 517.36864515 -179.5004703 517.36247682 -182.7570529 517.35238576 C-186.28243693 517.34368554 -189.80781442 517.34667603 -193.33320618 517.34819031 C-199.42917904 517.34923503 -205.52510883 517.34300176 -211.62107086 517.33171463 C-220.43461918 517.31540637 -229.24814683 517.31024619 -238.0617086 517.30773865 C-252.36382846 517.30336987 -266.66592541 517.29008302 -280.96803284 517.27113342 C-294.85475043 517.25275341 -308.74146178 517.23860731 -322.62818909 517.2301178 C-323.48529113 517.22959235 -324.34239318 517.2290669 -325.22546801 517.22852553 C-329.52563288 517.22591531 -333.82579779 517.22338793 -338.12596273 517.22090173 C-373.75595295 517.2001947 -409.38591656 517.16499152 -445.0158844 517.12025452 C-443.46110581 513.01872289 -441.62675474 510.07023338 -438.8908844 506.62025452 C-437.98515463 505.46591964 -437.0802668 504.31092385 -436.17604065 503.15541077 C-435.42411438 502.19852356 -435.42411438 502.19852356 -434.65699768 501.2223053 C-431.51233662 497.1944071 -428.42342713 493.12382029 -425.3283844 489.05775452 C-424.64808167 488.16507874 -423.96777893 487.27240295 -423.26686096 486.35267639 C-417.8882698 479.28712907 -412.55778062 472.18634287 -407.23756409 465.07679749 C-403.1062354 459.56069646 -398.9317454 454.08230468 -394.7190094 448.62806702 C-385.12010252 436.19077369 -375.6503064 423.65529279 -366.23756409 411.07679749 C-362.1062354 405.56069646 -357.9317454 400.08230468 -353.7190094 394.62806702 C-344.8486709 383.13477896 -336.07990839 371.56355264 -327.3908844 359.93275452 C-322.64831115 353.58452575 -317.84045841 347.29536604 -312.9533844 341.05775452 C-307.58989056 334.21143011 -302.40243304 327.25278406 -297.27003479 320.23207092 C-292.66655527 313.95465735 -287.91978226 307.80097042 -283.12086487 301.67225647 C-279.40638362 296.92343506 -275.74653296 292.13968965 -272.1408844 287.30775452 C-267.55032158 281.1561846 -262.92063865 275.03591622 -258.2658844 268.93275452 C-257.59130188 268.04813538 -256.91671936 267.16351624 -256.22169495 266.25209045 C-253.47620817 262.65300866 -250.72956681 259.05481007 -247.98219299 255.45716858 C-240.02053751 245.03050284 -232.09611775 234.57837589 -224.23609924 224.07484436 C-220.10526156 218.55939282 -215.93124769 213.0816603 -211.7190094 207.62806702 C-202.8486709 196.13477896 -194.07990839 184.56355264 -185.3908844 172.93275452 C-180.64831115 166.58452575 -175.84045841 160.29536604 -170.9533844 154.05775452 C-165.58989056 147.21143011 -160.40243304 140.25278406 -155.27003479 133.23207092 C-150.66655527 126.95465735 -145.91978226 120.80097042 -141.12086487 114.67225647 C-137.40638362 109.92343506 -133.74653296 105.13968965 -130.1408844 100.30775452 C-123.52617138 91.44372821 -116.81706186 82.65271453 -110.10670471 73.86097717 C-107.30217576 70.1846995 -104.5015796 66.50543585 -101.70143127 62.82582092 C-100.33687717 61.03411612 -98.97100895 59.24341131 -97.60377502 57.45375061 C-94.78436366 53.76322775 -91.96965224 50.07147771 -89.2111969 46.33509827 C-72.55283281 23.88336869 -48.83513336 6.69738319 -21.0158844 1.12025452 C-13.97672505 0.17038799 -7.09739821 -0.01889073 0 0 Z " fill="#115AA9" transform="translate(902.0158843994141,2205.8797454833984)"/>
<path d="M0 0 C1.78047305 -0.00128164 1.78047305 -0.00128164 3.59691525 -0.00258917 C6.87391015 -0.00394683 10.15086507 -0.00083931 13.42785525 0.0041889 C16.96830665 0.00852095 20.50875629 0.00704502 24.04920959 0.00628662 C30.17743365 0.00576313 36.30564704 0.00889166 42.43386841 0.01452446 C51.294168 0.02266315 60.15446245 0.02525711 69.01476538 0.02651245 C83.39119417 0.02869925 97.76761727 0.03534924 112.14404297 0.04481506 C126.10660778 0.05399881 140.06917105 0.06107494 154.03173828 0.06532288 C154.89287822 0.0655856 155.75401815 0.06584832 156.64125323 0.06611901 C160.96148474 0.06742408 165.28171626 0.06868778 169.60194778 0.06993091 C205.42343795 0.08029193 241.24492166 0.09790012 277.06640625 0.12025452 C275.7788487 3.45212916 274.52533365 6.1111853 272.30078125 8.91322327 C271.74745117 9.61680969 271.19412109 10.32039612 270.62402344 11.04530334 C270.02750977 11.79191223 269.43099609 12.53852112 268.81640625 13.30775452 C267.54542345 14.91961583 266.27459451 16.53159849 265.00390625 18.14369202 C264.35164063 18.96708069 263.699375 19.79046936 263.02734375 20.6388092 C259.93449526 24.55261797 256.87586898 28.4928314 253.81640625 32.43275452 C253.22956055 33.18709778 252.64271484 33.94144104 252.03808594 34.71864319 C247.90275117 40.03541916 243.7929924 45.37114888 239.69140625 50.71400452 C235.89540982 55.64879988 232.06342586 60.55570583 228.23828125 65.46791077 C224.83398196 69.84169529 221.44143031 74.22384159 218.06640625 78.62025452 C213.48345908 84.59014623 208.86230138 90.52979944 204.23828125 96.46791077 C200.83398196 100.84169529 197.44143031 105.22384159 194.06640625 109.62025452 C189.48345908 115.59014623 184.86230138 121.52979944 180.23828125 127.46791077 C176.83398196 131.84169529 173.44143031 136.22384159 170.06640625 140.62025452 C163.16679719 149.60552972 156.19489506 158.53468439 149.234375 167.47279358 C142.69670505 175.86886971 136.17122989 184.27318162 129.69140625 192.71400452 C125.89540982 197.64879988 122.06342586 202.55570583 118.23828125 207.46791077 C114.83398196 211.84169529 111.44143031 216.22384159 108.06640625 220.62025452 C89.58695826 244.68012987 89.58695826 244.68012987 81.06640625 255.12025452 C80.55722656 255.77638733 80.04804687 256.43252014 79.5234375 257.10853577 C64.60478747 275.48978604 38.05685756 290.19531402 14.55778694 292.66937923 C8.71527388 293.22046178 2.908752 293.25632933 -2.95584106 293.24050903 C-4.12819774 293.24136346 -5.30055441 293.24221788 -6.50843704 293.2430982 C-9.73530728 293.24445266 -12.96213662 293.24135747 -16.18900204 293.23632014 C-19.67897471 293.23197855 -23.16894567 293.23346468 -26.65892029 293.23422241 C-32.69652883 293.2347453 -38.73412652 293.23162306 -44.77173233 293.22598457 C-53.50096358 293.21783772 -62.23018961 293.21525109 -70.95942424 293.21399658 C-85.12399413 293.21181106 -99.28855824 293.20516454 -113.453125 293.19569397 C-127.20800752 293.18650691 -140.96288847 293.17943241 -154.71777344 293.17518616 C-155.56643994 293.17492343 -156.41510645 293.17466071 -157.28949012 293.17439003 C-161.54724407 293.17308493 -165.80499804 293.17182124 -170.06275201 293.17057812 C-205.35303671 293.16022108 -240.64331469 293.14261637 -275.93359375 293.12025452 C-274.26102369 289.64939534 -272.26930872 286.75672225 -269.93359375 283.68275452 C-269.53841553 283.16124817 -269.1432373 282.63974182 -268.73608398 282.10243225 C-267.4727895 280.43845397 -266.20409481 278.77873551 -264.93359375 277.12025452 C-264.52512207 276.58658264 -264.11665039 276.05291077 -263.69580078 275.50306702 C-261.2038864 272.25058824 -258.70334534 269.0048269 -256.19970703 265.7613678 C-254.10792171 263.05003326 -252.02096875 260.33498489 -249.93359375 257.62025452 C-247.46959312 254.41647911 -245.0050903 251.21309507 -242.5390625 248.01087952 C-237.82599375 241.88921995 -233.12484777 235.7586504 -228.43359375 229.62025452 C-222.94796933 222.4424436 -217.44562624 215.27780405 -211.93359375 208.12025452 C-210.26664083 205.95380801 -208.60010406 203.78704151 -206.93359375 201.62025452 C-204.46954664 198.41651482 -202.00509034 195.21309511 -199.5390625 192.01087952 C-194.82599375 185.88921995 -190.12484777 179.7586504 -185.43359375 173.62025452 C-179.94796933 166.4424436 -174.44562624 159.27780405 -168.93359375 152.12025452 C-167.26664083 149.953808 -165.60011962 147.78702955 -163.93359375 145.62025452 C-163.10026828 144.53691514 -162.26693495 143.4535818 -161.43359375 142.37025452 C-161.02109375 141.83400452 -160.60859375 141.29775452 -160.18359375 140.74525452 C-156.43359375 135.87025452 -156.43359375 135.87025452 -155.18432617 134.24623108 C-154.34851999 133.15966672 -153.5127454 132.07307807 -152.67700195 130.98646545 C-150.63175739 128.32736904 -148.58589384 125.66875512 -146.5390625 123.01087952 C-141.82599375 116.88921995 -137.12484777 110.7586504 -132.43359375 104.62025452 C-126.94796933 97.4424436 -121.44562624 90.27780405 -115.93359375 83.12025452 C-114.26664083 80.953808 -112.60011962 78.78702955 -110.93359375 76.62025452 C-110.10026828 75.53691514 -109.26693495 74.4535818 -108.43359375 73.37025452 C-107.81484375 72.56587952 -107.81484375 72.56587952 -107.18359375 71.74525452 C-105.30859375 69.30775452 -105.30859375 69.30775452 -103.43359375 66.87025452 C-103.02101318 66.33384338 -102.60843262 65.79743225 -102.18334961 65.24476624 C-101.35105035 64.16289101 -100.51853125 63.08118488 -99.68579102 61.99964905 C-97.58478925 59.27036022 -95.48784529 56.53811937 -93.3984375 53.79994202 C-90.92532027 50.56146109 -88.43278554 47.33866709 -85.93359375 44.12025452 C-85.19367188 43.15990295 -84.45375 42.19955139 -83.69140625 41.21009827 C-67.01449407 20.11172717 -41.42528167 3.58619753 -14.33262634 0.32661545 C-9.5626684 -0.08368868 -4.78420661 -0.01265517 0 0 Z " fill="#AED136" transform="translate(1340.93359375,2222.8797454833984)"/>
<path d="M0 0 C37.32590565 -0.09166083 74.65179427 -0.16209211 111.97778979 -0.20426132 C116.38973439 -0.20926383 120.80167878 -0.21444115 125.21362305 -0.21972656 C126.09191975 -0.2207758 126.97021645 -0.22182505 127.8751282 -0.22290608 C142.07522117 -0.24028633 156.27524902 -0.27181084 170.47530342 -0.30861118 C185.05818182 -0.34608697 199.64102623 -0.36824985 214.2239508 -0.37635398 C223.21418349 -0.38182802 232.20423207 -0.39908412 241.19440805 -0.43166587 C247.36881483 -0.45289581 253.54312716 -0.45918097 259.71756775 -0.45400551 C263.27389504 -0.45145683 266.82990181 -0.45521698 270.38617134 -0.4768219 C290.17776731 -0.59096598 305.16631657 0.8890657 323 10 C323.93457031 10.46277344 324.86914062 10.92554688 325.83203125 11.40234375 C333.14542965 15.17936353 339.57967589 19.86903946 346 25 C347.17369141 25.92232422 347.17369141 25.92232422 348.37109375 26.86328125 C354.68762247 32.12142548 359.51350656 38.44852752 364.44628906 44.95947266 C366.69099847 47.90750553 368.9738129 50.82534113 371.25415039 53.74584961 C377.54166445 61.80069245 383.77879947 69.89389931 390 78 C391.66609253 80.16710847 393.33305199 82.33354953 395 84.5 C395.83334905 85.58332124 396.66668241 86.66665456 397.5 87.75 C397.9125 88.28625 398.325 88.8225 398.75 89.375 C400.625 91.8125 400.625 91.8125 402.5 94.25 C402.9122583 94.78592773 403.3245166 95.32185547 403.74926758 95.87402344 C404.58507376 96.96058779 405.42084835 98.04717645 406.2565918 99.13378906 C408.30183636 101.79288548 410.34769991 104.4514994 412.39453125 107.109375 C417.66896038 113.96016824 422.92625547 120.82383909 428.17626953 127.69335938 C433.10385391 134.13947094 438.04943004 140.57152742 443 147 C444.66695292 149.16644651 446.33347413 151.33322497 448 153.5 C448.83332547 154.58333938 449.6666588 155.66667272 450.5 156.75 C462.16666667 171.91666667 473.83333333 187.08333333 485.5 202.25 C485.9122583 202.78592773 486.3245166 203.32185547 486.74926758 203.87402344 C487.58507376 204.96058779 488.42084835 206.04717645 489.2565918 207.13378906 C491.30183636 209.79288548 493.34769991 212.4514994 495.39453125 215.109375 C500.66896038 221.96016824 505.92625547 228.82383909 511.17626953 235.69335938 C516.10385391 242.13947094 521.04943004 248.57152742 526 255 C527.66695292 257.16644652 529.33345856 259.33323695 531 261.5 C531.41056641 262.03367187 531.82113281 262.56734375 532.24414062 263.1171875 C534.3653427 265.8744172 536.48592017 268.63212397 538.60546875 271.390625 C539.03424316 271.94838623 539.46301758 272.50614746 539.90478516 273.08081055 C540.75008454 274.18079377 541.59482483 275.28120689 542.43896484 276.38208008 C545.51740629 280.39168544 548.65001782 284.35566729 551.8203125 288.29296875 C553 290 553 290 553 292 C516.34510774 292.09169406 479.6902357 292.16210891 443.03525222 292.20426132 C438.70099153 292.20926373 434.36673106 292.21444106 430.0324707 292.21972656 C429.1696517 292.2207758 428.30683269 292.22182505 427.41786765 292.22290608 C413.47455292 292.24027848 399.53130463 292.27179859 385.58802921 292.30861118 C371.26504409 292.34610894 356.9420936 292.36825447 342.61906141 292.37635398 C333.79159307 292.3818235 324.96431256 292.39905467 316.13690209 292.43166587 C310.07134217 292.45292303 304.00587836 292.45917491 297.94028396 292.45400551 C294.44851492 292.451461 290.95707247 292.45516804 287.46536255 292.4768219 C253.50713514 292.6563068 225.82025335 283.71346002 201 260 C195.38726993 254.36821143 190.63596787 248.04643401 185.8359375 241.72265625 C182.59367451 237.45340588 179.29614352 233.22770089 176 229 C171.18607999 222.81885464 166.39574869 216.6207779 161.625 210.40625 C158.43372025 206.25758632 155.215787 202.12967519 152 198 C147.18648277 191.81853877 142.39575121 185.62078118 137.625 179.40625 C134.43372025 175.25758632 131.215787 171.12967519 128 167 C123.18648277 160.81853877 118.39575121 154.62078118 113.625 148.40625 C110.43372025 144.25758632 107.215787 140.12967519 104 136 C99.18648277 129.81853877 94.39575121 123.62078118 89.625 117.40625 C86.43372025 113.25758632 83.215787 109.12967519 80 105 C75.18648277 98.81853877 70.39575121 92.62078118 65.625 86.40625 C62.43372025 82.25758632 59.215787 78.12967519 56 74 C51.18648277 67.81853877 46.39575121 61.62078118 41.625 55.40625 C38.43372025 51.25758632 35.215787 47.12967519 32 43 C27.1972058 36.83230916 22.41368345 30.65108591 17.66015625 24.4453125 C15.56215067 21.71650713 13.43786406 19.00915841 11.30859375 16.3046875 C10.34856445 15.08168945 10.34856445 15.08168945 9.36914062 13.83398438 C8.10175227 12.22059515 6.83102539 10.60982175 5.55664062 9.00195312 C4.97978516 8.26654297 4.40292969 7.53113281 3.80859375 6.7734375 C3.29095459 6.11778809 2.77331543 5.46213867 2.23999023 4.78662109 C1 3 1 3 0 0 Z " fill="#E61E25" transform="translate(1072,1861)"/>
<path d="M0 0 C17.82 0 35.64 0 54 0 C66.82454471 37.40492207 79.46249404 74.86733228 91.63824463 112.48895264 C95.39612474 124.09822148 99.22027276 135.68407227 103.09765625 147.25390625 C103.53909209 148.57217095 103.98050346 149.89044385 104.42189026 151.20872498 C106.17126548 156.4319948 107.92064855 161.65524506 109.68130493 166.87472534 C110.90321857 170.49858445 112.11994614 174.12415024 113.3359375 177.75 C113.89263878 179.39211205 113.89263878 179.39211205 114.46058655 181.06739807 C114.96421974 182.57317665 114.96421974 182.57317665 115.47802734 184.109375 C115.92098648 185.42373535 115.92098648 185.42373535 116.37289429 186.76464844 C117 189 117 189 117 192 C117.66 192 118.32 192 119 192 C119.26552673 190.71577148 119.53105347 189.43154297 119.80462646 188.10839844 C120.93314085 183.04365045 122.4704377 178.17940708 124.12597656 173.265625 C124.43540192 172.33530457 124.74482727 171.40498413 125.06362915 170.44647217 C126.08494962 167.3795129 127.1126984 164.31475084 128.140625 161.25 C128.86686885 159.07433646 129.59275281 156.89855276 130.31829834 154.72265625 C131.84552959 150.14556444 133.37569192 145.56946725 134.90820312 140.99414062 C136.82814157 135.2620695 138.74315383 129.5283703 140.6561861 123.79399109 C148.48546137 100.32756826 156.37674655 76.88371968 164.39292908 53.48046875 C168.72127428 40.84153729 172.96542331 28.17661522 177.1394043 15.48583984 C177.94069367 13.05222494 178.74551283 10.61980056 179.55078125 8.1875 C179.78606033 7.46820312 180.02133942 6.74890625 180.26374817 6.0078125 C181.88677584 1.11322416 181.88677584 1.11322416 183 0 C184.65738443 -0.09346915 186.31874644 -0.11744977 187.97875977 -0.11352539 C189.03978409 -0.11344986 190.10080841 -0.11337433 191.19398499 -0.11329651 C192.348134 -0.10813522 193.50228302 -0.10297394 194.69140625 -0.09765625 C195.86638168 -0.0962413 197.04135712 -0.09482635 198.25193787 -0.09336853 C202.02215064 -0.08774992 205.79230504 -0.07519426 209.5625 -0.0625 C212.11132727 -0.0574874 214.66015547 -0.05292408 217.20898438 -0.04882812 C223.47267633 -0.03777444 229.73633399 -0.02101821 236 0 C240.5453931 25.44426799 244.86041947 50.92674266 249.1328125 76.41796875 C249.27187106 77.24761595 249.41092962 78.07726315 249.55420208 78.93205118 C251.30280601 89.36568001 253.04908862 99.79969681 254.79446006 110.23386681 C257.11864635 124.12823155 259.44512665 138.02221231 261.77212501 151.91610634 C262.49160305 156.2119794 263.21093771 160.50787636 263.92993927 164.80382919 C267.1921437 184.2946338 270.46660509 203.78329164 273.76464844 223.26806641 C274.07241916 225.08705269 274.38018075 226.90604053 274.68793297 228.72502995 C276.01183397 236.54893261 277.33658138 244.37268741 278.66540051 252.19575644 C279.20085734 255.34987632 279.73503469 258.50421197 280.26890039 261.65860152 C280.51687858 263.12191856 280.76544762 264.5851356 281.01463842 266.04824662 C281.353514 268.03816395 281.6902323 270.0284483 282.02682495 272.01875305 C282.31046559 273.68926712 282.31046559 273.68926712 282.59983635 275.39352894 C283 278 283 278 283 280 C265.51 280 248.02 280 230 280 C228.30813974 270.28339157 226.61750833 260.56657758 224.92976379 250.84925461 C224.64428485 249.20568296 224.35875261 247.56212058 224.07316589 245.91856766 C220.20794187 223.67317102 216.38278042 201.4213208 212.609375 179.16015625 C212.24195558 176.99389441 211.87452399 174.82763464 211.50708008 172.66137695 C209.8816253 163.07597515 208.25828745 153.49022822 206.64207077 143.90326405 C205.96927859 139.91606497 205.29396226 135.9292962 204.61804962 131.94262505 C204.30186484 130.07400495 203.98684146 128.20518793 203.67302704 126.33616829 C203.24356867 123.77887025 202.81024423 121.22225652 202.37597656 118.66577148 C202.25035591 117.91166174 202.12473526 117.15755199 201.99530792 116.38059044 C201.37275291 112.57635146 201.37275291 112.57635146 200 109 C199.62511948 110.11433411 199.25023895 111.22866821 198.86399841 112.37677002 C166.956524 207.21989328 166.956524 207.21989328 153.91409302 245.8170166 C152.93077014 248.72703975 151.94811194 251.63728599 150.96603394 254.54772949 C149.62359842 258.52588905 148.27878314 262.50323954 146.93359375 266.48046875 C146.34856079 268.21525734 146.34856079 268.21525734 145.75170898 269.98509216 C145.39979492 271.02408157 145.04788086 272.06307098 144.68530273 273.13354492 C144.38148178 274.03247971 144.07766083 274.93141449 143.76463318 275.85758972 C143 278 143 278 142 280 C125.83 280 109.66 280 93 280 C74.19 223.57 55.38 167.14 36 109 C34.72506298 114.09974809 33.58577691 118.95803301 32.70323181 124.10545349 C32.53021769 125.10695146 32.53021769 125.10695146 32.35370833 126.12868172 C31.9724541 128.33978357 31.59548199 130.55159283 31.21850586 132.76342773 C30.94424573 134.35907064 30.66970724 135.95466572 30.39491272 137.55021667 C29.80611275 140.97219301 29.21915594 144.39447847 28.63361931 147.81701469 C27.70832568 153.22472483 26.77820155 158.63159724 25.8473053 164.03834534 C23.53750963 177.45830056 21.23381974 190.87930299 18.93182373 204.30059814 C17.1394658 214.7502329 15.34534607 225.19955813 13.54567057 235.64793545 C12.61923527 241.02775932 11.69657488 246.40821302 10.7767123 251.78916442 C10.20557961 255.12528005 9.63114211 258.4608202 9.05576134 261.79620552 C8.78869221 263.34844206 8.5230166 264.90091908 8.25880051 266.4536438 C7.89946386 268.56422444 7.5352648 270.67390796 7.16978455 272.78343201 C6.96682235 273.96676337 6.76386015 275.15009474 6.55474758 276.36928463 C6 279 6 279 5 280 C3.34261557 280.09346915 1.68125356 280.11744977 0.02124023 280.11352539 C-1.03978409 280.11344986 -2.10080841 280.11337433 -3.19398499 280.11329651 C-4.92520851 280.10555458 -4.92520851 280.10555458 -6.69140625 280.09765625 C-7.86638168 280.0962413 -9.04135712 280.09482635 -10.25193787 280.09336853 C-14.02215064 280.08774992 -17.79230504 280.07519426 -21.5625 280.0625 C-24.11132727 280.0574874 -26.66015547 280.05292408 -29.20898438 280.04882812 C-35.47267756 280.03862335 -41.73633142 280.01985758 -48 280 C-44.06711429 255.43370139 -39.96893791 230.90009578 -35.72894239 206.38504028 C-34.94049697 201.82397959 -34.154191 197.26254995 -33.36758423 192.70117188 C-32.0426728 185.01996958 -30.71641503 177.33900083 -29.38916016 169.65820312 C-27.56309031 159.09074971 -25.73963922 148.52284569 -23.91665983 137.95485878 C-15.98258087 91.96325552 -8.0101949 45.97840617 0 0 Z " fill="#231612" transform="translate(3068,2221)"/>
<path d="M0 0 C17.16 0 34.32 0 52 0 C60.86153846 12.18461538 60.86153846 12.18461538 64.375 18 C69.05136736 25.63348202 74.01370653 33.06755705 79 40.5 C84.34558592 48.47132987 89.6282433 56.4647968 94.6628418 64.63769531 C97.68386985 69.53242645 100.84429244 74.3207551 104.05200195 79.09472656 C107.47813561 84.19930299 110.84200387 89.34225503 114.1875 94.5 C114.73140381 95.33845459 115.27530762 96.17690918 115.83569336 97.04077148 C116.97074482 98.79066306 118.10575368 100.54058227 119.24072266 102.29052734 C122.27852075 106.9690568 125.32685393 111.64070839 128.375 116.3125 C129.00108154 117.27220703 129.62716309 118.23191406 130.2722168 119.22070312 C131.54568894 121.1727193 132.81920795 123.12470489 134.09277344 125.07666016 C136.60634224 128.92938326 139.11924889 132.78253797 141.63208008 136.63574219 C142.87144124 138.53617156 144.11086124 140.43656256 145.3503418 142.33691406 C148.61342137 147.33987367 151.87565324 152.34338355 155.13671875 157.34765625 C155.81476562 158.38792969 156.4928125 159.42820312 157.19140625 160.5 C158.48723212 162.4881164 159.78281906 164.47638856 161.078125 166.46484375 C161.66464844 167.36460937 162.25117188 168.264375 162.85546875 169.19140625 C163.36746826 169.97717041 163.87946777 170.76293457 164.40698242 171.57250977 C166.25677103 174.39127577 168.12981616 177.19472424 170 180 C170.33 120.6 170.66 61.2 171 0 C188.82 0 206.64 0 225 0 C225 92.4 225 184.8 225 280 C207.51 280 190.02 280 172 280 C160.35932183 267.40628385 160.35932183 267.40628385 157.12402344 258.06298828 C155.6327951 253.99935867 153.49703713 250.82599339 150.9375 247.375 C150.14990872 246.21652543 149.36879423 245.05362483 148.59375 243.88671875 C148.18640625 243.27876465 147.7790625 242.67081055 147.359375 242.04443359 C142.53152413 234.78358173 137.80786984 227.45297716 133.05029297 220.14599609 C129.54000418 214.7597635 126.0196796 209.38009882 122.5 204 C117.1607862 195.83715772 111.82655245 187.6711099 106.5 179.5 C99.7918961 169.21002847 93.07178617 158.92794251 86.34765625 148.6484375 C83.77176833 144.71035155 81.19723424 140.77139017 78.625 136.83091736 C77.49875555 135.10564008 76.37221962 133.38055346 75.24560547 131.65551758 C73.84953704 129.51769998 72.45397935 127.37954871 71.05908203 125.2409668 C65.75739266 117.12477591 60.37824192 109.06736288 55 101 C54.67 160.07 54.34 219.14 54 280 C36.18 280 18.36 280 0 280 C0 187.6 0 95.2 0 0 Z " fill="#231612" transform="translate(3551,2221)"/>
<path d="M0 0 C123.51271186 0 123.51271186 0 147 23 C162.90740361 41.0821485 168.96225274 63.42800673 167.875 87.125 C166.54715042 107.26950297 159.47181509 124.86047128 144.80078125 139.140625 C136.75319463 146.08149767 125.60757745 153.17608822 115 155 C117.68621697 160.08401223 120.37383251 165.16728329 123.0625 170.25 C123.46849426 171.01752594 123.87448853 171.78505188 124.29278564 172.57583618 C129.7888536 182.96338028 135.31268536 193.33529228 140.875 203.6875 C145.37041177 212.0540595 149.81393632 220.44411163 154.1875 228.875 C158.58166556 237.34510505 163.09901098 245.74020659 167.68530273 254.10766602 C170.90878175 259.99082368 174.10293019 265.88808252 177.25 271.8125 C177.82463989 272.88927002 177.82463989 272.88927002 178.41088867 273.98779297 C181 278.87975173 181 278.87975173 181 280 C161.2 280 141.4 280 121 280 C107.45884339 255.17454622 107.45884339 255.17454622 102 244.5 C97.80897488 236.3584279 93.54842674 228.26764891 89.125 220.25 C83.47877785 210.00830575 78.11340247 199.62941469 72.78173828 189.22167969 C72.14098929 187.97198533 71.50020192 186.72231065 70.859375 185.47265625 C70.54801605 184.86432953 70.2366571 184.25600281 69.91586304 183.62924194 C68.22207467 180.33202165 66.49840007 177.0537754 64.73632812 173.79248047 C64.3652594 173.10480087 63.99419067 172.41712128 63.61187744 171.70860291 C62.89510088 170.38456562 62.17466569 169.06250073 61.45013428 167.74269104 C59 163.21909123 59 163.21909123 59 161 C57.35 161 55.7 161 54 161 C54 200.27 54 239.54 54 280 C36.18 280 18.36 280 0 280 C0 187.6 0 95.2 0 0 Z M54 52 C54 70.81 54 89.62 54 109 C84.14740023 110.41003422 84.14740023 110.41003422 110.3125 97.75 C114.95469316 90.18494449 116.17147751 82.35341855 114.56640625 73.6484375 C112.5627317 66.40534069 108.01135953 60.67645611 101.6875 56.625 C88.1396106 49.91021639 68.3489148 52 54 52 Z " fill="#231612" transform="translate(2295,2221)"/>
<path d="M0 0 C18.48 0 36.96 0 56 0 C60.500252 10.125567 60.500252 10.125567 61.88085938 13.69458008 C62.1972084 14.50918701 62.51355743 15.32379395 62.8394928 16.16308594 C63.17089767 17.02321289 63.50230255 17.88333984 63.84375 18.76953125 C64.2050853 19.7020874 64.56642059 20.63464355 64.93870544 21.59545898 C66.12805594 24.66693989 67.31409411 27.73968765 68.5 30.8125 C69.34564948 32.99899429 70.19143674 35.18543529 71.03735352 37.37182617 C79.12845126 58.29470596 87.17982728 79.23292577 95.22457886 100.17366028 C99.39702638 111.03461247 103.57380791 121.89389585 107.75100708 132.75302124 C109.83418484 138.16861155 111.91707801 143.58431131 114 149 C114.83333197 151.16666719 115.6666653 153.33333386 116.5 155.5 C121.49999999 168.49999998 121.49999999 168.49999998 122.74977112 171.74942017 C123.58385376 173.91802486 124.41795005 176.08662429 125.25205994 178.25521851 C127.32404031 183.64219065 129.39579024 189.02925119 131.46704102 194.41650391 C135.35201457 204.52045773 139.23931853 214.62349749 143.1343689 224.72357178 C144.96308512 229.46593435 146.79054889 234.20877911 148.61791992 238.95166016 C149.48480863 241.20059882 150.35230296 243.44930415 151.22045898 245.69775391 C152.4284832 248.82654847 153.63436683 251.95616078 154.83984375 255.0859375 C155.18796616 255.98589447 155.53608856 256.88585144 155.89476013 257.81307983 C158.72477689 265.17048778 161.346018 272.56885041 164 280 C145.19 280 126.38 280 107 280 C99.16688699 261.20052877 92.19738914 242.05191243 85 223 C47.71 222.67 10.42 222.34 -28 222 C-28.99 225.3 -29.98 228.6 -31 232 C-31.6647525 233.85823234 -32.35429281 235.70809067 -33.0847168 237.54150391 C-33.4701062 238.51482666 -33.85549561 239.48814941 -34.25256348 240.4909668 C-34.64745972 241.47621338 -35.04235596 242.46145996 -35.44921875 243.4765625 C-35.81970337 244.41008545 -36.19018799 245.3436084 -36.57189941 246.30541992 C-37.93919393 249.74709995 -39.31375971 253.18588772 -40.6875 256.625 C-43.760625 264.33875 -46.83375 272.0525 -50 280 C-68.81 280 -87.62 280 -107 280 C-103.62505064 268.75016881 -103.62505064 268.75016881 -102.17260742 264.99584961 C-101.67750923 263.70788734 -101.67750923 263.70788734 -101.17240906 262.39390564 C-100.82031876 261.48919022 -100.46822845 260.58447479 -100.10546875 259.65234375 C-99.72594559 258.66814957 -99.34642242 257.68395538 -98.95539856 256.66993713 C-97.70291849 253.42443262 -96.44520168 250.18098419 -95.1875 246.9375 C-94.29456761 244.62643893 -93.40199702 242.31523804 -92.50976562 240.00390625 C-90.63138742 235.1396891 -88.75089038 230.27629907 -86.86865234 225.41357422 C-84.0708578 218.18494021 -81.27867215 210.95415098 -78.48828125 203.72265625 C-78.03615768 202.55097397 -77.58403412 201.37929169 -77.11820984 200.17210388 C-76.20425198 197.80355294 -75.29030646 195.43499723 -74.37637329 193.06643677 C-72.98986335 189.47373406 -71.60280079 185.88124517 -70.21557617 182.28881836 C-64.13094987 166.53077545 -58.06047567 150.76734555 -52 135 C-44.55913147 115.64133053 -37.09782264 96.29062624 -29.62664795 76.94363403 C-19.72640251 51.30521108 -9.86122205 25.65346896 0 0 Z M28 76 C27.45980225 77.41079834 27.45980225 77.41079834 26.90869141 78.85009766 C25.14949794 83.44251389 23.38764144 88.03390617 21.625 92.625 C21.13429016 93.90337738 21.13429016 93.90337738 20.63366699 95.20758057 C16.49212781 105.99105499 12.32011523 116.76202862 8.1015625 127.515625 C7.69632355 128.54887909 7.29108459 129.58213318 6.87356567 130.646698 C4.88760323 135.7081222 2.89820452 140.7681684 0.90478516 145.82666016 C0.17085095 147.69431728 -0.56303796 149.5619922 -1.296875 151.4296875 C-1.79288712 152.68377411 -1.79288712 152.68377411 -2.29891968 153.9631958 C-2.61116486 154.75893005 -2.92341003 155.55466431 -3.24511719 156.37451172 C-3.51298035 157.05407928 -3.78084351 157.73364685 -4.05682373 158.43380737 C-5.46201382 162.25704652 -6.71191162 166.13573486 -8 170 C16.09 170 40.18 170 65 170 C62.97046814 163.2348938 60.85695657 156.75984931 58.26171875 150.2265625 C57.9039888 149.3161319 57.54625885 148.40570129 57.1776886 147.46768188 C56.01806701 144.51861878 54.85292812 141.5717727 53.6875 138.625 C52.4741604 135.54632015 51.26202198 132.46716946 50.05007935 129.38793945 C49.23174402 127.30882297 48.41295615 125.22988454 47.59371948 123.15112305 C44.95809478 116.45756502 42.35186162 109.75334786 39.76953125 103.0390625 C39.1234559 101.36246663 38.47737849 99.68587155 37.83129883 98.00927734 C36.92026694 95.64427204 36.0109496 93.27868127 35.10702515 90.91094971 C34.28429786 88.75653426 33.45531102 86.60462659 32.625 84.453125 C32.16351562 83.24817383 31.70203125 82.04322266 31.2265625 80.80175781 C30.17139492 77.92860958 30.17139492 77.92860958 28 76 Z " fill="#231612" transform="translate(3953,2221)"/>
<path d="M0 0 C18.48 0 36.96 0 56 0 C60.500252 10.125567 60.500252 10.125567 61.88085938 13.69458008 C62.1972084 14.50918701 62.51355743 15.32379395 62.8394928 16.16308594 C63.17089767 17.02321289 63.50230255 17.88333984 63.84375 18.76953125 C64.2050853 19.7020874 64.56642059 20.63464355 64.93870544 21.59545898 C66.12805594 24.66693989 67.31409411 27.73968765 68.5 30.8125 C69.34564948 32.99899429 70.19143674 35.18543529 71.03735352 37.37182617 C79.12845126 58.29470596 87.17982728 79.23292577 95.22457886 100.17366028 C99.39702638 111.03461247 103.57380791 121.89389585 107.75100708 132.75302124 C109.83418484 138.16861155 111.91707801 143.58431131 114 149 C114.83333197 151.16666719 115.6666653 153.33333386 116.5 155.5 C121.49999999 168.49999998 121.49999999 168.49999998 122.74977112 171.74942017 C123.58385376 173.91802486 124.41795005 176.08662429 125.25205994 178.25521851 C127.32404031 183.64219065 129.39579024 189.02925119 131.46704102 194.41650391 C135.35201457 204.52045773 139.23931853 214.62349749 143.1343689 224.72357178 C144.96308512 229.46593435 146.79054889 234.20877911 148.61791992 238.95166016 C149.48480863 241.20059882 150.35230296 243.44930415 151.22045898 245.69775391 C152.4284832 248.82654847 153.63436683 251.95616078 154.83984375 255.0859375 C155.18796616 255.98589447 155.53608856 256.88585144 155.89476013 257.81307983 C158.72477689 265.17048778 161.346018 272.56885041 164 280 C145.19 280 126.38 280 107 280 C99.16688699 261.20052877 92.19738914 242.05191243 85 223 C47.71 222.67 10.42 222.34 -28 222 C-28.99 225.3 -29.98 228.6 -31 232 C-31.6647525 233.85823234 -32.35429281 235.70809067 -33.0847168 237.54150391 C-33.4701062 238.51482666 -33.85549561 239.48814941 -34.25256348 240.4909668 C-34.64745972 241.47621338 -35.04235596 242.46145996 -35.44921875 243.4765625 C-35.81970337 244.41008545 -36.19018799 245.3436084 -36.57189941 246.30541992 C-37.93919393 249.74709995 -39.31375971 253.18588772 -40.6875 256.625 C-43.760625 264.33875 -46.83375 272.0525 -50 280 C-68.81 280 -87.62 280 -107 280 C-103.62505064 268.75016881 -103.62505064 268.75016881 -102.17260742 264.99584961 C-101.67750923 263.70788734 -101.67750923 263.70788734 -101.17240906 262.39390564 C-100.82031876 261.48919022 -100.46822845 260.58447479 -100.10546875 259.65234375 C-99.72594559 258.66814957 -99.34642242 257.68395538 -98.95539856 256.66993713 C-97.70291849 253.42443262 -96.44520168 250.18098419 -95.1875 246.9375 C-94.29456761 244.62643893 -93.40199702 242.31523804 -92.50976562 240.00390625 C-90.63138742 235.1396891 -88.75089038 230.27629907 -86.86865234 225.41357422 C-84.0708578 218.18494021 -81.27867215 210.95415098 -78.48828125 203.72265625 C-78.03615768 202.55097397 -77.58403412 201.37929169 -77.11820984 200.17210388 C-76.20425198 197.80355294 -75.29030646 195.43499723 -74.37637329 193.06643677 C-72.98986335 189.47373406 -71.60280079 185.88124517 -70.21557617 182.28881836 C-64.13094987 166.53077545 -58.06047567 150.76734555 -52 135 C-44.55913147 115.64133053 -37.09782264 96.29062624 -29.62664795 76.94363403 C-19.72640251 51.30521108 -9.86122205 25.65346896 0 0 Z M28 76 C27.45980225 77.41079834 27.45980225 77.41079834 26.90869141 78.85009766 C25.14949794 83.44251389 23.38764144 88.03390617 21.625 92.625 C21.13429016 93.90337738 21.13429016 93.90337738 20.63366699 95.20758057 C16.49212781 105.99105499 12.32011523 116.76202862 8.1015625 127.515625 C7.69632355 128.54887909 7.29108459 129.58213318 6.87356567 130.646698 C4.88760323 135.7081222 2.89820452 140.7681684 0.90478516 145.82666016 C0.17085095 147.69431728 -0.56303796 149.5619922 -1.296875 151.4296875 C-1.79288712 152.68377411 -1.79288712 152.68377411 -2.29891968 153.9631958 C-2.61116486 154.75893005 -2.92341003 155.55466431 -3.24511719 156.37451172 C-3.51298035 157.05407928 -3.78084351 157.73364685 -4.05682373 158.43380737 C-5.46201382 162.25704652 -6.71191162 166.13573486 -8 170 C16.09 170 40.18 170 65 170 C62.97046814 163.2348938 60.85695657 156.75984931 58.26171875 150.2265625 C57.9039888 149.3161319 57.54625885 148.40570129 57.1776886 147.46768188 C56.01806701 144.51861878 54.85292812 141.5717727 53.6875 138.625 C52.4741604 135.54632015 51.26202198 132.46716946 50.05007935 129.38793945 C49.23174402 127.30882297 48.41295615 125.22988454 47.59371948 123.15112305 C44.95809478 116.45756502 42.35186162 109.75334786 39.76953125 103.0390625 C39.1234559 101.36246663 38.47737849 99.68587155 37.83129883 98.00927734 C36.92026694 95.64427204 36.0109496 93.27868127 35.10702515 90.91094971 C34.28429786 88.75653426 33.45531102 86.60462659 32.625 84.453125 C32.16351562 83.24817383 31.70203125 82.04322266 31.2265625 80.80175781 C30.17139492 77.92860958 30.17139492 77.92860958 28 76 Z " fill="#231612" transform="translate(2807,2221)"/>
<path d="M0 0 C50.82 0 101.64 0 154 0 C154 17.16 154 34.32 154 52 C121 52 88 52 54 52 C54 68.5 54 85 54 102 C87 102 120 102 154 102 C154 119.16 154 136.32 154 154 C121 154 88 154 54 154 C54 178.42 54 202.84 54 228 C87 228 120 228 154 228 C154 245.16 154 262.32 154 280 C103.18 280 52.36 280 0 280 C0 187.6 0 95.2 0 0 Z " fill="#231612" transform="translate(2070,2221)"/>
<path d="M0 0 C122.70141343 0 122.70141343 0 147.34765625 23.2109375 C162.75808395 39.12359184 168.41068747 61.11274167 168.30249023 82.82080078 C167.75506487 103.99979696 160.56061936 122.79028586 145.91796875 138.296875 C120.29688123 162.03153707 88.55727866 161 55 161 C55 200.27 55 239.54 55 280 C36.85 280 18.7 280 0 280 C0 187.6 0 95.2 0 0 Z M55 52 C55 70.81 55 89.62 55 109 C67.9840879 109.04131991 67.9840879 109.04131991 80.9375 108.625 C81.69611328 108.5940625 82.45472656 108.563125 83.23632812 108.53125 C92.72351791 108.04597175 100.72661309 106.45461916 108 100 C114.59161145 92.02649936 115.85858211 85.22722804 115 75 C113.27190691 66.84993935 108.8662854 61.5775236 102 57 C94.59288834 53.49136816 86.577957 52.86375898 78.5 52.4375 C77.42878906 52.37272461 77.42878906 52.37272461 76.3359375 52.30664062 C69.19795808 51.91492224 62.18425506 52 55 52 Z " fill="#231612" transform="translate(1827,2221)"/>
<path d="M0 0 C51.48 0 102.96 0 156 0 C156 17.16 156 34.32 156 52 C139.17 52 122.34 52 105 52 C105 127.24 105 202.48 105 280 C86.85 280 68.7 280 50 280 C50 204.76 50 129.52 50 52 C33.5 52 17 52 0 52 C0 34.84 0 17.68 0 0 Z " fill="#231612" transform="translate(2514,2221)"/>
<path d="M0 0 C17.82 0 35.64 0 54 0 C54 92.4 54 184.8 54 280 C36.18 280 18.36 280 0 280 C0 187.6 0 95.2 0 0 Z " fill="#231612" transform="translate(3426,2221)"/>
</svg>
