<?xml version="1.0" encoding="UTF-8"?>
<svg version="1.1" xmlns="http://www.w3.org/2000/svg" width="1221" height="444">
<path d="M0 0 C73.59 0 147.18 0 223 0 C223 73.59 223 147.18 223 223 C149.41 223 75.82 223 0 223 C0 149.41 0 75.82 0 0 Z " fill="#364871" transform="translate(66,66)"/>
<path d="M0 0 C28.1840625 -0.061875 28.1840625 -0.061875 56.9375 -0.125 C62.83874756 -0.14320801 68.73999512 -0.16141602 74.82006836 -0.18017578 C82.10656738 -0.18920898 82.10656738 -0.18920898 85.53321838 -0.19088745 C87.89247902 -0.1939297 90.25173683 -0.2009027 92.61097717 -0.21115112 C109.48321431 -0.28068755 126.28342714 -0.32226841 142.6875 4.1875 C143.47439209 4.40108154 144.26128418 4.61466309 145.07202148 4.8347168 C156.85187678 8.20876206 166.87720297 13.78629289 176 22 C176.69609375 22.59167969 177.3921875 23.18335937 178.109375 23.79296875 C192.61354408 36.97602165 196.89262692 55.96616057 198.1875 74.71484375 C198.74589601 95.68959381 191.93521808 114.58703808 177.5625 129.875 C171.92430271 135.1355813 161.06421214 145 153 145 C160.69277776 156.60154052 168.47873323 168.13386665 176.35888672 179.60888672 C179.61164124 184.34817231 182.85580409 189.09335125 186.09838867 193.83959961 C188.94527086 198.00489186 191.80180355 202.16314486 194.671875 206.3125 C195.27064453 207.18068359 195.86941406 208.04886719 196.48632812 208.94335938 C197.63835273 210.61334852 198.79318132 212.2814078 199.95117188 213.94726562 C200.46744141 214.69685547 200.98371094 215.44644531 201.515625 216.21875 C201.97227539 216.87810547 202.42892578 217.53746094 202.89941406 218.21679688 C204 220 204 220 205 223 C195.7510455 223.25549336 186.50331464 223.4506216 177.25159454 223.56993389 C172.95486867 223.62721693 168.66056557 223.7048197 164.36523438 223.82983398 C160.21529091 223.9498532 156.067668 224.01522155 151.91612244 224.04364967 C150.33702553 224.06389039 148.7580482 224.10342362 147.1799469 224.16303062 C134.90661809 224.60793706 134.90661809 224.60793706 130.44081116 220.84172058 C128.33576379 217.99720935 126.66317731 215.12098846 125 212 C123.86402829 210.27887117 122.71132397 208.56864908 121.54077148 206.87084961 C120.39824406 205.13307712 119.25842381 203.39352222 118.12109375 201.65234375 C117.19744774 200.24632652 117.19744774 200.24632652 116.25514221 198.81190491 C114.31337873 195.85543337 112.3751594 192.89666262 110.4375 189.9375 C108.49584874 186.97504792 106.55337685 184.01314331 104.60914612 181.05238342 C103.40763136 179.22240491 102.20759842 177.39145219 101.00938416 175.55931091 C97.55310755 170.29210878 93.9904698 165.12587129 90.29408264 160.0236969 C89 158 89 158 89 156 C80.09 156 71.18 156 62 156 C62 178.11 62 200.22 62 223 C41.54 223 21.08 223 0 223 C0 149.41 0 75.82 0 0 Z M62 54 C62 71.49 62 88.98 62 107 C68.97125 107.061875 75.9425 107.12375 83.125 107.1875 C86.37947998 107.22846802 86.37947998 107.22846802 89.69970703 107.27026367 C109.27291681 107.811463 109.27291681 107.811463 126.38671875 99.6015625 C126.91910156 99.07304687 127.45148438 98.54453125 128 98 C128.50144531 97.51273438 129.00289062 97.02546875 129.51953125 96.5234375 C134.38168504 91.28296051 135.43073685 85.24411977 135.25390625 78.3359375 C134.57632428 72.10218335 132.54105576 66.41832452 128 62 C117.72453247 54.30461711 106.32471156 53.828701 93.93359375 53.90234375 C93.11701294 53.90335083 92.30043213 53.90435791 91.45910645 53.90539551 C88.45188971 53.91056903 85.44469322 53.92452955 82.4375 53.9375 C75.693125 53.958125 68.94875 53.97875 62 54 Z " fill="#F3C950" transform="translate(950,66)"/>
<path d="M0 0 C21.12 0 42.24 0 64 0 C64.03738281 9.52230469 64.07476563 19.04460937 64.11328125 28.85546875 C64.14357198 34.90300911 64.17460685 40.95053064 64.20898438 46.99804688 C64.2633623 56.588117 64.31477977 66.17813489 64.34643555 75.76831055 C64.36950974 82.75443437 64.40301164 89.74041976 64.44870156 96.72643358 C64.47250768 100.420728 64.49131856 104.1148864 64.49761391 107.8092556 C64.50486199 111.94749608 64.53540521 116.08526717 64.56762695 120.22338867 C64.56619186 121.42964905 64.56475677 122.63590942 64.5632782 123.87872314 C64.69067068 135.51610301 66.47737603 146.19542283 73 156 C73.556875 156.886875 74.11375 157.77375 74.6875 158.6875 C82.66612229 166.66612229 92.5928092 169.48019714 103.5625 170.25 C116.13082356 170.00548009 126.09563239 166.28682783 134.8125 157.3125 C144.29636973 145.69915026 144.29192726 128.94916297 144.31884766 114.66064453 C144.32889328 113.41014313 144.3389389 112.15964172 144.34928894 110.87124634 C144.3746098 107.49198222 144.39162777 104.11288058 144.40471697 100.73356104 C144.42051009 97.18348246 144.44724723 93.6334853 144.4727478 90.08346558 C144.51925267 83.38326184 144.55613221 76.68304229 144.58942068 69.98276126 C144.63504993 60.91294042 144.69581788 51.84322124 144.75566864 42.77348518 C144.84936176 28.51570814 144.9230616 14.25790012 145 0 C165.79 0 186.58 0 208 0 C208.08060607 33.71124907 208.08060607 33.71124907 208.09765625 47.91796875 C208.10948945 57.69875199 208.12334428 67.47950058 208.15087891 77.26025391 C208.17092909 84.3858593 208.18374377 91.5114364 208.18817699 98.63706923 C208.19076486 102.4035744 208.19676698 106.16999865 208.21146011 109.93647766 C208.34856481 146.50559242 208.34856481 146.50559242 203.875 162 C203.66254639 162.74145264 203.45009277 163.48290527 203.23120117 164.24682617 C196.32367756 187.03365872 182.01374279 204.70833442 161 216 C130.05569951 230.8395872 89.57173319 231.5948243 57.35986328 220.4675293 C35.1982658 212.33341133 18.97621179 197.25388877 9 176 C1.01191028 157.42228134 -0.17461705 137.34451566 -0.11352539 117.38525391 C-0.11367142 116.10549179 -0.11381744 114.82572968 -0.1139679 113.50718689 C-0.11425109 110.04736788 -0.10843277 106.58758458 -0.10139394 103.12777376 C-0.09507974 99.49366221 -0.09455029 95.85954955 -0.09336853 92.22543335 C-0.09027874 85.36581895 -0.08209753 78.50622078 -0.07201904 71.64661348 C-0.05867746 62.36160629 -0.05333897 53.07659457 -0.04751682 43.7915802 C-0.03815568 29.19437469 -0.0182212 14.59720337 0 0 Z " fill="#364471" transform="translate(514,66)"/>
<path d="M0 0 C142.94957983 0 142.94957983 0 169 25 C179.30867984 35.58679171 185.71937697 49.49051899 188 64 C188.12890625 64.78632813 188.2578125 65.57265625 188.390625 66.3828125 C191.20287682 87.03066137 187.52218355 109.68083977 174.79980469 126.59570312 C158.606555 146.59257 135.71479677 156.27347024 110.625 159.3125 C94.93188887 160.94002439 78.69747172 160.11333915 63 160 C63 180.79 63 201.58 63 223 C42.21 223 21.42 223 0 223 C0 149.41 0 75.82 0 0 Z M63 53 C63 71.81 63 90.62 63 110 C69.0225 110.0825 75.045 110.165 81.25 110.25 C83.12461914 110.28641602 84.99923828 110.32283203 86.93066406 110.36035156 C99.07885225 110.49869104 110.18860454 109.77088937 119.37890625 100.8671875 C125.38037308 93.95465462 126.37957122 87.31386587 126.26953125 78.390625 C125.70776613 71.3237826 123.49700407 66.00940304 118.3125 61.125 C110.0438659 54.58414019 101.77994131 52.83379291 91.41796875 52.90234375 C90.69565063 52.90335083 89.97333252 52.90435791 89.22912598 52.90539551 C86.54856768 52.91060048 83.86803213 52.92456163 81.1875 52.9375 C72.1846875 52.9684375 72.1846875 52.9684375 63 53 Z " fill="#364471" transform="translate(316,66)"/>
<path d="M0 0 C140.41883768 0 140.41883768 0 166 23 C166.93392578 23.79470703 166.93392578 23.79470703 167.88671875 24.60546875 C177.28259467 33.15677156 182.5015082 45.01731149 186 57 C186.36931641 58.26457031 186.36931641 58.26457031 186.74609375 59.5546875 C191.64978321 80.72509853 187.88087498 104.44824921 176.5625 122.8125 C175.39490963 124.55517219 174.20914888 126.28590181 173 128 C172.56300781 128.62390625 172.12601563 129.2478125 171.67578125 129.890625 C157.68206211 147.8765463 133.47499953 155.90465343 111.7800293 159.04980469 C95.40767083 161.04557422 78.40332276 160.11843554 62 160 C62 180.79 62 201.58 62 223 C41.54 223 21.08 223 0 223 C0 149.41 0 75.82 0 0 Z M62 53 C62 71.81 62 90.62 62 110 C71.3121875 110.12375 71.3121875 110.12375 80.8125 110.25 C83.71639526 110.30462402 83.71639526 110.30462402 86.67895508 110.36035156 C98.92712215 110.49584906 109.10559448 109.7020131 118.34765625 100.78125 C123.79868969 94.90495863 125.93339935 89.19485044 126.03515625 81.2578125 C125.59929911 73.58247461 123.65007702 68.06851024 118.625 62.25 C106.89578646 52.19638839 94.47521724 52.59384601 79.8125 52.8125 C70.9953125 52.9053125 70.9953125 52.9053125 62 53 Z " fill="#F3C950" transform="translate(744,66)"/>
<path d="M0 0 C33 0 66 0 100 0 C100 49.5 100 99 100 150 C96.37 150 92.74 150 89 150 C89.0825 150.886875 89.165 151.77375 89.25 152.6875 C89.1870505 163.05318468 84.48045797 172.21244329 78 180 C77.46503906 180.64710938 76.93007813 181.29421875 76.37890625 181.9609375 C68.6838111 190.41262474 58.67557567 194.45296565 47.4921875 195.25 C35.57252269 195.63528209 26.6799898 192.83162498 17 186 C16.154375 185.443125 15.30875 184.88625 14.4375 184.3125 C6.64194999 176.91672179 0.33143215 165.97211655 -0.12304783 155.04026413 C-0.12212604 153.87880497 -0.12120424 152.71734581 -0.12025452 151.52069092 C-0.12110894 150.87207195 -0.12196337 150.22345297 -0.12284368 149.55517888 C-0.12448941 147.38408846 -0.11899199 145.21307548 -0.11352539 143.04199219 C-0.1132433 141.48477175 -0.11340169 139.92755117 -0.1139679 138.37033081 C-0.114255 134.14341812 -0.1083722 129.91653375 -0.10139394 125.68962765 C-0.09514606 121.27202943 -0.09455546 116.85443057 -0.09336853 112.43682861 C-0.09025945 104.07170408 -0.08205176 95.7065926 -0.07201904 87.34147382 C-0.05875569 76.0375202 -0.05335457 64.73356301 -0.04751682 53.42960358 C-0.0381116 35.61972594 -0.01818984 17.80987585 0 0 Z " fill="#F2C851" transform="translate(189,66)"/>
<path d="M0 0 C12.21 0 24.42 0 37 0 C37 3.96 37 7.92 37 12 C38.8253125 11.9071875 38.8253125 11.9071875 40.6875 11.8125 C57.50498934 11.94347733 72.85326513 19.67851446 84.5234375 31.4296875 C85.34070313 32.27789062 86.15796875 33.12609375 87 34 C87.59039062 34.55945313 88.18078125 35.11890625 88.7890625 35.6953125 C100.13338554 47.28229486 104.52331126 64.739321 104.42016602 80.37817383 C103.89436569 98.33769859 96.73626269 113.41510207 84 126 C83.31292969 126.70898438 82.62585938 127.41796875 81.91796875 128.1484375 C59.91429723 149.45811567 28.54962142 145 0 145 C0 97.15 0 49.3 0 0 Z " fill="#F2C851" transform="translate(66,66)"/>
<path d="M0 0 C1.70122694 1.16774971 3.39072897 2.35295706 5.0625 3.5625 C6.114375 4.305 7.16625 5.0475 8.25 5.8125 C17.35225285 14.71248056 24.63948502 26.71288713 26.0625 39.5625 C26.0625 42.2025 26.0625 44.8425 26.0625 47.5625 C-10.2375 47.5625 -46.5375 47.5625 -83.9375 47.5625 C-83.9375 30.80636753 -78.83745524 19.07132996 -67.41796875 6.88671875 C-49.38786344 -10.00763189 -20.96095654 -12.86879101 0 0 Z " fill="#F2C851" transform="translate(162.9375,241.4375)"/>
<path d="M0 0 C4.29 0 8.58 0 13 0 C16.16653873 3.51837637 17.89235027 5.93838333 20 10 C21.13801439 11.87975591 22.28346543 13.75503657 23.4375 15.625 C24.29547618 17.08109535 25.15113077 18.53857678 26 20 C27.04634667 18.5450209 28.08673752 17.0857589 29.125 15.625 C29.77597656 14.72265625 30.42695313 13.8203125 31.09765625 12.890625 C33.0528704 10.0836509 33.0528704 10.0836509 34.30859375 7.109375 C35.5625 4.375 35.5625 4.375 39 0 C43.62 0 48.24 0 53 0 C53 17.49 53 34.98 53 53 C48.71 53 44.42 53 40 53 C39.67 43.1 39.34 33.2 39 23 C35.87795527 28.16882809 35.87795527 28.16882809 32.77832031 33.35107422 C32.38225586 33.9957666 31.98619141 34.64045898 31.578125 35.3046875 C31.18012695 35.96452637 30.78212891 36.62436523 30.37207031 37.30419922 C29 39 29 39 25 41 C21.04 35.06 17.08 29.12 13 23 C12.67 32.9 12.34 42.8 12 53 C8.04 53 4.08 53 0 53 C0 35.51 0 18.02 0 0 Z " fill="#000000" transform="translate(330,324)"/>
<path d="M0 0 C4.29 0 8.58 0 13 0 C16.30359012 3.51379006 18.1126917 5.89443091 20.3125 10 C20.87388672 10.95390625 21.43527344 11.9078125 22.01367188 12.890625 C23.38753484 15.2391087 24.71173662 17.60382373 26 20 C26.60328125 19.05898438 27.2065625 18.11796875 27.828125 17.1484375 C28.63538914 15.89060733 29.44268236 14.63279583 30.25 13.375 C30.64574219 12.75753906 31.04148437 12.14007813 31.44921875 11.50390625 C32.24568358 10.26351021 33.05508569 9.03132976 33.87695312 7.80761719 C35.1914184 5.79283997 35.1914184 5.79283997 36.484375 2.5390625 C37.72960937 1.28222656 37.72960937 1.28222656 39 0 C43.29 0 47.58 0 52 0 C52 17.49 52 34.98 52 53 C48.04 53 44.08 53 40 53 C39.67 43.1 39.34 33.2 39 23 C33.06 31.91 33.06 31.91 27 41 C23.14597331 39.07298666 22.4664134 38.69431695 20.421875 35.3046875 C20.02581055 34.65999512 19.62974609 34.01530273 19.22167969 33.35107422 C18.73602539 32.53396973 18.25037109 31.71686523 17.75 30.875 C16.1825 28.27625 14.615 25.6775 13 23 C12.67 32.9 12.34 42.8 12 53 C8.04 53 4.08 53 0 53 C0 35.51 0 18.02 0 0 Z " fill="#000000" transform="translate(444,324)"/>
<path d="M0 0 C6.93 -0.0928125 6.93 -0.0928125 14 -0.1875 C16.16175781 -0.22846802 16.16175781 -0.22846802 18.3671875 -0.27026367 C26.38914031 -0.3221875 32.99767121 -0.28396208 39.4375 5 C42.6921261 9.1659214 42.51366203 13.94308592 42 19 C40.625 22.0625 40.625 22.0625 39 24 C38.34 24 37.68 24 37 24 C37 24.66 37 25.32 37 26 C37.598125 26.268125 38.19625 26.53625 38.8125 26.8125 C42.31088537 28.71162349 43.73345454 30.20036361 45 34 C45.36617651 39.58419173 45.2546741 43.22647798 42 48 C36.09017969 52.65241173 31.99570109 53.12696707 24.609375 53.09765625 C23.31999023 53.09515869 22.03060547 53.09266113 20.70214844 53.09008789 C18.25083496 53.07643188 18.25083496 53.07643188 15.75 53.0625 C7.95375 53.0315625 7.95375 53.0315625 0 53 C0 35.51 0 18.02 0 0 Z M12 11 C12 14.3 12 17.6 12 21 C14.24893954 21.10823773 16.49937575 21.18569645 18.75 21.25 C20.62945313 21.31960938 20.62945313 21.31960938 22.546875 21.390625 C26.07830498 21.30821551 26.07830498 21.30821551 28.453125 18.984375 C28.96359375 18.32953125 29.4740625 17.6746875 30 17 C29.21869929 14.50447516 29.21869929 14.50447516 28 12 C24.57767028 10.85922343 21.91326783 10.90184883 18.3125 10.9375 C17.13300781 10.94652344 15.95351563 10.95554687 14.73828125 10.96484375 C13.38283203 10.98224609 13.38283203 10.98224609 12 11 Z M12 32 C12 35.3 12 38.6 12 42 C14.77109307 42.05392397 17.54113818 42.09363455 20.3125 42.125 C21.09818359 42.14175781 21.88386719 42.15851563 22.69335938 42.17578125 C23.45068359 42.18222656 24.20800781 42.18867188 24.98828125 42.1953125 C26.03302612 42.21102295 26.03302612 42.21102295 27.09887695 42.22705078 C29.331173 42.10574595 29.331173 42.10574595 32 40 C33.08568503 38.15732132 33.08568503 38.15732132 33 36 C31.596356 33.70072602 31.596356 33.70072602 29 32 C26.06774754 31.50961696 23.21244144 31.62226621 20.25 31.75 C19.45722656 31.76804687 18.66445313 31.78609375 17.84765625 31.8046875 C15.89791652 31.85166918 13.94880122 31.92340956 12 32 Z " fill="#000000" transform="translate(508,324)"/>
<path d="M0 0 C12 0 12 0 15.4453125 3.04296875 C16.37878984 4.39760871 17.27101778 5.78139057 18.125 7.1875 C19.11069283 8.65060701 20.09769468 10.1128329 21.0859375 11.57421875 C21.56643555 12.31333496 22.04693359 13.05245117 22.54199219 13.81396484 C24.78129605 17.17142077 27.25945572 20.32731364 29.75 23.5 C31.1525 25.315 32.555 27.13 34 29 C34.33 19.43 34.66 9.86 35 0 C38.96 0 42.92 0 47 0 C47 17.49 47 34.98 47 53 C36 53 36 53 33.37890625 51.15625 C32.77949219 50.2796875 32.18007813 49.403125 31.5625 48.5 C30.8509375 47.51 30.139375 46.52 29.40625 45.5 C28.84164062 44.67048828 28.84164062 44.67048828 28.265625 43.82421875 C26.32958669 41.0336944 24.25456633 38.35189057 22.19702148 35.65039062 C20.6212318 33.57726806 19.05826806 31.49547629 17.50390625 29.40625 C17.06892822 28.82166016 16.6339502 28.23707031 16.18579102 27.63476562 C15.08504962 26.11725186 14.03989343 24.55984015 13 23 C12.67 32.9 12.34 42.8 12 53 C8.04 53 4.08 53 0 53 C0 35.51 0 18.02 0 0 Z " fill="#000000" transform="translate(873,324)"/>
<path d="M0 0 C11 0 11 0 14.4375 3 C15.65446946 4.64527182 16.83599106 6.31684308 18 8 C18.9790058 9.3100193 19.96389726 10.61565105 20.953125 11.91796875 C23.51296067 15.29023522 26.04346412 18.68251821 28.55541992 22.09057617 C30.32457043 24.42901222 32.16822872 26.7102859 34 29 C34.33 19.43 34.66 9.86 35 0 C38.96 0 42.92 0 47 0 C47 17.49 47 34.98 47 53 C36 53 36 53 33.37890625 51.15625 C32.77949219 50.2796875 32.18007813 49.403125 31.5625 48.5 C30.8509375 47.51 30.139375 46.52 29.40625 45.5 C28.84164062 44.67048828 28.84164062 44.67048828 28.265625 43.82421875 C26.32958669 41.0336944 24.25456633 38.35189057 22.19702148 35.65039062 C20.6212318 33.57726806 19.05826806 31.49547629 17.50390625 29.40625 C17.06892822 28.82166016 16.6339502 28.23707031 16.18579102 27.63476562 C15.08504962 26.11725186 14.03989343 24.55984015 13 23 C12.67 32.9 12.34 42.8 12 53 C8.04 53 4.08 53 0 53 C0 35.51 0 18.02 0 0 Z " fill="#000000" transform="translate(620,324)"/>
<path d="M0 0 C12 0 12 0 15.953125 3.55078125 C17.09175433 5.10980728 18.19042397 6.69870399 19.25 8.3125 C19.7965625 9.07884766 20.343125 9.84519531 20.90625 10.63476562 C22.63494622 13.06826906 24.31682029 15.53479501 26 18 C28.64 21.63 31.28 25.26 34 29 C34.33 19.43 34.66 9.86 35 0 C38.96 0 42.92 0 47 0 C47 17.49 47 34.98 47 53 C36 53 36 53 33.1953125 50.75390625 C32.51210938 49.70074219 31.82890625 48.64757812 31.125 47.5625 C30.31956584 46.3815435 29.51216264 45.20192829 28.703125 44.0234375 C28.27966797 43.38245117 27.85621094 42.74146484 27.41992188 42.08105469 C24.74224676 38.15662163 21.78203436 34.44308591 18.875 30.6875 C16.93625 28.150625 14.9975 25.61375 13 23 C12.67 32.9 12.34 42.8 12 53 C8.04 53 4.08 53 0 53 C0 35.51 0 18.02 0 0 Z " fill="#000000" transform="translate(792,324)"/>
<path d="M0 0 C7.1775 -0.0928125 7.1775 -0.0928125 14.5 -0.1875 C16.74006836 -0.22846802 16.74006836 -0.22846802 19.02539062 -0.27026367 C27.55329836 -0.32359177 34.02211667 -0.19960181 40.875 5.3125 C44.76134405 10.22758218 45.53261215 14.82169911 45 21 C43.95017205 25.91510359 42.3000915 29.05021444 38.37890625 32.24609375 C37.74670166 32.76743896 37.11449707 33.28878418 36.46313477 33.82592773 C35.98030029 34.21337158 35.49746582 34.60081543 35 35 C35.33322266 35.47421387 35.66644531 35.94842773 36.00976562 36.43701172 C37.51135304 38.57966145 39.00574182 40.72723333 40.5 42.875 C41.02464844 43.62136719 41.54929687 44.36773437 42.08984375 45.13671875 C42.58613281 45.85214844 43.08242187 46.56757813 43.59375 47.3046875 C44.05458984 47.96452637 44.51542969 48.62436523 44.99023438 49.30419922 C46 51 46 51 46 53 C41.17349539 53.67110106 36.80162921 53.93866436 32 53 C27.66238868 49.21515774 25.05450723 44.44686628 22.79296875 39.19921875 C20.62018843 36.01720189 20.62018843 36.01720189 13 36 C13 41.61 13 47.22 13 53 C8.71 53 4.42 53 0 53 C0 35.51 0 18.02 0 0 Z M13 11 C13 15.62 13 20.24 13 25 C15.4178712 25.10826289 17.83087556 25.18739789 20.25 25.25 C20.93191406 25.28351563 21.61382813 25.31703125 22.31640625 25.3515625 C25.76134549 25.41845452 27.65049493 25.25343258 30.47265625 23.20703125 C32.31483503 20.95779766 32.31483503 20.95779766 32.1875 17.4375 C31.31398083 13.79259316 31.31398083 13.79259316 28.125 12.0625 C23.19917514 10.37599629 18.13656089 10.809757 13 11 Z " fill="#000000" transform="translate(1088,324)"/>
<path d="M0 0 C-1.3937282 4.43458973 -3.60582235 6.87378374 -7 10 C-9.36895052 9.07874146 -11.67041344 8.18174732 -13.8984375 6.953125 C-17.52800134 5.30700311 -21.10039569 5.45161814 -25 6 C-29.43135421 8.21567711 -31.95552361 10.48063113 -34 15 C-35.73942808 20.46677397 -34.53908235 25.00463146 -32 30 C-29.58103788 33.00947346 -26.92812753 34.68359289 -23.25 35.9375 C-18.67004437 36.02557607 -14.43891802 35.0614804 -10 34 C-10 31.69 -10 29.38 -10 27 C-13.96 27 -17.92 27 -22 27 C-22 23.37 -22 19.74 -22 16 C-14.08 16 -6.16 16 2 16 C2.144375 19.856875 2.28875 23.71375 2.4375 27.6875 C2.53309204 29.4986731 2.53309204 29.4986731 2.63061523 31.34643555 C2.76995483 39.01396618 2.76995483 39.01396618 0.57763672 41.8215332 C-1.22941892 43.15547503 -2.94193901 44.10860182 -5 45 C-5.81984375 45.37769531 -6.6396875 45.75539063 -7.484375 46.14453125 C-16.8749784 48.91314018 -26.02555879 49.33078539 -35 45 C-40.70920736 41.87180863 -44.49413163 38.01576483 -47.1484375 32.0390625 C-49.38780774 24.04718156 -49.40332633 14.99751506 -45.9375 7.375 C-41.75101484 0.33839358 -35.55177702 -4.3494717 -27.6875 -6.6875 C-17.40744755 -7.88285494 -8.36121353 -6.38092612 0 0 Z " fill="#000000" transform="translate(1027,330)"/>
<path d="M0 0 C0.78375 0.598125 1.5675 1.19625 2.375 1.8125 C0.70748852 5.75389078 -1.85210649 8.6017812 -4.625 11.8125 C-6.99395052 10.89124146 -9.29541344 9.99424732 -11.5234375 8.765625 C-15.15300134 7.11950311 -18.72539569 7.26411814 -22.625 7.8125 C-27.04372191 10.02186095 -29.66059958 12.26336219 -31.625 16.8125 C-32.99748533 22.8906493 -32.7497419 26.20951453 -29.625 31.8125 C-27.01810655 35.38490954 -24.25577597 36.69378299 -19.9296875 37.640625 C-15.69208783 37.95664938 -11.69853284 36.89766244 -7.625 35.8125 C-7.625 33.5025 -7.625 31.1925 -7.625 28.8125 C-11.585 28.8125 -15.545 28.8125 -19.625 28.8125 C-19.625 25.1825 -19.625 21.5525 -19.625 17.8125 C-11.705 17.8125 -3.785 17.8125 4.375 17.8125 C4.58125 21.64875 4.7875 25.485 5 29.4375 C5.13656006 31.23501709 5.13656006 31.23501709 5.27587891 33.06884766 C5.35822882 36.23267829 5.27685176 38.7687164 4.375 41.8125 C-1.66187369 47.60872148 -9.8188891 49.84132764 -18 50.125 C-26.78496723 49.92069844 -34.42530744 47.21479689 -40.625 40.8125 C-45.14155509 34.42432035 -47.01424251 27.60847135 -46.625 19.8125 C-45.11358937 11.29699131 -41.40375296 4.61715785 -34.671875 -0.86328125 C-24.26566084 -7.59554576 -10.17488187 -6.72739248 0 0 Z " fill="#000000" transform="translate(185.625,328.1875)"/>
<path d="M0 0 C0.969375 0.78375 1.93875 1.5675 2.9375 2.375 C2.09006083 6.85571284 -0.08284989 9.01334347 -3.0625 12.375 C-8.0625 10.375 -8.0625 10.375 -10.3125 9.25 C-15.69418455 7.53764582 -20.33082397 7.54123006 -25.4375 10 C-28.93299631 13.1625919 -30.7302963 15.80503525 -31.34375 20.55078125 C-31.54490805 25.53782447 -30.98731335 29.18276753 -28.0625 33.375 C-24.19970232 36.55107809 -21.07720482 38.17441181 -16.0625 38.375 C-13.31787723 37.87281359 -10.7479576 37.16211688 -8.0625 36.375 C-7.7325 34.065 -7.4025 31.755 -7.0625 29.375 C-10.6925 29.375 -14.3225 29.375 -18.0625 29.375 C-18.0625 25.745 -18.0625 22.115 -18.0625 18.375 C-10.4725 18.375 -2.8825 18.375 4.9375 18.375 C5.18105118 22.25377807 5.35893229 26.11727931 5.5 30 C5.57541016 31.09441406 5.65082031 32.18882812 5.72851562 33.31640625 C5.94580892 41.28382699 5.94580892 41.28382699 3.03027344 44.43896484 C-4.98542215 49.89377202 -13.48097039 51.40485148 -23.0625 50.375 C-30.61703878 48.67700811 -36.53203379 45.77674573 -41.0625 39.375 C-45.35227236 32.12324196 -46.09026106 24.65937705 -45.0625 16.375 C-43.21105352 9.74147519 -39.68458814 3.58052892 -33.6953125 -0.06640625 C-23.16640911 -5.5495592 -10.19075502 -7.2526946 0 0 Z " fill="#000000" transform="translate(721.0625,327.625)"/>
<path d="M0 0 C13.2 0 26.4 0 40 0 C40 3.63 40 7.26 40 11 C31.09 11 22.18 11 13 11 C13 14.3 13 17.6 13 21 C20.92 21 28.84 21 37 21 C37 24.63 37 28.26 37 32 C29.08 32 21.16 32 13 32 C13 35.3 13 38.6 13 42 C22.24 42 31.48 42 41 42 C41 45.63 41 49.26 41 53 C27.47 53 13.94 53 0 53 C0 35.51 0 18.02 0 0 Z " fill="#000000" transform="translate(931,324)"/>
<path d="M0 0 C13.2 0 26.4 0 40 0 C40 3.63 40 7.26 40 11 C30.76 11 21.52 11 12 11 C12 14.3 12 17.6 12 21 C20.25 21 28.5 21 37 21 C37 24.63 37 28.26 37 32 C28.75 32 20.5 32 12 32 C12 35.3 12 38.6 12 42 C21.57 42 31.14 42 41 42 C41 45.63 41 49.26 41 53 C27.47 53 13.94 53 0 53 C0 35.51 0 18.02 0 0 Z " fill="#000000" transform="translate(394,324)"/>
<path d="M0 0 C13.2 0 26.4 0 40 0 C40 3.63 40 7.26 40 11 C30.76 11 21.52 11 12 11 C12 14.3 12 17.6 12 21 C20.25 21 28.5 21 37 21 C37 24.63 37 28.26 37 32 C28.75 32 20.5 32 12 32 C12 35.3 12 38.6 12 42 C21.24 42 30.48 42 40 42 C40 45.63 40 49.26 40 53 C26.8 53 13.6 53 0 53 C0 35.51 0 18.02 0 0 Z " fill="#000000" transform="translate(1039,324)"/>
<path d="M0 0 C4.29 0 8.58 0 13 0 C13.01458252 1.03406982 13.02916504 2.06813965 13.04418945 3.13354492 C13.10230882 6.98236082 13.17954023 10.83059999 13.26245117 14.67895508 C13.29563655 16.34227108 13.32368834 18.00569796 13.34643555 19.66918945 C13.38009999 22.06509499 13.4324194 24.45999035 13.48828125 26.85546875 C13.49467117 27.5952446 13.5010611 28.33502045 13.50764465 29.09721375 C13.63329971 33.54308862 14.2548976 36.46144732 17 40 C20.44741547 41.72370774 24.23035339 41.50306672 28 41 C30.50160818 39.12379387 31.61945652 37.76108697 33 35 C33.15660883 32.37619687 33.2582908 29.77475148 33.31640625 27.1484375 C33.33718735 26.37440582 33.35796844 25.60037415 33.37937927 24.80288696 C33.44483448 22.32701608 33.50374087 19.85103798 33.5625 17.375 C33.60568907 15.69790552 33.64930348 14.02082193 33.69335938 12.34375 C33.80051171 8.22927692 33.90179045 4.11469586 34 0 C38.29 0 42.58 0 47 0 C47.04986353 4.53489627 47.08593637 9.0696289 47.10986328 13.60473633 C47.11985006 15.14382715 47.13344419 16.68289935 47.15087891 18.22192383 C47.39774213 40.59208806 47.39774213 40.59208806 41 48 C33.59280186 53.62398378 27.21084894 54.70263064 18 54 C12.27238699 52.75656948 8.07083961 50.1655103 4 46 C0.4162626 39.20325666 -0.1541795 32.76126671 -0.09765625 25.1953125 C-0.0962413 24.4713327 -0.09482635 23.74735291 -0.09336853 23.00143433 C-0.08781075 20.70924593 -0.07526633 18.41715843 -0.0625 16.125 C-0.05747953 14.56250142 -0.05291759 13.00000129 -0.04882812 11.4375 C-0.03785519 7.62496165 -0.0206201 3.81249788 0 0 Z " fill="#000000" transform="translate(735,324)"/>
<path d="M0 0 C1.65322266 0.01740234 1.65322266 0.01740234 3.33984375 0.03515625 C4.44457031 0.04417969 5.54929687 0.05320312 6.6875 0.0625 C7.54214844 0.07410156 8.39679687 0.08570313 9.27734375 0.09765625 C12.75063893 8.10084512 16.22076699 16.10539341 19.6856842 24.11221313 C21.50167338 28.30816212 23.32209874 32.50215676 25.14453125 36.6953125 C25.95987241 38.57932454 26.7749938 40.46343171 27.58984375 42.34765625 C28.15723267 43.6483606 28.15723267 43.6483606 28.73608398 44.9753418 C29.07583252 45.76336182 29.41558105 46.55138184 29.765625 47.36328125 C30.05993408 48.04165039 30.35424316 48.72001953 30.6574707 49.41894531 C31.27734375 51.09765625 31.27734375 51.09765625 31.27734375 53.09765625 C26.98734375 53.09765625 22.69734375 53.09765625 18.27734375 53.09765625 C14.40234375 45.47265625 14.40234375 45.47265625 13.27734375 42.09765625 C6.34734375 41.76765625 -0.58265625 41.43765625 -7.72265625 41.09765625 C-8.71265625 44.39765625 -9.70265625 47.69765625 -10.72265625 51.09765625 C-11.05265625 51.75765625 -11.38265625 52.41765625 -11.72265625 53.09765625 C-16.01265625 53.09765625 -20.30265625 53.09765625 -24.72265625 53.09765625 C-22.75271427 46.14768542 -20.40234691 39.59047345 -17.52734375 32.96875 C-17.13443146 32.05303726 -16.74151917 31.13732452 -16.33670044 30.19386292 C-15.5139876 28.27941954 -14.68867129 26.36609302 -13.86083984 24.45385742 C-12.5885723 21.51416696 -11.32491817 18.57088492 -10.0625 15.62695312 C-9.2596101 13.7615054 -8.45624219 11.89626332 -7.65234375 10.03125 C-7.27318817 9.1490831 -6.89403259 8.2669162 -6.50338745 7.35801697 C-6.15277252 6.54949783 -5.80215759 5.7409787 -5.44091797 4.90795898 C-5.13241913 4.19421616 -4.82392029 3.48047333 -4.506073 2.74510193 C-3.23496733 0.07209609 -3.14127822 0.11267139 0 0 Z M2.27734375 16.09765625 C1.43970107 18.05415022 0.60735316 20.01291181 -0.22265625 21.97265625 C-0.68671875 23.06320312 -1.15078125 24.15375 -1.62890625 25.27734375 C-2.84318081 27.90427554 -2.84318081 27.90427554 -2.72265625 30.09765625 C0.90734375 30.09765625 4.53734375 30.09765625 8.27734375 30.09765625 C7.84421875 28.53015625 7.41109375 26.96265625 6.96484375 25.34765625 C6.72121094 24.4659375 6.47757813 23.58421875 6.2265625 22.67578125 C5.25609044 20.0399312 4.06728731 18.24358299 2.27734375 16.09765625 Z " fill="#000000" transform="translate(581.72265625,323.90234375)"/>
<path d="M0 0 C3.96 0 7.92 0 12 0 C16.55092236 8.69871184 20.36065178 17.6701515 24.15820312 26.71508789 C25.25579058 29.32627593 26.36198231 31.93370756 27.46875 34.54101562 C28.17239546 36.21071826 28.87553855 37.88063272 29.578125 39.55078125 C29.90725891 40.32480789 30.23639282 41.09883453 30.57550049 41.89631653 C30.87961853 42.62445053 31.18373657 43.35258453 31.49707031 44.1027832 C31.89747528 45.05348442 31.89747528 45.05348442 32.30596924 46.02339172 C33 48 33 48 34 53 C29.71 53 25.42 53 21 53 C17 44.375 17 44.375 17 41 C6.605 41.495 6.605 41.495 -4 42 C-5.65 45.63 -7.3 49.26 -9 53 C-13.29 53 -17.58 53 -22 53 C-17.64688689 40.96578228 -12.75069571 29.22344516 -7.625 17.5 C-6.88114277 15.79052451 -6.13765125 14.08088984 -5.39453125 12.37109375 C-3.60054643 8.24555659 -1.80169116 4.12217714 0 0 Z M5 17 C3.35 21.29 1.7 25.58 0 30 C3.96 30 7.92 30 12 30 C10.35 25.71 8.7 21.42 7 17 C6.34 17 5.68 17 5 17 Z " fill="#000000" transform="translate(217,324)"/>
<path d="M0 0 C6.435 -0.0928125 6.435 -0.0928125 13 -0.1875 C14.33675781 -0.21481201 15.67351562 -0.24212402 17.05078125 -0.27026367 C24.55514589 -0.32250214 31.04329754 -0.3035087 37.05859375 4.71875 C37.74115234 5.60046875 37.74115234 5.60046875 38.4375 6.5 C38.91058594 7.0878125 39.38367188 7.675625 39.87109375 8.28125 C43.10815041 13.20964077 42.61462202 19.3612003 42 25 C40.423644 29.57437885 37.76529852 32.89599562 33.6875 35.5 C27.36089624 38.29006897 19.68929589 37.22297653 13 37 C13 42.28 13 47.56 13 53 C8.71 53 4.42 53 0 53 C0 35.51 0 18.02 0 0 Z M13 11 C13 15.95 13 20.9 13 26 C15.84625 26.0928125 15.84625 26.0928125 18.75 26.1875 C19.81734375 26.22230469 20.8846875 26.25710938 21.984375 26.29296875 C25.33749588 25.96721219 26.62189529 25.33355006 29 23 C30.25054667 19.83194845 30.19422883 18.49128469 28.9375 15.3125 C26.43482515 12.32543647 24.80379433 11.78946675 21 11 C18.30761053 10.85931659 15.70013896 10.90689176 13 11 Z " fill="#000000" transform="translate(258,324)"/>
<path d="M0 0 C-0.53115106 4.51478398 -2.36620292 7.34666857 -5 11 C-9.7184466 9.16504854 -9.7184466 9.16504854 -11.8125 7.9375 C-14.5828128 6.75022309 -16.74828987 6.80353071 -19.75 6.875 C-20.73484375 6.89304687 -21.7196875 6.91109375 -22.734375 6.9296875 C-23.48203125 6.95289063 -24.2296875 6.97609375 -25 7 C-24.88826479 9.44906786 -24.88826479 9.44906786 -24 12 C-21.82108333 13.34302337 -21.82108333 13.34302337 -19.0625 14.0625 C-18.0725 14.38476562 -17.0825 14.70703125 -16.0625 15.0390625 C-15.051875 15.35617187 -14.04125 15.67328125 -13 16 C-2.11426278 19.71929355 -2.11426278 19.71929355 1 25 C2.53752988 29.61258965 2.86704551 34.32051599 1.3515625 39.00390625 C-1.08258565 43.82019083 -4.1651049 45.75522728 -9 48 C-16.8474604 50.34485868 -24.53136617 49.05915242 -32 46 C-34.78272891 44.48460792 -37.41313262 42.82814929 -40 41 C-38.5682479 35.98886765 -36.01554307 34.05530451 -32 31 C-31.29037109 31.52400391 -31.29037109 31.52400391 -30.56640625 32.05859375 C-25.50064513 35.54439039 -21.19629078 37.16306028 -15 37 C-13.65695776 36.70823565 -12.31899383 36.38619189 -11 36 C-10.94832473 33.57732914 -10.94832473 33.57732914 -12 31 C-15.24841921 29.19532266 -18.41806284 28.18296043 -21.95703125 27.0703125 C-34.06985294 23.21691176 -34.06985294 23.21691176 -37.3125 17.8125 C-38.6288561 12.42740687 -38.97625149 7.25410706 -36.4375 2.1875 C-33.44966421 -2.36287888 -29.37417426 -4.31412744 -24.1875 -5.8125 C-15.40283709 -6.32924488 -7.41345337 -4.94230225 0 0 Z " fill="#000000" transform="translate(106,329)"/>
<path d="M0 0 C4.29 0 8.58 0 13 0 C13 17.49 13 34.98 13 53 C8.71 53 4.42 53 0 53 C0 35.51 0 18.02 0 0 Z " fill="#000000" transform="translate(1142,324)"/>
<path d="M0 0 C4.29 0 8.58 0 13 0 C13 17.49 13 34.98 13 53 C8.71 53 4.42 53 0 53 C0 35.51 0 18.02 0 0 Z " fill="#000000" transform="translate(117,324)"/>
</svg>
