<?xml version="1.0" encoding="UTF-8"?>
<svg version="1.1" xmlns="http://www.w3.org/2000/svg" width="454" height="453">
<path d="M0 0 C3 0 3 0 4.5625 1.125 C6.43887869 3.57245046 7.14989945 6.05734424 8 9 C8.33 7.35 8.66 5.7 9 4 C10.32 4 11.64 4 13 4 C13 8.62 13 13.24 13 18 C14.64350079 14.71299843 15.41321669 12.52069985 16 9 C16.99 9 17.98 9 19 9 C19 13.33333333 19 17.66666667 19 22 C19.66 20.68 20.32 19.36 21 18 C21.99 18 22.98 18 24 18 C23.85795259 19.58367747 23.71119847 21.16693318 23.5625 22.75 C23.44068359 24.07257813 23.44068359 24.07257813 23.31640625 25.421875 C23.03761535 27.69350452 22.61209423 29.79851823 22 32 C22.99 30.02 23.98 28.04 25 26 C26.32 26 27.64 26 29 26 C28.55643705 32.20988129 27.08467498 36.60540561 24 42 C24.598125 41.195625 25.19625 40.39125 25.8125 39.5625 C28 37 28 37 31 36 C29.25740319 46.55808656 29.25740319 46.55808656 26 51 C27.485 51.495 27.485 51.495 29 52 C28.67 52.99 28.34 53.98 28 55 C27.34 55 26.68 55 26 55 C25.40267181 57.76264289 25 60.16032769 25 63 C27.10049671 61.10955296 28.40541966 59.35917537 29.9375 56.9375 C31.9012628 54.14062571 32.86124613 53.12098353 36 52 C36.33 52.66 36.66 53.32 37 54 C37.5775 53.195625 38.155 52.39125 38.75 51.5625 C40.98126893 49.02133261 41.74456771 48.34879632 45 48 C45.33 48.66 45.66 49.32 46 50 C45.0126546 51.67419438 44.01187895 53.34051852 43 55 C43 55.99 43 56.98 43 58 C43.56267578 57.06027344 43.56267578 57.06027344 44.13671875 56.1015625 C44.64847656 55.28429687 45.16023437 54.46703125 45.6875 53.625 C46.18636719 52.81289062 46.68523437 52.00078125 47.19921875 51.1640625 C49.27475035 48.66982279 50.93697902 47.94969305 54 47 C53.67 49.64 53.34 52.28 53 55 C53.61488281 54.4946875 54.22976563 53.989375 54.86328125 53.46875 C55.67152344 52.8190625 56.47976563 52.169375 57.3125 51.5 C58.51326172 50.52546875 58.51326172 50.52546875 59.73828125 49.53125 C62 48 62 48 65 48 C64.21302675 51.41021743 63.12880057 54.68885166 62 58 C62.53625 57.401875 63.0725 56.80375 63.625 56.1875 C67.52989989 52.59088168 70.6726088 51 76 51 C75.67 51.99 75.34 52.98 75 54 C74.34 54 73.68 54 73 54 C71.79371992 56.33214148 70.8345262 58.49642139 70 61 C70.78375 60.525625 71.5675 60.05125 72.375 59.5625 C76.92189258 57.60263251 81.09893144 57.28089128 86 57 C84.72320197 60.83039408 83.40564374 60.98757415 80 63 C78.2958946 64.62836738 76.61974559 66.28769752 75 68 C75.66 68 76.32 68 77 68 C77 67.34 77 66.68 77 66 C81.92737019 64.02905192 85.78020872 63.8200072 91 64 C90.875 65.8125 90.875 65.8125 90 68 C86.9375 69.75 86.9375 69.75 84 71 C84 71.33 84 71.66 84 72 C84.56203125 71.83628906 85.1240625 71.67257813 85.703125 71.50390625 C88.13059056 70.97135003 90.26889681 70.90101319 92.75 70.9375 C93.54921875 70.94652344 94.3484375 70.95554687 95.171875 70.96484375 C95.77515625 70.97644531 96.3784375 70.98804688 97 71 C97 72.32 97 73.64 97 75 C94.36 75.66 91.72 76.32 89 77 C89 77.66 89 78.32 89 79 C90.03060547 79.07347656 90.03060547 79.07347656 91.08203125 79.1484375 C91.98308594 79.22320312 92.88414062 79.29796875 93.8125 79.375 C94.70582031 79.44460937 95.59914063 79.51421875 96.51953125 79.5859375 C99 80 99 80 102 82 C101.67 82.99 101.34 83.98 101 85 C99.35 85 97.7 85 96 85 C96.33 85.763125 96.66 86.52625 97 87.3125 C98 90 98 90 98 93 C98.66 93 99.32 93 100 93 C100 94.65 100 96.3 100 98 C98.125 97.8125 98.125 97.8125 96 97 C95.5978125 95.9171875 95.5978125 95.9171875 95.1875 94.8125 C92.44905413 88.32670714 85.75114391 84.9524474 79.64453125 82.03515625 C75.53225679 80.42547718 71.3600716 79.62154212 67 79 C67 78.34 67 77.68 67 77 C59.74 77 52.48 77 45 77 C45 77.66 45 78.32 45 79 C44.17757812 79.14695312 43.35515625 79.29390625 42.5078125 79.4453125 C35.42487279 80.86844357 29.93263396 82.75235261 23.92578125 86.79296875 C22 88 22 88 20 88 C20 88.99 20 89.98 20 91 C20.804375 90.4225 21.60875 89.845 22.4375 89.25 C32.51835722 82.56933691 32.51835722 82.56933691 37.2734375 83.39453125 C37.84320313 83.59433594 38.41296875 83.79414063 39 84 C39 84.66 39 85.32 39 86 C36.03 86.99 36.03 86.99 33 88 C33 88.66 33 89.32 33 90 C33.67546875 89.6390625 34.3509375 89.278125 35.046875 88.90625 C36.38492188 88.21015625 36.38492188 88.21015625 37.75 87.5 C39.07257813 86.80390625 39.07257813 86.80390625 40.421875 86.09375 C43 85 43 85 47 85 C47 84.34 47 83.68 47 83 C50.3 83 53.6 83 57 83 C57 83.99 57 84.98 57 86 C54.36 86.66 51.72 87.32 49 88 C49.33 88.66 49.66 89.32 50 90 C50.66386719 89.68289062 51.32773437 89.36578125 52.01171875 89.0390625 C55.60924343 87.78815849 59.0439801 87.54809948 62.8125 87.375 C63.50537109 87.33632812 64.19824219 87.29765625 64.91210938 87.2578125 C66.60767015 87.16426432 68.30379712 87.08107636 70 87 C70 88.32 70 89.64 70 91 C66.04 92.32 62.08 93.64 58 95 C60.908125 94.505 60.908125 94.505 63.875 94 C69.64586966 93.10244963 75.17090755 92.763152 81 93 C81 94.32 81 95.64 81 97 C75.72 97.99 70.44 98.98 65 100 C66.918125 99.979375 68.83625 99.95875 70.8125 99.9375 C76.92944338 99.93079283 82.92426821 100.31815435 89 101 C89.33 101.99 89.66 102.98 90 104 C81.585 104.99 81.585 104.99 73 106 C77.94786327 106.82241588 77.94786327 106.82241588 82.90063477 107.61425781 C87.98929701 108.51435507 91.63964712 110.22679265 96 113 C96 113.66 96 114.32 96 115 C92.37 114.67 88.74 114.34 85 114 C86.051875 114.4125 87.10375 114.825 88.1875 115.25 C91.59890605 116.72389349 94.30818826 118.3873592 97 121 C97.33 122.32 97.66 123.64 98 125 C94.04 124.01 90.08 123.02 86 122 C87.155 122.78375 88.31 123.5675 89.5 124.375 C91.46875 125.7109375 91.46875 125.7109375 93 127 C93 127.66 93 128.32 93 129 C93.66 129 94.32 129 95 129 C97.29648649 131.5614657 98 132.47967572 98 136 C96.35 135.67 94.7 135.34 93 135 C93 134.34 93 133.68 93 133 C90.03 132.34 87.06 131.68 84 131 C84.99 131.66 85.98 132.32 87 133 C87 133.66 87 134.32 87 135 C87.556875 135.185625 88.11375 135.37125 88.6875 135.5625 C92.02200247 137.63529883 94.13233857 140.5631968 96 144 C96 144.99 96 145.98 96 147 C91.68607774 146.5206753 89.83430453 145.2542015 87 142 C87 142.33 87 142.66 87 143 C87 143.99 87 144.98 87 146 C87.66 146 88.32 146 89 146 C91.28571429 154.42857143 91.28571429 154.42857143 91 159 C89.1640625 158.78125 89.1640625 158.78125 87 158 C85.5859375 155.96875 85.5859375 155.96875 84.375 153.5 C82.86497402 150.09160458 82.86497402 150.09160458 80 148 C80.04125 149.03125 80.0825 150.0625 80.125 151.125 C80.00424851 154.86829627 79.35127982 157.53734547 78 161 C77.01 161 76.02 161 75 161 C74.82984375 159.865625 74.6596875 158.73125 74.484375 157.5625 C73.2435566 149.7083372 72.12316763 142.91628118 68 136 C67.62875 135.030625 67.2575 134.06125 66.875 133.0625 C66.18843441 130.8239113 66.18843441 130.8239113 64 130 C63.34686542 128.75362528 62.74987458 127.47737191 62.1875 126.1875 C60.36420231 122.39233962 58.47229521 120.45601369 55 118 C52.1875 115.375 52.1875 115.375 50 113 C50 112.34 50 111.68 50 111 C46.37802806 109.50859979 42.72433382 108.2125738 39 107 C39 106.34 39 105.68 39 105 C36.9377952 104.945652 34.87517184 104.90705039 32.8125 104.875 C31.66394531 104.85179687 30.51539063 104.82859375 29.33203125 104.8046875 C26.08259628 104.99515848 23.91339479 105.60639873 21 107 C22.65 107.33 24.3 107.66 26 108 C26 108.66 26 109.32 26 110 C30.29 110 34.58 110 39 110 C39.33 110.99 39.66 111.98 40 113 C39.67 113.33 39.34 113.66 39 114 C41.97 114.66 44.94 115.32 48 116 C48 116.66 48 117.32 48 118 C48.99 118 49.98 118 51 118 C51 118.99 51 119.98 51 121 C48.03 121 45.06 121 42 121 C44.97 121.495 44.97 121.495 48 122 C48 122.66 48 123.32 48 124 C48.928125 124.103125 49.85625 124.20625 50.8125 124.3125 C54.03254358 125.0070192 55.02579865 125.47740939 57 128 C56.67 128.66 56.34 129.32 56 130 C54.02 130 52.04 130 50 130 C52.64 130.99 55.28 131.98 58 133 C58 133.66 58 134.32 58 135 C59.65 135.66 61.3 136.32 63 137 C62.67 137.99 62.34 138.98 62 140 C61.34 140 60.68 140 60 140 C60 139.34 60 138.68 60 138 C59.34 138.33 58.68 138.66 58 139 C58.5053125 139.32613281 59.010625 139.65226563 59.53125 139.98828125 C60.1809375 140.42527344 60.830625 140.86226562 61.5 141.3125 C62.1496875 141.74175781 62.799375 142.17101562 63.46875 142.61328125 C64.22671875 143.29970703 64.22671875 143.29970703 65 144 C65 144.99 65 145.98 65 147 C63.35 147 61.7 147 60 147 C60.5775 147.226875 61.155 147.45375 61.75 147.6875 C64.62887527 149.36684391 66.17447619 151.22790829 68 154 C67.67 154.99 67.34 155.98 67 157 C63.04 155.02 63.04 155.02 59 153 C59.5775 153.721875 60.155 154.44375 60.75 155.1875 C61.4925 156.115625 62.235 157.04375 63 158 C63.7425 158.886875 64.485 159.77375 65.25 160.6875 C67 163 67 163 67 165 C65.35 164.67 63.7 164.34 62 164 C62.495 165.093125 62.99 166.18625 63.5 167.3125 C65 171 65 171 65 174 C65.66 174 66.32 174 67 174 C67 174.66 67 175.32 67 176 C62.16743695 175.58578031 60.17320782 173.53586014 57 170 C57.27714844 170.4846875 57.55429687 170.969375 57.83984375 171.46875 C60.51209285 176.4138373 61.59967438 180.39544133 62 186 C59.6875 185.875 59.6875 185.875 57 185 C55.1875 181.9375 55.1875 181.9375 54 179 C54.350625 180.175625 54.70125 181.35125 55.0625 182.5625 C56.41747307 187.95376609 55.48110689 192.71033253 54 198 C53.01 197.67 52.02 197.34 51 197 C50.26953125 194.93359375 50.26953125 194.93359375 49.8125 192.4375 C49.65394531 191.61121094 49.49539063 190.78492188 49.33203125 189.93359375 C49.22246094 189.29550781 49.11289062 188.65742188 49 188 C48.89042969 188.90363281 48.78085937 189.80726563 48.66796875 190.73828125 C48.50941406 191.91777344 48.35085938 193.09726562 48.1875 194.3125 C47.96126953 196.07013672 47.96126953 196.07013672 47.73046875 197.86328125 C47.00135005 200.99420274 46.50828536 202.09645193 44 204 C43.34 203.67 42.68 203.34 42 203 C42.020625 201.824375 42.04125 200.64875 42.0625 199.4375 C42.06947261 195.52586533 41.64250343 191.85502056 41 188 C40.67 188.99 40.34 189.98 40 191 C36.55555556 194 36.55555556 194 34 194 C34 194.66 34 195.32 34 196 C32.35 196.33 30.7 196.66 29 197 C29.433125 195.824375 29.86625 194.64875 30.3125 193.4375 C36.00348047 176.12065944 35.61212331 159.74844498 33 142 C32.34 142 31.68 142 31 142 C30.76925781 141.33613281 30.53851563 140.67226562 30.30078125 139.98828125 C27.83809006 133.32052051 25.4491597 129.06949582 19.1875 125.3125 C18.465625 124.879375 17.74375 124.44625 17 124 C17 123.34 17 122.68 17 122 C14.69 121.67 12.38 121.34 10 121 C10.495 122.36125 10.495 122.36125 11 123.75 C12 127 12 127 12 131 C11.34 131.33 10.68 131.66 10 132 C10.33 132.86625 10.66 133.7325 11 134.625 C11.99870439 137.99562732 12.15160429 140.5131013 12 144 C12 147.16227399 12.17014788 150.11640488 12.5 153.25 C12.5928125 154.14203125 12.685625 155.0340625 12.78125 155.953125 C12.88953125 156.96632812 12.88953125 156.96632812 13 158 C12.34 158.33 11.68 158.66 11 159 C11.15597656 159.60328125 11.31195313 160.2065625 11.47265625 160.828125 C11.66730469 161.62734375 11.86195313 162.4265625 12.0625 163.25 C12.25972656 164.03890625 12.45695312 164.8278125 12.66015625 165.640625 C13.01945906 168.1350951 12.62639195 169.59800881 12 172 C12.33 173.051875 12.66 174.10375 13 175.1875 C14.05443599 179.20753721 13.82060891 181.58287361 13.22265625 185.58984375 C12.90042273 189.07788024 13.36086217 192.37889961 13.84375 195.8359375 C14 198 14 198 13 201 C13.33 201.99 13.66 202.98 14 204 C14.015731 205.77512885 13.96706687 207.55121069 13.87890625 209.32421875 C13.83580322 210.25065186 13.7927002 211.17708496 13.74829102 212.1315918 C13.68697998 213.3050415 13.62566895 214.47849121 13.5625 215.6875 C13.2840625 221.2871875 13.2840625 221.2871875 13 227 C5.41 227 -2.18 227 -10 227 C-10.33 221.39 -10.66 215.78 -11 210 C-11.66 210 -12.32 210 -13 210 C-13 209.34 -13 208.68 -13 208 C-12.34 208 -11.68 208 -11 208 C-10.80587819 206.52168779 -10.61987869 205.04230684 -10.4375 203.5625 C-10.33308594 202.73878906 -10.22867188 201.91507813 -10.12109375 201.06640625 C-10.08113281 200.38449219 -10.04117188 199.70257813 -10 199 C-10.33 198.67 -10.66 198.34 -11 198 C-10.93579251 196.37146465 -10.7987936 194.74550788 -10.625 193.125 C-10.53476563 192.24070312 -10.44453125 191.35640625 -10.3515625 190.4453125 C-10 188 -10 188 -9 185 C-9.66 185 -10.32 185 -11 185 C-10.85769192 183.58297487 -10.71099254 182.1663904 -10.5625 180.75 C-10.44068359 179.56664062 -10.44068359 179.56664062 -10.31640625 178.359375 C-10.02365007 176.17635361 -9.57935581 174.1226818 -9 172 C-9.66 171.67 -10.32 171.34 -11 171 C-10.01 166.71 -9.02 162.42 -8 158 C-8.66 158 -9.32 158 -10 158 C-9.85769192 156.58297487 -9.71099254 155.1663904 -9.5625 153.75 C-9.44068359 152.56664062 -9.44068359 152.56664062 -9.31640625 151.359375 C-9 149 -9 149 -8.40234375 146.765625 C-8.26957031 146.18296875 -8.13679688 145.6003125 -8 145 C-8.33 144.67 -8.66 144.34 -9 144 C-8.81779052 140.94799113 -8.47858223 137.92299148 -8.15625 134.8828125 C-7.8193151 131.93020788 -7.8193151 131.93020788 -9 129 C-8.83988879 126.29876894 -8.39559392 123.68124769 -8 121 C-9.98 121.33 -11.96 121.66 -14 122 C-14 122.66 -14 123.32 -14 124 C-15.98600337 125.3540932 -17.98817543 126.68457624 -20 128 C-28.36932272 134.59401184 -30.45156094 145.92877341 -31.77734375 155.9375 C-33.12784701 168.44742495 -32.5820562 181.92799893 -26.8046875 193.29296875 C-26 195 -26 195 -26 197 C-27.65 196.67 -29.3 196.34 -31 196 C-31 195.34 -31 194.68 -31 194 C-31.61875 193.690625 -32.2375 193.38125 -32.875 193.0625 C-34.25 192.375 -35.625 191.6875 -37 191 C-37.33 190.01 -37.66 189.02 -38 188 C-38.13277344 188.68707031 -38.26554687 189.37414062 -38.40234375 190.08203125 C-38.57894531 190.98308594 -38.75554687 191.88414062 -38.9375 192.8125 C-39.11152344 193.70582031 -39.28554687 194.59914063 -39.46484375 195.51953125 C-40 198 -40 198 -41 201 C-40.34 201.33 -39.68 201.66 -39 202 C-39.33 202.66 -39.66 203.32 -40 204 C-41.890625 203.3515625 -41.890625 203.3515625 -44 202 C-45.046875 199.3984375 -45.046875 199.3984375 -45.75 196.375 C-45.99234375 195.37210938 -46.2346875 194.36921875 -46.484375 193.3359375 C-46.65453125 192.56507813 -46.8246875 191.79421875 -47 191 C-47.33 193.31 -47.66 195.62 -48 198 C-49.32 198 -50.64 198 -52 198 C-52.33 192.72 -52.66 187.44 -53 182 C-53.66 183.32 -54.32 184.64 -55 186 C-55.99 186 -56.98 186 -58 186 C-58.57374185 179.11509775 -57.4753869 174.97332123 -54 169 C-54.38671875 169.5053125 -54.7734375 170.010625 -55.171875 170.53125 C-55.69265625 171.1809375 -56.2134375 171.830625 -56.75 172.5 C-57.51570313 173.47453125 -57.51570313 173.47453125 -58.296875 174.46875 C-60 176 -60 176 -64 176 C-62.68938409 171.76570244 -61.05643741 167.92592596 -59 164 C-60.65 164.33 -62.3 164.66 -64 165 C-62.5140084 160.40693504 -60.14985318 157.56430755 -57 154 C-57.61875 154.165 -58.2375 154.33 -58.875 154.5 C-61 155 -61 155 -63 155 C-63.33 155.66 -63.66 156.32 -64 157 C-64.33 156.01 -64.66 155.02 -65 154 C-62.77407001 150.61988409 -60.78717347 148.48781815 -57 147 C-58.98 147 -60.96 147 -63 147 C-61.49776416 142.79373966 -58.71449966 141.26099979 -55 139 C-55.66 138.67 -56.32 138.34 -57 138 C-57 138.66 -57 139.32 -57 140 C-57.99 139.67 -58.98 139.34 -60 139 C-59.67 138.01 -59.34 137.02 -59 136 C-56.9375 135.3125 -56.9375 135.3125 -55 135 C-55 134.34 -55 133.68 -55 133 C-52.36 132.01 -49.72 131.02 -47 130 C-48.98 130 -50.96 130 -53 130 C-53.33 129.34 -53.66 128.68 -54 128 C-50.02030349 123.35702073 -44.92655567 121.70554234 -39 121 C-41.97 121 -44.94 121 -48 121 C-48 120.01 -48 119.02 -48 118 C-47.01 118 -46.02 118 -45 118 C-45 117.34 -45 116.68 -45 116 C-40.545 115.01 -40.545 115.01 -36 114 C-36.33 113.34 -36.66 112.68 -37 112 C-36.67 111.34 -36.34 110.68 -36 110 C-33.27734375 109.5859375 -33.27734375 109.5859375 -29.9375 109.375 C-28.28041016 109.26285156 -28.28041016 109.26285156 -26.58984375 109.1484375 C-25.73519531 109.09945312 -24.88054687 109.05046875 -24 109 C-24 108.67 -24 108.34 -24 108 C-22.35 107.67 -20.7 107.34 -19 107 C-19 106.34 -19 105.68 -19 105 C-24.61 105 -30.22 105 -36 105 C-36 105.66 -36 106.32 -36 107 C-37.4562545 107.67119549 -38.91507867 108.33681807 -40.375 109 C-41.18710938 109.37125 -41.99921875 109.7425 -42.8359375 110.125 C-45 111 -45 111 -47 111 C-47 111.66 -47 112.32 -47 113 C-48.12525155 114.02649277 -49.30282645 114.99587696 -50.5 115.9375 C-58.48713464 122.76338457 -63.72492721 131.06704897 -67 141 C-67.66 141 -68.32 141 -69 141 C-70.14231412 147.65425699 -71.22602467 154.29221378 -72 161 C-73.32 161 -74.64 161 -76 161 C-76.33 156.71 -76.66 152.42 -77 148 C-79.91864355 150.91864355 -82.13746192 153.89857867 -84.5 157.2578125 C-86 159 -86 159 -89 160 C-88.54851905 157.748615 -88.08855496 155.49893002 -87.625 153.25 C-87.36976563 151.99703125 -87.11453125 150.7440625 -86.8515625 149.453125 C-86.1569875 146.63659152 -85.44319917 144.48481248 -84 142 C-84.928125 142.825 -85.85625 143.65 -86.8125 144.5 C-89.625 147 -89.625 147 -93 147 C-92.125 142.25 -92.125 142.25 -91 140 C-90.34 140 -89.68 140 -89 140 C-88.731875 139.360625 -88.46375 138.72125 -88.1875 138.0625 C-87 136 -87 136 -84 135 C-83.67 134.01 -83.34 133.02 -83 132 C-82.34 131.67 -81.68 131.34 -81 131 C-84.02419525 131.58803797 -87.01758453 132.22678118 -90 133 C-90 133.66 -90 134.32 -90 135 C-91.65 135.33 -93.3 135.66 -95 136 C-94.51003103 131.75360227 -91.93618325 128.90511253 -89 126 C-87.05696912 124.51307966 -85.09921002 123.26928978 -83 122 C-84.051875 122.309375 -85.10375 122.61875 -86.1875 122.9375 C-89.12752396 123.75685094 -92.00161623 124.45483931 -95 125 C-94.621318 122.35496358 -94.21636083 121.20714367 -92.2578125 119.33203125 C-91.55398437 118.83058594 -90.85015625 118.32914062 -90.125 117.8125 C-89.42632812 117.30332031 -88.72765625 116.79414063 -88.0078125 116.26953125 C-86 115 -86 115 -83 114 C-87.95 114.495 -87.95 114.495 -93 115 C-91 111 -91 111 -88.2421875 109.76953125 C-87.13101563 109.45371094 -86.01984375 109.13789063 -84.875 108.8125 C-83.77929688 108.48894531 -82.68359375 108.16539062 -81.5546875 107.83203125 C-77.75764036 106.94327187 -73.8695606 106.48369508 -70 106 C-75.61 105.34 -81.22 104.68 -87 104 C-86.67 103.01 -86.34 102.02 -86 101 C-83.50018262 100.8301095 -81.00020399 100.66402047 -78.5 100.5 C-77.45585937 100.42845703 -77.45585937 100.42845703 -76.390625 100.35546875 C-75.34648437 100.28779297 -75.34648437 100.28779297 -74.28125 100.21875 C-73.65283203 100.17685547 -73.02441406 100.13496094 -72.37695312 100.09179688 C-68.92041011 99.95830672 -65.45911972 100 -62 100 C-67.28 99.01 -72.56 98.02 -78 97 C-78 95.68 -78 94.36 -78 93 C-71.24578549 92.87066398 -64.71262821 93.23284249 -58 94 C-60.97 93.01 -63.94 92.02 -67 91 C-67 89.68 -67 88.36 -67 87 C-64.62412376 87.11486425 -62.24984829 87.24158156 -59.875 87.375 C-59.20984375 87.4059375 -58.5446875 87.436875 -57.859375 87.46875 C-53.60178738 87.71919633 -49.97914217 88.47528197 -46 90 C-46 89.34 -46 88.68 -46 88 C-48.64 87.34 -51.28 86.68 -54 86 C-54 85.01 -54 84.02 -54 83 C-50.7 83 -47.4 83 -44 83 C-44 83.66 -44 84.32 -44 85 C-43.13375 85.103125 -42.2675 85.20625 -41.375 85.3125 C-37.81835341 86.03700208 -35.17341692 87.26904532 -32 89 C-31.34 89.33 -30.68 89.66 -30 90 C-30 89.34 -30 88.68 -30 88 C-31.98 87.34 -33.96 86.68 -36 86 C-35.505 84.515 -35.505 84.515 -35 83 C-34.01 83 -33.02 83 -32 83 C-32 83.66 -32 84.32 -32 85 C-31.13375 85.103125 -30.2675 85.20625 -29.375 85.3125 C-25.81835341 86.03700208 -23.17341692 87.26904532 -20 89 C-19.34 89.33 -18.68 89.66 -18 90 C-20.36292656 87.47411298 -21.66462511 86.11179163 -25 85 C-25 84.34 -25 83.68 -25 83 C-26.21558594 82.72285156 -27.43117188 82.44570312 -28.68359375 82.16015625 C-30.26827307 81.79446102 -31.85290612 81.42856525 -33.4375 81.0625 C-34.64116211 80.78889648 -34.64116211 80.78889648 -35.86914062 80.50976562 C-41.88671875 79.11328125 -41.88671875 79.11328125 -43 78 C-44.55948542 77.84313751 -46.12542668 77.74923361 -47.69140625 77.68359375 C-48.63564453 77.64169922 -49.57988281 77.59980469 -50.55273438 77.55664062 C-51.54595703 77.51732422 -52.53917969 77.47800781 -53.5625 77.4375 C-55.05813477 77.37272461 -55.05813477 77.37272461 -56.58398438 77.30664062 C-59.0558415 77.20019702 -61.5278031 77.09818072 -64 77 C-64 77.66 -64 78.32 -64 79 C-65.07378906 79.23074219 -66.14757812 79.46148437 -67.25390625 79.69921875 C-78.10540204 82.14121909 -85.1537253 84.73739305 -92 94 C-92.33 94.99 -92.66 95.98 -93 97 C-95.0625 97.6875 -95.0625 97.6875 -97 98 C-97.63934602 92.88523181 -95.40533547 89.32745622 -93 85 C-94.65 85 -96.3 85 -98 85 C-98.33 83.68 -98.66 82.36 -99 81 C-94.46298506 79.54815522 -90.81938524 78.76490804 -86 79 C-86 78.34 -86 77.68 -86 77 C-88.64 76.34 -91.28 75.68 -94 75 C-94 73.68 -94 72.36 -94 71 C-92.58344207 70.9727585 -91.16672955 70.95349533 -89.75 70.9375 C-88.96109375 70.92589844 -88.1721875 70.91429687 -87.359375 70.90234375 C-85.09308998 70.99614694 -83.1711105 71.36758937 -81 72 C-81 72.66 -81 73.32 -81 74 C-80.01 73.505 -80.01 73.505 -79 73 C-79.83144531 72.54560547 -79.83144531 72.54560547 -80.6796875 72.08203125 C-81.40414062 71.66308594 -82.12859375 71.24414062 -82.875 70.8125 C-83.59429687 70.40644531 -84.31359375 70.00039062 -85.0546875 69.58203125 C-87.43985367 67.64228768 -88.07660992 65.89166895 -89 63 C-87.06201479 63.30947671 -85.12462574 63.62268834 -83.1875 63.9375 C-82.10855469 64.11152344 -81.02960938 64.28554687 -79.91796875 64.46484375 C-77 65 -77 65 -74 66 C-74.66 65.34 -75.32 64.68 -76 64 C-76.45375 63.505 -76.9075 63.01 -77.375 62.5 C-79.13077164 60.87928772 -80.82917901 59.97312665 -83 59 C-83 58.34 -83 57.68 -83 57 C-77.01488629 57.34302035 -72.24882694 57.82307843 -67 61 C-67 61.66 -67 62.32 -67 63 C-66.34 63 -65.68 63 -65 63 C-66.66350659 59.76540385 -68.36682156 57.55303891 -71.1875 55.3125 C-72.115625 54.549375 -73.04375 53.78625 -74 53 C-74 52.34 -74 51.68 -74 51 C-68.53386936 51.43729045 -65.38541983 52.73643175 -61 56 C-60.01 56.495 -60.01 56.495 -59 57 C-59.33 55.35 -59.66 53.7 -60 52 C-60.99 51.67 -61.98 51.34 -63 51 C-63 50.01 -63 49.02 -63 48 C-58.3914291 48.11240417 -56.27090202 49.38456232 -53.125 52.5625 C-52.07067568 53.69669738 -51.02465367 54.83892794 -50 56 C-50 54.02 -50 52.04 -50 50 C-50.66 50 -51.32 50 -52 50 C-52 49.01 -52 48.02 -52 47 C-47.7135704 47.47626996 -45.77895881 49.87367133 -43 53 C-41.57899744 54.95905207 -40.28839299 56.94811487 -39 59 C-39 57.68 -39 56.36 -39 55 C-39.66 55 -40.32 55 -41 55 C-41.66 52.69 -42.32 50.38 -43 48 C-39.32579134 48.30618405 -38.21864487 48.75771784 -35.6875 51.5625 C-34.8521875 52.7690625 -34.8521875 52.7690625 -34 54 C-33.01 53.01 -33.01 53.01 -32 52 C-26.78539349 55.33155416 -25.12984211 59.43147425 -23 65 C-22.01 63.515 -22.01 63.515 -21 62 C-21.3609375 61.37351563 -21.721875 60.74703125 -22.09375 60.1015625 C-22.78984375 58.87566406 -22.78984375 58.87566406 -23.5 57.625 C-24.19609375 56.40683594 -24.19609375 56.40683594 -24.90625 55.1640625 C-26 53 -26 53 -26 51 C-25.01 51 -24.02 51 -23 51 C-23.27714844 50.50371094 -23.55429688 50.00742188 -23.83984375 49.49609375 C-26.28687676 44.90681832 -27.56796643 41.18440279 -28 36 C-25.53199953 37.15173355 -23.95216435 38.04783565 -22 40 C-22 39.01 -22 38.02 -22 37 C-22.66 37 -23.32 37 -24 37 C-25.29243536 32.8803623 -26.26252625 29.33168317 -26 25 C-24.1875 25.125 -24.1875 25.125 -22 26 C-20.25 29.0625 -20.25 29.0625 -19 32 C-19.495 30.515 -19.495 30.515 -20 29 C-20.22179785 27.10787263 -20.40614015 25.21115528 -20.5625 23.3125 C-20.64628906 22.31863281 -20.73007813 21.32476562 -20.81640625 20.30078125 C-20.87699219 19.54152344 -20.93757813 18.78226563 -21 18 C-17.26360784 19.24546405 -16.81243487 20.63404953 -15 24 C-15.16371094 23.45859375 -15.32742187 22.9171875 -15.49609375 22.359375 C-16.08590587 19.59777407 -16.09609308 17.07181861 -16.0625 14.25 C-16.05347656 13.26515625 -16.04445313 12.2803125 -16.03515625 11.265625 C-16.02355469 10.51796875 -16.01195312 9.7703125 -16 9 C-15.01 9 -14.02 9 -13 9 C-13 10.98 -13 12.96 -13 15 C-12.34 15 -11.68 15 -11 15 C-10.505 15.495 -10.505 15.495 -10 16 C-10 12.04 -10 8.08 -10 4 C-9.01 4 -8.02 4 -7 4 C-6.01 6.475 -6.01 6.475 -5 9 C-4.01 6.69 -3.02 4.38 -2 2 C-1.34 2 -0.68 2 0 2 C0 1.34 0 0.68 0 0 Z M15 27 C16 29 16 29 16 29 Z M-21 53 C-20 55 -20 55 -20 55 Z M23 53 C24 55 24 55 24 55 Z M-33 55 C-32 57 -32 57 -32 57 Z M-20 55 C-20 55.66 -20 56.32 -20 57 C-19.34 56.67 -18.68 56.34 -18 56 C-18.66 55.67 -19.32 55.34 -20 55 Z M21 55 C21.33 55.66 21.66 56.32 22 57 C22.33 56.34 22.66 55.68 23 55 C22.34 55 21.68 55 21 55 Z M35 55 C36 57 36 57 36 57 Z M-49 57 C-48 59 -48 59 -48 59 Z M51 57 C52 59 52 59 52 59 Z M41 59 C42 62 42 62 42 62 Z M59 59 C59.33 59.99 59.66 60.98 60 62 C60.33 61.01 60.66 60.02 61 59 C60.34 59 59.68 59 59 59 Z M-57 60 C-56 62 -56 62 -56 62 Z M21 64 C22 66 22 66 22 66 Z M-18 66 C-17 68 -17 68 -17 68 Z M-15 70 C-14.34 71.98 -13.68 73.96 -13 76 C-12.34 76 -11.68 76 -11 76 C-10.67 76.99 -10.34 77.98 -10 79 C-9.67 77.68 -9.34 76.36 -9 75 C-10.98 73.35 -12.96 71.7 -15 70 Z M17 70 C14.35426499 72.22877725 14.35426499 72.22877725 12 75 C12.33 76.32 12.66 77.64 13 79 C14.65 76.69 16.3 74.38 18 72 C17.67 71.34 17.34 70.68 17 70 Z M60 162 C60 162.66 60 163.32 60 164 C60.66 163.67 61.32 163.34 62 163 C61.34 162.67 60.68 162.34 60 162 Z M-53 166 C-52.67 166.66 -52.34 167.32 -52 168 C-51.67 167.34 -51.34 166.68 -51 166 C-51.66 166 -52.32 166 -53 166 Z M54 166 C54 166.66 54 167.32 54 168 C54.66 168 55.32 168 56 168 C56 167.34 56 166.68 56 166 C55.34 166 54.68 166 54 166 Z M-51 177 C-50 179 -50 179 -50 179 Z " fill="#039341" transform="translate(225,64)"/>
<path d="M0 0 C1.1446875 -0.01933594 2.289375 -0.03867188 3.46875 -0.05859375 C6.5 0.4375 6.5 0.4375 8.36328125 2.16796875 C9.59555574 4.62828311 9.98643888 6.45306881 10.1875 9.1875 C10.28611328 10.38632813 10.28611328 10.38632813 10.38671875 11.609375 C10.42410156 12.21265625 10.46148437 12.8159375 10.5 13.4375 C9.51 13.9325 9.51 13.9325 8.5 14.4375 C8.83 15.30375 9.16 16.17 9.5 17.0625 C10.49870439 20.43312732 10.65160429 22.9506013 10.5 26.4375 C10.5 29.59977399 10.67014788 32.55390488 11 35.6875 C11.13921875 37.02554688 11.13921875 37.02554688 11.28125 38.390625 C11.3534375 39.06609375 11.425625 39.7415625 11.5 40.4375 C10.51 40.9325 10.51 40.9325 9.5 41.4375 C9.65597656 42.04078125 9.81195313 42.6440625 9.97265625 43.265625 C10.26462891 44.46445313 10.26462891 44.46445313 10.5625 45.6875 C10.75972656 46.47640625 10.95695312 47.2653125 11.16015625 48.078125 C11.51945906 50.5725951 11.12639195 52.03550881 10.5 54.4375 C10.83 55.489375 11.16 56.54125 11.5 57.625 C12.55443599 61.64503721 12.32060891 64.02037361 11.72265625 68.02734375 C11.40042273 71.51538024 11.86086217 74.81639961 12.34375 78.2734375 C12.5 80.4375 12.5 80.4375 11.5 83.4375 C11.83 84.4275 12.16 85.4175 12.5 86.4375 C12.515731 88.21262885 12.46706687 89.98871069 12.37890625 91.76171875 C12.33580322 92.68815186 12.2927002 93.61458496 12.24829102 94.5690918 C12.18697998 95.7425415 12.12566895 96.91599121 12.0625 98.125 C11.876875 101.858125 11.69125 105.59125 11.5 109.4375 C3.91 109.4375 -3.68 109.4375 -11.5 109.4375 C-11.83 103.8275 -12.16 98.2175 -12.5 92.4375 C-13.16 92.4375 -13.82 92.4375 -14.5 92.4375 C-14.5 91.7775 -14.5 91.1175 -14.5 90.4375 C-13.84 90.4375 -13.18 90.4375 -12.5 90.4375 C-12.30587819 88.95918779 -12.11987869 87.47980684 -11.9375 86 C-11.83308594 85.17628906 -11.72867188 84.35257812 -11.62109375 83.50390625 C-11.58113281 82.82199219 -11.54117188 82.14007813 -11.5 81.4375 C-11.83 81.1075 -12.16 80.7775 -12.5 80.4375 C-12.43579251 78.80896465 -12.2987936 77.18300788 -12.125 75.5625 C-12.03476563 74.67820312 -11.94453125 73.79390625 -11.8515625 72.8828125 C-11.5 70.4375 -11.5 70.4375 -10.5 67.4375 C-11.16 67.4375 -11.82 67.4375 -12.5 67.4375 C-12.35769192 66.02047487 -12.21099254 64.6038904 -12.0625 63.1875 C-11.98128906 62.39859375 -11.90007812 61.6096875 -11.81640625 60.796875 C-11.52365007 58.61385361 -11.07935581 56.5601818 -10.5 54.4375 C-11.16 54.1075 -11.82 53.7775 -12.5 53.4375 C-11.51 49.1475 -10.52 44.8575 -9.5 40.4375 C-10.16 40.4375 -10.82 40.4375 -11.5 40.4375 C-11.35769192 39.02047487 -11.21099254 37.6038904 -11.0625 36.1875 C-10.98128906 35.39859375 -10.90007812 34.6096875 -10.81640625 33.796875 C-10.5 31.4375 -10.5 31.4375 -9.90234375 29.203125 C-9.70318359 28.32914063 -9.70318359 28.32914063 -9.5 27.4375 C-9.83 27.1075 -10.16 26.7775 -10.5 26.4375 C-10.31779052 23.38549113 -9.97858223 20.36049148 -9.65625 17.3203125 C-9.3193151 14.36770788 -9.3193151 14.36770788 -10.5 11.4375 C-10.484375 9.5 -10.484375 9.5 -10.25 7.4375 C-10.14945313 6.4165625 -10.14945313 6.4165625 -10.046875 5.375 C-8.54095641 0.03974558 -5.04267836 0.00567869 0 0 Z " fill="#BF9F62" transform="translate(226.5,181.5625)"/>
<path d="M0 0 C0.68642578 -0.020625 1.37285156 -0.04125 2.08007812 -0.0625 C10.31899851 -0.12485701 17.00307741 3.38204634 23.046875 8.96875 C28.34306766 14.4837936 30.06697783 19.15592958 30.24609375 26.7265625 C29.96458702 32.59279951 28.17783724 36.31473756 25.15234375 41.26953125 C23.92126982 43.33866273 23.92126982 43.33866273 24.5625 46.25 C26.0660117 48.47844995 26.0660117 48.47844995 28.8125 49.0625 C29.988125 49.1553125 29.988125 49.1553125 31.1875 49.25 C31.1875 50.57 31.1875 51.89 31.1875 53.25 C28.0603895 55.99575556 25.79065683 57.14229342 21.6875 57.875 C16.81229387 57.00442748 15.36304965 54.96771666 12.1875 51.25 C11.6821875 51.5696875 11.176875 51.889375 10.65625 52.21875 C4.13052059 54.9446876 -4.68419234 54.22890251 -11.3203125 52.15234375 C-20.64780331 47.76912438 -25.63978842 42.30684128 -29.12109375 32.6640625 C-30.97979186 26.17437079 -29.47519736 21.17389092 -26.8125 15.25 C-26.51601562 14.57582031 -26.21953125 13.90164063 -25.9140625 13.20703125 C-23.36171003 8.67253272 -19.11593597 5.77137439 -14.375 3.875 C-13.529375 3.66875 -12.68375 3.4625 -11.8125 3.25 C-11.8125 2.59 -11.8125 1.93 -11.8125 1.25 C-7.93393534 0.00725577 -4.0315351 0.0297805 0 0 Z M-5.4375 11.25 C-6.25476563 11.435625 -7.07203125 11.62125 -7.9140625 11.8125 C-8.54054688 11.956875 -9.16703125 12.10125 -9.8125 12.25 C-9.8125 12.91 -9.8125 13.57 -9.8125 14.25 C-10.43125 14.4975 -11.05 14.745 -11.6875 15 C-14.28533706 16.52813945 -14.72839409 17.46365762 -15.8125 20.25 C-16.44227827 25.50791623 -16.97827147 31.26495527 -14 35.875 C-11.8531553 38.39349589 -11.8531553 38.39349589 -8.8125 40.25 C-7.4925 40.25 -6.1725 40.25 -4.8125 40.25 C-4.8125 40.91 -4.8125 41.57 -4.8125 42.25 C-1.5125 42.25 1.7875 42.25 5.1875 42.25 C5.1875 41.59 5.1875 40.93 5.1875 40.25 C2.5475 38.93 -0.0925 37.61 -2.8125 36.25 C-2.8125 35.26 -2.8125 34.27 -2.8125 33.25 C-1.0834226 33.22274659 0.64578176 33.20349013 2.375 33.1875 C3.33792969 33.17589844 4.30085938 33.16429687 5.29296875 33.15234375 C8.07074644 33.24606095 10.51299165 33.49467704 13.1875 34.25 C13.5175 34.91 13.8475 35.57 14.1875 36.25 C14.1875 35.59 14.1875 34.93 14.1875 34.25 C14.8475 34.25 15.5075 34.25 16.1875 34.25 C17.48508261 31.65483479 17.32019102 29.70816973 17.3125 26.8125 C17.31507813 25.84441406 17.31765625 24.87632812 17.3203125 23.87890625 C17.29963973 21.13982171 17.29963973 21.13982171 16.1875 18.25 C15.5275 18.25 14.8675 18.25 14.1875 18.25 C13.5275 16.93 12.8675 15.61 12.1875 14.25 C11.5275 14.25 10.8675 14.25 10.1875 14.25 C10.1875 13.59 10.1875 12.93 10.1875 12.25 C8.7297647 11.914061 7.27128894 11.58133376 5.8125 11.25 C5.00039062 11.064375 4.18828125 10.87875 3.3515625 10.6875 C0.12003579 10.03419496 -2.25045477 10.52153252 -5.4375 11.25 Z " fill="#C0A063" transform="translate(130.8125,356.75)"/>
<path d="M0 0 C6.6 0 13.2 0 20 0 C19.67 1.32 19.34 2.64 19 4 C19.845625 4.66 20.69125 5.32 21.5625 6 C24.7366157 8.64139698 27.32414675 11.59765032 29.9921875 14.73828125 C33.14756482 18.29268489 36.5605134 21.58019887 39.9609375 24.8984375 C42 27 42 27 43 29 C43.33 20.42 43.66 11.84 44 3 C43.34 3 42.68 3 42 3 C42 2.01 42 1.02 42 0 C47.28 0 52.56 0 58 0 C58 0.99 58 1.98 58 3 C57.34 3 56.68 3 56 3 C56 17.52 56 32.04 56 47 C56.66 47 57.32 47 58 47 C58 48.32 58 49.64 58 51 C51.73 51 45.46 51 39 51 C39.33 49.35 39.66 47.7 40 46 C36.98510997 41.52629221 33.13656427 38.337292 29.05078125 34.859375 C26.36928675 32.42815332 24.05733636 29.76584647 21.73828125 26.9921875 C19.61018449 24.55324515 17.2888027 22.2888027 15 20 C14.67 28.91 14.34 37.82 14 47 C14.66 47 15.32 47 16 47 C16 48.32 16 49.64 16 51 C10.72 51 5.44 51 0 51 C0 49.68 0 48.36 0 47 C0.99 47 1.98 47 3 47 C3 32.48 3 17.96 3 3 C2.01 3 1.02 3 0 3 C0 2.01 0 1.02 0 0 Z " fill="#C0A062" transform="translate(145,299)"/>
<path d="M0 0 C5.65674349 -0.00536329 11.31144731 0.02865329 16.96777344 0.09765625 C18.8879505 0.11571636 20.80825644 0.12340305 22.72851562 0.12011719 C41.93010468 0.10015712 41.93010468 0.10015712 49.35986328 5.32763672 C52.53412532 8.5642689 53.29189206 11.47931495 53.3125 15.9375 C53.18815495 20.18388352 52.96236667 22.76832726 50 26 C47.08847865 28.15266738 44.0903235 30.11470831 41 32 C41.66 32.78375 42.32 33.5675 43 34.375 C45 37 45 37 45 39 C45.66 39 46.32 39 47 39 C49.17204 41.96187272 50.83561997 44.50685991 52 48 C54.01508358 48.73323796 54.01508358 48.73323796 56 49 C55.67 50.32 55.34 51.64 55 53 C48.73 53 42.46 53 36 53 C36.33 51.35 36.66 49.7 37 48 C35.67391574 45.19035647 35.67391574 45.19035647 33.6875 42.5 C31.2071536 38.91783644 29.65008355 36.12520888 28 32 C23.71 32 19.42 32 15 32 C15 37.61 15 43.22 15 49 C15.99 49 16.98 49 18 49 C17.67 50.32 17.34 51.64 17 53 C11.39 53 5.78 53 0 53 C0 51.68 0 50.36 0 49 C0.66 49 1.32 49 2 49 C2 34.15 2 19.3 2 4 C1.01 3.67 0.02 3.34 -1 3 C-0.67 2.01 -0.34 1.02 0 0 Z M15 11 C15 14.96 15 18.92 15 23 C23.6274658 23.20705918 31.59628191 23.21462689 40 21 C40.68493373 18.14221967 40.68493373 18.14221967 41 15 C39.38276224 11.93955019 39.38276224 11.93955019 37.17285156 11.31860352 C34.82581124 10.97445884 32.60673587 10.88713631 30.234375 10.90234375 C29.34492188 10.90556641 28.45546875 10.90878906 27.5390625 10.91210938 C26.61867188 10.92048828 25.69828125 10.92886719 24.75 10.9375 C23.34621094 10.94426758 23.34621094 10.94426758 21.9140625 10.95117188 C19.60934753 10.96293062 17.30466554 10.98086532 15 11 Z " fill="#C0A063" transform="translate(296,357)"/>
<path d="M0 0 C6.6 0 13.2 0 20 0 C19.67 1.32 19.34 2.64 19 4 C20.23459607 6.06372567 20.23459607 6.06372567 22.125 7.9375 C22.7746875 8.63359375 23.424375 9.3296875 24.09375 10.046875 C26.37686529 12.38613247 28.65787794 14.71951273 31 17 C31.825 17.845625 32.65 18.69125 33.5 19.5625 C35.95236998 22.03769108 35.95236998 22.03769108 38.6875 24.125 C41 26 41 26 43 29 C43.33 20.42 43.66 11.84 44 3 C43.34 3 42.68 3 42 3 C42 2.01 42 1.02 42 0 C46.95 0 51.9 0 57 0 C57 0.99 57 1.98 57 3 C56.34 3 55.68 3 55 3 C55 17.52 55 32.04 55 47 C55.66 47 56.32 47 57 47 C57 48.32 57 49.64 57 51 C51.06 51 45.12 51 39 51 C39.33 49.35 39.66 47.7 40 46 C37.87640616 43.37500791 37.87640616 43.37500791 35 41 C31.66666667 37.66666667 28.33333333 34.33333333 25 31 C24.071875 30.113125 23.14375 29.22625 22.1875 28.3125 C20 26 20 26 20 24 C19.360625 23.690625 18.72125 23.38125 18.0625 23.0625 C16 22 16 22 15 21 C14.67 29.58 14.34 38.16 14 47 C14.66 47 15.32 47 16 47 C16 48.32 16 49.64 16 51 C10.72 51 5.44 51 0 51 C0 49.68 0 48.36 0 47 C0.99 47 1.98 47 3 47 C2.67 32.81 2.34 18.62 2 4 C1.34 3.67 0.68 3.34 0 3 C0 2.01 0 1.02 0 0 Z " fill="#C0A062" transform="translate(373,299)"/>
<path d="M0 0 C0.99 0 1.98 0 3 0 C3 4.95 3 9.9 3 15 C1.68 15 0.36 15 -1 15 C-1.66 14.34 -2.32 13.68 -3 13 C-5.91487922 12.72123233 -5.91487922 12.72123233 -9.3203125 12.8046875 C-10.57714844 12.81113281 -11.83398438 12.81757813 -13.12890625 12.82421875 C-15.10697266 12.84935547 -15.10697266 12.84935547 -17.125 12.875 C-18.46483721 12.88503017 -19.80468152 12.89415596 -21.14453125 12.90234375 C-24.42986573 12.92597925 -27.71484465 12.95892766 -31 13 C-31.33 15.64 -31.66 18.28 -32 21 C-25.4 21.33 -18.8 21.66 -12 22 C-11.505 20.515 -11.505 20.515 -11 19 C-10.01 19 -9.02 19 -8 19 C-8 23.95 -8 28.9 -8 34 C-9.32 33.67 -10.64 33.34 -12 33 C-13.58567839 32.8578299 -15.17518632 32.75495959 -16.765625 32.68359375 C-17.65507812 32.64169922 -18.54453125 32.59980469 -19.4609375 32.55664062 C-20.84152344 32.49766602 -20.84152344 32.49766602 -22.25 32.4375 C-23.18585938 32.39431641 -24.12171875 32.35113281 -25.0859375 32.30664062 C-27.39046222 32.20082061 -29.69521239 32.09993083 -32 32 C-32 35.63 -32 39.26 -32 43 C-21.77 43 -11.54 43 -1 43 C-0.67 42.01 -0.34 41.02 0 40 C0.99 40 1.98 40 3 40 C3 44.95 3 49.9 3 55 C-21.75 54.505 -21.75 54.505 -47 54 C-47 52.68 -47 51.36 -47 50 C-46.34 50 -45.68 50 -45 50 C-45 35.15 -45 20.3 -45 5 C-45.66 5 -46.32 5 -47 5 C-47 3.68 -47 2.36 -47 1 C-46.42592911 1.00222061 -45.85185822 1.00444122 -45.26039124 1.00672913 C-39.3074709 1.02878257 -33.3545621 1.04390684 -27.40161133 1.05493164 C-25.17732268 1.05997317 -22.95303737 1.06680623 -20.72875977 1.07543945 C-17.53921691 1.08751298 -14.34971771 1.09322996 -11.16015625 1.09765625 C-10.15912369 1.10281754 -9.15809113 1.10797882 -8.12672424 1.11329651 C-6.74540565 1.11340981 -6.74540565 1.11340981 -5.33618164 1.11352539 C-4.11373497 1.11685631 -4.11373497 1.11685631 -2.86659241 1.12025452 C-0.98522144 1.20528245 -0.98522144 1.20528245 0 0 Z " fill="#C0A063" transform="translate(407,356)"/>
<path d="M0 0 C0.66 0 1.32 0 2 0 C2 5.28 2 10.56 2 16 C1.01 15.67 0.02 15.34 -1 15 C-3.3555448 14.84820986 -5.71475123 14.75100711 -8.07421875 14.68359375 C-8.7580513 14.66281265 -9.44188385 14.64203156 -10.1464386 14.62062073 C-12.3266921 14.55533846 -14.50706405 14.49633983 -16.6875 14.4375 C-18.16732986 14.39429447 -19.64714783 14.35067953 -21.12695312 14.30664062 C-24.75117622 14.19967917 -28.37553189 14.09835177 -32 14 C-32 16.64 -32 19.28 -32 22 C-28.72883268 21.86111494 -25.458166 21.71269508 -22.1875 21.5625 C-21.25873047 21.52318359 -20.32996094 21.48386719 -19.37304688 21.44335938 C-18.48037109 21.40146484 -17.58769531 21.35957031 -16.66796875 21.31640625 C-15.84578857 21.27974854 -15.0236084 21.24309082 -14.17651367 21.20532227 C-11.82094822 21.06572228 -11.82094822 21.06572228 -9 20 C-9 24.62 -9 29.24 -9 34 C-9.99 34 -10.98 34 -12 34 C-12 33.34 -12 32.68 -12 32 C-18.6 32 -25.2 32 -32 32 C-32 35.63 -32 39.26 -32 43 C-21.44 43 -10.88 43 0 43 C0.33 42.01 0.66 41.02 1 40 C1.99 40.495 1.99 40.495 3 41 C3 45.95 3 50.9 3 56 C2.01 56 1.02 56 0 56 C0 55.34 0 54.68 0 54 C-15.84 54 -31.68 54 -48 54 C-47.67 52.68 -47.34 51.36 -47 50 C-46.34 50 -45.68 50 -45 50 C-45 35.48 -45 20.96 -45 6 C-45.99 6 -46.98 6 -48 6 C-48 5.01 -48 4.02 -48 3 C-32.49 3 -16.98 3 -1 3 C-0.67 2.01 -0.34 1.02 0 0 Z " fill="#C09F62" transform="translate(131,296)"/>
<path d="M0 0 C1.09183594 -0.00257813 2.18367188 -0.00515625 3.30859375 -0.0078125 C6.47442524 0.12140511 9.45285545 0.53402683 12.5625 1.125 C12.5625 1.785 12.5625 2.445 12.5625 3.125 C14.16591555 3.46192785 15.77026555 3.79441093 17.375 4.125 C18.26832031 4.310625 19.16164062 4.49625 20.08203125 4.6875 C22.63510693 5.21184843 22.63510693 5.21184843 25.5625 5.125 C25.13452798 10.83129354 22.71904048 14.53578616 19.5625 19.125 C16.5625 18.125 16.5625 18.125 14.5625 15.125 C13.5725 14.795 12.5825 14.465 11.5625 14.125 C11.5625 13.465 11.5625 12.805 11.5625 12.125 C4.6325 12.125 -2.2975 12.125 -9.4375 12.125 C-9.7675 13.445 -10.0975 14.765 -10.4375 16.125 C-4.09121992 18.61818146 2.04420586 19.72252272 8.80078125 20.39013672 C18.54572872 21.40523541 18.54572872 21.40523541 22.20703125 24.52734375 C26.02866767 29.55043109 26.9900912 32.81802975 26.5625 39.125 C25.0625 42.5625 25.0625 42.5625 23.5625 45.125 C22.9025 45.125 22.2425 45.125 21.5625 45.125 C21.2325 46.115 20.9025 47.105 20.5625 48.125 C17.0690403 49.87172985 14.49404432 51.125 10.5625 51.125 C10.5625 51.785 10.5625 52.445 10.5625 53.125 C4.2925 53.125 -1.9775 53.125 -8.4375 53.125 C-8.4375 52.465 -8.4375 51.805 -8.4375 51.125 C-13.75962148 50.33234361 -19.0871441 49.69521934 -24.4375 49.125 C-23.9425 46.155 -23.9425 46.155 -23.4375 43.125 C-22.7775 43.125 -22.1175 43.125 -21.4375 43.125 C-20.7775 40.155 -20.1175 37.185 -19.4375 34.125 C-18.1175 34.455 -16.7975 34.785 -15.4375 35.125 C-15.1075 36.115 -14.7775 37.105 -14.4375 38.125 C-10.92559191 39.35469878 -10.92559191 39.35469878 -7.4375 40.125 C-7.4375 40.785 -7.4375 41.445 -7.4375 42.125 C-4.87413746 42.01053728 -2.31236555 41.88380499 0.25 41.75 C1.3318457 41.70359375 1.3318457 41.70359375 2.43554688 41.65625 C6.53460394 41.43164413 9.80618459 40.94759091 13.5625 39.125 C13.2325 37.475 12.9025 35.825 12.5625 34.125 C11.92223877 34.06965088 11.28197754 34.01430176 10.62231445 33.95727539 C7.7062846 33.70355835 4.79064766 33.44557051 1.875 33.1875 C0.86759766 33.10048828 -0.13980469 33.01347656 -1.17773438 32.92382812 C-2.15419922 32.83681641 -3.13066406 32.74980469 -4.13671875 32.66015625 C-5.47996216 32.54232788 -5.47996216 32.54232788 -6.8503418 32.42211914 C-9.42048823 32.1269537 -11.90936549 31.66887764 -14.4375 31.125 C-14.4375 30.465 -14.4375 29.805 -14.4375 29.125 C-15.22125 28.8775 -16.005 28.63 -16.8125 28.375 C-19.76067108 26.97110901 -20.3399777 26.11824263 -21.4375 23.125 C-22.0975 23.125 -22.7575 23.125 -23.4375 23.125 C-24.05669654 13.45865408 -24.05669654 13.45865408 -21.8125 8.625 C-19.19855639 5.87348041 -16.9595541 4.50319508 -13.4375 3.125 C-12.7775 3.125 -12.1175 3.125 -11.4375 3.125 C-11.4375 2.465 -11.4375 1.805 -11.4375 1.125 C-7.56866676 0.21722907 -3.97019271 -0.00935263 0 0 Z " fill="#C0A063" transform="translate(68.4375,356.875)"/>
<path d="M0 0 C4.90352449 -0.19614098 8.41564522 0.32494729 13 2 C16.65641048 3.03817749 20.32765248 4.01983607 24 5 C24 5.66 24 6.32 24 7 C25.65 6.34 27.3 5.68 29 5 C28.54979057 10.85272256 25.96160773 15.08220119 23 20 C21.68 19.34 20.36 18.68 19 18 C19 17.34 19 16.68 19 16 C18.28972656 15.79503906 17.57945313 15.59007812 16.84765625 15.37890625 C15.92855469 15.10949219 15.00945313 14.84007812 14.0625 14.5625 C13.14597656 14.29566406 12.22945312 14.02882813 11.28515625 13.75390625 C9 13 9 13 8 12 C6.48530552 11.76807135 4.96245438 11.58784762 3.4375 11.4375 C2.61121094 11.35371094 1.78492187 11.26992188 0.93359375 11.18359375 C0.29550781 11.12300781 -0.34257813 11.06242187 -1 11 C-1 11.66 -1 12.32 -1 13 C-2.98 13.33 -4.96 13.66 -7 14 C-6.73323796 15.98491642 -6.73323796 15.98491642 -6 18 C-3.39655034 18.86781655 -1.38935032 19.24198336 1.30859375 19.5 C2.13810547 19.5825 2.96761719 19.665 3.82226562 19.75 C5.11680664 19.87375 5.11680664 19.87375 6.4375 20 C8.14479514 20.16394132 9.85183989 20.3305163 11.55859375 20.5 C12.31454834 20.5721875 13.07050293 20.644375 13.84936523 20.71875 C15.95982012 20.99474546 17.9479519 21.44154042 20 22 C20 22.66 20 23.32 20 24 C21.36125 24.309375 21.36125 24.309375 22.75 24.625 C26.94718374 26.40073158 28.05874368 27.89349624 30 32 C30.83118056 36.74112175 30.47254726 40.05490547 28.3125 44.375 C26.01282215 46.98544512 24.1315882 48.51661612 21 50 C20.34 50 19.68 50 19 50 C19 50.66 19 51.32 19 52 C6.62711909 54.8930327 -5.54410367 55.30074298 -17 49 C-17.99 49 -18.98 49 -20 49 C-20 47.02 -20 45.04 -20 43 C-19.34 43 -18.68 43 -18 43 C-17.34 40.69 -16.68 38.38 -16 36 C-14.68 36 -13.36 36 -12 36 C-12 36.99 -12 37.98 -12 39 C-11.01 39 -10.02 39 -9 39 C-9 39.66 -9 40.32 -9 41 C-0.72860508 42.27252229 7.78725024 42.89178514 16 41 C16 39.35 16 37.7 16 36 C14.35 35.67 12.7 35.34 11 35 C11 34.34 11 33.68 11 33 C9.64068359 33.03480469 9.64068359 33.03480469 8.25390625 33.0703125 C-9.44621912 33.33253658 -9.44621912 33.33253658 -15.4375 28.5625 C-19.91452991 24.08547009 -19.91452991 24.08547009 -20.1953125 20.51953125 C-20.17210938 19.62621094 -20.14890625 18.73289062 -20.125 17.8125 C-20.10695313 16.91144531 -20.08890625 16.01039063 -20.0703125 15.08203125 C-20.04710938 14.39496094 -20.02390625 13.70789063 -20 13 C-19.34 13 -18.68 13 -18 13 C-17.95875 12.443125 -17.9175 11.88625 -17.875 11.3125 C-16.26060454 7.04588343 -12.39644195 4.73313202 -8.5 2.6875 C-5.58164609 1.88495268 -3.01277198 1.85987107 0 2 C0 1.34 0 0.68 0 0 Z " fill="#C0A063" transform="translate(43,297)"/>
<path d="M0 0 C5.61 0 11.22 0 17 0 C17 1.32 17 2.64 17 4 C16.01 4.495 16.01 4.495 15 5 C14.95037347 9.03845412 14.91417368 13.07678887 14.89013672 17.11547852 C14.88011074 18.48790583 14.86648644 19.86031195 14.84912109 21.23266602 C14.82472373 23.21100527 14.81455516 25.18950367 14.8046875 27.16796875 C14.78897705 28.95110474 14.78897705 28.95110474 14.77294922 30.77026367 C14.99844732 33.97791361 15.51967348 36.15918911 17 39 C17.66 39.33 18.32 39.66 19 40 C19 40.66 19 41.32 19 42 C24.61 42 30.22 42 36 42 C36 41.34 36 40.68 36 40 C36.99 39.34 37.98 38.68 39 38 C39.26660183 35.09165115 39.34779124 32.39861732 39.29296875 29.4921875 C39.28660149 28.23125778 39.28660149 28.23125778 39.28010559 26.94485474 C39.26328532 24.25458007 39.22562781 21.56504901 39.1875 18.875 C39.17245745 17.05339622 39.1587683 15.23178072 39.14648438 13.41015625 C39.11337094 8.93981676 39.06156637 4.47003454 39 0 C44.28 0 49.56 0 55 0 C55.495 1.98 55.495 1.98 56 4 C55.34 4.33 54.68 4.66 54 5 C53.98541748 5.99330322 53.97083496 6.98660645 53.95581055 8.01000977 C53.89751838 11.72097461 53.8202897 15.43135215 53.73754883 19.1418457 C53.70444408 20.74298519 53.67636779 22.34423732 53.65356445 23.94555664 C53.61975018 26.25715817 53.56742549 28.56774078 53.51171875 30.87890625 C53.50213387 31.9402755 53.50213387 31.9402755 53.49235535 33.02308655 C53.3172291 39.04086264 52.09037867 43.90962133 47.75 48.25 C40.97676552 52.56024013 35.61816888 53.55378164 27.6875 53.5 C26.75558838 53.49645508 25.82367676 53.49291016 24.86352539 53.48925781 C16.40536479 53.28464283 10.99887639 51.21860783 4.4375 45.9375 C1.39321245 41.83432983 1.81052686 37.05901905 1.71875 32.12890625 C1.70034058 31.36956284 1.68193115 30.61021942 1.66296387 29.8278656 C1.6043797 27.4061536 1.55150359 24.9843723 1.5 22.5625 C1.43209079 19.37616169 1.35839684 16.19003277 1.28125 13.00390625 C1.26088684 11.9130648 1.26088684 11.9130648 1.2401123 10.80018616 C1.1480777 7.01565097 0.74962775 3.74813873 0 0 Z " fill="#C0A063" transform="translate(170,357)"/>
<path d="M0 0 C5.61 0 11.22 0 17 0 C17.495 1.98 17.495 1.98 18 4 C17.34 4.66 16.68 5.32 16 6 C17.72763901 9.62572994 19.45739697 13.25044526 21.1875 16.875 C21.67025391 17.88820313 22.15300781 18.90140625 22.65039062 19.9453125 C23.13056641 20.95078125 23.61074219 21.95625 24.10546875 22.9921875 C24.58419434 23.99475586 25.06291992 24.99732422 25.55615234 26.03027344 C27.34192444 29.70327508 29.2119976 33.32995433 31.1105957 36.94580078 C32 39 32 39 32 42 C32.66 42 33.32 42 34 42 C34.433125 42.94875 34.86625 43.8975 35.3125 44.875 C36.79302201 48.20041937 36.79302201 48.20041937 40 50 C39.67 50.99 39.34 51.98 39 53 C32.73 53 26.46 53 20 53 C19.505 51.02 19.505 51.02 19 49 C19.66 49 20.32 49 21 49 C20.01 46.03 19.02 43.06 18 40 C11.07 40 4.14 40 -3 40 C-3.99 42.64 -4.98 45.28 -6 48 C-5.34 48.33 -4.68 48.66 -4 49 C-4.33 50.32 -4.66 51.64 -5 53 C-10.28 53 -15.56 53 -21 53 C-20.24872886 49.24364431 -19.75994274 47.16789693 -18 44 C-17.34 44 -16.68 44 -16 44 C-15.82984375 43.3709375 -15.6596875 42.741875 -15.484375 42.09375 C-14.04875655 37.02326782 -12.38348844 32.41881151 -9.91796875 27.76171875 C-8.77568293 25.56950212 -7.86739759 23.31306023 -7 21 C-6.34 21 -5.68 21 -5 21 C-4.81824219 20.34773438 -4.63648438 19.69546875 -4.44921875 19.0234375 C-3.02533404 14.07269989 -1.50592766 9.53453577 1 5 C0.34 4.67 -0.32 4.34 -1 4 C-0.67 2.68 -0.34 1.36 0 0 Z M7 17 C4.03 23.93 4.03 23.93 1 31 C5.29 31 9.58 31 14 31 C12.7290827 27.1872481 11.66918099 24.09374991 9.875 20.625 C9.52179688 19.93664062 9.16859375 19.24828125 8.8046875 18.5390625 C8.53914063 18.03117187 8.27359375 17.52328125 8 17 C7.67 17 7.34 17 7 17 Z " fill="#C0A063" transform="translate(252,357)"/>
<path d="M0 0 C6.27 0 12.54 0 19 0 C19 0.99 19 1.98 19 3 C18.01 3 17.02 3 16 3 C16.495 4.98 16.495 4.98 17 7 C17.66 7 18.32 7 19 7 C19.6708712 8.6232687 20.33657029 10.24867578 21 11.875 C21.37125 12.77992188 21.7425 13.68484375 22.125 14.6171875 C23 17 23 17 23 19 C23.66 19 24.32 19 25 19 C25.30292969 19.75023437 25.60585937 20.50046875 25.91796875 21.2734375 C31.55850178 36.32021554 31.55850178 36.32021554 41 49 C40.505 49.99 40.505 49.99 40 51 C33.73 51 27.46 51 21 51 C21.33 49.35 21.66 47.7 22 46 C21.34 44.02 20.68 42.04 20 40 C12.74 40 5.48 40 -2 40 C-2.99 41.98 -3.98 43.96 -5 46 C-4.34 46.33 -3.68 46.66 -3 47 C-3 48.32 -3 49.64 -3 51 C-8.61 51 -14.22 51 -20 51 C-20 49.68 -20 48.36 -20 47 C-19.01 46.34 -18.02 45.68 -17 45 C-15.83149977 42.62888275 -14.79304628 40.32031294 -13.8125 37.875 C-13.53986328 37.21628906 -13.26722656 36.55757813 -12.98632812 35.87890625 C-12.31598868 34.25597917 -11.65689359 32.62841583 -11 31 C-10.34 31 -9.68 31 -9 31 C-8.4121875 29.1128125 -8.4121875 29.1128125 -7.8125 27.1875 C-6.2542092 22.4903663 -4.2845434 18.0549149 -2.18359375 13.578125 C-1.0368738 11.08031918 0.00088963 8.55993257 1 6 C1.66 6 2.32 6 3 6 C3 5.01 3 4.02 3 3 C2.01 3 1.02 3 0 3 C0 2.01 0 1.02 0 0 Z M9 16 C8.67 17.32 8.34 18.64 8 20 C7.34 20 6.68 20 6 20 C4.68 23.3 3.36 26.6 2 30 C6.62 30 11.24 30 16 30 C15.21625 28.246875 14.4325 26.49375 13.625 24.6875 C13.18414062 23.70136719 12.74328125 22.71523438 12.2890625 21.69921875 C11.01757242 18.87254793 11.01757242 18.87254793 9 16 Z " fill="#C09F63" transform="translate(228,299)"/>
<path d="M0 0 C6.27 0 12.54 0 19 0 C19 0.99 19 1.98 19 3 C18.01 3 17.02 3 16 3 C16.495 5.475 16.495 5.475 17 8 C17.66 8 18.32 8 19 8 C19.6708712 9.6232687 20.33657029 11.24867578 21 12.875 C21.37125 13.77992188 21.7425 14.68484375 22.125 15.6171875 C23 18 23 18 23 20 C23.66 20 24.32 20 25 20 C25.29390625 20.82177734 25.29390625 20.82177734 25.59375 21.66015625 C28.01389578 28.07562891 31.03773774 34.01197785 34.35742188 39.99633789 C37 44.80130922 37 44.80130922 37 47 C37.99 47 38.98 47 40 47 C40 48.32 40 49.64 40 51 C33.4 51 26.8 51 20 51 C20.66 49.35 21.32 47.7 22 46 C21.34 43.69 20.68 41.38 20 39 C12.41 39 4.82 39 -3 39 C-3.33 40.32 -3.66 41.64 -4 43 C-4.63654342 44.3479743 -5.29605388 45.68596724 -6 47 C-5.01 47 -4.02 47 -3 47 C-3 48.32 -3 49.64 -3 51 C-8.61 51 -14.22 51 -20 51 C-20 47 -20 47 -18.5625 45.4375 C-18.046875 44.963125 -17.53125 44.48875 -17 44 C-16.67 43.01 -16.34 42.02 -16 41 C-15.34 41 -14.68 41 -14 41 C-13.01 37.37 -12.02 33.74 -11 30 C-10.34 30 -9.68 30 -9 30 C-8.79503906 29.30132812 -8.59007812 28.60265625 -8.37890625 27.8828125 C-8.10949219 26.97273438 -7.84007812 26.06265625 -7.5625 25.125 C-7.29566406 24.22007812 -7.02882813 23.31515625 -6.75390625 22.3828125 C-6 20 -6 20 -5 18 C-4.34 18 -3.68 18 -3 18 C-2.80664062 17.32453125 -2.61328125 16.6490625 -2.4140625 15.953125 C-2.15367187 15.06109375 -1.89328125 14.1690625 -1.625 13.25 C-1.24214844 11.92742187 -1.24214844 11.92742187 -0.8515625 10.578125 C-0.0790066 8.23919428 0.83625676 6.16557438 2 4 C1.34 3.67 0.68 3.34 0 3 C0 2.01 0 1.02 0 0 Z M8 16 C6.99770632 18.14478916 5.99807145 20.29074722 5 22.4375 C4.443125 23.63246094 3.88625 24.82742188 3.3125 26.05859375 C1.93208528 28.61537653 1.93208528 28.61537653 2 30 C6.29 30 10.58 30 15 30 C13.7290827 26.1872481 12.66918099 23.09374991 10.875 19.625 C10.52179688 18.93664062 10.16859375 18.24828125 9.8046875 17.5390625 C9.53914063 17.03117187 9.27359375 16.52328125 9 16 C8.67 16 8.34 16 8 16 Z " fill="#C0A062" transform="translate(328,299)"/>
<path d="M0 0 C7.26 0 14.52 0 22 0 C21.67 0.99 21.34 1.98 21 3 C20.34 3 19.68 3 19 3 C22.06113165 8.2039238 25.35635254 13.1866589 29 18 C29.40992188 17.3503125 29.81984375 16.700625 30.2421875 16.03125 C30.78101563 15.1959375 31.31984375 14.360625 31.875 13.5 C32.40867187 12.6646875 32.94234375 11.829375 33.4921875 10.96875 C33.98976563 10.3190625 34.48734375 9.669375 35 9 C35.66 9 36.32 9 37 9 C37.66 7.02 38.32 5.04 39 3 C38.34 3 37.68 3 37 3 C37 2.01 37 1.02 37 0 C43.27 0 49.54 0 56 0 C56 0.99 56 1.98 56 3 C55.34 3 54.68 3 54 3 C54 3.66 54 4.32 54 5 C52.3563186 6.68933922 50.6857124 8.35259924 49 10 C45.58954901 13.97885949 42.66213478 18.29237089 39.68359375 22.59765625 C38 25 38 25 36.328125 26.73046875 C34.20732281 30.35454543 34.42536976 34.12219145 34.3125 38.25 C34.27833984 39.09046875 34.24417969 39.9309375 34.20898438 40.796875 C34.12676432 42.86412204 34.06169843 44.93203874 34 47 C34.99 47 35.98 47 37 47 C37 48.32 37 49.64 37 51 C31.06 51 25.12 51 19 51 C19.33 49.68 19.66 48.36 20 47 C20.66 47 21.32 47 22 47 C21.96681525 44.12197679 21.89946365 41.2514901 21.8125 38.375 C21.80669922 37.56675781 21.80089844 36.75851562 21.79492188 35.92578125 C21.57350337 29.87367535 20.25595943 27.2951247 16 23 C14.96986723 21.35178756 13.96885372 19.68496298 13 18 C10.6258073 13.83707428 10.6258073 13.83707428 7 11 C5.25160484 8.34243936 4.00872518 6.02617555 3 3 C2.01 3 1.02 3 0 3 C0 2.01 0 1.02 0 0 Z " fill="#C0A062" transform="translate(260,299)"/>
<path d="M0 0 C1.98 0.66 3.96 1.32 6 2 C6 2.66 6 3.32 6 4 C8.475 4.99 8.475 4.99 11 6 C10.67 6.99 10.34 7.98 10 9 C9.34 9 8.68 9 8 9 C8 8.34 8 7.68 8 7 C5.03 6.505 5.03 6.505 2 6 C2 6.66 2 7.32 2 8 C0.68 7.34 -0.64 6.68 -2 6 C-1.67 5.34 -1.34 4.68 -1 4 C-0.34 4 0.32 4 1 4 C0.67 2.68 0.34 1.36 0 0 Z " fill="#0D984B" transform="translate(277,195)"/>
<path d="M0 0 C1.18851563 0.00902344 2.37703125 0.01804688 3.6015625 0.02734375 C4.51679688 0.03894531 5.43203125 0.05054688 6.375 0.0625 C6.705 1.0525 7.035 2.0425 7.375 3.0625 C2.425 3.0625 -2.525 3.0625 -7.625 3.0625 C-7.955 2.4025 -8.285 1.7425 -8.625 1.0625 C-5.74084117 -0.37957941 -3.20778472 -0.03144887 0 0 Z " fill="#AD9E5F" transform="translate(226.625,181.9375)"/>
<path d="M0 0 C0.66 1.32 1.32 2.64 2 4 C2.99 3.01 3.98 2.02 5 1 C4.67 4.63 4.34 8.26 4 12 C2.68 12 1.36 12 0 12 C-0.19477739 10.37585622 -0.38059458 8.75063577 -0.5625 7.125 C-0.66691406 6.22007812 -0.77132812 5.31515625 -0.87890625 4.3828125 C-1 2 -1 2 0 0 Z " fill="#1B944E" transform="translate(173,250)"/>
<path d="M0 0 C3 1 3 1 4.1875 3.375 C5 6 5 6 5 9 C5.66 9 6.32 9 7 9 C7 10.65 7 12.3 7 14 C5.1875 13.9375 5.1875 13.9375 3 13 C1.25 9.4375 1.25 9.4375 0 6 C0.66 5.67 1.32 5.34 2 5 C1.34 3.35 0.68 1.7 0 0 Z " fill="#16944C" transform="translate(318,148)"/>
<path d="M0 0 C1.32 0.33 2.64 0.66 4 1 C3.731875 1.78375 3.46375 2.5675 3.1875 3.375 C2.94162779 8.12852945 4.65459175 10.7660387 6.96875 14.828125 C7.3090625 15.54484375 7.649375 16.2615625 8 17 C7.67 17.66 7.34 18.32 7 19 C4 15.375 4 15.375 4 12 C3.34 12 2.68 12 2 12 C0.70756464 7.8803623 -0.26252625 4.33168317 0 0 Z " fill="#10944A" transform="translate(199,89)"/>
<path d="M0 0 C10.55808656 -0.18451025 10.55808656 -0.18451025 15 1 C15 1.66 15 2.32 15 3 C13.700625 2.979375 12.40125 2.95875 11.0625 2.9375 C9.70834367 2.91600546 8.35243917 2.92851801 7 3 C6.67 3.33 6.34 3.66 6 4 C4.00041636 4.04080783 1.99954746 4.04254356 0 4 C0 2.68 0 1.36 0 0 Z " fill="#0E9449" transform="translate(147,157)"/>
<path d="M0 0 C0 0.99 0 1.98 0 3 C-0.99 3.66 -1.98 4.32 -3 5 C-1.68 5.66 -0.36 6.32 1 7 C-3.95 8.485 -3.95 8.485 -9 10 C-7.90070338 5.60281354 -7.44549271 5.20002666 -3.9375 2.75 C-3.20402344 2.22921875 -2.47054687 1.7084375 -1.71484375 1.171875 C-1.14894531 0.78515625 -0.58304688 0.3984375 0 0 Z " fill="#0F9549" transform="translate(139,179)"/>
<path d="M0 0 C4.5862069 1.44827586 4.5862069 1.44827586 6.3125 3.75 C7.17450101 6.57109421 7.13329111 9.06759551 7 12 C3.71534104 9.20803989 1.98678042 5.76803183 0 2 C0 1.34 0 0.68 0 0 Z " fill="#12944A" transform="translate(199,115)"/>
<path d="M0 0 C0.33 0.99 0.66 1.98 1 3 C1.66 3 2.32 3 3 3 C2.3125 5.4375 2.3125 5.4375 1 8 C-1.625 8.8125 -1.625 8.8125 -4 9 C-2.94124926 5.59687262 -1.99097846 2.98646769 0 0 Z " fill="#0F994D" transform="translate(165,231)"/>
<path d="M0 0 C0.66 0 1.32 0 2 0 C1.745504 1.48206495 1.47088238 2.96068615 1.1875 4.4375 C1.03667969 5.26121094 0.88585937 6.08492188 0.73046875 6.93359375 C0.36888672 7.95646484 0.36888672 7.95646484 0 9 C-0.99 9.33 -1.98 9.66 -3 10 C-4.15941038 6.52176885 -3.70820884 4.54104422 -3 1 C-2.34 1.33 -1.68 1.66 -1 2 C-0.67 1.34 -0.34 0.68 0 0 Z " fill="#0D9B4B" transform="translate(271,258)"/>
<path d="M0 0 C1.23556641 0.01740234 1.23556641 0.01740234 2.49609375 0.03515625 C3.32238281 0.04417969 4.14867187 0.05320313 5 0.0625 C5.63808594 0.07410156 6.27617187 0.08570313 6.93359375 0.09765625 C6.93359375 1.41765625 6.93359375 2.73765625 6.93359375 4.09765625 C1.51820913 4.46688702 1.51820913 4.46688702 -1.44140625 2.59765625 C-1.97765625 2.10265625 -2.51390625 1.60765625 -3.06640625 1.09765625 C-2.06640625 0.09765625 -2.06640625 0.09765625 0 0 Z " fill="#13984B" transform="translate(299.06640625,156.90234375)"/>
<path d="M0 0 C1.32 0 2.64 0 4 0 C3.4140625 6.15234375 3.4140625 6.15234375 3 8 C2.01 8.495 2.01 8.495 1 9 C1 8.34 1 7.68 1 7 C0.34 7 -0.32 7 -1 7 C-0.67 4.69 -0.34 2.38 0 0 Z " fill="#16914C" transform="translate(250,90)"/>
<path d="M0 0 C2.3125 1.3125 2.3125 1.3125 3.3125 4.3125 C0.0125 3.9825 -3.2875 3.6525 -6.6875 3.3125 C-6.6875 2.6525 -6.6875 1.9925 -6.6875 1.3125 C-4.05994667 -0.43920222 -3.12850084 -0.80031417 0 0 Z " fill="#0F8F47" transform="translate(317.6875,174.6875)"/>
<path d="M0 0 C1.6396875 0.0928125 1.6396875 0.0928125 3.3125 0.1875 C3.6425 1.1775 3.9725 2.1675 4.3125 3.1875 C0.6825 3.1875 -2.9475 3.1875 -6.6875 3.1875 C-3.6875 0.1875 -3.6875 0.1875 0 0 Z " fill="#0E9549" transform="translate(310.6875,164.8125)"/>
<path d="M0 0 C3.3 0 6.6 0 10 0 C9.67 0.66 9.34 1.32 9 2 C7.68 2 6.36 2 5 2 C5 2.66 5 3.32 5 4 C3.35 3.67 1.7 3.34 0 3 C0 2.01 0 1.02 0 0 Z " fill="#0E9248" transform="translate(171,147)"/>
<path d="M0 0 C2.375 0.25 2.375 0.25 5 1 C6.3125 3.0625 6.3125 3.0625 7 5 C6.01 5 5.02 5 4 5 C4 5.66 4 6.32 4 7 C3.34 7 2.68 7 2 7 C1.34 4.69 0.68 2.38 0 0 Z " fill="#0D9649" transform="translate(182,112)"/>
<path d="M0 0 C0.33 0.66 0.66 1.32 1 2 C-1 5 -1 5 -4.125 5.6875 C-5.07375 5.790625 -6.0225 5.89375 -7 6 C-5.9024777 3.00675737 -5.32317108 2.15389099 -2.375 0.75 C-1.59125 0.5025 -0.8075 0.255 0 0 Z " fill="#0C9646" transform="translate(139,173)"/>
<path d="M0 0 C-2.46278801 2.46278801 -4.70676982 2.99771255 -8 4 C-9.02104551 3.02149805 -10.0206121 2.02019573 -11 1 C-11 0.67 -11 0.34 -11 0 C-9.54263913 -0.19491452 -8.08405407 -0.38069358 -6.625 -0.5625 C-5.81289062 -0.66691406 -5.00078125 -0.77132812 -4.1640625 -0.87890625 C-2 -1 -2 -1 0 0 Z " fill="#10974A" transform="translate(212,172)"/>
<path d="M0 0 C1.98 0 3.96 0 6 0 C6 1.66666667 6 3.33333333 6 5 C3.03 4.505 3.03 4.505 0 4 C0 2.68 0 1.36 0 0 Z " fill="#109347" transform="translate(158,151)"/>
<path d="M0 0 C1.65 0 3.3 0 5 0 C5.33 0.99 5.66 1.98 6 3 C5 4 5 4 1.9375 4.0625 C0.4834375 4.0315625 0.4834375 4.0315625 -1 4 C-0.67 2.68 -0.34 1.36 0 0 Z " fill="#0D924A" transform="translate(259,174)"/>
<path d="M0 0 C1.65 0 3.3 0 5 0 C5.33 1.32 5.66 2.64 6 4 C3.69 4.33 1.38 4.66 -1 5 C-0.67 3.35 -0.34 1.7 0 0 Z " fill="#0F994A" transform="translate(246,172)"/>
<path d="M0 0 C0.66 0 1.32 0 2 0 C1.125 6.75 1.125 6.75 0 9 C-0.66 9 -1.32 9 -2 9 C-2.125 5.625 -2.125 5.625 -2 2 C-1.34 1.34 -0.68 0.68 0 0 Z M-1 3 C0 5 0 5 0 5 Z " fill="#11934C" transform="translate(175,238)"/>
<path d="M0 0 C2 3.75 2 3.75 2 6 C0.35 6.33 -1.3 6.66 -3 7 C-2.38722388 4.03824877 -1.74627478 2.61941217 0 0 Z " fill="#0E9449" transform="translate(133,193)"/>
<path d="M0 0 C1.98 0 3.96 0 6 0 C5.67 0.99 5.34 1.98 5 3 C3.02 3 1.04 3 -1 3 C-0.67 2.01 -0.34 1.02 0 0 Z " fill="#13974A" transform="translate(139,165)"/>
<path d="M0 0 C2.0625 0.4375 2.0625 0.4375 4 1 C4 1.66 4 2.32 4 3 C2.35 3.66 0.7 4.32 -1 5 C-1 1 -1 1 0 0 Z " fill="#14924B" transform="translate(260,147)"/>
<path d="M0 0 C0.66 0.33 1.32 0.66 2 1 C0.12050295 4.57104439 -1.17053157 6.54744301 -5 8 C-4.67 7.01 -4.34 6.02 -4 5 C-3.34 5 -2.68 5 -2 5 C-2 4.01 -2 3.02 -2 2 C-1.34 2 -0.68 2 0 2 C0 1.34 0 0.68 0 0 Z " fill="#0D9248" transform="translate(243,110)"/>
<path d="M0 0 C0.99 0.33 1.98 0.66 3 1 C2.34 2.32 1.68 3.64 1 5 C0.01 5 -0.98 5 -2 5 C-2.99 5.495 -2.99 5.495 -4 6 C-2.25 1.125 -2.25 1.125 0 0 Z " fill="#128F4B" transform="translate(268,112)"/>
<path d="M0 0 C1.32 0.33 2.64 0.66 4 1 C4 3.62113708 3.68707555 5.50935112 3 8 C2.67 6.35 2.34 4.7 2 3 C1.34 3 0.68 3 0 3 C0 2.01 0 1.02 0 0 Z " fill="#11934A" transform="translate(173,111)"/>
<path d="M0 0 C0.33 0.99 0.66 1.98 1 3 C0.01 3 -0.98 3 -2 3 C-2 3.66 -2 4.32 -2 5 C-2.99 4.67 -3.98 4.34 -5 4 C-4.67 3.01 -4.34 2.02 -4 1 C-2 0 -2 0 0 0 Z " fill="#0E9749" transform="translate(170,199)"/>
<path d="M0 0 C1.5 1.375 1.5 1.375 3 3 C3 3.66 3 4.32 3 5 C2.01 5.33 1.02 5.66 0 6 C-0.66 4.68 -1.32 3.36 -2 2 C-1.34 1.34 -0.68 0.68 0 0 Z " fill="#10984B" transform="translate(133,144)"/>
<path d="M0 0 C1.32 0.33 2.64 0.66 4 1 C4 1.66 4 2.32 4 3 C2.68 3 1.36 3 0 3 C0 2.01 0 1.02 0 0 Z " fill="#BA9C66" transform="translate(406,382)"/>
</svg>
