<?xml version="1.0" encoding="UTF-8"?>
<svg version="1.1" xmlns="http://www.w3.org/2000/svg" width="3125" height="1213">
<path d="M0 0 C0.72912598 0.00332336 1.45825195 0.00664673 2.20947266 0.0100708 C26.1715822 0.13522109 50.15924098 2.03602536 74 4.3515625 C75.20027832 4.46000992 75.20027832 4.46000992 76.42480469 4.57064819 C80.12057287 4.94805213 82.22951424 5.2780095 85.375 7.375 C84.24964844 7.98085937 83.12429688 8.58671875 81.96484375 9.2109375 C55.83343177 23.41391279 32.65917888 40.99579453 11.5625 61.9375 C10.69085205 62.79980225 9.8192041 63.66210449 8.92114258 64.55053711 C2.98537632 70.51567437 -2.41728047 76.76766231 -7.625 83.375 C-8.16439209 84.05506104 -8.70378418 84.73512207 -9.25952148 85.43579102 C-44.62624502 130.52553013 -64.73848649 184.85234617 -73.375 241.125 C-73.67313599 243.0577478 -73.67313599 243.0577478 -73.97729492 245.02954102 C-76.87579319 264.83698117 -78.0056945 284.48780882 -77.9375 304.5 C-77.93476578 306.17461304 -77.93476578 306.17461304 -77.93197632 307.88305664 C-77.8853359 324.8875151 -77.36409799 341.55895159 -74.625 358.375 C-74.35961426 360.04079102 -74.35961426 360.04079102 -74.08886719 361.74023438 C-72.79555064 369.6609606 -71.28995716 377.52436506 -69.625 385.375 C-69.42068359 386.34228027 -69.21636719 387.30956055 -69.00585938 388.30615234 C-56.21352149 447.16105928 -28.71082403 503.40294687 0.96484375 555.3671875 C3.98238971 560.65992985 6.92812539 565.99005291 9.86499023 571.32788086 C16.45222383 583.28659777 23.28755116 595.05891839 30.36328125 606.734375 C33.26346313 611.52036441 36.13221765 616.32365003 38.98046875 621.140625 C39.57202759 622.14102562 39.57202759 622.14102562 40.17553711 623.16163635 C40.98169481 624.52515164 41.78782662 625.88868222 42.59393311 627.25222778 C50.0743412 639.89960648 57.68414555 652.45624917 65.4140625 664.953125 C69.60728357 671.73658367 73.74346404 678.55389073 77.875 685.375 C87.57525986 701.38272663 97.37654566 717.3276798 107.2487793 733.22998047 C120.04222987 753.84731018 132.64024706 774.57331137 144.76806641 795.59033203 C145.81522494 797.40496136 146.86428583 799.21849466 147.91552734 801.03076172 C156.39000049 815.64144746 164.46223365 830.45336008 172.375 845.375 C172.9824707 846.51469238 173.58994141 847.65438477 174.21582031 848.82861328 C204.3477633 905.49856293 231.30827936 967.24087059 239.375 1031.375 C239.4692627 1032.06932129 239.56352539 1032.76364258 239.66064453 1033.47900391 C242.18314755 1054.53897097 242.39923957 1078.73647967 237.375 1099.375 C237.18164062 1100.17921387 236.98828125 1100.98342773 236.7890625 1101.81201172 C230.77676992 1125.82870823 219.5090063 1145.61318278 202.375 1163.375 C201.74722656 1164.05433594 201.11945313 1164.73367188 200.47265625 1165.43359375 C187.43908742 1179.20317588 170.71459648 1184.63959699 152.21875 1185.3359375 C128.25414007 1185.78647217 105.08183172 1177.83768754 83.375 1168.375 C84.68637313 1164.17461195 86.28118729 1160.18614324 88.03979492 1156.16113281 C123.66834184 1074.34050226 109.57930734 982.4645604 77.56469727 897.82373047 C68.94719819 875.97693483 59.35606992 854.66842414 48.97216797 833.61621094 C47.54521396 830.72042349 46.13160727 827.81863588 44.72265625 824.9140625 C22.48631751 779.36959349 -5.80721115 736.66165999 -35.16064453 695.43847656 C-39.13161438 689.84283849 -43.05279904 684.21200182 -46.98046875 678.5859375 C-49.32495346 675.22811093 -51.68201073 671.87979219 -54.05078125 668.5390625 C-63.43344453 655.24866898 -72.42055175 641.7063034 -81.375 628.125 C-81.99029572 627.19268555 -82.60559143 626.26037109 -83.23953247 625.29980469 C-103.20893872 595.02035497 -122.40594446 564.31207116 -139.625 532.375 C-140.22441406 531.26801758 -140.82382812 530.16103516 -141.44140625 529.02050781 C-173.85224843 468.87144487 -198.55492668 397.65256026 -198.828125 328.5703125 C-198.83513931 327.3806337 -198.84215363 326.1909549 -198.84938049 324.96522522 C-198.86680169 321.14344461 -198.87323345 317.32181887 -198.875 313.5 C-198.87567474 312.19543854 -198.87634949 310.89087708 -198.87704468 309.54678345 C-198.86147014 290.62372451 -198.49109635 272.10900182 -195.625 253.375 C-195.45871094 252.22112793 -195.29242188 251.06725586 -195.12109375 249.87841797 C-185.44736173 183.81936831 -160.49527232 120.0070798 -117.625 68.375 C-117.19638672 67.85615234 -116.76777344 67.33730469 -116.32617188 66.80273438 C-105.79977174 54.10956481 -94.6483177 42.53685634 -81.625 32.375 C-80.68914062 31.59898438 -79.75328125 30.82296875 -78.7890625 30.0234375 C-66.58794601 20.14335602 -52.79301223 12.08610445 -38.1875 6.3125 C-37.52790283 6.04993408 -36.86830566 5.78736816 -36.1887207 5.5168457 C-24.35926176 1.13701058 -12.53840657 -0.13724238 0 0 Z " fill="#F36F21" transform="translate(588.625,0.625)"/>
<path d="M0 0 C1.5747686 0.00212242 1.5747686 0.00212242 3.18135071 0.00428772 C6.49202482 0.00982745 9.80262803 0.02236822 13.11328125 0.03515625 C15.37565006 0.04017906 17.63801994 0.04474059 19.90039062 0.04882812 C25.40887783 0.05977704 30.91732447 0.07645379 36.42578125 0.09765625 C34.11680978 2.4890236 31.90887567 4.60533466 29.10546875 6.39453125 C28.4930835 6.79140137 27.88069824 7.18827148 27.24975586 7.59716797 C26.28501343 8.21615967 26.28501343 8.21615967 25.30078125 8.84765625 C19.0451275 12.94797548 13.14508351 17.26687304 7.42578125 22.09765625 C6.89098145 22.54367188 6.35618164 22.9896875 5.80517578 23.44921875 C-4.80439559 32.30384568 -14.66146016 41.43143883 -23.3046875 52.26953125 C-25.60825198 55.14006599 -27.99251423 57.92750839 -30.38671875 60.72265625 C-80.41986419 120.88616035 -105.59625662 202.01058169 -111.57421875 279.09765625 C-111.68507813 280.34933594 -111.7959375 281.60101563 -111.91015625 282.890625 C-119.20924321 379.65284538 -90.52150789 474.67308426 -41.98828125 557.65283203 C-40.21966437 560.71065825 -38.52414045 563.80497964 -36.83325195 566.90625 C-10.22591238 615.63660707 22.54811413 661.50181242 54.55078125 706.78515625 C55.02902344 707.46239746 55.50726562 708.13963867 56 708.83740234 C58.00492121 711.67568631 60.01047466 714.51346084 62.02392578 717.34570312 C121.19350313 800.61235695 174.2750652 895.687541 192.42578125 1004.09765625 C192.67134766 1005.57540527 192.67134766 1005.57540527 192.921875 1007.08300781 C197.6272554 1036.23886696 198.19204493 1069.09018962 192.42578125 1098.09765625 C192.12776611 1099.60368408 192.12776611 1099.60368408 191.82373047 1101.14013672 C183.23394354 1142.94376643 183.23394354 1142.94376643 172.42578125 1156.09765625 C170.11423195 1156.99934599 168.93819751 1157.2901444 166.58911133 1156.40771484 C165.96415771 1156.02437988 165.3392041 1155.64104492 164.6953125 1155.24609375 C163.98334717 1154.81369385 163.27138184 1154.38129395 162.5378418 1153.93579102 C161.77898682 1153.45295654 161.02013184 1152.97012207 160.23828125 1152.47265625 C159.44526611 1151.97628662 158.65225098 1151.47991699 157.83520508 1150.96850586 C144.89417532 1142.72281455 132.96540179 1133.25261511 121.95214844 1122.57714844 C120.92918633 1121.58560167 119.90111251 1120.59930318 118.86816406 1119.61816406 C107.08788198 1108.42800256 98.05917337 1096.44768506 90.42578125 1082.09765625 C90.06097656 1081.51483887 89.69617188 1080.93202148 89.3203125 1080.33154297 C88.07459085 1077.22063874 88.33928113 1074.69913317 88.51953125 1071.359375 C88.58321546 1069.98424429 88.6461711 1068.6090797 88.70849609 1067.23388672 C88.74465027 1066.50989685 88.78080444 1065.78590698 88.8180542 1065.03997803 C92.82708143 981.12751732 63.69667587 900.30034181 4.42578125 785.09765625 C3.13920262 782.89199725 1.8527507 780.68626433 0.56640625 778.48046875 C-16.60309102 749.12698904 -35.36871244 720.88513539 -55.08789062 693.19189453 C-57.95508892 689.15200836 -60.79515517 685.0930935 -63.63671875 681.03515625 C-64.43106323 679.90303711 -64.43106323 679.90303711 -65.24145508 678.74804688 C-75.01808318 664.78607188 -84.59656826 650.68809959 -94.13500977 636.56274414 C-95.38309664 634.7155366 -96.63244 632.86917738 -97.88305664 631.02368164 C-105.9217675 619.16082164 -113.77763591 607.20905909 -121.35830688 595.04794312 C-122.93122116 592.52503489 -124.51535245 590.0092141 -126.09765625 587.4921875 C-138.0874722 568.27802521 -149.46008829 548.72228281 -160.14941406 528.75488281 C-161.55005946 526.14271274 -162.96424553 523.53819303 -164.37890625 520.93359375 C-198.95796447 456.73451317 -219.42587087 383.23621647 -218.94921875 310.22265625 C-218.94489838 308.95805573 -218.940578 307.6934552 -218.93612671 306.39053345 C-218.86173772 287.78521667 -218.39199126 269.51579329 -215.57421875 251.09765625 C-215.40792969 249.94378418 -215.24164063 248.78991211 -215.0703125 247.60107422 C-205.4939598 182.2069991 -181.07689141 116.63862707 -137.57421875 66.09765625 C-136.61878682 64.95917586 -135.66442918 63.81979337 -134.7109375 62.6796875 C-116.34040739 40.82290837 -94.55681749 22.97280345 -68.38671875 11.28515625 C-67.77006348 11.00712158 -67.1534082 10.72908691 -66.51806641 10.44262695 C-56.74591079 6.23314214 -46.55672517 4.44657447 -36.07421875 2.97265625 C-34.92824219 2.80378906 -33.78226563 2.63492187 -32.6015625 2.4609375 C-21.70140042 0.88605629 -11.01641232 -0.05725002 0 0 Z " fill="#FAA61A" transform="translate(480.57421875,-0.09765625)"/>
<path d="M0 0 C-1.30729347 3.92188042 -3.78947045 5.34400192 -7 7.6875 C-15.53937621 14.0972976 -23.13082249 20.80445692 -30 29 C-30.79921875 29.91136719 -31.5984375 30.82273437 -32.421875 31.76171875 C-86.70256152 93.94687391 -112.79198118 175.97378466 -120 257 C-120.07202637 257.76538086 -120.14405273 258.53076172 -120.21826172 259.31933594 C-129.04604555 356.02688823 -98.84175614 452.76066428 -50.40527344 535.56835938 C-48.67054312 538.57008174 -47.01354688 541.60998351 -45.36010742 544.65698242 C-36.22582656 561.44785599 -25.86137382 577.55451865 -15.625 593.6875 C-15.10325195 594.51024414 -14.58150391 595.33298828 -14.04394531 596.18066406 C-5.80127094 609.09675506 2.8388711 621.7570485 11.4375 634.4375 C11.89665802 635.11487213 12.35581604 635.79224426 12.82888794 636.49014282 C24.95171267 654.37238175 37.1726683 672.18398426 49.6940918 689.79052734 C56.94551703 699.99950589 64.00357053 710.32304258 70.9375 720.75 C71.4594696 721.53403198 71.98143921 722.31806396 72.51922607 723.12585449 C80.59619806 735.26797372 88.5374294 747.46786784 96 760 C96.54736816 760.91507324 97.09473633 761.83014648 97.65869141 762.77294922 C140.61087059 834.7948733 176.64850581 913.83655226 186 998 C149.37 998 112.74 998 75 998 C73.02 986.12 71.04 974.24 69 962 C54.67059845 898.04841162 30.32530486 837.39345134 -2.46240234 780.66503906 C-3.89851563 778.17589765 -5.32072528 775.67943022 -6.73828125 773.1796875 C-24.84275733 741.37968411 -45.46318276 711.01694376 -66.68408203 681.22998047 C-74.3760167 670.415641 -81.79038948 659.4340658 -89.125 648.375 C-90.2380582 646.70037256 -91.35133899 645.02589304 -92.46484375 643.3515625 C-94.63202973 640.09254143 -96.79719631 636.83219187 -98.96118164 633.57104492 C-100.88540057 630.67304713 -102.81611873 627.77964002 -104.75561523 624.8918457 C-109.93882546 617.1701237 -114.96247084 609.37487157 -119.8125 601.4375 C-120.83706299 599.76506226 -120.83706299 599.76506226 -121.88232422 598.05883789 C-168.72446177 521.47063592 -210.37532826 441.42330715 -225 349 C-225.12455566 348.19788086 -225.24911133 347.39576172 -225.37744141 346.56933594 C-227.29325429 333.95051509 -228.15019344 321.3276662 -228.203125 308.5703125 C-228.21013931 307.42917496 -228.21715363 306.28803741 -228.22438049 305.11231995 C-228.24178037 301.4498393 -228.24823276 297.78752046 -228.25 294.125 C-228.25067474 292.872565 -228.25134949 291.62013 -228.25204468 290.32974243 C-228.23581792 271.37248953 -227.83900195 252.77065 -225 234 C-224.82839355 232.85515137 -224.65678711 231.71030273 -224.47998047 230.53076172 C-214.01877306 163.45376158 -180.36646941 88.50960451 -124.19140625 47.22265625 C-89.65500653 23.16976587 -43.00405837 0 0 0 Z " fill="#FFDD00" transform="translate(361,19)"/>
<path d="M0 0 C45.08540427 35.90359088 62.67648398 101.36572385 70 156 C70.1148877 156.8348291 70.22977539 157.6696582 70.34814453 158.52978516 C71.50831979 168.68888507 71 178.71178847 71 189 C-19.09 189 -109.18 189 -202 189 C-200.75140844 181.50845062 -199.537928 174.47512669 -197.4375 167.25 C-197.1799292 166.36296387 -196.9223584 165.47592773 -196.65698242 164.56201172 C-183.66500322 121.01784097 -161.10797986 80.20763037 -130 47 C-128.8062964 45.63038218 -127.61830276 44.25575563 -126.4375 42.875 C-119.30756185 34.7146279 -111.47892019 27.72580145 -103 21 C-101.90403895 20.10267153 -100.80901857 19.20419318 -99.71484375 18.3046875 C-91.58687442 11.68515629 -83.16846364 6.07461532 -74 1 C-72.85789062 0.360625 -71.71578125 -0.27875 -70.5390625 -0.9375 C-46.98964419 -13.43970835 -22.67775943 -15.99257495 0 0 Z " fill="#F36F21" transform="translate(745,29)"/>
<path d="M0 0 C1.49442627 0.00737183 1.49442627 0.00737183 3.01904297 0.01489258 C16.76354279 0.22989157 29.29053298 2.55630211 41.875 8.3125 C42.80699219 8.73144531 43.73898437 9.15039062 44.69921875 9.58203125 C54.73595289 14.55028624 66.79311602 24.14873203 71.875 34.3125 C75.34918592 32.7800069 77.93071271 30.70710285 80.8125 28.25 C94.88420495 16.63525941 110.12493881 7.09620443 127.875 2.3125 C129.06802734 1.97605469 129.06802734 1.97605469 130.28515625 1.6328125 C151.74516509 -3.33257782 178.66839547 0.14215781 197.5625 11.5 C216.02085878 24.13082994 227.38326657 42.37476397 231.875 64.3125 C233.55272114 73.90432611 234.172412 83.23573217 234.16552734 92.96191406 C234.1715315 94.36645863 234.17834128 95.77099995 234.18588257 97.17553711 C234.2033436 100.94387252 234.20822899 104.71211681 234.20951414 108.48048878 C234.21094604 110.8422036 234.2152347 113.20389597 234.22050858 115.56560516 C234.23893258 123.82467598 234.24718754 132.08368275 234.24560547 140.34277344 C234.24440141 148.01262232 234.26557494 155.68219105 234.2970928 163.351969 C234.32330175 169.96807738 234.33397106 176.58409435 234.33269465 183.2002542 C234.33218701 187.13857044 234.33776185 191.07663624 234.35905075 195.01490021 C234.37851545 198.71533095 234.37850222 202.41527399 234.36401749 206.11572266 C234.3609553 208.10563543 234.37754177 210.09554874 234.39489746 212.08538818 C234.33595149 220.55351087 233.58699223 228.50532848 227.4375 234.8125 C220.68830515 238.7632482 214.58707646 239.06694226 206.875 238.3125 C201.48989197 236.74607707 197.90290071 234.08726651 194.875 229.3125 C192.28978999 224.0060163 191.75278795 218.54613478 191.73696899 212.7008667 C191.73151566 211.60796326 191.72606232 210.51505981 191.72044373 209.38903809 C191.7194014 208.20459106 191.71835907 207.02014404 191.71728516 205.79980469 C191.70948511 203.86629036 191.70168105 201.93277604 191.69372725 199.99926233 C191.68603198 197.92698711 191.68063824 195.85471624 191.67576981 193.78243256 C191.66502459 189.44193047 191.64475807 185.10150458 191.62265015 180.76104736 C191.56095936 168.41983583 191.50691992 156.07862796 191.47363281 143.73730469 C191.45515506 136.91626971 191.42605145 130.09536207 191.3856281 123.27442098 C191.36476419 119.67561926 191.34913079 116.07697659 191.34682083 112.47811127 C192.3028365 79.14250625 192.3028365 79.14250625 177.875 50.3125 C172.44961529 45.79817046 166.69257894 43.04177641 159.875 41.3125 C159.16988281 41.12816406 158.46476562 40.94382812 157.73828125 40.75390625 C141.4322176 38.24014746 124.71192617 39.93840959 110.875 49.3125 C95.19905714 61.64902546 90.94214958 81.56524272 88.49047852 100.30361938 C87.39759856 109.89271475 87.45128847 119.51480852 87.46430969 129.15431786 C87.46886869 132.82605584 87.45456879 136.49733212 87.43591309 140.16902161 C87.39335861 149.26846098 87.38186893 158.36788573 87.36968994 167.46740723 C87.35813526 175.20666407 87.33454005 182.94570378 87.29499817 190.68486977 C87.28150823 194.28652425 87.28558039 197.88787827 87.29040527 201.48954773 C87.28106306 203.70551939 87.27089383 205.92148776 87.25976562 208.13745117 C87.26898796 209.6189843 87.26898796 209.6189843 87.27839661 211.13044739 C87.20028918 220.02606367 85.83757964 228.37476558 79.45703125 234.97265625 C74.70271235 238.99915349 68.80340802 238.73967261 62.8515625 238.62890625 C57.30771557 238.03959969 53.61401669 235.91051533 49.5625 232.1875 C44.7858689 224.0495359 44.44165921 215.59347927 44.49023438 206.36157227 C44.48198623 204.42968869 44.47373736 202.49780512 44.46546173 200.56592166 C44.45949582 198.50726784 44.46083285 196.44873597 44.46430969 194.39007759 C44.47118398 190.06992095 44.45513797 185.7500248 44.43591309 181.42991638 C44.39819574 172.24495819 44.38530112 163.06002369 44.375 153.875 C44.36388099 143.98520758 44.34812683 134.09553803 44.30428743 124.20582813 C44.28910999 120.62435303 44.27994332 117.04308768 44.28569031 113.46158028 C45.42688541 79.97801022 45.42688541 79.97801022 31.53125 50.76953125 C18.88997986 39.64879124 2.83998341 39.47076098 -13.125 40.3125 C-25.44086838 41.86348449 -36.28605596 47.66058431 -44.125 57.3125 C-60.39590517 79.79102538 -60.41583754 109.55664641 -60.39939499 136.12260818 C-60.39841191 139.63038329 -60.41157303 143.13786661 -60.42837524 146.64559937 C-60.47415342 156.60176504 -60.4992807 166.55789237 -60.50585938 176.51416016 C-60.51088274 182.64519552 -60.53515142 188.77591358 -60.57118607 194.90684128 C-60.58094185 197.22632312 -60.58333925 199.54584876 -60.57801437 201.865345 C-60.57091587 205.10409776 -60.58827671 208.34190316 -60.61083984 211.58056641 C-60.60266739 212.52307251 -60.59449493 213.46557861 -60.58607483 214.43664551 C-60.67912351 221.97992261 -62.15586984 229.26723829 -67.5625 234.8125 C-74.74425945 239.01645675 -82.46625881 239.73846668 -90.57421875 237.6953125 C-95.9271113 235.39101971 -98.74659354 231.53886957 -101.125 226.3125 C-102.47191804 222.34561484 -102.27005819 218.27836147 -102.26544189 214.14068604 C-102.26841302 213.30986818 -102.27138414 212.47905033 -102.2744453 211.62305617 C-102.2831272 208.83495696 -102.28464012 206.04690072 -102.28613281 203.25878906 C-102.29076135 201.26135161 -102.29578606 199.26391503 -102.30117798 197.26647949 C-102.31430068 191.83660064 -102.32074671 186.40673416 -102.32518864 180.97684193 C-102.32811962 177.58434953 -102.33222449 174.19186051 -102.33669281 170.79936981 C-102.35036752 160.18471996 -102.36003426 149.57007783 -102.3638947 138.95541978 C-102.36837526 126.70302143 -102.38592325 114.45073464 -102.4148953 102.19837022 C-102.43651308 92.72732764 -102.44659904 83.25631646 -102.44793582 73.78524947 C-102.44898379 68.12880525 -102.45489003 62.47246591 -102.47275543 56.81604767 C-102.48923765 51.49400349 -102.49139081 46.17214301 -102.48261642 40.8500824 C-102.48184613 38.89901487 -102.48618775 36.94793746 -102.49607468 34.99689484 C-102.50880167 32.3284614 -102.50291331 29.66067788 -102.49249268 26.99224854 C-102.50054908 26.22452629 -102.50860548 25.45680405 -102.51690602 24.6658175 C-102.45803202 18.19690126 -100.82817066 13.04973856 -97.375 7.5 C-91.45674993 1.74614576 -85.44109484 1.96652936 -77.52734375 1.9140625 C-72.38238401 2.51657214 -69.15682079 4.32867087 -65.4375 7.875 C-62.34490979 11.81555849 -61.29021521 16.51901305 -60.125 21.3125 C-59.155625 20.508125 -58.18625 19.70375 -57.1875 18.875 C-40.51092157 6.42670298 -20.77491408 -0.12308682 0 0 Z " fill="#006426" transform="translate(1631.125,326.6875)"/>
<path d="M0 0 C4.56494968 3.81383739 8.24458613 7.93849383 11.81640625 12.68359375 C13.35383315 14.82132087 13.35383315 14.82132087 15.375 16.75 C15.98021484 16.07517578 15.98021484 16.07517578 16.59765625 15.38671875 C34.0509557 -3.10414415 59.64212903 -17.49905423 85.33203125 -18.4609375 C110.01415931 -19.06309911 133.57914969 -14.41090992 152.1875 2.9375 C174.59918106 26.97381965 176.01478518 57.54719402 175.91230202 88.601861 C175.90202847 92.69932615 175.91160468 96.79675915 175.91784668 100.89422607 C175.92507214 107.75588542 175.9156606 114.61737106 175.89648438 121.47900391 C175.87462076 129.39329687 175.88185583 137.30717905 175.90379 145.22146249 C175.92196614 152.05594008 175.92449466 158.89029447 175.91403532 165.72478843 C175.90782588 169.79035165 175.90689612 173.85572175 175.92018127 177.92127228 C175.93177547 181.73344081 175.92364991 185.54507951 175.90060425 189.35719109 C175.89534058 190.75031342 175.89679063 192.14348078 175.90565491 193.53658485 C175.95087235 201.36717341 175.70347197 207.10077219 171.375 213.75 C166.67362814 218.33082387 162.0800181 220.03687411 155.5625 220.0625 C149.64251315 219.93886391 144.45109819 219.41700073 139.84765625 215.42578125 C133.82766843 208.77762079 134.08036323 201.49745614 134.08789062 193.05102539 C134.08105759 191.87765121 134.07422455 190.70427704 134.06718445 189.49534607 C134.05006179 186.28349232 134.04150609 183.07174529 134.03614616 179.85985494 C134.02790426 176.47264148 134.00696179 173.08550977 133.98693848 169.698349 C133.93804002 161.06977129 133.90581009 152.44115826 133.875 143.8125 C133.84176723 134.55164653 133.80518794 125.29085714 133.75086927 116.03009981 C133.72427656 111.38928601 133.71210882 106.74856836 133.70275879 102.10768127 C134.89308203 65.23908993 134.89308203 65.23908993 120.5234375 32.6484375 C109.33225907 22.17064096 95.23404559 21.1532455 80.62109375 21.44140625 C67.63768781 22.00407498 55.86870454 26.82018997 46.6875 36.1875 C29.27640549 57.95136814 29.09191437 87.44878678 29.07003975 113.9348011 C29.06632111 117.55555229 29.0494529 121.17604275 29.02928162 124.79673767 C28.97435055 135.07627522 28.943094 145.35584714 28.91870117 155.63549805 C28.90280442 161.95869505 28.87258418 168.28169877 28.83393669 174.60479546 C28.82232843 177.00046168 28.81635671 179.39616241 28.81625557 181.79185677 C28.81606291 185.13626453 28.79775724 188.48013838 28.77563477 191.82446289 C28.78021194 192.80175858 28.78478912 193.77905426 28.789505 194.78596497 C28.7122241 202.15798218 27.78098478 208.75877568 23.0625 214.625 C16.12277577 220.11222381 10.0717995 220.70569225 1.375 219.75 C-3.98332896 218.18047372 -7.65678369 215.54481095 -10.625 210.75 C-13.18020405 204.99491166 -12.92464719 199.31703993 -12.92797852 193.1394043 C-12.93641785 191.97589951 -12.94485718 190.81239471 -12.95355225 189.6136322 C-12.97933576 185.76715681 -12.99148026 181.92075847 -13.00390625 178.07421875 C-13.0200929 175.38823811 -13.0371361 172.70227742 -13.05540466 170.01631165 C-13.09701854 163.65837449 -13.1294321 157.30042926 -13.15787882 150.94242078 C-13.20873108 139.60405328 -13.27176925 128.26575865 -13.34321922 116.92750293 C-13.37174866 112.32600782 -13.39213948 107.7245196 -13.41053772 103.12297058 C-11.95676825 64.99355543 -11.95676825 64.99355543 -27.22265625 31.79296875 C-39.93096467 20.98574061 -55.83305351 20.81770436 -71.625 21.75 C-84.09630593 23.23467928 -94.64394592 29.42717847 -102.66015625 39.0234375 C-110.54580423 49.96614583 -114.10823043 62.67538015 -116.3125 75.8125 C-116.43197998 76.50029541 -116.55145996 77.18809082 -116.67456055 77.89672852 C-119.10506803 93.76278572 -118.76509066 110.13368111 -118.79366493 126.13967133 C-118.80351777 130.51095067 -118.82939503 134.88209778 -118.85398388 139.25331497 C-118.89919436 147.34236596 -118.93742515 155.43133653 -118.95092773 163.52050781 C-118.9610152 169.1976983 -118.99032476 174.87451084 -119.03224754 180.55155182 C-119.04451499 182.69962966 -119.04968663 184.84776079 -119.04744911 186.9958725 C-119.045092 189.99082538 -119.06728242 192.98468714 -119.0949707 195.97949219 C-119.08506859 197.29182831 -119.08506859 197.29182831 -119.07496643 198.63067627 C-119.1815567 205.67114469 -120.94930019 211.14290788 -126.0625 216.125 C-132.81799475 220.40897228 -139.95336357 220.89683825 -147.75 219.3203125 C-152.53501983 217.59001515 -156.05602607 214.04487901 -158.625 209.75 C-160.41124809 204.53242521 -160.91315823 199.81844123 -160.88569641 194.30007935 C-160.88952196 193.47557089 -160.89334751 192.65106243 -160.89728898 191.80156887 C-160.90756611 189.05270537 -160.90363691 186.30405281 -160.8996582 183.55517578 C-160.90400761 181.5786215 -160.90919153 179.6020689 -160.91514587 177.6255188 C-160.9285227 172.26597677 -160.92911598 166.90650533 -160.92658257 161.54694986 C-160.92551194 157.06887969 -160.93039863 152.59082374 -160.935188 148.11275661 C-160.94627871 137.54602611 -160.94672308 126.97933116 -160.94067383 116.41259766 C-160.93463406 105.52046635 -160.94694618 94.62846422 -160.9682439 83.73635495 C-160.985871 74.37648195 -160.99185949 65.01665003 -160.98860615 55.65676105 C-160.98679488 50.07020166 -160.98941404 44.48373442 -161.00332069 38.89719009 C-161.01591234 33.64239438 -161.01394218 28.38779974 -161.00090981 23.13300705 C-160.99854737 21.20816225 -161.00126673 19.28330323 -161.00953293 17.35847473 C-161.02003042 14.72338096 -161.01187584 12.08895817 -160.9992218 9.45388794 C-161.00659609 8.69890679 -161.01397037 7.94392565 -161.02156812 7.16606629 C-160.95375353 0.41665675 -159.5958679 -5.7997318 -155.3125 -11.125 C-150.21584409 -15.15491398 -146.13457385 -16.66782614 -139.625 -16.625 C-137.8615625 -16.63660156 -137.8615625 -16.63660156 -136.0625 -16.6484375 C-130.89658202 -16.04966064 -127.67184859 -14.24815796 -123.9375 -10.6875 C-120.84490979 -6.74694151 -119.79021521 -2.04348695 -118.625 2.75 C-117.86058594 2.18152344 -117.09617187 1.61304688 -116.30859375 1.02734375 C-82.27415698 -23.73623742 -34.01881256 -26.50574147 0 0 Z " fill="#006426" transform="translate(1308.625,345.25)"/>
<path d="M0 0 C55.11 0 110.22 0 167 0 C171.44985251 8.89970501 171.44985251 8.89970501 173.33984375 13.2578125 C186.64815178 43.44168358 204.30929372 70.06407203 227 94 C227.47308594 94.50176758 227.94617188 95.00353516 228.43359375 95.52050781 C236.02494367 103.51816982 244.16740664 110.41213887 253 117 C253.78246094 117.60070313 254.56492187 118.20140625 255.37109375 118.8203125 C284.6113329 140.3986708 320.63389494 155.05947966 355 166 C355 167.32 355 168.64 355 170 C346.2940889 172.39534146 337.62391879 174.359595 328.6875 175.6875 C327.88924805 175.80649658 327.09099609 175.92549316 326.26855469 176.0480957 C315.80580943 177.53557291 305.45660248 178.16299126 294.890625 178.203125 C293.65782806 178.21013931 292.42503113 178.21715363 291.15487671 178.22438049 C287.1865677 178.24183064 283.21833922 178.24881547 279.25 178.25 C278.57477043 178.25044186 277.89954086 178.25088371 277.20384979 178.25133896 C256.9879472 178.25828394 237.04213664 177.98395526 217 175 C215.75847168 174.82307617 214.51694336 174.64615234 213.23779297 174.46386719 C156.4856617 166.23150241 99.42541042 147.00750196 57.46240234 106.41113281 C55.93195293 104.93433855 54.38198483 103.4797255 52.83203125 102.0234375 C39.97017933 89.75147268 29.50929184 75.58539681 21 60 C20.66162109 59.38366699 20.32324219 58.76733398 19.97460938 58.13232422 C10.91560904 41.4043518 0 19.33979717 0 0 Z " fill="#F36F21" transform="translate(351,1035)"/>
<path d="M0 0 C57.42 0 114.84 0 174 0 C177.96 10.89 181.92 21.78 186 33 C196.79659065 57.86855149 208.97383389 80.85183822 226 102 C226.45890625 102.57008789 226.9178125 103.14017578 227.390625 103.72753906 C251.60597213 133.5144118 283.8244902 154.00398573 319.95458984 166.38769531 C320.8564502 166.70061523 321.75831055 167.01353516 322.6875 167.3359375 C323.49574219 167.60970215 324.30398438 167.8834668 325.13671875 168.16552734 C327 169 327 169 328 171 C325.47973623 171.31773215 322.95891737 171.62915668 320.4375 171.9375 C319.40979492 172.06801758 319.40979492 172.06801758 318.36132812 172.20117188 C305.88738467 173.71146996 293.41087405 174.16078961 280.85546875 174.203125 C279.4441271 174.21010459 278.03278576 174.21714554 276.6214447 174.22424316 C272.14345909 174.24349446 267.6655225 174.24841707 263.1875 174.25 C262.04608677 174.25088371 262.04608677 174.25088371 260.88161469 174.25178528 C238.47439557 174.264041 216.23224587 174.15273902 194 171 C192.96101562 170.86078125 191.92203125 170.7215625 190.8515625 170.578125 C149.18120016 164.79355028 106.38866555 142.45422618 74 116 C73.23260498 115.38487549 73.23260498 115.38487549 72.44970703 114.75732422 C57.99314705 103.1498345 44.83450657 90.06819394 34 75 C33.58588867 74.43023438 33.17177734 73.86046875 32.74511719 73.2734375 C19.34773052 54.64449143 0 23.79593164 0 0 Z " fill="#FAA61A" transform="translate(153,1035)"/>
<path d="M0 0 C2.09123944 -0.00961489 4.18145501 -0.04065854 6.27246094 -0.07226562 C30.71688974 -0.2647031 54.20198652 8.08111203 72.62402344 24.24023438 C73.36910156 24.84222656 74.11417969 25.44421875 74.88183594 26.06445312 C91.67740549 40.02174699 101.88211731 60.72544344 104.62402344 82.24023438 C104.90060374 86.82456054 104.99572156 91.39431706 104.99462891 95.98510742 C104.99905524 98.06769577 105.0356631 100.14824563 105.07324219 102.23046875 C105.07910333 103.5735606 105.08307742 104.91666231 105.08496094 106.25976562 C105.09317871 107.45706299 105.10139648 108.65436035 105.10986328 109.88793945 C104.39413915 114.82643593 101.601744 119.18044933 97.62402344 122.24023438 C93.29733616 123.94947293 89.69353243 124.48830861 85.05606079 124.48074341 C83.75203308 124.48349274 82.44800537 124.48624207 81.10446167 124.48907471 C79.67169096 124.48199774 78.2389212 124.47472814 76.80615234 124.46728516 C75.28804532 124.46672063 73.76993776 124.4670384 72.25183105 124.46817017 C68.14069913 124.46874308 64.02968433 124.45699873 59.91857958 124.44302225 C55.61844511 124.43050465 51.31830784 124.42934358 47.01815796 124.42697144 C38.87974264 124.4207597 30.74138118 124.40435301 22.60298955 124.38427246 C13.33580335 124.36190394 4.06861454 124.35091763 -5.19859195 124.34088159 C-24.25775066 124.31998652 -43.31685928 124.28481648 -62.37597656 124.24023438 C-62.08275739 126.91403738 -61.78372338 129.58698388 -61.48144531 132.25976562 C-61.40019409 133.0061731 -61.31894287 133.75258057 -61.23522949 134.52160645 C-59.29550533 151.49995217 -53.7382492 168.96331881 -40.09863281 180.09960938 C-22.24854912 193.29682765 -0.77862281 196.44028909 20.8343277 196.69982529 C23.50933607 196.73313396 26.18383607 196.77960607 28.85858154 196.82962036 C36.45395931 196.96992702 44.04952253 197.09158597 51.64550781 197.19384766 C56.31516977 197.25762701 60.98419769 197.34018157 65.6533432 197.43423843 C67.42174632 197.46610603 69.19029409 197.49082815 70.95890045 197.50805283 C73.43288897 197.53252295 75.90539638 197.58086771 78.37890625 197.63427734 C79.09805206 197.63545563 79.81719788 197.63663391 80.55813599 197.6378479 C86.49438901 197.80662809 91.80918165 199.58120926 96.19313431 203.7224865 C100.75304866 208.9883826 100.9743707 213.44999147 100.90136719 220.15820312 C100.37129364 226.04873871 98.33178354 229.73105103 93.93652344 233.61523438 C85.52329824 237.74247693 76.86976156 237.53513684 67.69433594 237.50585938 C66.33698457 237.50721269 64.97963368 237.5091587 63.62228394 237.51165771 C60.77629992 237.51459577 57.93044191 237.5103662 55.08447266 237.50097656 C51.52487938 237.48977658 47.96559157 237.49621901 44.40600967 237.50785542 C-0.38978429 237.63202329 -43.47996027 235.43506448 -77.12988281 202.54882812 C-83.3189223 196.05742335 -88.00672901 189.0519194 -92.37597656 181.24023438 C-92.90964844 180.31984375 -93.44332031 179.39945313 -93.99316406 178.45117188 C-110.31271343 148.43334792 -110.97179683 109.44839947 -101.91894531 77.10351562 C-98.07874221 64.45894445 -92.32485253 52.80845424 -84.37597656 42.24023438 C-83.68890625 41.31984375 -83.00183594 40.39945312 -82.29394531 39.45117188 C-61.89161984 13.35089964 -32.94389797 0.09113111 0 0 Z M-27.37597656 41.24023438 C-28.28992187 41.59085937 -29.20386719 41.94148438 -30.14550781 42.30273438 C-42.28980074 47.67532479 -50.08287213 57.35140078 -55.37597656 69.24023438 C-57.52461554 74.90924229 -59.37597656 80.14789178 -59.37597656 86.24023438 C-19.44597656 86.24023438 20.48402344 86.24023438 61.62402344 86.24023438 C60.33505088 74.63948134 56.8226891 65.44140656 49.62402344 56.24023438 C49.09679688 55.56347656 48.56957031 54.88671875 48.02636719 54.18945312 C43.93875371 49.56281369 39.30834688 46.70532032 33.87402344 43.92773438 C33.24318848 43.60216553 32.61235352 43.27659668 31.96240234 42.94116211 C21.9757208 38.12557376 11.80649213 36.70023056 0.81152344 36.80273438 C-0.32414062 36.80958252 -1.45980469 36.81643066 -2.62988281 36.82348633 C-11.43258769 36.99117484 -19.11339296 38.02406867 -27.37597656 41.24023438 Z " fill="#006426" transform="translate(2352.3759765625,326.759765625)"/>
<path d="M0 0 C0.81111237 -0.0071553 1.62222473 -0.01431061 2.45791626 -0.02168274 C3.34457474 -0.02437164 4.23123322 -0.02706055 5.14476013 -0.02983093 C6.08188843 -0.03640213 7.01901672 -0.04297333 7.98454285 -0.04974365 C11.09581079 -0.06949743 14.2070301 -0.08115193 17.31834412 -0.09111023 C18.38534986 -0.09518576 19.45235561 -0.09926128 20.55169487 -0.10346031 C26.21341127 -0.12434276 31.87510337 -0.13862777 37.53684998 -0.147995 C43.34308202 -0.15898592 49.14892299 -0.19329397 54.95501804 -0.23316669 C59.45166656 -0.25953271 63.9482254 -0.26770504 68.44494438 -0.27127647 C70.58202148 -0.27610125 72.71909571 -0.28759534 74.85609627 -0.30631447 C95.71680952 -0.47749384 118.07607655 1.24640841 133.97459412 16.61201477 C147.34351511 33.32960576 149.14192826 54.93875032 149.17893982 75.51411438 C149.18521576 77.05584868 149.19186354 78.59758151 149.19885254 80.13931274 C149.21974823 85.17186966 149.23023632 90.2044264 149.24021912 95.23701477 C149.24427109 96.97682269 149.24838814 98.71663045 149.2525692 100.45643806 C149.2715833 108.62778108 149.28582624 116.79911525 149.29418117 124.97047609 C149.30396144 134.37764605 149.33031743 143.78458122 149.37068206 153.19166845 C149.40088678 160.48281832 149.41565387 167.77390098 149.41896218 175.06511217 C149.42130616 179.41151528 149.43018274 183.75766644 149.45542336 188.104002 C149.47878806 192.19255915 149.48290388 196.28069982 149.47266197 200.36930656 C149.47216866 201.86319367 149.47842826 203.35710191 149.49221802 204.85092545 C149.57408945 214.25113996 149.49414354 223.53978059 142.56443787 230.64717102 C136.13689335 234.40963611 130.36480905 235.06513938 123.00193787 234.14717102 C116.78876473 231.86561236 113.43370682 227.61655279 110.00193787 222.14717102 C109.67193787 222.80717102 109.34193787 223.46717102 109.00193787 224.14717102 C105.99430757 225.69952356 102.7889407 226.82196845 99.62693787 228.02217102 C98.68680847 228.3793219 97.74667908 228.73647278 96.77806091 229.10444641 C87.6854521 232.4447284 78.55076174 234.60100915 69.00193787 236.14717102 C68.08670349 236.29799133 67.17146912 236.44881165 66.22850037 236.60420227 C38.18006182 240.19401949 7.86049714 235.30205968 -14.87306213 217.89717102 C-27.3522454 207.0311957 -35.74462663 191.79436131 -36.99806213 175.14717102 C-38.20045041 153.81362016 -35.45829257 132.93574845 -21.01905823 116.17085266 C4.89426079 87.88735773 45.91539062 77.41434863 83.00193787 75.14717102 C91.33636264 74.87377882 99.66677985 74.93812204 108.00193787 75.14717102 C107.77858309 71.99886742 107.51826979 68.85460715 107.25193787 65.70967102 C107.19006287 64.83117493 107.12818787 63.95267883 107.06443787 63.04756165 C106.41985986 55.76920162 104.84575483 49.06582528 99.62693787 43.70967102 C93.8551731 40.27409675 88.6598078 39.85542949 82.1259613 39.87593079 C81.25357315 39.87070404 80.381185 39.86547729 79.48236084 39.86009216 C77.59505249 39.84988153 75.70771621 39.8440769 73.82038116 39.84221077 C70.82618202 39.83853413 67.83231025 39.8217706 64.83818054 39.80145264 C56.32756153 39.74617362 47.81689435 39.71541702 39.30613708 39.69087219 C34.09252105 39.6749331 28.87913708 39.64464629 23.66564178 39.60610771 C21.68667833 39.59451209 19.70767326 39.58852784 17.72867584 39.58842659 C-5.24324576 39.58682542 -5.24324576 39.58682542 -12.93556213 34.02217102 C-17.56081118 27.57485417 -18.59602498 21.4904306 -17.56837463 13.66279602 C-16.41032642 8.55469295 -14.0332568 5.92884862 -9.93556213 2.83467102 C-6.47265328 0.8453404 -3.92977359 0.0238577 0 0 Z M71.25193787 112.33467102 C70.22592468 112.46849182 69.1999115 112.60231262 68.14280701 112.7401886 C47.54071277 115.60402807 24.14235345 120.98016645 10.38475037 138.04560852 C3.33215481 148.76395996 1.86029866 159.9588184 4.27928162 172.35810852 C6.60264523 181.32503621 11.76707842 188.27531214 19.50193787 193.33467102 C36.85012146 203.15043602 62.01693248 204.10292881 81.09178162 199.11982727 C90.14551605 196.09381402 97.86373141 192.05634701 102.47068787 183.38154602 C107.11236654 172.85680949 108.30368987 162.99869988 108.19725037 151.57685852 C108.19442047 150.41461761 108.19159058 149.25237671 108.18867493 148.05491638 C108.17756445 144.37722565 108.15247687 140.69978697 108.12693787 137.02217102 C108.11689626 134.51436206 108.10777249 132.00654925 108.09959412 129.49873352 C108.07765509 123.38146139 108.04426951 117.26433422 108.00193787 111.14717102 C89.5842601 110.85380431 89.5842601 110.85380431 71.25193787 112.33467102 Z " fill="#006426" transform="translate(1927.998062133789,330.8528289794922)"/>
<path d="M0 0 C0.70615448 0.00054382 1.41230896 0.00108765 2.13986206 0.00164795 C13.30353306 0.04113853 23.79860218 0.7825391 34.4375 4.375 C35.09975586 4.59462402 35.76201172 4.81424805 36.44433594 5.04052734 C61.888244 13.74567071 82.50885214 33.21520326 94.51586914 57.05981445 C101.05618957 70.62934765 105.58672837 84.37514152 107.4375 99.375 C107.54835938 100.18066406 107.65921875 100.98632812 107.7734375 101.81640625 C111.64637136 135.2597135 105.87987395 172.77498349 84.765625 199.921875 C82.10982095 203.18579915 79.29750617 206.29027162 76.4375 209.375 C75.64730469 210.25800781 74.85710938 211.14101563 74.04296875 212.05078125 C58.4222838 228.70766421 35.34570587 239.4265189 12.4909668 240.51538086 C-19.88031222 241.45364489 -47.59773434 235.91433755 -71.79614258 213.30981445 C-78.22945441 207.00061796 -83.4997285 199.80260589 -88.5625 192.375 C-89.24183594 191.37855469 -89.92117187 190.38210938 -90.62109375 189.35546875 C-109.31861922 159.58101283 -111.45877211 119.57066555 -104.0402832 85.984375 C-99.39328533 66.34991495 -90.47036049 49.82296155 -77.5625 34.375 C-77.04429687 33.70984375 -76.52609375 33.0446875 -75.9921875 32.359375 C-57.54292813 9.55275287 -28.40919246 -0.08235392 0 0 Z M-45.20605469 57.79785156 C-62.2848385 77.65547277 -66.87663566 103.96351006 -65.5625 129.375 C-63.77496043 151.19248177 -56.18209453 170.70088682 -40.5625 186.375 C-39.93730469 187.02339844 -39.31210938 187.67179688 -38.66796875 188.33984375 C-27.53925894 199.04683403 -12.49547488 202.23397505 2.4375 202.375 C21.06094122 201.11205404 35.68263508 193.88430848 48.06396484 180.01904297 C65.96271852 158.59525924 68.38878052 130.60104322 66.23535156 103.86523438 C64.49931867 89.78043917 58.75543942 75.79004452 50.4375 64.375 C49.83164063 63.51261719 49.22578125 62.65023437 48.6015625 61.76171875 C39.45306237 49.45791959 26.30529221 41.90956513 11.375 38.96875 C9.39277758 38.68100804 7.43635018 38.50185011 5.4375 38.375 C4.7259375 38.32214844 4.014375 38.26929688 3.28125 38.21484375 C-15.26299852 37.50398089 -32.54464673 44.16588272 -45.20605469 57.79785156 Z " fill="#006426" transform="translate(2796.5625,326.625)"/>
<path d="M0 0 C2.24575861 -0.00898154 4.49151667 -0.01810362 6.73727417 -0.02735901 C11.42561287 -0.0437757 16.11388074 -0.0515366 20.80224609 -0.05444336 C26.79184183 -0.05984141 32.78076781 -0.09761241 38.77017403 -0.14318752 C43.40117811 -0.17299861 48.03202096 -0.1801677 52.66311264 -0.18116951 C54.87100185 -0.18535815 57.07889215 -0.19773751 59.28668594 -0.21868706 C62.37798264 -0.24570535 65.46772546 -0.24074614 68.55908203 -0.22827148 C69.90753708 -0.25052292 69.90753708 -0.25052292 71.28323364 -0.27322388 C78.02917393 -0.19615717 83.20576067 1.68981824 88.8671875 5.37109375 C93.83660273 10.81378662 93.33985235 16.59528852 93.3984375 23.75 C92.6333768 28.96478872 90.27092009 32.00529988 86.5546875 35.62109375 C80.48062027 39.57630032 74.29269275 39.66289518 67.2668457 39.64233398 C65.86045082 39.6501741 65.86045082 39.6501741 64.42564392 39.65817261 C62.39866614 39.66837743 60.37166241 39.67418685 58.34465981 39.676054 C55.12720804 39.67973412 51.91005999 39.69650758 48.69267273 39.71681213 C39.54785841 39.77205531 30.40299939 39.80283068 21.25805664 39.82739258 C15.65425582 39.84334675 10.05067018 39.87364956 4.44698143 39.91215706 C2.32174161 39.92373991 0.19646317 39.92973682 -1.92880821 39.92983818 C-19.87673547 39.15156401 -19.87673547 39.15156401 -35.9453125 45.62109375 C-37.66426529 49.60182652 -37.70858552 51.2884091 -36.1328125 55.37109375 C-31.03853392 60.35620922 -24.16101821 62.10821826 -17.44921875 63.8359375 C-16.61952072 64.05153824 -15.78982269 64.26713898 -14.9349823 64.48927307 C-6.82505152 66.54084597 1.35123302 68.02103718 9.59835815 69.39651489 C79.59242567 81.13886346 79.59242567 81.13886346 100.86328125 108.421875 C114.007527 127.76672011 114.61511292 151.13422838 110.48828125 173.41699219 C107.54033952 187.21936984 100.83826597 198.52225267 90.8671875 208.37109375 C90.26519531 208.995 89.66320312 209.61890625 89.04296875 210.26171875 C76.45652413 222.38402116 58.51637458 227.49506389 41.8046875 230.62109375 C40.93126709 230.78448242 40.05784668 230.94787109 39.15795898 231.11621094 C25.20824799 233.53775788 11.14994403 233.54472525 -2.9609375 233.57421875 C-4.34615726 233.57845982 -4.34615726 233.57845982 -5.75936127 233.58278656 C-10.63384779 233.59765396 -15.5083056 233.60696538 -20.3828125 233.61132812 C-25.38794152 233.61683656 -30.39280181 233.64095006 -35.39784622 233.66930008 C-39.27908089 233.68798338 -43.16025097 233.69313479 -47.04152679 233.694664 C-48.88655844 233.69767131 -50.73158947 233.70563406 -52.57657623 233.71884918 C-74.69315366 233.86614433 -74.69315366 233.86614433 -82.0703125 228.05859375 C-87.23177177 221.33305591 -88.1095486 215.73371067 -87.1328125 207.37109375 C-85.8281327 202.81577107 -83.96349933 200.0885051 -80.3828125 196.99609375 C-73.56269902 193.58603701 -67.08765472 193.07738196 -59.60595703 193.09985352 C-58.68760574 193.09462677 -57.76925446 193.08940002 -56.82307434 193.08401489 C-54.83978088 193.0738208 -52.85646102 193.06800255 -50.87314224 193.0661335 C-47.71697035 193.06244311 -44.56110528 193.04563942 -41.40499878 193.02537537 C-32.43477133 192.97024822 -23.46449803 192.9394615 -14.49414062 192.91479492 C-8.99290083 192.89876232 -3.49187637 192.86837537 2.00925064 192.83003044 C4.08766487 192.81850978 6.1661179 192.81245124 8.24456406 192.81234932 C35.66298846 193.15709376 35.66298846 193.15709376 59.7890625 181.7421875 C67.34365771 173.68270597 69.7889541 162.80326643 69.90234375 152.03125 C69.43525344 142.26792326 66.95276667 134.47611978 60.09130859 127.33544922 C51.37931763 119.64097289 39.90720825 117.68209625 28.8671875 115.55859375 C27.22221952 115.22791844 25.57761406 114.89543529 23.93334961 114.5612793 C19.51639416 113.66747806 15.09583182 112.79307962 10.67401123 111.92370605 C2.8784536 110.3889032 -4.91211967 108.82952804 -12.70043945 107.25845337 C-15.49720078 106.69823864 -18.29621103 106.15062697 -21.09570312 105.60424805 C-41.69927198 101.51962455 -64.52668852 95.89542608 -77.0703125 77.43359375 C-83.68501886 65.37700131 -84.18751362 50.46772195 -80.5703125 37.30859375 C-75.72199907 23.9503036 -66.20312782 14.8597899 -53.57250977 8.74462891 C-47.60740642 6.00060146 -41.52371206 3.86608245 -35.1328125 2.37109375 C-34.42139099 2.20446228 -33.70996948 2.03783081 -32.97698975 1.8661499 C-22.09227773 -0.30937175 -11.05039927 0.02293601 0 0 Z " fill="#006426" transform="translate(775.1328125,330.62890625)"/>
<path d="M0 0 C1.77697266 -0.02513672 1.77697266 -0.02513672 3.58984375 -0.05078125 C8.93686437 0.50858086 12.08377099 2.31152715 15.8125 6.125 C20.59286497 12.89718371 20.35654125 19.3249575 20.34960938 27.33447266 C20.35644241 28.54192642 20.36327545 29.74938019 20.37031555 30.99342346 C20.38389475 33.61418863 20.39394455 36.23468725 20.39802551 38.85545731 C20.40478131 43.02011831 20.42659264 47.18462006 20.45056152 51.34921265 C20.49946097 60.21193749 20.53171856 69.07469662 20.5625 77.9375 C20.59570812 87.46090789 20.63216327 96.98425324 20.68663073 106.50756681 C20.70591217 109.95885727 20.72129954 113.4100665 20.72697449 116.86140823 C19.50241337 154.6870325 19.50241337 154.6870325 34.0625 188.3125 C45.24816184 198.419771 60.38658573 200.10840104 74.82861328 199.48730469 C87.47627114 198.49760818 98.49279696 193.32265819 107.3125 184.25 C125.07715809 162.80864013 125.50280165 133.42245259 125.50390625 107.0546875 C125.51570781 104.56990798 125.5290787 102.08513548 125.54393005 99.60037231 C125.57980671 93.11690794 125.60023044 86.63350583 125.61547852 80.14996338 C125.64049059 69.74093041 125.68012075 59.33203474 125.73737907 48.92313004 C125.75361732 45.30653842 125.75747557 41.69007926 125.76039124 38.07345581 C125.77016925 35.8508888 125.78043281 33.62832386 125.79125977 31.40576172 C125.78870682 30.4113356 125.78615387 29.41690948 125.78352356 28.39234924 C125.84610011 19.81682335 126.48124722 12.1694677 132.0625 5.3125 C137.95373009 -0.00397593 142.82257987 -0.03647759 150.53515625 0.03515625 C156.76998811 0.52538113 160.3802041 2.36457844 164.4375 7.0625 C167.65990586 13.50731171 168.35940898 19.67773961 168.32992554 26.75532532 C168.33445665 27.56702641 168.33898776 28.37872751 168.34365618 29.2150256 C168.35624094 31.91464975 168.35468367 34.61407061 168.35302734 37.3137207 C168.35901627 39.25762184 168.36582266 41.2015206 168.37338257 43.14541626 C168.39101204 48.41205486 168.39573665 53.67862841 168.39701414 58.94529366 C168.39843796 62.23934046 168.40271192 65.53337085 168.40800858 68.82741356 C168.42649833 80.32953309 168.43468045 91.83160633 168.43310547 103.33374023 C168.43190417 114.03900218 168.45300706 124.74406248 168.4845928 135.44927341 C168.51078102 144.6546356 168.5214717 153.85993202 168.52019465 163.06533116 C168.5196858 168.55696057 168.5253269 174.04841067 168.54655075 179.54000282 C168.56597614 184.7070393 168.56602814 189.87372618 168.55151749 195.0407753 C168.54943368 196.93092169 168.55410463 198.82109021 168.5662384 200.71119881 C168.70128924 223.21608455 168.70128924 223.21608455 162.01947594 230.55707264 C156.55995116 235.64068843 152.29213988 236.69492834 144.9140625 236.578125 C139.48623119 236.0725188 135.83135518 234.38260126 132.2734375 230.21875 C129.50762384 226.28631352 127.7978371 223.10486936 127.0625 218.3125 C122.88779135 220.36664642 118.75651889 222.45820649 114.6875 224.71484375 C89.23918511 238.74397283 62.28528771 243.32706649 33.87207031 235.7265625 C14.77878601 230.01180581 0.52792314 217.69127019 -9.53125 200.60546875 C-12.58727139 194.90661253 -14.81943351 189.10826712 -16.6875 182.9375 C-16.98551514 181.96768188 -16.98551514 181.96768188 -17.28955078 180.97827148 C-20.57841403 169.4249768 -21.2364839 157.60994881 -21.22802734 145.66308594 C-21.2340315 144.25854137 -21.24084128 142.85400005 -21.24838257 141.44946289 C-21.2658436 137.68112748 -21.27072899 133.91288319 -21.27201414 130.14451122 C-21.27344604 127.7827964 -21.2777347 125.42110403 -21.28300858 123.05939484 C-21.30143258 114.80032402 -21.30968754 106.54131725 -21.30810547 98.28222656 C-21.30690141 90.61237768 -21.32807494 82.94280895 -21.3595928 75.273031 C-21.38580175 68.65692262 -21.39647106 62.04090565 -21.39519465 55.4247458 C-21.39468701 51.48642956 -21.40026185 47.54836376 -21.42155075 43.61009979 C-21.44101545 39.90966905 -21.44100222 36.20972601 -21.42651749 32.50927734 C-21.4234553 30.51936457 -21.44004177 28.52945126 -21.45739746 26.53961182 C-21.39845149 18.07148913 -20.64949223 10.11967152 -14.5 3.8125 C-9.56797634 0.92546176 -5.74399037 0.01871007 0 0 Z " fill="#006426" transform="translate(931.9375,328.6875)"/>
<path d="M0 0 C16.39539759 14.9995046 24.07340197 37.67407804 25.17496872 59.46046829 C25.45334243 68.88828091 25.44973161 78.31841122 25.43590808 87.74960828 C25.43278682 91.04278308 25.43893967 94.3359162 25.44494683 97.629085 C25.45890719 105.39607026 25.45749717 113.16294528 25.44604492 120.92993164 C25.43452247 128.9208329 25.44872757 136.91140013 25.4754414 144.9022575 C25.49761768 151.79611037 25.5042329 158.68985848 25.49836498 165.58374447 C25.49500479 169.6873716 25.49735005 173.79078377 25.51461601 177.89438057 C25.53011832 181.74506222 25.52609384 185.59524722 25.50731087 189.4459095 C25.50363661 190.85355029 25.50669944 192.26122824 25.51719666 193.66883469 C25.57136688 201.53574322 25.36020694 207.32306553 21 214 C16.31456561 218.56529505 11.68353051 220.28986199 5.1875 220.375 C-1.83258361 220.24547816 -6.46863802 218.59797677 -11.375 213.5625 C-14.01652488 209.39701845 -15.24728262 205.91581665 -15.27174377 200.97764587 C-15.2814621 199.98997726 -15.29118042 199.00230865 -15.30119324 197.98471069 C-15.30178238 196.91201935 -15.30237152 195.839328 -15.30297852 194.73413086 C-15.31141785 193.59509811 -15.31985718 192.45606537 -15.32855225 191.28251648 C-15.35437152 187.50995463 -15.36649118 183.73747148 -15.37890625 179.96484375 C-15.39509338 177.32946666 -15.41227464 174.69409551 -15.43040466 172.05873108 C-15.47205194 165.81412464 -15.50444418 159.56950991 -15.53287882 153.32483059 C-15.58365128 142.20394825 -15.64694164 131.08314183 -15.71821922 119.96237284 C-15.74665937 115.45278955 -15.76710691 110.94321228 -15.78553772 106.43357849 C-15.49788791 80.7547653 -15.49788791 80.7547653 -18.75 55.375 C-18.92700439 54.54581055 -19.10400879 53.71662109 -19.28637695 52.86230469 C-21.75470388 41.95829065 -25.69871791 34.56561088 -35 28 C-43.8103653 22.89606424 -53.27311552 21.62308598 -63.3125 21.6875 C-64.23530762 21.69313965 -65.15811523 21.6987793 -66.10888672 21.70458984 C-79.75479785 21.94685334 -91.43540401 25.61581683 -101.6875 34.9375 C-118.51916313 52.91540542 -121.13282564 79.79315189 -121.15771484 103.29541016 C-121.16279556 104.36520615 -121.16787628 105.43500214 -121.17311096 106.53721619 C-121.18373795 108.83969963 -121.19238758 111.14219291 -121.19923019 113.4446907 C-121.2111172 117.09423292 -121.23059102 120.74366195 -121.25234985 124.39315796 C-121.31366212 134.76239248 -121.36805829 145.131611 -121.40136719 155.50097656 C-121.42234053 161.86150541 -121.45765302 168.22181975 -121.50212479 174.5822258 C-121.51624929 176.99742482 -121.52499917 179.4126617 -121.52817917 181.82789993 C-121.53310212 185.20662104 -121.5562929 188.58477384 -121.58349609 191.96337891 C-121.58048996 192.95167191 -121.57748383 193.9399649 -121.5743866 194.95820618 C-121.66260266 202.35750382 -122.57499826 208.98513297 -127.3125 214.875 C-134.26238229 220.37025577 -140.29459777 220.93652249 -149 220 C-154.62577775 218.49020661 -157.88849854 215.55613777 -161.08984375 210.78125 C-163.37243191 206.31403883 -163.14586231 201.6593662 -163.14044189 196.7522583 C-163.14341302 195.91327334 -163.14638414 195.07428838 -163.1494453 194.20987964 C-163.15812777 191.39414146 -163.15964017 188.57844582 -163.16113281 185.76269531 C-163.16576131 183.74555368 -163.17078601 181.72841293 -163.17617798 179.71127319 C-163.18930106 174.22767705 -163.19574678 168.74409314 -163.20018864 163.26048374 C-163.20311956 159.83448942 -163.20722441 156.40849844 -163.21169281 152.9825058 C-163.2253676 142.26320449 -163.23503431 131.54391084 -163.2388947 120.82460141 C-163.24337531 108.45108245 -163.2609235 96.07767396 -163.2898953 83.70418859 C-163.31151248 74.13972855 -163.32159901 64.57529959 -163.32293582 55.01081538 C-163.32398383 49.29848024 -163.32989094 43.58624894 -163.34775543 37.87393951 C-163.36423663 32.49936622 -163.3663913 27.12497484 -163.35761642 21.75038528 C-163.35684608 19.77996712 -163.36118846 17.80953917 -163.37107468 15.83914566 C-163.38379993 13.14443993 -163.37791422 10.45037793 -163.36749268 7.75567627 C-163.37554908 6.98017213 -163.38360548 6.20466799 -163.39190602 5.40566373 C-163.33751103 -0.62861806 -162.26296252 -6.28958807 -158.28125 -11.05859375 C-157.6934375 -11.51363281 -157.105625 -11.96867187 -156.5 -12.4375 C-155.9121875 -12.91058594 -155.324375 -13.38367188 -154.71875 -13.87109375 C-149.13086404 -17.54131885 -141.39789686 -16.5798094 -135 -16 C-130.26791862 -14.42968133 -127.25159023 -11.82564791 -124.625 -7.625 C-123.02634231 -4.05876363 -121.92647305 -0.7830983 -121 3 C-120.36835938 2.5153125 -119.73671875 2.030625 -119.0859375 1.53125 C-85.79135383 -23.4157003 -33.54105902 -27.80020391 0 0 Z " fill="#006426" transform="translate(3100,345)"/>
<path d="M0 0 C42.9 0 85.8 0 130 0 C133.33892423 8.90379796 133.33892423 8.90379796 134.65625 13.15234375 C150.47865238 63.06176077 178.27334548 108.82384686 222 139 C222.72058594 139.50047852 223.44117188 140.00095703 224.18359375 140.51660156 C243.83597655 153.9779657 265.47970421 163.45144892 288 171 C288 171.33 288 171.66 288 172 C236.89557897 179.23448769 177.24230672 164.72206779 131.29492188 142.12695312 C128.87942285 140.94078892 126.44866068 139.79034256 124.015625 138.640625 C96.78976478 125.5983908 72.84789039 107.7128387 51 87 C50.24589844 86.2884375 49.49179687 85.576875 48.71484375 84.84375 C43.3261059 79.6157101 38.65895373 73.87804663 34 68 C33.2059375 67.03449219 32.411875 66.06898437 31.59375 65.07421875 C18.50887879 48.78024146 0 21.70943887 0 0 Z " fill="#FFDD00" transform="translate(0,1035)"/>
<path d="M0 0 C2.04162263 -0.00457399 4.08324374 -0.00988312 6.12486267 -0.0158844 C10.36805552 -0.0247442 14.61105936 -0.02246937 18.85424805 -0.01245117 C24.27774718 -0.00088961 29.70060211 -0.02131874 35.12401676 -0.05036831 C39.32517081 -0.06873524 43.52616992 -0.06843822 47.72735405 -0.06273079 C49.72754263 -0.06257807 51.72774203 -0.06858148 53.72789192 -0.08102226 C56.51960885 -0.09596384 59.31012632 -0.08523711 62.10180664 -0.06811523 C62.91595535 -0.0777832 63.73010406 -0.08745117 64.56892395 -0.09741211 C71.39467597 -0.01011679 76.72204594 1.94554062 81.65234375 6.74609375 C85.38469006 12.91882034 85.83823452 18.53965952 84.27734375 25.43359375 C82.0652756 30.55627788 78.18331883 34.17329631 73.09765625 36.37890625 C67.05223024 38.47546813 61.17237142 39.57266867 54.75708008 39.51538086 C53.6976973 39.50884995 52.63831451 39.50231903 51.54682922 39.49559021 C50.41246933 39.48415482 49.27810944 39.47271942 48.109375 39.4609375 C45.66341296 39.44827346 43.21744934 39.43591385 40.77148438 39.42382812 C36.94989952 39.39921676 33.12839989 39.37143465 29.30688477 39.33764648 C-14.78964544 38.6000984 -14.78964544 38.6000984 -52.5390625 58.98828125 C-63.83524671 71.63839093 -68.33874597 87.67197768 -67.90234375 104.44921875 C-66.53285485 127.19464316 -60.1287759 146.9731492 -43.72265625 163.43359375 C-42.9853125 164.19414062 -42.24796875 164.9546875 -41.48828125 165.73828125 C-20.82403716 185.77843743 9.86527399 192.44417176 37.7421875 192.64453125 C39.94597109 192.67259018 42.14974704 192.70125457 44.35351562 192.73046875 C47.78735209 192.77170129 51.22104425 192.80864127 54.6550293 192.83496094 C57.99687141 192.86271988 61.33808969 192.90857165 64.6796875 192.95703125 C65.69353012 192.96028412 66.70737274 192.96353699 67.75193787 192.96688843 C75.49825867 193.09901858 83.45067699 193.94152496 89.77734375 198.80859375 C94.94363082 204.23319518 94.71026717 209.84766931 94.58984375 217.04296875 C94.04369076 222.96872874 92.13937073 225.83138448 87.58984375 229.74609375 C80.50579931 233.35494658 73.15214589 233.73476427 65.3203125 233.69921875 C64.38722763 233.70199326 63.45414276 233.70476776 62.49278259 233.70762634 C59.48331665 233.71176059 56.47426775 233.69923139 53.46484375 233.68359375 C52.43800476 233.68082428 51.41116577 233.67805481 50.35321045 233.67520142 C4.07407522 233.52851135 -36.74412107 228.56838084 -71.72265625 195.43359375 C-72.68171875 194.55058594 -73.64078125 193.66757812 -74.62890625 192.7578125 C-97.1142991 171.60194636 -111.00844357 140.66327206 -112.07421875 109.85546875 C-112.76319063 78.42474889 -106.83994516 51.34920667 -84.66015625 27.93359375 C-78.62555208 22.01503966 -72.01616351 17.65750065 -64.72265625 13.43359375 C-63.88089844 12.94117188 -63.03914063 12.44875 -62.171875 11.94140625 C-43.00664751 1.56963608 -21.31359562 -0.0423695 0 0 Z " fill="#006426" transform="translate(2585.72265625,330.56640625)"/>
<path d="M0 0 C4.59091882 5.83170769 5.50564654 10.66812517 5 18 C3.44167464 22.5970598 1.90397025 26.04564414 -2 29 C-10.33210279 32.80717805 -19.45878245 33.78992278 -28.43505859 35.22412109 C-41.9031714 37.39659283 -54.67989434 40.18407492 -64 51 C-77.08643615 69.38812054 -75.28824916 99.05945045 -75.30496025 120.37114143 C-75.30867937 124.18547039 -75.32554911 127.99955195 -75.34571838 131.81382751 C-75.39368232 141.27053654 -75.42581364 150.72727514 -75.44702148 160.18408203 C-75.46504708 168.21809886 -75.49446686 176.25185106 -75.54106331 184.28576469 C-75.55266735 186.80899547 -75.55864325 189.33225897 -75.55874443 191.85551643 C-75.55893722 195.37921428 -75.57725267 198.90240645 -75.59936523 202.42602539 C-75.59478806 203.45425919 -75.59021088 204.48249298 -75.585495 205.54188538 C-75.65839507 212.87694201 -76.29840426 220.48848028 -80.90234375 226.47265625 C-81.57394531 226.99730469 -82.24554687 227.52195312 -82.9375 228.0625 C-83.94103516 228.88427734 -83.94103516 228.88427734 -84.96484375 229.72265625 C-90.28716617 233.0631542 -96.94106011 232.55928676 -103 232 C-108.36289142 230.40843222 -111.97875775 227.76426663 -115 223 C-118.14920105 216.7015979 -118.14842296 209.77231498 -118.13371277 202.86051941 C-118.13597833 202.06938494 -118.13824388 201.27825046 -118.14057809 200.46314222 C-118.14687944 197.8272197 -118.14609122 195.19134911 -118.14526367 192.55541992 C-118.14825757 190.65930617 -118.15166064 188.76319303 -118.15544128 186.86708069 C-118.1642619 181.72648858 -118.16661858 176.58591312 -118.16725707 171.44531417 C-118.16796866 168.23085276 -118.17010506 165.01639556 -118.17275429 161.8019352 C-118.18200124 150.57978675 -118.18608998 139.35765017 -118.18530273 128.13549805 C-118.18470209 117.68762058 -118.19525297 107.23979477 -118.2110464 96.79193038 C-118.22413711 87.81081309 -118.22948599 78.82971266 -118.22884732 69.8485859 C-118.22859279 64.48948971 -118.23141936 59.13043943 -118.24202538 53.77135277 C-118.25173213 48.72917412 -118.25176787 43.68708506 -118.24450874 38.64490318 C-118.24346611 36.79949309 -118.24580662 34.95407734 -118.2518692 33.10867691 C-118.32716296 8.59259555 -118.32716296 8.59259555 -112 1 C-106.10876991 -4.31647593 -101.23992013 -4.34897759 -93.52734375 -4.27734375 C-88.90881151 -3.91420334 -85.59891927 -2.93715326 -82 0 C-78.64981689 3.95149802 -77.72316181 6.95893028 -77 12 C-75.31197266 11.00419922 -75.31197266 11.00419922 -73.58984375 9.98828125 C-63.94524548 4.40161944 -54.7735186 -0.05824881 -44 -3 C-43.16082031 -3.23203125 -42.32164062 -3.4640625 -41.45703125 -3.703125 C-28.75088733 -6.85155004 -10.63090593 -9.11220509 0 0 Z " fill="#006426" transform="translate(2239,333)"/>
<path d="M0 0 C4.95 0 9.9 0 15 0 C19.95 25.08 24.9 50.16 30 76 C38.30625264 42.31751394 38.30625264 42.31751394 46.38720703 8.58032227 C46.5932959 7.70947998 46.79938477 6.8386377 47.01171875 5.94140625 C47.18147217 5.21638916 47.35122559 4.49137207 47.52612305 3.74438477 C48 2 48 2 49 0 C52.63 0 56.26 0 60 0 C66.22599025 24.61479388 72.20881802 49.2793704 78 74 C79.49219795 69.76278275 80.59230688 65.58326697 81.49633789 61.18432617 C81.63157364 60.53156708 81.76680939 59.87880798 81.90614319 59.20626831 C82.19690827 57.80052828 82.48602417 56.39444629 82.77363777 54.98805809 C83.2284899 52.76445012 83.68792359 50.54183193 84.14854431 48.31941223 C85.29018806 42.80652821 86.42411615 37.29206311 87.55804443 31.77758789 C88.51944385 27.10349608 89.48385971 22.43004737 90.45245171 17.75744057 C90.90585488 15.5637797 91.35473245 13.36922314 91.80348206 11.17460632 C92.07978155 9.83925795 92.35629455 8.50395374 92.63305664 7.16870117 C92.99373985 5.41380623 92.99373985 5.41380623 93.36170959 3.62345886 C94 1 94 1 95 0 C97.18639453 -0.07258946 99.37500389 -0.08373783 101.5625 -0.0625 C103.35880859 -0.04896484 103.35880859 -0.04896484 105.19140625 -0.03515625 C106.11824219 -0.02355469 107.04507812 -0.01195312 108 0 C106.31484108 10.36821701 103.85362935 20.55872422 101.46484375 30.78125 C101.02150258 32.68643847 100.57835498 34.59167199 100.13539124 36.49694824 C99.21161859 40.46775246 98.28607086 44.43813712 97.35913086 48.40820312 C96.17043749 53.49965204 94.98538491 58.59193975 93.80153561 63.68451691 C92.88905063 67.6086252 91.97509327 71.53238932 91.06064034 75.45603943 C90.62290485 77.33466823 90.18552885 79.21338084 89.74851799 81.09217834 C89.13968814 83.7082738 88.52898192 86.32392395 87.91772461 88.93945312 C87.6473085 90.10359741 87.6473085 90.10359741 87.37142944 91.29125977 C86.68009881 94.24219514 85.95907462 97.12277613 85 100 C80.71 100 76.42 100 72 100 C70.40007967 93.47960658 68.80100921 86.95900545 67.20263672 80.43823242 C66.66183948 78.2324497 66.12083288 76.0267183 65.57958984 73.82104492 C64.78944973 70.60089291 64.00013313 67.38053985 63.2109375 64.16015625 C62.97941986 63.2173732 62.74790222 62.27459015 62.5093689 61.30323792 C59.62984333 49.54562866 56.82509845 37.77124355 54 26 C48.06 50.42 42.12 74.84 36 100 C31.71 100 27.42 100 23 100 C19.90754744 88.70616108 17.1287742 77.35582672 14.453125 65.95703125 C14.03292464 64.17199647 13.61265558 62.38697785 13.19232178 60.60197449 C12.32013762 56.89542372 11.44977871 53.18844992 10.58056641 49.48120117 C9.46656542 44.73123473 8.3463497 39.98275697 7.22462845 35.23460865 C6.35858415 31.56451549 5.49656968 27.89348467 4.63570404 24.22217369 C4.22407166 22.46954532 3.81100292 20.71725364 3.39646149 18.96531105 C2.82030741 16.52837886 2.2497812 14.09019504 1.68066406 11.65161133 C1.50928421 10.93214828 1.33790436 10.21268524 1.16133118 9.47142029 C0.39965724 6.1824405 0 3.40325165 0 0 Z " fill="#020405" transform="translate(1905,687)"/>
<path d="M0 0 C4.95 0 9.9 0 15 0 C19.95 24.75 24.9 49.5 30 75 C31.78732432 69.63802703 33.42167435 64.67650392 34.70166016 59.24267578 C34.99851715 57.99173126 35.29537415 56.74078674 35.60122681 55.45193481 C35.91388599 54.11640511 36.22649676 52.78086407 36.5390625 51.4453125 C36.86828525 50.0527929 37.19791277 48.66036894 37.52792358 47.26803589 C38.38918661 43.63034169 39.24579227 39.99156818 40.10113525 36.35247803 C41.47571715 30.50774237 42.85734995 24.66467019 44.23920822 18.82165146 C44.71984881 16.78624352 45.1984169 14.75035693 45.67666626 12.71438599 C45.96721893 11.48235443 46.25777161 10.25032288 46.55712891 8.98095703 C46.93993515 7.3528862 46.93993515 7.3528862 47.33047485 5.69192505 C48 3 48 3 49 0 C52.63 0 56.26 0 60 0 C61.47196457 4.23335053 62.65157726 8.45412445 63.67993164 12.81567383 C63.91204597 13.79481247 63.91204597 13.79481247 64.14884949 14.79373169 C64.48176911 16.19951979 64.81345921 17.60559954 65.14402962 19.01194191 C65.66684322 21.23547096 66.19322797 23.45812764 66.7205658 25.68058777 C68.02799933 31.19358944 69.33020664 36.70782147 70.63092041 42.22241211 C71.73341977 46.89656359 72.83867347 51.57004414 73.94808769 56.24255943 C74.46771812 58.4361849 74.98316177 60.63076837 75.49855042 62.82539368 C75.8152976 64.16074846 76.13225666 65.49605301 76.44946289 66.83129883 C76.72544815 68.00122879 77.00143341 69.17115875 77.28578186 70.37654114 C77.74148448 72.9069946 77.74148448 72.9069946 79 74 C79.18570053 73.11716843 79.37140106 72.23433685 79.56272888 71.32475281 C81.31188698 63.01069388 83.06272548 54.696991 84.81545925 46.38368511 C85.71652653 42.10958235 86.61694018 37.83534406 87.51586914 33.56079102 C88.38317678 29.43672117 89.25218947 25.31301401 90.12239265 21.18955421 C90.45432529 19.61520026 90.78564016 18.04071593 91.1163311 16.46610069 C91.57910008 14.26310501 92.04405024 12.06058036 92.50952148 9.8581543 C92.77377426 8.60350876 93.03802704 7.34886322 93.31028748 6.05619812 C94 3 94 3 95 0 C99.29 0 103.58 0 108 0 C107.36463785 5.83420931 106.3226067 11.42988301 104.97460938 17.13818359 C104.6695623 18.45184906 104.6695623 18.45184906 104.35835266 19.79205322 C103.69084487 22.6618037 103.0174493 25.53013478 102.34375 28.3984375 C101.8764634 30.39996777 101.40946745 32.40156592 100.94274902 34.40322876 C99.96684819 38.58469297 98.98815222 42.76548964 98.00732422 46.94580078 C96.74846038 52.31167088 95.49551636 57.6789018 94.24449921 63.04660606 C93.28222892 67.17332467 92.31741481 71.29944507 91.35176086 75.42537308 C90.88859715 77.40523512 90.42610172 79.38525362 89.96427917 81.36542892 C89.32048982 84.1236086 88.67341834 86.8809971 88.02539062 89.63818359 C87.83419144 90.45999115 87.64299225 91.28179871 87.44599915 92.12850952 C86.1144031 97.77119381 86.1144031 97.77119381 85 100 C80.71 100 76.42 100 72 100 C71.78924332 99.1296965 71.57848663 98.25939301 71.36134338 97.36271667 C69.376256 89.16644575 67.38993979 80.97047382 65.40223789 72.77483654 C64.38035249 68.56123718 63.35894491 64.34752319 62.33862305 60.13354492 C61.35419385 56.06788154 60.36851776 52.00252234 59.38197136 47.93737221 C59.00554795 46.38532624 58.62957622 44.83317066 58.25406075 43.28090477 C57.72858831 41.10909826 57.2015206 38.93768478 56.67407227 36.76635742 C56.3742897 35.52947678 56.07450714 34.29259613 55.76564026 33.01823425 C55.03452121 29.98147429 55.03452121 29.98147429 54 27 C53.78924332 27.8703035 53.57848663 28.74060699 53.36134338 29.63728333 C51.376256 37.83355425 49.38993979 46.02952618 47.40223789 54.22516346 C46.38035249 58.43876282 45.35894491 62.65247681 44.33862305 66.86645508 C43.35419385 70.93211846 42.36851776 74.99747766 41.38197136 79.06262779 C41.00554795 80.61467376 40.62957622 82.16682934 40.25406075 83.71909523 C39.72858831 85.89090174 39.2015206 88.06231522 38.67407227 90.23364258 C38.3742897 91.47052322 38.07450714 92.70740387 37.76564026 93.98176575 C37 97 37 97 36 100 C31.71 100 27.42 100 23 100 C17.4920124 77.6766217 12.1582961 55.31345666 6.91803741 32.92588806 C6.43670958 30.87162656 5.95409673 28.81767079 5.47113037 26.76379395 C4.55869535 22.8825441 3.65203545 18.99995842 2.74609375 15.1171875 C2.46838638 13.93750397 2.19067902 12.75782043 1.90455627 11.54238892 C1.65302292 10.45960663 1.40148956 9.37682434 1.14233398 8.26123047 C0.92077133 7.31359833 0.69920868 6.36596619 0.47093201 5.38961792 C0 3 0 3 0 0 Z " fill="#020405" transform="translate(2562,687)"/>
<path d="M0 0 C4.62 0 9.24 0 14 0 C16.32538694 9.00896959 18.30431949 18.0513882 20.13671875 27.171875 C20.42365579 28.58966824 20.71083582 30.00741231 20.99824524 31.42510986 C21.74534056 35.11357049 22.48918626 38.80267877 23.2322998 42.49194336 C23.99465776 46.27368043 24.76016637 50.05477958 25.52539062 53.8359375 C27.01996854 61.22334613 28.51110556 68.61144355 30 76 C30.33492714 74.59392235 30.33492714 74.59392235 30.67662048 73.15943909 C32.77697605 64.34388205 34.88108526 55.52922844 36.98891354 46.71545506 C38.07255651 42.18372043 39.15485465 37.65167326 40.23413086 33.11889648 C41.27490876 28.74802198 42.31915182 24.37798896 43.36584663 20.00852776 C43.7654134 18.33779597 44.16371104 16.66676016 44.56074333 14.99542427 C45.11522516 12.66223913 45.67412943 10.33015653 46.23413086 7.99829102 C46.39884888 7.3005809 46.56356689 6.60287079 46.73327637 5.88401794 C47.88594784 1.11405216 47.88594784 1.11405216 49 0 C52.63 0 56.26 0 60 0 C65.94 25.08 71.88 50.16 78 76 C83.28 50.92 88.56 25.84 94 0 C98.62 0 103.24 0 108 0 C105.33886056 12.90511816 102.479667 25.75021561 99.453125 38.57421875 C99.03266547 40.36305816 98.61240169 42.1519436 98.19232178 43.94087219 C97.10270501 48.57875505 96.01048677 53.21602119 94.91766357 57.85314941 C93.79635413 62.61330737 92.67759167 67.37406386 91.55859375 72.13476562 C89.37484195 81.42375367 87.18833235 90.71209007 85 100 C80.71 100 76.42 100 72 100 C69.26051943 90.62173989 66.77728284 81.24130712 64.546875 71.7265625 C64.23899305 70.42370999 63.93082057 69.1209261 63.62237549 67.81820679 C62.82386741 64.44232329 62.02922235 61.06554283 61.23547363 57.6885376 C60.4198035 54.22147807 59.60035167 50.75531261 58.78125 47.2890625 C57.18386899 40.52689534 55.59058114 33.76376976 54 27 C49.21786606 43.47709604 45.30765518 60.15045421 41.35498047 76.84204102 C40.49474628 80.46960567 39.63033021 84.09615525 38.765625 87.72265625 C38.37035614 89.40198997 38.37035614 89.40198997 37.96710205 91.11524963 C37.72304626 92.13819626 37.47899048 93.16114288 37.22753906 94.21508789 C37.01389709 95.11787979 36.80025513 96.02067169 36.58013916 96.95082092 C36 99 36 99 35 100 C32.98035801 100.07244053 30.95832876 100.08377188 28.9375 100.0625 C27.83277344 100.05347656 26.72804688 100.04445313 25.58984375 100.03515625 C24.73519531 100.02355469 23.88054688 100.01195312 23 100 C20.94150612 94.11255167 19.22502587 88.23874664 17.82348633 82.16308594 C17.53022209 80.91495117 17.53022209 80.91495117 17.23103333 79.64160156 C16.59367697 76.9235232 15.96257728 74.20404064 15.33203125 71.484375 C14.88812948 69.58102477 14.44400868 67.67772561 13.99967957 65.7744751 C13.07317025 61.80115768 12.14987351 57.82711064 11.22875977 53.85253906 C10.04847889 48.76121938 8.85928331 43.67202955 7.66759205 38.58337021 C6.75006764 34.66035557 5.83769125 30.73615738 4.92682457 26.8115921 C4.49033829 24.93413277 4.05215077 23.05706811 3.61222267 21.18041229 C2.9989555 18.56125078 2.39274735 15.94055175 1.78833008 13.31933594 C1.60602844 12.54728821 1.42372681 11.77524048 1.23590088 10.97979736 C0.35946815 7.14426352 0 3.98267756 0 0 Z " fill="#020405" transform="translate(921,687)"/>
<path d="M0 0 C4.62 0 9.24 0 14 0 C14 36.3 14 72.6 14 110 C1.83928679 115.40476142 -12.11088873 117.74119485 -25.1875 113.4375 C-33.87493713 109.55101497 -38.87160939 103.91494595 -42.80859375 95.30078125 C-47.49309814 82.32240024 -47.32051478 66.78711956 -42 54 C-38.34706379 46.23391515 -31.94053934 39.24143374 -23.875 36 C-16.43235738 33.94504027 -7.42012608 34.14496848 0 36 C0 24.12 0 12.24 0 0 Z M-24.8125 49.6875 C-32.35182729 59.04725711 -32.66621347 70.4029507 -32 82 C-30.89427776 89.90872514 -28.70241646 96.26878346 -23 102 C-18.71923118 105.15961508 -14.82552589 106.14189319 -9.5625 106.1875 C-8.82128906 106.20167969 -8.08007812 106.21585938 -7.31640625 106.23046875 C-4.46710685 106.05522992 -4.46710685 106.05522992 0 104 C0 84.2 0 64.4 0 44 C-9.71272759 42.05745448 -17.75294066 42.13851743 -24.8125 49.6875 Z " fill="#020405" transform="translate(2882,673)"/>
<path d="M0 0 C4.62 0 9.24 0 14 0 C14 36.3 14 72.6 14 110 C1.83928679 115.40476142 -12.11088873 117.74119485 -25.1875 113.4375 C-33.87493713 109.55101497 -38.87160939 103.91494595 -42.80859375 95.30078125 C-47.49309814 82.32240024 -47.32051478 66.78711956 -42 54 C-38.34706379 46.23391515 -31.94053934 39.24143374 -23.875 36 C-16.43235738 33.94504027 -7.42012608 34.14496848 0 36 C0 24.12 0 12.24 0 0 Z M-24.8125 49.6875 C-32.35182729 59.04725711 -32.66621347 70.4029507 -32 82 C-30.89427776 89.90872514 -28.70241646 96.26878346 -23 102 C-18.71923118 105.15961508 -14.82552589 106.14189319 -9.5625 106.1875 C-8.82128906 106.20167969 -8.08007812 106.21585938 -7.31640625 106.23046875 C-4.46710685 106.05522992 -4.46710685 106.05522992 0 104 C0 84.2 0 64.4 0 44 C-9.71272759 42.05745448 -17.75294066 42.13851743 -24.8125 49.6875 Z " fill="#020405" transform="translate(2220,673)"/>
<path d="M0 0 C4.29 0 8.58 0 13 0 C13 36.3 13 72.6 13 110 C1.28338179 115.20738587 -13.07990601 118.04715155 -25.6875 113.4375 C-34.25918812 109.20401355 -40.51940045 102.52154062 -43.6875 93.5 C-48.00823226 80.17573069 -47.26331793 64.8071248 -41.1875 52.1640625 C-36.73840883 44.05617925 -31.55657301 38.90302679 -22.7265625 35.87890625 C-18.78743241 34.94986613 -15.35371391 34.76755222 -11.3125 34.8125 C-9.38857422 34.82216797 -9.38857422 34.82216797 -7.42578125 34.83203125 C-4 35 -4 35 0 36 C0 24.12 0 12.24 0 0 Z M-23.6875 48.0625 C-32.31950745 59.02748244 -32.88415133 70.5873015 -32 84 C-30.78520894 91.29767868 -28.06570279 97.1701205 -22.5625 102.25 C-16.90186718 106.11579802 -11.76141452 106.71840029 -5 106 C-3.35 105.34 -1.7 104.68 0 104 C0 84.53 0 65.06 0 45 C-9.03229192 41.98923603 -16.07321824 42.21898144 -23.6875 48.0625 Z " fill="#020405" transform="translate(1236,673)"/>
<path d="M0 0 C5.44023168 5.68751494 7.25894682 10.55802896 7.22705078 18.37255859 C7.22689972 19.61339203 7.22674866 20.85422546 7.22659302 22.13265991 C7.21638225 23.47125411 7.2059503 24.80984663 7.1953125 26.1484375 C7.19157813 27.52991531 7.18873316 28.91139578 7.18673706 30.2928772 C7.17913392 33.91293771 7.15951437 37.53283543 7.1373291 41.15283203 C7.11679878 44.85316771 7.10772004 48.55352992 7.09765625 52.25390625 C7.07626496 59.50268665 7.04111033 66.75129969 7 74 C2.38 74 -2.24 74 -7 74 C-7.01458252 72.14802002 -7.02916504 70.29604004 -7.04418945 68.38793945 C-7.09588781 62.26101737 -7.16118631 56.13435762 -7.23571491 50.00767231 C-7.28039482 46.29395541 -7.31965586 42.58034761 -7.34643555 38.86645508 C-7.37249278 35.28063327 -7.41291143 31.69523181 -7.46318626 28.10967064 C-7.47983879 26.74343288 -7.49136315 25.37712244 -7.49761391 24.0107975 C-7.50727161 22.09342502 -7.5370458 20.17618611 -7.56762695 18.2590332 C-7.58428154 16.62355278 -7.58428154 16.62355278 -7.60127258 14.95503235 C-8.057412 11.5745105 -8.94999964 9.70993415 -11 7 C-17.91017386 3.16101452 -24.33451233 3.86747925 -32 5 C-32.99 5.33 -33.98 5.66 -35 6 C-35.33 28.44 -35.66 50.88 -36 74 C-40.62 74 -45.24 74 -50 74 C-50 49.25 -50 24.5 -50 -1 C-34.81901609 -5.67107197 -13.82484752 -11.31123888 0 0 Z " fill="#020405" transform="translate(1167,713)"/>
<path d="M0 0 C4.62 0 9.24 0 14 0 C14.0093457 1.78615723 14.01869141 3.57231445 14.02832031 5.41259766 C14.06390638 11.32799949 14.11774175 17.24308559 14.18390274 23.15821266 C14.22333601 26.74302571 14.25554438 30.32759467 14.27099609 33.91259766 C14.28619074 37.3753274 14.32068408 40.83738592 14.36830902 44.29981613 C14.39026753 46.25719741 14.39247133 48.21476819 14.39434814 50.17227173 C14.48469005 58.89874974 14.48469005 58.89874974 19 66 C22.28515142 68.41698244 25.44053836 68.26848306 29.4375 68.25 C31.10619141 68.25773438 31.10619141 68.25773438 32.80859375 68.265625 C36.39886938 68.12378115 36.39886938 68.12378115 41 66 C41.33 44.22 41.66 22.44 42 0 C46.62 0 51.24 0 56 0 C56 24.09 56 48.18 56 73 C46.29496871 77.85251564 39.19915437 79.35942627 28.5 79.375 C27.61441406 79.39949219 26.72882812 79.42398438 25.81640625 79.44921875 C18.08908758 79.4832598 12.05759187 77.59230615 6.125 72.5625 C1.28668244 66.72805824 -0.12900965 62.44067171 -0.11352539 54.94628906 C-0.11344986 53.72532532 -0.11337433 52.50436157 -0.11329651 51.24639893 C-0.10813522 49.93274353 -0.10297394 48.61908813 -0.09765625 47.265625 C-0.09579021 45.9037074 -0.09436718 44.54178912 -0.09336853 43.17987061 C-0.08955803 39.60258111 -0.07974032 36.02533248 -0.06866455 32.44805908 C-0.05841884 28.79480543 -0.05386415 25.14154514 -0.04882812 21.48828125 C-0.03811669 14.32550008 -0.02053182 7.16276098 0 0 Z " fill="#020405" transform="translate(2418,709)"/>
<path d="M0 0 C7.43760007 6.96331833 10.64359272 18.5541419 10.98828125 28.42578125 C11.00273811 30.38797147 11.00645047 32.35026713 11 34.3125 C11.01611328 35.28123047 11.03222656 36.24996094 11.04882812 37.24804688 C11.05614318 48.21331656 8.5845054 59.41092551 1.08984375 67.78515625 C-6.39499939 74.72440718 -13.82973476 75.51744679 -23.75 75.28125 C-30.46084282 74.75144662 -35.65807576 72.57927013 -40.64453125 67.9921875 C-48.66002707 58.41864449 -50.70142666 46.76845033 -50.625 34.6875 C-50.62008545 33.76686768 -50.6151709 32.84623535 -50.61010742 31.89770508 C-50.40155706 19.75151816 -47.84710542 10.58169293 -40 1.25 C-27.89703776 -8.88271258 -13.08886683 -7.90271205 0 0 Z M-32.22314453 10.16381836 C-36.60788813 17.55459752 -36.83063513 26.01624795 -36.75 34.375 C-36.74170166 35.47755127 -36.73340332 36.58010254 -36.72485352 37.71606445 C-36.53073509 47.04134801 -35.98695291 55.64057133 -29.25 62.75 C-24.68804318 66.09018005 -19.70920302 65.79609749 -14.3125 65 C-10.84725305 63.94535962 -9.78430502 62.78858839 -7.9453125 59.71484375 C-3.56647484 51.31588677 -3.10424664 44.77843037 -3.0625 35.375 C-3.041875 34.23675781 -3.02125 33.09851563 -3 31.92578125 C-2.95713968 22.592946 -3.91628301 13.28458046 -10.3125 6 C-18.84958709 1.34340704 -26.04097832 2.07023988 -32.22314453 10.16381836 Z " fill="#020405" transform="translate(2731.3125,713)"/>
<path d="M0 0 C8.07839554 6.00457923 11.99215978 14.11125602 13.68359375 23.87890625 C15.25633236 39.39271058 15.22726704 56.29060973 5 69 C-2.52631461 76.22586293 -9.99593601 77.49138317 -20.23828125 77.30078125 C-27.92140674 76.68645034 -33.01371134 74.4330332 -38.375 68.875 C-48.8233913 56.0836361 -47.92698809 39.63968726 -47 24 C-45.93956791 15.44366138 -42.30080674 7.91856602 -36 2 C-25.15802983 -5.73629432 -11.74958938 -6.31985489 0 0 Z M-26 8 C-33.98278829 17.39772695 -34.5983464 30.20627758 -34 42 C-33.19803539 50.8559806 -31.36574587 59.63425413 -24.875 66.125 C-19.59857011 67.73086997 -13.89895931 68.47564355 -8.8359375 65.8984375 C-2.97247302 61.23261683 -0.94039617 55.26967128 0 48 C1.50252341 28.03150879 1.50252341 28.03150879 -5.54296875 9.92578125 C-8.89270924 6.63736324 -12.32237021 5.06180003 -17.01953125 4.84375 C-20.65286535 5.13040358 -22.90896508 6.07539335 -26 8 Z " fill="#020405" transform="translate(2071,711)"/>
<path d="M0 0 C8.82847239 7.13293796 11.90306464 16.13862085 13.26953125 27.1484375 C14.46564625 41.19857703 13.44831047 54.33606601 5.546875 66.40625 C0.41194205 72.28069661 -5.43707306 75.95596539 -13.3203125 76.83984375 C-14.65604316 76.86338738 -15.99234311 76.86418169 -17.328125 76.84375 C-18.02993896 76.83545166 -18.73175293 76.82715332 -19.45483398 76.81860352 C-27.23265529 76.56590751 -32.43452112 74.46046474 -38.203125 69.34375 C-47.28166125 59.44372207 -48.96265079 45.75960333 -48.69921875 32.8359375 C-47.82000201 20.58272639 -45.24831694 9.71527994 -36.203125 0.96875 C-26.1036101 -6.86669782 -10.55704575 -6.85871762 0 0 Z M-28.640625 9.59375 C-35.97961844 20.98184326 -35.79169876 36.08544596 -33.921875 49.10546875 C-32.38545271 55.76051529 -30.52632234 60.69460529 -25.328125 65.28125 C-20.17897232 67.29613583 -14.84270327 67.25587783 -9.640625 65.40625 C-3.04023717 59.3716097 -0.79744871 52.11015258 -0.34814453 43.36230469 C0.09933611 30.58270231 0.4036935 17.0467049 -8.640625 6.96875 C-15.91843696 2.92552113 -22.68699796 3.64012296 -28.640625 9.59375 Z " fill="#020405" transform="translate(1087.453125,711.59375)"/>
<path d="M0 0 C9.89420558 -0.23746093 19.84914858 0.18876267 27.53125 7.15625 C33.03935697 14.99947296 33.20400791 22.6229757 33.01953125 31.9140625 C33.01018397 33.3122327 33.00307693 34.7104195 32.99809265 36.10861206 C32.97917251 39.75531735 32.9302071 43.400997 32.87457275 47.04730225 C32.82305186 50.78139376 32.80050924 54.51565407 32.77539062 58.25 C32.72206829 65.55260091 32.63426165 72.85415 32.53125 80.15625 C28.24125 80.15625 23.95125 80.15625 19.53125 80.15625 C19.5219043 78.41085937 19.51255859 76.66546875 19.50292969 74.8671875 C19.46728965 69.07552944 19.41342036 63.28419194 19.34734726 57.49281311 C19.30797684 53.98428584 19.27573793 50.4760056 19.26025391 46.96728516 C19.24209656 42.92570442 19.19210047 38.88504476 19.140625 34.84375 C19.13939636 33.5944873 19.13816772 32.34522461 19.13690186 31.05810547 C19.0190217 24.00022685 18.47983085 19.09417867 14.53125 13.15625 C8.24322842 8.79207075 0.73767758 10.09155208 -6.46875 11.15625 C-7.45875 11.48625 -8.44875 11.81625 -9.46875 12.15625 C-9.79875 34.59625 -10.12875 57.03625 -10.46875 80.15625 C-15.08875 80.15625 -19.70875 80.15625 -24.46875 80.15625 C-24.46875 55.40625 -24.46875 30.65625 -24.46875 5.15625 C-9.0333938 0.40690963 -9.0333938 0.40690963 0 0 Z " fill="#020405" transform="translate(2125.46875,706.84375)"/>
<path d="M0 0 C4.29 0 8.58 0 13 0 C13.01458252 1.6900415 13.02916504 3.38008301 13.04418945 5.12133789 C13.0959804 10.72538075 13.16130336 16.32915833 13.23571491 21.93294621 C13.28031071 25.32823849 13.31958974 28.72341378 13.34643555 32.11889648 C13.37758682 36.02873986 13.43237176 39.93808551 13.48828125 43.84765625 C13.49467117 45.05833267 13.5010611 46.26900909 13.50764465 47.51637268 C13.63806294 55.03183036 13.93438598 60.70552938 19.25 66.41796875 C22.72682471 68.41813069 25.01152984 68.43713969 29 68.3125 C30.794375 68.27576172 30.794375 68.27576172 32.625 68.23828125 C36.29477679 68.05073887 36.29477679 68.05073887 41 67 C41 44.89 41 22.78 41 0 C45.62 0 50.24 0 55 0 C55 24.42 55 48.84 55 74 C42.00137879 78.72677135 25.78385372 82.36203492 12.0625 77.4375 C6.72922532 74.73747006 3.10020479 70.83376274 0.94192505 65.27474976 C-0.03498505 61.878369 -0.24143894 59.15254008 -0.22705078 55.62744141 C-0.22689972 54.38660797 -0.22674866 53.14577454 -0.22659302 51.86734009 C-0.21638225 50.52874589 -0.2059503 49.19015337 -0.1953125 47.8515625 C-0.19157813 46.47008469 -0.18873316 45.08860422 -0.18673706 43.7071228 C-0.17913392 40.08706229 -0.15951437 36.46716457 -0.1373291 32.84716797 C-0.11679878 29.14683229 -0.10772004 25.44647008 -0.09765625 21.74609375 C-0.07626496 14.49731335 -0.04111033 7.24870031 0 0 Z " fill="#020405" transform="translate(1434,709)"/>
<path d="M0 0 C6.81760171 5.32385751 10.54264458 13.12874265 11.7734375 21.62890625 C11.83996605 23.89886044 11.85887501 26.1705932 11.8359375 28.44140625 C11.82691406 29.60285156 11.81789063 30.76429688 11.80859375 31.9609375 C11.79699219 32.84136719 11.78539063 33.72179687 11.7734375 34.62890625 C1.36671847 36.56640542 -9.06955345 38.25293719 -19.5390625 39.81640625 C-20.72540283 39.99526367 -21.91174316 40.17412109 -23.1340332 40.35839844 C-24.25382568 40.5237207 -25.37361816 40.68904297 -26.52734375 40.859375 C-27.52934814 41.00785889 -28.53135254 41.15634277 -29.5637207 41.30932617 C-32.2265625 41.62890625 -32.2265625 41.62890625 -36.2265625 41.62890625 C-33.13811917 53.75169307 -33.13811917 53.75169307 -25.2265625 62.94140625 C-18.61307252 66.66149437 -10.63116417 66.64854486 -3.32421875 64.95703125 C-1.63447938 64.43100372 0.04692295 63.87673407 1.71484375 63.28515625 C3.7734375 62.62890625 3.7734375 62.62890625 6.7734375 62.62890625 C7.7634375 65.59890625 8.7534375 68.56890625 9.7734375 71.62890625 C-2.05498007 77.10175617 -15.61293457 79.25297779 -28.3515625 75.06640625 C-36.3012796 71.61053845 -42.83936951 65.5861356 -46.09375 57.46484375 C-51.10605902 43.19169711 -51.17905378 25.7372979 -44.97265625 11.81640625 C-40.95185589 4.45406881 -35.73857397 -0.21409556 -27.9140625 -3.24609375 C-18.59774053 -5.93534133 -8.32394298 -5.12579646 0 0 Z M-29.9140625 9.62890625 C-35.63082883 17.04525176 -36.49833128 24.54422386 -36.2265625 33.62890625 C-32.45506864 33.17590939 -28.68451263 32.71550344 -24.9140625 32.25390625 C-23.86154297 32.12757813 -22.80902344 32.00125 -21.72460938 31.87109375 C-14.84026376 31.02378967 -8.03588823 29.95023263 -1.2265625 28.62890625 C-0.86461695 21.58122933 -1.09328996 15.53488286 -5.66796875 9.83203125 C-9.4090767 6.18640401 -12.80425349 4.70059391 -18.0234375 4.4609375 C-22.81223947 4.8260412 -26.13866489 6.81930803 -29.9140625 9.62890625 Z " fill="#020405" transform="translate(2299.2265625,711.37109375)"/>
<path d="M0 0 C7.3538175 6.20989034 10.4229783 13.99275943 11.8125 23.375 C12.01425211 27.06033856 12.0083455 30.69020327 11.8125 34.375 C1.22505842 36.37148898 -9.39726426 38.03499122 -20.0625 39.5625 C-21.30483398 39.74135742 -22.54716797 39.92021484 -23.82714844 40.10449219 C-24.99536133 40.26981445 -26.16357422 40.43513672 -27.3671875 40.60546875 C-28.41632324 40.75395264 -29.46545898 40.90243652 -30.54638672 41.05541992 C-33.1875 41.375 -33.1875 41.375 -36.1875 41.375 C-34.20940023 50.63610348 -32.37778957 57.78163151 -24.1875 63.375 C-16.82369745 66.90507029 -8.21987959 66.2475508 -0.5625 63.875 C0.21351562 63.5965625 0.98953125 63.318125 1.7890625 63.03125 C3.8125 62.375 3.8125 62.375 6.8125 62.375 C7.4725 65.345 8.1325 68.315 8.8125 71.375 C-2.11208903 77.11503831 -14.18922184 78.20553208 -26.375 75.7265625 C-35.25449672 72.47999651 -42.16568708 65.87565004 -46.1875 57.375 C-51.75985495 44.83720135 -51.17346231 26.76108187 -46.45703125 14.01171875 C-42.57187148 5.94254076 -37.39083241 0.52721239 -29.0625 -2.875 C-18.60419523 -6.4313859 -9.6533121 -4.92129637 0 0 Z M-29.96875 9.14453125 C-35.89562508 16.74197161 -36.60927268 23.97119785 -37.1875 33.375 C-25.09425895 32.15995805 -13.15491956 30.4968829 -1.1875 28.375 C-1.03167245 20.91865163 -2.01232846 16.0002859 -5.875 9.5625 C-12.61419886 3.18758216 -23.15833257 2.3789192 -29.96875 9.14453125 Z " fill="#020405" transform="translate(1315.1875,711.625)"/>
<path d="M0 0 C6.45585957 4.92207004 10.00712632 12.78006819 11.7265625 20.58984375 C12.29834706 25.31328139 12.13851282 30.06910406 11.99609375 34.81640625 C1.40865217 36.81289523 -9.21367051 38.47639747 -19.87890625 40.00390625 C-21.12124023 40.18276367 -22.36357422 40.36162109 -23.64355469 40.54589844 C-24.81176758 40.7112207 -25.97998047 40.87654297 -27.18359375 41.046875 C-28.23272949 41.19535889 -29.28186523 41.34384277 -30.36279297 41.49682617 C-33.00390625 41.81640625 -33.00390625 41.81640625 -36.00390625 41.81640625 C-34.02580648 51.07750973 -32.19419582 58.22303776 -24.00390625 63.81640625 C-16.6401037 67.34647654 -8.03628584 66.68895705 -0.37890625 64.31640625 C0.39710937 64.03796875 1.173125 63.75953125 1.97265625 63.47265625 C3.99609375 62.81640625 3.99609375 62.81640625 6.99609375 62.81640625 C7.65609375 65.78640625 8.31609375 68.75640625 8.99609375 71.81640625 C-1.92849528 77.55644456 -14.00562809 78.64693833 -26.19140625 76.16796875 C-35.06659913 72.92297635 -41.98900497 66.31765555 -46.00390625 57.81640625 C-51.08134426 46.20790886 -51.04363772 29.03795535 -46.9765625 17.1015625 C-42.94044682 7.61912204 -38.50208021 1.42677082 -28.75390625 -2.55859375 C-19.1485009 -5.69907512 -8.82333301 -5.2114423 0 0 Z M-29.78515625 9.5859375 C-35.71203133 17.18337786 -36.42567893 24.4126041 -37.00390625 33.81640625 C-24.9106652 32.6013643 -12.97132581 30.93828915 -1.00390625 28.81640625 C-0.8480787 21.36005788 -1.82873471 16.44169215 -5.69140625 10.00390625 C-12.43060511 3.62898841 -22.97473882 2.82032545 -29.78515625 9.5859375 Z " fill="#020405" transform="translate(1767.00390625,711.18359375)"/>
<path d="M0 0 C0 2.97 0 5.94 0 9 C-0.61488281 9.23074219 -1.22976562 9.46148438 -1.86328125 9.69921875 C-2.67152344 10.02535156 -3.47976562 10.35148438 -4.3125 10.6875 C-5.11300781 11.00074219 -5.91351562 11.31398438 -6.73828125 11.63671875 C-9.73355325 13.44215904 -10.62485341 14.76840552 -12 18 C-12.47902225 21.10115313 -12.60092799 24.17859327 -12.6875 27.3125 C-12.72166016 28.14845703 -12.75582031 28.98441406 -12.79101562 29.84570312 C-12.87305461 31.89667772 -12.9382151 33.94831538 -13 36 C-8.71 36 -4.42 36 0 36 C0 38.64 0 41.28 0 44 C-4.29 44 -8.58 44 -13 44 C-13 67.1 -13 90.2 -13 114 C-17.62 114 -22.24 114 -27 114 C-27 90.9 -27 67.8 -27 44 C-29.97 44 -32.94 44 -36 44 C-36 41.36 -36 38.72 -36 36 C-33.03 36 -30.06 36 -27 36 C-27.08701172 34.22496094 -27.08701172 34.22496094 -27.17578125 32.4140625 C-27.7752787 15.13830068 -27.7752787 15.13830068 -22 8 C-15.86472712 1.52463438 -8.68575928 0 0 0 Z " fill="#020405" transform="translate(2405,673)"/>
<path d="M0 0 C0 2.97 0 5.94 0 9 C-0.61488281 9.24234375 -1.22976563 9.4846875 -1.86328125 9.734375 C-7.97808007 12.08517284 -7.97808007 12.08517284 -12 17 C-13.22965031 20.82557873 -13.33286371 24.76712802 -13.5625 28.75 C-13.60568359 29.44738281 -13.64886719 30.14476562 -13.69335938 30.86328125 C-13.79889596 32.57531922 -13.8998991 34.28763561 -14 36 C-9.38 36 -4.76 36 0 36 C0 38.64 0 41.28 0 44 C-4.62 44 -9.24 44 -14 44 C-14 67.1 -14 90.2 -14 114 C-18.29 114 -22.58 114 -27 114 C-27 90.9 -27 67.8 -27 44 C-29.97 44 -32.94 44 -36 44 C-36 41.36 -36 38.72 -36 36 C-33.03 36 -30.06 36 -27 36 C-27.06960938 34.081875 -27.06960938 34.081875 -27.140625 32.125 C-27.17817027 30.41669021 -27.21456745 28.70835492 -27.25 27 C-27.30027344 25.74123047 -27.30027344 25.74123047 -27.3515625 24.45703125 C-27.46033456 17.44123325 -25.87197222 12.32814678 -21.25390625 6.9765625 C-14.63975567 1.69135211 -8.55633585 -0.25165694 0 0 Z " fill="#020405" transform="translate(1708,673)"/>
<path d="M0 0 C0 2.97 0 5.94 0 9 C-0.61488281 9.24234375 -1.22976563 9.4846875 -1.86328125 9.734375 C-7.95750344 12.09598762 -7.95750344 12.09598762 -12 17 C-13.23759823 20.71279469 -13.35608897 24.31306346 -13.5625 28.1875 C-13.60568359 28.93708984 -13.64886719 29.68667969 -13.69335938 30.45898438 C-13.79922685 32.30578375 -13.9000976 34.15286834 -14 36 C-9.38 36 -4.76 36 0 36 C0 38.64 0 41.28 0 44 C-4.62 44 -9.24 44 -14 44 C-14 67.1 -14 90.2 -14 114 C-18.29 114 -22.58 114 -27 114 C-27 90.9 -27 67.8 -27 44 C-29.97 44 -32.94 44 -36 44 C-36 41.36 -36 38.72 -36 36 C-33.03 36 -30.06 36 -27 36 C-27.06960938 34.081875 -27.06960938 34.081875 -27.140625 32.125 C-27.17817027 30.41669021 -27.21456745 28.70835492 -27.25 27 C-27.30027344 25.74123047 -27.30027344 25.74123047 -27.3515625 24.45703125 C-27.46033456 17.44123325 -25.87197222 12.32814678 -21.25390625 6.9765625 C-14.63975567 1.69135211 -8.55633585 -0.25165694 0 0 Z " fill="#020405" transform="translate(1421,673)"/>
<path d="M0 0 C4.62 0 9.24 0 14 0 C14 29.7 14 59.4 14 90 C23.9 90 33.8 90 44 90 C44 93.3 44 96.6 44 100 C29.48 100 14.96 100 0 100 C0 67 0 34 0 0 Z " fill="#020405" transform="translate(1584,687)"/>
<path d="M0 0 C4.62 0 9.24 0 14 0 C14 37.62 14 75.24 14 114 C9.38 114 4.76 114 0 114 C0 76.38 0 38.76 0 0 Z " fill="#020405" transform="translate(2805,673)"/>
<path d="M0 0 C4.62 0 9.24 0 14 0 C14 37.62 14 75.24 14 114 C9.38 114 4.76 114 0 114 C0 76.38 0 38.76 0 0 Z " fill="#020405" transform="translate(1509,673)"/>
<path d="M0 0 C4.29 0 8.58 0 13 0 C13 37.62 13 75.24 13 114 C8.71 114 4.42 114 0 114 C0 76.38 0 38.76 0 0 Z " fill="#020405" transform="translate(2494,673)"/>
<path d="M0 0 C-0.30921884 1.45903258 -0.62248799 2.91720722 -0.9375 4.375 C-1.11152344 5.18710937 -1.28554687 5.99921875 -1.46484375 6.8359375 C-2 9 -2 9 -3 11 C-3.96421875 10.98839844 -4.9284375 10.97679687 -5.921875 10.96484375 C-7.18515625 10.95582031 -8.4484375 10.94679688 -9.75 10.9375 C-11.62945313 10.92009766 -11.62945313 10.92009766 -13.546875 10.90234375 C-17.12834918 10.87978606 -17.12834918 10.87978606 -21 12 C-21 34.44 -21 56.88 -21 80 C-25.62 80 -30.24 80 -35 80 C-35 55.58 -35 31.16 -35 6 C-23.28584829 0.14292414 -12.94667005 -0.3493854 0 0 Z " fill="#020405" transform="translate(2793,707)"/>
<path d="M0 0 C-0.30921884 1.45903258 -0.62248799 2.91720722 -0.9375 4.375 C-1.11152344 5.18710937 -1.28554687 5.99921875 -1.46484375 6.8359375 C-2 9 -2 9 -3 11 C-3.96421875 10.98839844 -4.9284375 10.97679687 -5.921875 10.96484375 C-7.18515625 10.95582031 -8.4484375 10.94679688 -9.75 10.9375 C-11.62945313 10.92009766 -11.62945313 10.92009766 -13.546875 10.90234375 C-17.12834918 10.87978606 -17.12834918 10.87978606 -21 12 C-21 34.44 -21 56.88 -21 80 C-25.62 80 -30.24 80 -35 80 C-35 55.58 -35 31.16 -35 6 C-23.28584829 0.14292414 -12.94667005 -0.3493854 0 0 Z " fill="#020405" transform="translate(2362,707)"/>
<path d="M0 0 C-0.99 3.63 -1.98 7.26 -3 11 C-4.46373047 10.98259766 -4.46373047 10.98259766 -5.95703125 10.96484375 C-7.22933594 10.95582031 -8.50164062 10.94679688 -9.8125 10.9375 C-11.07707031 10.92589844 -12.34164063 10.91429687 -13.64453125 10.90234375 C-16.99605237 10.83840884 -16.99605237 10.83840884 -20 12 C-20.33 34.44 -20.66 56.88 -21 80 C-25.62 80 -30.24 80 -35 80 C-35 55.58 -35 31.16 -35 6 C-23.28584829 0.14292414 -12.94667005 -0.3493854 0 0 Z " fill="#020405" transform="translate(1378,707)"/>
<path d="M0 0 C4.29 0 8.58 0 13 0 C13 25.74 13 51.48 13 78 C8.71 78 4.42 78 0 78 C0 52.26 0 26.52 0 0 Z " fill="#020405" transform="translate(1643,709)"/>
<path d="M0 0 C3.74785043 2.08213913 4.79482295 3.2947039 6 7.4375 C6 11.48459923 5.72493174 13.01960591 3 16 C-0.61623139 17.5402467 -2.88806222 18.25271313 -6.75 17.375 C-9.33979945 15.79234478 -10.58019391 14.69015891 -12 12 C-12.40387364 8.12281308 -12.299969 5.2199566 -10 2 C-6.77706714 -0.3020949 -3.88003676 -0.47510654 0 0 Z " fill="#020405" transform="translate(1846,734)"/>
<path d="M0 0 C2.4375 1.5625 2.4375 1.5625 4 4 C4.5625 7.5 4.5625 7.5 4 11 C1.9375 13.5 1.9375 13.5 -1 15 C-4.5241557 14.93923869 -6.91616966 14.72255356 -9.875 12.75 C-11.38463345 10.4016813 -11.86663055 8.80075852 -12 6 C-9.12921488 -0.01497835 -6.54148953 -0.56392151 0 0 Z " fill="#020405" transform="translate(1653,680)"/>
</svg>
