<?xml version="1.0" encoding="UTF-8"?>
<svg version="1.1" xmlns="http://www.w3.org/2000/svg" width="225" height="225">
<path d="M0 0 C7.28129561 6.66672754 12.60381362 14.82538913 13.0925293 24.90917969 C13.13425251 27.10710794 13.13639002 29.3017256 13.125 31.5 C13.12886719 32.24636719 13.13273438 32.99273437 13.13671875 33.76171875 C13.12985206 37.64139586 12.94729776 41.21080898 12 45 C11.34 45 10.68 45 10 45 C9.96132813 43.49373047 9.96132813 43.49373047 9.921875 41.95703125 C9.49734284 30.47914858 8.17405086 19.40048044 1 10 C0.67 9.01 0.34 8.02 0 7 C-2.29534258 5.86454438 -2.29534258 5.86454438 -5 5 C-5.72832031 4.6596875 -6.45664063 4.319375 -7.20703125 3.96875 C-17.97223605 0.23480484 -30.13315434 3.21819537 -40 8 C-55.97263598 16.84699887 -69.56840973 31.20071136 -80 46 C-80.33 45.34 -80.66 44.68 -81 44 C-79.78771861 41.61808028 -78.52597397 39.39333714 -77.125 37.125 C-76.72095947 36.46040771 -76.31691895 35.79581543 -75.90063477 35.11108398 C-71.98252576 28.77263258 -67.60916496 22.85135126 -63 17 C-77.57549275 16.0696494 -88.64390196 20.56638786 -99.99609375 29.5859375 C-105.33865475 34.46444532 -108.59238569 40.6922884 -112 47 C-112.66 46.67 -113.32 46.34 -114 46 C-114.74226711 33.21651091 -111.41890708 23.41429365 -106 12 C-117.7073865 21.35505227 -126.59559227 31.5420194 -135 44 C-136 41 -136 41 -135.13671875 38.7578125 C-124.81057172 19.99818151 -110.74725196 5.05869527 -89.875 -1.4375 C-87.9226574 -1.98035835 -85.96491444 -2.50457286 -84 -3 C-83.37303223 -3.1750708 -82.74606445 -3.3501416 -82.10009766 -3.53051758 C-71.40085667 -5.92236138 -55.54977379 -5.39420428 -46 0.1640625 C-41.76712695 1.93327116 -37.27984844 -0.54112874 -33.1875 -2 C-22.42549024 -5.60921059 -9.68804521 -7.19173908 0 0 Z M-95 7 C-91.72151835 8.09282722 -90.96280485 7.89848493 -87.75 7.0625 C-77.54039302 4.90134232 -67.80455131 4.83841367 -58.26953125 9.3203125 C-55.9967083 10.23961733 -55.9967083 10.23961733 -53.76171875 9.2421875 C-51.85609197 8.10658232 -51.85609197 8.10658232 -51 6 C-64.30225903 -0.65112951 -82.41332323 -1.58182507 -95 7 Z " fill="#C47C18" transform="translate(189,65)"/>
<path d="M0 0 C8.10543905 8.568607 9.50576241 19.12373378 9.2578125 30.51171875 C9.23460937 31.10597656 9.21140625 31.70023438 9.1875 32.3125 C8.5275 32.3125 7.8675 32.3125 7.1875 32.3125 C6.56875 31.425625 5.95 30.53875 5.3125 29.625 C0.86394759 24.03783001 -6.7045263 22.0091148 -13.4375 20.5 C-36.53855891 19.21660784 -57.70056889 26.74902593 -78.8125 35.3125 C-77.08218034 31.1013606 -74.1406303 27.95538105 -71.1875 24.5625 C-70.64335449 23.93633789 -70.09920898 23.31017578 -69.53857422 22.66503906 C-67.97132096 20.87349445 -66.39454702 19.09098277 -64.8125 17.3125 C-64.12671875 16.5390625 -63.4409375 15.765625 -62.734375 14.96875 C-46.46802375 -2.28772698 -22.10940324 -13.26564194 0 0 Z " fill="#EBC38C" transform="translate(186.8125,81.6875)"/>
<path d="M0 0 C2.97 0 5.94 0 9 0 C12.98569482 7.47317778 16.14680773 15.16646673 19.23242188 23.04199219 C19.56177734 23.88149414 19.89113281 24.72099609 20.23046875 25.5859375 C20.52332764 26.3392334 20.81618652 27.0925293 21.11791992 27.86865234 C21.98686414 29.96826015 22.95856982 31.98117488 24 34 C24.66 34 25.32 34 26 34 C27.79746934 27.44590872 28.82044522 20.92319157 29.6875 14.1875 C29.82994141 13.15173828 29.97238281 12.11597656 30.11914062 11.04882812 C30.24869141 10.05689453 30.37824219 9.06496094 30.51171875 8.04296875 C30.62990967 7.14602295 30.74810059 6.24907715 30.86987305 5.32495117 C31.15218002 2.8419597 31.15218002 2.8419597 30 0 C33.3 0 36.6 0 40 0 C43.3 7.59 46.6 15.18 50 23 C51.73693665 20.39459502 52.80682023 18.21498748 53.9453125 15.33203125 C54.29980469 14.43935547 54.65429688 13.54667969 55.01953125 12.62695312 C55.38433594 11.69818359 55.74914062 10.76941406 56.125 9.8125 C56.49753906 8.87212891 56.87007813 7.93175781 57.25390625 6.96289062 C58.17237997 4.6431557 59.0865993 2.32173712 60 0 C63.3 0 66.6 0 70 0 C69.81969238 0.69077637 69.63938477 1.38155273 69.45361328 2.09326172 C68.9287259 5.45672197 69.24538645 8.14178102 69.7421875 11.5078125 C69.92136719 12.74144531 70.10054688 13.97507813 70.28515625 15.24609375 C70.47980469 16.52613281 70.67445313 17.80617187 70.875 19.125 C71.06191406 20.41277344 71.24882812 21.70054687 71.44140625 23.02734375 C72.33957095 29.60107665 72.33957095 29.60107665 74 36 C70.7 36 67.4 36 64 36 C64.27457031 34.78376953 64.27457031 34.78376953 64.5546875 33.54296875 C65.08934674 29.2891448 64.68667013 25.53961484 64.125 21.3125 C64.03347656 20.55388672 63.94195312 19.79527344 63.84765625 19.01367188 C63.45479209 15.87905855 63.00141087 13.00423262 62 10 C58.7 18.58 55.4 27.16 52 36 C51.01 36 50.02 36 49 36 C45.01837013 31.12816833 42.99301854 25.44854073 40.75 19.625 C40.38648438 18.69816406 40.02296875 17.77132812 39.6484375 16.81640625 C38.75926057 14.54666514 37.87666124 12.27459777 37 10 C35.06011175 11.93988825 35.28733019 15.34357392 34.9375 17.9375 C34.76089844 19.20464844 34.58429688 20.47179687 34.40234375 21.77734375 C33.95247878 26.49874214 34 31.25721798 34 36 C27.4 36 20.8 36 14 36 C14.99 35.505 14.99 35.505 16 35 C14.68 31.37 13.36 27.74 12 24 C7.71 24 3.42 24 -1 24 C-1.515625 25.60875 -2.03125 27.2175 -2.5625 28.875 C-2.99755859 30.23238281 -2.99755859 30.23238281 -3.44140625 31.6171875 C-4.26747878 33.9980027 -4.26747878 33.9980027 -3 36 C-6.3 36 -9.6 36 -13 36 C-12.6596875 35.37738281 -12.319375 34.75476563 -11.96875 34.11328125 C-8.35566332 27.22343245 -5.37079789 20.18834158 -2.5625 12.9375 C-2.19640625 12.0091333 -1.8303125 11.0807666 -1.453125 10.12426758 C-1.11925781 9.24665771 -0.78539062 8.36904785 -0.44140625 7.46484375 C0.01190063 6.28329712 0.01190063 6.28329712 0.47436523 5.07788086 C1.24221732 2.82793954 1.24221732 2.82793954 0 0 Z M5 6 C4.3291288 7.6232687 3.66342971 9.24867578 3 10.875 C2.62875 11.77992188 2.2575 12.68484375 1.875 13.6171875 C0.88509774 15.88983858 0.88509774 15.88983858 1 18 C3.97 18 6.94 18 10 18 C8.68 14.04 7.36 10.08 6 6 C5.67 6 5.34 6 5 6 Z " fill="#090909" transform="translate(63,117)"/>
<path d="M0 0 C-0.3125 1.875 -0.3125 1.875 -1 4 C-4.31506701 6.21004468 -5.39303196 6.21238744 -9.25 6.3125 C-23.69255131 7.34286339 -37.43411384 13.53338575 -47.4375 24.08984375 C-49.80511832 26.98425714 -51.79416737 30.08686645 -53.73828125 33.27734375 C-54.15464844 33.84582031 -54.57101563 34.41429687 -55 35 C-55.66 35 -56.32 35 -57 35 C-54.24270216 22.35678061 -50.31925122 6.91591198 -39.1875 -1 C-25.9842302 -5.14220229 -12.77029401 -5.94708078 0 0 Z " fill="#E9C18C" transform="translate(133,74)"/>
<path d="M0 0 C2.08080311 1.60351628 4.04042889 3.24669954 6 5 C2.30405002 5 0.42245474 3.84428961 -2.875 2.1875 C-17.90687782 -4.86181743 -33.13286497 -6.14033103 -49 -1 C-65.9930891 5.80147332 -76.52203258 17.23971724 -83.75390625 33.87890625 C-87.17280117 42.44221985 -88.78345565 50.86876124 -90 60 C-94.14328812 53.78506783 -92.22281699 45.16250721 -90.9375 38.125 C-87.98944686 25.70204117 -82.10413892 15.8494777 -73 7 C-72.38640625 6.36578125 -71.7728125 5.7315625 -71.140625 5.078125 C-52.24192844 -13.17446228 -21.13445218 -15.38840001 0 0 Z " fill="#B87518" transform="translate(116,53)"/>
<path d="M0 0 C3.1126684 -0.46416985 5.89848663 -0.5981037 9 0 C11.66491644 2.05763582 13.31219928 4.62672444 15.125 7.4375 C16.14271913 8.90530169 17.16094595 10.3727515 18.1796875 11.83984375 C18.66018555 12.55382324 19.14068359 13.26780273 19.63574219 14.00341797 C21.40184503 16.58809747 23.30546512 19.04768172 25.25 21.5 C26.16708313 22.66633932 27.08382954 23.83294363 28 25 C28.02900455 21.3958502 28.04680018 17.79173038 28.0625 14.1875 C28.07087891 13.16333984 28.07925781 12.13917969 28.08789062 11.08398438 C28.09111328 10.10107422 28.09433594 9.11816406 28.09765625 8.10546875 C28.10289307 7.19949951 28.10812988 6.29353027 28.11352539 5.36010742 C28.09920981 2.84715961 28.09920981 2.84715961 27 0 C29.97 0 32.94 0 36 0 C35.67 0.66 35.34 1.32 35 2 C34.84323225 4.69655446 34.74163685 7.37129977 34.68359375 10.0703125 C34.66281265 10.86654022 34.64203156 11.66276794 34.62062073 12.48312378 C34.55515851 15.03032685 34.49625585 17.57763425 34.4375 20.125 C34.3943116 21.85027127 34.35069721 23.57553193 34.30664062 25.30078125 C34.19948055 29.53374685 34.09820377 33.76681753 34 38 C22.48901252 33.74925727 14.89264041 19.70997441 8 10 C7.94185915 13.58326501 7.90635643 17.16640838 7.875 20.75 C7.85824219 21.76578125 7.84148437 22.7815625 7.82421875 23.828125 C7.81777344 24.8078125 7.81132812 25.7875 7.8046875 26.796875 C7.79421387 27.69760742 7.78374023 28.59833984 7.77294922 29.52636719 C7.88297988 32.37193832 7.88297988 32.37193832 10 36 C6.7 36 3.4 36 0 36 C0.32452148 35.29875 0.64904297 34.5975 0.98339844 33.875 C2.09597319 30.72858302 2.25834312 28.32886012 2.265625 25 C2.26820313 23.865625 2.27078125 22.73125 2.2734375 21.5625 C2.26570312 20.386875 2.25796875 19.21125 2.25 18 C2.25773438 16.824375 2.26546875 15.64875 2.2734375 14.4375 C2.26957031 12.7359375 2.26957031 12.7359375 2.265625 11 C2.26336914 9.96875 2.26111328 8.9375 2.25878906 7.875 C1.99067741 4.89643133 1.25012032 2.70135235 0 0 Z " fill="#0B0B0B" transform="translate(153,117)"/>
<path d="M0 0 C0.3125 2.75 0.3125 2.75 0 6 C-1.65267638 7.35063553 -3.321702 8.68133728 -5 10 C-12.95950714 20.10872229 -16.90682707 30.67417455 -20 43 C-19.34 43.33 -18.68 43.66 -18 44 C-18.33 44.66 -18.66 45.32 -19 46 C-19.66 45.67 -20.32 45.34 -21 45 C-21.74226711 32.21651091 -18.41890708 22.41429365 -13 11 C-24.7073865 20.35505227 -33.59559227 30.5420194 -42 43 C-43 40 -43 40 -42.13671875 37.7578125 C-34.32087819 23.55868438 -24.804174 11.75296509 -10.6875 3.5 C-10.0884082 3.14897217 -9.48931641 2.79794434 -8.87207031 2.4362793 C-5.55219619 0.58531402 -3.90470676 0 0 0 Z " fill="#C37C1A" transform="translate(96,66)"/>
<path d="M0 0 C1 4 1 4 0 7 C-3.3 6.34 -6.6 5.68 -10 5 C-9.8816491 9.07530467 -9.75739376 13.15038235 -9.62768555 17.2253418 C-9.58439782 18.61135983 -9.54271836 19.99742906 -9.50268555 21.38354492 C-9.44483416 23.37691798 -9.38070224 25.37010565 -9.31640625 27.36328125 C-9.27974854 28.56251221 -9.24309082 29.76174316 -9.20532227 30.99731445 C-9.12266975 34.04994349 -9.12266975 34.04994349 -8 37 C-11.3 37 -14.6 37 -18 37 C-17.67 35.68 -17.34 34.36 -17 33 C-16.8527204 30.8305592 -16.7527453 28.65770947 -16.68359375 26.484375 C-16.64169922 25.23398438 -16.59980469 23.98359375 -16.55664062 22.6953125 C-16.51732422 21.39335937 -16.47800781 20.09140625 -16.4375 18.75 C-16.39431641 17.43257812 -16.35113281 16.11515625 -16.30664062 14.7578125 C-16.20058083 11.50531212 -16.09851976 8.25273608 -16 5 C-19.63 5.66 -23.26 6.32 -27 7 C-26.67 5.02 -26.34 3.04 -26 1 C-17.42 0.67 -8.84 0.34 0 0 Z " fill="#0D0D0D" transform="translate(50,116)"/>
<path d="M0 0 C7.28129561 6.66672754 12.60381362 14.82538913 13.0925293 24.90917969 C13.13425251 27.10710794 13.13639002 29.3017256 13.125 31.5 C13.13080078 32.61955078 13.13080078 32.61955078 13.13671875 33.76171875 C13.12985206 37.64139586 12.94729776 41.21080898 12 45 C11.34 45 10.68 45 10 45 C9.97421875 43.99582031 9.9484375 42.99164063 9.921875 41.95703125 C9.49734284 30.47914858 8.17405086 19.40048044 1 10 C0.67 9.01 0.34 8.02 0 7 C-2.29534258 5.86454438 -2.29534258 5.86454438 -5 5 C-5.72058594 4.66355469 -6.44117188 4.32710937 -7.18359375 3.98046875 C-10.70956763 2.75297992 -14.11764026 2.54471605 -17.8125 2.375 C-18.50537109 2.33632812 -19.19824219 2.29765625 -19.91210938 2.2578125 C-21.60767015 2.16426432 -23.30379712 2.08107636 -25 2 C-25 1.67 -25 1.34 -25 1 C-20.38 0.67 -15.76 0.34 -11 0 C-11 -0.99 -11 -1.98 -11 -3 C-16.28 -3 -21.56 -3 -27 -3 C-27 -3.33 -27 -3.66 -27 -4 C-17.73080971 -5.57401345 -7.86238266 -5.83649265 0 0 Z " fill="#C77F1A" transform="translate(189,65)"/>
<path d="M0 0 C3.3 0 6.6 0 10 0 C10 11.88 10 23.76 10 36 C6.7 36 3.4 36 0 36 C0.33 35.34 0.66 34.68 1 34 C1.09802807 31.62661099 1.13077876 29.25041171 1.1328125 26.875 C1.13376923 26.1722998 1.13472595 25.46959961 1.13571167 24.74560547 C1.13639238 23.25943919 1.1345457 21.77326994 1.13037109 20.28710938 C1.12502125 18.00904681 1.13031972 15.73118141 1.13671875 13.453125 C1.13605795 12.01041623 1.13477675 10.56770758 1.1328125 9.125 C1.13168457 7.80757813 1.13055664 6.49015625 1.12939453 5.1328125 C1.21832554 2.09504977 1.21832554 2.09504977 0 0 Z " fill="#030303" transform="translate(192,117)"/>
<path d="M0 0 C3.3 0 6.6 0 10 0 C9.83757812 0.7425 9.67515625 1.485 9.5078125 2.25 C8.79590188 7.50718613 8.85580195 12.70133953 8.875 18 C8.87113281 19.06734375 8.86726562 20.1346875 8.86328125 21.234375 C8.86953364 26.26129735 8.92010793 31.06335054 10 36 C6.7 36 3.4 36 0 36 C0.33 35.34 0.66 34.68 1 34 C1.09802807 31.62661099 1.13077876 29.25041171 1.1328125 26.875 C1.13376923 26.1722998 1.13472595 25.46959961 1.13571167 24.74560547 C1.13639238 23.25943919 1.1345457 21.77326994 1.13037109 20.28710938 C1.12502125 18.00904681 1.13031972 15.73118141 1.13671875 13.453125 C1.13605795 12.01041623 1.13477675 10.56770758 1.1328125 9.125 C1.13168457 7.80757813 1.13055664 6.49015625 1.12939453 5.1328125 C1.21832554 2.09504977 1.21832554 2.09504977 0 0 Z " fill="#040404" transform="translate(139,117)"/>
<path d="M0 0 C2.08080311 1.60351628 4.04042889 3.24669954 6 5 C2.30405002 5 0.42245474 3.84428961 -2.875 2.1875 C-17.85739767 -4.83861332 -31.9610007 -5.23669896 -48 -2 C-47.34 -2.33 -46.68 -2.66 -46 -3 C-46.66 -4.65 -47.32 -6.3 -48 -8 C-31.20927817 -12.24505834 -14.23955233 -10.36809118 0 0 Z " fill="#B37219" transform="translate(116,53)"/>
<path d="M0 0 C2.10404363 3.24373393 2.5 5.44197275 2.5 9.3125 C1.41184674 11.91394547 0.08907517 13.95296415 -1.5 16.3125 C-0.84 16.6425 -0.18 16.9725 0.5 17.3125 C-0.16 18.6325 -0.82 19.9525 -1.5 21.3125 C-1.90605469 20.8175 -2.31210938 20.3225 -2.73046875 19.8125 C-4.37679477 18.12576677 -4.37679477 18.12576677 -6.55078125 18.125 C-7.29714844 18.186875 -8.04351562 18.24875 -8.8125 18.3125 C-13.15532655 18.44666863 -15.83726065 17.84153431 -19.5 15.3125 C-22.10232515 12.37439095 -22.75019085 10.14572467 -22.5625 6.3125 C-22.01965812 3.12179608 -21.12100513 1.50586109 -18.6875 -0.625 C-12.44574928 -4.66377988 -6.19205282 -4.17963565 0 0 Z M-17.5 2.3125 C-19.16170323 5.63590646 -19.70246812 7.42164026 -18.875 11.0625 C-17.27652575 13.67818514 -16.40471752 14.39958878 -13.5 15.3125 C-10.83290931 15.48000414 -10.83290931 15.48000414 -8.5 15.3125 C-9.16 14.6525 -9.82 13.9925 -10.5 13.3125 C-9.571875 13.539375 -8.64375 13.76625 -7.6875 14 C-4.59968916 14.62869552 -4.59968916 14.62869552 -2.6875 13.1875 C-1.16070499 10.77677104 -0.6363808 9.17649675 -0.5 6.3125 C-1.75816265 3.46507926 -2.81853283 1.78952702 -5.375 0 C-10.22943774 -1.57055339 -13.52524722 -0.91027253 -17.5 2.3125 Z " fill="#121212" transform="translate(81.5,160.6875)"/>
<path d="M0 0 C2.578125 -0.04125 5.15625 -0.0825 7.8125 -0.125 C8.62050049 -0.14320801 9.42850098 -0.16141602 10.26098633 -0.18017578 C14.06519761 -0.20976568 15.76428169 -0.15714554 19 2 C19.4375 5.4375 19.4375 5.4375 19 9 C17 10.9375 17 10.9375 15 12 C15.3609375 12.48210937 15.721875 12.96421875 16.09375 13.4609375 C16.5578125 14.09257812 17.021875 14.72421875 17.5 15.375 C17.9640625 16.00148437 18.428125 16.62796875 18.90625 17.2734375 C20 19 20 19 20 21 C18.35 21 16.7 21 15 21 C14.72285156 20.43410156 14.44570312 19.86820313 14.16015625 19.28515625 C13.79792969 18.55167969 13.43570313 17.81820312 13.0625 17.0625 C12.70285156 16.33160156 12.34320313 15.60070312 11.97265625 14.84765625 C11.13628173 13.03750973 11.13628173 13.03750973 10 12 C8.00041636 11.95919217 5.99954746 11.95745644 4 12 C4 14.97 4 17.94 4 21 C2.68 21 1.36 21 0 21 C0 14.07 0 7.14 0 0 Z M4 3 C4 4.98 4 6.96 4 9 C5.62490954 9.02698189 7.24994633 9.04638757 8.875 9.0625 C10.23238281 9.07990234 10.23238281 9.07990234 11.6171875 9.09765625 C14.0168585 9.16249257 14.0168585 9.16249257 16 8 C16 6.35 16 4.7 16 3 C12.04 3 8.08 3 4 3 Z " fill="#0A0A0A" transform="translate(154,158)"/>
<path d="M0 0 C-0.66 1.65 -1.32 3.3 -2 5 C-2.66 4.484375 -3.32 3.96875 -4 3.4375 C-8.14659826 1.45058833 -10.53020565 2.16664851 -15 3 C-15 3.99 -15 4.98 -15 6 C-14.09636719 6.09796875 -13.19273438 6.1959375 -12.26171875 6.296875 C-11.08222656 6.44640625 -9.90273438 6.5959375 -8.6875 6.75 C-7.51574219 6.88921875 -6.34398437 7.0284375 -5.13671875 7.171875 C-2 8 -2 8 -0.08203125 9.91796875 C1 12 1 12 1 14.5625 C0 17 0 17 -2.0625 18.8125 C-8.29911908 21.33368644 -13.86885102 20.04371633 -20 18 C-19.34 16.35 -18.68 14.7 -18 13 C-17.67 13.66 -17.34 14.32 -17 15 C-13.91857132 16.10348459 -10.99765038 16.10523224 -7.75 16.0625 C-6.41195312 16.04896484 -6.41195312 16.04896484 -5.046875 16.03515625 C-4.37140625 16.02355469 -3.6959375 16.01195312 -3 16 C-3 14.35 -3 12.7 -3 11 C-3.90363281 10.96261719 -4.80726562 10.92523438 -5.73828125 10.88671875 C-6.91777344 10.82097656 -8.09726562 10.75523437 -9.3125 10.6875 C-11.07013672 10.60048828 -11.07013672 10.60048828 -12.86328125 10.51171875 C-16 10 -16 10 -17.91015625 8.64453125 C-19 7 -19 7 -19.125 4 C-18 1 -18 1 -14.875 -0.9375 C-9.79503192 -2.72122596 -5.04318217 -1.41209101 0 0 Z " fill="#161616" transform="translate(49,159)"/>
<path d="M0 0 C0.33 1.32 0.66 2.64 1 4 C-3.29 4 -7.58 4 -12 4 C-12.33 5.98 -12.66 7.96 -13 10 C-9.7 9.67 -6.4 9.34 -3 9 C-3 10.32 -3 11.64 -3 13 C-6.3 12.67 -9.6 12.34 -13 12 C-13 14.31 -13 16.62 -13 19 C-8.38 18.67 -3.76 18.34 1 18 C1.33 19.32 1.66 20.64 2 22 C-4.27 22 -10.54 22 -17 22 C-17 15.07 -17 8.14 -17 1 C-8.585 0.505 -8.585 0.505 0 0 Z " fill="#0E0E0E" transform="translate(201,157)"/>
<path d="M0 0 C1.65 0 3.3 0 5 0 C5.33773437 0.81984375 5.67546875 1.6396875 6.0234375 2.484375 C6.46945313 3.56203125 6.91546875 4.6396875 7.375 5.75 C7.81585938 6.81734375 8.25671875 7.8846875 8.7109375 8.984375 C9.90788047 11.89858159 9.90788047 11.89858159 11.1640625 14.203125 C12 16 12 16 12 19 C12.66 19 13.32 19 14 19 C14 19.66 14 20.32 14 21 C12.35 21 10.7 21 9 21 C8.67 19.02 8.34 17.04 8 15 C4.37 15 0.74 15 -3 15 C-3.33 16.98 -3.66 18.96 -4 21 C-5.65 21 -7.3 21 -9 21 C-7.24584045 16.50828842 -5.31542936 12.1007936 -3.375 7.6875 C-2.88773438 6.57665039 -2.88773438 6.57665039 -2.390625 5.44335938 C-1.59446849 3.62859087 -0.79733283 1.81425198 0 0 Z M2 4 C-0.2013866 7.80427492 -0.2013866 7.80427492 -1 12 C1.31 12 3.62 12 6 12 C5.01 9.36 4.02 6.72 3 4 C2.67 4 2.34 4 2 4 Z " fill="#111111" transform="translate(131,158)"/>
<path d="M0 0 C-1.50634759 3.82118683 -3.68484127 5.5061726 -6.9375 7.9375 C-16.30978616 15.40335 -23.7535229 24.80005639 -30 35 C-31 32 -31 32 -30.13671875 29.7578125 C-11.80695276 -3.54208583 -11.80695276 -3.54208583 0 0 Z " fill="#C57F1E" transform="translate(84,74)"/>
<path d="M0 0 C1.65 0 3.3 0 5 0 C4.67 5.61 4.34 11.22 4 17 C9.50184394 17.09265975 9.50184394 17.09265975 15 17 C16.41774838 15.81147145 16.41774838 15.81147145 16.09765625 12.40234375 C16.0909822 10.91403133 16.07902183 9.42573568 16.0625 7.9375 C16.05798828 7.17888672 16.05347656 6.42027344 16.04882812 5.63867188 C16.0370068 3.75908129 16.01907078 1.87953101 16 0 C17.32 0 18.64 0 20 0 C20.08112454 2.58396679 20.14054748 5.16537568 20.1875 7.75 C20.21263672 8.47960937 20.23777344 9.20921875 20.26367188 9.9609375 C20.30798412 13.21050186 20.2353876 15.56394273 18.67578125 18.453125 C15.50417067 21.38076554 12.08821804 21.21356622 7.9375 21.16015625 C5.55189152 20.96295877 3.94441799 20.39998095 2 19 C0.3501993 15.70039859 0.61741639 12.00872116 0.4375 8.375 C0.39431641 7.57320312 0.35113281 6.77140625 0.30664062 5.9453125 C0.20048543 3.9637489 0.09973145 1.98189729 0 0 Z " fill="#141414" transform="translate(94,158)"/>
<path d="M0 0 C3.63 0 7.26 0 11 0 C11 0.66 11 1.32 11 2 C13.475 2.495 13.475 2.495 16 3 C13.05705804 6.51717454 10.14262159 9.90934139 6.8125 13.0625 C1.26348793 18.48653432 -3.2876276 24.8560208 -8 31 C-8.33 30.34 -8.66 29.68 -9 29 C-7.78771861 26.61808028 -6.52597397 24.39333714 -5.125 22.125 C-4.72095947 21.46040771 -4.31691895 20.79581543 -3.90063477 20.11108398 C0.01747424 13.77263258 4.39083504 7.85135126 9 2 C6.03 1.67 3.06 1.34 0 1 C0 0.67 0 0.34 0 0 Z " fill="#B97618" transform="translate(117,80)"/>
<path d="M0 0 C1.65 0 3.3 0 5 0 C5 1.32 5 2.64 5 4 C5.99 4 6.98 4 8 4 C8.33 4.99 8.66 5.98 9 7 C8.01 7.495 8.01 7.495 7 8 C7 9.32 7 10.64 7 12 C4.37160666 15.03801308 1.0155868 17.84553447 -3.08984375 18.16015625 C-5 17.875 -5 17.875 -8 17 C-6.61811547 13.78956118 -5.07578097 11.95063635 -2.375 9.75 C-1.74335938 9.22921875 -1.11171875 8.7084375 -0.4609375 8.171875 C0.26222656 7.59179688 0.26222656 7.59179688 1 7 C-0.98 6.01 -2.96 5.02 -5 4 C-2 2 -2 2 0 2 C0 1.34 0 0.68 0 0 Z " fill="#DE8E1C" transform="translate(136,65)"/>
<path d="M0 0 C0.65239158 1.39278017 1.29660552 2.78939212 1.9375 4.1875 C2.29714844 4.96480469 2.65679687 5.74210937 3.02734375 6.54296875 C5.1240338 11.83942674 5.15409269 16.88511037 5.125 22.5 C5.12886719 23.24636719 5.13273438 23.99273437 5.13671875 24.76171875 C5.12985206 28.64139586 4.94729776 32.21080898 4 36 C3.34 36 2.68 36 2 36 C1.97421875 34.99582031 1.9484375 33.99164063 1.921875 32.95703125 C1.49207903 21.37531077 -0.60018373 11.39850333 -6 1 C-4 0 -4 0 0 0 Z " fill="#9D6514" transform="translate(197,74)"/>
<path d="M0 0 C3.875 1.75 3.875 1.75 5 4 C4.29135897 6.31130597 3.52295918 8.54748359 2.6875 10.8125 C0.21925124 17.78931462 -1.16752296 24.63195693 -2 32 C-5.69367862 26.45948207 -4.43121259 19.55572339 -3.359375 13.203125 C-2.41355261 8.73365059 -1.44533555 4.33600665 0 0 Z " fill="#A06714" transform="translate(28,81)"/>
<path d="M0 0 C1.8125 1.375 1.8125 1.375 2.8125 3.75 C2.8125 6.375 2.8125 6.375 1 8.625 C-2.92135123 11.76208098 -6.30989451 11.75154764 -11.1875 11.375 C-13.6018305 10.85408441 -15.83841325 10.15802892 -18.1875 9.375 C-17.5275 7.725 -16.8675 6.075 -16.1875 4.375 C-15.8575 5.035 -15.5275 5.695 -15.1875 6.375 C-12.10607132 7.47848459 -9.18515038 7.48023224 -5.9375 7.4375 C-4.59945312 7.42396484 -4.59945312 7.42396484 -3.234375 7.41015625 C-2.55890625 7.39855469 -1.8834375 7.38695312 -1.1875 7.375 C-1.1875 5.725 -1.1875 4.075 -1.1875 2.375 C-2.8375 2.375 -4.4875 2.375 -6.1875 2.375 C-6.1875 1.715 -6.1875 1.055 -6.1875 0.375 C-3.77466168 -0.48672797 -2.49284286 -0.71224082 0 0 Z " fill="#0E0E0E" transform="translate(47.1875,167.625)"/>
<path d="M0 0 C0.33 0.66 0.66 1.32 1 2 C1.99 2 2.98 2 4 2 C3.05749371 5.04502033 2.09663164 7.82354222 0.5625 10.625 C-1.36059754 14.77889068 -2.32242094 18.9420776 -3.3515625 23.390625 C-4 26 -4 26 -5 28 C-4.34 28.33 -3.68 28.66 -3 29 C-3.33 29.66 -3.66 30.32 -4 31 C-4.66 30.67 -5.32 30.34 -6 30 C-6.53448367 20.79500345 -5.44243886 13.54327893 -2 5 C-1.62617187 4.0615625 -1.25234375 3.123125 -0.8671875 2.15625 C-0.58101563 1.4446875 -0.29484375 0.733125 0 0 Z " fill="#9A6315" transform="translate(81,81)"/>
<path d="M0 0 C0 0.99 0 1.98 0 3 C-1.76371818 4.03307771 -3.53625033 5.05112049 -5.3125 6.0625 C-6.79169922 6.91521484 -6.79169922 6.91521484 -8.30078125 7.78515625 C-11 9 -11 9 -14 8 C-14.66 7.67 -15.32 7.34 -16 7 C-16 6.01 -16 5.02 -16 4 C-14.27921959 3.1290621 -12.54793677 2.27885442 -10.8125 1.4375 C-9.84957031 0.96183594 -8.88664062 0.48617187 -7.89453125 -0.00390625 C-4.72281223 -1.0953885 -3.16301775 -0.96567452 0 0 Z " fill="#BA7718" transform="translate(70,47)"/>
<path d="M0 0 C9.12725479 2.07887582 18.6382532 5.94853203 24 14 C20.47417004 12.62530818 17.04949596 11.10921873 13.625 9.5 C9.45152647 7.58551079 5.45511261 6.08902753 1 5 C1.33 4.01 1.66 3.02 2 2 C1.34 2 0.68 2 0 2 C0 1.34 0 0.68 0 0 Z " fill="#9A6316" transform="translate(98,45)"/>
<path d="M0 0 C0.33 0.66 0.66 1.32 1 2 C1.66 2 2.32 2 3 2 C3.33 1.34 3.66 0.68 4 0 C3.84402344 0.77085937 3.68804687 1.54171875 3.52734375 2.3359375 C3.33269531 3.33882812 3.13804688 4.34171875 2.9375 5.375 C2.74027344 6.37273437 2.54304688 7.37046875 2.33984375 8.3984375 C1.75617048 10.97842539 1.75617048 10.97842539 3 13 C-0.3 13 -3.6 13 -7 13 C-3.535 6.565 -3.535 6.565 0 0 Z " fill="#101010" transform="translate(57,140)"/>
<path d="M0 0 C2 3 2 3 1.92578125 4.8125 C0.57928463 7.9940954 -1.57549314 10.41416088 -3.8125 13 C-4.25142578 13.52078125 -4.69035156 14.0415625 -5.14257812 14.578125 C-7.64093259 17.51823902 -10.2305233 20.31444684 -13 23 C-11.49222254 17.31404403 -8.60096115 12.95575401 -5.375 8.125 C-4.859375 7.34125 -4.34375 6.5575 -3.8125 5.75 C-2.54763162 3.82927393 -1.27672497 1.91285653 0 0 Z " fill="#9A6417" transform="translate(121,88)"/>
<path d="M0 0 C5.28 0 10.56 0 16 0 C16.33 1.32 16.66 2.64 17 4 C14.3753399 4.19430855 11.75053235 4.38073238 9.125 4.5625 C8.00544922 4.64661133 8.00544922 4.64661133 6.86328125 4.73242188 C1.2265625 5.11328125 1.2265625 5.11328125 -1 4 C-0.67 2.68 -0.34 1.36 0 0 Z " fill="#F99E1C" transform="translate(162,62)"/>
<path d="M0 0 C-1.44781793 3.44428265 -3.27694609 5.36130962 -6.125 7.75 C-7.21167969 8.67039062 -7.21167969 8.67039062 -8.3203125 9.609375 C-8.87460938 10.06828125 -9.42890625 10.5271875 -10 11 C-10.66 10.34 -11.32 9.68 -12 9 C-12.99 8.67 -13.98 8.34 -15 8 C-13.54405245 6.68485396 -12.08516421 5.37296283 -10.625 4.0625 C-9.81289062 3.33160156 -9.00078125 2.60070312 -8.1640625 1.84765625 C-4.98497515 -0.86661869 -3.92822346 -1.17846704 0 0 Z " fill="#B17217" transform="translate(84,74)"/>
<path d="M0 0 C-0.99 1.485 -0.99 1.485 -2 3 C0.31 3 2.62 3 5 3 C5 3.33 5 3.66 5 4 C3.78763672 4.18175781 3.78763672 4.18175781 2.55078125 4.3671875 C1.48214844 4.53476563 0.41351563 4.70234375 -0.6875 4.875 C-1.74324219 5.03742188 -2.79898438 5.19984375 -3.88671875 5.3671875 C-6.79794914 5.95893069 -9.28955607 6.8031806 -12 8 C-12.33 6.02 -12.66 4.04 -13 2 C-11.39935157 1.46845258 -9.79431126 0.95011647 -8.1875 0.4375 C-7.29417969 0.14746094 -6.40085937 -0.14257812 -5.48046875 -0.44140625 C-3 -1 -3 -1 0 0 Z " fill="#BF7A1B" transform="translate(108,63)"/>
<path d="M0 0 C-0.99 0.495 -0.99 0.495 -2 1 C-2 2.32 -2 3.64 -2 5 C-7.94 4.67 -13.88 4.34 -20 4 C-20 3.67 -20 3.34 -20 3 C-15.38 2.67 -10.76 2.34 -6 2 C-6 1.01 -6 0.02 -6 -1 C-11.28 -1 -16.56 -1 -22 -1 C-22 -1.33 -22 -1.66 -22 -2 C-14.76697581 -3.22824939 -6.32397857 -4.21598571 0 0 Z " fill="#714A11" transform="translate(184,63)"/>
<path d="M0 0 C1.258125 0.12375 2.51625 0.2475 3.8125 0.375 C4.87404297 0.47941406 4.87404297 0.47941406 5.95703125 0.5859375 C8 1 8 1 11 3 C9.35 3 7.7 3 6 3 C6 3.66 6 4.32 6 5 C1.09873048 7.45063476 -5.75242023 5.87459663 -11 5 C-11 4.67 -11 4.34 -11 4 C-10.37351562 3.96261719 -9.74703125 3.92523438 -9.1015625 3.88671875 C-8.28429687 3.82097656 -7.46703125 3.75523438 -6.625 3.6875 C-5.81289062 3.62949219 -5.00078125 3.57148437 -4.1640625 3.51171875 C-1.62078662 3.17009472 -1.62078662 3.17009472 0 0 Z " fill="#AC6E17" transform="translate(130,62)"/>
<path d="M0 0 C0.33 0 0.66 0 1 0 C1.0270817 2.72923388 1.04687847 5.45819637 1.0625 8.1875 C1.07087891 8.95642578 1.07925781 9.72535156 1.08789062 10.51757812 C1.10491934 14.48526789 0.98604115 18.12571234 0 22 C-0.66 22 -1.32 22 -2 22 C-2.33 15.4 -2.66 8.8 -3 2 C-2.34 2 -1.68 2 -1 2 C-0.67 1.34 -0.34 0.68 0 0 Z " fill="#5D3C0E" transform="translate(201,88)"/>
<path d="M0 0 C0.66 0.99 1.32 1.98 2 3 C1.51789063 3.61488281 1.03578125 4.22976562 0.5390625 4.86328125 C-0.09257813 5.67152344 -0.72421875 6.47976562 -1.375 7.3125 C-2.00148438 8.11300781 -2.62796875 8.91351563 -3.2734375 9.73828125 C-4.57756718 11.44663212 -5.80781817 13.21172726 -7 15 C-7.66 15 -8.32 15 -9 15 C-8.34 12.03 -7.68 9.06 -7 6 C-6.34 6 -5.68 6 -5 6 C-4.67 5.01 -4.34 4.02 -4 3 C-3.34 3 -2.68 3 -2 3 C-2 2.34 -2 1.68 -2 1 C-1.34 0.67 -0.68 0.34 0 0 Z " fill="#C7A87D" transform="translate(85,94)"/>
<path d="M0 0 C1.18851563 0.00902344 2.37703125 0.01804688 3.6015625 0.02734375 C4.51679687 0.03894531 5.43203125 0.05054688 6.375 0.0625 C6.705 0.7225 7.035 1.3825 7.375 2.0625 C6.385 2.0625 5.395 2.0625 4.375 2.0625 C4.375 2.7225 4.375 3.3825 4.375 4.0625 C-3.81756018 4.5351477 -3.81756018 4.5351477 -7.1875 2.5625 C-7.661875 2.0675 -8.13625 1.5725 -8.625 1.0625 C-5.74084117 -0.37957941 -3.20778472 -0.03144887 0 0 Z " fill="#B67418" transform="translate(84.625,42.9375)"/>
<path d="M0 0 C2.31 0.33 4.62 0.66 7 1 C7 1.99 7 2.98 7 4 C3.31282562 6.45811625 1.35654296 6.31118164 -3 6 C-3.99 5.34 -4.98 4.68 -6 4 C-6 3.01 -6 2.02 -6 1 C-4.35 1.33 -2.7 1.66 -1 2 C-0.67 1.34 -0.34 0.68 0 0 Z " fill="#0C0C0C" transform="translate(71,173)"/>
<path d="M0 0 C0.33 1.32 0.66 2.64 1 4 C1.66 2.68 2.32 1.36 3 0 C3 0.66 3 1.32 3 2 C3.66 2.33 4.32 2.66 5 3 C4.26708288 4.1774734 3.51296199 5.34176854 2.75 6.5 C2.33234375 7.1496875 1.9146875 7.799375 1.484375 8.46875 C0.99453125 8.9740625 0.5046875 9.479375 0 10 C-1.32 10 -2.64 10 -4 10 C-3.43454163 6.04179141 -2.19097652 3.3340947 0 0 Z " fill="#BF7C22" transform="translate(86,73)"/>
<path d="M0 0 C2.97595467 2.55081829 4.44002566 5.43434437 6 9 C6 9.99 6 10.98 6 12 C6.66 12 7.32 12 8 12 C8 12.66 8 13.32 8 14 C6.35 14 4.7 14 3 14 C2.83723958 11.98177083 2.67447917 9.96354167 2.51171875 7.9453125 C2.12606964 5.60480784 2.12606964 5.60480784 -1 4 C-0.67 2.68 -0.34 1.36 0 0 Z " fill="#0C0C0C" transform="translate(137,165)"/>
<path d="M0 0 C0.495 0.37125 0.99 0.7425 1.5 1.125 C1.5 2.115 1.5 3.105 1.5 4.125 C0.88125 4.269375 0.2625 4.41375 -0.375 4.5625 C-2.53258322 5.05652225 -2.53258322 5.05652225 -4.5 6.125 C-4.83 5.135 -5.16 4.145 -5.5 3.125 C-6.49 3.62 -6.49 3.62 -7.5 4.125 C-8.49 3.795 -9.48 3.465 -10.5 3.125 C-10.5 2.465 -10.5 1.805 -10.5 1.125 C-3.11538462 -1.09038462 -3.11538462 -1.09038462 0 0 Z " fill="#DF9020" transform="translate(91.5,70.875)"/>
<path d="M0 0 C3.63 0 7.26 0 11 0 C11.33 0.99 11.66 1.98 12 3 C11 4 11 4 8.49609375 4.09765625 C6.98208984 4.08025391 6.98208984 4.08025391 5.4375 4.0625 C4.42558594 4.05347656 3.41367188 4.04445312 2.37109375 4.03515625 C1.58863281 4.02355469 0.80617187 4.01195312 0 4 C-0.33 3.34 -0.66 2.68 -1 2 C-0.67 1.34 -0.34 0.68 0 0 Z " fill="#000000" transform="translate(128,169)"/>
<path d="M0 0 C2 2 2 2 2.23046875 3.953125 C2.1472759 8.40016083 1.89765291 12.62394205 1 17 C-1.32613583 13.51079626 -1.24247293 12.05047454 -1.1875 7.9375 C-1.18105469 6.87402344 -1.17460937 5.81054688 -1.16796875 4.71484375 C-1 2 -1 2 0 0 Z " fill="#6C4612" transform="translate(25,96)"/>
<path d="M0 0 C0 0.66 0 1.32 0 2 C-0.66 2 -1.32 2 -2 2 C-3.20628008 4.33214148 -4.1654738 6.49642139 -5 9 C-6.65 8.67 -8.3 8.34 -10 8 C-8.18341255 3.37595922 -5.13109685 0 0 0 Z " fill="#F39B24" transform="translate(138,74)"/>
<path d="M0 0 C0 0.99 0 1.98 0 3 C-6.625 4.125 -6.625 4.125 -10 3 C-10 2.34 -10 1.68 -10 1 C-6.21812119 -0.83691257 -4.05431692 -1.15837626 0 0 Z " fill="#D5881A" transform="translate(70,47)"/>
<path d="M0 0 C0.33 0.99 0.66 1.98 1 3 C-0.4375 5.1875 -0.4375 5.1875 -2 7 C-1.34 7.33 -0.68 7.66 0 8 C-0.66 9.32 -1.32 10.64 -2 12 C-2.433125 11.54625 -2.86625 11.0925 -3.3125 10.625 C-5.10798342 8.79975666 -5.10798342 8.79975666 -8 7 C-6.68 7 -5.36 7 -4 7 C-3.8453125 5.824375 -3.8453125 5.824375 -3.6875 4.625 C-3 2 -3 2 0 0 Z " fill="#1B1B1B" transform="translate(82,170)"/>
<path d="M0 0 C0.33 1.32 0.66 2.64 1 4 C1.66 4 2.32 4 3 4 C1.515 9.445 1.515 9.445 0 15 C0.66 15.33 1.32 15.66 2 16 C1.67 16.66 1.34 17.32 1 18 C0.34 17.67 -0.32 17.34 -1 17 C-1.02709444 14.91673869 -1.04643873 12.83337559 -1.0625 10.75 C-1.07410156 9.58984375 -1.08570312 8.4296875 -1.09765625 7.234375 C-1.01782092 4.59022872 -0.78643778 2.50173909 0 0 Z " fill="#483011" transform="translate(76,94)"/>
<path d="M0 0 C0.66 0 1.32 0 2 0 C3.50934217 3.01868434 3.17510672 5.67297229 3 9 C2.01 10.485 2.01 10.485 1 12 C-1.32488647 8.36736489 -1.23961213 5.23314767 -1 1 C-0.67 0.67 -0.34 0.34 0 0 Z " fill="#C47D19" transform="translate(198,81)"/>
<path d="M0 0 C0.99 0.33 1.98 0.66 3 1 C1.53181332 4.10742423 -0.20025 6.90471739 -2.125 9.75 C-2.93324219 10.94882813 -2.93324219 10.94882813 -3.7578125 12.171875 C-4.16773438 12.77515625 -4.57765625 13.3784375 -5 14 C-6 11 -6 11 -4.78515625 8.30078125 C-4.21667969 7.31464844 -3.64820313 6.32851562 -3.0625 5.3125 C-2.49660156 4.31863281 -1.93070313 3.32476562 -1.34765625 2.30078125 C-0.90292969 1.54152344 -0.45820312 0.78226562 0 0 Z " fill="#55380F" transform="translate(59,95)"/>
<path d="M0 0 C0.33 0.99 0.66 1.98 1 3 C1.99 3.33 2.98 3.66 4 4 C1.90217213 6.09782787 0.6200793 6.6509396 -2.125 7.625 C-2.84945312 7.88539062 -3.57390625 8.14578125 -4.3203125 8.4140625 C-5.15175781 8.70410156 -5.15175781 8.70410156 -6 9 C-4.47291037 5.56404834 -2.40072955 2.88087546 0 0 Z " fill="#917A5A" transform="translate(114,108)"/>
<path d="M0 0 C3.63 0 7.26 0 11 0 C11 0.66 11 1.32 11 2 C12.65 2.33 14.3 2.66 16 3 C13.23776722 5.76223278 10.79293383 5.57856291 7 6 C7.66 4.68 8.32 3.36 9 2 C6.03 1.67 3.06 1.34 0 1 C0 0.67 0 0.34 0 0 Z " fill="#734A0E" transform="translate(117,80)"/>
<path d="M0 0 C0.33 0 0.66 0 1 0 C1.125 2.375 1.125 2.375 1 5 C0.34 5.66 -0.32 6.32 -1 7 C-4.2578125 6.9765625 -4.2578125 6.9765625 -8.125 6.625 C-10.04699219 6.45871094 -10.04699219 6.45871094 -12.0078125 6.2890625 C-13.48894531 6.14597656 -13.48894531 6.14597656 -15 6 C-15 5.67 -15 5.34 -15 5 C-14.24074219 4.93941406 -13.48148438 4.87882813 -12.69921875 4.81640625 C-11.70535156 4.73261719 -10.71148437 4.64882812 -9.6875 4.5625 C-8.70136719 4.48128906 -7.71523437 4.40007812 -6.69921875 4.31640625 C-3.90624401 4.08187441 -3.90624401 4.08187441 -1 3 C-0.67 2.01 -0.34 1.02 0 0 Z " fill="#202020" transform="translate(172,162)"/>
<path d="M0 0 C1.98 0.495 1.98 0.495 4 1 C4 2.65 4 4.3 4 6 C2.35 6.33 0.7 6.66 -1 7 C-0.67 4.69 -0.34 2.38 0 0 Z " fill="#CD821A" transform="translate(30,77)"/>
<path d="M0 0 C5.28 0.66 10.56 1.32 16 2 C16 2.33 16 2.66 16 3 C10.39 3 4.78 3 -1 3 C-0.67 2.01 -0.34 1.02 0 0 Z " fill="#FB9F22" transform="translate(107,63)"/>
<path d="M0 0 C-1.65 1.65 -3.3 3.3 -5 5 C-5.99 4.67 -6.98 4.34 -8 4 C-7.6875 2.0625 -7.6875 2.0625 -7 0 C-3.86650268 -1.04449911 -3.01031744 -0.93423645 0 0 Z " fill="#CB811A" transform="translate(52,59)"/>
<path d="M0 0 C0.33 0.66 0.66 1.32 1 2 C2.97888961 2.72693904 4.97954558 3.39816251 7 4 C6.67 4.66 6.34 5.32 6 6 C3.36 5.67 0.72 5.34 -2 5 C-1.34 3.35 -0.68 1.7 0 0 Z " fill="#171717" transform="translate(31,172)"/>
<path d="M0 0 C0 1.32 0 2.64 0 4 C-3.63 3.67 -7.26 3.34 -11 3 C-11 2.34 -11 1.68 -11 1 C-9.54182203 0.83197949 -8.0834516 0.66562857 -6.625 0.5 C-5.81289062 0.4071875 -5.00078125 0.314375 -4.1640625 0.21875 C-2 0 -2 0 0 0 Z " fill="#1E1E1E" transform="translate(198,166)"/>
<path d="M0 0 C0.33 0.66 0.66 1.32 1 2 C1.99 2.33 2.98 2.66 4 3 C3.1875 5.9375 3.1875 5.9375 2 9 C1.01 9.33 0.02 9.66 -1 10 C-1.125 3.375 -1.125 3.375 0 0 Z " fill="#835515" transform="translate(78,88)"/>
<path d="M0 0 C0.66 0.99 1.32 1.98 2 3 C0.95125002 5.62187494 0.35068687 6.79371361 -2.125 8.25 C-2.74375 8.4975 -3.3625 8.745 -4 9 C-3.46930939 5.17902761 -2.50298434 2.93828597 0 0 Z " fill="#A06717" transform="translate(64,88)"/>
<path d="M0 0 C-0.33 1.32 -0.66 2.64 -1 4 C-0.34 4 0.32 4 1 4 C1 4.66 1 5.32 1 6 C-0.98 6.33 -2.96 6.66 -5 7 C-4.34 5.35 -3.68 3.7 -3 2 C-4.32 1.67 -5.64 1.34 -7 1 C-4.50935112 0.31292445 -2.62113708 0 0 0 Z " fill="#956013" transform="translate(162,62)"/>
<path d="M0 0 C1 4 1 4 1 7 C0.01 7.66 -0.98 8.32 -2 9 C-2.33 8.01 -2.66 7.02 -3 6 C-3.99 6 -4.98 6 -6 6 C-4.02 4.02 -2.04 2.04 0 0 Z " fill="#8F5B0F" transform="translate(44,59)"/>
<path d="M0 0 C0.99 0.33 1.98 0.66 3 1 C2.67 2.98 2.34 4.96 2 7 C0.35 7 -1.3 7 -3 7 C-1.125 2.25 -1.125 2.25 0 0 Z " fill="#060606" transform="translate(125,172)"/>
<path d="M0 0 C3 1 3 1 4.1875 3.0625 C4.455625 3.701875 4.72375 4.34125 5 5 C3.02 5.33 1.04 5.66 -1 6 C-0.67 4.68 -0.34 3.36 0 2 C-0.66 1.67 -1.32 1.34 -2 1 C-1.34 0.67 -0.68 0.34 0 0 Z " fill="#D98B1D" transform="translate(147,67)"/>
<path d="M0 0 C-0.99 1.485 -0.99 1.485 -2 3 C0.31 3 2.62 3 5 3 C5 3.33 5 3.66 5 4 C-0.33595134 4.27131956 -3.61383821 4.4266889 -8 1 C-8 0.67 -8 0.34 -8 0 C-4.71303767 -0.79953138 -3.28976808 -1.09658936 0 0 Z " fill="#825310" transform="translate(108,63)"/>
<path d="M0 0 C2 3 2 3 2 7 C1.34 7 0.68 7 0 7 C-0.33 7.66 -0.66 8.32 -1 9 C-1.80967438 6.08517222 -2.21845993 4.53886783 -1.0625 1.6875 C-0.711875 1.130625 -0.36125 0.57375 0 0 Z " fill="#060606" transform="translate(82,163)"/>
<path d="M0 0 C0.78375 0.04125 1.5675 0.0825 2.375 0.125 C-2.25 5 -2.25 5 -5.625 6.125 C-4.86443086 2.32215429 -4.27658992 0.20364714 0 0 Z " fill="#B57417" transform="translate(138.625,76.875)"/>
<path d="M0 0 C3.81684226 1.55500981 6.19195732 4.03595495 9 7 C5.2089881 5.55049545 1.6125362 3.84827434 -2 2 C-1.34 1.34 -0.68 0.68 0 0 Z " fill="#291C08" transform="translate(113,52)"/>
<path d="M0 0 C2.97 0.495 2.97 0.495 6 1 C5.34 2.65 4.68 4.3 4 6 C2.35 4.68 0.7 3.36 -1 2 C-0.67 1.34 -0.34 0.68 0 0 Z " fill="#0D0D0D" transform="translate(43,158)"/>
<path d="M0 0 C2.3125 0.1875 2.3125 0.1875 4 1 C2.47058649 4.05882701 0.05780454 4.68951234 -3 6 C-3.66 5.67 -4.32 5.34 -5 5 C-2.75 2.4375 -2.75 2.4375 0 0 Z " fill="#B3976F" transform="translate(128,93)"/>
<path d="M0 0 C0.66 0.99 1.32 1.98 2 3 C0.35 4.65 -1.3 6.3 -3 8 C-3.33 6.35 -3.66 4.7 -4 3 C-3.34 3 -2.68 3 -2 3 C-2 2.34 -2 1.68 -2 1 C-1.34 0.67 -0.68 0.34 0 0 Z " fill="#C0A176" transform="translate(85,94)"/>
<path d="M0 0 C0.66 0 1.32 0 2 0 C2 0.99 2 1.98 2 3 C1.34 3 0.68 3 0 3 C0 3.66 0 4.32 0 5 C-0.66 5 -1.32 5 -2 5 C-2.33 6.32 -2.66 7.64 -3 9 C-4.125 5.25 -4.125 5.25 -3 3 C-2.34 3 -1.68 3 -1 3 C-0.67 2.01 -0.34 1.02 0 0 Z " fill="#FAD399" transform="translate(83,92)"/>
<path d="M0 0 C0.66 0.33 1.32 0.66 2 1 C1.34 2.98 0.68 4.96 0 7 C-0.99 6.67 -1.98 6.34 -3 6 C-3 4.68 -3 3.36 -3 2 C-2.01 1.34 -1.02 0.68 0 0 Z " fill="#E08E1D" transform="translate(41,64)"/>
<path d="M0 0 C2.64 0.66 5.28 1.32 8 2 C6.75 3.5625 6.75 3.5625 5 5 C2.8125 4.6875 2.8125 4.6875 1 4 C1.33 3.34 1.66 2.68 2 2 C1.34 2 0.68 2 0 2 C0 1.34 0 0.68 0 0 Z " fill="#8B5911" transform="translate(98,45)"/>
<path d="M0 0 C2.89932357 2.39509338 3.50168276 4.31245243 4 8 C3.01 8.495 3.01 8.495 2 9 C1.87625 8.360625 1.7525 7.72125 1.625 7.0625 C1.315625 6.0415625 1.315625 6.0415625 1 5 C0.34 4.67 -0.32 4.34 -1 4 C-0.67 2.68 -0.34 1.36 0 0 Z " fill="#1F1F1F" transform="translate(137,165)"/>
<path d="M0 0 C0.99 0 1.98 0 3 0 C2.37240135 2.92879371 1.41377341 5.36095629 0 8 C-0.38063221 5.6739143 -0.71269945 3.33944736 -1 1 C-0.67 0.67 -0.34 0.34 0 0 Z " fill="#A86B18" transform="translate(196,78)"/>
<path d="M0 0 C2.97 0.495 2.97 0.495 6 1 C4.75 2.5625 4.75 2.5625 3 4 C0.8125 3.6875 0.8125 3.6875 -1 3 C-0.67 2.01 -0.34 1.02 0 0 Z " fill="#DC8C1A" transform="translate(182,63)"/>
<path d="M0 0 C0 0.66 0 1.32 0 2 C0.66 2 1.32 2 2 2 C2 2.66 2 3.32 2 4 C-0.31 4 -2.62 4 -5 4 C-5 3.34 -5 2.68 -5 2 C-2 0 -2 0 0 0 Z " fill="#B47418" transform="translate(98,45)"/>
<path d="M0 0 C1.875 0.25 1.875 0.25 4 1 C5.25 3.0625 5.25 3.0625 6 5 C4.02 5.33 2.04 5.66 0 6 C0.66 5.67 1.32 5.34 2 5 C1.34 3.35 0.68 1.7 0 0 Z " fill="#8D5910" transform="translate(68,45)"/>
<path d="M0 0 C2.4375 0.375 2.4375 0.375 5 1 C5.33 1.66 5.66 2.32 6 3 C3.36 3 0.72 3 -2 3 C-1.34 2.01 -0.68 1.02 0 0 Z " fill="#000000" transform="translate(38,176)"/>
<path d="M0 0 C0.33 0.66 0.66 1.32 1 2 C1.99 2 2.98 2 4 2 C3.34 3.32 2.68 4.64 2 6 C1.34 5.34 0.68 4.68 0 4 C-0.99 3.67 -1.98 3.34 -3 3 C-2.01 2.01 -1.02 1.02 0 0 Z " fill="#935F17" transform="translate(72,79)"/>
<path d="M0 0 C1.5625 1.125 1.5625 1.125 3 3 C2.6875 6.1875 2.6875 6.1875 2 9 C1.34 8.67 0.68 8.34 0 8 C0 7.34 0 6.68 0 6 C-0.66 5.67 -1.32 5.34 -2 5 C-1.34 4.01 -0.68 3.02 0 2 C0 1.34 0 0.68 0 0 Z " fill="#A06915" transform="translate(189,66)"/>
<path d="M0 0 C0.66 0.99 1.32 1.98 2 3 C0.35 4.98 -1.3 6.96 -3 9 C-3.33 8.34 -3.66 7.68 -4 7 C-3.22265625 5.2734375 -3.22265625 5.2734375 -2.0625 3.375 C-1.381875 2.26125 -0.70125 1.1475 0 0 Z " fill="#432E11" transform="translate(112,102)"/>
<path d="M0 0 C0.33 0.99 0.66 1.98 1 3 C-1.31 3.33 -3.62 3.66 -6 4 C-5.67 3.01 -5.34 2.02 -5 1 C-3 0 -3 0 0 0 Z " fill="#FB9F20" transform="translate(144,69)"/>
<path d="M0 0 C0.33 0.66 0.66 1.32 1 2 C0.34 1.67 -0.32 1.34 -1 1 C-0.67 0.67 -0.34 0.34 0 0 Z " fill="#000000" transform="translate(107,111)"/>
<path d="" fill="#000000" transform="translate(0,0)"/>
</svg>
