<?xml version="1.0" encoding="UTF-8"?>
<svg version="1.1" xmlns="http://www.w3.org/2000/svg" width="938" height="428">
<path d="M0 0 C271.26 0 542.52 0 822 0 C822 111.87 822 223.74 822 339 C550.74 339 279.48 339 0 339 C0 227.13 0 115.26 0 0 Z " fill="#242161" transform="translate(58,45)"/>
<path d="M0 0 C271.26 0 542.52 0 822 0 C822 111.87 822 223.74 822 339 C550.74 339 279.48 339 0 339 C0 227.13 0 115.26 0 0 Z M25 24 C25 93.63 25 163.26 25 235 C280.09 235 535.18 235 798 235 C798 165.37 798 95.74 798 24 C542.91 24 287.82 24 25 24 Z " fill="#FCFCFC" transform="translate(58,45)"/>
<path d="M0 0 C15.84058954 11.9728693 27.254057 29.12872354 30.62646484 48.88818359 C33.07114169 69.47493596 29.17773945 89.50865899 17.07177734 106.63818359 C14.23989712 110.1499292 11.22883263 113.41756343 8.07177734 116.63818359 C7.40662109 117.33943359 6.74146484 118.04068359 6.05615234 118.76318359 C-6.98209087 131.50284109 -25.24695942 136.96697625 -43.05322266 137.07568359 C-64.20066088 136.81684102 -81.10464244 129.3498652 -96.16650391 114.41943359 C-109.47064391 100.18826312 -116.5436326 81.37320221 -116.42822266 62.01318359 C-116.41855469 60.30630371 -116.41855469 60.30630371 -116.40869141 58.56494141 C-116.05395751 42.07448301 -110.8270122 26.35343806 -99.92822266 13.63818359 C-99.26822266 13.63818359 -98.60822266 13.63818359 -97.92822266 13.63818359 C-97.65494141 13.04392578 -97.38166016 12.44966797 -97.10009766 11.83740234 C-91.74118337 1.78050653 -78.02448382 -5.86224811 -67.52978516 -9.58837891 C-44.11383653 -16.54987715 -20.23452657 -14.29073047 0 0 Z " fill="#FCFCFD" transform="translate(381.92822265625,129.36181640625)"/>
<path d="M0 0 C27.39 0 54.78 0 83 0 C86.37069548 10.11208643 86.37069548 10.11208643 87.46484375 14.63671875 C87.70783203 15.62736328 87.95082031 16.61800781 88.20117188 17.63867188 C88.44416016 18.64478516 88.68714844 19.65089844 88.9375 20.6875 C90.75039312 28.16873819 92.7037844 35.58563308 94.84204102 42.98071289 C97.01293163 50.489551 99.10380315 58.0213687 101.20898438 65.54882812 C101.73539879 67.42962234 102.26273938 69.31015757 102.79101562 71.19042969 C103.57118776 73.96749402 104.3484064 76.74537056 105.125 79.5234375 C105.37677002 80.41826843 105.62854004 81.31309937 105.88793945 82.23504639 C107.04502781 86.38655359 108.14682195 90.53351341 109.08984375 94.73925781 C109.25661621 95.46948151 109.42338867 96.1997052 109.59521484 96.95205688 C110.02878778 98.88849576 110.43921074 100.83007841 110.84765625 102.77197266 C112.28513848 106.79875021 113.53363882 108.47291451 117 111 C120.3 111.66 123.6 112.32 127 113 C127 122.9 127 132.8 127 143 C101.59 143 76.18 143 50 143 C50 133.1 50 123.2 50 113 C54.95 112.505 54.95 112.505 60 112 C60.66 111.34 61.32 110.68 62 110 C62 106.37 62 102.74 62 99 C52.1 99.33 42.2 99.66 32 100 C31.67 102.97 31.34 105.94 31 109 C34.36440544 112.98910049 34.36440544 112.98910049 43 113 C43 122.9 43 132.8 43 143 C22.87 143 2.74 143 -18 143 C-18 133.1 -18 123.2 -18 113 C-13.05 112.505 -13.05 112.505 -8 112 C-2.96089487 109.33836536 -1.69765551 106.83789029 0.01049805 101.46630859 C0.61657211 99.19953879 1.19894438 96.92634359 1.76171875 94.6484375 C2.07905472 93.43862213 2.39639069 92.22880676 2.7233429 90.98233032 C3.56152537 87.77128146 4.38059793 84.55657946 5.19055176 81.33837891 C6.01075399 78.09786484 6.85522175 74.86381451 7.69726562 71.62890625 C9.21380967 65.79199557 10.71139544 59.95064305 12.18685913 54.10321045 C12.72979691 52.03118301 13.30476556 49.96729056 13.91104126 47.91290283 C14.33756485 46.46642365 14.33756485 46.46642365 14.77270508 44.99072266 C15.03239578 44.14643707 15.29208649 43.30215149 15.55964661 42.43228149 C16.23219183 39.56772801 16.23219183 39.56772801 15 35 C10.05 34.67 5.1 34.34 0 34 C0 22.78 0 11.56 0 0 Z " fill="#FDFDFD" transform="translate(556,120)"/>
<path d="M0 0 C271.26 0 542.52 0 822 0 C822 111.87 822 223.74 822 339 C550.74 339 279.48 339 0 339 C0 227.13 0 115.26 0 0 Z M7 6 C7 113.91 7 221.82 7 333 C273.97 333 540.94 333 816 333 C816 225.09 816 117.18 816 6 C549.03 6 282.06 6 7 6 Z " fill="#514E7D" transform="translate(58,45)"/>
<path d="M0 0 C41.58 0 83.16 0 126 0 C126 20.13 126 40.26 126 61 C118.74 61 111.48 61 104 61 C103.5875 59.1025 103.175 57.205 102.75 55.25 C100.87535703 44.40735749 100.87535703 44.40735749 96 35 C93.03 34.67 90.06 34.34 87 34 C87 60.07 87 86.14 87 113 C91.62 113 96.24 113 101 113 C101 122.9 101 132.8 101 143 C75.59 143 50.18 143 24 143 C24 133.1 24 123.2 24 113 C28.62 113 33.24 113 38 113 C38 86.93 38 60.86 38 34 C33.545 34.495 33.545 34.495 29 35 C25.91996251 39.07762048 25.01872802 44.19324477 23.875 49.125 C23.70613281 49.82753906 23.53726562 50.53007812 23.36328125 51.25390625 C22.90374184 53.16805071 22.45155188 55.08395554 22 57 C21.67 58.32 21.34 59.64 21 61 C14.07 61 7.14 61 0 61 C0 40.87 0 20.74 0 0 Z " fill="#FCFCFD" transform="translate(419,120)"/>
<path d="M0 0 C41.58 0 83.16 0 126 0 C126 20.13 126 40.26 126 61 C119.07 61 112.14 61 105 61 C103.824375 56.7925 103.824375 56.7925 102.625 52.5 C102.26075928 51.1996582 102.26075928 51.1996582 101.88916016 49.87304688 C100.51308763 44.93306967 99.2222311 39.98030617 98 35 C92.555 34.505 92.555 34.505 87 34 C87 60.07 87 86.14 87 113 C91.62 113 96.24 113 101 113 C101 122.9 101 132.8 101 143 C75.92 143 50.84 143 25 143 C25 133.1 25 123.2 25 113 C29.62 113 34.24 113 39 113 C39 86.93 39 60.86 39 34 C30.97949852 34.36620684 30.97949852 34.36620684 28 36 C27.05692509 38.50951567 27.05692509 38.50951567 26.2734375 41.56640625 C25.809375 43.2534668 25.809375 43.2534668 25.3359375 44.97460938 C25.01882812 46.15861328 24.70171875 47.34261719 24.375 48.5625 C23.88773438 50.34430664 23.88773438 50.34430664 23.390625 52.16210938 C22.58663309 55.10613858 21.79240893 58.05283203 21 61 C14.07 61 7.14 61 0 61 C0 40.87 0 20.74 0 0 Z " fill="#FEFEFE" transform="translate(134,120)"/>
<path d="M0 0 C26.07 0 52.14 0 79 0 C79 11.22 79 22.44 79 34 C74.38 34 69.76 34 65 34 C65 60.07 65 86.14 65 113 C70.61 113 76.22 113 82 113 C82.556875 110.6178125 82.556875 110.6178125 83.125 108.1875 C85.32685678 99.32688795 88.20678247 90.6900101 91 82 C98.92 82 106.84 82 115 82 C115 102.13 115 122.26 115 143 C77.05 143 39.1 143 0 143 C0 133.1 0 123.2 0 113 C4.62 113 9.24 113 14 113 C14 86.93 14 60.86 14 34 C9.38 34 4.76 34 0 34 C0 22.78 0 11.56 0 0 Z " fill="#FCFCFD" transform="translate(690,120)"/>
<path d="M0 0 C270.27 0 540.54 0 819 0 C819 111.21 819 222.42 819 337 C551.04 337 283.08 337 7 337 C6.34 335.68 5.68 334.36 5 333 C271.97 332.67 538.94 332.34 814 332 C814.33 224.42 814.66 116.84 815 6 C815.99 6 816.98 6 818 6 C818 4.35 818 2.7 818 1 C548.06 1 278.12 1 0 1 C0 0.67 0 0.34 0 0 Z " fill="#211E5A" transform="translate(60,46)"/>
<path d="M0 0 C6.61047775 4.68790853 10.67602424 10.04136935 12.8125 17.9375 C13.22789031 21.65831095 13.23367547 25.34480626 13.2109375 29.0859375 C13.21380768 30.13850739 13.21667786 31.19107727 13.21963501 32.27554321 C13.22166803 34.49262025 13.21619179 36.70971553 13.20361328 38.92675781 C13.18758169 42.29533624 13.20347209 45.66270905 13.22265625 49.03125 C13.22067306 51.19531512 13.21682781 53.35937949 13.2109375 55.5234375 C13.22004654 57.01609634 13.22004654 57.01609634 13.2293396 58.53890991 C13.13386868 68.17476218 11.46520236 76.27588139 4.6171875 83.30859375 C-0.53180025 87.95605672 -5.37917934 88.607816 -12.1484375 88.40625 C-17.19707151 87.62754038 -20.6081052 85.53153445 -24.1875 81.9375 C-28.34125797 76.17005188 -30.27944298 70.85960646 -30.38037109 63.77685547 C-30.39643402 62.74833466 -30.41249695 61.71981384 -30.42904663 60.66012573 C-30.47377699 55.95376423 -30.51457526 51.24754039 -30.53759766 46.54101562 C-30.55412811 44.06598489 -30.58137917 41.59100131 -30.61962891 39.11621094 C-30.67467494 35.53295317 -30.69631685 31.9508124 -30.7109375 28.3671875 C-30.73360687 27.27203827 -30.75627625 26.17688904 -30.77963257 25.04855347 C-30.75747504 16.90530811 -29.05177544 10.09540206 -23.38339233 3.99630737 C-16.7189751 -2.1294015 -8.25580199 -4.80797664 0 0 Z " fill="#232161" transform="translate(348.1875,148.0625)"/>
<path d="M0 0 C4.45810752 -0.11734237 8.91581128 -0.18763372 13.375 -0.25 C14.62667969 -0.28351563 15.87835937 -0.31703125 17.16796875 -0.3515625 C26.77547275 -0.45216464 34.57609329 0.63860581 41.875 7.25 C47.36883522 13.38023693 49.74362206 18.87827722 49.375 27.1953125 C48.31680921 35.10969775 45.38755464 40.41291807 39.29296875 45.52734375 C33.7414583 49.09279425 29.34914332 50.37788597 22.75390625 50.29296875 C22.09792953 50.28872391 21.44195282 50.28447906 20.76609802 50.28010559 C18.69779089 50.26348779 16.63050599 50.22587238 14.5625 50.1875 C13.14910275 50.17243111 11.73569002 50.15874659 10.32226562 50.14648438 C6.88118565 50.11364104 3.44069281 50.06198015 0 50 C0 46.7 0 43.4 0 40 C0.66 40 1.32 40 2 40 C2 30.1 2 20.2 2 10 C1.34 10 0.68 10 0 10 C0 6.7 0 3.4 0 0 Z " fill="#282562" transform="translate(714,295)"/>
<path d="M0 0 C4.71388705 -0.09940876 9.42715442 -0.17172034 14.1418457 -0.21972656 C15.74319091 -0.23975347 17.3444638 -0.26698354 18.94555664 -0.30175781 C21.25685537 -0.35067419 23.56718154 -0.37305711 25.87890625 -0.390625 C26.9402755 -0.42159271 26.9402755 -0.42159271 28.02308655 -0.45318604 C34.28527833 -0.4559676 38.25994785 1.61350297 42.9375 5.6875 C44.65019041 9.41512031 44.64798363 12.97971446 44 17 C42.26016146 20.18970398 40.55304507 22.44695493 38 25 C38.433125 25.40089844 38.86625 25.80179687 39.3125 26.21484375 C42.55162834 29.52145393 44.44339984 31.88481361 44.5625 36.625 C44.22410064 41.36259111 42.55938148 44.1807216 39.5 47.75 C35.8894466 50.7587945 31.4752015 50.12809985 27.05078125 50.09765625 C26.27816452 50.0962413 25.50554779 50.09482635 24.70951843 50.09336853 C22.24380611 50.08777466 19.77818485 50.07522333 17.3125 50.0625 C15.63997527 50.05748421 13.96744912 50.05292144 12.29492188 50.04882812 C8.19657954 50.03780724 4.09830521 50.02054684 0 50 C-0.02689216 48.52093108 -0.04634621 47.04172517 -0.0625 45.5625 C-0.07990234 44.32693359 -0.07990234 44.32693359 -0.09765625 43.06640625 C0 41 0 41 1 40 C1.15873955 37.78312006 1.25133837 35.56144702 1.31640625 33.33984375 C1.33718735 32.67537735 1.35796844 32.01091095 1.37937927 31.3263092 C1.44493658 29.19681457 1.50378785 27.06719332 1.5625 24.9375 C1.60567939 23.49673153 1.64929349 22.05597601 1.69335938 20.61523438 C1.80062393 17.0769596 1.90187371 13.53854131 2 10 C1.34 10 0.68 10 0 10 C0 6.7 0 3.4 0 0 Z " fill="#272462" transform="translate(125,295)"/>
<path d="M0 0 C4.73219762 -0.09927153 9.46378213 -0.17165633 14.19677734 -0.21972656 C15.80495774 -0.23977627 17.41306583 -0.26702364 19.02099609 -0.30175781 C21.3397002 -0.35057264 23.65743625 -0.37303428 25.9765625 -0.390625 C27.04567368 -0.42159271 27.04567368 -0.42159271 28.13638306 -0.45318604 C34.05328975 -0.45581394 37.44703354 1.61327321 41.6796875 5.5703125 C44.89231981 9.74883427 45.74956158 13.2262097 45.5078125 18.48828125 C44.67252845 22.61972467 42.56705362 25.71783858 40 29 C40.92574392 30.81853256 41.86598995 32.62968883 42.8125 34.4375 C43.33457031 35.44683594 43.85664062 36.45617187 44.39453125 37.49609375 C45.81418484 40.28691218 45.81418484 40.28691218 49 41 C49 43.97 49 46.94 49 50 C36.74537359 52.04243773 36.74537359 52.04243773 31 50 C26.13921288 45.66333929 23.14833665 39.07340577 21 33 C21 32.34 21 31.68 21 31 C20.01 31 19.02 31 18 31 C18.14049518 32.47968324 18.28754826 33.95874516 18.4375 35.4375 C18.51871094 36.26121094 18.59992187 37.08492188 18.68359375 37.93359375 C18.78930815 39.98662025 18.78930815 39.98662025 20 41 C20 43.97 20 46.94 20 50 C13.4 50 6.8 50 0 50 C0 46.7 0 43.4 0 40 C0.66 40 1.32 40 2 40 C1.88201748 35.88806264 1.75778941 31.77636712 1.62768555 27.66479492 C1.58428566 26.26510801 1.54261436 24.86536641 1.50268555 23.46557617 C1.44510555 21.45738505 1.38086 19.44938851 1.31640625 17.44140625 C1.27974854 16.23170166 1.24309082 15.02199707 1.20532227 13.77563477 C1.31061734 11.09294544 1.31061734 11.09294544 0 10 C-0.07205511 8.31391034 -0.08386068 6.62499341 -0.0625 4.9375 C-0.05347656 4.01839844 -0.04445313 3.09929687 -0.03515625 2.15234375 C-0.02355469 1.44207031 -0.01195312 0.73179687 0 0 Z " fill="#252360" transform="translate(559,295)"/>
<path d="M0 0 C6.09258372 -1.52314593 12.09163852 -2.66047689 18 0 C24.86451891 6.67360726 29.45165938 15.67170327 34 24 C34.33 19.38 34.66 14.76 35 10 C34.34 10 33.68 10 33 10 C33 6.7 33 3.4 33 0 C38.28 0 43.56 0 49 0 C49 3.3 49 6.6 49 10 C48.34 10 47.68 10 47 10 C47 23.2 47 36.4 47 50 C33 50 33 50 29.76171875 47.2109375 C28.66943359 45.37524414 28.66943359 45.37524414 27.6875 43.375 C26.90263106 42.00634561 26.11746723 40.63786031 25.33203125 39.26953125 C24.95256348 38.56521973 24.5730957 37.8609082 24.18212891 37.13525391 C22.65057417 34.36883968 20.94608562 31.73754581 19.2097168 29.09643555 C17.4489918 26.41331868 15.72837423 23.70406937 14 21 C13.67 27.27 13.34 33.54 13 40 C13.66 40 14.32 40 15 40 C15 43.3 15 46.6 15 50 C10.05 50 5.1 50 0 50 C0 46.7 0 43.4 0 40 C0.66 40 1.32 40 2 40 C2 30.1 2 20.2 2 10 C1.34 10 0.68 10 0 10 C0 6.7 0 3.4 0 0 Z " fill="#272561" transform="translate(390,295)"/>
<path d="M0 0 C6.09258372 -1.52314593 12.09163852 -2.66047689 18 0 C24.86451891 6.67360726 29.45165938 15.67170327 34 24 C34.33 19.38 34.66 14.76 35 10 C34.34 10 33.68 10 33 10 C33 6.7 33 3.4 33 0 C38.28 0 43.56 0 49 0 C49 3.3 49 6.6 49 10 C48.34 10 47.68 10 47 10 C47 23.2 47 36.4 47 50 C33 50 33 50 29.76171875 47.2109375 C28.66943359 45.37524414 28.66943359 45.37524414 27.6875 43.375 C26.90263106 42.00634561 26.11746723 40.63786031 25.33203125 39.26953125 C24.95256348 38.56521973 24.5730957 37.8609082 24.18212891 37.13525391 C22.65057417 34.36883968 20.94608562 31.73754581 19.2097168 29.09643555 C17.4489918 26.41331868 15.72837423 23.70406937 14 21 C13.67 27.27 13.34 33.54 13 40 C13.66 40 14.32 40 15 40 C15 43.3 15 46.6 15 50 C10.05 50 5.1 50 0 50 C-0.09765625 43.06640625 -0.09765625 43.06640625 0 41 C0.495 40.505 0.495 40.505 1 40 C1.15873955 37.78312006 1.25133837 35.56144702 1.31640625 33.33984375 C1.33718735 32.67537735 1.35796844 32.01091095 1.37937927 31.3263092 C1.44493658 29.19681457 1.50378785 27.06719332 1.5625 24.9375 C1.60567939 23.49673153 1.64929349 22.05597601 1.69335938 20.61523438 C1.80062393 17.0769596 1.90187371 13.53854131 2 10 C1.34 10 0.68 10 0 10 C0 6.7 0 3.4 0 0 Z " fill="#272561" transform="translate(232,295)"/>
<path d="M0 0 C9.57 0 19.14 0 29 0 C30.093125 3.691875 31.18625 7.38375 32.3125 11.1875 C32.66658936 12.3822998 33.02067871 13.57709961 33.38549805 14.80810547 C35.31504755 21.40696047 36.98395424 27.91893519 38.1015625 34.70703125 C38.80095866 37.269656 38.80095866 37.269656 41.5859375 38.19921875 C42.38257813 38.79347656 43.17921875 39.38773437 44 40 C44 43.3 44 46.6 44 50 C35.09 50 26.18 50 17 50 C17 46.7 17 43.4 17 40 C18.98 39.505 18.98 39.505 21 39 C21 38.01 21 37.02 21 36 C17.7 35.67 14.4 35.34 11 35 C11.33 36.32 11.66 37.64 12 39 C13.485 39.495 13.485 39.495 15 40 C15 43.3 15 46.6 15 50 C8.07 50 1.14 50 -6 50 C-6 46.7 -6 43.4 -6 40 C-4.35115772 38.97087565 -2.68169799 37.97450996 -1 37 C0.52807282 33.43268132 1.35966192 29.70707656 2.25 25.9375 C2.75396229 23.92546874 3.25911179 21.91373435 3.765625 19.90234375 C3.97993164 19.01023193 4.19423828 18.11812012 4.41503906 17.19897461 C5 15 5 15 6 13 C4.02 13 2.04 13 0 13 C0 8.71 0 4.42 0 0 Z " fill="#272461" transform="translate(770,295)"/>
<path d="M0 0 C4.69554174 -0.12443339 9.39010534 -0.21472547 14.08691406 -0.2746582 C15.68148536 -0.29966413 17.27594365 -0.33368099 18.87011719 -0.37719727 C35.52373983 -0.82011276 35.52373983 -0.82011276 42 5 C42.495 6.485 42.495 6.485 43 8 C43.66 8 44.32 8 45 8 C47.28679802 12.71652091 48.03080853 17.02458511 46.27734375 22.0859375 C43.86465296 27.34111016 41.03983728 30.51196777 35.765625 33.09375 C32.44028473 34.18340952 29.67926159 34.19554064 26.1875 34.125 C25.02605469 34.10695313 23.86460937 34.08890625 22.66796875 34.0703125 C21.34732422 34.03550781 21.34732422 34.03550781 20 34 C20.33 34.969375 20.66 35.93875 21 36.9375 C22 41 22 41 22 50 C14.74 50 7.48 50 0 50 C0 46.7 0 43.4 0 40 C0.66 40 1.32 40 2 40 C1.88201748 35.88806264 1.75778941 31.77636712 1.62768555 27.66479492 C1.58428566 26.26510801 1.54261436 24.86536641 1.50268555 23.46557617 C1.44510555 21.45738505 1.38086 19.44938851 1.31640625 17.44140625 C1.27974854 16.23170166 1.24309082 15.02199707 1.20532227 13.77563477 C1.31061734 11.09294544 1.31061734 11.09294544 0 10 C-0.07205511 8.31391034 -0.08386068 6.62499341 -0.0625 4.9375 C-0.05347656 4.01839844 -0.04445313 3.09929687 -0.03515625 2.15234375 C-0.02355469 1.44207031 -0.01195312 0.73179687 0 0 Z " fill="#252361" transform="translate(464,295)"/>
<path d="M0 0 C9.57 0 19.14 0 29 0 C30.89699484 6.32331615 32.75358596 12.63671752 34.5 19 C34.93590694 20.5625812 35.37210296 22.12508179 35.80859375 23.6875 C36.51515366 26.22426554 37.19472807 28.76096498 37.84765625 31.3125 C38.08355469 32.199375 38.31945312 33.08625 38.5625 34 C38.74941406 34.7425 38.93632812 35.485 39.12890625 36.25 C40.04073455 38.52155801 40.04073455 38.52155801 44 40 C44 43.3 44 46.6 44 50 C35.09 50 26.18 50 17 50 C17 46.7 17 43.4 17 40 C18.32 40 19.64 40 21 40 C21.33 38.35 21.66 36.7 22 35 C18.37 35 14.74 35 11 35 C11.33 36.32 11.66 37.64 12 39 C13.485 39.495 13.485 39.495 15 40 C15 43.3 15 46.6 15 50 C8.07 50 1.14 50 -6 50 C-6 46.7 -6 43.4 -6 40 C-4.68 40 -3.36 40 -2 40 C0.30247207 33.5530782 2.04559801 27.05966822 3.64160156 20.41015625 C4.90301661 15.19396677 4.90301661 15.19396677 6 13 C4.02 13 2.04 13 0 13 C0 8.71 0 4.42 0 0 Z " fill="#262461" transform="translate(181,295)"/>
<path d="M0 0 C2.83203125 0.03255208 5.6640625 0.06510417 8.49609375 0.09765625 C8.49609375 5.70765625 8.49609375 11.31765625 8.49609375 17.09765625 C-5.39736103 17.61703774 -5.39736103 17.61703774 -10.50390625 13.09765625 C-13.68835278 12.91968236 -13.68835278 12.91968236 -16.50390625 14.09765625 C-18.95589353 17.54034546 -18.77149169 20.91576651 -18.75390625 25.03515625 C-18.7590625 26.24042969 -18.76421875 27.44570313 -18.76953125 28.6875 C-18.51627265 31.9388935 -17.90034502 34.17732596 -16.50390625 37.09765625 C-13.03890625 37.59265625 -13.03890625 37.59265625 -9.50390625 38.09765625 C-9.50390625 36.11765625 -9.50390625 34.13765625 -9.50390625 32.09765625 C-10.82390625 32.09765625 -12.14390625 32.09765625 -13.50390625 32.09765625 C-13.50390625 28.79765625 -13.50390625 25.49765625 -13.50390625 22.09765625 C-6.57390625 22.09765625 0.35609375 22.09765625 7.49609375 22.09765625 C7.49609375 31.33765625 7.49609375 40.57765625 7.49609375 50.09765625 C2.89671875 50.22140625 -1.70265625 50.34515625 -6.44140625 50.47265625 C-7.87347412 50.52728027 -9.30554199 50.5819043 -10.78100586 50.63818359 C-19.13588189 50.74657495 -24.20703665 49.68342575 -30.50390625 44.09765625 C-31.28765625 43.47890625 -32.07140625 42.86015625 -32.87890625 42.22265625 C-38.51370251 34.85407653 -38.54824374 26.01844564 -37.50390625 17.09765625 C-36.3232949 13.90077448 -34.78104476 11.61186671 -32.50390625 9.09765625 C-31.26640625 7.70546875 -31.26640625 7.70546875 -30.00390625 6.28515625 C-24.18264466 1.19155236 -20.27299454 0.71337734 -12.75390625 0.97265625 C-11.03004563 1.01581624 -9.30608194 1.05509544 -7.58203125 1.08984375 C-6.8230957 1.1141748 -6.06416016 1.13850586 -5.28222656 1.16357422 C-2.81727007 1.07220433 -2.71442817 0.10586693 0 0 Z " fill="#262360" transform="translate(322.50390625,294.90234375)"/>
<path d="M0 0 C9.57 0 19.14 0 29 0 C30.56161257 3.12322515 31.41157172 5.23197326 32.1484375 8.52734375 C32.34703369 9.39641357 32.54562988 10.2654834 32.75024414 11.16088867 C32.95641357 12.07717041 33.16258301 12.99345215 33.375 13.9375 C34.83952101 20.21533057 36.30324227 26.48489961 38.0625 32.6875 C38.34222656 33.68136719 38.62195313 34.67523438 38.91015625 35.69921875 C39.93956377 38.48384994 39.93956377 38.48384994 44 40 C44 43.3 44 46.6 44 50 C35.42 50 26.84 50 18 50 C18 46.7 18 43.4 18 40 C19.485 39.505 19.485 39.505 21 39 C21.33 37.68 21.66 36.36 22 35 C18.37 35 14.74 35 11 35 C11.33 36.32 11.66 37.64 12 39 C13.485 39.495 13.485 39.495 15 40 C15 43.3 15 46.6 15 50 C8.07 50 1.14 50 -6 50 C-6 46.7 -6 43.4 -6 40 C-4.82497925 39.68023193 -4.82497925 39.68023193 -3.6262207 39.35400391 C-0.79866547 38.2303361 -0.79866547 38.2303361 0.21020508 35.47802734 C0.47728271 34.4411377 0.74436035 33.40424805 1.01953125 32.3359375 C1.31923828 31.21445312 1.61894531 30.09296875 1.92773438 28.9375 C2.21970703 27.761875 2.51167969 26.58625 2.8125 25.375 C3.12380859 24.19164062 3.43511719 23.00828125 3.75585938 21.7890625 C4.52259337 18.86367743 5.26966289 15.93464456 6 13 C4.02 13 2.04 13 0 13 C0 8.71 0 4.42 0 0 Z " fill="#252361" transform="translate(663,295)"/>
<path d="M0 0 C7.59 0 15.18 0 23 0 C23 3.3 23 6.6 23 10 C22.34 10 21.68 10 21 10 C21.11798944 13.96952899 21.24221799 17.93880781 21.37231445 21.90795898 C21.41571223 23.25914147 21.4573837 24.61038053 21.49731445 25.96166992 C21.55489952 27.90036701 21.61914298 29.83886276 21.68359375 31.77734375 C21.72025146 32.94515381 21.75690918 34.11296387 21.79467773 35.31616211 C21.70076188 37.91779795 21.70076188 37.91779795 23 39 C24.87321948 39.16053815 24.87321948 39.16053815 27 39.125 C27.721875 39.12757813 28.44375 39.13015625 29.1875 39.1328125 C31.02089415 39.19695276 31.02089415 39.19695276 32 38 C32.08758003 36.00035018 32.10696576 33.9976389 32.09765625 31.99609375 C32.09443359 30.78115234 32.09121094 29.56621094 32.08789062 28.31445312 C32.07951172 27.03505859 32.07113281 25.75566406 32.0625 24.4375 C32.05798828 23.15423828 32.05347656 21.87097656 32.04882812 20.54882812 C32.03699545 17.36583978 32.02051068 14.18294238 32 11 C31.34 10.67 30.68 10.34 30 10 C30 6.7 30 3.4 30 0 C35.94 0 41.88 0 48 0 C48.09765625 7.71484375 48.09765625 7.71484375 48 10 C47.67 10.33 47.34 10.66 47 11 C46.90241351 13.15976301 46.86794283 15.32242542 46.859375 17.484375 C46.84103806 18.82553769 46.82146693 20.16668398 46.80078125 21.5078125 C46.77187108 23.62560473 46.75000177 25.74234956 46.74951172 27.86035156 C46.7461637 29.90264128 46.71153324 31.94250808 46.671875 33.984375 C46.6625293 35.20866211 46.65318359 36.43294922 46.64355469 37.69433594 C45.70728517 42.50355036 42.96821049 44.5569213 39.140625 47.36328125 C31.19891627 51.3505441 20.82421694 51.5003048 12.30078125 49.3046875 C10.18879069 48.34725178 8.73360545 47.54373438 7 46 C6.11441406 45.278125 5.22882813 44.55625 4.31640625 43.8125 C0.09979608 38.61683523 1.49298354 30.95375813 1.6875 24.625 C1.71260613 23.20707042 1.73541525 21.78909821 1.75585938 20.37109375 C1.81069176 16.91317012 1.89683389 13.45685812 2 10 C1.34 10 0.68 10 0 10 C0 6.7 0 3.4 0 0 Z " fill="#282561" transform="translate(336,295)"/>
<path d="M0 0 C0.99 0.144375 1.98 0.28875 3 0.4375 C3.33 0.1075 3.66 -0.2225 4 -0.5625 C7.33618231 -0.70507189 10.65975606 -0.60478157 14 -0.5625 C14 4.7175 14 9.9975 14 15.4375 C6.58006613 15.87916273 6.58006613 15.87916273 3 15.4375 C0.6875 12.9375 0.6875 12.9375 -1 10.4375 C-4.16848027 10.01940799 -4.16848027 10.01940799 -7 10.4375 C-6.67 12.0875 -6.34 13.7375 -6 15.4375 C-5.14664063 15.69917969 -4.29328125 15.96085937 -3.4140625 16.23046875 C0.12492481 17.48166678 3.30689173 18.99769692 6.625 20.75 C8.28402344 21.61044922 8.28402344 21.61044922 9.9765625 22.48828125 C13.13148913 24.52227142 14.95558209 26.30500287 17 29.4375 C17.86852579 35.32417477 16.82403341 38.60471513 13.6796875 43.578125 C10.50185321 47.09591366 7.39394189 49.24816658 2.65673828 49.89160156 C1.47321777 49.8706543 0.28969727 49.84970703 -0.9296875 49.828125 C-2.21875 49.81523437 -3.5078125 49.80234375 -4.8359375 49.7890625 C-6.18230268 49.75564906 -7.52865685 49.72178937 -8.875 49.6875 C-10.24476569 49.66741356 -11.61455966 49.64916655 -12.984375 49.6328125 C-16.32322024 49.58578651 -19.6617011 49.51404698 -23 49.4375 C-23 43.8275 -23 38.2175 -23 32.4375 C-15.58356941 31.90775496 -15.58356941 31.90775496 -12 32.4375 C-9.625 35.4375 -9.625 35.4375 -8 38.4375 C-5.3295947 38.93991322 -5.3295947 38.93991322 -3 38.4375 C-3.25424398 36.49574941 -3.25424398 36.49574941 -4 34.4375 C-6.45361238 32.91204409 -8.78746619 31.62307625 -11.375 30.375 C-12.73951096 29.70172156 -14.10158889 29.02348502 -15.4609375 28.33984375 C-16.06728027 28.04585693 -16.67362305 27.75187012 -17.29833984 27.44897461 C-20.49094509 25.55127539 -21.81839109 23.98232674 -23 20.4375 C-24.13701038 10.59300503 -24.13701038 10.59300503 -21.80078125 6.1640625 C-15.60891398 -1.22874628 -9.08319485 -1.423346 0 0 Z " fill="#272461" transform="translate(635,295.5625)"/>
<path d="M0 0 C12.54 0 25.08 0 38 0 C38 5.28 38 10.56 38 16 C29.69921875 16.390625 29.69921875 16.390625 27 16 C25.3125 14.03125 25.3125 14.03125 24 12 C21.40144267 11.1957792 21.40144267 11.1957792 19 11 C19 13.97 19 16.94 19 20 C20.65 20 22.3 20 24 20 C24 23.63 24 27.26 24 31 C22.35 31 20.7 31 19 31 C19 33.97 19 36.94 19 40 C23.82442184 38.73053486 23.82442184 38.73053486 27 35 C30.69593971 34.58379057 34.27119087 34.86992526 38 35 C38 39.95 38 44.9 38 50 C25.46 50 12.92 50 0 50 C0 47.03 0 44.06 0 41 C1.485 40.505 1.485 40.505 3 40 C2.67 30.43 2.34 20.86 2 11 C1.34 10.67 0.68 10.34 0 10 C0 6.7 0 3.4 0 0 Z " fill="#23215F" transform="translate(515,295)"/>
<path d="M0 0 C2.31 0 4.62 0 7 0 C11.00573752 4.21349052 11.52476281 7.75378242 11.4375 13.4375 C11.14562311 24.85437689 11.14562311 24.85437689 7 29 C4.69 29 2.38 29 0 29 C0 19.43 0 9.86 0 0 Z " fill="#FAFAFA" transform="translate(733,306)"/>
<path d="M0 0 C2 1 2 1 2.76196289 3.11376953 C2.9964917 4.02755371 3.23102051 4.94133789 3.47265625 5.8828125 C3.86227539 7.38714844 3.86227539 7.38714844 4.25976562 8.921875 C4.52466797 9.97890625 4.78957031 11.0359375 5.0625 12.125 C5.33126953 13.15882813 5.60003906 14.19265625 5.87695312 15.2578125 C7.22964243 20.54713127 8.22292327 25.56046289 9 31 C3.39 31 -2.22 31 -8 31 C-5.60434768 20.56180061 -3.0585346 10.26561346 0 0 Z " fill="#2E2C65" transform="translate(602,165)"/>
<path d="M0 0 C12.54 0 25.08 0 38 0 C38 4.95 38 9.9 38 15 C37.67 15 37.34 15 37 15 C36.505 9.06 36.505 9.06 36 3 C24.78 2.67 13.56 2.34 2 2 C2.33 4.64 2.66 7.28 3 10 C2.01 10 1.02 10 0 10 C0 6.7 0 3.4 0 0 Z " fill="#484773" transform="translate(515,295)"/>
<path d="M0 0 C0.33 0 0.66 0 1 0 C1 5.61 1 11.22 1 17 C-2.63 17 -6.26 17 -10 17 C-10 17.99 -10 18.98 -10 20 C-17.87772926 17.49344978 -17.87772926 17.49344978 -20 16 C-20.75 13.375 -20.75 13.375 -21 11 C-18.25 10.25 -18.25 10.25 -15 10 C-12.625 11.8125 -12.625 11.8125 -11 14 C-11 14.66 -11 15.32 -11 16 C-7.37 16 -3.74 16 0 16 C0 10.72 0 5.44 0 0 Z " fill="#DAD9E3" transform="translate(649,295)"/>
<path d="M0 0 C0.66 0.33 1.32 0.66 2 1 C2.08696177 4.93736123 2.14037835 8.87447628 2.1875 12.8125 C2.21263672 13.93205078 2.23777344 15.05160156 2.26367188 16.20507812 C2.27333984 17.27822266 2.28300781 18.35136719 2.29296875 19.45703125 C2.3086792 20.44678955 2.32438965 21.43654785 2.34057617 22.45629883 C1.95047123 25.3699213 1.27991712 26.22497802 -1 28 C-1.02886338 23.52084672 -1.04675187 19.04171709 -1.0625 14.5625 C-1.07087891 13.28310547 -1.07925781 12.00371094 -1.08789062 10.68554688 C-1.09111328 9.47060547 -1.09433594 8.25566406 -1.09765625 7.00390625 C-1.10289307 5.87799072 -1.10812988 4.7520752 -1.11352539 3.59204102 C-1 1 -1 1 0 0 Z " fill="#201F5E" transform="translate(718,307)"/>
<path d="M0 0 C11.22 0 22.44 0 34 0 C34 0.33 34 0.66 34 1 C23.11 1 12.22 1 1 1 C1.2 7.4 1.2 7.4 3 9 C3.08790975 11.29151417 3.10694038 13.58572524 3.09765625 15.87890625 C3.09553383 16.90889992 3.09553383 16.90889992 3.09336853 17.95970154 C3.08775479 20.16067801 3.07520007 22.36155409 3.0625 24.5625 C3.05748676 26.05143083 3.05292355 27.54036324 3.04882812 29.02929688 C3.03778093 32.68623075 3.02050713 36.34310558 3 40 C2.67 40 2.34 40 2 40 C1.97494385 39.12674072 1.9498877 38.25348145 1.92407227 37.35375977 C1.82912291 34.12397448 1.72987971 30.89435846 1.62768555 27.66479492 C1.58428566 26.26510801 1.54261436 24.86536641 1.50268555 23.46557617 C1.44510555 21.45738505 1.38086 19.44938851 1.31640625 17.44140625 C1.27974854 16.23170166 1.24309082 15.02199707 1.20532227 13.77563477 C1.31061734 11.09294544 1.31061734 11.09294544 0 10 C0 6.7 0 3.4 0 0 Z " fill="#4E4D76" transform="translate(464,295)"/>
<path d="M0 0 C3.63 0 7.26 0 11 0 C10.67 1.65 10.34 3.3 10 5 C9.01 5 8.02 5 7 5 C7 8.3 7 11.6 7 15 C6.01 15 5.02 15 4 15 C4 11.7 4 8.4 4 5 C2.68 4.67 1.36 4.34 0 4 C0 2.68 0 1.36 0 0 Z " fill="#D4D4DE" transform="translate(674,330)"/>
<path d="M0 0 C3.63 0 7.26 0 11 0 C10.67 1.65 10.34 3.3 10 5 C8.68 5 7.36 5 6 5 C6 8.3 6 11.6 6 15 C5.34 15 4.68 15 4 15 C4 11.7 4 8.4 4 5 C2.68 4.67 1.36 4.34 0 4 C0 2.68 0 1.36 0 0 Z " fill="#E4E4EC" transform="translate(192,330)"/>
<path d="M0 0 C1.29409289 0.61996078 2.58519673 1.24616353 3.875 1.875 C4.95394531 2.39707031 4.95394531 2.39707031 6.0546875 2.9296875 C8 4 8 4 10 6 C9.625 8.125 9.625 8.125 9 10 C4.48780488 10.36585366 4.48780488 10.36585366 2.25 8.6875 C1 7 1 7 0 4 C-3.63 3.67 -7.26 3.34 -11 3 C-11 2.67 -11 2.34 -11 2 C-7.37 2 -3.74 2 0 2 C0 1.34 0 0.68 0 0 Z " fill="#EDEDF3" transform="translate(623,325)"/>
<path d="M0 0 C1.65 0 3.3 0 5 0 C6 1 6 1 6.1328125 2.99609375 C6.13023437 3.80175781 6.12765625 4.60742188 6.125 5.4375 C6.12757813 6.24058594 6.13015625 7.04367187 6.1328125 7.87109375 C6 10 6 10 5 12 C3.35 12 1.7 12 0 12 C0 8.04 0 4.08 0 0 Z " fill="#F7F7F9" transform="translate(484,306)"/>
<path d="M0 0 C1.98 0 3.96 0 6 0 C7.36952673 2.73905345 7.12621361 4.97087332 7 8 C6.67 8.66 6.34 9.32 6 10 C4.02 10 2.04 10 0 10 C0 6.7 0 3.4 0 0 Z " fill="#F4F4F6" transform="translate(144,325)"/>
<path d="M0 0 C3.3 0 6.6 0 10 0 C10.33 1.32 10.66 2.64 11 4 C9.35 4.33 7.7 4.66 6 5 C5.67 8.3 5.34 11.6 5 15 C4.67 15 4.34 15 4 15 C4 11.7 4 8.4 4 5 C2.68 4.67 1.36 4.34 0 4 C0 2.68 0 1.36 0 0 Z " fill="#EEEEF2" transform="translate(781,330)"/>
<path d="M0 0 C1.65 0 3.3 0 5 0 C7 2 7 2 7.3125 4.4375 C7 7 7 7 5.75 8.8125 C4 10 4 10 0 10 C0 6.7 0 3.4 0 0 Z " fill="#E8E8ED" transform="translate(577,306)"/>
<path d="M0 0 C1.99954746 -0.04254356 4.00041636 -0.04080783 6 0 C7 1 7 1 7.125 4 C7 7 7 7 6 8 C4.00041636 8.04080783 1.99954746 8.04254356 0 8 C0 5.36 0 2.72 0 0 Z " fill="#F6F6F8" transform="translate(144,306)"/>
<path d="M0 0 C2 2 2 2 2 5 C-3.61 5 -9.22 5 -15 5 C-15 4.34 -15 3.68 -15 3 C-10.05 3 -5.1 3 0 3 C0 2.01 0 1.02 0 0 Z " fill="#53517A" transform="translate(609,191)"/>
<path d="M0 0 C2.97 0 5.94 0 9 0 C9 1.32 9 2.64 9 4 C6.69 4 4.38 4 2 4 C1.34 2.68 0.68 1.36 0 0 Z " fill="#3B386C" transform="translate(335,146)"/>
<path d="M0 0 C2.29633824 3.44450737 2.54016485 5.93812283 3 10 C1.35 10 -0.3 10 -2 10 C-1.125 2.25 -1.125 2.25 0 0 Z " fill="#CBCBD9" transform="translate(197,312)"/>
<path d="M0 0 C3.00617269 3.00617269 2.59585316 5.82381598 3 10 C1.35 10 -0.3 10 -2 10 C-1.34 6.7 -0.68 3.4 0 0 Z " fill="#CBCBD8" transform="translate(679,312)"/>
<path d="M0 0 C1.9451 2.91765 2.45276317 4.62537285 3 8 C1.35 8 -0.3 8 -2 8 C-1.125 1.125 -1.125 1.125 0 0 Z " fill="#D0CFDD" transform="translate(786,314)"/>
<path d="M0 0 C0.66 0.33 1.32 0.66 2 1 C2 3.64 2 6.28 2 9 C1.01 8.67 0.02 8.34 -1 8 C-1.04241723 5.66705225 -1.04092937 3.33297433 -1 1 C-0.67 0.67 -0.34 0.34 0 0 Z " fill="#39376F" transform="translate(301,314)"/>
<path d="M0 0 C1.64666203 0.1135629 3.29236082 0.24117381 4.9375 0.375 C5.85402344 0.44460938 6.77054688 0.51421875 7.71484375 0.5859375 C8.84599609 0.79089844 8.84599609 0.79089844 10 1 C10.33 1.66 10.66 2.32 11 3 C7.37 3 3.74 3 0 3 C0 2.01 0 1.02 0 0 Z " fill="#3A3867" transform="translate(542,308)"/>
<path d="M0 0 C0.99 0 1.98 0 3 0 C3.75 1.6875 3.75 1.6875 4 4 C2.0625 6.75 2.0625 6.75 0 9 C0 6.03 0 3.06 0 0 Z " fill="#D9D9E4" transform="translate(577,326)"/>
<path d="M0 0 C0 3.63327194 -0.95586411 5.04735927 -3 8 C-3.99 8.66 -4.98 9.32 -6 10 C-4.6302836 6.00499382 -2.74277578 3.19990508 0 0 Z " fill="#373464" transform="translate(326,151)"/>
<path d="M0 0 C0.99 0.33 1.98 0.66 3 1 C1.75 3 1.75 3 0 5 C-1.32 5 -2.64 5 -4 5 C-4 4.34 -4 3.68 -4 3 C-2.1875 1.3125 -2.1875 1.3125 0 0 Z " fill="#343367" transform="translate(296,298)"/>
<path d="M0 0 C3.3 0 6.6 0 10 0 C10.33 1.32 10.66 2.64 11 4 C10.01 3.67 9.02 3.34 8 3 C8 2.34 8 1.68 8 1 C5.36 1 2.72 1 0 1 C0 0.67 0 0.34 0 0 Z " fill="#CAC9D7" transform="translate(781,330)"/>
<path d="M0 0 C0 3.69418201 -1.28179295 5.77836178 -3 9 C-3.89674777 6.48910624 -4.13172674 5.35464891 -3.1875 2.8125 C-2 1 -2 1 0 0 Z " fill="#3D3B6C" transform="translate(164,154)"/>
</svg>
