<?xml version="1.0" encoding="UTF-8"?>
<svg version="1.1" xmlns="http://www.w3.org/2000/svg" width="300" height="195">
<path d="M0 0 C1.17036804 0.00182281 2.34073608 0.00364563 3.54656982 0.00552368 C20.53505991 0.05008128 37.15257997 0.47487126 53.9375 3.3125 C55.0188623 3.48410645 56.10022461 3.65571289 57.21435547 3.83251953 C79.65543851 7.43171287 101.32589074 13.23053663 122.8125 20.5625 C124.06144043 20.98684326 125.31038086 21.41118652 126.59716797 21.84838867 C127.75877441 22.25420166 128.92038086 22.66001465 130.1171875 23.078125 C131.14569824 23.43680664 132.17420898 23.79548828 133.23388672 24.16503906 C136.66950008 25.62317369 139.22416611 26.82478446 140.87890625 30.27587891 C141.18634766 31.39615479 141.18634766 31.39615479 141.5 32.5390625 C141.85650635 33.81753052 141.85650635 33.81753052 142.22021484 35.12182617 C142.575271 36.51558472 142.575271 36.51558472 142.9375 37.9375 C143.19096191 38.92403564 143.44442383 39.91057129 143.70556641 40.92700195 C144.48188738 44.04875624 145.21694307 47.17743664 145.9375 50.3125 C146.1550293 51.23305176 146.37255859 52.15360352 146.59667969 53.10205078 C153.27134201 82.59684239 152.08139203 115.85548342 145.9375 145.3125 C145.72319336 146.42818359 145.50888672 147.54386719 145.28808594 148.69335938 C144.63344831 152.05707235 143.92329052 155.40318556 143.1875 158.75 C142.98431152 159.75828857 142.78112305 160.76657715 142.57177734 161.80541992 C140.97504192 168.405832 140.97504192 168.405832 138.32910156 170.71801758 C136.23565712 171.8245449 134.18942497 172.58145056 131.9375 173.3125 C131.13022461 173.61808838 130.32294922 173.92367676 129.49121094 174.23852539 C108.60736736 182.01605144 86.85777466 187.2783959 64.9375 191.125 C63.83059814 191.31989014 62.72369629 191.51478027 61.58325195 191.71557617 C42.20131102 194.93667219 23.06223688 195.68476961 3.4375 195.625 C2.19738159 195.62317719 0.95726318 195.62135437 -0.32043457 195.61947632 C-18.10828749 195.57541287 -35.47878424 195.18139206 -53.0625 192.3125 C-54.13435547 192.15152832 -55.20621094 191.99055664 -56.31054688 191.82470703 C-81.39462944 188.03148653 -106.4394903 181.98891532 -130.625 174.3125 C-131.55803955 174.04139404 -132.4910791 173.77028809 -133.45239258 173.4909668 C-139.32322335 171.49844582 -139.32322335 171.49844582 -141.21411133 168.46508789 C-142.06132599 166.09145134 -142.58641306 163.78721631 -143.0625 161.3125 C-143.27608154 160.41515137 -143.48966309 159.51780273 -143.7097168 158.59326172 C-144.40042259 155.65454923 -145.01901733 152.70727188 -145.625 149.75 C-145.83318359 148.77998047 -146.04136719 147.80996094 -146.25585938 146.81054688 C-149.57500559 130.81829693 -150.46893909 115.28561622 -150.4375 99 C-150.43728851 97.98737091 -150.43707703 96.97474182 -150.43685913 95.931427 C-150.40316945 79.73722669 -149.49092443 64.19039066 -146.0625 48.3125 C-145.84335938 47.28769531 -145.62421875 46.26289062 -145.3984375 45.20703125 C-141.82440145 28.8363029 -141.82440145 28.8363029 -140.0625 25.3125 C-111.36596038 12.38397562 -77.07901159 6.21521398 -46.0625 2.3125 C-44.99468796 2.17586441 -44.99468796 2.17586441 -43.90530396 2.03646851 C-29.27291159 0.21371647 -14.73247479 -0.04763525 0 0 Z M-115.0625 58.3125 C-115.3925 58.9725 -115.7225 59.6325 -116.0625 60.3125 C-111.7725 60.6425 -107.4825 60.9725 -103.0625 61.3125 C-100.78298821 69.54520105 -99.72869059 77.92272052 -98.5625 86.37304688 C-98.315 88.07364258 -98.315 88.07364258 -98.0625 89.80859375 C-97.918125 90.84169678 -97.77375 91.8747998 -97.625 92.93920898 C-97.439375 93.72239502 -97.25375 94.50558105 -97.0625 95.3125 C-96.4025 95.6425 -95.7425 95.9725 -95.0625 96.3125 C-94.71469482 95.50095459 -94.36688965 94.68940918 -94.00854492 93.85327148 C-89.35986328 83.00634766 -84.71118164 72.15942383 -80.0625 61.3125 C-75.7725 61.3125 -71.4825 61.3125 -67.0625 61.3125 C-66.89121582 62.29645752 -66.71993164 63.28041504 -66.54345703 64.29418945 C-65.90576572 67.94635218 -65.25873908 71.59680943 -64.60888672 75.24682617 C-64.3289936 76.8264547 -64.05163027 78.40653366 -63.77685547 79.98706055 C-63.38133208 82.25953518 -62.97672268 84.53023166 -62.5703125 86.80078125 C-62.4493924 87.50713211 -62.32847229 88.21348297 -62.20388794 88.9412384 C-61.58789786 92.33228627 -61.00522621 94.39841069 -59.0625 97.3125 C-58.85681396 96.79042969 -58.65112793 96.26835938 -58.43920898 95.73046875 C-53.86760875 84.15127836 -49.11866362 72.68886814 -44.0625 61.3125 C-35.6475 60.8175 -35.6475 60.8175 -27.0625 60.3125 C-27.82046875 62.10107422 -27.82046875 62.10107422 -28.59375 63.92578125 C-29.25027854 65.49207077 -29.90651329 67.05848347 -30.5625 68.625 C-30.89636719 69.41068359 -31.23023437 70.19636719 -31.57421875 71.00585938 C-31.89003906 71.76318359 -32.20585938 72.52050781 -32.53125 73.30078125 C-32.97114258 74.34552612 -32.97114258 74.34552612 -33.41992188 75.41137695 C-34.2226016 77.45171072 -34.2226016 77.45171072 -34.0625 80.3125 C-23.8325 80.3125 -13.6025 80.3125 -3.0625 80.3125 C-3.7121875 83.08140625 -4.361875 85.8503125 -5.03125 88.703125 C-5.65779679 91.38696182 -6.28282866 94.07114721 -6.90771484 96.75537109 C-7.34265417 98.61999912 -7.77916635 100.484261 -8.21728516 102.34814453 C-8.84692079 105.02802227 -9.47087973 107.70916786 -10.09375 110.390625 C-10.29061401 111.22305725 -10.48747803 112.0554895 -10.69030762 112.91314697 C-10.87049438 113.69365417 -11.05068115 114.47416138 -11.23632812 115.27832031 C-11.47615417 116.30424286 -11.47615417 116.30424286 -11.7208252 117.35089111 C-12.1768982 119.63742092 -12.1768982 119.63742092 -12.0625 123.3125 C-7.7725 123.3125 -3.4825 123.3125 0.9375 123.3125 C2.2485903 118.33541447 3.55925222 113.35821635 4.86965942 108.38095093 C5.55982815 105.76014593 6.25047926 103.13946837 6.94116211 100.51879883 C8.94352864 92.91747108 10.94295942 85.31566124 12.90234375 77.703125 C13.31589111 76.09932983 13.31589111 76.09932983 13.73779297 74.46313477 C14.2358561 72.52687844 14.73109614 70.58989315 15.22314453 68.65209961 C16.8271995 62.4228005 16.8271995 62.4228005 17.9375 61.3125 C20.46543394 61.07578017 22.96684966 60.8910675 25.5 60.75 C27.954375 60.605625 30.40875 60.46125 32.9375 60.3125 C31.6175 66.5825 30.2975 72.8525 28.9375 79.3125 C36.48749984 80.21368753 36.48749984 80.21368753 39.29296875 77.15234375 C39.89753906 76.19457031 40.50210938 75.23679688 41.125 74.25 C41.80046875 73.25097656 42.4759375 72.25195312 43.171875 71.22265625 C44.91815534 68.47746568 44.91815534 68.47746568 45.953125 66.05859375 C47.02259987 63.88792229 48.03738989 62.80801169 49.9375 61.3125 C51.87646484 60.82885742 51.87646484 60.82885742 54.0234375 60.66796875 C54.79179932 60.60818848 55.56016113 60.5484082 56.35180664 60.48681641 C59.88564146 60.32205041 63.39974455 60.28519648 66.9375 60.3125 C66.10938123 61.87776994 65.27452839 63.43947632 64.4375 65 C63.89996094 66.00933594 63.36242187 67.01867187 62.80859375 68.05859375 C60.9375 71.3125 60.9375 71.3125 58.72265625 74.41015625 C53.16194089 82.29679472 52.04394631 87.43230645 53.56835938 96.91308594 C54.01292052 99.80273338 54.35911791 102.69824639 54.703125 105.6015625 C55.40644329 111.51091314 56.15833782 117.41271035 56.9375 123.3125 C59.9075 123.3125 62.8775 123.3125 65.9375 123.3125 C66.41131104 122.12035889 66.88512207 120.92821777 67.37329102 119.69995117 C72.08118355 107.87860598 76.87540246 96.09541496 81.74926758 84.34155273 C82.90131459 81.56149914 84.04930921 78.7797917 85.19726562 75.99804688 C85.93204912 74.22385786 86.66706564 72.44976533 87.40234375 70.67578125 C87.74394028 69.84685867 88.0855368 69.0179361 88.43748474 68.16389465 C90.82304864 62.42695136 90.82304864 62.42695136 91.9375 61.3125 C94.46799402 61.23936433 96.97054837 61.22002473 99.5 61.25 C100.21091797 61.25451172 100.92183594 61.25902344 101.65429688 61.26367188 C103.41540013 61.27549136 105.17646036 61.29342737 106.9375 61.3125 C107.02075531 61.89972839 107.10401062 62.48695679 107.18978882 63.09197998 C108.06423635 69.25769474 108.94072948 75.42311634 109.81835938 81.58837891 C110.14472023 83.88290214 110.47057636 86.17749722 110.79589844 88.47216797 C111.26621816 91.78893189 111.7384112 95.1054248 112.2109375 98.421875 C112.35373138 99.43175476 112.49652527 100.44163452 112.64364624 101.4821167 C113.63804716 108.44399614 114.75395686 115.38033242 115.9375 122.3125 C118.9075 122.3125 121.8775 122.3125 124.9375 122.3125 C125.865625 120.5490625 125.865625 120.5490625 126.8125 118.75 C127.16054688 118.08871094 127.50859375 117.42742187 127.8671875 116.74609375 C132.47809898 106.26215999 132.7457708 92.7274401 129.3125 81.8125 C128.56862947 79.95925855 127.7775137 78.12419098 126.9375 76.3125 C126.53660156 75.405 126.13570312 74.4975 125.72265625 73.5625 C114.37222359 50.40103741 89.50649967 36.34729638 66.13671875 28.0625 C7.81191816 8.15039368 -69.60260357 12.46669613 -115.0625 58.3125 Z M-125.0625 73.3125 C-125.69559191 74.49570576 -126.31846718 75.68437848 -126.9375 76.875 C-127.28554687 77.53628906 -127.63359375 78.19757813 -127.9921875 78.87890625 C-132.60309898 89.36284001 -132.8707708 102.8975599 -129.4375 113.8125 C-128.69362947 115.66574145 -127.9025137 117.50080902 -127.0625 119.3125 C-126.66160156 120.22 -126.26070312 121.1275 -125.84765625 122.0625 C-114.34480651 145.53498179 -88.53478372 160.11284277 -64.77392578 168.41748047 C-19.97435261 183.20545411 33.64868549 183.32155204 76.9375 163.3125 C77.59685547 163.01085937 78.25621094 162.70921875 78.93554688 162.3984375 C92.42367312 156.16730312 107.51328648 147.94882029 115.9375 135.3125 C110.3275 134.9825 104.7175 134.6525 98.9375 134.3125 C98.70963542 132.03385417 98.48177083 129.75520833 98.25390625 127.4765625 C98.04659886 125.26977195 98.04659886 125.26977195 96.9375 123.3125 C91.9875 123.3125 87.0375 123.3125 81.9375 123.3125 C79.4625 128.7575 79.4625 128.7575 76.9375 134.3125 C65.0575 134.6425 53.1775 134.9725 40.9375 135.3125 C40.48375 131.166875 40.03 127.02125 39.5625 122.75 C38.47819247 112.91855115 37.33175383 103.10508279 35.9375 93.3125 C32.3075 93.3125 28.6775 93.3125 24.9375 93.3125 C21.3075 106.8425 17.6775 120.3725 13.9375 134.3125 C-9.3275 134.8075 -9.3275 134.8075 -33.0625 135.3125 C-28.0625 115.4375 -28.0625 115.4375 -26.48046875 109.16455078 C-26.07012573 107.5290182 -25.65995741 105.89344178 -25.25 104.2578125 C-25.03408203 103.40437256 -24.81816406 102.55093262 -24.59570312 101.67163086 C-24.39267578 100.85976318 -24.18964844 100.04789551 -23.98046875 99.21142578 C-23.80281982 98.5052713 -23.6251709 97.79911682 -23.44213867 97.07156372 C-22.99217951 95.28659588 -22.99217951 95.28659588 -23.0625 93.3125 C-28.6725 93.3125 -34.2825 93.3125 -40.0625 93.3125 C-40.54195068 94.48345215 -41.02140137 95.6544043 -41.51538086 96.86083984 C-43.29064678 101.19595606 -45.06692193 105.53065815 -46.84350586 109.86523438 C-47.61298822 111.74305073 -48.38219506 113.62098001 -49.15112305 115.49902344 C-50.25497567 118.1949575 -51.35981124 120.89048688 -52.46484375 123.5859375 C-52.80966293 124.42869232 -53.15448212 125.27144714 -53.50975037 126.13973999 C-53.83000687 126.92039825 -54.15026337 127.70105652 -54.48022461 128.50537109 C-54.76224228 129.19376068 -55.04425995 129.88215027 -55.33482361 130.59140015 C-55.86737249 131.85098451 -56.45091827 133.08933653 -57.0625 134.3125 C-59.77696979 134.62491455 -62.40159361 134.82586592 -65.125 134.9375 C-65.88361328 134.97617188 -66.64222656 135.01484375 -67.42382812 135.0546875 C-69.30297195 135.14923562 -71.18270336 135.23196756 -73.0625 135.3125 C-73.17207031 134.22195312 -73.28164062 133.13140625 -73.39453125 132.0078125 C-74.53620893 121.02560977 -76.13507552 110.18317408 -78.0625 99.3125 C-80.20290431 102.52310646 -81.72638252 105.84045436 -83.28515625 109.3515625 C-83.59069931 110.03302338 -83.89624237 110.71448425 -84.21104431 111.41659546 C-85.18493914 113.58908817 -86.15532495 115.76312086 -87.125 117.9375 C-88.09839864 120.11894946 -89.07259957 122.30001917 -90.04966736 124.47982788 C-90.65729552 125.83547685 -91.26279158 127.19208381 -91.86598206 128.54971313 C-93.94989929 133.19989929 -93.94989929 133.19989929 -95.0625 134.3125 C-97.41563555 134.38521741 -99.77083668 134.39620868 -102.125 134.375 C-103.41535156 134.36597656 -104.70570312 134.35695312 -106.03515625 134.34765625 C-107.03417969 134.33605469 -108.03320312 134.32445312 -109.0625 134.3125 C-109.14797592 133.62203079 -109.23345184 132.93156158 -109.32151794 132.22016907 C-110.1287343 125.70224118 -110.93774288 119.18453851 -111.74874783 112.66708088 C-112.16559536 109.31666792 -112.58175785 105.96617287 -112.99633789 102.61547852 C-113.47367899 98.76036045 -113.95340319 94.90554529 -114.43359375 91.05078125 C-114.58154892 89.85165604 -114.72950409 88.65253082 -114.88194275 87.41706848 C-115.02201248 86.29628403 -115.16208221 85.17549957 -115.30639648 84.02075195 C-115.48959694 82.54515556 -115.48959694 82.54515556 -115.67649841 81.03974915 C-116.04476104 78.43783256 -116.51948651 75.88306156 -117.0625 73.3125 C-119.7025 73.3125 -122.3425 73.3125 -125.0625 73.3125 Z M92.9375 97.3125 C90.9575 101.6025 88.9775 105.8925 86.9375 110.3125 C89.5775 110.3125 92.2175 110.3125 94.9375 110.3125 C94.6075 106.0225 94.2775 101.7325 93.9375 97.3125 C93.6075 97.3125 93.2775 97.3125 92.9375 97.3125 Z " fill="#03ADF1" transform="translate(150.0625,-0.31250000000000006)"/>
<path d="M0 0 C5.28 0 10.56 0 16 0 C13.125 11.875 13.125 11.875 12 13 C9.46950598 13.07313567 6.96695163 13.09247527 4.4375 13.0625 C3.37112305 13.05573242 3.37112305 13.05573242 2.28320312 13.04882812 C0.52209987 13.03700864 -1.23896036 13.01907263 -3 13 C-2.88490339 11.58249437 -2.75746342 10.16598831 -2.625 8.75 C-2.55539063 7.96109375 -2.48578125 7.1721875 -2.4140625 6.359375 C-2 4 -2 4 0 0 Z " fill="#03AEF1" transform="translate(136,61)"/>
</svg>
